<svg width="1230" height="844" viewBox="0 0 1230 844" fill="none" xmlns="http://www.w3.org/2000/svg">
<g filter="url(#filter0_f_116_1057)">
<path d="M91 91H1139L921 753H334L91 91Z" fill="url(#paint0_radial_116_1057)"/>
</g>
<rect x="323" y="713" width="596" height="46" rx="21.7054" fill="white"/>
<rect x="322" y="713" width="596" height="17" fill="url(#paint1_linear_116_1057)"/>
<g filter="url(#filter1_f_116_1057)">
<rect x="965" y="590.207" width="12.2055" height="12.2055" fill="#FBFBFB"/>
<rect x="983.311" y="645.599" width="12.2055" height="12.2055" fill="#FBFBFB"/>
<rect x="989.412" y="614.615" width="12.2055" height="12.2055" fill="#FBFBFB"/>
<rect x="983.307" y="626.821" width="12.2055" height="12.2055" fill="#FBFBFB"/>
<rect x="1001.62" y="590.204" width="12.2055" height="24.411" fill="#FBFBFB"/>
<rect x="977.207" y="578" width="24.411" height="12.2055" fill="#FBFBFB"/>
</g>
<rect x="965" y="590.207" width="12.2055" height="12.2055" fill="#FBFBFB"/>
<rect x="983.311" y="645.599" width="12.2055" height="12.2055" fill="#FBFBFB"/>
<rect x="989.412" y="614.615" width="12.2055" height="12.2055" fill="#FBFBFB"/>
<rect x="983.307" y="626.821" width="12.2055" height="12.2055" fill="#FBFBFB"/>
<rect x="1001.62" y="590.204" width="12.2055" height="24.411" fill="#FBFBFB"/>
<rect x="977.207" y="578" width="24.411" height="12.2055" fill="#FBFBFB"/>
<g opacity="0.8">
<g filter="url(#filter2_f_116_1057)">
<rect x="1091" y="360.006" width="11.0053" height="11.0053" fill="#FBFBFB"/>
<rect x="1107.51" y="409.952" width="11.0053" height="11.0053" fill="#FBFBFB"/>
<rect x="1113.01" y="382.016" width="11.0053" height="11.0053" fill="#FBFBFB"/>
<rect x="1107.51" y="393.021" width="11.0053" height="11.0053" fill="#FBFBFB"/>
<rect x="1124.02" y="360.006" width="11.0053" height="22.0106" fill="#FBFBFB"/>
<rect x="1102.01" y="349" width="22.0106" height="11.0053" fill="#FBFBFB"/>
</g>
<rect x="1091" y="360.006" width="11.0053" height="11.0053" fill="#FBFBFB"/>
<rect x="1107.51" y="409.952" width="11.0053" height="11.0053" fill="#FBFBFB"/>
<rect x="1113.01" y="382.016" width="11.0053" height="11.0053" fill="#FBFBFB"/>
<rect x="1107.51" y="393.021" width="11.0053" height="11.0053" fill="#FBFBFB"/>
<rect x="1124.02" y="360.006" width="11.0053" height="22.0106" fill="#FBFBFB"/>
<rect x="1102.01" y="349" width="22.0106" height="11.0053" fill="#FBFBFB"/>
</g>
<g opacity="0.5">
<g filter="url(#filter3_f_116_1057)">
<rect x="807" y="200.17" width="7.16805" height="7.16805" fill="#FBFBFB"/>
<rect x="817.751" y="232.701" width="7.16805" height="7.16805" fill="#FBFBFB"/>
<rect x="821.336" y="214.505" width="7.16805" height="7.16805" fill="#FBFBFB"/>
<rect x="817.751" y="221.671" width="7.16805" height="7.16805" fill="#FBFBFB"/>
<rect x="828.502" y="200.169" width="7.16805" height="14.3361" fill="#FBFBFB"/>
<rect x="814.168" y="193" width="14.3361" height="7.16805" fill="#FBFBFB"/>
</g>
<rect x="807" y="200.17" width="7.16805" height="7.16805" fill="#FBFBFB"/>
<rect x="817.751" y="232.701" width="7.16805" height="7.16805" fill="#FBFBFB"/>
<rect x="821.336" y="214.505" width="7.16805" height="7.16805" fill="#FBFBFB"/>
<rect x="817.751" y="221.671" width="7.16805" height="7.16805" fill="#FBFBFB"/>
<rect x="828.502" y="200.169" width="7.16805" height="14.3361" fill="#FBFBFB"/>
<rect x="814.168" y="193" width="14.3361" height="7.16805" fill="#FBFBFB"/>
</g>
<g opacity="0.9">
<g filter="url(#filter4_f_116_1057)">
<rect x="126" y="308.505" width="5.50589" height="5.50589" fill="#FBFBFB"/>
<rect x="134.259" y="333.493" width="5.50589" height="5.50589" fill="#FBFBFB"/>
<rect x="137.013" y="319.516" width="5.50589" height="5.50589" fill="#FBFBFB"/>
<rect x="134.259" y="325.022" width="5.50589" height="5.50589" fill="#FBFBFB"/>
<rect x="142.517" y="308.505" width="5.50589" height="11.0118" fill="#FBFBFB"/>
<rect x="131.506" y="302.999" width="11.0118" height="5.50589" fill="#FBFBFB"/>
</g>
<rect x="126" y="308.505" width="5.50589" height="5.50589" fill="#FBFBFB"/>
<rect x="134.259" y="333.493" width="5.50589" height="5.50589" fill="#FBFBFB"/>
<rect x="137.013" y="319.516" width="5.50589" height="5.50589" fill="#FBFBFB"/>
<rect x="134.259" y="325.022" width="5.50589" height="5.50589" fill="#FBFBFB"/>
<rect x="142.517" y="308.505" width="5.50589" height="11.0118" fill="#FBFBFB"/>
<rect x="131.506" y="302.999" width="11.0118" height="5.50589" fill="#FBFBFB"/>
</g>
<g filter="url(#filter5_f_116_1057)">
<rect x="210" y="537.471" width="14.4685" height="14.4685" fill="#FBFBFB"/>
<rect x="231.705" y="603.135" width="14.4685" height="14.4685" fill="#FBFBFB"/>
<rect x="238.938" y="566.407" width="14.4685" height="14.4685" fill="#FBFBFB"/>
<rect x="231.702" y="580.877" width="14.4685" height="14.4685" fill="#FBFBFB"/>
<rect x="253.407" y="537.472" width="14.4685" height="28.937" fill="#FBFBFB"/>
<rect x="224.467" y="523" width="28.937" height="14.4685" fill="#FBFBFB"/>
</g>
<rect x="210" y="537.471" width="14.4685" height="14.4685" fill="#FBFBFB"/>
<rect x="231.705" y="603.135" width="14.4685" height="14.4685" fill="#FBFBFB"/>
<rect x="238.938" y="566.407" width="14.4685" height="14.4685" fill="#FBFBFB"/>
<rect x="231.702" y="580.877" width="14.4685" height="14.4685" fill="#FBFBFB"/>
<rect x="253.407" y="537.472" width="14.4685" height="28.937" fill="#FBFBFB"/>
<rect x="224.467" y="523" width="28.937" height="14.4685" fill="#FBFBFB"/>
<g filter="url(#filter6_f_116_1057)">
<path d="M421.998 577.24C412.824 577.24 403.971 576.12 395.438 573.88C387.011 571.533 380.131 568.547 374.798 564.92L385.198 541.56C390.211 544.76 395.971 547.427 402.478 549.56C409.091 551.587 415.651 552.6 422.158 552.6C426.531 552.6 430.051 552.227 432.718 551.48C435.384 550.627 437.304 549.56 438.478 548.28C439.758 546.893 440.398 545.293 440.398 543.48C440.398 540.92 439.224 538.893 436.878 537.4C434.531 535.907 431.491 534.68 427.758 533.72C424.024 532.76 419.864 531.8 415.278 530.84C410.798 529.88 406.264 528.653 401.678 527.16C397.198 525.667 393.091 523.747 389.358 521.4C385.624 518.947 382.584 515.8 380.238 511.96C377.891 508.013 376.717 503.053 376.717 497.08C376.717 490.36 378.531 484.28 382.158 478.84C385.891 473.4 391.438 469.027 398.798 465.72C406.158 462.413 415.331 460.76 426.318 460.76C433.678 460.76 440.878 461.613 447.918 463.32C455.064 464.92 461.411 467.32 466.958 470.52L457.198 494.04C451.864 491.16 446.584 489.027 441.358 487.64C436.131 486.147 431.064 485.4 426.158 485.4C421.784 485.4 418.264 485.88 415.598 486.84C412.931 487.693 411.011 488.867 409.838 490.36C408.664 491.853 408.078 493.56 408.078 495.48C408.078 497.933 409.198 499.907 411.438 501.4C413.784 502.787 416.824 503.96 420.558 504.92C424.398 505.773 428.558 506.68 433.038 507.64C437.624 508.6 442.158 509.827 446.638 511.32C451.224 512.707 455.384 514.627 459.118 517.08C462.851 519.427 465.838 522.573 468.078 526.52C470.424 530.36 471.598 535.213 471.598 541.08C471.598 547.587 469.731 553.613 465.998 559.16C462.371 564.6 456.878 568.973 449.518 572.28C442.264 575.587 433.091 577.24 421.998 577.24ZM542.711 577.24C533.751 577.24 525.485 575.8 517.911 572.92C510.338 570.04 503.725 565.987 498.071 560.76C492.525 555.427 488.205 549.24 485.111 542.2C482.018 535.16 480.471 527.427 480.471 519C480.471 510.573 482.018 502.84 485.111 495.8C488.205 488.76 492.525 482.627 498.071 477.4C503.725 472.067 510.338 467.96 517.911 465.08C525.485 462.2 533.751 460.76 542.711 460.76C551.778 460.76 560.045 462.2 567.511 465.08C575.085 467.96 581.645 472.067 587.191 477.4C592.738 482.627 597.058 488.76 600.151 495.8C603.351 502.84 604.951 510.573 604.951 519C604.951 527.427 603.351 535.213 600.151 542.36C597.058 549.4 592.738 555.533 587.191 560.76C581.645 565.987 575.085 570.04 567.511 572.92C560.045 575.8 551.778 577.24 542.711 577.24ZM542.711 551C546.978 551 550.925 550.253 554.551 548.76C558.285 547.267 561.485 545.133 564.151 542.36C566.925 539.48 569.058 536.067 570.551 532.12C572.151 528.173 572.951 523.8 572.951 519C572.951 514.093 572.151 509.72 570.551 505.88C569.058 501.933 566.925 498.573 564.151 495.8C561.485 492.92 558.285 490.733 554.551 489.24C550.925 487.747 546.978 487 542.711 487C538.445 487 534.445 487.747 530.711 489.24C527.085 490.733 523.885 492.92 521.111 495.8C518.445 498.573 516.311 501.933 514.711 505.88C513.218 509.72 512.471 514.093 512.471 519C512.471 523.8 513.218 528.173 514.711 532.12C516.311 536.067 518.445 539.48 521.111 542.36C523.885 545.133 527.085 547.267 530.711 548.76C534.445 550.253 538.445 551 542.711 551ZM678.024 577.24C669.064 577.24 660.797 575.8 653.224 572.92C645.65 570.04 639.037 565.987 633.384 560.76C627.837 555.427 623.517 549.24 620.424 542.2C617.33 535.16 615.784 527.427 615.784 519C615.784 510.573 617.33 502.84 620.424 495.8C623.517 488.76 627.837 482.627 633.384 477.4C639.037 472.067 645.65 467.96 653.224 465.08C660.797 462.2 669.064 460.76 678.024 460.76C687.09 460.76 695.357 462.2 702.824 465.08C710.397 467.96 716.957 472.067 722.504 477.4C728.05 482.627 732.37 488.76 735.464 495.8C738.664 502.84 740.264 510.573 740.264 519C740.264 527.427 738.664 535.213 735.464 542.36C732.37 549.4 728.05 555.533 722.504 560.76C716.957 565.987 710.397 570.04 702.824 572.92C695.357 575.8 687.09 577.24 678.024 577.24ZM678.024 551C682.29 551 686.237 550.253 689.864 548.76C693.597 547.267 696.797 545.133 699.464 542.36C702.237 539.48 704.37 536.067 705.864 532.12C707.464 528.173 708.264 523.8 708.264 519C708.264 514.093 707.464 509.72 705.864 505.88C704.37 501.933 702.237 498.573 699.464 495.8C696.797 492.92 693.597 490.733 689.864 489.24C686.237 487.747 682.29 487 678.024 487C673.757 487 669.757 487.747 666.024 489.24C662.397 490.733 659.197 492.92 656.424 495.8C653.757 498.573 651.624 501.933 650.024 505.88C648.53 509.72 647.784 514.093 647.784 519C647.784 523.8 648.53 528.173 650.024 532.12C651.624 536.067 653.757 539.48 656.424 542.36C659.197 545.133 662.397 547.267 666.024 548.76C669.757 550.253 673.757 551 678.024 551ZM756.856 575V463H782.936L844.696 537.56H832.376V463H863.416V575H837.336L775.576 500.44H787.896V575H756.856Z" fill="white"/>
<path d="M335.04 423.24C326.187 423.24 317.973 421.853 310.4 419.08C302.933 416.2 296.427 412.147 290.88 406.92C285.44 401.693 281.173 395.56 278.08 388.52C274.987 381.373 273.44 373.533 273.44 365C273.44 356.467 274.987 348.68 278.08 341.64C281.173 334.493 285.44 328.307 290.88 323.08C296.427 317.853 302.933 313.853 310.4 311.08C317.973 308.2 326.187 306.76 335.04 306.76C345.387 306.76 354.613 308.573 362.72 312.2C370.933 315.827 377.76 321.053 383.2 327.88L363.04 346.12C359.413 341.853 355.413 338.6 351.04 336.36C346.773 334.12 341.973 333 336.64 333C332.053 333 327.84 333.747 324 335.24C320.16 336.733 316.853 338.92 314.08 341.8C311.413 344.573 309.28 347.933 307.68 351.88C306.187 355.827 305.44 360.2 305.44 365C305.44 369.8 306.187 374.173 307.68 378.12C309.28 382.067 311.413 385.48 314.08 388.36C316.853 391.133 320.16 393.267 324 394.76C327.84 396.253 332.053 397 336.64 397C341.973 397 346.773 395.88 351.04 393.64C355.413 391.4 359.413 388.147 363.04 383.88L383.2 402.12C377.76 408.84 370.933 414.067 362.72 417.8C354.613 421.427 345.387 423.24 335.04 423.24ZM451.461 423.24C442.501 423.24 434.235 421.8 426.661 418.92C419.088 416.04 412.475 411.987 406.821 406.76C401.275 401.427 396.955 395.24 393.861 388.2C390.768 381.16 389.221 373.427 389.221 365C389.221 356.573 390.768 348.84 393.861 341.8C396.955 334.76 401.275 328.627 406.821 323.4C412.475 318.067 419.088 313.96 426.661 311.08C434.235 308.2 442.501 306.76 451.461 306.76C460.528 306.76 468.795 308.2 476.261 311.08C483.835 313.96 490.395 318.067 495.941 323.4C501.488 328.627 505.808 334.76 508.901 341.8C512.101 348.84 513.701 356.573 513.701 365C513.701 373.427 512.101 381.213 508.901 388.36C505.808 395.4 501.488 401.533 495.941 406.76C490.395 411.987 483.835 416.04 476.261 418.92C468.795 421.8 460.528 423.24 451.461 423.24ZM451.461 397C455.728 397 459.675 396.253 463.301 394.76C467.035 393.267 470.235 391.133 472.901 388.36C475.675 385.48 477.808 382.067 479.301 378.12C480.901 374.173 481.701 369.8 481.701 365C481.701 360.093 480.901 355.72 479.301 351.88C477.808 347.933 475.675 344.573 472.901 341.8C470.235 338.92 467.035 336.733 463.301 335.24C459.675 333.747 455.728 333 451.461 333C447.195 333 443.195 333.747 439.461 335.24C435.835 336.733 432.635 338.92 429.861 341.8C427.195 344.573 425.061 347.933 423.461 351.88C421.968 355.72 421.221 360.093 421.221 365C421.221 369.8 421.968 374.173 423.461 378.12C425.061 382.067 427.195 385.48 429.861 388.36C432.635 391.133 435.835 393.267 439.461 394.76C443.195 396.253 447.195 397 451.461 397ZM530.294 421V309H556.374L602.774 385.16H589.014L634.134 309H660.214L660.534 421H631.414L631.094 353.32H636.054L602.294 409.96H588.214L553.494 353.32H559.574V421H530.294ZM682.95 421V309H714.63V421H682.95ZM737.169 421V309H763.249L825.009 383.56H812.689V309H843.729V421H817.649L755.889 346.44H768.209V421H737.169ZM922.075 423.24C913.222 423.24 905.008 421.853 897.435 419.08C889.862 416.2 883.302 412.147 877.755 406.92C872.315 401.693 868.048 395.56 864.955 388.52C861.862 381.373 860.315 373.533 860.315 365C860.315 356.467 861.862 348.68 864.955 341.64C868.048 334.493 872.368 328.307 877.915 323.08C883.462 317.853 890.022 313.853 897.595 311.08C905.275 308.2 913.648 306.76 922.715 306.76C933.275 306.76 942.715 308.52 951.035 312.04C959.355 315.56 966.235 320.627 971.675 327.24L951.515 345.48C947.675 341.32 943.515 338.227 939.035 336.2C934.662 334.067 929.755 333 924.315 333C919.515 333 915.142 333.747 911.195 335.24C907.248 336.733 903.888 338.92 901.115 341.8C898.342 344.573 896.155 347.933 894.555 351.88C893.062 355.72 892.315 360.093 892.315 365C892.315 369.693 893.062 374.013 894.555 377.96C896.155 381.907 898.342 385.32 901.115 388.2C903.888 390.973 907.195 393.16 911.035 394.76C914.982 396.253 919.302 397 923.995 397C928.688 397 933.275 396.253 937.755 394.76C942.235 393.16 946.768 390.493 951.355 386.76L969.115 409C962.715 413.587 955.302 417.107 946.875 419.56C938.448 422.013 930.182 423.24 922.075 423.24ZM941.115 404.84V362.6H969.115V409L941.115 404.84Z" fill="white"/>
</g>
<path d="M421.998 577.24C412.824 577.24 403.971 576.12 395.438 573.88C387.011 571.533 380.131 568.547 374.798 564.92L385.198 541.56C390.211 544.76 395.971 547.427 402.478 549.56C409.091 551.587 415.651 552.6 422.158 552.6C426.531 552.6 430.051 552.227 432.718 551.48C435.384 550.627 437.304 549.56 438.478 548.28C439.758 546.893 440.398 545.293 440.398 543.48C440.398 540.92 439.224 538.893 436.878 537.4C434.531 535.907 431.491 534.68 427.758 533.72C424.024 532.76 419.864 531.8 415.278 530.84C410.798 529.88 406.264 528.653 401.678 527.16C397.198 525.667 393.091 523.747 389.358 521.4C385.624 518.947 382.584 515.8 380.238 511.96C377.891 508.013 376.717 503.053 376.717 497.08C376.717 490.36 378.531 484.28 382.158 478.84C385.891 473.4 391.438 469.027 398.798 465.72C406.158 462.413 415.331 460.76 426.318 460.76C433.678 460.76 440.878 461.613 447.918 463.32C455.064 464.92 461.411 467.32 466.958 470.52L457.198 494.04C451.864 491.16 446.584 489.027 441.358 487.64C436.131 486.147 431.064 485.4 426.158 485.4C421.784 485.4 418.264 485.88 415.598 486.84C412.931 487.693 411.011 488.867 409.838 490.36C408.664 491.853 408.078 493.56 408.078 495.48C408.078 497.933 409.198 499.907 411.438 501.4C413.784 502.787 416.824 503.96 420.558 504.92C424.398 505.773 428.558 506.68 433.038 507.64C437.624 508.6 442.158 509.827 446.638 511.32C451.224 512.707 455.384 514.627 459.118 517.08C462.851 519.427 465.838 522.573 468.078 526.52C470.424 530.36 471.598 535.213 471.598 541.08C471.598 547.587 469.731 553.613 465.998 559.16C462.371 564.6 456.878 568.973 449.518 572.28C442.264 575.587 433.091 577.24 421.998 577.24ZM542.711 577.24C533.751 577.24 525.485 575.8 517.911 572.92C510.338 570.04 503.725 565.987 498.071 560.76C492.525 555.427 488.205 549.24 485.111 542.2C482.018 535.16 480.471 527.427 480.471 519C480.471 510.573 482.018 502.84 485.111 495.8C488.205 488.76 492.525 482.627 498.071 477.4C503.725 472.067 510.338 467.96 517.911 465.08C525.485 462.2 533.751 460.76 542.711 460.76C551.778 460.76 560.045 462.2 567.511 465.08C575.085 467.96 581.645 472.067 587.191 477.4C592.738 482.627 597.058 488.76 600.151 495.8C603.351 502.84 604.951 510.573 604.951 519C604.951 527.427 603.351 535.213 600.151 542.36C597.058 549.4 592.738 555.533 587.191 560.76C581.645 565.987 575.085 570.04 567.511 572.92C560.045 575.8 551.778 577.24 542.711 577.24ZM542.711 551C546.978 551 550.925 550.253 554.551 548.76C558.285 547.267 561.485 545.133 564.151 542.36C566.925 539.48 569.058 536.067 570.551 532.12C572.151 528.173 572.951 523.8 572.951 519C572.951 514.093 572.151 509.72 570.551 505.88C569.058 501.933 566.925 498.573 564.151 495.8C561.485 492.92 558.285 490.733 554.551 489.24C550.925 487.747 546.978 487 542.711 487C538.445 487 534.445 487.747 530.711 489.24C527.085 490.733 523.885 492.92 521.111 495.8C518.445 498.573 516.311 501.933 514.711 505.88C513.218 509.72 512.471 514.093 512.471 519C512.471 523.8 513.218 528.173 514.711 532.12C516.311 536.067 518.445 539.48 521.111 542.36C523.885 545.133 527.085 547.267 530.711 548.76C534.445 550.253 538.445 551 542.711 551ZM678.024 577.24C669.064 577.24 660.797 575.8 653.224 572.92C645.65 570.04 639.037 565.987 633.384 560.76C627.837 555.427 623.517 549.24 620.424 542.2C617.33 535.16 615.784 527.427 615.784 519C615.784 510.573 617.33 502.84 620.424 495.8C623.517 488.76 627.837 482.627 633.384 477.4C639.037 472.067 645.65 467.96 653.224 465.08C660.797 462.2 669.064 460.76 678.024 460.76C687.09 460.76 695.357 462.2 702.824 465.08C710.397 467.96 716.957 472.067 722.504 477.4C728.05 482.627 732.37 488.76 735.464 495.8C738.664 502.84 740.264 510.573 740.264 519C740.264 527.427 738.664 535.213 735.464 542.36C732.37 549.4 728.05 555.533 722.504 560.76C716.957 565.987 710.397 570.04 702.824 572.92C695.357 575.8 687.09 577.24 678.024 577.24ZM678.024 551C682.29 551 686.237 550.253 689.864 548.76C693.597 547.267 696.797 545.133 699.464 542.36C702.237 539.48 704.37 536.067 705.864 532.12C707.464 528.173 708.264 523.8 708.264 519C708.264 514.093 707.464 509.72 705.864 505.88C704.37 501.933 702.237 498.573 699.464 495.8C696.797 492.92 693.597 490.733 689.864 489.24C686.237 487.747 682.29 487 678.024 487C673.757 487 669.757 487.747 666.024 489.24C662.397 490.733 659.197 492.92 656.424 495.8C653.757 498.573 651.624 501.933 650.024 505.88C648.53 509.72 647.784 514.093 647.784 519C647.784 523.8 648.53 528.173 650.024 532.12C651.624 536.067 653.757 539.48 656.424 542.36C659.197 545.133 662.397 547.267 666.024 548.76C669.757 550.253 673.757 551 678.024 551ZM756.856 575V463H782.936L844.696 537.56H832.376V463H863.416V575H837.336L775.576 500.44H787.896V575H756.856Z" fill="white"/>
<path d="M335.04 423.24C326.187 423.24 317.973 421.853 310.4 419.08C302.933 416.2 296.427 412.147 290.88 406.92C285.44 401.693 281.173 395.56 278.08 388.52C274.987 381.373 273.44 373.533 273.44 365C273.44 356.467 274.987 348.68 278.08 341.64C281.173 334.493 285.44 328.307 290.88 323.08C296.427 317.853 302.933 313.853 310.4 311.08C317.973 308.2 326.187 306.76 335.04 306.76C345.387 306.76 354.613 308.573 362.72 312.2C370.933 315.827 377.76 321.053 383.2 327.88L363.04 346.12C359.413 341.853 355.413 338.6 351.04 336.36C346.773 334.12 341.973 333 336.64 333C332.053 333 327.84 333.747 324 335.24C320.16 336.733 316.853 338.92 314.08 341.8C311.413 344.573 309.28 347.933 307.68 351.88C306.187 355.827 305.44 360.2 305.44 365C305.44 369.8 306.187 374.173 307.68 378.12C309.28 382.067 311.413 385.48 314.08 388.36C316.853 391.133 320.16 393.267 324 394.76C327.84 396.253 332.053 397 336.64 397C341.973 397 346.773 395.88 351.04 393.64C355.413 391.4 359.413 388.147 363.04 383.88L383.2 402.12C377.76 408.84 370.933 414.067 362.72 417.8C354.613 421.427 345.387 423.24 335.04 423.24ZM451.461 423.24C442.501 423.24 434.235 421.8 426.661 418.92C419.088 416.04 412.475 411.987 406.821 406.76C401.275 401.427 396.955 395.24 393.861 388.2C390.768 381.16 389.221 373.427 389.221 365C389.221 356.573 390.768 348.84 393.861 341.8C396.955 334.76 401.275 328.627 406.821 323.4C412.475 318.067 419.088 313.96 426.661 311.08C434.235 308.2 442.501 306.76 451.461 306.76C460.528 306.76 468.795 308.2 476.261 311.08C483.835 313.96 490.395 318.067 495.941 323.4C501.488 328.627 505.808 334.76 508.901 341.8C512.101 348.84 513.701 356.573 513.701 365C513.701 373.427 512.101 381.213 508.901 388.36C505.808 395.4 501.488 401.533 495.941 406.76C490.395 411.987 483.835 416.04 476.261 418.92C468.795 421.8 460.528 423.24 451.461 423.24ZM451.461 397C455.728 397 459.675 396.253 463.301 394.76C467.035 393.267 470.235 391.133 472.901 388.36C475.675 385.48 477.808 382.067 479.301 378.12C480.901 374.173 481.701 369.8 481.701 365C481.701 360.093 480.901 355.72 479.301 351.88C477.808 347.933 475.675 344.573 472.901 341.8C470.235 338.92 467.035 336.733 463.301 335.24C459.675 333.747 455.728 333 451.461 333C447.195 333 443.195 333.747 439.461 335.24C435.835 336.733 432.635 338.92 429.861 341.8C427.195 344.573 425.061 347.933 423.461 351.88C421.968 355.72 421.221 360.093 421.221 365C421.221 369.8 421.968 374.173 423.461 378.12C425.061 382.067 427.195 385.48 429.861 388.36C432.635 391.133 435.835 393.267 439.461 394.76C443.195 396.253 447.195 397 451.461 397ZM530.294 421V309H556.374L602.774 385.16H589.014L634.134 309H660.214L660.534 421H631.414L631.094 353.32H636.054L602.294 409.96H588.214L553.494 353.32H559.574V421H530.294ZM682.95 421V309H714.63V421H682.95ZM737.169 421V309H763.249L825.009 383.56H812.689V309H843.729V421H817.649L755.889 346.44H768.209V421H737.169ZM922.075 423.24C913.222 423.24 905.008 421.853 897.435 419.08C889.862 416.2 883.302 412.147 877.755 406.92C872.315 401.693 868.048 395.56 864.955 388.52C861.862 381.373 860.315 373.533 860.315 365C860.315 356.467 861.862 348.68 864.955 341.64C868.048 334.493 872.368 328.307 877.915 323.08C883.462 317.853 890.022 313.853 897.595 311.08C905.275 308.2 913.648 306.76 922.715 306.76C933.275 306.76 942.715 308.52 951.035 312.04C959.355 315.56 966.235 320.627 971.675 327.24L951.515 345.48C947.675 341.32 943.515 338.227 939.035 336.2C934.662 334.067 929.755 333 924.315 333C919.515 333 915.142 333.747 911.195 335.24C907.248 336.733 903.888 338.92 901.115 341.8C898.342 344.573 896.155 347.933 894.555 351.88C893.062 355.72 892.315 360.093 892.315 365C892.315 369.693 893.062 374.013 894.555 377.96C896.155 381.907 898.342 385.32 901.115 388.2C903.888 390.973 907.195 393.16 911.035 394.76C914.982 396.253 919.302 397 923.995 397C928.688 397 933.275 396.253 937.755 394.76C942.235 393.16 946.768 390.493 951.355 386.76L969.115 409C962.715 413.587 955.302 417.107 946.875 419.56C938.448 422.013 930.182 423.24 922.075 423.24ZM941.115 404.84V362.6H969.115V409L941.115 404.84Z" fill="white"/>
<g opacity="0.8">
<g filter="url(#filter7_f_116_1057)">
<rect x="409" y="122.174" width="11.2501" height="11.1759" fill="#FBFBFB"/>
<rect x="425.874" y="172.898" width="11.2501" height="11.1759" fill="#FBFBFB"/>
<rect x="431.501" y="144.526" width="11.2501" height="11.1759" fill="#FBFBFB"/>
<rect x="425.874" y="155.703" width="11.2501" height="11.1759" fill="#FBFBFB"/>
<rect x="442.75" y="122.177" width="11.2501" height="22.3519" fill="#FBFBFB"/>
<rect x="420.249" y="110.999" width="22.5001" height="11.1759" fill="#FBFBFB"/>
</g>
<rect x="409" y="122.174" width="11.2501" height="11.1759" fill="#FBFBFB"/>
<rect x="425.874" y="172.898" width="11.2501" height="11.1759" fill="#FBFBFB"/>
<rect x="431.501" y="144.526" width="11.2501" height="11.1759" fill="#FBFBFB"/>
<rect x="425.874" y="155.703" width="11.2501" height="11.1759" fill="#FBFBFB"/>
<rect x="442.75" y="122.177" width="11.2501" height="22.3519" fill="#FBFBFB"/>
<rect x="420.249" y="110.999" width="22.5001" height="11.1759" fill="#FBFBFB"/>
</g>
<defs>
<filter id="filter0_f_116_1057" x="0.560799" y="0.560799" width="1228.88" height="842.878" filterUnits="userSpaceOnUse" color-interpolation-filters="sRGB">
<feFlood flood-opacity="0" result="BackgroundImageFix"/>
<feBlend mode="normal" in="SourceGraphic" in2="BackgroundImageFix" result="shape"/>
<feGaussianBlur stdDeviation="45.2196" result="effect1_foregroundBlur_116_1057"/>
</filter>
<filter id="filter1_f_116_1057" x="945" y="558" width="88.8223" height="119.804" filterUnits="userSpaceOnUse" color-interpolation-filters="sRGB">
<feFlood flood-opacity="0" result="BackgroundImageFix"/>
<feBlend mode="normal" in="SourceGraphic" in2="BackgroundImageFix" result="shape"/>
<feGaussianBlur stdDeviation="10" result="effect1_foregroundBlur_116_1057"/>
</filter>
<filter id="filter2_f_116_1057" x="1071" y="329" width="84.0215" height="111.957" filterUnits="userSpaceOnUse" color-interpolation-filters="sRGB">
<feFlood flood-opacity="0" result="BackgroundImageFix"/>
<feBlend mode="normal" in="SourceGraphic" in2="BackgroundImageFix" result="shape"/>
<feGaussianBlur stdDeviation="10" result="effect1_foregroundBlur_116_1057"/>
</filter>
<filter id="filter3_f_116_1057" x="787" y="173" width="68.6699" height="86.8691" filterUnits="userSpaceOnUse" color-interpolation-filters="sRGB">
<feFlood flood-opacity="0" result="BackgroundImageFix"/>
<feBlend mode="normal" in="SourceGraphic" in2="BackgroundImageFix" result="shape"/>
<feGaussianBlur stdDeviation="10" result="effect1_foregroundBlur_116_1057"/>
</filter>
<filter id="filter4_f_116_1057" x="106" y="282.999" width="62.0225" height="76" filterUnits="userSpaceOnUse" color-interpolation-filters="sRGB">
<feFlood flood-opacity="0" result="BackgroundImageFix"/>
<feBlend mode="normal" in="SourceGraphic" in2="BackgroundImageFix" result="shape"/>
<feGaussianBlur stdDeviation="10" result="effect1_foregroundBlur_116_1057"/>
</filter>
<filter id="filter5_f_116_1057" x="190" y="503" width="97.876" height="134.604" filterUnits="userSpaceOnUse" color-interpolation-filters="sRGB">
<feFlood flood-opacity="0" result="BackgroundImageFix"/>
<feBlend mode="normal" in="SourceGraphic" in2="BackgroundImageFix" result="shape"/>
<feGaussianBlur stdDeviation="10" result="effect1_foregroundBlur_116_1057"/>
</filter>
<filter id="filter6_f_116_1057" x="253.44" y="286.76" width="738.234" height="310.48" filterUnits="userSpaceOnUse" color-interpolation-filters="sRGB">
<feFlood flood-opacity="0" result="BackgroundImageFix"/>
<feBlend mode="normal" in="SourceGraphic" in2="BackgroundImageFix" result="shape"/>
<feGaussianBlur stdDeviation="10" result="effect1_foregroundBlur_116_1057"/>
</filter>
<filter id="filter7_f_116_1057" x="389" y="90.999" width="85" height="113.075" filterUnits="userSpaceOnUse" color-interpolation-filters="sRGB">
<feFlood flood-opacity="0" result="BackgroundImageFix"/>
<feBlend mode="normal" in="SourceGraphic" in2="BackgroundImageFix" result="shape"/>
<feGaussianBlur stdDeviation="10" result="effect1_foregroundBlur_116_1057"/>
</filter>
<radialGradient id="paint0_radial_116_1057" cx="0" cy="0" r="1" gradientUnits="userSpaceOnUse" gradientTransform="translate(665.788 951.287) rotate(-91.7523) scale(835.223 1165.73)">
<stop stop-color="#00FFFF"/>
<stop offset="1" stop-color="#00FFFF" stop-opacity="0"/>
</radialGradient>
<linearGradient id="paint1_linear_116_1057" x1="663" y1="713" x2="663" y2="728.5" gradientUnits="userSpaceOnUse">
<stop stop-color="#DFDFDF"/>
<stop offset="0.734827" stop-color="#CACBCD"/>
</linearGradient>
</defs>
</svg>
