<svg width="16" height="16" viewBox="0 0 16 16" fill="none" xmlns="http://www.w3.org/2000/svg">
<path d="M8.95039 2.00805L12.437 0.25454C14.3296 -0.697271 16.3444 1.30811 15.4014 3.2051L9.96455 14.1426C9.15598 15.7692 6.83742 15.7746 6.02127 14.1518L0.533391 3.23982C-0.418419 1.34726 1.58696 -0.667514 3.48395 0.275447L6.97874 2.01265C7.60006 2.3215 8.33052 2.31979 8.95039 2.00805Z" fill="#3171D3"/>
<path d="M8.95039 2.00805L12.437 0.25454C14.3296 -0.697271 16.3444 1.30811 15.4014 3.2051L9.96455 14.1426C9.15598 15.7692 6.83742 15.7746 6.02127 14.1518L0.533391 3.23982C-0.418419 1.34726 1.58696 -0.667514 3.48395 0.275447L6.97874 2.01265C7.60006 2.3215 8.33052 2.31979 8.95039 2.00805Z" fill="black" fill-opacity="0.2"/>
</svg>
