<svg width="127" height="127" viewBox="0 0 127 127" fill="none" xmlns="http://www.w3.org/2000/svg">
<circle cx="63.5" cy="63.5" r="63.5" fill="url(#paint0_linear_1475_6622)"/>
<path fill-rule="evenodd" clip-rule="evenodd" d="M49.6764 30.375C49.6764 28.1659 51.4673 26.375 53.6764 26.375H74.3431C76.5522 26.375 78.3431 28.1659 78.3431 30.375V36.7083C78.3431 38.9175 76.5522 40.7083 74.3431 40.7083H53.6764C51.4673 40.7083 49.6764 38.9175 49.6764 36.7083V30.375ZM44.3014 33.5419H35.7598C33.5506 33.5419 31.7598 35.3328 31.7598 37.5419V94.0419C31.7598 96.2511 33.5506 98.0419 35.7598 98.0419H92.2598C94.4689 98.0419 96.2598 96.2511 96.2598 94.0419V37.5419C96.2598 35.3328 94.4689 33.5419 92.2598 33.5419H83.7181C83.7181 40.4685 78.103 46.0836 71.1764 46.0836H56.8431C49.9165 46.0836 44.3014 40.4685 44.3014 33.5419ZM76.7824 63.9781C77.7598 62.8611 77.6466 61.1632 76.5296 60.1858C75.4126 59.2084 73.7147 59.3216 72.7373 60.4386L62.4535 72.1916C62.1378 72.5524 61.594 72.6007 61.2197 72.3012L54.9387 67.2765C53.7797 66.3492 52.0885 66.5372 51.1613 67.6962C50.2341 68.8552 50.422 70.5464 51.581 71.4736L57.8619 76.4984C60.4824 78.5947 64.2888 78.2565 66.4986 75.7311L76.7824 63.9781Z" fill="#FBFBFB"/>
<defs>
<linearGradient id="paint0_linear_1475_6622" x1="33.3535" y1="10.8618" x2="260.136" y2="145.946" gradientUnits="userSpaceOnUse">
<stop stop-color="#37C8EE"/>
<stop offset="0.76891" stop-color="#91E8FF"/>
</linearGradient>
</defs>
</svg>
