<svg width="23" height="23" viewBox="0 0 23 23" fill="none" xmlns="http://www.w3.org/2000/svg">
<path fill-rule="evenodd" clip-rule="evenodd" d="M19.6981 22.0403C20.3449 22.6871 21.3935 22.6871 22.0404 22.0403C22.6872 21.3935 22.6872 20.3448 22.0404 19.698L13.8424 11.5001L22.0403 3.3021C22.6871 2.6553 22.6871 1.60662 22.0403 0.959811C21.3935 0.313005 20.3448 0.313005 19.698 0.959811L11.5001 9.15777L3.30202 0.959714C2.65522 0.312907 1.60654 0.312908 0.959733 0.959714C0.312928 1.60652 0.312927 2.6552 0.959733 3.30201L9.15779 11.5001L0.959714 19.6981C0.312907 20.3449 0.312908 21.3936 0.959714 22.0404C1.60652 22.6872 2.6552 22.6872 3.30201 22.0404L11.5001 13.8424L19.6981 22.0403Z" fill="#383530"/>
</svg>
