<svg width="55" height="55" viewBox="0 0 55 55" fill="none" xmlns="http://www.w3.org/2000/svg">
<path fill-rule="evenodd" clip-rule="evenodd" d="M27.5 55C42.6878 55 55 42.6878 55 27.5C55 12.3122 42.6878 0 27.5 0C12.3122 0 0 12.3122 0 27.5C0 42.6878 12.3122 55 27.5 55ZM22.9652 27.5C22.9652 25.0032 25.0028 22.9655 27.4997 22.9655C29.9965 22.9655 32.0341 25.0032 32.0341 27.5C32.0341 29.9968 29.9965 32.0345 27.4997 32.0345C25.0028 32.0345 22.9652 29.9968 22.9652 27.5ZM41.1001 26.8131C41.0999 27.0419 41.0996 27.2708 41.0996 27.5C41.0996 27.7563 41.1 28.0123 41.1004 28.2681C41.1028 29.886 41.1052 31.4943 41.0112 33.1128C40.9057 35.2899 40.4125 37.2186 38.8171 38.814C37.2251 40.406 35.2929 40.9027 33.1159 41.0081C31.4703 41.1007 29.8352 41.0989 28.1899 41.0971C27.9611 41.0968 27.7322 41.0966 27.5031 41.0966C27.2744 41.0966 27.0459 41.0968 26.8175 41.0971C25.1744 41.0989 23.5389 41.1007 21.8903 41.0081C19.7132 40.9027 17.7844 40.4094 16.189 38.814C14.5971 37.222 14.1004 35.2899 13.995 33.1128C13.9024 31.4672 13.9042 29.8294 13.906 28.1857C13.9063 27.9572 13.9065 27.7287 13.9065 27.5C13.9065 27.2713 13.9063 27.0427 13.906 26.8144C13.9042 25.1713 13.9024 23.5358 13.995 21.8872C14.1004 19.7101 14.5937 17.7814 16.189 16.186C17.781 14.594 19.7132 14.0973 21.8903 13.9919C23.5358 13.8993 25.1709 13.9011 26.8162 13.9029C27.0449 13.9032 27.2739 13.9034 27.5031 13.9034C27.7318 13.9034 27.9603 13.9032 28.1887 13.9029C29.8318 13.9011 31.4673 13.8993 33.1159 13.9919C35.2929 14.0973 37.2217 14.5906 38.8171 16.186C40.4091 17.778 40.9057 19.7101 41.0112 21.8872C41.1038 23.5328 41.102 25.1678 41.1001 26.8131ZM20.5228 27.5C20.5228 31.3609 23.6388 34.4769 27.4997 34.4769C31.3606 34.4769 34.4765 31.3609 34.4765 27.5C34.4765 23.6391 31.3606 20.5231 27.4997 20.5231C23.6388 20.5231 20.5228 23.6391 20.5228 27.5ZM33.1329 20.2374C33.1329 21.1388 33.8608 21.8668 34.7623 21.8668C34.9763 21.8671 35.1883 21.8251 35.3862 21.7433C35.584 21.6615 35.7637 21.5415 35.9151 21.3902C36.0664 21.2388 36.1864 21.0591 36.2682 20.8613C36.35 20.6634 36.392 20.4514 36.3917 20.2374C36.3917 19.3359 35.6637 18.608 34.7623 18.608C33.8608 18.608 33.1329 19.3359 33.1329 20.2374Z" fill="#FBFBFB"/>
</svg>
