<svg width="32" height="32" viewBox="0 0 32 32" fill="none" xmlns="http://www.w3.org/2000/svg">
<path fill-rule="evenodd" clip-rule="evenodd" d="M15.5136 0.320312C6.94567 0.320312 0 7.26598 0 15.8339C0 24.4018 6.94567 31.3475 15.5136 31.3475C24.0815 31.3475 31.0272 24.4018 31.0272 15.8339C31.0272 7.26598 24.0815 0.320312 15.5136 0.320312ZM26.1296 14.6502C26.1296 9.90021 21.3677 6.03651 15.5151 6.03651C9.66382 6.03651 4.90054 9.90021 4.90054 14.6502C4.90054 18.908 8.67667 22.4758 13.7783 23.1485C14.1233 23.2228 14.593 23.3767 14.7124 23.6726C14.8198 23.9406 14.7827 24.3612 14.7469 24.6319L14.5956 25.5408L14.5916 25.5646C14.5412 25.8512 14.4138 26.577 15.5151 26.1126C16.6482 25.635 21.6278 22.5129 23.8542 19.9495C25.3933 18.2631 26.1296 16.5515 26.1296 14.6502ZM9.54043 16.2344H11.5638C11.591 16.2346 11.6179 16.2401 11.6429 16.2507C11.668 16.2613 11.6907 16.2767 11.7098 16.296C11.7289 16.3153 11.744 16.3383 11.7542 16.3634C11.7645 16.3886 11.7697 16.4156 11.7695 16.4428V17.1858C11.7695 17.2999 11.6779 17.3928 11.5638 17.3928H8.5891C8.53571 17.3932 8.48428 17.3727 8.4458 17.3357L8.44315 17.333L8.44049 17.3304V17.3291C8.40467 17.2932 8.38211 17.2415 8.38211 17.1871V12.5618C8.38211 12.5346 8.38747 12.5077 8.39787 12.4826C8.40827 12.4575 8.42352 12.4347 8.44274 12.4154C8.46196 12.3962 8.48478 12.381 8.50989 12.3706C8.535 12.3602 8.56192 12.3548 8.5891 12.3548H9.33477C9.38944 12.3552 9.44174 12.3771 9.48027 12.4159C9.5188 12.4547 9.54043 12.5071 9.54043 12.5618V16.2344ZM12.467 12.4154C12.5058 12.3766 12.5584 12.3548 12.6133 12.3548H13.359C13.4137 12.3552 13.466 12.3771 13.5045 12.4159C13.543 12.4547 13.5647 12.5071 13.5647 12.5618V17.1871C13.5647 17.2999 13.4731 17.3928 13.359 17.3928H12.6133C12.4992 17.3928 12.4064 17.3012 12.4064 17.1871V12.5618C12.4064 12.5069 12.4282 12.4543 12.467 12.4154ZM17.5925 12.4154C17.6313 12.3766 17.6839 12.3548 17.7388 12.3548H18.4832C18.5381 12.3548 18.5907 12.3766 18.6295 12.4154C18.6684 12.4543 18.6902 12.5069 18.6902 12.5618V17.1884C18.6902 17.3012 18.5973 17.3941 18.4819 17.3941H17.7388C17.7209 17.3938 17.703 17.3911 17.6858 17.3861H17.6818C17.6804 17.3858 17.6791 17.3854 17.6777 17.385C17.6746 17.3841 17.6716 17.3832 17.6685 17.3821L17.6619 17.3795L17.6526 17.3755C17.6489 17.374 17.6454 17.3722 17.642 17.3702L17.6367 17.3675L17.6234 17.3596L17.6221 17.3583C17.602 17.3447 17.5845 17.3276 17.5703 17.3078L15.4474 14.4419V17.1884C15.4474 17.3012 15.3545 17.3941 15.2391 17.3941H14.4961C14.382 17.3941 14.2891 17.3025 14.2891 17.1884V12.5631C14.2895 12.5085 14.3114 12.4562 14.3502 12.4176C14.389 12.3791 14.4414 12.3575 14.4961 12.3575H15.2577L15.2603 12.3588H15.2657L15.2696 12.3601H15.2776L15.2895 12.3628L15.2935 12.3641H15.2962C15.3007 12.3652 15.3051 12.3665 15.3094 12.3681L15.3147 12.3707L15.328 12.376L15.332 12.3787H15.3346L15.3453 12.3853C15.3476 12.3864 15.3498 12.3878 15.3519 12.3893L15.3559 12.392L15.3625 12.3973H15.3638C15.369 12.4009 15.3739 12.4049 15.3784 12.4092L15.3824 12.4132C15.3871 12.4174 15.3915 12.4218 15.3957 12.4265V12.4278C15.4018 12.4341 15.4076 12.4407 15.4129 12.4477L17.5319 15.3083V12.5618C17.5319 12.5069 17.5537 12.4543 17.5925 12.4154ZM22.8007 12.5631V13.3062H22.7993C22.7993 13.4203 22.7078 13.5131 22.5937 13.5131H20.5703V14.2946H22.5937C22.6209 14.2948 22.6477 14.3003 22.6728 14.3109C22.6978 14.3215 22.7206 14.3368 22.7396 14.3562C22.7587 14.3755 22.7738 14.3985 22.7841 14.4236C22.7943 14.4488 22.7995 14.4758 22.7993 14.5029V15.246C22.7993 15.3601 22.7078 15.4529 22.5937 15.4529H20.5703V16.2344H22.595C22.6222 16.2346 22.6491 16.2401 22.6741 16.2507C22.6992 16.2613 22.7219 16.2767 22.741 16.296C22.7601 16.3153 22.7752 16.3383 22.7854 16.3634C22.7957 16.3886 22.8008 16.4156 22.8007 16.4428V17.1858C22.8007 17.2999 22.7091 17.3928 22.595 17.3928H19.6203C19.5669 17.393 19.5155 17.3726 19.477 17.3357L19.4743 17.333L19.4717 17.3291C19.4358 17.2932 19.4133 17.2415 19.4133 17.1871V12.5618C19.4137 12.5087 19.4346 12.4579 19.4717 12.4198L19.4743 12.4159L19.4756 12.4132H19.477C19.5153 12.3758 19.5667 12.3549 19.6203 12.3548H22.595C22.6222 12.355 22.6491 12.3605 22.6741 12.3711C22.6992 12.3816 22.7219 12.397 22.741 12.4164C22.7601 12.4357 22.7752 12.4586 22.7854 12.4838C22.7957 12.509 22.8008 12.536 22.8007 12.5631Z" fill="#FBFBFB"/>
</svg>
