<svg width="55" height="55" viewBox="0 0 55 55" fill="none" xmlns="http://www.w3.org/2000/svg">
<path fill-rule="evenodd" clip-rule="evenodd" d="M27.5 55C42.6878 55 55 42.6878 55 27.5C55 12.3122 42.6878 0 27.5 0C12.3122 0 0 12.3122 0 27.5C0 42.6878 12.3122 55 27.5 55ZM29.524 23.9587H24.572V41.3333H29.9053V32.916C29.9053 30.096 30.952 28.3027 33.4707 28.3027C35.2867 28.3027 36 29.9667 36 32.9173V41.3333H41.3333V31.7373C41.3333 26.556 40.0827 23.732 34.8147 23.732C32.0667 23.732 30.2373 25.0067 29.524 26.4253V23.9587ZM20.76 23.732V41.1067H15.4267V23.732H20.76ZM21.2632 19.3688C21.4355 18.9563 21.5242 18.5137 21.524 18.0667C21.524 17.164 21.1627 16.3 20.52 15.6627C19.876 15.0253 19.004 14.6667 18.0947 14.6667C17.187 14.6663 16.3158 15.0242 15.6707 15.6627C15.0267 16.3 14.6667 17.164 14.6667 18.0667C14.6674 18.5136 14.7564 18.9561 14.9285 19.3686C15.1005 19.7811 15.3523 20.1556 15.6693 20.4707C16.3151 21.1083 17.1859 21.4661 18.0933 21.4667C19.0024 21.4689 19.8752 21.1102 20.52 20.4693C20.8382 20.1553 21.0908 19.7813 21.2632 19.3688Z" fill="#FBFBFB"/>
</svg>
