<svg width="55" height="55" viewBox="0 0 55 55" fill="none" xmlns="http://www.w3.org/2000/svg">
<path fill-rule="evenodd" clip-rule="evenodd" d="M27.5 55C42.6878 55 55 42.6878 55 27.5C55 12.3122 42.6878 0 27.5 0C12.3122 0 0 12.3122 0 27.5C0 42.6878 12.3122 55 27.5 55ZM39.9573 19.56C41.2147 19.4093 42.4107 19.076 43.524 18.5827L43.5213 18.5867C42.6879 19.8332 41.6391 20.9213 40.424 21.8C40.436 22.0667 40.4427 22.336 40.4427 22.6027C40.4427 30.8107 34.196 40.2747 22.7693 40.2747C19.3938 40.2784 16.0886 39.3096 13.2493 37.484C13.7414 37.5419 14.2365 37.5708 14.732 37.5707C17.5292 37.5748 20.2464 36.6379 22.4467 34.9107C21.1506 34.8869 19.8943 34.4584 18.8538 33.6852C17.8133 32.912 17.0407 31.8328 16.644 30.5987C17.5751 30.7761 18.5344 30.7396 19.4493 30.492C18.0434 30.2079 16.7791 29.4462 15.8709 28.336C14.9627 27.2258 14.4666 25.8357 14.4667 24.4013V24.3213C15.3292 24.8008 16.2937 25.0673 17.28 25.0987C16.4295 24.5307 15.7324 23.7616 15.2505 22.8596C14.7686 21.9577 14.5167 20.9507 14.5173 19.928C14.5173 18.792 14.824 17.7253 15.3573 16.8053C16.9171 18.7242 18.863 20.2937 21.0686 21.4119C23.2742 22.5301 25.6902 23.172 28.16 23.296C27.8474 21.9637 27.9834 20.5654 28.5469 19.3183C29.1104 18.0711 30.0698 17.045 31.2763 16.399C32.4828 15.7531 33.8688 15.5235 35.2191 15.746C36.5694 15.9684 37.8085 16.6305 38.744 17.6293C40.1351 17.3563 41.4691 16.8467 42.688 16.1227C42.2253 17.562 41.2547 18.7837 39.9573 19.56Z" fill="#FBFBFB"/>
</svg>
