<svg width="32" height="32" viewBox="0 0 32 32" fill="none" xmlns="http://www.w3.org/2000/svg">
<path fill-rule="evenodd" clip-rule="evenodd" d="M15.8239 0C7.08458 0 0 7.08458 0 15.8239C0 24.5631 7.08458 31.6477 15.8239 31.6477C24.5631 31.6477 31.6477 24.5631 31.6477 15.8239C31.6477 7.08458 24.5631 0 15.8239 0ZM16.1444 5.68815C18.7697 5.68913 21.2339 6.71096 23.087 8.56499C24.94 10.42 25.9599 12.8852 25.9579 15.5075C25.955 20.9163 21.5522 25.3181 16.1434 25.3181H16.1395C14.4967 25.3171 12.8834 24.9054 11.4499 24.1233L6.30834 25.3387L7.63967 20.4035C6.78094 18.9159 6.32898 17.2279 6.32996 15.4987C6.33192 10.0889 10.7346 5.68815 16.1444 5.68815ZM19.2905 20.1706C19.7405 20.1303 20.7417 19.5781 20.946 19.0053C21.1504 18.4325 21.1504 17.9412 21.0895 17.84C21.0405 17.7579 20.9255 17.7024 20.7547 17.62C20.713 17.5999 20.668 17.5782 20.6198 17.5541C20.3752 17.4313 19.1696 16.8379 18.9446 16.7563C18.7196 16.6748 18.5555 16.6335 18.3924 16.8791C18.2293 17.1248 17.7597 17.6769 17.6162 17.84C17.4728 18.0041 17.3303 18.0248 17.0847 17.9019C17.044 17.8814 16.9883 17.8572 16.9194 17.8272C16.5732 17.6765 15.8946 17.3812 15.1128 16.6846C14.3837 16.0351 13.8925 15.2324 13.749 14.9868C13.6066 14.7421 13.7343 14.6085 13.8571 14.4867C13.9303 14.4135 14.0144 14.3111 14.0987 14.2085C14.141 14.157 14.1835 14.1053 14.2246 14.0573C14.3285 13.935 14.3738 13.8426 14.4355 13.7169C14.4461 13.6952 14.4572 13.6726 14.4692 13.6486C14.5508 13.4855 14.5095 13.342 14.4486 13.2192C14.423 13.1677 14.3243 12.9243 14.2021 12.6232C14.0332 12.2069 13.8196 11.6803 13.693 11.3986C13.5093 10.9908 13.3157 10.982 13.1408 10.9751C12.9984 10.9692 12.8343 10.9692 12.6712 10.9692C12.5071 10.9692 12.2418 11.0301 12.0168 11.2758C12.0028 11.2911 11.9871 11.3078 11.9701 11.3258C11.715 11.5971 11.1581 12.1893 11.1581 13.3204C11.1581 14.5191 12.0251 15.6771 12.1568 15.853L12.1593 15.8563C12.1684 15.8685 12.1856 15.8941 12.2107 15.9313C12.5215 16.3926 14.0414 18.6484 16.3478 19.5575C18.2207 20.2958 18.7447 20.2339 19.1606 20.1848C19.2046 20.1796 19.2474 20.1745 19.2905 20.1706Z" fill="#FBFBFB"/>
</svg>
