<svg width="55" height="55" viewBox="0 0 55 55" fill="none" xmlns="http://www.w3.org/2000/svg">
<path fill-rule="evenodd" clip-rule="evenodd" d="M27.5 55C42.6878 55 55 42.6878 55 27.5C55 12.3122 42.6878 0 27.5 0C12.3122 0 0 12.3122 0 27.5C0 42.6878 12.3122 55 27.5 55ZM42.073 18.6436C42.5617 19.1329 42.9133 19.7419 43.0926 20.4098C43.75 22.8672 43.75 28 43.75 28C43.75 28 43.75 33.1328 43.0926 35.5902C42.7305 36.9473 41.6652 38.016 40.3082 38.3781C37.8508 39.0391 28 39.0391 28 39.0391C28 39.0391 18.1492 39.0391 15.6918 38.3781C14.3383 38.016 13.2695 36.9473 12.9074 35.5902C12.25 33.1328 12.25 28 12.25 28C12.25 28 12.25 22.8672 12.9074 20.4062C13.0862 19.7381 13.4375 19.1288 13.9263 18.6394C14.415 18.1501 15.0239 17.7979 15.6918 17.6184C18.1492 16.9609 28 16.9609 28 16.9609C28 16.9609 37.8508 16.9609 40.3082 17.6219C40.9758 17.802 41.5844 18.1544 42.073 18.6436ZM33.0273 27.9648L24.8711 23.2891V32.7109L33.0273 27.9648Z" fill="#FBFBFB"/>
</svg>
