<svg width="126" height="126" viewBox="0 0 126 126" fill="none" xmlns="http://www.w3.org/2000/svg">
<path d="M79.8 121.8H75.6C75.6 123.391 76.4988 124.845 77.9217 125.556C79.3446 126.268 81.0473 126.114 82.32 125.16L79.8 121.8ZM96.6 109.2L99.12 105.84C97.6265 104.72 95.5735 104.72 94.08 105.84L96.6 109.2ZM113.4 121.8L110.88 125.16C112.153 126.114 113.855 126.268 115.278 125.556C116.701 124.845 117.6 123.391 117.6 121.8H113.4ZM96.6 92.4C85.0021 92.4 75.6 82.998 75.6 71.4H67.2C67.2 87.6372 80.3628 100.8 96.6 100.8V92.4ZM117.6 71.4C117.6 82.998 108.198 92.4 96.6 92.4V100.8C112.837 100.8 126 87.6372 126 71.4H117.6ZM96.6 50.4C108.198 50.4 117.6 59.802 117.6 71.4H126C126 55.1628 112.837 42 96.6 42V50.4ZM96.6 42C80.3628 42 67.2 55.1628 67.2 71.4H75.6C75.6 59.802 85.0021 50.4 96.6 50.4V42ZM75.6 88.2V121.8H84V88.2H75.6ZM82.32 125.16L99.12 112.56L94.08 105.84L77.28 118.44L82.32 125.16ZM94.08 112.56L110.88 125.16L115.92 118.44L99.12 105.84L94.08 112.56ZM117.6 121.8V88.2H109.2V121.8H117.6ZM126 42V12.6H117.6V42H126ZM113.4 0H12.6V8.4H113.4V0ZM0 12.6V113.4H8.4V12.6H0ZM12.6 126H67.2V117.6H12.6V126ZM0 113.4C0 120.359 5.64121 126 12.6 126V117.6C10.2804 117.6 8.4 115.719 8.4 113.4H0ZM12.6 0C5.64122 0 0 5.64121 0 12.6H8.4C8.4 10.2804 10.2804 8.4 12.6 8.4V0ZM126 12.6C126 5.64121 120.359 0 113.4 0V8.4C115.719 8.4 117.6 10.2804 117.6 12.6H126ZM25.2 42H67.2V33.6H25.2V42ZM25.2 67.2H50.4V58.8H25.2V67.2Z" fill="#22539F"/>
</svg>
