<svg width="133" height="133" viewBox="0 0 133 133" fill="none" xmlns="http://www.w3.org/2000/svg">
<path d="M112.219 99.75C110.367 99.7594 108.54 100.187 106.876 101L89.0024 83.125H74.8125V91.4375H85.5601L100.999 106.877C100.187 108.541 99.7599 110.367 99.75 112.219C99.75 114.685 100.481 117.096 101.851 119.146C103.221 121.196 105.169 122.795 107.447 123.738C109.726 124.682 112.233 124.929 114.651 124.448C117.07 123.967 119.292 122.779 121.035 121.035C122.779 119.292 123.967 117.07 124.448 114.651C124.929 112.233 124.682 109.726 123.738 107.447C122.795 105.169 121.196 103.221 119.146 101.851C117.096 100.481 114.685 99.75 112.219 99.75ZM112.219 116.375C111.397 116.375 110.593 116.131 109.91 115.675C109.226 115.218 108.693 114.569 108.379 113.809C108.064 113.05 107.982 112.214 108.142 111.408C108.303 110.602 108.699 109.861 109.28 109.28C109.861 108.699 110.602 108.303 111.408 108.142C112.214 107.982 113.05 108.064 113.809 108.379C114.569 108.693 115.218 109.226 115.675 109.91C116.131 110.593 116.375 111.397 116.375 112.219C116.374 113.321 115.936 114.377 115.157 115.157C114.377 115.936 113.321 116.374 112.219 116.375Z" fill="#22539F"/>
<path d="M112.219 54.0313C109.649 54.039 107.144 54.8423 105.048 56.3306C102.953 57.819 101.37 59.9195 100.516 62.3438H74.8125V70.6563H100.516C101.282 72.8054 102.624 74.7026 104.395 76.1407C106.166 77.5788 108.298 78.5024 110.559 78.8106C112.82 79.1188 115.121 78.7998 117.213 77.8883C119.304 76.9769 121.105 75.5081 122.418 73.6425C123.732 71.7769 124.507 69.5862 124.659 67.3098C124.812 65.0334 124.336 62.7589 123.283 60.7348C122.23 58.7107 120.641 57.0149 118.69 55.8327C116.739 54.6505 114.5 54.0273 112.219 54.0313ZM112.219 70.6563C111.397 70.6563 110.593 70.4125 109.91 69.9558C109.226 69.4991 108.693 68.85 108.379 68.0905C108.064 67.3311 107.982 66.4954 108.142 65.6892C108.303 64.8829 108.699 64.1424 109.28 63.5611C109.861 62.9798 110.602 62.584 111.408 62.4236C112.214 62.2633 113.05 62.3456 113.809 62.6601C114.569 62.9747 115.218 63.5074 115.675 64.1909C116.131 64.8744 116.375 65.678 116.375 66.5C116.374 67.602 115.936 68.6586 115.157 69.4378C114.377 70.2171 113.321 70.6553 112.219 70.6563Z" fill="#22539F"/>
<path d="M112.219 8.3125C108.913 8.31613 105.744 9.63097 103.406 11.9685C101.068 14.3061 99.7536 17.4754 99.75 20.7813C99.7643 22.7724 100.261 24.7304 101.197 26.4878L85.6009 41.5625H74.8125V49.875H88.9616L107.245 32.201C108.943 32.9413 110.785 33.2937 112.637 33.2324C114.489 33.1711 116.303 32.6977 117.949 31.8467C119.595 30.9957 121.03 29.7885 122.151 28.3129C123.271 26.8373 124.049 25.1304 124.426 23.3165C124.804 21.5027 124.773 19.6274 124.334 17.8272C123.896 16.027 123.062 14.3472 121.892 12.91C120.723 11.4729 119.248 10.3145 117.575 9.51915C115.901 8.72383 114.072 8.31162 112.219 8.3125ZM112.219 24.9375C111.397 24.9375 110.593 24.6937 109.91 24.237C109.226 23.7804 108.693 23.1312 108.379 22.3718C108.064 21.6123 107.982 20.7766 108.142 19.9704C108.303 19.1642 108.699 18.4236 109.28 17.8423C109.861 17.2611 110.602 16.8652 111.408 16.7049C112.214 16.5445 113.05 16.6268 113.809 16.9414C114.569 17.256 115.218 17.7887 115.675 18.4722C116.131 19.1557 116.375 19.9592 116.375 20.7813C116.374 21.8833 115.936 22.9398 115.157 23.7191C114.377 24.4983 113.321 24.9365 112.219 24.9375Z" fill="#22539F"/>
<path d="M74.8125 24.9375H83.125V16.625H74.8125C72.4438 16.633 70.1045 17.1501 67.9532 18.1413C65.8019 19.1326 63.8888 20.5748 62.3438 22.3702C60.7987 20.5748 58.8856 19.1326 56.7343 18.1413C54.583 17.1501 52.2437 16.633 49.875 16.625H45.7188C35.8014 16.636 26.2933 20.5805 19.2807 27.5932C12.268 34.6058 8.3235 44.1139 8.3125 54.0312V78.9688C8.3235 88.8861 12.268 98.3942 19.2807 105.407C26.2933 112.419 35.8014 116.364 45.7188 116.375H49.875C52.2437 116.367 54.583 115.85 56.7343 114.859C58.8856 113.867 60.7987 112.425 62.3438 110.63C63.8888 112.425 65.8019 113.867 67.9532 114.859C70.1045 115.85 72.4438 116.367 74.8125 116.375H83.125V108.062H74.8125C72.6087 108.06 70.4958 107.183 68.9375 105.625C67.3791 104.067 66.5025 101.954 66.5 99.75V33.25C66.5025 31.0462 67.3791 28.9333 68.9375 27.375C70.4958 25.8166 72.6087 24.94 74.8125 24.9375ZM49.875 108.062H45.7188C38.7297 108.05 31.9783 105.524 26.6977 100.946C21.4172 96.3671 17.9599 90.0418 16.9575 83.125H24.9375V74.8125H16.625V58.1875H29.0938C32.3996 58.1839 35.5689 56.869 37.9065 54.5315C40.244 52.1939 41.5589 49.0246 41.5625 45.7188V37.4062H33.25V45.7188C33.249 46.8208 32.8108 47.8773 32.0316 48.6566C31.2523 49.4358 30.1958 49.874 29.0938 49.875H16.9575C17.9599 42.9582 21.4172 36.6329 26.6977 32.0543C31.9783 27.4758 38.7297 24.9497 45.7188 24.9375H49.875C52.0788 24.94 54.1917 25.8166 55.75 27.375C57.3084 28.9333 58.185 31.0462 58.1875 33.25V49.875H49.875V58.1875H58.1875V74.8125H49.875C46.5692 74.8161 43.3998 76.131 41.0623 78.4685C38.7247 80.8061 37.4099 83.9754 37.4062 87.2812V95.5938H45.7188V87.2812C45.7197 86.1792 46.1579 85.1227 46.9372 84.3434C47.7164 83.5642 48.773 83.126 49.875 83.125H58.1875V99.75C58.185 101.954 57.3084 104.067 55.75 105.625C54.1917 107.183 52.0788 108.06 49.875 108.062Z" fill="#22539F"/>
</svg>
