<svg width="134" height="134" viewBox="0 0 134 134" fill="none" xmlns="http://www.w3.org/2000/svg">
<path d="M25.125 87.9375V83.75H16.75V87.9375C16.75 95.7117 19.8383 103.167 25.3354 108.665C30.8326 114.162 38.2883 117.25 46.0625 117.25H58.625V108.875H46.0625C40.5095 108.875 35.184 106.669 31.2575 102.743C27.3309 98.816 25.125 93.4905 25.125 87.9375Z" fill="#22539F"/>
<path d="M100.5 46.0625V50.25H108.875V46.0625C108.875 38.2883 105.787 30.8326 100.29 25.3354C94.7924 19.8383 87.3367 16.75 79.5625 16.75H67V25.125H79.5625C82.3121 25.125 85.0347 25.6666 87.5749 26.7188C90.1152 27.771 92.4233 29.3132 94.3675 31.2575C96.3118 33.2017 97.854 35.5098 98.9062 38.0501C99.9584 40.5903 100.5 43.3129 100.5 46.0625Z" fill="#22539F"/>
<path d="M46.0625 46.0615H20.9375C17.6057 46.0615 14.4104 47.3851 12.0545 49.741C9.69855 52.0969 8.375 55.2922 8.375 58.624V66.999H16.75V58.624C16.75 57.5134 17.1912 56.4483 17.9765 55.663C18.7618 54.8777 19.8269 54.4365 20.9375 54.4365H46.0625C47.1731 54.4365 48.2382 54.8777 49.0235 55.663C49.8088 56.4483 50.25 57.5134 50.25 58.624V66.999H58.625V58.624C58.625 55.2922 57.3015 52.0969 54.9455 49.741C52.5896 47.3851 49.3943 46.0615 46.0625 46.0615Z" fill="#22539F"/>
<path d="M33.5 41.875C36.8128 41.875 40.0513 40.8926 42.8058 39.0521C45.5603 37.2116 47.7072 34.5956 48.975 31.535C50.2428 28.4743 50.5745 25.1064 49.9282 21.8572C49.2819 18.6081 47.6866 15.6235 45.344 13.281C43.0015 10.9384 40.0169 9.34316 36.7678 8.69685C33.5186 8.05055 30.1507 8.38226 27.0901 9.65003C24.0294 10.9178 21.4134 13.0647 19.5729 15.8192C17.7324 18.5737 16.75 21.8122 16.75 25.125C16.75 29.5674 18.5147 33.8278 21.656 36.969C24.7972 40.1103 29.0576 41.875 33.5 41.875ZM33.5 16.75C35.1564 16.75 36.7756 17.2412 38.1529 18.1614C39.5302 19.0817 40.6036 20.3897 41.2375 21.92C41.8714 23.4504 42.0372 25.1343 41.7141 26.7589C41.3909 28.3835 40.5933 29.8758 39.422 31.047C38.2508 32.2183 36.7585 33.0159 35.1339 33.3391C33.5093 33.6622 31.8254 33.4964 30.295 32.8625C28.7647 32.2286 27.4567 31.1552 26.5364 29.7779C25.6162 28.4006 25.125 26.7814 25.125 25.125C25.125 22.9038 26.0074 20.7736 27.578 19.203C29.1486 17.6324 31.2788 16.75 33.5 16.75Z" fill="#22539F"/>
<path d="M113.062 104.688H87.9375C84.6057 104.688 81.4104 106.011 79.0545 108.367C76.6985 110.723 75.375 113.918 75.375 117.25V125.625H83.75V117.25C83.75 116.139 84.1912 115.074 84.9765 114.289C85.7618 113.504 86.8269 113.062 87.9375 113.062H113.062C114.173 113.062 115.238 113.504 116.024 114.289C116.809 115.074 117.25 116.139 117.25 117.25V125.625H125.625V117.25C125.625 113.918 124.301 110.723 121.946 108.367C119.59 106.011 116.394 104.688 113.062 104.688Z" fill="#22539F"/>
<path d="M83.75 83.749C83.75 87.0619 84.7324 90.3003 86.5729 93.0548C88.4134 95.8093 91.0294 97.9562 94.0901 99.224C97.1507 100.492 100.519 100.823 103.768 100.177C107.017 99.5309 110.002 97.9356 112.344 95.5931C114.687 93.2505 116.282 90.266 116.928 87.0168C117.574 83.7676 117.243 80.3997 115.975 77.3391C114.707 74.2784 112.56 71.6624 109.806 69.8219C107.051 67.9814 103.813 66.999 100.5 66.999C96.0576 66.999 91.7972 68.7638 88.656 71.905C85.5147 75.0462 83.75 79.3066 83.75 83.749ZM108.875 83.749C108.875 85.4054 108.384 87.0247 107.464 88.4019C106.543 89.7792 105.235 90.8526 103.705 91.4865C102.175 92.1204 100.491 92.2863 98.8661 91.9631C97.2415 91.6399 95.7492 90.8423 94.578 89.671C93.4067 88.4998 92.6091 87.0075 92.2859 85.3829C91.9628 83.7583 92.1286 82.0744 92.7625 80.544C93.3964 79.0137 94.4698 77.7057 95.8471 76.7855C97.2244 75.8652 98.8436 75.374 100.5 75.374C102.721 75.374 104.851 76.2564 106.422 77.827C107.993 79.3976 108.875 81.5278 108.875 83.749Z" fill="#22539F"/>
</svg>
