<svg width="144" height="142" viewBox="0 0 144 142" fill="none" xmlns="http://www.w3.org/2000/svg">
<path d="M50.3086 51.8545C30.9023 51.8545 15.1875 67.6045 15.1875 87.0107C15.1875 106.417 30.9023 122.167 50.3086 122.167C69.75 122.167 85.5 106.417 85.5 87.0107C85.5 67.6045 69.75 51.8545 50.3086 51.8545ZM61.6641 105.96L50.3438 99.1396L39.0234 105.96C37.6875 106.769 36.0352 105.573 36.3867 104.062L39.375 91.1943L29.4258 82.5811C28.2656 81.5615 28.8984 79.6279 30.4453 79.4873L43.5938 78.3623L48.7266 66.2334C49.3242 64.792 51.3633 64.792 51.9609 66.2334L57.0938 78.3271L70.2422 79.4522C71.7891 79.5928 72.4219 81.5264 71.2266 82.5459L61.2773 91.1592L64.2656 104.062C64.6172 105.573 63 106.769 61.6641 105.96Z" fill="#22539F"/>
<path d="M117.255 38.3545C102.506 38.3545 90.5625 50.3245 90.5625 65.0732C90.5625 79.822 102.506 91.792 117.255 91.792C132.03 91.792 144 79.822 144 65.0732C144 50.3245 132.03 38.3545 117.255 38.3545ZM125.885 79.4746L117.281 74.2912L108.678 79.4746C107.662 80.0892 106.407 79.1807 106.674 78.0318L108.945 68.2528L101.384 61.7067C100.502 60.9318 100.983 59.4623 102.158 59.3554L112.151 58.5004L116.052 49.2825C116.506 48.187 118.056 48.187 118.51 49.2825L122.411 58.4737L132.404 59.3287C133.58 59.4356 134.061 60.9051 133.152 61.68L125.591 68.2261L127.862 78.0318C128.129 79.1807 126.9 80.0892 125.885 79.4746Z" fill="#22539F"/>
<path d="M73.9432 0.666992C59.8154 0.666992 48.375 12.133 48.375 26.2607C48.375 40.3885 59.8154 51.8545 73.9432 51.8545C88.0965 51.8545 99.5625 40.3885 99.5625 26.2607C99.5625 12.133 88.0965 0.666992 73.9432 0.666992ZM82.2099 40.0558L73.9688 35.0906L65.7276 40.0558C64.755 40.6444 63.5521 39.7742 63.808 38.6737L65.9835 29.3064L58.7405 23.0359C57.8959 22.2937 58.3566 20.8861 59.4827 20.7837L69.0548 19.9647L72.7914 11.1348C73.2265 10.0855 74.711 10.0855 75.1461 11.1348L78.8828 19.9391L88.4548 20.7581C89.5809 20.8605 90.0416 22.2681 89.1714 23.0103L81.9284 29.2808L84.1039 38.6737C84.3598 39.7742 83.1825 40.6444 82.2099 40.0558Z" fill="#22539F"/>
</svg>
