<svg width="114" height="129" viewBox="0 0 114 129" fill="none" xmlns="http://www.w3.org/2000/svg">
<path d="M83.0808 124.036H109.161V113.604C109.161 104.962 102.155 97.9558 93.5129 97.9558C88.5285 97.9558 84.088 100.286 81.2229 103.917M83.0808 124.036L81.2229 103.917M83.0808 124.036H30.9202M83.0808 124.036V113.604C83.0808 110.181 82.4215 106.912 81.2229 103.917M81.2229 103.917C77.3771 94.3098 67.9813 87.5237 57.0005 87.5237C46.0197 87.5237 36.6239 94.3098 32.7784 103.917M81.2229 103.917H57.0006H32.7784M30.9202 124.036H4.83984V113.604C4.83984 104.962 11.8458 97.9558 20.488 97.9558C25.4726 97.9558 29.9127 100.286 32.7784 103.917M30.9202 124.036L32.7784 103.917M30.9202 124.036V113.604C30.9202 110.181 31.5796 106.912 32.7784 103.917M72.6487 56.2273C72.6487 64.8695 65.643 71.8755 57.0005 71.8755C48.358 71.8755 41.3523 64.8695 41.3523 56.2273C41.3523 47.5851 48.358 40.5791 57.0005 40.5791C65.643 40.5791 72.6487 47.5851 72.6487 56.2273ZM103.945 71.8755C103.945 77.6372 99.2746 82.3076 93.5129 82.3076C87.7513 82.3076 83.0808 77.6372 83.0808 71.8755C83.0808 66.114 87.7513 61.4434 93.5129 61.4434C99.2746 61.4434 103.945 66.114 103.945 71.8755ZM30.9202 71.8755C30.9202 77.6372 26.2495 82.3076 20.488 82.3076C14.7265 82.3076 10.0559 77.6372 10.0559 71.8755C10.0559 66.114 14.7265 61.4434 20.488 61.4434C26.2495 61.4434 30.9202 66.114 30.9202 71.8755Z" stroke="#22539F" stroke-width="8" stroke-linecap="round" stroke-linejoin="round"/>
<path d="M28.6008 27.5902C29.798 30.2244 32.9044 31.3906 35.5396 30.1922C38.1744 28.9946 39.3395 25.888 38.1416 23.2531L31.1545 7.88103C29.9566 5.24612 26.8495 4.08063 24.2157 5.27896C21.5809 6.47658 20.4158 9.58314 21.6137 12.2181L28.6008 27.5902Z" fill="#22539F"/>
<path d="M78.3739 30.1924C81.0119 31.3911 84.1166 30.2224 85.3127 27.5903L92.2998 12.218C93.4977 9.58305 92.3326 6.47611 89.6978 5.27881C87.0626 4.08082 83.9562 5.24597 82.759 7.88092L75.772 23.2532C74.574 25.8882 75.7391 28.9948 78.3739 30.1924Z" fill="#22539F"/>
<path d="M57.1317 26.8197C60.0261 26.8197 62.3727 24.4678 62.3727 21.5668V6.21677C62.3727 3.31577 60.0261 0.963867 57.1317 0.963867C54.2372 0.963867 51.8906 3.31577 51.8906 6.21677V21.5668C51.8906 24.4678 54.2372 26.8197 57.1317 26.8197Z" fill="#22539F"/>
</svg>
