<svg width="122" height="122" viewBox="0 0 122 122" fill="none" xmlns="http://www.w3.org/2000/svg">
<path d="M61 117L73.4444 104.556M89 104.556C97.5911 104.556 104.556 97.5911 104.556 89C104.556 80.4089 97.5911 73.4444 89 73.4444C80.4089 73.4444 73.4444 80.4089 73.4444 89C73.4444 97.5911 80.4089 104.556 89 104.556ZM48.5556 17.4444L61 5L48.5556 17.4444ZM33 48.5556C41.5911 48.5556 48.5556 41.5911 48.5556 33C48.5556 24.4089 41.5911 17.4444 33 17.4444C24.4089 17.4444 17.4444 24.4089 17.4444 33C17.4444 41.5911 24.4089 48.5556 33 48.5556ZM36.1111 85.8889L85.8889 36.1111L36.1111 85.8889ZM20.5556 117C29.1467 117 36.1111 110.036 36.1111 101.444C36.1111 92.8533 29.1467 85.8889 20.5556 85.8889C11.9645 85.8889 5 92.8533 5 101.444C5 110.036 11.9645 117 20.5556 117ZM101.444 36.1111C110.036 36.1111 117 29.1467 117 20.5556C117 11.9645 110.036 5 101.444 5C92.8533 5 85.8889 11.9645 85.8889 20.5556C85.8889 29.1467 92.8533 36.1111 101.444 36.1111Z" stroke="#22539F" stroke-width="10" stroke-linecap="round" stroke-linejoin="round"/>
</svg>
