<svg width="127" height="127" viewBox="0 0 127 127" fill="none" xmlns="http://www.w3.org/2000/svg">
<circle cx="63.5" cy="63.5" r="63.5" fill="url(#paint0_linear_1840_15321)"/>
<path d="M64 24C86.092 24 104 41.908 104 64C104 66.908 103.692 69.74 103.1 72.472L95.972 65.34C96.2655 58.319 94.2397 51.3966 90.2075 45.6415C86.1752 39.8864 80.3607 35.6185 73.6615 33.4969C66.9623 31.3752 59.751 31.5177 53.1408 33.9024C46.5307 36.287 40.8893 40.7812 37.0875 46.6911C33.2857 52.601 31.535 59.598 32.1056 66.6019C32.6762 73.6059 35.5364 80.2272 40.2446 85.4438C44.9529 90.6604 51.2474 94.1822 58.1563 95.4654C65.0653 96.7487 72.2046 95.722 78.472 92.544C79.9987 94.9637 82.1467 96.9294 84.692 98.236C78.4528 102.016 71.2951 104.01 64 104C41.908 104 24 86.092 24 64C24 41.908 41.908 24 64 24ZM92 72.688L97.656 78.344C98.757 79.4446 99.513 80.8426 99.8312 82.3666C100.149 83.8905 100.016 85.4742 99.4476 86.9235C98.879 88.3727 97.9 89.6246 96.6304 90.5257C95.3609 91.4268 93.856 91.9378 92.3003 91.9962C90.7446 92.0546 89.2056 91.6578 87.8721 90.8545C86.5385 90.0512 85.4684 88.8762 84.7927 87.4736C84.1171 86.0711 83.8654 84.5018 84.0685 82.9583C84.2716 81.4148 84.9206 79.9641 85.936 78.784L86.344 78.344L92 72.688ZM64 76C69.864 76 75.14 78.524 78.8 82.548L75.02 85.988C71.86 84.728 68.072 84 64 84C59.928 84 56.14 84.732 52.98 85.984L49.2 82.544C51.0729 80.4798 53.3575 78.831 55.9066 77.7038C58.4558 76.5767 61.2128 75.9963 64 76ZM50 56C51.5913 56 53.1174 56.6321 54.2426 57.7574C55.3679 58.8826 56 60.4087 56 62C56 63.5913 55.3679 65.1174 54.2426 66.2426C53.1174 67.3679 51.5913 68 50 68C48.4087 68 46.8826 67.3679 45.7574 66.2426C44.6321 65.1174 44 63.5913 44 62C44 60.4087 44.6321 58.8826 45.7574 57.7574C46.8826 56.6321 48.4087 56 50 56ZM78 56C79.5913 56 81.1174 56.6321 82.2426 57.7574C83.3679 58.8826 84 60.4087 84 62C84 63.5913 83.3679 65.1174 82.2426 66.2426C81.1174 67.3679 79.5913 68 78 68C76.4087 68 74.8826 67.3679 73.7574 66.2426C72.6321 65.1174 72 63.5913 72 62C72 60.4087 72.6321 58.8826 73.7574 57.7574C74.8826 56.6321 76.4087 56 78 56Z" fill="#FBFBFB"/>
<defs>
<linearGradient id="paint0_linear_1840_15321" x1="-2.98991" y1="-22.2249" x2="144.157" y2="-18.8027" gradientUnits="userSpaceOnUse">
<stop stop-color="#00A3FF"/>
<stop offset="1" stop-color="#18E6FE"/>
</linearGradient>
</defs>
</svg>
