<svg width="127" height="127" viewBox="0 0 127 127" fill="none" xmlns="http://www.w3.org/2000/svg">
<circle cx="63.5" cy="63.5" r="63.5" fill="url(#paint0_linear_1391_5674)"/>
<path d="M103.982 86.9862C103.982 83.8584 103.055 80.8009 101.317 78.2002C99.5792 75.5996 97.1093 73.5726 94.2197 72.3757C91.33 71.1787 88.1503 70.8656 85.0826 71.4757C82.0149 72.0859 79.1971 73.5921 76.9854 75.8038C74.7737 78.0154 73.2676 80.8333 72.6574 83.9009C72.0472 86.9686 72.3604 90.1483 73.5573 93.038C74.7543 95.9277 76.7812 98.3975 79.3819 100.135C81.9825 101.873 85.04 102.8 88.1678 102.8C92.3605 102.796 96.3801 101.128 99.3448 98.1631C102.309 95.1984 103.977 91.1789 103.982 86.9862ZM98.7106 86.9862C98.7008 88.8622 98.1845 90.7008 97.2162 92.3076L82.8463 77.9378C84.4532 76.9696 86.2918 76.4533 88.1678 76.4433C90.9629 76.4468 93.6424 77.5587 95.6189 79.5351C97.5953 81.5115 98.7071 84.1911 98.7106 86.9862ZM77.6249 86.9862C77.6348 85.1101 78.1511 83.2715 79.1194 81.6647L93.4893 96.0345C91.8824 97.0027 90.0438 97.519 88.1678 97.529C85.3727 97.5255 82.6931 96.4136 80.7167 94.4372C78.7403 92.4608 77.6284 89.7812 77.6249 86.9862Z" fill="#FBFBFB"/>
<path d="M61.8117 29.0006C57.4198 28.9751 53.0707 29.8647 49.0415 31.6125C45.0123 33.3604 41.3913 35.9282 38.4091 39.1525C35.4269 42.3768 33.1489 46.1869 31.7202 50.34C30.2915 54.4931 29.7434 58.8983 30.1109 63.2749C30.4784 67.6515 31.7533 71.9036 33.8545 75.7603C35.9558 79.6171 38.8372 82.9939 42.3153 85.6758C45.7934 88.3577 49.7919 90.2858 54.0562 91.3373C58.3204 92.3888 62.757 92.5406 67.0831 91.7832V86.4538C63.4729 87.1907 59.7483 87.1624 56.1497 86.3708C52.5511 85.5792 49.1585 84.0418 46.1908 81.858C43.223 79.6742 40.7461 76.8923 38.92 73.6921C37.0938 70.4918 35.959 66.9442 35.5886 63.2782C35.2183 59.6122 35.6207 55.9093 36.7699 52.4085C37.9191 48.9077 39.7896 45.6867 42.2606 42.9534C44.7316 40.2201 47.7482 38.0353 51.1158 36.54C54.4834 35.0447 58.1271 34.2721 61.8117 34.272V60.6291L73.2586 72.076C75.2145 70.1151 77.5386 68.5601 80.0974 67.5003C82.6562 66.4405 85.3993 65.8968 88.1688 65.9005H92.9658C93.7653 61.3634 93.558 56.706 92.3586 52.2578C91.1592 47.8096 88.997 43.6794 86.0249 40.1592C83.0529 36.639 79.3436 33.8149 75.1595 31.8866C70.9754 29.9584 66.4187 28.9731 61.8117 29.0006Z" fill="#FBFBFB"/>
<defs>
<linearGradient id="paint0_linear_1391_5674" x1="-2.98991" y1="-22.2249" x2="144.157" y2="-18.8027" gradientUnits="userSpaceOnUse">
<stop stop-color="#00A3FF"/>
<stop offset="1" stop-color="#18E6FE"/>
</linearGradient>
</defs>
</svg>
