<svg width="32" height="32" viewBox="0 0 32 32" fill="none" xmlns="http://www.w3.org/2000/svg">
<rect width="32" height="32" rx="5" fill="url(#paint0_linear_3166_2870)"/>
<path d="M22.3575 10.4145C22.6512 10.1457 23.0422 9.99709 23.4478 10C23.8534 10.003 24.2419 10.1573 24.5314 10.4303C24.8209 10.7033 24.9887 11.0737 24.9995 11.4634C25.0102 11.8531 24.863 12.2315 24.5889 12.5188L16.2681 22.5196C16.125 22.6677 15.9523 22.7866 15.7603 22.8691C15.5684 22.9515 15.3611 22.996 15.1508 22.9997C14.9406 23.0035 14.7317 22.9664 14.5367 22.8908C14.3416 22.8152 14.1645 22.7026 14.0158 22.5597L8.49781 17.2567C8.34414 17.1191 8.22089 16.9531 8.1354 16.7687C8.04992 16.5844 8.00395 16.3853 8.00024 16.1835C7.99654 15.9817 8.03517 15.7812 8.11383 15.594C8.1925 15.4069 8.30958 15.2368 8.4581 15.0941C8.60662 14.9514 8.78354 14.8388 8.97829 14.7632C9.17304 14.6876 9.38165 14.6505 9.59165 14.6541C9.80166 14.6576 10.0088 14.7018 10.2006 14.784C10.3925 14.8661 10.5652 14.9846 10.7083 15.1323L15.0752 19.327L22.3179 10.4586C22.3309 10.4431 22.3448 10.4284 22.3596 10.4145H22.3575Z" fill="#FBFBFB"/>
<defs>
<linearGradient id="paint0_linear_3166_2870" x1="8.40404" y1="2.73684" x2="65.546" y2="36.7738" gradientUnits="userSpaceOnUse">
<stop stop-color="#37C8EE"/>
<stop offset="0.76891" stop-color="#91E8FF"/>
</linearGradient>
</defs>
</svg>
