<svg width="80" height="88" viewBox="0 0 80 88" fill="none" xmlns="http://www.w3.org/2000/svg">
<path fill-rule="evenodd" clip-rule="evenodd" d="M2.36049 16.379L38.3831 0.345633C39.4185 -0.11521 40.6008 -0.115212 41.6362 0.345632L77.639 16.3702C79.0936 17.0176 80.0286 18.4821 79.9994 20.074C79.3242 56.9474 70.9446 69.4314 42.1076 87.4C40.8304 88.1958 39.1903 88.1945 37.9139 87.3972C9.27964 69.5101 0.415677 57.3352 0.000245163 20.0535C-0.0173729 18.4724 0.915934 17.022 2.36049 16.379ZM21.0552 30.342C19.3219 31.782 18.3885 33.8354 18.2552 36.502H23.7352C23.8419 35.462 24.2285 34.6087 24.8952 33.942C25.5885 33.2487 26.5619 32.902 27.8152 32.902C29.0952 32.902 30.0685 33.222 30.7352 33.862C31.4285 34.502 31.7752 35.3954 31.7752 36.542C31.7752 39.0754 29.8819 40.342 26.0952 40.342H24.9352V44.942H26.0952C28.2285 44.942 29.8019 45.2887 30.8152 45.982C31.8285 46.6754 32.3352 47.822 32.3352 49.422C32.3352 50.622 31.9619 51.6087 31.2152 52.382C30.4952 53.1287 29.4552 53.502 28.0952 53.502C26.6285 53.502 25.4685 53.1154 24.6152 52.342C23.7885 51.542 23.3485 50.4887 23.2952 49.182H17.8552C17.9619 52.142 18.9619 54.382 20.8552 55.902C22.7485 57.422 25.2019 58.182 28.2152 58.182C30.2152 58.182 31.9219 57.8354 33.3352 57.142C34.7752 56.422 35.8552 55.4354 36.5752 54.182C37.3219 52.9287 37.6952 51.502 37.6952 49.902C37.6952 47.982 37.2552 46.4087 36.3752 45.182C35.5219 43.9554 34.3219 43.102 32.7752 42.622V42.462C33.9752 42.062 35.0019 41.2887 35.8552 40.142C36.7352 38.9687 37.1752 37.542 37.1752 35.862C37.1752 34.3954 36.8152 33.0887 36.0952 31.942C35.4019 30.7687 34.3619 29.8487 32.9752 29.182C31.5885 28.4887 29.9219 28.142 27.9752 28.142C25.1219 28.142 22.8152 28.8754 21.0552 30.342ZM44.8005 30.342C43.0672 31.782 42.1338 33.8354 42.0005 36.502H47.4805C47.5872 35.462 47.9738 34.6087 48.6405 33.942C49.3338 33.2487 50.3072 32.902 51.5605 32.902C52.8405 32.902 53.8138 33.222 54.4805 33.862C55.1738 34.502 55.5205 35.3954 55.5205 36.542C55.5205 39.0754 53.6272 40.342 49.8405 40.342H48.6805V44.942H49.8405C51.9738 44.942 53.5472 45.2887 54.5605 45.982C55.5738 46.6754 56.0805 47.822 56.0805 49.422C56.0805 50.622 55.7072 51.6087 54.9605 52.382C54.2405 53.1287 53.2005 53.502 51.8405 53.502C50.3738 53.502 49.2138 53.1154 48.3605 52.342C47.5338 51.542 47.0938 50.4887 47.0405 49.182H41.6005C41.7072 52.142 42.7072 54.382 44.6005 55.902C46.4938 57.422 48.9472 58.182 51.9605 58.182C53.9605 58.182 55.6672 57.8354 57.0805 57.142C58.5205 56.422 59.6005 55.4354 60.3205 54.182C61.0672 52.9287 61.4405 51.502 61.4405 49.902C61.4405 47.982 61.0005 46.4087 60.1205 45.182C59.2672 43.9554 58.0672 43.102 56.5205 42.622V42.462C57.7205 42.062 58.7472 41.2887 59.6005 40.142C60.4805 38.9687 60.9205 37.542 60.9205 35.862C60.9205 34.3954 60.5605 33.0887 59.8405 31.942C59.1472 30.7687 58.1072 29.8487 56.7205 29.182C55.3338 28.4887 53.6672 28.142 51.7205 28.142C48.8672 28.142 46.5605 28.8754 44.8005 30.342Z" fill="#3171D3"/>
</svg>
