<svg width="80" height="80" viewBox="0 0 80 80" fill="none" xmlns="http://www.w3.org/2000/svg">
<path fill-rule="evenodd" clip-rule="evenodd" d="M29.1667 6.6665C29.1667 5.28579 28.0474 4.1665 26.6667 4.1665C25.286 4.1665 24.1667 5.28579 24.1667 6.6665V11.6665H14C11.7909 11.6665 10 13.4574 10 15.6665V27.4998H70V15.6665C70 13.4574 68.2091 11.6665 66 11.6665H55.8333V6.6665C55.8333 5.28579 54.714 4.1665 53.3333 4.1665C51.9526 4.1665 50.8333 5.28579 50.8333 6.6665V11.6665H29.1667V6.6665ZM70 32.4998H10V69.3332C10 71.5423 11.7909 73.3332 14 73.3332H66C68.2091 73.3332 70 71.5423 70 69.3332V32.4998ZM40.5195 46.5616L41.4733 45.6093C44.1072 42.9794 48.3777 42.9794 51.0116 45.6093C53.6455 48.2391 53.6455 52.5029 51.0116 55.1328L44.3348 61.7992C42.2276 63.9031 38.8113 63.9031 36.7042 61.7992L30.0274 55.1328C27.3935 52.5029 27.3935 48.2391 30.0274 45.6093C32.6613 42.9794 36.9317 42.9794 39.5657 45.6093L40.5195 46.5616Z" fill="#3171D3"/>
</svg>
