<svg width="82" height="82" viewBox="0 0 82 82" fill="none" xmlns="http://www.w3.org/2000/svg">
<path fill-rule="evenodd" clip-rule="evenodd" d="M30.75 13.6668C30.75 17.4408 27.6906 20.5002 23.9167 20.5002C20.1427 20.5002 17.0833 17.4408 17.0833 13.6668C17.0833 9.89288 20.1427 6.8335 23.9167 6.8335C27.6906 6.8335 30.75 9.89288 30.75 13.6668ZM23.9167 20.5002C18.2557 20.5002 13.6667 23.5595 13.6667 27.3335C13.6667 31.1074 18.2557 34.1668 23.9167 34.1668C29.5776 34.1668 34.1667 31.1074 34.1667 27.3335C34.1667 23.5595 29.5776 20.5002 23.9167 20.5002ZM61.5 61.5002C65.2739 61.5002 68.3333 58.4408 68.3333 54.6668C68.3333 50.8929 65.2739 47.8335 61.5 47.8335C57.7261 47.8335 54.6667 50.8929 54.6667 54.6668C54.6667 58.4408 57.7261 61.5002 61.5 61.5002ZM61.5 61.5002C67.1609 61.5002 71.75 64.5595 71.75 68.3335C71.75 72.1074 67.1609 75.1668 61.5 75.1668C55.8391 75.1668 51.25 72.1074 51.25 68.3335C51.25 64.5595 55.8391 61.5002 61.5 61.5002ZM38.4375 10.2502C38.4375 8.83493 39.5848 7.68766 41 7.68766C59.398 7.68766 74.3125 22.6022 74.3125 41.0002C74.3125 42.4154 73.1652 43.5627 71.75 43.5627C70.3348 43.5627 69.1875 42.4154 69.1875 41.0002C69.1875 25.4326 56.5675 12.8127 41 12.8127C39.5848 12.8127 38.4375 11.6654 38.4375 10.2502ZM10.25 38.4377C11.6652 38.4377 12.8125 39.5849 12.8125 41.0002C12.8125 56.5677 25.4325 69.1877 41 69.1877C42.4152 69.1877 43.5625 70.3349 43.5625 71.7502C43.5625 73.1654 42.4152 74.3127 41 74.3127C22.602 74.3127 7.6875 59.3981 7.6875 41.0002C7.6875 39.5849 8.83477 38.4377 10.25 38.4377Z" fill="#3171D3"/>
</svg>
