<svg width="83" height="83" viewBox="0 0 83 83" fill="none" xmlns="http://www.w3.org/2000/svg">
<path fill-rule="evenodd" clip-rule="evenodd" d="M67.167 13.8335H15.8337C14.7291 13.8335 13.8337 14.7289 13.8337 15.8335V53.6043H43.2295V21.021C43.2295 19.9164 44.1249 19.021 45.2295 19.021H69.167V15.8335C69.167 14.7289 68.2716 13.8335 67.167 13.8335ZM48.417 26.2085C48.417 25.1039 49.3124 24.2085 50.417 24.2085H74.0837C75.1882 24.2085 76.0837 25.1039 76.0837 26.2085V67.1668C76.0837 68.2714 75.1882 69.1668 74.0837 69.1668H50.417C49.3124 69.1668 48.417 68.2714 48.417 67.1668V26.2085ZM8.91699 58.7918H43.2295V69.1668H8.91699C7.81242 69.1668 6.91699 68.2714 6.91699 67.1668V60.7918C6.91699 59.6873 7.81242 58.7918 8.91699 58.7918Z" fill="#3171D3"/>
</svg>
