<svg width="33" height="33" viewBox="0 0 33 33" fill="none" xmlns="http://www.w3.org/2000/svg">
<path d="M1.70582 0.124493C1.50852 0.0258138 1.28749 -0.0155125 1.06786 0.00521456C0.84824 0.0259417 0.638842 0.10789 0.463489 0.241738C0.288136 0.375586 0.153867 0.555961 0.0759553 0.762344C-0.00195617 0.968727 -0.0203824 1.19283 0.0227728 1.40917L3.32993 12.8416C3.3916 13.0547 3.51213 13.246 3.67767 13.3936C3.84321 13.5412 4.04705 13.6391 4.26574 13.6761L17.6782 15.9225C18.31 16.0474 18.31 16.9526 17.6782 17.0775L4.26574 19.3239C4.04705 19.3609 3.84321 19.4588 3.67767 19.6064C3.51213 19.754 3.3916 19.9453 3.32993 20.1584L0.0227728 31.5908C-0.0203824 31.8072 -0.00195617 32.0313 0.0759553 32.2377C0.153867 32.444 0.288136 32.6244 0.463489 32.7583C0.638842 32.8921 0.84824 32.9741 1.06786 32.9948C1.28749 33.0155 1.50852 32.9742 1.70582 32.8755L32.3495 17.5537C32.545 17.4557 32.7094 17.3052 32.8243 17.1192C32.9392 16.9331 33 16.7187 33 16.5C33 16.2813 32.9392 16.0669 32.8243 15.8809C32.7094 15.6948 32.545 15.5443 32.3495 15.4463L1.70582 0.124493Z" fill="white"/>
</svg>
