<svg width="20" height="22" viewBox="0 0 20 22" fill="none" xmlns="http://www.w3.org/2000/svg">
<path fill-rule="evenodd" clip-rule="evenodd" d="M10.5966 12.8745H12.4522C12.892 12.8745 13.2567 12.517 13.2567 12.0728C13.2567 11.6178 12.892 11.2603 12.4522 11.2603H10.5966V9.38616C10.5966 8.94199 10.2427 8.58449 9.80291 8.58449C9.36314 8.58449 8.99845 8.94199 8.99845 9.38616V11.2603H7.15357C6.7138 11.2603 6.34911 11.6178 6.34911 12.0728C6.34911 12.517 6.7138 12.8745 7.15357 12.8745H8.99845V14.7487C8.99845 15.1928 9.36314 15.5503 9.80291 15.5503C10.2427 15.5503 10.5966 15.1928 10.5966 14.7487V12.8745ZM17.9509 7.77807C18.203 7.77516 18.4775 7.77199 18.727 7.77199C18.9951 7.77199 19.2096 7.98866 19.2096 8.25949V16.9695C19.2096 19.6562 17.0537 21.8337 14.3829 21.8337H5.85568C3.0669 21.8337 0.792969 19.5478 0.792969 16.7312V5.05283C0.792969 2.36616 2.95964 0.166992 5.63043 0.166992H11.3582C11.637 0.166992 11.8516 0.394492 11.8516 0.665326V4.15366C11.8516 6.13616 13.4712 7.76116 15.4341 7.77199C15.8925 7.77199 16.2967 7.77542 16.6505 7.77842C16.9257 7.78075 17.1703 7.78283 17.3862 7.78283C17.5389 7.78283 17.7368 7.78054 17.9509 7.77807ZM18.2456 6.19704C17.3639 6.20029 16.3246 6.19704 15.577 6.18946C14.3907 6.18946 13.4135 5.20254 13.4135 4.00437V1.14871C13.4135 0.68179 13.9745 0.449957 14.2952 0.786874C14.8758 1.39664 15.6738 2.23487 16.4681 3.06922C17.2599 3.90102 18.0481 4.72895 18.6135 5.32279C18.9267 5.65104 18.6972 6.19596 18.2456 6.19704Z" fill="#22539F"/>
</svg>
