<svg width="127" height="127" viewBox="0 0 127 127" fill="none" xmlns="http://www.w3.org/2000/svg">
<circle cx="63.5" cy="63.5" r="63.5" fill="url(#paint0_linear_1840_16587)"/>
<path d="M49 56.8C52.5362 56.8 55.9276 55.3882 58.4281 52.8752C60.9286 50.3622 62.3333 46.9539 62.3333 43.4C62.3333 39.8461 60.9286 36.4378 58.4281 33.9248C55.9276 31.4118 52.5362 30 49 30C45.4638 30 42.0724 31.4118 39.5719 33.9248C37.0714 36.4378 35.6667 39.8461 35.6667 43.4C35.6667 46.9539 37.0714 50.3622 39.5719 52.8752C42.0724 55.3882 45.4638 56.8 49 56.8ZM79 56.8C81.6522 56.8 84.1957 55.7412 86.0711 53.8564C87.9464 51.9717 89 49.4154 89 46.75C89 44.0846 87.9464 41.5283 86.0711 39.6436C84.1957 37.7588 81.6522 36.7 79 36.7C76.3478 36.7 73.8043 37.7588 71.9289 39.6436C70.0536 41.5283 69 44.0846 69 46.75C69 49.4154 70.0536 51.9717 71.9289 53.8564C73.8043 55.7412 76.3478 56.8 79 56.8ZM36.5 63.5C34.5109 63.5 32.6032 64.2941 31.1967 65.7077C29.7902 67.1212 29 69.0384 29 71.0375V71.875C29 71.875 29 86.95 49 86.95C53.6333 86.95 57.1933 86.1426 59.9267 84.8964C59.3102 82.8466 58.9979 80.7165 59 78.575C59 73.024 61.0667 67.9588 64.4667 64.113C63.5298 63.7074 62.5201 63.4988 61.5 63.5H36.5ZM99 78.575C99 83.4616 97.0685 88.1481 93.6303 91.6034C90.1921 95.0588 85.529 97 80.6667 97C75.8044 97 71.1412 95.0588 67.703 91.6034C64.2649 88.1481 62.3333 83.4616 62.3333 78.575C62.3333 73.6884 64.2649 69.0019 67.703 65.5466C71.1412 62.0912 75.8044 60.15 80.6667 60.15C85.529 60.15 90.1921 62.0912 93.6303 65.5466C97.0685 69.0019 99 73.6884 99 78.575ZM89.4867 70.6891L77.3333 82.9065L71.8467 77.3891C71.5337 77.0746 71.1093 76.8979 70.6667 76.8979C70.2241 76.8979 69.7996 77.0746 69.4867 77.3891C69.1737 77.7036 68.9979 78.1302 68.9979 78.575C68.9979 79.0198 69.1737 79.4464 69.4867 79.7609L76.1533 86.4609C76.3082 86.6169 76.4921 86.7406 76.6946 86.8251C76.897 86.9095 77.1141 86.953 77.3333 86.953C77.5526 86.953 77.7696 86.9095 77.9721 86.8251C78.1746 86.7406 78.3585 86.6169 78.5133 86.4609L91.8467 73.0609C92.1596 72.7464 92.3354 72.3198 92.3354 71.875C92.3354 71.4302 92.1596 71.0036 91.8467 70.6891C91.5337 70.3746 91.1093 70.1979 90.6667 70.1979C90.2241 70.1979 89.7996 70.3746 89.4867 70.6891Z" fill="#FBFBFB"/>
<defs>
<linearGradient id="paint0_linear_1840_16587" x1="-2.98991" y1="-22.2249" x2="144.157" y2="-18.8027" gradientUnits="userSpaceOnUse">
<stop stop-color="#00A3FF"/>
<stop offset="1" stop-color="#18E6FE"/>
</linearGradient>
</defs>
</svg>
