<svg width="546" height="1222" viewBox="0 0 546 1222" fill="none" xmlns="http://www.w3.org/2000/svg">
<g filter="url(#filter0_f_69_603)">
<path opacity="0.4" d="M98.9053 341.814L98.8828 341.843L98.8619 341.872L56.1269 401.712C54.469 403.812 52.2866 405.444 49.612 406.159L-20.1926 424.816C-22.8672 425.531 -24.7097 424.975 -25.8304 423.618L-52.8228 382.49C-53.2156 380.938 -52.8572 378.632 -51.927 376.726L-9.25883 316.98C-7.60093 314.88 -5.41851 313.248 -2.7439 312.533L67.0607 293.876C69.7353 293.161 71.5777 293.717 72.6984 295.074L99.7331 336.266L99.7463 336.286L99.7615 336.305C100.822 337.603 100.478 339.813 98.9053 341.814Z" stroke="url(#paint0_linear_69_603)" stroke-width="2"/>
<path d="M117.146 224.436L117.124 224.465L117.103 224.494L74.4014 284.118C72.7458 286.209 70.564 287.837 67.8874 288.552L-1.91724 307.21C-4.59382 307.925 -6.43683 307.373 -7.55795 306.024L-34.5835 265.113C-34.9769 263.569 -34.6204 261.275 -33.6924 259.379L8.94175 199.848C10.5974 197.758 12.7792 196.13 15.4558 195.414L85.2604 176.757C87.937 176.041 89.78 176.594 90.9011 177.942L117.969 218.918L117.983 218.938L117.998 218.957C119.058 220.246 118.716 222.444 117.146 224.436Z" stroke="url(#paint1_linear_69_603)" stroke-width="2"/>
<path opacity="0.2" d="M0.48037 195.041L0.457715 195.07L0.436795 195.099L-42.2646 254.723C-43.9202 256.814 -46.102 258.442 -48.7786 259.157L-118.583 277.815C-121.26 278.53 -123.103 277.978 -124.224 276.629L-151.25 235.718C-151.643 234.174 -151.286 231.88 -150.358 229.984L-107.724 170.453C-106.069 168.363 -103.887 166.735 -101.21 166.019L-31.4057 147.362C-28.729 146.646 -26.886 147.199 -25.7649 148.547L1.30325 189.523L1.31652 189.543L1.33181 189.562C2.3918 190.851 2.05032 193.049 0.48037 195.041Z" stroke="url(#paint2_linear_69_603)" stroke-width="2"/>
<path opacity="0.5" d="M-93.4212 33.7791L-93.4337 33.7586L-93.4483 33.7394L-123.256 -5.28737C-124.161 -6.78948 -124.078 -8.71248 -122.524 -11.0074L-82.0043 -70.8578C-80.4506 -73.1527 -78.1977 -74.6806 -75.6803 -75.5593L-5.48442 -96.3201C-3.38916 -96.5749 -1.10617 -96.1591 0.222037 -95.2808L29.9823 -56.3155C30.8879 -54.8134 30.8045 -52.8904 29.2508 -50.5955L-11.269 9.25496C-12.8227 11.5499 -15.0756 13.0778 -17.593 13.9564L-87.8996 34.75L-87.934 34.7602L-87.9686 34.7722C-90.3648 35.6022 -92.5516 35.204 -93.4212 33.7791Z" stroke="url(#paint3_linear_69_603)" stroke-width="2"/>
<path opacity="0.2" d="M-104.852 151.253L-104.865 151.232L-104.879 151.213L-134.686 112.187C-135.592 110.684 -135.509 108.761 -133.955 106.466L-93.4352 46.616C-91.8815 44.3211 -89.6286 42.7933 -87.1112 41.9146L-16.9153 21.1538C-14.8201 20.899 -12.5371 21.3148 -11.2089 22.1931L18.5514 61.1584C19.457 62.6605 19.3736 64.5835 17.8199 66.8784L-22.6999 126.729C-24.2536 129.024 -26.5065 130.552 -29.0239 131.43L-99.3305 152.224L-99.3649 152.234L-99.3995 152.246C-101.796 153.076 -103.983 152.678 -104.852 151.253Z" stroke="url(#paint4_linear_69_603)" stroke-width="2"/>
<path opacity="0.4" d="M385.259 -127.956L385.27 -127.935L385.284 -127.916L413.375 -87.439C414.215 -85.892 414.042 -83.9744 412.38 -81.7592L369.004 -23.9453C367.342 -21.7301 365.014 -20.3142 362.448 -19.5599L291.114 -2.27862C289 -2.12722 286.728 -2.65605 285.435 -3.60046L257.388 -44.0138C256.548 -45.5608 256.721 -47.4784 258.383 -49.6936L301.759 -107.508C303.421 -109.723 305.749 -111.139 308.315 -111.893L379.761 -129.201L379.796 -129.21L379.831 -129.22C382.274 -129.932 384.452 -129.425 385.259 -127.956Z" stroke="url(#paint5_linear_69_603)" stroke-width="2"/>
<path d="M247.348 -37.0027L247.359 -36.9816L247.373 -36.9618L275.251 3.46533C276.083 5.0096 275.906 6.92629 274.243 9.14312L230.867 66.9571C229.204 69.1739 226.88 70.5906 224.323 71.3462L153.202 88.6767C151.097 88.8294 148.837 88.3034 147.553 87.3617L119.718 46.9983C118.886 45.454 119.063 43.5374 120.726 41.3205L164.102 -16.4934C165.765 -18.7102 168.09 -20.127 170.647 -20.8825L241.88 -38.2404L241.915 -38.2489L241.95 -38.2591C244.383 -38.972 246.548 -38.4681 247.348 -37.0027Z" stroke="url(#paint6_linear_69_603)" stroke-width="2"/>
<path d="M367.384 -9.06277L367.396 -9.04162L367.409 -9.02182L395.288 31.4053C396.119 32.9495 395.943 34.8662 394.28 37.0831L350.904 94.897C349.24 97.1138 346.916 98.5306 344.359 99.2861L273.238 116.617C271.133 116.769 268.873 116.243 267.589 115.302L239.755 74.9382C238.923 73.394 239.099 71.4773 240.763 69.2605L284.139 11.4465C285.802 9.2297 288.126 7.81293 290.683 7.05743L361.916 -10.3004L361.951 -10.3089L361.986 -10.3192C364.42 -11.032 366.585 -10.5281 367.384 -9.06277Z" stroke="url(#paint7_linear_69_603)" stroke-width="2"/>
<path d="M229.524 79.6148L229.536 79.6359L229.55 79.6556L257.641 120.132C258.481 121.679 258.308 123.597 256.646 125.812L213.27 183.626C211.608 185.841 209.28 187.257 206.714 188.011L135.38 205.293C133.265 205.444 130.993 204.915 129.701 203.971L101.654 163.558C100.814 162.01 100.987 160.093 102.649 157.878L146.025 100.064C147.687 97.8486 150.015 96.4327 152.581 95.6784L224.027 78.37L224.061 78.3616L224.096 78.3514C226.54 77.6393 228.717 78.1461 229.524 79.6148Z" stroke="url(#paint8_linear_69_603)" stroke-width="2"/>
<path opacity="0.5" d="M111.634 52.1736L111.646 52.1947L111.659 52.2145L139.538 92.6416C140.369 94.1859 140.193 96.1026 138.53 98.3194L95.1536 156.133C93.4904 158.35 91.166 159.767 88.6089 160.522L17.4884 177.853C15.3833 178.006 13.1232 177.48 11.8391 176.538L-15.9955 136.175C-16.8271 134.63 -16.6505 132.714 -14.9873 130.497L28.3886 72.6829C30.0518 70.466 32.3762 69.0493 34.9333 68.2938L106.166 50.9359L106.201 50.9274L106.236 50.9171C108.67 50.2043 110.835 50.7082 111.634 52.1736Z" stroke="url(#paint9_linear_69_603)" stroke-width="2"/>
<path opacity="0.2" d="M128.752 -64.6072L128.764 -64.5861L128.777 -64.5663L156.656 -24.1392C157.488 -22.5949 157.311 -20.6782 155.648 -18.4614L112.272 39.3526C110.609 41.5694 108.284 42.9862 105.727 43.7417L34.6066 61.0722C32.5015 61.225 30.2413 60.6989 28.9573 59.7572L1.12269 19.3938C0.291041 17.8495 0.467642 15.9329 2.13085 13.716L45.5068 -44.0979C47.17 -46.3147 49.4944 -47.7315 52.0515 -48.487L123.284 -65.8448L123.319 -65.8534L123.354 -65.8636C125.788 -66.5765 127.953 -66.0726 128.752 -64.6072Z" stroke="url(#paint10_linear_69_603)" stroke-width="2"/>
</g>
<path opacity="0.4" d="M98.9053 341.814L98.8828 341.843L98.8619 341.872L56.1269 401.712C54.469 403.812 52.2866 405.444 49.612 406.159L-20.1926 424.816C-22.8672 425.531 -24.7097 424.975 -25.8304 423.618L-52.8228 382.49C-53.2156 380.938 -52.8572 378.632 -51.927 376.726L-9.25883 316.98C-7.60093 314.88 -5.41851 313.248 -2.7439 312.533L67.0607 293.876C69.7353 293.161 71.5777 293.717 72.6984 295.074L99.7331 336.266L99.7463 336.286L99.7615 336.305C100.822 337.603 100.478 339.813 98.9053 341.814Z" stroke="url(#paint11_linear_69_603)" stroke-width="2"/>
<path d="M117.146 224.436L117.124 224.465L117.103 224.494L74.4014 284.118C72.7458 286.209 70.564 287.837 67.8874 288.552L-1.91724 307.21C-4.59382 307.925 -6.43683 307.373 -7.55795 306.024L-34.5835 265.113C-34.9769 263.569 -34.6204 261.275 -33.6924 259.379L8.94175 199.848C10.5974 197.758 12.7792 196.13 15.4558 195.414L85.2604 176.757C87.937 176.041 89.78 176.594 90.9011 177.942L117.969 218.918L117.983 218.938L117.998 218.957C119.058 220.246 118.716 222.444 117.146 224.436Z" stroke="url(#paint12_linear_69_603)" stroke-width="2"/>
<path opacity="0.2" d="M0.48037 195.041L0.457715 195.07L0.436795 195.099L-42.2646 254.723C-43.9202 256.814 -46.102 258.442 -48.7786 259.157L-118.583 277.815C-121.26 278.53 -123.103 277.978 -124.224 276.629L-151.25 235.718C-151.643 234.174 -151.286 231.88 -150.358 229.984L-107.724 170.453C-106.069 168.363 -103.887 166.735 -101.21 166.019L-31.4057 147.362C-28.729 146.646 -26.886 147.199 -25.7649 148.547L1.30325 189.523L1.31652 189.543L1.33181 189.562C2.3918 190.851 2.05032 193.049 0.48037 195.041Z" stroke="url(#paint13_linear_69_603)" stroke-width="2"/>
<path opacity="0.5" d="M-93.4212 33.7791L-93.4337 33.7586L-93.4483 33.7394L-123.256 -5.28737C-124.161 -6.78948 -124.078 -8.71248 -122.524 -11.0074L-82.0043 -70.8578C-80.4506 -73.1527 -78.1977 -74.6806 -75.6803 -75.5593L-5.48442 -96.3201C-3.38916 -96.5749 -1.10617 -96.1591 0.222037 -95.2808L29.9823 -56.3155C30.8879 -54.8134 30.8045 -52.8904 29.2508 -50.5955L-11.269 9.25496C-12.8227 11.5499 -15.0756 13.0778 -17.593 13.9564L-87.8996 34.75L-87.934 34.7602L-87.9686 34.7722C-90.3648 35.6022 -92.5516 35.204 -93.4212 33.7791Z" stroke="url(#paint14_linear_69_603)" stroke-width="2"/>
<path opacity="0.2" d="M-104.852 151.253L-104.865 151.232L-104.879 151.213L-134.686 112.187C-135.592 110.684 -135.509 108.761 -133.955 106.466L-93.4352 46.616C-91.8815 44.3211 -89.6286 42.7933 -87.1112 41.9146L-16.9153 21.1538C-14.8201 20.899 -12.5371 21.3148 -11.2089 22.1931L18.5514 61.1584C19.457 62.6605 19.3736 64.5835 17.8199 66.8784L-22.6999 126.729C-24.2536 129.024 -26.5065 130.552 -29.0239 131.43L-99.3305 152.224L-99.3649 152.234L-99.3995 152.246C-101.796 153.076 -103.983 152.678 -104.852 151.253Z" stroke="url(#paint15_linear_69_603)" stroke-width="2"/>
<path opacity="0.4" d="M385.259 -127.956L385.27 -127.935L385.284 -127.916L413.375 -87.439C414.215 -85.892 414.042 -83.9744 412.38 -81.7592L369.004 -23.9453C367.342 -21.7301 365.014 -20.3142 362.448 -19.5599L291.114 -2.27862C289 -2.12722 286.728 -2.65605 285.435 -3.60046L257.388 -44.0138C256.548 -45.5608 256.721 -47.4784 258.383 -49.6936L301.759 -107.508C303.421 -109.723 305.749 -111.139 308.315 -111.893L379.761 -129.201L379.796 -129.21L379.831 -129.22C382.274 -129.932 384.452 -129.425 385.259 -127.956Z" stroke="url(#paint16_linear_69_603)" stroke-width="2"/>
<path d="M247.348 -37.0027L247.359 -36.9816L247.373 -36.9618L275.251 3.46533C276.083 5.0096 275.906 6.92629 274.243 9.14312L230.867 66.9571C229.204 69.1739 226.88 70.5906 224.323 71.3462L153.202 88.6767C151.097 88.8294 148.837 88.3034 147.553 87.3617L119.718 46.9983C118.886 45.454 119.063 43.5374 120.726 41.3205L164.102 -16.4934C165.765 -18.7102 168.09 -20.127 170.647 -20.8825L241.88 -38.2404L241.915 -38.2489L241.95 -38.2591C244.383 -38.972 246.548 -38.4681 247.348 -37.0027Z" stroke="url(#paint17_linear_69_603)" stroke-width="2"/>
<path d="M367.384 -9.06277L367.396 -9.04162L367.409 -9.02182L395.288 31.4053C396.119 32.9495 395.943 34.8662 394.28 37.0831L350.904 94.897C349.24 97.1138 346.916 98.5306 344.359 99.2861L273.238 116.617C271.133 116.769 268.873 116.243 267.589 115.302L239.755 74.9382C238.923 73.394 239.099 71.4773 240.763 69.2605L284.139 11.4465C285.802 9.2297 288.126 7.81293 290.683 7.05743L361.916 -10.3004L361.951 -10.3089L361.986 -10.3192C364.42 -11.032 366.585 -10.5281 367.384 -9.06277Z" stroke="url(#paint18_linear_69_603)" stroke-width="2"/>
<path d="M229.524 79.6148L229.536 79.6359L229.55 79.6556L257.641 120.132C258.481 121.679 258.308 123.597 256.646 125.812L213.27 183.626C211.608 185.841 209.28 187.257 206.714 188.011L135.38 205.293C133.265 205.444 130.993 204.915 129.701 203.971L101.654 163.558C100.814 162.01 100.987 160.093 102.649 157.878L146.025 100.064C147.687 97.8486 150.015 96.4327 152.581 95.6784L224.027 78.37L224.061 78.3616L224.096 78.3514C226.54 77.6393 228.717 78.1461 229.524 79.6148Z" stroke="url(#paint19_linear_69_603)" stroke-width="2"/>
<path opacity="0.5" d="M111.634 52.1736L111.646 52.1947L111.659 52.2145L139.538 92.6416C140.369 94.1859 140.193 96.1026 138.53 98.3194L95.1536 156.133C93.4904 158.35 91.166 159.767 88.6089 160.522L17.4884 177.853C15.3833 178.006 13.1232 177.48 11.8391 176.538L-15.9955 136.175C-16.8271 134.63 -16.6505 132.714 -14.9873 130.497L28.3886 72.6829C30.0518 70.466 32.3762 69.0493 34.9333 68.2938L106.166 50.9359L106.201 50.9274L106.236 50.9171C108.67 50.2043 110.835 50.7082 111.634 52.1736Z" stroke="url(#paint20_linear_69_603)" stroke-width="2"/>
<path opacity="0.2" d="M128.752 -64.6072L128.764 -64.5861L128.777 -64.5663L156.656 -24.1392C157.488 -22.5949 157.311 -20.6782 155.648 -18.4614L112.272 39.3526C110.609 41.5694 108.284 42.9862 105.727 43.7417L34.6066 61.0722C32.5015 61.225 30.2413 60.6989 28.9573 59.7572L1.12269 19.3938C0.291041 17.8495 0.467642 15.9329 2.13085 13.716L45.5068 -44.0979C47.17 -46.3147 49.4944 -47.7315 52.0515 -48.487L123.284 -65.8448L123.319 -65.8534L123.354 -65.8636C125.788 -66.5765 127.953 -66.0726 128.752 -64.6072Z" stroke="url(#paint21_linear_69_603)" stroke-width="2"/>
<defs>
<filter id="filter0_f_69_603" x="-705.527" y="-199.712" width="1221.02" height="1059.9" filterUnits="userSpaceOnUse" color-interpolation-filters="sRGB">
<feFlood flood-opacity="0" result="BackgroundImageFix"/>
<feBlend mode="normal" in="SourceGraphic" in2="BackgroundImageFix" result="shape"/>
<feGaussianBlur stdDeviation="7.5" result="effect1_foregroundBlur_69_603"/>
</filter>
<linearGradient id="paint0_linear_69_603" x1="93.0766" y1="414.513" x2="-61.3385" y2="385.72" gradientUnits="userSpaceOnUse">
<stop stop-color="#00A3FF"/>
<stop offset="1" stop-color="#18E6FE"/>
</linearGradient>
<linearGradient id="paint1_linear_69_603" x1="111.365" y1="296.821" x2="-43.0368" y2="268.011" gradientUnits="userSpaceOnUse">
<stop stop-color="#00A3FF"/>
<stop offset="1" stop-color="#18E6FE"/>
</linearGradient>
<linearGradient id="paint2_linear_69_603" x1="-5.30072" y1="267.426" x2="-159.703" y2="238.616" gradientUnits="userSpaceOnUse">
<stop stop-color="#00A3FF"/>
<stop offset="1" stop-color="#18E6FE"/>
</linearGradient>
<linearGradient id="paint3_linear_69_603" x1="-170.285" y1="25.2744" x2="-136.421" y2="-132.586" gradientUnits="userSpaceOnUse">
<stop stop-color="#00A3FF"/>
<stop offset="1" stop-color="#18E6FE"/>
</linearGradient>
<linearGradient id="paint4_linear_69_603" x1="-181.716" y1="142.748" x2="-147.852" y2="-15.1118" gradientUnits="userSpaceOnUse">
<stop stop-color="#00A3FF"/>
<stop offset="1" stop-color="#18E6FE"/>
</linearGradient>
<linearGradient id="paint5_linear_69_603" x1="461.929" y1="-115.661" x2="420.469" y2="40.3668" gradientUnits="userSpaceOnUse">
<stop stop-color="#00A3FF"/>
<stop offset="1" stop-color="#18E6FE"/>
</linearGradient>
<linearGradient id="paint6_linear_69_603" x1="323.708" y1="-24.7786" x2="282.225" y2="131.253" gradientUnits="userSpaceOnUse">
<stop stop-color="#00A3FF"/>
<stop offset="1" stop-color="#18E6FE"/>
</linearGradient>
<linearGradient id="paint7_linear_69_603" x1="443.745" y1="3.16137" x2="402.261" y2="159.192" gradientUnits="userSpaceOnUse">
<stop stop-color="#00A3FF"/>
<stop offset="1" stop-color="#18E6FE"/>
</linearGradient>
<linearGradient id="paint8_linear_69_603" x1="306.195" y1="91.9099" x2="264.735" y2="247.938" gradientUnits="userSpaceOnUse">
<stop stop-color="#00A3FF"/>
<stop offset="1" stop-color="#18E6FE"/>
</linearGradient>
<linearGradient id="paint9_linear_69_603" x1="187.995" y1="64.3977" x2="146.511" y2="220.429" gradientUnits="userSpaceOnUse">
<stop stop-color="#00A3FF"/>
<stop offset="1" stop-color="#18E6FE"/>
</linearGradient>
<linearGradient id="paint10_linear_69_603" x1="205.113" y1="-52.3831" x2="163.63" y2="103.648" gradientUnits="userSpaceOnUse">
<stop stop-color="#00A3FF"/>
<stop offset="1" stop-color="#18E6FE"/>
</linearGradient>
<linearGradient id="paint11_linear_69_603" x1="53.2473" y1="396.681" x2="-128.211" y2="252.533" gradientUnits="userSpaceOnUse">
<stop stop-color="#37C8EE"/>
<stop offset="0.76891" stop-color="#91E8FF"/>
</linearGradient>
<linearGradient id="paint12_linear_69_603" x1="71.5162" y1="279.117" x2="-109.405" y2="134.987" gradientUnits="userSpaceOnUse">
<stop stop-color="#37C8EE"/>
<stop offset="0.76891" stop-color="#91E8FF"/>
</linearGradient>
<linearGradient id="paint13_linear_69_603" x1="-45.1498" y1="249.722" x2="-226.072" y2="105.592" gradientUnits="userSpaceOnUse">
<stop stop-color="#37C8EE"/>
<stop offset="0.76891" stop-color="#91E8FF"/>
</linearGradient>
<linearGradient id="paint14_linear_69_603" x1="-115.044" y1="-7.47201" x2="187.648" y2="-187.153" gradientUnits="userSpaceOnUse">
<stop stop-color="#37C8EE"/>
<stop offset="0.76891" stop-color="#91E8FF"/>
</linearGradient>
<linearGradient id="paint15_linear_69_603" x1="-126.475" y1="110.002" x2="176.217" y2="-69.6793" gradientUnits="userSpaceOnUse">
<stop stop-color="#37C8EE"/>
<stop offset="0.76891" stop-color="#91E8FF"/>
</linearGradient>
<linearGradient id="paint16_linear_69_603" x1="405.039" y1="-85.6629" x2="94.0482" y2="80.3607" gradientUnits="userSpaceOnUse">
<stop stop-color="#37C8EE"/>
<stop offset="0.76891" stop-color="#91E8FF"/>
</linearGradient>
<linearGradient id="paint17_linear_69_603" x1="266.944" y1="5.24898" x2="-44.1103" y2="170.032" gradientUnits="userSpaceOnUse">
<stop stop-color="#37C8EE"/>
<stop offset="0.76891" stop-color="#91E8FF"/>
</linearGradient>
<linearGradient id="paint18_linear_69_603" x1="386.98" y1="33.1889" x2="75.9261" y2="197.972" gradientUnits="userSpaceOnUse">
<stop stop-color="#37C8EE"/>
<stop offset="0.76891" stop-color="#91E8FF"/>
</linearGradient>
<linearGradient id="paint19_linear_69_603" x1="249.305" y1="121.908" x2="-61.6862" y2="287.932" gradientUnits="userSpaceOnUse">
<stop stop-color="#37C8EE"/>
<stop offset="0.76891" stop-color="#91E8FF"/>
</linearGradient>
<linearGradient id="paint20_linear_69_603" x1="131.23" y1="94.4252" x2="-179.824" y2="259.208" gradientUnits="userSpaceOnUse">
<stop stop-color="#37C8EE"/>
<stop offset="0.76891" stop-color="#91E8FF"/>
</linearGradient>
<linearGradient id="paint21_linear_69_603" x1="148.348" y1="-22.3555" x2="-162.706" y2="142.428" gradientUnits="userSpaceOnUse">
<stop stop-color="#37C8EE"/>
<stop offset="0.76891" stop-color="#91E8FF"/>
</linearGradient>
</defs>
</svg>
