<svg width="538" height="1218" viewBox="0 0 538 1218" fill="none" xmlns="http://www.w3.org/2000/svg">
<g filter="url(#filter0_f_69_520)">
<path opacity="0.4" d="M446.61 337.814L446.633 337.843L446.654 337.872L489.389 397.712C491.047 399.812 493.229 401.444 495.904 402.159L565.708 420.816C568.383 421.531 570.225 420.975 571.346 419.618L598.338 378.49C598.731 376.938 598.373 374.632 597.443 372.726L554.774 312.98C553.117 310.88 550.934 309.248 548.26 308.533L478.455 289.876C475.78 289.161 473.938 289.717 472.817 291.074L445.782 332.266L445.769 332.286L445.754 332.305C444.694 333.603 445.037 335.813 446.61 337.814Z" stroke="url(#paint0_linear_69_520)" stroke-width="2"/>
<path d="M428.369 220.436L428.392 220.465L428.413 220.494L471.114 280.118C472.77 282.209 474.952 283.837 477.628 284.552L547.433 303.21C550.109 303.925 551.952 303.373 553.074 302.024L580.099 261.113C580.493 259.569 580.136 257.275 579.208 255.378L536.574 195.848C534.918 193.758 532.736 192.13 530.06 191.414L460.255 172.757C457.579 172.041 455.736 172.594 454.615 173.942L427.546 214.918L427.533 214.938L427.518 214.957C426.458 216.246 426.799 218.444 428.369 220.436Z" stroke="url(#paint1_linear_69_520)" stroke-width="2"/>
<path opacity="0.2" d="M545.035 191.041L545.058 191.07L545.079 191.099L587.78 250.723C589.436 252.814 591.618 254.442 594.294 255.157L664.099 273.815C666.775 274.53 668.618 273.978 669.74 272.629L696.765 231.718C697.159 230.174 696.802 227.88 695.874 225.983L653.24 166.453C651.584 164.363 649.402 162.735 646.726 162.019L576.921 143.362C574.245 142.646 572.402 143.199 571.281 144.547L544.212 185.523L544.199 185.543L544.184 185.562C543.124 186.851 543.465 189.049 545.035 191.041Z" stroke="url(#paint2_linear_69_520)" stroke-width="2"/>
<path opacity="0.5" d="M638.937 29.7791L638.949 29.7586L638.964 29.7394L668.771 -9.28738C669.677 -10.7895 669.593 -12.7125 668.04 -15.0074L627.52 -74.8578C625.966 -77.1527 623.713 -78.6806 621.196 -79.5593L551 -100.32C548.905 -100.575 546.622 -100.159 545.294 -99.2808L515.533 -60.3155C514.628 -58.8134 514.711 -56.8904 516.265 -54.5955L556.785 5.25496C558.338 7.54988 560.591 9.07775 563.109 9.95643L633.415 30.75L633.45 30.7602L633.484 30.7722C635.88 31.6022 638.067 31.204 638.937 29.7791Z" stroke="url(#paint3_linear_69_520)" stroke-width="2"/>
<path opacity="0.2" d="M650.368 147.253L650.38 147.232L650.395 147.213L680.202 108.187C681.108 106.684 681.024 104.761 679.471 102.466L638.951 42.616C637.397 40.3211 635.144 38.7933 632.627 37.9146L562.431 17.1538C560.336 16.899 558.053 17.3148 556.724 18.1931L526.964 57.1584C526.059 58.6605 526.142 60.5835 527.696 62.8784L568.215 122.729C569.769 125.024 572.022 126.552 574.54 127.43L644.846 148.224L644.881 148.234L644.915 148.246C647.311 149.076 649.498 148.678 650.368 147.253Z" stroke="url(#paint4_linear_69_520)" stroke-width="2"/>
<path opacity="0.4" d="M160.257 -131.956L160.245 -131.935L160.232 -131.916L132.14 -91.439C131.301 -89.892 131.474 -87.9744 133.136 -85.7592L176.511 -27.9453C178.173 -25.7301 180.502 -24.3142 183.068 -23.5599L254.401 -6.27862C256.516 -6.12721 258.788 -6.65605 260.08 -7.60046L288.128 -48.0138C288.967 -49.5608 288.794 -51.4784 287.132 -53.6936L243.757 -111.508C242.095 -113.723 239.766 -115.139 237.2 -115.893L165.755 -133.201L165.72 -133.21L165.685 -133.22C163.241 -133.932 161.064 -133.425 160.257 -131.956Z" stroke="url(#paint5_linear_69_520)" stroke-width="2"/>
<path d="M298.168 -41.0027L298.156 -40.9816L298.143 -40.9618L270.264 -0.534673C269.433 1.0096 269.609 2.92629 271.272 5.14312L314.648 62.9571C316.312 65.1739 318.636 66.5906 321.193 67.3462L392.314 84.6767C394.419 84.8295 396.679 84.3034 397.963 83.3617L425.797 42.9983C426.629 41.454 426.453 39.5374 424.789 37.3205L381.413 -20.4934C379.75 -22.7102 377.426 -24.127 374.869 -24.8825L303.636 -42.2404L303.601 -42.2489L303.566 -42.2591C301.132 -42.972 298.967 -42.4681 298.168 -41.0027Z" stroke="url(#paint6_linear_69_520)" stroke-width="2"/>
<path d="M178.132 -13.0628L178.12 -13.0416L178.106 -13.0218L150.228 27.4053C149.396 28.9495 149.573 30.8662 151.236 33.0831L194.612 90.897C196.275 93.1138 198.6 94.5306 201.157 95.2861L272.277 112.617C274.382 112.769 276.643 112.243 277.927 111.302L305.761 70.9382C306.593 69.394 306.416 67.4773 304.753 65.2605L261.377 7.44653C259.714 5.2297 257.389 3.81293 254.832 3.05743L183.6 -14.3004L183.565 -14.3089L183.53 -14.3192C181.096 -15.032 178.931 -14.5281 178.132 -13.0628Z" stroke="url(#paint7_linear_69_520)" stroke-width="2"/>
<path d="M315.991 75.6148L315.98 75.6359L315.966 75.6556L287.875 116.132C287.035 117.679 287.208 119.597 288.87 121.812L332.246 179.626C333.908 181.841 336.236 183.257 338.802 184.011L410.136 201.293C412.25 201.444 414.522 200.915 415.815 199.971L443.862 159.557C444.702 158.01 444.529 156.093 442.867 153.878L399.491 96.0638C397.829 93.8486 395.501 92.4327 392.935 91.6784L321.489 74.37L321.454 74.3616L321.419 74.3514C318.976 73.6393 316.798 74.1461 315.991 75.6148Z" stroke="url(#paint8_linear_69_520)" stroke-width="2"/>
<path opacity="0.5" d="M433.882 48.1736L433.87 48.1947L433.856 48.2145L405.978 88.6416C405.146 90.1859 405.323 92.1026 406.986 94.3194L450.362 152.133C452.025 154.35 454.35 155.767 456.907 156.522L528.027 173.853C530.132 174.006 532.393 173.48 533.677 172.538L561.511 132.175C562.343 130.63 562.166 128.714 560.503 126.497L517.127 68.6829C515.464 66.466 513.139 65.0493 510.582 64.2938L439.35 46.9359L439.315 46.9274L439.28 46.9171C436.846 46.2043 434.681 46.7082 433.882 48.1736Z" stroke="url(#paint9_linear_69_520)" stroke-width="2"/>
<path opacity="0.2" d="M416.763 -68.6072L416.752 -68.5861L416.738 -68.5663L388.86 -28.1392C388.028 -26.5949 388.205 -24.6782 389.868 -22.4614L433.244 35.3526C434.907 37.5694 437.231 38.9862 439.789 39.7417L510.909 57.0722C513.014 57.225 515.274 56.6989 516.558 55.7572L544.393 15.3938C545.225 13.8495 545.048 11.9329 543.385 9.71605L500.009 -48.0979C498.346 -50.3147 496.021 -51.7315 493.464 -52.487L422.231 -69.8448L422.197 -69.8534L422.161 -69.8636C419.728 -70.5765 417.563 -70.0726 416.763 -68.6072Z" stroke="url(#paint10_linear_69_520)" stroke-width="2"/>
</g>
<path opacity="0.4" d="M446.61 337.814L446.633 337.843L446.654 337.872L489.389 397.712C491.047 399.812 493.229 401.444 495.904 402.159L565.708 420.816C568.383 421.531 570.225 420.975 571.346 419.618L598.338 378.49C598.731 376.938 598.373 374.632 597.443 372.726L554.774 312.98C553.117 310.88 550.934 309.248 548.26 308.533L478.455 289.876C475.78 289.161 473.938 289.717 472.817 291.074L445.782 332.266L445.769 332.286L445.754 332.305C444.694 333.603 445.037 335.813 446.61 337.814Z" stroke="url(#paint11_linear_69_520)" stroke-width="2"/>
<path d="M428.369 220.436L428.392 220.465L428.413 220.494L471.114 280.118C472.77 282.209 474.952 283.837 477.628 284.552L547.433 303.21C550.109 303.925 551.952 303.373 553.074 302.024L580.099 261.113C580.493 259.569 580.136 257.275 579.208 255.378L536.574 195.848C534.918 193.758 532.736 192.13 530.06 191.414L460.255 172.757C457.579 172.041 455.736 172.594 454.615 173.942L427.546 214.918L427.533 214.938L427.518 214.957C426.458 216.246 426.799 218.444 428.369 220.436Z" stroke="url(#paint12_linear_69_520)" stroke-width="2"/>
<path opacity="0.2" d="M545.035 191.041L545.058 191.07L545.079 191.099L587.78 250.723C589.436 252.814 591.618 254.442 594.294 255.157L664.099 273.815C666.775 274.53 668.618 273.978 669.74 272.629L696.765 231.718C697.159 230.174 696.802 227.88 695.874 225.983L653.24 166.453C651.584 164.363 649.402 162.735 646.726 162.019L576.921 143.362C574.245 142.646 572.402 143.199 571.281 144.547L544.212 185.523L544.199 185.543L544.184 185.562C543.124 186.851 543.465 189.049 545.035 191.041Z" stroke="url(#paint13_linear_69_520)" stroke-width="2"/>
<path opacity="0.5" d="M638.937 29.7791L638.949 29.7586L638.964 29.7394L668.771 -9.28738C669.677 -10.7895 669.593 -12.7125 668.04 -15.0074L627.52 -74.8578C625.966 -77.1527 623.713 -78.6806 621.196 -79.5593L551 -100.32C548.905 -100.575 546.622 -100.159 545.294 -99.2808L515.533 -60.3155C514.628 -58.8134 514.711 -56.8904 516.265 -54.5955L556.785 5.25496C558.338 7.54988 560.591 9.07775 563.109 9.95643L633.415 30.75L633.45 30.7602L633.484 30.7722C635.88 31.6022 638.067 31.204 638.937 29.7791Z" stroke="url(#paint14_linear_69_520)" stroke-width="2"/>
<path opacity="0.2" d="M650.368 147.253L650.38 147.232L650.395 147.213L680.202 108.187C681.108 106.684 681.024 104.761 679.471 102.466L638.951 42.616C637.397 40.3211 635.144 38.7933 632.627 37.9146L562.431 17.1538C560.336 16.899 558.053 17.3148 556.724 18.1931L526.964 57.1584C526.059 58.6605 526.142 60.5835 527.696 62.8784L568.215 122.729C569.769 125.024 572.022 126.552 574.54 127.43L644.846 148.224L644.881 148.234L644.915 148.246C647.311 149.076 649.498 148.678 650.368 147.253Z" stroke="url(#paint15_linear_69_520)" stroke-width="2"/>
<path opacity="0.4" d="M160.257 -131.956L160.245 -131.935L160.232 -131.916L132.14 -91.439C131.301 -89.892 131.474 -87.9744 133.136 -85.7592L176.511 -27.9453C178.173 -25.7301 180.502 -24.3142 183.068 -23.5599L254.401 -6.27862C256.516 -6.12721 258.788 -6.65605 260.08 -7.60046L288.128 -48.0138C288.967 -49.5608 288.794 -51.4784 287.132 -53.6936L243.757 -111.508C242.095 -113.723 239.766 -115.139 237.2 -115.893L165.755 -133.201L165.72 -133.21L165.685 -133.22C163.241 -133.932 161.064 -133.425 160.257 -131.956Z" stroke="url(#paint16_linear_69_520)" stroke-width="2"/>
<path d="M298.168 -41.0027L298.156 -40.9816L298.143 -40.9618L270.264 -0.534673C269.433 1.0096 269.609 2.92629 271.272 5.14312L314.648 62.9571C316.312 65.1739 318.636 66.5906 321.193 67.3462L392.314 84.6767C394.419 84.8295 396.679 84.3034 397.963 83.3617L425.797 42.9983C426.629 41.454 426.453 39.5374 424.789 37.3205L381.413 -20.4934C379.75 -22.7102 377.426 -24.127 374.869 -24.8825L303.636 -42.2404L303.601 -42.2489L303.566 -42.2591C301.132 -42.972 298.967 -42.4681 298.168 -41.0027Z" stroke="url(#paint17_linear_69_520)" stroke-width="2"/>
<path d="M178.132 -13.0628L178.12 -13.0416L178.106 -13.0218L150.228 27.4053C149.396 28.9495 149.573 30.8662 151.236 33.0831L194.612 90.897C196.275 93.1138 198.6 94.5306 201.157 95.2861L272.277 112.617C274.382 112.769 276.643 112.243 277.927 111.302L305.761 70.9382C306.593 69.394 306.416 67.4773 304.753 65.2605L261.377 7.44653C259.714 5.2297 257.389 3.81293 254.832 3.05743L183.6 -14.3004L183.565 -14.3089L183.53 -14.3192C181.096 -15.032 178.931 -14.5281 178.132 -13.0628Z" stroke="url(#paint18_linear_69_520)" stroke-width="2"/>
<path d="M315.991 75.6148L315.98 75.6359L315.966 75.6556L287.875 116.132C287.035 117.679 287.208 119.597 288.87 121.812L332.246 179.626C333.908 181.841 336.236 183.257 338.802 184.011L410.136 201.293C412.25 201.444 414.522 200.915 415.815 199.971L443.862 159.557C444.702 158.01 444.529 156.093 442.867 153.878L399.491 96.0638C397.829 93.8486 395.501 92.4327 392.935 91.6784L321.489 74.37L321.454 74.3616L321.419 74.3514C318.976 73.6393 316.798 74.1461 315.991 75.6148Z" stroke="url(#paint19_linear_69_520)" stroke-width="2"/>
<path opacity="0.5" d="M433.882 48.1736L433.87 48.1947L433.856 48.2145L405.978 88.6416C405.146 90.1859 405.323 92.1026 406.986 94.3194L450.362 152.133C452.025 154.35 454.35 155.767 456.907 156.522L528.027 173.853C530.132 174.006 532.393 173.48 533.677 172.538L561.511 132.175C562.343 130.63 562.166 128.714 560.503 126.497L517.127 68.6829C515.464 66.466 513.139 65.0493 510.582 64.2938L439.35 46.9359L439.315 46.9274L439.28 46.9171C436.846 46.2043 434.681 46.7082 433.882 48.1736Z" stroke="url(#paint20_linear_69_520)" stroke-width="2"/>
<path opacity="0.2" d="M416.763 -68.6072L416.752 -68.5861L416.738 -68.5663L388.86 -28.1392C388.028 -26.5949 388.205 -24.6782 389.868 -22.4614L433.244 35.3526C434.907 37.5694 437.231 38.9862 439.789 39.7417L510.909 57.0722C513.014 57.225 515.274 56.6989 516.558 55.7572L544.393 15.3938C545.225 13.8495 545.048 11.9329 543.385 9.71605L500.009 -48.0979C498.346 -50.3147 496.021 -51.7315 493.464 -52.487L422.231 -69.8448L422.197 -69.8534L422.161 -69.8636C419.728 -70.5765 417.563 -70.0726 416.763 -68.6072Z" stroke="url(#paint21_linear_69_520)" stroke-width="2"/>
<defs>
<filter id="filter0_f_69_520" x="30.0225" y="-203.712" width="1221.02" height="1059.9" filterUnits="userSpaceOnUse" color-interpolation-filters="sRGB">
<feFlood flood-opacity="0" result="BackgroundImageFix"/>
<feBlend mode="normal" in="SourceGraphic" in2="BackgroundImageFix" result="shape"/>
<feGaussianBlur stdDeviation="7.5" result="effect1_foregroundBlur_69_520"/>
</filter>
<linearGradient id="paint0_linear_69_520" x1="452.439" y1="410.513" x2="606.854" y2="381.72" gradientUnits="userSpaceOnUse">
<stop stop-color="#00A3FF"/>
<stop offset="1" stop-color="#18E6FE"/>
</linearGradient>
<linearGradient id="paint1_linear_69_520" x1="434.15" y1="292.821" x2="588.552" y2="264.011" gradientUnits="userSpaceOnUse">
<stop stop-color="#00A3FF"/>
<stop offset="1" stop-color="#18E6FE"/>
</linearGradient>
<linearGradient id="paint2_linear_69_520" x1="550.816" y1="263.426" x2="705.218" y2="234.616" gradientUnits="userSpaceOnUse">
<stop stop-color="#00A3FF"/>
<stop offset="1" stop-color="#18E6FE"/>
</linearGradient>
<linearGradient id="paint3_linear_69_520" x1="715.801" y1="21.2744" x2="681.937" y2="-136.586" gradientUnits="userSpaceOnUse">
<stop stop-color="#00A3FF"/>
<stop offset="1" stop-color="#18E6FE"/>
</linearGradient>
<linearGradient id="paint4_linear_69_520" x1="727.232" y1="138.748" x2="693.368" y2="-19.1118" gradientUnits="userSpaceOnUse">
<stop stop-color="#00A3FF"/>
<stop offset="1" stop-color="#18E6FE"/>
</linearGradient>
<linearGradient id="paint5_linear_69_520" x1="83.5864" y1="-119.661" x2="125.046" y2="36.3668" gradientUnits="userSpaceOnUse">
<stop stop-color="#00A3FF"/>
<stop offset="1" stop-color="#18E6FE"/>
</linearGradient>
<linearGradient id="paint6_linear_69_520" x1="221.807" y1="-28.7786" x2="263.291" y2="127.253" gradientUnits="userSpaceOnUse">
<stop stop-color="#00A3FF"/>
<stop offset="1" stop-color="#18E6FE"/>
</linearGradient>
<linearGradient id="paint7_linear_69_520" x1="101.771" y1="-0.838631" x2="143.254" y2="155.192" gradientUnits="userSpaceOnUse">
<stop stop-color="#00A3FF"/>
<stop offset="1" stop-color="#18E6FE"/>
</linearGradient>
<linearGradient id="paint8_linear_69_520" x1="239.321" y1="87.9099" x2="280.781" y2="243.938" gradientUnits="userSpaceOnUse">
<stop stop-color="#00A3FF"/>
<stop offset="1" stop-color="#18E6FE"/>
</linearGradient>
<linearGradient id="paint9_linear_69_520" x1="357.521" y1="60.3977" x2="399.004" y2="216.429" gradientUnits="userSpaceOnUse">
<stop stop-color="#00A3FF"/>
<stop offset="1" stop-color="#18E6FE"/>
</linearGradient>
<linearGradient id="paint10_linear_69_520" x1="340.403" y1="-56.3831" x2="381.886" y2="99.648" gradientUnits="userSpaceOnUse">
<stop stop-color="#00A3FF"/>
<stop offset="1" stop-color="#18E6FE"/>
</linearGradient>
<linearGradient id="paint11_linear_69_520" x1="492.268" y1="392.681" x2="673.726" y2="248.533" gradientUnits="userSpaceOnUse">
<stop stop-color="#37C8EE"/>
<stop offset="0.76891" stop-color="#91E8FF"/>
</linearGradient>
<linearGradient id="paint12_linear_69_520" x1="473.999" y1="275.117" x2="654.921" y2="130.987" gradientUnits="userSpaceOnUse">
<stop stop-color="#37C8EE"/>
<stop offset="0.76891" stop-color="#91E8FF"/>
</linearGradient>
<linearGradient id="paint13_linear_69_520" x1="590.665" y1="245.722" x2="771.587" y2="101.592" gradientUnits="userSpaceOnUse">
<stop stop-color="#37C8EE"/>
<stop offset="0.76891" stop-color="#91E8FF"/>
</linearGradient>
<linearGradient id="paint14_linear_69_520" x1="660.56" y1="-11.472" x2="357.867" y2="-191.153" gradientUnits="userSpaceOnUse">
<stop stop-color="#37C8EE"/>
<stop offset="0.76891" stop-color="#91E8FF"/>
</linearGradient>
<linearGradient id="paint15_linear_69_520" x1="671.991" y1="106.002" x2="369.298" y2="-73.6793" gradientUnits="userSpaceOnUse">
<stop stop-color="#37C8EE"/>
<stop offset="0.76891" stop-color="#91E8FF"/>
</linearGradient>
<linearGradient id="paint16_linear_69_520" x1="140.476" y1="-89.6629" x2="451.467" y2="76.3607" gradientUnits="userSpaceOnUse">
<stop stop-color="#37C8EE"/>
<stop offset="0.76891" stop-color="#91E8FF"/>
</linearGradient>
<linearGradient id="paint17_linear_69_520" x1="278.572" y1="1.24898" x2="589.626" y2="166.032" gradientUnits="userSpaceOnUse">
<stop stop-color="#37C8EE"/>
<stop offset="0.76891" stop-color="#91E8FF"/>
</linearGradient>
<linearGradient id="paint18_linear_69_520" x1="158.536" y1="29.1889" x2="469.59" y2="193.972" gradientUnits="userSpaceOnUse">
<stop stop-color="#37C8EE"/>
<stop offset="0.76891" stop-color="#91E8FF"/>
</linearGradient>
<linearGradient id="paint19_linear_69_520" x1="296.211" y1="117.908" x2="607.202" y2="283.932" gradientUnits="userSpaceOnUse">
<stop stop-color="#37C8EE"/>
<stop offset="0.76891" stop-color="#91E8FF"/>
</linearGradient>
<linearGradient id="paint20_linear_69_520" x1="414.286" y1="90.4252" x2="725.34" y2="255.208" gradientUnits="userSpaceOnUse">
<stop stop-color="#37C8EE"/>
<stop offset="0.76891" stop-color="#91E8FF"/>
</linearGradient>
<linearGradient id="paint21_linear_69_520" x1="397.168" y1="-26.3555" x2="708.221" y2="138.428" gradientUnits="userSpaceOnUse">
<stop stop-color="#37C8EE"/>
<stop offset="0.76891" stop-color="#91E8FF"/>
</linearGradient>
</defs>
</svg>
