<svg width="960" height="1440" viewBox="0 0 960 1440" fill="none" xmlns="http://www.w3.org/2000/svg">
<g clip-path="url(#clip0_69_464)">
<g filter="url(#filter0_f_69_464)">
<path opacity="0.9" d="M658.559 387.379L656.591 388.051C656.514 388.083 656.455 388.142 656.438 388.232L656.05 390.256C656.033 390.346 656.065 390.422 656.125 390.48L657.705 391.833C657.765 391.891 657.856 391.908 657.933 391.876L659.901 391.204C659.978 391.172 660.037 391.114 660.054 391.024L660.442 388.999C660.459 388.909 660.427 388.833 660.367 388.775L658.787 387.422C658.723 387.387 658.632 387.369 658.559 387.379Z" fill="white"/>
<path opacity="0.9" d="M568.749 478.356L566.78 479.028C566.703 479.06 566.645 479.119 566.627 479.209L566.239 481.233C566.222 481.323 566.255 481.399 566.314 481.457L567.895 482.81C567.954 482.868 568.045 482.885 568.122 482.853L570.091 482.181C570.168 482.149 570.226 482.091 570.243 482.001L570.631 479.976C570.649 479.886 570.616 479.81 570.556 479.752L568.976 478.4C568.912 478.364 568.821 478.346 568.749 478.356Z" fill="white"/>
<path opacity="0.9" d="M936.08 480.409L934.883 480.818C934.837 480.837 934.801 480.873 934.791 480.928L934.555 482.158C934.544 482.213 934.564 482.259 934.6 482.294L935.561 483.116C935.597 483.152 935.652 483.162 935.699 483.143L936.895 482.734C936.942 482.715 936.978 482.679 936.988 482.625L937.224 481.394C937.234 481.34 937.215 481.293 937.178 481.258L936.218 480.436C936.179 480.414 936.124 480.404 936.08 480.409Z" fill="white"/>
<path opacity="0.9" d="M733.244 471.709L732.047 472.118C732.001 472.137 731.965 472.173 731.955 472.227L731.719 473.458C731.708 473.513 731.728 473.559 731.764 473.594L732.725 474.416C732.761 474.451 732.816 474.462 732.863 474.443L734.059 474.034C734.106 474.015 734.142 473.979 734.152 473.924L734.388 472.694C734.398 472.639 734.379 472.593 734.342 472.558L733.382 471.736C733.343 471.714 733.288 471.704 733.244 471.709Z" fill="white"/>
<path opacity="0.9" d="M774.619 843.677L775.349 845.625C775.383 845.701 775.443 845.757 775.534 845.772L777.569 846.101C777.659 846.115 777.734 846.08 777.791 846.019L779.096 844.4C779.153 844.338 779.167 844.247 779.133 844.171L778.404 842.223C778.37 842.147 778.309 842.09 778.219 842.076L776.184 841.747C776.093 841.733 776.018 841.767 775.962 841.829L774.656 843.448C774.623 843.513 774.608 843.604 774.619 843.677Z" fill="white"/>
<path opacity="0.9" d="M868.188 930.784L868.918 932.732C868.952 932.808 869.012 932.864 869.103 932.879L871.138 933.207C871.228 933.222 871.303 933.187 871.36 933.126L872.665 931.507C872.721 931.445 872.736 931.354 872.702 931.278L871.973 929.33C871.939 929.254 871.878 929.197 871.788 929.183L869.753 928.854C869.662 928.84 869.587 928.874 869.531 928.936L868.225 930.555C868.192 930.62 868.177 930.711 868.188 930.784Z" fill="white"/>
<path opacity="0.9" d="M859.481 563.55L859.924 564.734C859.945 564.78 859.982 564.815 860.036 564.824L861.273 565.023C861.328 565.032 861.374 565.011 861.408 564.974L862.202 563.99C862.236 563.952 862.245 563.897 862.224 563.851L861.781 562.667C861.76 562.621 861.723 562.586 861.668 562.577L860.432 562.378C860.377 562.369 860.331 562.39 860.297 562.427L859.503 563.411C859.483 563.451 859.474 563.506 859.481 563.55Z" fill="white"/>
<path opacity="0.9" d="M856.726 766.554L857.169 767.738C857.19 767.784 857.227 767.818 857.282 767.827L858.518 768.027C858.573 768.036 858.619 768.015 858.653 767.977L859.447 766.993C859.481 766.956 859.49 766.9 859.469 766.854L859.026 765.67C859.005 765.624 858.968 765.59 858.913 765.581L857.677 765.381C857.622 765.372 857.576 765.394 857.542 765.431L856.748 766.415C856.728 766.454 856.719 766.51 856.726 766.554Z" fill="white"/>
<path opacity="0.9" d="M815.546 1387.5L816.276 1389.45C816.31 1389.52 816.37 1389.58 816.461 1389.6L818.496 1389.92C818.586 1389.94 818.661 1389.9 818.718 1389.84L820.023 1388.22C820.079 1388.16 820.094 1388.07 820.06 1388L819.331 1386.05C819.296 1385.97 819.236 1385.91 819.146 1385.9L817.111 1385.57C817.02 1385.56 816.945 1385.59 816.889 1385.65L815.583 1387.27C815.549 1387.34 815.535 1387.43 815.546 1387.5Z" fill="white"/>
<path opacity="0.9" d="M900.408 1107.37L900.851 1108.56C900.872 1108.6 900.908 1108.64 900.963 1108.65L902.2 1108.85C902.255 1108.86 902.301 1108.84 902.335 1108.8L903.128 1107.81C903.163 1107.78 903.172 1107.72 903.151 1107.67L902.707 1106.49C902.687 1106.44 902.65 1106.41 902.595 1106.4L901.358 1106.2C901.303 1106.19 901.258 1106.21 901.223 1106.25L900.43 1107.24C900.409 1107.27 900.4 1107.33 900.408 1107.37Z" fill="white"/>
<path opacity="0.9" d="M897.653 1310.38L898.096 1311.56C898.117 1311.61 898.153 1311.64 898.208 1311.65L899.445 1311.85C899.5 1311.86 899.546 1311.84 899.58 1311.8L900.373 1310.82C900.408 1310.78 900.417 1310.72 900.396 1310.68L899.953 1309.49C899.932 1309.45 899.895 1309.41 899.84 1309.41L898.603 1309.21C898.548 1309.2 898.503 1309.22 898.469 1309.26L897.675 1310.24C897.655 1310.28 897.646 1310.33 897.653 1310.38Z" fill="white"/>
</g>
<path opacity="0.9" d="M658.559 387.379L656.591 388.051C656.514 388.083 656.455 388.142 656.438 388.232L656.05 390.256C656.033 390.346 656.065 390.422 656.125 390.48L657.705 391.833C657.765 391.891 657.856 391.908 657.933 391.876L659.901 391.204C659.978 391.172 660.037 391.114 660.054 391.024L660.442 388.999C660.459 388.909 660.427 388.833 660.367 388.775L658.787 387.422C658.723 387.387 658.632 387.369 658.559 387.379Z" fill="white"/>
<path opacity="0.9" d="M568.749 478.356L566.78 479.028C566.703 479.06 566.645 479.119 566.627 479.209L566.239 481.233C566.222 481.323 566.255 481.399 566.314 481.457L567.895 482.81C567.954 482.868 568.045 482.885 568.122 482.853L570.091 482.181C570.168 482.149 570.226 482.091 570.243 482.001L570.631 479.976C570.649 479.886 570.616 479.81 570.556 479.752L568.976 478.4C568.912 478.364 568.821 478.346 568.749 478.356Z" fill="white"/>
<path opacity="0.9" d="M936.08 480.409L934.883 480.818C934.837 480.837 934.801 480.873 934.791 480.928L934.555 482.158C934.544 482.213 934.564 482.259 934.6 482.294L935.561 483.116C935.597 483.152 935.652 483.162 935.699 483.143L936.895 482.734C936.942 482.715 936.978 482.679 936.988 482.625L937.224 481.394C937.234 481.34 937.215 481.293 937.178 481.258L936.218 480.436C936.179 480.414 936.124 480.404 936.08 480.409Z" fill="white"/>
<path opacity="0.9" d="M733.244 471.709L732.047 472.118C732.001 472.137 731.965 472.173 731.955 472.227L731.719 473.458C731.708 473.513 731.728 473.559 731.764 473.594L732.725 474.416C732.761 474.451 732.816 474.462 732.863 474.443L734.059 474.034C734.106 474.015 734.142 473.979 734.152 473.924L734.388 472.694C734.398 472.639 734.379 472.593 734.342 472.558L733.382 471.736C733.343 471.714 733.288 471.704 733.244 471.709Z" fill="white"/>
<path opacity="0.9" d="M774.619 843.677L775.349 845.625C775.383 845.701 775.443 845.757 775.534 845.772L777.569 846.101C777.659 846.115 777.734 846.08 777.791 846.019L779.096 844.4C779.153 844.338 779.167 844.247 779.133 844.171L778.404 842.223C778.37 842.147 778.309 842.09 778.219 842.076L776.184 841.747C776.093 841.733 776.018 841.767 775.962 841.829L774.656 843.448C774.623 843.513 774.608 843.604 774.619 843.677Z" fill="white"/>
<path opacity="0.9" d="M868.188 930.784L868.918 932.732C868.952 932.808 869.012 932.864 869.103 932.879L871.138 933.207C871.228 933.222 871.303 933.187 871.36 933.126L872.665 931.507C872.721 931.445 872.736 931.354 872.702 931.278L871.973 929.33C871.939 929.254 871.878 929.197 871.788 929.183L869.753 928.854C869.662 928.84 869.587 928.874 869.531 928.936L868.225 930.555C868.192 930.62 868.177 930.711 868.188 930.784Z" fill="white"/>
<path opacity="0.9" d="M859.481 563.55L859.924 564.734C859.945 564.78 859.982 564.815 860.036 564.824L861.273 565.023C861.328 565.032 861.374 565.011 861.408 564.974L862.202 563.99C862.236 563.952 862.245 563.897 862.224 563.851L861.781 562.667C861.76 562.621 861.723 562.586 861.668 562.577L860.432 562.378C860.377 562.369 860.331 562.39 860.297 562.427L859.503 563.411C859.483 563.451 859.474 563.506 859.481 563.55Z" fill="white"/>
<path opacity="0.9" d="M856.726 766.554L857.169 767.738C857.19 767.784 857.227 767.818 857.282 767.827L858.518 768.027C858.573 768.036 858.619 768.015 858.653 767.977L859.447 766.993C859.481 766.956 859.49 766.9 859.469 766.854L859.026 765.67C859.005 765.624 858.968 765.59 858.913 765.581L857.677 765.381C857.622 765.372 857.576 765.394 857.542 765.431L856.748 766.415C856.728 766.454 856.719 766.51 856.726 766.554Z" fill="white"/>
<path opacity="0.9" d="M815.546 1387.5L816.276 1389.45C816.31 1389.52 816.37 1389.58 816.461 1389.6L818.496 1389.92C818.586 1389.94 818.661 1389.9 818.718 1389.84L820.023 1388.22C820.079 1388.16 820.094 1388.07 820.06 1388L819.331 1386.05C819.296 1385.97 819.236 1385.91 819.146 1385.9L817.111 1385.57C817.02 1385.56 816.945 1385.59 816.889 1385.65L815.583 1387.27C815.549 1387.34 815.535 1387.43 815.546 1387.5Z" fill="white"/>
<path opacity="0.9" d="M900.408 1107.37L900.851 1108.56C900.872 1108.6 900.908 1108.64 900.963 1108.65L902.2 1108.85C902.255 1108.86 902.301 1108.84 902.335 1108.8L903.128 1107.81C903.163 1107.78 903.172 1107.72 903.151 1107.67L902.707 1106.49C902.687 1106.44 902.65 1106.41 902.595 1106.4L901.358 1106.2C901.303 1106.19 901.258 1106.21 901.223 1106.25L900.43 1107.24C900.409 1107.27 900.4 1107.33 900.408 1107.37Z" fill="white"/>
<path opacity="0.9" d="M897.653 1310.38L898.096 1311.56C898.117 1311.61 898.153 1311.64 898.208 1311.65L899.445 1311.85C899.5 1311.86 899.546 1311.84 899.58 1311.8L900.373 1310.82C900.408 1310.78 900.417 1310.72 900.396 1310.68L899.953 1309.49C899.932 1309.45 899.895 1309.41 899.84 1309.41L898.603 1309.21C898.548 1309.2 898.503 1309.22 898.469 1309.26L897.675 1310.24C897.655 1310.28 897.646 1310.33 897.653 1310.38Z" fill="white"/>
<g filter="url(#filter1_f_69_464)">
<path opacity="0.9" d="M314.808 31.3788L316.777 32.0509C316.853 32.0828 316.912 32.1415 316.929 32.2315L317.317 34.256C317.335 34.346 317.302 34.4222 317.242 34.4802L315.662 35.8327C315.602 35.8907 315.511 35.9082 315.434 35.8763L313.466 35.2042C313.389 35.1723 313.331 35.1136 313.313 35.0236L312.925 32.9991C312.908 32.9092 312.941 32.8329 313 32.7749L314.581 31.4225C314.645 31.3869 314.736 31.3694 314.808 31.3788Z" fill="white"/>
<path opacity="0.9" d="M404.619 122.356L406.587 123.028C406.664 123.06 406.722 123.119 406.74 123.209L407.128 125.233C407.145 125.323 407.113 125.399 407.053 125.457L405.472 126.81C405.413 126.868 405.322 126.885 405.245 126.853L403.276 126.181C403.2 126.149 403.141 126.091 403.124 126.001L402.736 123.976C402.719 123.886 402.751 123.81 402.811 123.752L404.391 122.4C404.455 122.364 404.546 122.346 404.619 122.356Z" fill="white"/>
<path opacity="0.9" d="M37.2876 124.409L38.484 124.818C38.5307 124.837 38.5662 124.873 38.5767 124.928L38.8125 126.158C38.823 126.213 38.8032 126.259 38.767 126.294L37.8065 127.116C37.7703 127.152 37.715 127.162 37.6683 127.143L36.4719 126.734C36.4252 126.715 36.3897 126.679 36.3792 126.625L36.1433 125.394C36.1328 125.34 36.1526 125.293 36.1888 125.258L37.1493 124.436C37.1882 124.414 37.2435 124.404 37.2876 124.409Z" fill="white"/>
<path opacity="0.9" d="M240.124 115.709L241.32 116.118C241.367 116.137 241.402 116.173 241.413 116.227L241.648 117.458C241.659 117.513 241.639 117.559 241.603 117.594L240.642 118.416C240.606 118.451 240.551 118.462 240.504 118.443L239.308 118.034C239.261 118.015 239.226 117.979 239.215 117.924L238.979 116.694C238.969 116.639 238.989 116.593 239.025 116.558L239.985 115.736C240.024 115.714 240.079 115.704 240.124 115.709Z" fill="white"/>
<path opacity="0.9" d="M198.748 487.677L198.018 489.625C197.984 489.701 197.924 489.757 197.833 489.772L195.798 490.101C195.708 490.115 195.633 490.08 195.576 490.019L194.271 488.4C194.215 488.338 194.2 488.247 194.234 488.171L194.963 486.223C194.997 486.147 195.058 486.09 195.148 486.076L197.183 485.747C197.274 485.733 197.349 485.767 197.405 485.829L198.711 487.448C198.745 487.513 198.759 487.604 198.748 487.677Z" fill="white"/>
<path opacity="0.9" d="M105.179 574.784L104.449 576.732C104.415 576.808 104.355 576.864 104.264 576.879L102.23 577.207C102.139 577.222 102.064 577.187 102.008 577.126L100.702 575.507C100.646 575.445 100.631 575.354 100.665 575.278L101.394 573.33C101.429 573.254 101.489 573.197 101.58 573.183L103.614 572.854C103.705 572.84 103.78 572.874 103.836 572.936L105.142 574.555C105.176 574.62 105.19 574.711 105.179 574.784Z" fill="white"/>
<path opacity="0.9" d="M113.886 207.55L113.443 208.734C113.422 208.78 113.386 208.815 113.331 208.824L112.094 209.023C112.039 209.032 111.993 209.011 111.959 208.974L111.166 207.99C111.131 207.952 111.122 207.897 111.143 207.851L111.586 206.667C111.607 206.621 111.644 206.586 111.699 206.577L112.936 206.378C112.991 206.369 113.036 206.39 113.071 206.427L113.864 207.411C113.884 207.451 113.893 207.506 113.886 207.55Z" fill="white"/>
<path opacity="0.9" d="M116.641 410.554L116.198 411.738C116.177 411.784 116.141 411.818 116.086 411.827L114.849 412.027C114.794 412.036 114.748 412.015 114.714 411.977L113.92 410.993C113.886 410.956 113.877 410.9 113.898 410.854L114.341 409.67C114.362 409.624 114.399 409.59 114.454 409.581L115.691 409.381C115.746 409.372 115.791 409.394 115.825 409.431L116.619 410.415C116.639 410.454 116.648 410.51 116.641 410.554Z" fill="white"/>
<path opacity="0.9" d="M157.821 1031.5L157.092 1033.45C157.057 1033.52 156.997 1033.58 156.907 1033.6L154.872 1033.92C154.781 1033.94 154.706 1033.9 154.65 1033.84L153.344 1032.22C153.288 1032.16 153.273 1032.07 153.307 1032L154.037 1030.05C154.071 1029.97 154.131 1029.91 154.222 1029.9L156.257 1029.57C156.347 1029.56 156.422 1029.59 156.479 1029.65L157.784 1031.27C157.818 1031.34 157.833 1031.43 157.821 1031.5Z" fill="white"/>
<path opacity="0.9" d="M64.2522 1118.61L63.5227 1120.56C63.4886 1120.63 63.4282 1120.69 63.3377 1120.7L61.3027 1121.03C61.2123 1121.05 61.1371 1121.01 61.0808 1120.95L59.7752 1119.33C59.7189 1119.27 59.7042 1119.18 59.7383 1119.1L60.4677 1117.15C60.5019 1117.08 60.5623 1117.02 60.6527 1117.01L62.6877 1116.68C62.7782 1116.66 62.8534 1116.7 62.9097 1116.76L64.2152 1118.38C64.2489 1118.44 64.2637 1118.54 64.2522 1118.61Z" fill="white"/>
<path opacity="0.9" d="M72.9597 751.374L72.5164 752.558C72.4956 752.604 72.4589 752.639 72.4039 752.648L71.1672 752.848C71.1122 752.856 71.0665 752.835 71.0323 752.798L70.2389 751.814C70.2046 751.777 70.1957 751.721 70.2164 751.675L70.6597 750.491C70.6805 750.445 70.7172 750.41 70.7722 750.402L72.0089 750.202C72.0639 750.193 72.1096 750.214 72.1438 750.251L72.9372 751.235C72.9577 751.275 72.9667 751.331 72.9597 751.374Z" fill="white"/>
<path opacity="0.9" d="M75.7146 954.378L75.2713 955.562C75.2505 955.608 75.2138 955.643 75.1588 955.652L73.9221 955.851C73.8671 955.86 73.8214 955.839 73.7872 955.802L72.9937 954.818C72.9595 954.781 72.9505 954.725 72.9713 954.679L73.4146 953.495C73.4353 953.449 73.4721 953.414 73.527 953.405L74.7638 953.206C74.8187 953.197 74.8645 953.218 74.8987 953.255L75.6921 954.239C75.7126 954.279 75.7216 954.334 75.7146 954.378Z" fill="white"/>
</g>
<path opacity="0.9" d="M314.808 31.3788L316.777 32.0509C316.853 32.0828 316.912 32.1415 316.929 32.2315L317.317 34.256C317.335 34.346 317.302 34.4222 317.242 34.4802L315.662 35.8327C315.602 35.8907 315.511 35.9082 315.434 35.8763L313.466 35.2042C313.389 35.1723 313.331 35.1136 313.313 35.0236L312.925 32.9991C312.908 32.9092 312.941 32.8329 313 32.7749L314.581 31.4225C314.645 31.3869 314.736 31.3694 314.808 31.3788Z" fill="white"/>
<path opacity="0.9" d="M404.619 122.356L406.587 123.028C406.664 123.06 406.722 123.119 406.74 123.209L407.128 125.233C407.145 125.323 407.113 125.399 407.053 125.457L405.472 126.81C405.413 126.868 405.322 126.885 405.245 126.853L403.276 126.181C403.2 126.149 403.141 126.091 403.124 126.001L402.736 123.976C402.719 123.886 402.751 123.81 402.811 123.752L404.391 122.4C404.455 122.364 404.546 122.346 404.619 122.356Z" fill="white"/>
<path opacity="0.9" d="M37.2876 124.409L38.484 124.818C38.5307 124.837 38.5662 124.873 38.5767 124.928L38.8125 126.158C38.823 126.213 38.8032 126.259 38.767 126.294L37.8065 127.116C37.7703 127.152 37.715 127.162 37.6683 127.143L36.4719 126.734C36.4252 126.715 36.3897 126.679 36.3792 126.625L36.1433 125.394C36.1328 125.34 36.1526 125.293 36.1888 125.258L37.1493 124.436C37.1882 124.414 37.2435 124.404 37.2876 124.409Z" fill="white"/>
<path opacity="0.9" d="M240.124 115.709L241.32 116.118C241.367 116.137 241.402 116.173 241.413 116.227L241.648 117.458C241.659 117.513 241.639 117.559 241.603 117.594L240.642 118.416C240.606 118.451 240.551 118.462 240.504 118.443L239.308 118.034C239.261 118.015 239.226 117.979 239.215 117.924L238.979 116.694C238.969 116.639 238.989 116.593 239.025 116.558L239.985 115.736C240.024 115.714 240.079 115.704 240.124 115.709Z" fill="white"/>
<path opacity="0.9" d="M198.748 487.677L198.018 489.625C197.984 489.701 197.924 489.757 197.833 489.772L195.798 490.101C195.708 490.115 195.633 490.08 195.576 490.019L194.271 488.4C194.215 488.338 194.2 488.247 194.234 488.171L194.963 486.223C194.997 486.147 195.058 486.09 195.148 486.076L197.183 485.747C197.274 485.733 197.349 485.767 197.405 485.829L198.711 487.448C198.745 487.513 198.759 487.604 198.748 487.677Z" fill="white"/>
<path opacity="0.9" d="M105.179 574.784L104.449 576.732C104.415 576.808 104.355 576.864 104.264 576.879L102.23 577.207C102.139 577.222 102.064 577.187 102.008 577.126L100.702 575.507C100.646 575.445 100.631 575.354 100.665 575.278L101.394 573.33C101.429 573.254 101.489 573.197 101.58 573.183L103.614 572.854C103.705 572.84 103.78 572.874 103.836 572.936L105.142 574.555C105.176 574.62 105.19 574.711 105.179 574.784Z" fill="white"/>
<path opacity="0.9" d="M113.886 207.55L113.443 208.734C113.422 208.78 113.386 208.815 113.331 208.824L112.094 209.023C112.039 209.032 111.993 209.011 111.959 208.974L111.166 207.99C111.131 207.952 111.122 207.897 111.143 207.851L111.586 206.667C111.607 206.621 111.644 206.586 111.699 206.577L112.936 206.378C112.991 206.369 113.036 206.39 113.071 206.427L113.864 207.411C113.884 207.451 113.893 207.506 113.886 207.55Z" fill="white"/>
<path opacity="0.9" d="M116.641 410.554L116.198 411.738C116.177 411.784 116.141 411.818 116.086 411.827L114.849 412.027C114.794 412.036 114.748 412.015 114.714 411.977L113.92 410.993C113.886 410.956 113.877 410.9 113.898 410.854L114.341 409.67C114.362 409.624 114.399 409.59 114.454 409.581L115.691 409.381C115.746 409.372 115.791 409.394 115.825 409.431L116.619 410.415C116.639 410.454 116.648 410.51 116.641 410.554Z" fill="white"/>
<path opacity="0.9" d="M157.821 1031.5L157.092 1033.45C157.057 1033.52 156.997 1033.58 156.907 1033.6L154.872 1033.92C154.781 1033.94 154.706 1033.9 154.65 1033.84L153.344 1032.22C153.288 1032.16 153.273 1032.07 153.307 1032L154.037 1030.05C154.071 1029.97 154.131 1029.91 154.222 1029.9L156.257 1029.57C156.347 1029.56 156.422 1029.59 156.479 1029.65L157.784 1031.27C157.818 1031.34 157.833 1031.43 157.821 1031.5Z" fill="white"/>
<path opacity="0.9" d="M64.2522 1118.61L63.5227 1120.56C63.4886 1120.63 63.4282 1120.69 63.3377 1120.7L61.3027 1121.03C61.2123 1121.05 61.1371 1121.01 61.0808 1120.95L59.7752 1119.33C59.7189 1119.27 59.7042 1119.18 59.7383 1119.1L60.4677 1117.15C60.5019 1117.08 60.5623 1117.02 60.6527 1117.01L62.6877 1116.68C62.7782 1116.66 62.8534 1116.7 62.9097 1116.76L64.2152 1118.38C64.2489 1118.44 64.2637 1118.54 64.2522 1118.61Z" fill="white"/>
<path opacity="0.9" d="M72.9597 751.374L72.5164 752.558C72.4956 752.604 72.4589 752.639 72.4039 752.648L71.1672 752.848C71.1122 752.856 71.0665 752.835 71.0323 752.798L70.2389 751.814C70.2046 751.777 70.1957 751.721 70.2164 751.675L70.6597 750.491C70.6805 750.445 70.7172 750.41 70.7722 750.402L72.0089 750.202C72.0639 750.193 72.1096 750.214 72.1438 750.251L72.9372 751.235C72.9577 751.275 72.9667 751.331 72.9597 751.374Z" fill="white"/>
<path opacity="0.9" d="M75.7146 954.378L75.2713 955.562C75.2505 955.608 75.2138 955.643 75.1588 955.652L73.9221 955.851C73.8671 955.86 73.8214 955.839 73.7872 955.802L72.9937 954.818C72.9595 954.781 72.9505 954.725 72.9713 954.679L73.4146 953.495C73.4353 953.449 73.4721 953.414 73.527 953.405L74.7638 953.206C74.8187 953.197 74.8645 953.218 74.8987 953.255L75.6921 954.239C75.7126 954.279 75.7216 954.334 75.7146 954.378Z" fill="white"/>
<g filter="url(#filter2_f_69_464)">
<path d="M111 990H-20L-1.0248 1519L88.9994 1519L111 990Z" fill="url(#paint0_radial_69_464)" fill-opacity="0.6"/>
</g>
<g filter="url(#filter3_f_69_464)">
<path d="M169 975H-78L-42.2224 1504L127.518 1504L169 975Z" fill="url(#paint1_radial_69_464)" fill-opacity="0.8"/>
</g>
<g filter="url(#filter4_f_69_464)">
<path d="M956 1050H825L843.975 1579L933.999 1579L956 1050Z" fill="url(#paint2_radial_69_464)" fill-opacity="0.6"/>
</g>
<g filter="url(#filter5_f_69_464)">
<path d="M1014 962H767L802.778 1491L972.518 1491L1014 962Z" fill="url(#paint3_radial_69_464)" fill-opacity="0.8"/>
</g>
<g filter="url(#filter6_f_69_464)">
<path d="M385 1190H254L272.975 1719L362.999 1719L385 1190Z" fill="url(#paint4_radial_69_464)" fill-opacity="0.6"/>
</g>
<g filter="url(#filter7_f_69_464)">
<path d="M443 1102H196L231.778 1631L401.518 1631L443 1102Z" fill="url(#paint5_radial_69_464)" fill-opacity="0.8"/>
</g>
<g filter="url(#filter8_f_69_464)">
<path d="M660 1190H529L547.975 1719L637.999 1719L660 1190Z" fill="url(#paint6_radial_69_464)" fill-opacity="0.6"/>
</g>
<g filter="url(#filter9_f_69_464)">
<path d="M718 1102H471L506.778 1631L676.518 1631L718 1102Z" fill="url(#paint7_radial_69_464)" fill-opacity="0.8"/>
</g>
<path d="M1111.19 1307L791.971 1343.12L637.41 1337.58L281.278 1337.58L214.219 1343.12L159.201 1337.58L68.8638 1337.58C68.8638 1337.58 -125.368 1322.49 -127.946 1325.07C-130.524 1327.63 -189 1315.93 -189 1315.93L-184.708 1480L1117 1466.23L1111.19 1307Z" fill="url(#paint8_linear_69_464)"/>
<path opacity="0.31" d="M-21.4147 1370.77L289.738 1370L322.289 1372.64L459.211 1370.83L401.745 1374.89C401.745 1374.89 533.074 1373.53 534.786 1373.38C536.499 1373.23 567.429 1374.14 569.156 1373.8C570.884 1373.45 608.725 1370.59 610.437 1371.01C612.15 1371.43 753.071 1370.51 753.071 1370.51C753.071 1370.51 846.999 1371.94 849.287 1371.67C851.576 1371.4 1005 1377.4 1005 1377.4L852.758 1373.15C852.758 1373.15 752.799 1372.15 749.192 1372.1C745.6 1372.06 601.799 1374.59 601.799 1374.59L573.93 1375.87C573.93 1375.87 542.212 1375.17 538.211 1375.44C534.195 1375.72 499.809 1377.04 499.809 1377.04L518.677 1379.94C518.677 1379.94 525.542 1380.84 528.406 1381.07C531.27 1381.29 543.288 1381.44 550.744 1381.34C558.2 1381.23 558.2 1380.18 569.081 1380.54C579.962 1380.9 601.739 1380.69 617.196 1381.13C632.654 1381.55 579.386 1381.2 577.082 1381.8C574.779 1382.4 551.865 1383.44 551.865 1383.44L529.527 1383.17C529.527 1383.17 494.596 1377.37 491.762 1377.34C488.928 1377.31 464.318 1375.86 462.59 1376.02C460.862 1376.19 401.851 1377.7 397.85 1377.13C393.849 1376.55 379.301 1378.11 372.799 1379.01C366.298 1379.91 350.25 1381.02 350.25 1381.02C350.25 1381.02 346.628 1384.13 352.72 1384.01C358.812 1383.89 386.333 1381.22 394.349 1381.56C402.366 1381.91 427.568 1382.3 432.72 1382.03C437.873 1381.76 465.954 1381.7 468.818 1381.74C471.683 1381.77 496.869 1382.81 496.869 1382.81L524.314 1386.77C524.314 1386.77 546.682 1385.08 554.684 1385.53C562.701 1385.98 609.104 1385.69 609.104 1385.69L614.256 1386.23C614.256 1386.23 592.434 1386.56 591.903 1386.83C591.373 1387.09 549.516 1387.36 547.804 1387.04C546.091 1386.73 527.163 1388.51 527.163 1388.51L512.266 1388.33L498.567 1384.83L423.673 1383.45L388.045 1383.02L343.9 1386.31L324.957 1389.49L312.272 1396.74L297.406 1400L322.699 1387.18L342.794 1383.06L305.589 1380.5L313.364 1378.3L340.551 1379.98L388.727 1374.95L387.605 1373.59L320.001 1374.52L286.191 1375.81L271.295 1375.63L308.12 1373.02L283.949 1371.2L-70 1373.75L-21.4147 1370.77Z" fill="#0054A5"/>
<path d="M1256.18 1325L937.064 1361.03L782.555 1355.5L426.541 1355.5L359.504 1361.03L304.504 1355.5L214.197 1355.5C214.197 1355.5 20.0293 1340.45 17.4521 1343.02C14.875 1345.58 -281 1361.35 -281 1361.35L-281 1602L1247 1602L1256.18 1325Z" fill="url(#paint9_linear_69_464)"/>
<path opacity="0.58" d="M875.937 1408.5L564.589 1402.92L532.053 1408L395.027 1402.45L452.579 1411.62C452.579 1411.62 321.162 1407.1 319.434 1406.77C317.706 1406.42 286.777 1407.93 285.049 1407.19C283.32 1406.45 245.417 1400.03 243.704 1400.88C241.991 1401.73 100.978 1398 100.978 1398C100.978 1398 7.02423 1399.74 4.71973 1399.17C2.41522 1398.59 -151 1409.07 -151 1409.07L1.29333 1402.23C1.29333 1402.23 101.311 1401.41 104.904 1401.38C108.497 1401.33 252.422 1408.43 252.422 1408.43L280.318 1411.43C280.318 1411.43 312.035 1410.37 316.053 1410.99C320.071 1411.63 354.502 1414.83 354.502 1414.83L335.656 1420.6C335.656 1420.6 328.804 1422.38 325.938 1422.81C323.073 1423.25 311.05 1423.38 303.591 1423.08C296.131 1422.76 296.116 1420.58 285.23 1421.2C274.345 1421.82 252.558 1421.11 237.094 1421.79C221.63 1422.47 274.921 1422.43 277.241 1423.7C279.545 1424.97 302.499 1427.41 302.499 1427.41L324.846 1427.14C324.846 1427.14 359.732 1415.57 362.552 1415.54C365.387 1415.51 389.994 1412.8 391.722 1413.17C393.451 1413.55 452.518 1417.46 456.521 1416.31C460.523 1415.16 475.093 1418.57 481.597 1420.52C488.101 1422.46 504.187 1424.97 504.187 1424.97C504.187 1424.97 507.841 1431.45 501.761 1431.14C495.667 1430.8 468.089 1424.91 460.068 1425.52C452.048 1426.12 426.85 1426.62 421.68 1425.99C416.51 1425.35 388.432 1424.88 385.567 1424.93C382.701 1424.96 357.503 1426.77 357.503 1426.77L330.092 1434.63C330.092 1434.63 307.699 1430.83 299.679 1431.67C291.659 1432.5 245.235 1431.32 245.235 1431.32L240.096 1432.38C240.096 1432.38 261.928 1433.36 262.474 1433.91C263.02 1434.45 304.894 1435.53 306.608 1434.91C308.321 1434.29 327.272 1438.24 327.272 1438.24L342.176 1438.06L355.836 1430.97L430.762 1429.06L466.406 1428.62L510.615 1436.01L529.612 1442.86L542.408 1458.06L557.327 1465L531.856 1438.07L511.692 1429.29L548.882 1424.44L541.089 1419.81L513.921 1422.96L465.648 1411.89L466.754 1409.06L534.403 1411.86L568.258 1414.96L583.161 1414.78L546.29 1408.9L570.441 1405.45L879 1414.02L875.937 1408.5Z" fill="#0557A7"/>
<path d="M159 1383.77L81.4882 1376L75.4651 1379.88L-104 1379.88L88.3609 1383.77L92.6697 1383.77L127.079 1390L159 1383.77Z" fill="url(#paint10_linear_69_464)"/>
<path opacity="0.46" d="M926 1394L1084.06 1382.17L1097.31 1376.19L1309 1368.2L1093.78 1367L1045.57 1380.12L926 1394Z" fill="url(#paint11_linear_69_464)"/>
<path d="M1408.74 1288.89L1407.5 1288.89L976.212 1290.5L942.734 1287.87L885.962 1302.02L626.195 1293.29L560.189 1291.08L514.267 1297.72L630.645 1494.35L633.507 1494.58L666.636 1514.76L656.22 1496.36L692.595 1499.22L731.874 1529.64L728.832 1502.06L781.491 1506.2L783.004 1519.02L896.419 1530.28L896.7 1515.26L1044.98 1526.9L1045.05 1541.95L1096.68 1541.22L1099.07 1531.15L1117.76 1532.61L1117.78 1534.22L1134.47 1533.93L1167.04 1536.49L1165.01 1541.21L1321.25 1553.47L1320.42 1548.52L1327.9 1549.12L1328.54 1554.05L1329.27 1549.22L1352.7 1551.07L1389.65 1378.13L1405.73 1302.91C1407.16 1300.46 1408.01 1297.91 1408.22 1295.3C1408.32 1294.15 1408.25 1292.98 1408.09 1291.83L1408.74 1288.89Z" fill="#ACCDFA"/>
<path d="M1410.69 1265L1409.46 1265.03L978.366 1278.17L944.83 1276.44L888.456 1292.1L628.548 1290.31L562.506 1289.86L516.779 1297.73L638.37 1491.18L641.238 1491.34L674.894 1510.62L663.99 1492.51L700.428 1494.39L740.506 1523.76L736.728 1496.27L789.479 1499L791.334 1511.77L905.009 1520L904.889 1504.97L1053.42 1512.65L1053.9 1527.69L1105.49 1525.58L1107.62 1515.45L1126.33 1516.41L1126.4 1518.02L1143.07 1517.28L1175.7 1518.97L1173.79 1523.74L1330.31 1531.83L1329.35 1526.9L1336.84 1527.29L1337.61 1532.21L1338.21 1527.36L1361.68 1528.58L1394 1354.72L1408.07 1279.1C1409.42 1276.61 1410.21 1274.03 1410.35 1271.42C1410.42 1270.27 1410.31 1269.1 1410.13 1267.95L1410.69 1265Z" fill="url(#paint12_linear_69_464)"/>
<path d="M1312.32 1403.09L1058.23 1398.74L1129.61 1373.18L1060.48 1355.23L1007.5 1359.08L912.34 1370.74L762.947 1355.64L815.612 1337.06L706.728 1338.66L525.345 1304.42L646.937 1497.88L1370.29 1535.24L1402.62 1361.38C1384.21 1366.94 1351.24 1377.18 1347.59 1380.32C1342.5 1384.68 1312.32 1403.09 1312.32 1403.09Z" fill="url(#paint13_linear_69_464)"/>
<path d="M762.983 1355.63L780.807 1454.57L791.299 1459.02L799.936 1518.43L913.611 1526.66L912.358 1370.72L908.58 1349.57L762.983 1355.63Z" fill="url(#paint14_linear_69_464)"/>
<path d="M706.762 1338.64L721.736 1418.85L742.239 1434.55L729.841 1441.21L731.816 1450.09L738.839 1455.81L749.107 1530.43L675.081 1476.19L623.893 1406.85L653.205 1396.31L628.735 1341.43L621.094 1322.47L698.245 1326.45L706.762 1338.64Z" fill="url(#paint15_linear_69_464)"/>
<path d="M584.966 1315.65L635.107 1397.32L616.75 1406.47L683.496 1517.28L645.513 1495.52L525.381 1304.4L584.966 1315.65Z" fill="url(#paint16_linear_69_464)"/>
<mask id="mask0_69_464" style="mask-type:alpha" maskUnits="userSpaceOnUse" x="740" y="1369" width="16" height="62">
<path d="M745.586 1369.9L740.142 1402.27L754.292 1430.03L755.683 1403.07L745.586 1369.9Z" fill="url(#paint17_linear_69_464)"/>
</mask>
<g mask="url(#mask0_69_464)">
<path d="M745.587 1369.9L740.143 1402.27L754.293 1430.03L755.684 1403.07L745.587 1369.9Z" fill="url(#paint18_linear_69_464)"/>
</g>
<path d="M-479.044 1300.89L-477.807 1300.89L-46.5193 1302.5L-13.0417 1299.87L43.7307 1314.02L303.498 1305.29L369.504 1303.08L415.426 1309.72L299.048 1506.35L296.185 1506.58L263.056 1526.76L273.472 1508.36L237.098 1511.22L197.819 1541.64L200.86 1514.06L148.201 1518.2L146.689 1531.02L33.2739 1542.28L32.9925 1527.26L-115.283 1538.9L-115.361 1553.95L-166.983 1553.22L-169.382 1543.15L-188.066 1544.61L-188.092 1546.22L-204.779 1545.93L-237.348 1548.49L-235.316 1553.21L-391.562 1565.47L-390.732 1560.52L-398.206 1561.12L-398.847 1566.05L-399.577 1561.22L-423.01 1563.07L-459.961 1390.13L-476.041 1314.91C-477.463 1312.46 -478.322 1309.91 -478.529 1307.3C-478.628 1306.15 -478.556 1304.98 -478.398 1303.83L-479.044 1300.89Z" fill="#ACCDFA"/>
<path d="M-481 1277L-479.764 1277.03L-48.6732 1290.17L-15.1373 1288.44L41.2368 1304.1L301.145 1302.31L367.186 1301.86L412.914 1309.73L291.322 1503.18L288.455 1503.34L254.799 1522.62L265.703 1504.51L229.265 1506.39L189.186 1535.76L192.964 1508.27L140.213 1511L138.359 1523.77L24.6834 1532L24.8036 1516.97L-123.73 1524.65L-124.211 1539.69L-175.794 1537.58L-177.923 1527.45L-196.64 1528.41L-196.709 1530.02L-213.382 1529.28L-246.008 1530.97L-244.102 1535.74L-400.62 1543.83L-399.659 1538.9L-407.145 1539.29L-407.918 1544.21L-408.519 1539.36L-431.993 1540.58L-464.309 1366.72L-478.373 1291.1C-479.729 1288.61 -480.519 1286.03 -480.657 1283.42C-480.725 1282.27 -480.622 1281.1 -480.433 1279.95L-481 1277Z" fill="url(#paint19_linear_69_464)"/>
<path d="M-382.623 1415.09L-128.536 1410.74L-199.918 1385.18L-130.786 1367.23L-77.8116 1371.08L17.3529 1382.74L166.745 1367.64L114.08 1349.06L222.964 1350.66L404.347 1316.42L282.756 1509.88L-440.594 1547.24L-472.928 1373.38C-454.52 1378.94 -421.551 1389.18 -417.893 1392.32C-412.81 1396.68 -382.623 1415.09 -382.623 1415.09Z" fill="url(#paint20_linear_69_464)"/>
<path d="M166.709 1367.63L148.885 1466.57L138.394 1471.02L129.756 1530.43L16.0811 1538.66L17.3346 1382.72L21.1123 1361.57L166.709 1367.63Z" fill="url(#paint21_linear_69_464)"/>
<path d="M222.93 1350.64L207.956 1430.85L187.454 1446.55L199.851 1453.21L197.877 1462.09L190.854 1467.81L180.585 1542.43L254.611 1488.19L305.8 1418.85L276.488 1408.31L300.957 1353.43L308.599 1334.47L231.447 1338.45L222.93 1350.64Z" fill="url(#paint22_linear_69_464)"/>
<path d="M344.726 1327.65L294.586 1409.32L312.942 1418.47L246.196 1529.28L284.18 1507.52L404.311 1316.4L344.726 1327.65Z" fill="url(#paint23_linear_69_464)"/>
<mask id="mask1_69_464" style="mask-type:alpha" maskUnits="userSpaceOnUse" x="174" y="1381" width="16" height="62">
<path d="M184.107 1381.9L189.55 1414.27L175.401 1442.03L174.01 1415.07L184.107 1381.9Z" fill="url(#paint24_linear_69_464)"/>
</mask>
<g mask="url(#mask1_69_464)">
<path d="M184.106 1381.9L189.549 1414.27L175.4 1442.03L174.009 1415.07L184.106 1381.9Z" fill="url(#paint25_linear_69_464)"/>
</g>
</g>
<defs>
<filter id="filter0_f_69_464" x="559.235" y="380.376" width="384.992" height="1103.66" filterUnits="userSpaceOnUse" color-interpolation-filters="sRGB">
<feFlood flood-opacity="0" result="BackgroundImageFix"/>
<feBlend mode="normal" in="SourceGraphic" in2="BackgroundImageFix" result="shape"/>
<feGaussianBlur stdDeviation="3.5" result="effect1_foregroundBlur_69_464"/>
</filter>
<filter id="filter1_f_69_464" x="29.1404" y="24.3762" width="384.992" height="1103.66" filterUnits="userSpaceOnUse" color-interpolation-filters="sRGB">
<feFlood flood-opacity="0" result="BackgroundImageFix"/>
<feBlend mode="normal" in="SourceGraphic" in2="BackgroundImageFix" result="shape"/>
<feGaussianBlur stdDeviation="3.5" result="effect1_foregroundBlur_69_464"/>
</filter>
<filter id="filter2_f_69_464" x="-70" y="940" width="231" height="629" filterUnits="userSpaceOnUse" color-interpolation-filters="sRGB">
<feFlood flood-opacity="0" result="BackgroundImageFix"/>
<feBlend mode="normal" in="SourceGraphic" in2="BackgroundImageFix" result="shape"/>
<feGaussianBlur stdDeviation="25" result="effect1_foregroundBlur_69_464"/>
</filter>
<filter id="filter3_f_69_464" x="-128" y="925" width="347" height="629" filterUnits="userSpaceOnUse" color-interpolation-filters="sRGB">
<feFlood flood-opacity="0" result="BackgroundImageFix"/>
<feBlend mode="normal" in="SourceGraphic" in2="BackgroundImageFix" result="shape"/>
<feGaussianBlur stdDeviation="25" result="effect1_foregroundBlur_69_464"/>
</filter>
<filter id="filter4_f_69_464" x="775" y="1000" width="231" height="629" filterUnits="userSpaceOnUse" color-interpolation-filters="sRGB">
<feFlood flood-opacity="0" result="BackgroundImageFix"/>
<feBlend mode="normal" in="SourceGraphic" in2="BackgroundImageFix" result="shape"/>
<feGaussianBlur stdDeviation="25" result="effect1_foregroundBlur_69_464"/>
</filter>
<filter id="filter5_f_69_464" x="717" y="912" width="347" height="629" filterUnits="userSpaceOnUse" color-interpolation-filters="sRGB">
<feFlood flood-opacity="0" result="BackgroundImageFix"/>
<feBlend mode="normal" in="SourceGraphic" in2="BackgroundImageFix" result="shape"/>
<feGaussianBlur stdDeviation="25" result="effect1_foregroundBlur_69_464"/>
</filter>
<filter id="filter6_f_69_464" x="204" y="1140" width="231" height="629" filterUnits="userSpaceOnUse" color-interpolation-filters="sRGB">
<feFlood flood-opacity="0" result="BackgroundImageFix"/>
<feBlend mode="normal" in="SourceGraphic" in2="BackgroundImageFix" result="shape"/>
<feGaussianBlur stdDeviation="25" result="effect1_foregroundBlur_69_464"/>
</filter>
<filter id="filter7_f_69_464" x="146" y="1052" width="347" height="629" filterUnits="userSpaceOnUse" color-interpolation-filters="sRGB">
<feFlood flood-opacity="0" result="BackgroundImageFix"/>
<feBlend mode="normal" in="SourceGraphic" in2="BackgroundImageFix" result="shape"/>
<feGaussianBlur stdDeviation="25" result="effect1_foregroundBlur_69_464"/>
</filter>
<filter id="filter8_f_69_464" x="479" y="1140" width="231" height="629" filterUnits="userSpaceOnUse" color-interpolation-filters="sRGB">
<feFlood flood-opacity="0" result="BackgroundImageFix"/>
<feBlend mode="normal" in="SourceGraphic" in2="BackgroundImageFix" result="shape"/>
<feGaussianBlur stdDeviation="25" result="effect1_foregroundBlur_69_464"/>
</filter>
<filter id="filter9_f_69_464" x="421" y="1052" width="347" height="629" filterUnits="userSpaceOnUse" color-interpolation-filters="sRGB">
<feFlood flood-opacity="0" result="BackgroundImageFix"/>
<feBlend mode="normal" in="SourceGraphic" in2="BackgroundImageFix" result="shape"/>
<feGaussianBlur stdDeviation="25" result="effect1_foregroundBlur_69_464"/>
</filter>
<radialGradient id="paint0_radial_69_464" cx="0" cy="0" r="1" gradientUnits="userSpaceOnUse" gradientTransform="translate(39.1514 1677.45) rotate(-89.7258) scale(667.117 145.782)">
<stop stop-color="white"/>
<stop offset="1" stop-color="white" stop-opacity="0"/>
</radialGradient>
<radialGradient id="paint1_radial_69_464" cx="0" cy="0" r="1" gradientUnits="userSpaceOnUse" gradientTransform="translate(33.5298 1662.45) rotate(-89.483) scale(667.137 274.864)">
<stop stop-color="#00FFFF"/>
<stop offset="1" stop-color="#00FFFF" stop-opacity="0"/>
</radialGradient>
<radialGradient id="paint2_radial_69_464" cx="0" cy="0" r="1" gradientUnits="userSpaceOnUse" gradientTransform="translate(884.151 1737.45) rotate(-89.7258) scale(667.117 145.782)">
<stop stop-color="white"/>
<stop offset="1" stop-color="white" stop-opacity="0"/>
</radialGradient>
<radialGradient id="paint3_radial_69_464" cx="0" cy="0" r="1" gradientUnits="userSpaceOnUse" gradientTransform="translate(878.53 1649.45) rotate(-89.483) scale(667.137 274.864)">
<stop stop-color="#00FFFF"/>
<stop offset="1" stop-color="#00FFFF" stop-opacity="0"/>
</radialGradient>
<radialGradient id="paint4_radial_69_464" cx="0" cy="0" r="1" gradientUnits="userSpaceOnUse" gradientTransform="translate(313.151 1877.45) rotate(-89.7258) scale(667.117 145.782)">
<stop stop-color="white"/>
<stop offset="1" stop-color="white" stop-opacity="0"/>
</radialGradient>
<radialGradient id="paint5_radial_69_464" cx="0" cy="0" r="1" gradientUnits="userSpaceOnUse" gradientTransform="translate(307.53 1789.45) rotate(-89.483) scale(667.137 274.864)">
<stop stop-color="#00FFFF"/>
<stop offset="1" stop-color="#00FFFF" stop-opacity="0"/>
</radialGradient>
<radialGradient id="paint6_radial_69_464" cx="0" cy="0" r="1" gradientUnits="userSpaceOnUse" gradientTransform="translate(588.151 1877.45) rotate(-89.7258) scale(667.117 145.782)">
<stop stop-color="white"/>
<stop offset="1" stop-color="white" stop-opacity="0"/>
</radialGradient>
<radialGradient id="paint7_radial_69_464" cx="0" cy="0" r="1" gradientUnits="userSpaceOnUse" gradientTransform="translate(582.53 1789.45) rotate(-89.483) scale(667.137 274.864)">
<stop stop-color="#00FFFF"/>
<stop offset="1" stop-color="#00FFFF" stop-opacity="0"/>
</radialGradient>
<linearGradient id="paint8_linear_69_464" x1="1117.01" y1="1393.5" x2="-188.998" y2="1393.5" gradientUnits="userSpaceOnUse">
<stop stop-color="#0356A6"/>
<stop offset="0.6089" stop-color="#578EC4"/>
<stop offset="0.7911" stop-color="#558DC3"/>
<stop offset="0.8567" stop-color="#4E88C1"/>
<stop offset="0.9034" stop-color="#4380BD"/>
<stop offset="0.9413" stop-color="#3275B7"/>
<stop offset="0.9733" stop-color="#1C67AF"/>
<stop offset="1" stop-color="#0356A6"/>
</linearGradient>
<linearGradient id="paint9_linear_69_464" x1="1262" y1="1425" x2="-281.005" y2="1425" gradientUnits="userSpaceOnUse">
<stop stop-color="#0356A6"/>
<stop offset="0.187" stop-color="#0B5BA9"/>
<stop offset="0.4699" stop-color="#1F69B0"/>
<stop offset="0.8117" stop-color="#417FBC"/>
<stop offset="1" stop-color="#578EC4"/>
</linearGradient>
<linearGradient id="paint10_linear_69_464" x1="-103.998" y1="1383" x2="159.001" y2="1383" gradientUnits="userSpaceOnUse">
<stop stop-color="#0054A5"/>
<stop offset="1" stop-color="#0054A5"/>
</linearGradient>
<linearGradient id="paint11_linear_69_464" x1="938.489" y1="1350.64" x2="936.82" y2="1431.96" gradientUnits="userSpaceOnUse">
<stop stop-color="#001740"/>
<stop offset="1" stop-color="#0056CC"/>
</linearGradient>
<linearGradient id="paint12_linear_69_464" x1="1464" y1="1303.15" x2="347.445" y2="1341.78" gradientUnits="userSpaceOnUse">
<stop offset="0.120358" stop-color="#00286E"/>
<stop offset="0.589339" stop-color="#0054A5"/>
<stop offset="1" stop-color="#AACCFA"/>
</linearGradient>
<linearGradient id="paint13_linear_69_464" x1="950.588" y1="1592.54" x2="964.303" y2="1327.08" gradientUnits="userSpaceOnUse">
<stop stop-color="#0054A5"/>
<stop offset="1" stop-color="#0054A5"/>
</linearGradient>
<linearGradient id="paint14_linear_69_464" x1="838.29" y1="1337.75" x2="838.296" y2="1514.84" gradientUnits="userSpaceOnUse">
<stop stop-color="#0054A5"/>
<stop offset="0.0382" stop-color="#014F9D"/>
<stop offset="0.2229" stop-color="#043A7A"/>
<stop offset="0.4111" stop-color="#06295F"/>
<stop offset="0.6016" stop-color="#081D4C"/>
<stop offset="0.796" stop-color="#091641"/>
<stop offset="1" stop-color="#09143D"/>
</linearGradient>
<linearGradient id="paint15_linear_69_464" x1="649.351" y1="1333.95" x2="769.515" y2="1918.4" gradientUnits="userSpaceOnUse">
<stop stop-color="#0054A5"/>
<stop offset="0.0188" stop-color="#01509E"/>
<stop offset="0.1158" stop-color="#033D80"/>
<stop offset="0.2232" stop-color="#052E68"/>
<stop offset="0.3432" stop-color="#072255"/>
<stop offset="0.4829" stop-color="#081A47"/>
<stop offset="0.6601" stop-color="#09153F"/>
<stop offset="1" stop-color="#09143D"/>
<stop offset="1" stop-color="#09143D"/>
</linearGradient>
<linearGradient id="paint16_linear_69_464" x1="563.074" y1="1319.09" x2="664.295" y2="1506.37" gradientUnits="userSpaceOnUse">
<stop stop-color="#0054A5"/>
<stop offset="0.0375" stop-color="#024993"/>
<stop offset="0.1065" stop-color="#043978"/>
<stop offset="0.1859" stop-color="#062B62"/>
<stop offset="0.2785" stop-color="#072151"/>
<stop offset="0.3931" stop-color="#081946"/>
<stop offset="0.5538" stop-color="#09153F"/>
<stop offset="1" stop-color="#09143D"/>
</linearGradient>
<linearGradient id="paint17_linear_69_464" x1="749.596" y1="1370.1" x2="746.521" y2="1429.62" gradientUnits="userSpaceOnUse">
<stop/>
<stop offset="0.1522" stop-color="#212121"/>
<stop offset="0.4887" stop-color="#757575"/>
<stop offset="0.9822" stop-color="#FAFAFA"/>
<stop offset="1" stop-color="white"/>
</linearGradient>
<linearGradient id="paint18_linear_69_464" x1="749.597" y1="1370.1" x2="746.521" y2="1429.62" gradientUnits="userSpaceOnUse">
<stop stop-color="#3171D3"/>
<stop offset="1" stop-color="#3171D3"/>
</linearGradient>
<linearGradient id="paint19_linear_69_464" x1="-534.309" y1="1315.15" x2="582.248" y2="1353.78" gradientUnits="userSpaceOnUse">
<stop offset="0.120358" stop-color="#00286E"/>
<stop offset="0.589339" stop-color="#0054A5"/>
<stop offset="1" stop-color="#AACCFA"/>
</linearGradient>
<linearGradient id="paint20_linear_69_464" x1="-20.8957" y1="1604.54" x2="-34.611" y2="1339.08" gradientUnits="userSpaceOnUse">
<stop stop-color="#0054A5"/>
<stop offset="1" stop-color="#0054A5"/>
</linearGradient>
<linearGradient id="paint21_linear_69_464" x1="91.4024" y1="1349.75" x2="91.3961" y2="1526.84" gradientUnits="userSpaceOnUse">
<stop stop-color="#0054A5"/>
<stop offset="0.0382" stop-color="#014F9D"/>
<stop offset="0.2229" stop-color="#043A7A"/>
<stop offset="0.4111" stop-color="#06295F"/>
<stop offset="0.6016" stop-color="#081D4C"/>
<stop offset="0.796" stop-color="#091641"/>
<stop offset="1" stop-color="#09143D"/>
</linearGradient>
<linearGradient id="paint22_linear_69_464" x1="280.342" y1="1345.95" x2="160.177" y2="1930.4" gradientUnits="userSpaceOnUse">
<stop stop-color="#0054A5"/>
<stop offset="0.0188" stop-color="#01509E"/>
<stop offset="0.1158" stop-color="#033D80"/>
<stop offset="0.2232" stop-color="#052E68"/>
<stop offset="0.3432" stop-color="#072255"/>
<stop offset="0.4829" stop-color="#081A47"/>
<stop offset="0.6601" stop-color="#09153F"/>
<stop offset="1" stop-color="#09143D"/>
<stop offset="1" stop-color="#09143D"/>
</linearGradient>
<linearGradient id="paint23_linear_69_464" x1="366.618" y1="1331.09" x2="265.398" y2="1518.37" gradientUnits="userSpaceOnUse">
<stop stop-color="#0054A5"/>
<stop offset="0.0375" stop-color="#024993"/>
<stop offset="0.1065" stop-color="#043978"/>
<stop offset="0.1859" stop-color="#062B62"/>
<stop offset="0.2785" stop-color="#072151"/>
<stop offset="0.3931" stop-color="#081946"/>
<stop offset="0.5538" stop-color="#09153F"/>
<stop offset="1" stop-color="#09143D"/>
</linearGradient>
<linearGradient id="paint24_linear_69_464" x1="180.096" y1="1382.1" x2="183.172" y2="1441.62" gradientUnits="userSpaceOnUse">
<stop/>
<stop offset="0.1522" stop-color="#212121"/>
<stop offset="0.4887" stop-color="#757575"/>
<stop offset="0.9822" stop-color="#FAFAFA"/>
<stop offset="1" stop-color="white"/>
</linearGradient>
<linearGradient id="paint25_linear_69_464" x1="180.095" y1="1382.1" x2="183.171" y2="1441.62" gradientUnits="userSpaceOnUse">
<stop stop-color="#3171D3"/>
<stop offset="1" stop-color="#3171D3"/>
</linearGradient>
<clipPath id="clip0_69_464">
<rect width="960" height="1440" fill="white"/>
</clipPath>
</defs>
</svg>
