<svg width="1512" height="982" viewBox="0 0 1512 982" fill="none" xmlns="http://www.w3.org/2000/svg">
<g clip-path="url(#clip0_69_28)">
<g filter="url(#filter0_f_69_28)">
<path opacity="0.4" d="M999.61 -34.1856L999.633 -34.1569L999.654 -34.1277L1042.39 25.7123C1044.05 27.812 1046.23 29.4437 1048.9 30.1586L1118.71 48.816C1121.38 49.5308 1123.23 48.9749 1124.35 47.6178L1151.34 6.49031C1151.73 4.93807 1151.37 2.63192 1150.44 0.726056L1107.77 -59.0202C1106.12 -61.12 1103.93 -62.7518 1101.26 -63.4666L1031.45 -82.124C1028.78 -82.8389 1026.94 -82.2829 1025.82 -80.9258L998.782 -39.7339L998.769 -39.7138L998.754 -39.6952C997.694 -38.3973 998.037 -36.1873 999.61 -34.1856Z" stroke="url(#paint0_linear_69_28)" stroke-width="2"/>
<path d="M1116.74 -60.5821L1116.76 -60.5533L1116.79 -60.5241L1159.49 -0.900152C1161.14 1.19077 1163.32 2.81867 1166 3.53407L1235.81 22.1915C1238.48 22.9069 1240.33 22.3547 1241.45 21.006L1268.47 -19.9055C1268.87 -21.4489 1268.51 -23.7429 1267.58 -25.6395L1224.95 -85.1696C1223.29 -87.2605 1221.11 -88.8884 1218.43 -89.6038L1148.63 -108.261C1145.95 -108.977 1144.11 -108.424 1142.99 -107.076L1115.92 -66.0998L1115.91 -66.0797L1115.89 -66.0611C1114.83 -64.7718 1115.17 -62.5743 1116.74 -60.5821Z" stroke="url(#paint1_linear_69_28)" stroke-width="2"/>
<path d="M1135.68 61.2575L1135.7 61.2863L1135.72 61.3155L1178.42 120.939C1180.08 123.03 1182.26 124.658 1184.93 125.374L1254.74 144.031C1257.42 144.746 1259.26 144.194 1260.38 142.846L1287.41 101.934C1287.8 100.391 1287.44 98.0967 1286.51 96.2001L1243.88 36.67C1242.22 34.5791 1240.04 32.9512 1237.37 32.2358L1167.56 13.5784C1164.89 12.863 1163.04 13.4152 1161.92 14.7639L1134.85 55.7398L1134.84 55.7599L1134.82 55.7785C1133.76 57.0678 1134.11 59.2653 1135.68 61.2575Z" stroke="url(#paint2_linear_69_28)" stroke-width="2"/>
<path d="M1250.23 32.8007L1250.25 32.8294L1250.28 32.8586L1293.01 92.6986C1294.67 94.7983 1296.85 96.4301 1299.53 97.1449L1369.33 115.802C1372 116.517 1373.85 115.961 1374.97 114.604L1401.96 73.4766C1402.35 71.9244 1401.99 69.6183 1401.06 67.7124L1358.4 7.96608C1356.74 5.8663 1354.56 4.23456 1351.88 3.5197L1282.08 -15.1377C1279.4 -15.8526 1277.56 -15.2966 1276.44 -13.9395L1249.4 27.2524L1249.39 27.2725L1249.38 27.2911C1248.32 28.589 1248.66 30.7991 1250.23 32.8007Z" stroke="url(#paint3_linear_69_28)" stroke-width="2"/>
<path opacity="0.5" d="M1231.64 -86.8609L1231.66 -86.8321L1231.68 -86.8029L1274.38 -27.179C1276.04 -25.088 1278.22 -23.4601 1280.89 -22.7447L1350.7 -4.08735C1353.38 -3.37195 1355.22 -3.92408 1356.34 -5.27282L1383.37 -46.1843C1383.76 -47.7277 1383.4 -50.0217 1382.47 -51.9183L1339.84 -111.448C1338.18 -113.539 1336 -115.167 1333.33 -115.883L1263.52 -134.54C1260.85 -135.255 1259 -134.703 1257.88 -133.354L1230.81 -92.3786L1230.8 -92.3585L1230.78 -92.3399C1229.72 -91.0506 1230.07 -88.8531 1231.64 -86.8609Z" stroke="url(#paint4_linear_69_28)" stroke-width="2"/>
<path opacity="0.4" d="M1665.26 413.214L1665.27 413.193L1665.28 413.174L1693.51 372.791C1694.35 371.247 1694.19 369.329 1692.53 367.108L1649.35 309.15C1647.7 306.929 1645.37 305.505 1642.81 304.742L1571.53 287.223C1569.42 287.064 1567.15 287.586 1565.85 288.526L1537.67 328.845C1536.82 330.389 1536.99 332.307 1538.64 334.528L1581.83 392.487C1583.48 394.707 1585.8 396.131 1588.37 396.894L1659.76 414.441L1659.79 414.449L1659.82 414.46C1662.27 415.18 1664.44 414.68 1665.26 413.214Z" stroke="url(#paint5_linear_69_28)" stroke-width="2"/>
<path d="M1527.65 321.801L1527.66 321.779L1527.68 321.76L1555.69 281.426C1556.53 279.884 1556.36 277.967 1554.7 275.745L1511.52 217.786C1509.86 215.564 1507.54 214.139 1504.99 213.375L1433.93 195.807C1431.82 195.648 1429.56 196.166 1428.27 197.103L1400.3 237.374C1399.47 238.915 1399.64 240.832 1401.29 243.055L1444.47 301.013C1446.13 303.236 1448.45 304.66 1451 305.424L1522.18 323.02L1522.21 323.029L1522.25 323.039C1524.68 323.76 1526.85 323.263 1527.65 321.801Z" stroke="url(#paint6_linear_69_28)" stroke-width="2"/>
<path d="M1549.53 439.746L1549.54 439.725L1549.55 439.705L1577.57 399.371C1578.4 397.83 1578.23 395.913 1576.58 393.69L1533.39 335.732C1531.74 333.509 1529.42 332.085 1526.86 331.321L1455.8 313.753C1453.7 313.593 1451.44 314.111 1450.15 315.049L1422.18 355.319C1421.34 356.86 1421.51 358.778 1423.17 361L1466.35 418.959C1468.01 421.181 1470.33 422.605 1472.88 423.37L1544.06 440.965L1544.09 440.974L1544.13 440.984C1546.56 441.705 1548.72 441.209 1549.53 439.746Z" stroke="url(#paint7_linear_69_28)" stroke-width="2"/>
<path d="M1647.78 294.262L1647.79 294.241L1647.81 294.221L1675.82 253.887C1676.66 252.346 1676.49 250.428 1674.83 248.206L1631.65 190.247C1629.99 188.025 1627.67 186.601 1625.12 185.837L1554.05 168.269C1551.95 168.109 1549.69 168.627 1548.4 169.565L1520.43 209.835C1519.6 211.376 1519.77 213.294 1521.42 215.516L1564.6 273.474C1566.26 275.697 1568.58 277.121 1571.13 277.885L1642.31 295.481L1642.34 295.49L1642.38 295.5C1644.81 296.221 1646.98 295.724 1647.78 294.262Z" stroke="url(#paint8_linear_69_28)" stroke-width="2"/>
<path d="M1510.22 205.124L1510.23 205.103L1510.24 205.083L1538.47 164.7C1539.31 163.156 1539.15 161.238 1537.49 159.017L1494.31 101.059C1492.66 98.838 1490.33 97.4144 1487.77 96.6515L1416.49 79.132C1414.38 78.9736 1412.11 79.4948 1410.81 80.4349L1382.63 120.754C1381.78 122.299 1381.95 124.217 1383.6 126.437L1426.79 184.396C1428.44 186.617 1430.76 188.04 1433.33 188.803L1504.72 206.35L1504.75 206.359L1504.79 206.369C1507.23 207.089 1509.41 206.59 1510.22 205.124Z" stroke="url(#paint9_linear_69_28)" stroke-width="2"/>
<path opacity="0.5" d="M1392.24 232.171L1392.25 232.15L1392.26 232.131L1420.27 191.797C1421.11 190.255 1420.94 188.338 1419.29 186.116L1376.1 128.157C1374.45 125.935 1372.13 124.51 1369.57 123.746L1298.51 106.178C1296.41 106.018 1294.14 106.537 1292.86 107.474L1264.89 147.745C1264.05 149.286 1264.22 151.203 1265.88 153.426L1309.06 211.384C1310.72 213.607 1313.04 215.031 1315.59 215.795L1386.76 233.391L1386.8 233.399L1386.83 233.41C1389.27 234.131 1391.43 233.634 1392.24 232.171Z" stroke="url(#paint10_linear_69_28)" stroke-width="2"/>
<path opacity="0.2" d="M1408.96 349.009L1408.98 348.987L1408.99 348.968L1437 308.634C1437.84 307.092 1437.67 305.175 1436.01 302.953L1392.83 244.994C1391.17 242.772 1388.86 241.347 1386.3 240.583L1315.24 223.015C1313.13 222.856 1310.87 223.374 1309.58 224.311L1281.62 264.582C1280.78 266.123 1280.95 268.04 1282.6 270.263L1325.79 328.221C1327.44 330.444 1329.76 331.868 1332.32 332.632L1403.49 350.228L1403.53 350.237L1403.56 350.247C1405.99 350.968 1408.16 350.471 1408.96 349.009Z" stroke="url(#paint11_linear_69_28)" stroke-width="2"/>
<path opacity="0.4" d="M1367.18 8.01702L1367.2 8.04572L1367.22 8.07489L1409.96 67.9149C1411.62 70.0146 1413.8 71.6464 1416.47 72.3612L1486.28 91.0186C1488.95 91.7335 1490.79 91.1775 1491.91 89.8204L1518.91 48.693C1519.3 47.1407 1518.94 44.8346 1518.01 42.9287L1475.34 -16.8176C1473.68 -18.9174 1471.5 -20.5491 1468.83 -21.264L1399.02 -39.9214C1396.35 -40.6362 1394.51 -40.0803 1393.39 -38.7232L1366.35 2.46871L1366.34 2.48879L1366.32 2.5074C1365.26 3.8053 1365.61 6.01536 1367.18 8.01702Z" stroke="url(#paint12_linear_69_28)" stroke-width="2"/>
<path d="M1484.31 -18.3794L1484.33 -18.3507L1484.35 -18.3215L1527.06 41.3025C1528.71 43.3934 1530.89 45.0213 1533.57 45.7367L1603.37 64.3941C1606.05 65.1095 1607.89 64.5574 1609.01 63.2086L1636.04 22.2972C1636.43 20.7538 1636.08 18.4597 1635.15 16.5631L1592.52 -42.967C1590.86 -45.0579 1588.68 -46.6858 1586 -47.4012L1516.2 -66.0585C1513.52 -66.7739 1511.68 -66.2218 1510.56 -64.873L1483.49 -23.8971L1483.47 -23.8771L1483.46 -23.8585C1482.4 -22.5691 1482.74 -20.3717 1484.31 -18.3794Z" stroke="url(#paint13_linear_69_28)" stroke-width="2"/>
<path d="M1503.24 103.46L1503.27 103.489L1503.29 103.518L1545.99 163.142C1547.64 165.233 1549.83 166.861 1552.5 167.576L1622.31 186.234C1624.98 186.949 1626.83 186.397 1627.95 185.048L1654.97 144.137C1655.37 142.593 1655.01 140.299 1654.08 138.403L1611.45 78.8726C1609.79 76.7817 1607.61 75.1538 1604.93 74.4384L1535.13 55.7811C1532.45 55.0657 1530.61 55.6178 1529.49 56.9666L1502.42 97.9425L1502.41 97.9625L1502.39 97.9811C1501.33 99.2705 1501.67 101.468 1503.24 103.46Z" stroke="url(#paint14_linear_69_28)" stroke-width="2"/>
</g>
<path opacity="0.4" d="M999.61 -34.1856L999.633 -34.1569L999.654 -34.1277L1042.39 25.7123C1044.05 27.812 1046.23 29.4437 1048.9 30.1586L1118.71 48.816C1121.38 49.5308 1123.23 48.9749 1124.35 47.6178L1151.34 6.49031C1151.73 4.93807 1151.37 2.63192 1150.44 0.726056L1107.77 -59.0202C1106.12 -61.12 1103.93 -62.7518 1101.26 -63.4666L1031.45 -82.124C1028.78 -82.8389 1026.94 -82.2829 1025.82 -80.9258L998.782 -39.7339L998.769 -39.7138L998.754 -39.6952C997.694 -38.3973 998.037 -36.1873 999.61 -34.1856Z" stroke="url(#paint15_linear_69_28)" stroke-width="2"/>
<path d="M1116.74 -60.5821L1116.76 -60.5533L1116.79 -60.5241L1159.49 -0.900152C1161.14 1.19077 1163.32 2.81867 1166 3.53407L1235.81 22.1915C1238.48 22.9069 1240.33 22.3547 1241.45 21.006L1268.47 -19.9055C1268.87 -21.4489 1268.51 -23.7429 1267.58 -25.6395L1224.95 -85.1696C1223.29 -87.2605 1221.11 -88.8884 1218.43 -89.6038L1148.63 -108.261C1145.95 -108.977 1144.11 -108.424 1142.99 -107.076L1115.92 -66.0998L1115.91 -66.0797L1115.89 -66.0611C1114.83 -64.7718 1115.17 -62.5743 1116.74 -60.5821Z" stroke="url(#paint16_linear_69_28)" stroke-width="2"/>
<path d="M1135.68 61.2575L1135.7 61.2863L1135.72 61.3155L1178.42 120.939C1180.08 123.03 1182.26 124.658 1184.93 125.374L1254.74 144.031C1257.42 144.746 1259.26 144.194 1260.38 142.846L1287.41 101.934C1287.8 100.391 1287.44 98.0967 1286.51 96.2001L1243.88 36.67C1242.22 34.5791 1240.04 32.9512 1237.37 32.2358L1167.56 13.5784C1164.89 12.863 1163.04 13.4152 1161.92 14.7639L1134.85 55.7398L1134.84 55.7599L1134.82 55.7785C1133.76 57.0678 1134.11 59.2653 1135.68 61.2575Z" stroke="url(#paint17_linear_69_28)" stroke-width="2"/>
<path d="M1250.23 32.8007L1250.25 32.8294L1250.28 32.8586L1293.01 92.6986C1294.67 94.7983 1296.85 96.4301 1299.53 97.1449L1369.33 115.802C1372 116.517 1373.85 115.961 1374.97 114.604L1401.96 73.4766C1402.35 71.9244 1401.99 69.6183 1401.06 67.7124L1358.4 7.96608C1356.74 5.8663 1354.56 4.23456 1351.88 3.5197L1282.08 -15.1377C1279.4 -15.8526 1277.56 -15.2966 1276.44 -13.9395L1249.4 27.2524L1249.39 27.2725L1249.38 27.2911C1248.32 28.589 1248.66 30.7991 1250.23 32.8007Z" stroke="url(#paint18_linear_69_28)" stroke-width="2"/>
<path opacity="0.5" d="M1231.64 -86.8609L1231.66 -86.8321L1231.68 -86.8029L1274.38 -27.179C1276.04 -25.088 1278.22 -23.4601 1280.89 -22.7447L1350.7 -4.08735C1353.38 -3.37195 1355.22 -3.92408 1356.34 -5.27282L1383.37 -46.1843C1383.76 -47.7277 1383.4 -50.0217 1382.47 -51.9183L1339.84 -111.448C1338.18 -113.539 1336 -115.167 1333.33 -115.883L1263.52 -134.54C1260.85 -135.255 1259 -134.703 1257.88 -133.354L1230.81 -92.3786L1230.8 -92.3585L1230.78 -92.3399C1229.72 -91.0506 1230.07 -88.8531 1231.64 -86.8609Z" stroke="url(#paint19_linear_69_28)" stroke-width="2"/>
<path opacity="0.4" d="M1665.26 413.214L1665.27 413.193L1665.28 413.174L1693.51 372.791C1694.35 371.247 1694.19 369.329 1692.53 367.108L1649.35 309.15C1647.7 306.929 1645.37 305.505 1642.81 304.742L1571.53 287.223C1569.42 287.064 1567.15 287.586 1565.85 288.526L1537.67 328.845C1536.82 330.389 1536.99 332.307 1538.64 334.528L1581.83 392.487C1583.48 394.707 1585.8 396.131 1588.37 396.894L1659.76 414.441L1659.79 414.449L1659.82 414.46C1662.27 415.18 1664.44 414.68 1665.26 413.214Z" stroke="url(#paint20_linear_69_28)" stroke-width="2"/>
<path d="M1527.65 321.801L1527.66 321.779L1527.68 321.76L1555.69 281.426C1556.53 279.884 1556.36 277.967 1554.7 275.745L1511.52 217.786C1509.86 215.564 1507.54 214.139 1504.99 213.375L1433.93 195.807C1431.82 195.648 1429.56 196.166 1428.27 197.103L1400.3 237.374C1399.47 238.915 1399.64 240.832 1401.29 243.055L1444.47 301.013C1446.13 303.236 1448.45 304.66 1451 305.424L1522.18 323.02L1522.21 323.029L1522.25 323.039C1524.68 323.76 1526.85 323.263 1527.65 321.801Z" stroke="url(#paint21_linear_69_28)" stroke-width="2"/>
<path d="M1549.53 439.746L1549.54 439.725L1549.55 439.705L1577.57 399.371C1578.4 397.83 1578.23 395.913 1576.58 393.69L1533.39 335.732C1531.74 333.509 1529.42 332.085 1526.86 331.321L1455.8 313.753C1453.7 313.593 1451.44 314.111 1450.15 315.049L1422.18 355.319C1421.34 356.86 1421.51 358.778 1423.17 361L1466.35 418.959C1468.01 421.181 1470.33 422.605 1472.88 423.37L1544.06 440.965L1544.09 440.974L1544.13 440.984C1546.56 441.705 1548.72 441.209 1549.53 439.746Z" stroke="url(#paint22_linear_69_28)" stroke-width="2"/>
<path d="M1647.78 294.262L1647.79 294.241L1647.81 294.221L1675.82 253.887C1676.66 252.346 1676.49 250.428 1674.83 248.206L1631.65 190.247C1629.99 188.025 1627.67 186.601 1625.12 185.837L1554.05 168.269C1551.95 168.109 1549.69 168.627 1548.4 169.565L1520.43 209.835C1519.6 211.376 1519.77 213.294 1521.42 215.516L1564.6 273.474C1566.26 275.697 1568.58 277.121 1571.13 277.885L1642.31 295.481L1642.34 295.49L1642.38 295.5C1644.81 296.221 1646.98 295.724 1647.78 294.262Z" stroke="url(#paint23_linear_69_28)" stroke-width="2"/>
<path d="M1510.22 205.124L1510.23 205.103L1510.24 205.083L1538.47 164.7C1539.31 163.156 1539.15 161.238 1537.49 159.017L1494.31 101.059C1492.66 98.838 1490.33 97.4144 1487.77 96.6515L1416.49 79.132C1414.38 78.9736 1412.11 79.4948 1410.81 80.4349L1382.63 120.754C1381.78 122.299 1381.95 124.217 1383.6 126.437L1426.79 184.396C1428.44 186.617 1430.76 188.04 1433.33 188.803L1504.72 206.35L1504.75 206.359L1504.79 206.369C1507.23 207.089 1509.41 206.59 1510.22 205.124Z" stroke="url(#paint24_linear_69_28)" stroke-width="2"/>
<path opacity="0.5" d="M1392.24 232.171L1392.25 232.15L1392.26 232.131L1420.27 191.797C1421.11 190.255 1420.94 188.338 1419.29 186.116L1376.1 128.157C1374.45 125.935 1372.13 124.51 1369.57 123.746L1298.51 106.178C1296.41 106.018 1294.14 106.537 1292.86 107.474L1264.89 147.745C1264.05 149.286 1264.22 151.203 1265.88 153.426L1309.06 211.384C1310.72 213.607 1313.04 215.031 1315.59 215.795L1386.76 233.391L1386.8 233.399L1386.83 233.41C1389.27 234.131 1391.43 233.634 1392.24 232.171Z" stroke="url(#paint25_linear_69_28)" stroke-width="2"/>
<path opacity="0.2" d="M1408.96 349.009L1408.98 348.987L1408.99 348.968L1437 308.634C1437.84 307.092 1437.67 305.175 1436.01 302.953L1392.83 244.994C1391.17 242.772 1388.86 241.347 1386.3 240.583L1315.24 223.015C1313.13 222.856 1310.87 223.374 1309.58 224.311L1281.62 264.582C1280.78 266.123 1280.95 268.04 1282.6 270.263L1325.79 328.221C1327.44 330.444 1329.76 331.868 1332.32 332.632L1403.49 350.228L1403.53 350.237L1403.56 350.247C1405.99 350.968 1408.16 350.471 1408.96 349.009Z" stroke="url(#paint26_linear_69_28)" stroke-width="2"/>
<path opacity="0.4" d="M1367.18 8.01702L1367.2 8.04572L1367.22 8.07489L1409.96 67.9149C1411.62 70.0146 1413.8 71.6464 1416.47 72.3612L1486.28 91.0186C1488.95 91.7335 1490.79 91.1775 1491.91 89.8204L1518.91 48.693C1519.3 47.1407 1518.94 44.8346 1518.01 42.9287L1475.34 -16.8176C1473.68 -18.9174 1471.5 -20.5491 1468.83 -21.264L1399.02 -39.9214C1396.35 -40.6362 1394.51 -40.0803 1393.39 -38.7232L1366.35 2.46871L1366.34 2.48879L1366.32 2.5074C1365.26 3.8053 1365.61 6.01536 1367.18 8.01702Z" stroke="url(#paint27_linear_69_28)" stroke-width="2"/>
<path d="M1484.31 -18.3794L1484.33 -18.3507L1484.35 -18.3215L1527.06 41.3025C1528.71 43.3934 1530.89 45.0213 1533.57 45.7367L1603.37 64.3941C1606.05 65.1095 1607.89 64.5574 1609.01 63.2086L1636.04 22.2972C1636.43 20.7538 1636.08 18.4597 1635.15 16.5631L1592.52 -42.967C1590.86 -45.0579 1588.68 -46.6858 1586 -47.4012L1516.2 -66.0585C1513.52 -66.7739 1511.68 -66.2218 1510.56 -64.873L1483.49 -23.8971L1483.47 -23.8771L1483.46 -23.8585C1482.4 -22.5691 1482.74 -20.3717 1484.31 -18.3794Z" stroke="url(#paint28_linear_69_28)" stroke-width="2"/>
<path d="M1503.24 103.46L1503.27 103.489L1503.29 103.518L1545.99 163.142C1547.64 165.233 1549.83 166.861 1552.5 167.576L1622.31 186.234C1624.98 186.949 1626.83 186.397 1627.95 185.048L1654.97 144.137C1655.37 142.593 1655.01 140.299 1654.08 138.403L1611.45 78.8726C1609.79 76.7817 1607.61 75.1538 1604.93 74.4384L1535.13 55.7811C1532.45 55.0657 1530.61 55.6178 1529.49 56.9666L1502.42 97.9425L1502.41 97.9625L1502.39 97.9811C1501.33 99.2705 1501.67 101.468 1503.24 103.46Z" stroke="url(#paint29_linear_69_28)" stroke-width="2"/>
</g>
<defs>
<filter id="filter0_f_69_28" x="583.022" y="-575.712" width="1221.02" height="1059.9" filterUnits="userSpaceOnUse" color-interpolation-filters="sRGB">
<feFlood flood-opacity="0" result="BackgroundImageFix"/>
<feBlend mode="normal" in="SourceGraphic" in2="BackgroundImageFix" result="shape"/>
<feGaussianBlur stdDeviation="7.5" result="effect1_foregroundBlur_69_28"/>
</filter>
<linearGradient id="paint0_linear_69_28" x1="1005.44" y1="38.5127" x2="1159.85" y2="9.72037" gradientUnits="userSpaceOnUse">
<stop stop-color="#00A3FF"/>
<stop offset="1" stop-color="#18E6FE"/>
</linearGradient>
<linearGradient id="paint1_linear_69_28" x1="1122.52" y1="11.8029" x2="1276.93" y2="-17.0074" gradientUnits="userSpaceOnUse">
<stop stop-color="#00A3FF"/>
<stop offset="1" stop-color="#18E6FE"/>
</linearGradient>
<linearGradient id="paint2_linear_69_28" x1="1141.46" y1="133.642" x2="1295.86" y2="104.832" gradientUnits="userSpaceOnUse">
<stop stop-color="#00A3FF"/>
<stop offset="1" stop-color="#18E6FE"/>
</linearGradient>
<linearGradient id="paint3_linear_69_28" x1="1256.06" y1="105.499" x2="1410.48" y2="76.7067" gradientUnits="userSpaceOnUse">
<stop stop-color="#00A3FF"/>
<stop offset="1" stop-color="#18E6FE"/>
</linearGradient>
<linearGradient id="paint4_linear_69_28" x1="1237.42" y1="-14.4759" x2="1391.82" y2="-43.2862" gradientUnits="userSpaceOnUse">
<stop stop-color="#00A3FF"/>
<stop offset="1" stop-color="#18E6FE"/>
</linearGradient>
<linearGradient id="paint5_linear_69_28" x1="1741.97" y1="401.176" x2="1701.03" y2="245.01" gradientUnits="userSpaceOnUse">
<stop stop-color="#00A3FF"/>
<stop offset="1" stop-color="#18E6FE"/>
</linearGradient>
<linearGradient id="paint6_linear_69_28" x1="1604.05" y1="309.832" x2="1563.09" y2="153.663" gradientUnits="userSpaceOnUse">
<stop stop-color="#00A3FF"/>
<stop offset="1" stop-color="#18E6FE"/>
</linearGradient>
<linearGradient id="paint7_linear_69_28" x1="1625.93" y1="427.777" x2="1584.97" y2="271.608" gradientUnits="userSpaceOnUse">
<stop stop-color="#00A3FF"/>
<stop offset="1" stop-color="#18E6FE"/>
</linearGradient>
<linearGradient id="paint8_linear_69_28" x1="1724.18" y1="282.293" x2="1683.22" y2="126.124" gradientUnits="userSpaceOnUse">
<stop stop-color="#00A3FF"/>
<stop offset="1" stop-color="#18E6FE"/>
</linearGradient>
<linearGradient id="paint9_linear_69_28" x1="1586.93" y1="193.085" x2="1545.99" y2="36.9189" gradientUnits="userSpaceOnUse">
<stop stop-color="#00A3FF"/>
<stop offset="1" stop-color="#18E6FE"/>
</linearGradient>
<linearGradient id="paint10_linear_69_28" x1="1468.64" y1="220.202" x2="1427.68" y2="64.0336" gradientUnits="userSpaceOnUse">
<stop stop-color="#00A3FF"/>
<stop offset="1" stop-color="#18E6FE"/>
</linearGradient>
<linearGradient id="paint11_linear_69_28" x1="1485.36" y1="337.04" x2="1444.4" y2="180.871" gradientUnits="userSpaceOnUse">
<stop stop-color="#00A3FF"/>
<stop offset="1" stop-color="#18E6FE"/>
</linearGradient>
<linearGradient id="paint12_linear_69_28" x1="1373.01" y1="80.7153" x2="1527.42" y2="51.923" gradientUnits="userSpaceOnUse">
<stop stop-color="#00A3FF"/>
<stop offset="1" stop-color="#18E6FE"/>
</linearGradient>
<linearGradient id="paint13_linear_69_28" x1="1490.09" y1="54.0055" x2="1644.49" y2="25.1952" gradientUnits="userSpaceOnUse">
<stop stop-color="#00A3FF"/>
<stop offset="1" stop-color="#18E6FE"/>
</linearGradient>
<linearGradient id="paint14_linear_69_28" x1="1509.03" y1="175.845" x2="1663.43" y2="147.035" gradientUnits="userSpaceOnUse">
<stop stop-color="#00A3FF"/>
<stop offset="1" stop-color="#18E6FE"/>
</linearGradient>
<linearGradient id="paint15_linear_69_28" x1="1045.27" y1="20.6815" x2="1226.73" y2="-123.467" gradientUnits="userSpaceOnUse">
<stop stop-color="#37C8EE"/>
<stop offset="0.76891" stop-color="#91E8FF"/>
</linearGradient>
<linearGradient id="paint16_linear_69_28" x1="1162.37" y1="-5.90136" x2="1343.29" y2="-150.031" gradientUnits="userSpaceOnUse">
<stop stop-color="#37C8EE"/>
<stop offset="0.76891" stop-color="#91E8FF"/>
</linearGradient>
<linearGradient id="paint17_linear_69_28" x1="1181.31" y1="115.938" x2="1362.23" y2="-28.1914" gradientUnits="userSpaceOnUse">
<stop stop-color="#37C8EE"/>
<stop offset="0.76891" stop-color="#91E8FF"/>
</linearGradient>
<linearGradient id="paint18_linear_69_28" x1="1295.89" y1="87.6678" x2="1477.35" y2="-56.4803" gradientUnits="userSpaceOnUse">
<stop stop-color="#37C8EE"/>
<stop offset="0.76891" stop-color="#91E8FF"/>
</linearGradient>
<linearGradient id="paint19_linear_69_28" x1="1277.27" y1="-32.1802" x2="1458.19" y2="-176.31" gradientUnits="userSpaceOnUse">
<stop stop-color="#37C8EE"/>
<stop offset="0.76891" stop-color="#91E8FF"/>
</linearGradient>
<linearGradient id="paint20_linear_69_28" x1="1685.18" y1="370.987" x2="1374.74" y2="203.926" gradientUnits="userSpaceOnUse">
<stop stop-color="#37C8EE"/>
<stop offset="0.76891" stop-color="#91E8FF"/>
</linearGradient>
<linearGradient id="paint21_linear_69_28" x1="1547.39" y1="279.615" x2="1236.89" y2="113.793" gradientUnits="userSpaceOnUse">
<stop stop-color="#37C8EE"/>
<stop offset="0.76891" stop-color="#91E8FF"/>
</linearGradient>
<linearGradient id="paint22_linear_69_28" x1="1569.26" y1="397.56" x2="1258.76" y2="231.739" gradientUnits="userSpaceOnUse">
<stop stop-color="#37C8EE"/>
<stop offset="0.76891" stop-color="#91E8FF"/>
</linearGradient>
<linearGradient id="paint23_linear_69_28" x1="1667.52" y1="252.076" x2="1357.02" y2="86.2545" gradientUnits="userSpaceOnUse">
<stop stop-color="#37C8EE"/>
<stop offset="0.76891" stop-color="#91E8FF"/>
</linearGradient>
<linearGradient id="paint24_linear_69_28" x1="1530.14" y1="162.896" x2="1219.7" y2="-4.16513" gradientUnits="userSpaceOnUse">
<stop stop-color="#37C8EE"/>
<stop offset="0.76891" stop-color="#91E8FF"/>
</linearGradient>
<linearGradient id="paint25_linear_69_28" x1="1411.97" y1="189.985" x2="1101.47" y2="24.1642" gradientUnits="userSpaceOnUse">
<stop stop-color="#37C8EE"/>
<stop offset="0.76891" stop-color="#91E8FF"/>
</linearGradient>
<linearGradient id="paint26_linear_69_28" x1="1428.7" y1="306.823" x2="1118.2" y2="141.001" gradientUnits="userSpaceOnUse">
<stop stop-color="#37C8EE"/>
<stop offset="0.76891" stop-color="#91E8FF"/>
</linearGradient>
<linearGradient id="paint27_linear_69_28" x1="1412.84" y1="62.8841" x2="1594.29" y2="-81.264" gradientUnits="userSpaceOnUse">
<stop stop-color="#37C8EE"/>
<stop offset="0.76891" stop-color="#91E8FF"/>
</linearGradient>
<linearGradient id="paint28_linear_69_28" x1="1529.94" y1="36.3013" x2="1710.86" y2="-107.828" gradientUnits="userSpaceOnUse">
<stop stop-color="#37C8EE"/>
<stop offset="0.76891" stop-color="#91E8FF"/>
</linearGradient>
<linearGradient id="paint29_linear_69_28" x1="1548.87" y1="158.141" x2="1729.8" y2="14.0112" gradientUnits="userSpaceOnUse">
<stop stop-color="#37C8EE"/>
<stop offset="0.76891" stop-color="#91E8FF"/>
</linearGradient>
<clipPath id="clip0_69_28">
<rect width="1512" height="982" fill="white"/>
</clipPath>
</defs>
</svg>
