<svg width="1512" height="982" viewBox="0 0 1512 982" fill="none" xmlns="http://www.w3.org/2000/svg">
<g clip-path="url(#clip0_69_28)">
<g filter="url(#filter0_f_69_28)">
<path opacity="0.4" d="M390.905 142.814L390.883 142.843L390.862 142.872L348.127 202.712C346.469 204.812 344.287 206.444 341.612 207.159L271.807 225.816C269.133 226.531 267.29 225.975 266.17 224.618L239.177 183.49C238.784 181.938 239.143 179.632 240.073 177.726L282.741 117.98C284.399 115.88 286.581 114.248 289.256 113.533L359.061 94.876C361.735 94.1611 363.578 94.7171 364.698 96.0742L391.733 137.266L391.746 137.286L391.762 137.305C392.822 138.603 392.478 140.813 390.905 142.814Z" stroke="url(#paint0_linear_69_28)" stroke-width="2"/>
<path d="M273.773 116.418L273.751 116.447L273.73 116.476L231.028 176.1C229.373 178.191 227.191 179.819 224.514 180.534L154.71 199.191C152.033 199.907 150.19 199.355 149.069 198.006L122.043 157.095C121.65 155.551 122.007 153.257 122.935 151.36L165.569 91.8304C167.224 89.7395 169.406 88.1116 172.083 87.3962L241.887 68.7388C244.564 68.0234 246.407 68.5756 247.528 69.9243L274.596 110.9L274.609 110.92L274.625 110.939C275.685 112.228 275.343 114.426 273.773 116.418Z" stroke="url(#paint1_linear_69_28)" stroke-width="2"/>
<path d="M409.146 25.436L409.124 25.4648L409.103 25.494L366.401 85.1179C364.746 87.2088 362.564 88.8367 359.887 89.5521L290.083 108.21C287.406 108.925 285.563 108.373 284.442 107.024L257.417 66.1126C257.023 64.5692 257.38 62.2752 258.308 60.3786L300.942 0.848456C302.597 -1.24245 304.779 -2.87033 307.456 -3.58573L377.26 -22.2431C379.937 -22.9585 381.78 -22.4064 382.901 -21.0576L409.969 19.9183L409.983 19.9384L409.998 19.957C411.058 21.2463 410.716 23.4437 409.146 25.436Z" stroke="url(#paint2_linear_69_28)" stroke-width="2"/>
<path d="M254.84 238.258L254.817 238.286L254.796 238.315L212.095 297.939C210.439 300.03 208.257 301.658 205.581 302.374L135.776 321.031C133.1 321.746 131.257 321.194 130.136 319.846L103.11 278.934C102.717 277.391 103.073 275.097 104.001 273.2L146.635 213.67C148.291 211.579 150.473 209.951 153.149 209.236L222.954 190.578C225.63 189.863 227.473 190.415 228.595 191.764L255.663 232.74L255.676 232.76L255.691 232.779C256.751 234.068 256.41 236.265 254.84 238.258Z" stroke="url(#paint3_linear_69_28)" stroke-width="2"/>
<path d="M140.283 209.801L140.261 209.829L140.24 209.859L97.5048 269.699C95.8469 271.798 93.6645 273.43 90.9899 274.145L21.1853 292.802C18.5107 293.517 16.6683 292.961 15.5476 291.604L-11.4448 250.477C-11.8377 248.924 -11.4793 246.618 -10.5491 244.712L32.1191 184.966C33.777 182.866 35.9594 181.235 38.634 180.52L108.439 161.862C111.113 161.147 112.956 161.703 114.076 163.061L141.111 204.252L141.124 204.272L141.139 204.291C142.2 205.589 141.856 207.799 140.283 209.801Z" stroke="url(#paint4_linear_69_28)" stroke-width="2"/>
<path opacity="0.5" d="M158.88 90.1391L158.857 90.1679L158.836 90.1971L116.135 149.821C114.479 151.912 112.297 153.54 109.621 154.255L39.8162 172.913C37.1396 173.628 35.2966 173.076 34.1755 171.727L7.1499 130.816C6.75649 129.272 7.11296 126.978 8.04096 125.082L50.6751 65.5516C52.3308 63.4607 54.5126 61.8328 57.1892 61.1174L126.994 42.46C129.67 41.7446 131.513 42.2967 132.634 43.6455L159.703 84.6214L159.716 84.6415L159.731 84.6601C160.791 85.9494 160.45 88.1469 158.88 90.1391Z" stroke="url(#paint5_linear_69_28)" stroke-width="2"/>
<path opacity="0.2" d="M292.48 -3.95901L292.458 -3.93027L292.437 -3.90105L249.735 55.7229C248.08 57.8138 245.898 59.4417 243.221 60.1571L173.417 78.8145C170.74 79.5299 168.897 78.9778 167.776 77.629L140.75 36.7176C140.357 35.1742 140.714 32.8801 141.642 30.9835L184.276 -28.5466C185.931 -30.6375 188.113 -32.2654 190.79 -32.9807L260.594 -51.6381C263.271 -52.3535 265.114 -51.8014 266.235 -50.4526L293.303 -9.47672L293.317 -9.45665L293.332 -9.43804C294.392 -8.14871 294.05 -5.95128 292.48 -3.95901Z" stroke="url(#paint6_linear_69_28)" stroke-width="2"/>
<path d="M-137.135 498.801L-137.147 498.779L-137.161 498.76L-165.174 458.426C-166.011 456.884 -165.841 454.967 -164.185 452.745L-121.002 394.786C-119.347 392.564 -117.027 391.139 -114.472 390.375L-43.4102 372.807C-41.3055 372.648 -39.0437 373.166 -37.7565 374.103L-9.78722 414.374C-8.95042 415.915 -9.12062 417.832 -10.7764 420.055L-53.959 478.013C-55.6148 480.236 -57.9344 481.66 -60.489 482.424L-131.663 500.02L-131.698 500.029L-131.733 500.039C-134.164 500.76 -136.331 500.263 -137.135 498.801Z" stroke="url(#paint7_linear_69_28)" stroke-width="2"/>
<path d="M-119.702 382.124L-119.713 382.103L-119.727 382.083L-147.953 341.7C-148.798 340.156 -148.632 338.238 -146.977 336.017L-103.795 278.059C-102.14 275.838 -99.8167 274.414 -97.253 273.652L-25.9774 256.132C-23.8634 255.974 -21.5896 256.495 -20.2941 257.435L7.88806 297.754C8.7328 299.299 8.56636 301.217 6.9118 303.437L-36.2708 361.396C-37.9253 363.617 -40.2488 365.04 -42.8124 365.803L-114.2 383.35L-114.234 383.359L-114.269 383.369C-116.711 384.089 -118.89 383.59 -119.702 382.124Z" stroke="url(#paint8_linear_69_28)" stroke-width="2"/>
<path opacity="0.5" d="M-1.72055 409.171L-1.73216 409.15L-1.74589 409.131L-29.7593 368.797C-30.5961 367.255 -30.4259 365.338 -28.7701 363.116L14.4124 305.157C16.0682 302.935 18.3879 301.51 20.9424 300.746L92.0046 283.178C94.1092 283.018 96.3711 283.537 97.6583 284.474L125.628 324.745C126.464 326.286 126.294 328.203 124.638 330.426L81.4558 388.384C79.8 390.607 77.4804 392.031 74.9258 392.795L3.75151 410.391L3.71665 410.399L3.68156 410.41C1.25033 411.131 -0.916251 410.634 -1.72055 409.171Z" stroke="url(#paint9_linear_69_28)" stroke-width="2"/>
<path opacity="0.2" d="M-18.4482 526.009L-18.4598 525.987L-18.4735 525.968L-46.4869 485.634C-47.3237 484.092 -47.1535 482.175 -45.4977 479.953L-2.31515 421.994C-0.659354 419.772 1.66025 418.347 4.21481 417.583L75.277 400.015C77.3816 399.856 79.6435 400.374 80.9307 401.311L108.9 441.582C109.737 443.123 109.567 445.04 107.911 447.263L64.7282 505.221C63.0724 507.444 60.7528 508.868 58.1982 509.632L-12.9761 527.228L-13.011 527.237L-13.046 527.247C-15.4773 527.968 -17.6439 527.471 -18.4482 526.009Z" stroke="url(#paint10_linear_69_28)" stroke-width="2"/>
<path opacity="0.4" d="M-65.9835 27.9733L-65.9961 27.9529L-66.0107 27.9338L-96.0328 -11.1322C-96.9465 -12.6367 -96.8668 -14.5604 -95.3143 -16.8536L-54.7946 -76.704C-53.242 -78.9972 -50.9853 -80.5244 -48.4588 -81.4023L21.9525 -102.124C24.0572 -102.378 26.3522 -101.96 27.6889 -101.08L57.664 -62.0747C58.5776 -60.5703 58.498 -58.6465 56.9455 -56.3533L16.4257 3.49709C14.8732 5.79029 12.6165 7.31751 10.0899 8.19542L-60.4316 28.9499L-60.466 28.96L-60.5005 28.9719C-62.9065 29.8017 -65.1059 29.4011 -65.9835 27.9733Z" stroke="url(#paint11_linear_69_28)" stroke-width="2"/>
<path d="M50.8266 49.2486L50.8141 49.228L50.7995 49.2089L20.9923 10.1821C20.0867 8.68 20.1701 6.75701 21.7238 4.46209L62.2435 -55.3883C63.7972 -57.6833 66.0501 -59.2111 68.5675 -60.0898L138.763 -80.8506C140.859 -81.1054 143.142 -80.6896 144.47 -79.8113L174.23 -40.846C175.136 -39.3439 175.052 -37.4209 173.499 -35.126L132.979 24.7244C131.425 27.0194 129.172 28.5472 126.655 29.4259L56.3482 50.2195L56.3138 50.2297L56.2792 50.2417C53.883 51.0717 51.6962 50.6734 50.8266 49.2486Z" stroke="url(#paint12_linear_69_28)" stroke-width="2"/>
<path opacity="0.4" d="M23.337 185.017L23.3144 185.046L23.2936 185.075L-19.4415 244.915C-21.0994 247.015 -23.2818 248.646 -25.9564 249.361L-95.761 268.019C-98.4356 268.733 -100.278 268.178 -101.399 266.82L-128.391 225.693C-128.784 224.141 -128.426 221.835 -127.495 219.929L-84.8272 160.182C-83.1693 158.083 -80.9869 156.451 -78.3123 155.736L-8.50765 137.079C-5.83308 136.364 -3.99061 136.92 -2.86992 138.277L24.1648 179.469L24.178 179.489L24.1932 179.507C25.2533 180.805 24.9099 183.015 23.337 185.017Z" stroke="url(#paint13_linear_69_28)" stroke-width="2"/>
<path d="M41.578 67.6386L41.5554 67.6674L41.5345 67.6966L-1.16695 127.321C-2.82259 129.411 -5.00438 131.039 -7.68098 131.755L-77.4856 150.412C-80.1622 151.128 -82.0052 150.575 -83.1263 149.227L-110.152 108.315C-110.545 106.772 -110.189 104.478 -109.261 102.581L-66.6266 43.0511C-64.971 40.9602 -62.7892 39.3323 -60.1126 38.6169L9.692 19.9595C12.3686 19.2441 14.2116 19.7963 15.3327 21.145L42.4009 62.1209L42.4142 62.141L42.4295 62.1596C43.4895 63.4489 43.148 65.6464 41.578 67.6386Z" stroke="url(#paint14_linear_69_28)" stroke-width="2"/>
<path d="M521.524 -119.385L521.536 -119.364L521.55 -119.344L549.641 -78.8677C550.481 -77.3207 550.308 -75.4031 548.646 -73.1879L505.27 -15.374C503.608 -13.1588 501.28 -11.7429 498.714 -10.9886L427.38 6.29267C425.265 6.44407 422.993 5.91524 421.701 4.97083L393.654 -35.4425C392.814 -36.9895 392.987 -38.9071 394.649 -41.1223L438.025 -98.9362C439.687 -101.151 442.015 -102.567 444.581 -103.322L516.027 -120.63L516.061 -120.638L516.096 -120.649C518.54 -121.361 520.717 -120.854 521.524 -119.385Z" stroke="url(#paint15_linear_69_28)" stroke-width="2"/>
</g>
<path opacity="0.4" d="M390.905 142.814L390.883 142.843L390.862 142.872L348.127 202.712C346.469 204.812 344.287 206.444 341.612 207.159L271.807 225.816C269.133 226.531 267.29 225.975 266.17 224.618L239.177 183.49C238.784 181.938 239.143 179.632 240.073 177.726L282.741 117.98C284.399 115.88 286.581 114.248 289.256 113.533L359.061 94.876C361.735 94.1611 363.578 94.7171 364.698 96.0742L391.733 137.266L391.746 137.286L391.762 137.305C392.822 138.603 392.478 140.813 390.905 142.814Z" stroke="url(#paint16_linear_69_28)" stroke-width="2"/>
<path d="M273.773 116.418L273.751 116.447L273.73 116.476L231.028 176.1C229.373 178.191 227.191 179.819 224.514 180.534L154.71 199.191C152.033 199.907 150.19 199.355 149.069 198.006L122.043 157.095C121.65 155.551 122.007 153.257 122.935 151.36L165.569 91.8304C167.224 89.7395 169.406 88.1116 172.083 87.3962L241.887 68.7388C244.564 68.0234 246.407 68.5756 247.528 69.9243L274.596 110.9L274.609 110.92L274.625 110.939C275.685 112.228 275.343 114.426 273.773 116.418Z" stroke="url(#paint17_linear_69_28)" stroke-width="2"/>
<path d="M409.146 25.436L409.124 25.4648L409.103 25.494L366.401 85.1179C364.746 87.2088 362.564 88.8367 359.887 89.5521L290.083 108.21C287.406 108.925 285.563 108.373 284.442 107.024L257.417 66.1126C257.023 64.5692 257.38 62.2752 258.308 60.3786L300.942 0.848456C302.597 -1.24245 304.779 -2.87033 307.456 -3.58573L377.26 -22.2431C379.937 -22.9585 381.78 -22.4064 382.901 -21.0576L409.969 19.9183L409.983 19.9384L409.998 19.957C411.058 21.2463 410.716 23.4437 409.146 25.436Z" stroke="url(#paint18_linear_69_28)" stroke-width="2"/>
<path d="M254.84 238.258L254.817 238.286L254.796 238.315L212.095 297.939C210.439 300.03 208.257 301.658 205.581 302.374L135.776 321.031C133.1 321.746 131.257 321.194 130.136 319.846L103.11 278.934C102.717 277.391 103.073 275.097 104.001 273.2L146.635 213.67C148.291 211.579 150.473 209.951 153.149 209.236L222.954 190.578C225.63 189.863 227.473 190.415 228.595 191.764L255.663 232.74L255.676 232.76L255.691 232.779C256.751 234.068 256.41 236.265 254.84 238.258Z" stroke="url(#paint19_linear_69_28)" stroke-width="2"/>
<path d="M140.283 209.801L140.261 209.829L140.24 209.859L97.5048 269.699C95.8469 271.798 93.6645 273.43 90.9899 274.145L21.1853 292.802C18.5107 293.517 16.6683 292.961 15.5476 291.604L-11.4448 250.477C-11.8377 248.924 -11.4793 246.618 -10.5491 244.712L32.1191 184.966C33.777 182.866 35.9594 181.235 38.634 180.52L108.439 161.862C111.113 161.147 112.956 161.703 114.076 163.061L141.111 204.252L141.124 204.272L141.139 204.291C142.2 205.589 141.856 207.799 140.283 209.801Z" stroke="url(#paint20_linear_69_28)" stroke-width="2"/>
<path opacity="0.5" d="M158.88 90.1391L158.857 90.1679L158.836 90.1971L116.135 149.821C114.479 151.912 112.297 153.54 109.621 154.255L39.8162 172.913C37.1396 173.628 35.2966 173.076 34.1755 171.727L7.1499 130.816C6.75649 129.272 7.11296 126.978 8.04096 125.082L50.6751 65.5516C52.3308 63.4607 54.5126 61.8328 57.1892 61.1174L126.994 42.46C129.67 41.7446 131.513 42.2967 132.634 43.6455L159.703 84.6214L159.716 84.6415L159.731 84.6601C160.791 85.9494 160.45 88.1469 158.88 90.1391Z" stroke="url(#paint21_linear_69_28)" stroke-width="2"/>
<path opacity="0.2" d="M292.48 -3.95901L292.458 -3.93027L292.437 -3.90105L249.735 55.7229C248.08 57.8138 245.898 59.4417 243.221 60.1571L173.417 78.8145C170.74 79.5299 168.897 78.9778 167.776 77.629L140.75 36.7176C140.357 35.1742 140.714 32.8801 141.642 30.9835L184.276 -28.5466C185.931 -30.6375 188.113 -32.2654 190.79 -32.9807L260.594 -51.6381C263.271 -52.3535 265.114 -51.8014 266.235 -50.4526L293.303 -9.47672L293.317 -9.45665L293.332 -9.43804C294.392 -8.14871 294.05 -5.95128 292.48 -3.95901Z" stroke="url(#paint22_linear_69_28)" stroke-width="2"/>
<path d="M-137.135 498.801L-137.147 498.779L-137.161 498.76L-165.174 458.426C-166.011 456.884 -165.841 454.967 -164.185 452.745L-121.002 394.786C-119.347 392.564 -117.027 391.139 -114.472 390.375L-43.4102 372.807C-41.3055 372.648 -39.0437 373.166 -37.7565 374.103L-9.78722 414.374C-8.95042 415.915 -9.12062 417.832 -10.7764 420.055L-53.959 478.013C-55.6148 480.236 -57.9344 481.66 -60.489 482.424L-131.663 500.02L-131.698 500.029L-131.733 500.039C-134.164 500.76 -136.331 500.263 -137.135 498.801Z" stroke="url(#paint23_linear_69_28)" stroke-width="2"/>
<path d="M-119.702 382.124L-119.713 382.103L-119.727 382.083L-147.953 341.7C-148.798 340.156 -148.632 338.238 -146.977 336.017L-103.795 278.059C-102.14 275.838 -99.8167 274.414 -97.253 273.652L-25.9774 256.132C-23.8634 255.974 -21.5896 256.495 -20.2941 257.435L7.88806 297.754C8.7328 299.299 8.56636 301.217 6.9118 303.437L-36.2708 361.396C-37.9253 363.617 -40.2488 365.04 -42.8124 365.803L-114.2 383.35L-114.234 383.359L-114.269 383.369C-116.711 384.089 -118.89 383.59 -119.702 382.124Z" stroke="url(#paint24_linear_69_28)" stroke-width="2"/>
<path opacity="0.5" d="M-1.72055 409.171L-1.73216 409.15L-1.74589 409.131L-29.7593 368.797C-30.5961 367.255 -30.4259 365.338 -28.7701 363.116L14.4124 305.157C16.0682 302.935 18.3879 301.51 20.9424 300.746L92.0046 283.178C94.1092 283.018 96.3711 283.537 97.6583 284.474L125.628 324.745C126.464 326.286 126.294 328.203 124.638 330.426L81.4558 388.384C79.8 390.607 77.4804 392.031 74.9258 392.795L3.75151 410.391L3.71665 410.399L3.68156 410.41C1.25033 411.131 -0.916251 410.634 -1.72055 409.171Z" stroke="url(#paint25_linear_69_28)" stroke-width="2"/>
<path opacity="0.2" d="M-18.4482 526.009L-18.4598 525.987L-18.4735 525.968L-46.4869 485.634C-47.3237 484.092 -47.1535 482.175 -45.4977 479.953L-2.31515 421.994C-0.659354 419.772 1.66025 418.347 4.21481 417.583L75.277 400.015C77.3816 399.856 79.6435 400.374 80.9307 401.311L108.9 441.582C109.737 443.123 109.567 445.04 107.911 447.263L64.7282 505.221C63.0724 507.444 60.7528 508.868 58.1982 509.632L-12.9761 527.228L-13.011 527.237L-13.046 527.247C-15.4773 527.968 -17.6439 527.471 -18.4482 526.009Z" stroke="url(#paint26_linear_69_28)" stroke-width="2"/>
<path opacity="0.4" d="M-65.9835 27.9733L-65.9961 27.9529L-66.0107 27.9338L-96.0328 -11.1322C-96.9465 -12.6367 -96.8668 -14.5604 -95.3143 -16.8536L-54.7946 -76.704C-53.242 -78.9972 -50.9853 -80.5244 -48.4588 -81.4023L21.9525 -102.124C24.0572 -102.378 26.3522 -101.96 27.6889 -101.08L57.664 -62.0747C58.5776 -60.5703 58.498 -58.6465 56.9455 -56.3533L16.4257 3.49709C14.8732 5.79029 12.6165 7.31751 10.0899 8.19542L-60.4316 28.9499L-60.466 28.96L-60.5005 28.9719C-62.9065 29.8017 -65.1059 29.4011 -65.9835 27.9733Z" stroke="url(#paint27_linear_69_28)" stroke-width="2"/>
<path d="M50.8266 49.2486L50.8141 49.228L50.7995 49.2089L20.9923 10.1821C20.0867 8.68 20.1701 6.75701 21.7238 4.46209L62.2435 -55.3883C63.7972 -57.6833 66.0501 -59.2111 68.5675 -60.0898L138.763 -80.8506C140.859 -81.1054 143.142 -80.6896 144.47 -79.8113L174.23 -40.846C175.136 -39.3439 175.052 -37.4209 173.499 -35.126L132.979 24.7244C131.425 27.0194 129.172 28.5472 126.655 29.4259L56.3482 50.2195L56.3138 50.2297L56.2792 50.2417C53.883 51.0717 51.6962 50.6734 50.8266 49.2486Z" stroke="url(#paint28_linear_69_28)" stroke-width="2"/>
<path opacity="0.4" d="M23.337 185.017L23.3144 185.046L23.2936 185.075L-19.4415 244.915C-21.0994 247.015 -23.2818 248.646 -25.9564 249.361L-95.761 268.019C-98.4356 268.733 -100.278 268.178 -101.399 266.82L-128.391 225.693C-128.784 224.141 -128.426 221.835 -127.495 219.929L-84.8272 160.182C-83.1693 158.083 -80.9869 156.451 -78.3123 155.736L-8.50765 137.079C-5.83308 136.364 -3.99061 136.92 -2.86992 138.277L24.1648 179.469L24.178 179.489L24.1932 179.507C25.2533 180.805 24.9099 183.015 23.337 185.017Z" stroke="url(#paint29_linear_69_28)" stroke-width="2"/>
<path d="M41.578 67.6386L41.5554 67.6674L41.5345 67.6966L-1.16695 127.321C-2.82259 129.411 -5.00438 131.039 -7.68098 131.755L-77.4856 150.412C-80.1622 151.128 -82.0052 150.575 -83.1263 149.227L-110.152 108.315C-110.545 106.772 -110.189 104.478 -109.261 102.581L-66.6266 43.0511C-64.971 40.9602 -62.7892 39.3323 -60.1126 38.6169L9.692 19.9595C12.3686 19.2441 14.2116 19.7963 15.3327 21.145L42.4009 62.1209L42.4142 62.141L42.4295 62.1596C43.4895 63.4489 43.148 65.6464 41.578 67.6386Z" stroke="url(#paint30_linear_69_28)" stroke-width="2"/>
<path d="M521.524 -119.385L521.536 -119.364L521.55 -119.344L549.641 -78.8677C550.481 -77.3207 550.308 -75.4031 548.646 -73.1879L505.27 -15.374C503.608 -13.1588 501.28 -11.7429 498.714 -10.9886L427.38 6.29267C425.265 6.44407 422.993 5.91524 421.701 4.97083L393.654 -35.4425C392.814 -36.9895 392.987 -38.9071 394.649 -41.1223L438.025 -98.9362C439.687 -101.151 442.015 -102.567 444.581 -103.322L516.027 -120.63L516.061 -120.638L516.096 -120.649C518.54 -121.361 520.717 -120.854 521.524 -119.385Z" stroke="url(#paint31_linear_69_28)" stroke-width="2"/>
</g>
<defs>
<filter id="filter0_f_69_28" x="-413.527" y="-398.712" width="1221.02" height="1059.9" filterUnits="userSpaceOnUse" color-interpolation-filters="sRGB">
<feFlood flood-opacity="0" result="BackgroundImageFix"/>
<feBlend mode="normal" in="SourceGraphic" in2="BackgroundImageFix" result="shape"/>
<feGaussianBlur stdDeviation="7.5" result="effect1_foregroundBlur_69_28"/>
</filter>
<linearGradient id="paint0_linear_69_28" x1="385.077" y1="215.513" x2="230.661" y2="186.72" gradientUnits="userSpaceOnUse">
<stop stop-color="#00A3FF"/>
<stop offset="1" stop-color="#18E6FE"/>
</linearGradient>
<linearGradient id="paint1_linear_69_28" x1="267.992" y1="188.803" x2="113.59" y2="159.993" gradientUnits="userSpaceOnUse">
<stop stop-color="#00A3FF"/>
<stop offset="1" stop-color="#18E6FE"/>
</linearGradient>
<linearGradient id="paint2_linear_69_28" x1="403.365" y1="97.8209" x2="248.963" y2="69.0107" gradientUnits="userSpaceOnUse">
<stop stop-color="#00A3FF"/>
<stop offset="1" stop-color="#18E6FE"/>
</linearGradient>
<linearGradient id="paint3_linear_69_28" x1="249.059" y1="310.642" x2="94.6567" y2="281.832" gradientUnits="userSpaceOnUse">
<stop stop-color="#00A3FF"/>
<stop offset="1" stop-color="#18E6FE"/>
</linearGradient>
<linearGradient id="paint4_linear_69_28" x1="134.455" y1="282.499" x2="-19.9606" y2="253.707" gradientUnits="userSpaceOnUse">
<stop stop-color="#00A3FF"/>
<stop offset="1" stop-color="#18E6FE"/>
</linearGradient>
<linearGradient id="paint5_linear_69_28" x1="153.099" y1="162.524" x2="-1.30337" y2="133.714" gradientUnits="userSpaceOnUse">
<stop stop-color="#00A3FF"/>
<stop offset="1" stop-color="#18E6FE"/>
</linearGradient>
<linearGradient id="paint6_linear_69_28" x1="286.699" y1="68.4259" x2="132.297" y2="39.6157" gradientUnits="userSpaceOnUse">
<stop stop-color="#00A3FF"/>
<stop offset="1" stop-color="#18E6FE"/>
</linearGradient>
<linearGradient id="paint7_linear_69_28" x1="-213.536" y1="486.832" x2="-172.575" y2="330.663" gradientUnits="userSpaceOnUse">
<stop stop-color="#00A3FF"/>
<stop offset="1" stop-color="#18E6FE"/>
</linearGradient>
<linearGradient id="paint8_linear_69_28" x1="-196.413" y1="370.085" x2="-155.474" y2="213.919" gradientUnits="userSpaceOnUse">
<stop stop-color="#00A3FF"/>
<stop offset="1" stop-color="#18E6FE"/>
</linearGradient>
<linearGradient id="paint9_linear_69_28" x1="-78.1216" y1="397.202" x2="-37.1598" y2="241.034" gradientUnits="userSpaceOnUse">
<stop stop-color="#00A3FF"/>
<stop offset="1" stop-color="#18E6FE"/>
</linearGradient>
<linearGradient id="paint10_linear_69_28" x1="-94.8492" y1="514.04" x2="-53.8874" y2="357.871" gradientUnits="userSpaceOnUse">
<stop stop-color="#00A3FF"/>
<stop offset="1" stop-color="#18E6FE"/>
</linearGradient>
<linearGradient id="paint11_linear_69_28" x1="-143.16" y1="19.4127" x2="-109.319" y2="-138.443" gradientUnits="userSpaceOnUse">
<stop stop-color="#00A3FF"/>
<stop offset="1" stop-color="#18E6FE"/>
</linearGradient>
<linearGradient id="paint12_linear_69_28" x1="-26.0372" y1="40.7438" x2="7.82666" y2="-117.116" gradientUnits="userSpaceOnUse">
<stop stop-color="#00A3FF"/>
<stop offset="1" stop-color="#18E6FE"/>
</linearGradient>
<linearGradient id="paint13_linear_69_28" x1="17.5083" y1="257.715" x2="-136.907" y2="228.923" gradientUnits="userSpaceOnUse">
<stop stop-color="#00A3FF"/>
<stop offset="1" stop-color="#18E6FE"/>
</linearGradient>
<linearGradient id="paint14_linear_69_28" x1="35.7969" y1="140.024" x2="-118.605" y2="111.213" gradientUnits="userSpaceOnUse">
<stop stop-color="#00A3FF"/>
<stop offset="1" stop-color="#18E6FE"/>
</linearGradient>
<linearGradient id="paint15_linear_69_28" x1="598.195" y1="-107.09" x2="556.735" y2="48.9381" gradientUnits="userSpaceOnUse">
<stop stop-color="#00A3FF"/>
<stop offset="1" stop-color="#18E6FE"/>
</linearGradient>
<linearGradient id="paint16_linear_69_28" x1="345.247" y1="197.681" x2="163.789" y2="53.5334" gradientUnits="userSpaceOnUse">
<stop stop-color="#37C8EE"/>
<stop offset="0.76891" stop-color="#91E8FF"/>
</linearGradient>
<linearGradient id="paint17_linear_69_28" x1="228.143" y1="171.099" x2="47.2215" y2="26.969" gradientUnits="userSpaceOnUse">
<stop stop-color="#37C8EE"/>
<stop offset="0.76891" stop-color="#91E8FF"/>
</linearGradient>
<linearGradient id="paint18_linear_69_28" x1="363.516" y1="80.1167" x2="182.595" y2="-64.013" gradientUnits="userSpaceOnUse">
<stop stop-color="#37C8EE"/>
<stop offset="0.76891" stop-color="#91E8FF"/>
</linearGradient>
<linearGradient id="paint19_linear_69_28" x1="209.21" y1="292.938" x2="28.288" y2="148.809" gradientUnits="userSpaceOnUse">
<stop stop-color="#37C8EE"/>
<stop offset="0.76891" stop-color="#91E8FF"/>
</linearGradient>
<linearGradient id="paint20_linear_69_28" x1="94.6253" y1="264.668" x2="-86.8326" y2="120.52" gradientUnits="userSpaceOnUse">
<stop stop-color="#37C8EE"/>
<stop offset="0.76891" stop-color="#91E8FF"/>
</linearGradient>
<linearGradient id="paint21_linear_69_28" x1="113.25" y1="144.82" x2="-67.6721" y2="0.690172" gradientUnits="userSpaceOnUse">
<stop stop-color="#37C8EE"/>
<stop offset="0.76891" stop-color="#91E8FF"/>
</linearGradient>
<linearGradient id="paint22_linear_69_28" x1="246.85" y1="50.7217" x2="65.9285" y2="-93.408" gradientUnits="userSpaceOnUse">
<stop stop-color="#37C8EE"/>
<stop offset="0.76891" stop-color="#91E8FF"/>
</linearGradient>
<linearGradient id="paint23_linear_69_28" x1="-156.872" y1="456.615" x2="153.629" y2="290.793" gradientUnits="userSpaceOnUse">
<stop stop-color="#37C8EE"/>
<stop offset="0.76891" stop-color="#91E8FF"/>
</linearGradient>
<linearGradient id="paint24_linear_69_28" x1="-139.624" y1="339.896" x2="170.811" y2="172.835" gradientUnits="userSpaceOnUse">
<stop stop-color="#37C8EE"/>
<stop offset="0.76891" stop-color="#91E8FF"/>
</linearGradient>
<linearGradient id="paint25_linear_69_28" x1="-21.4575" y1="366.985" x2="289.044" y2="201.164" gradientUnits="userSpaceOnUse">
<stop stop-color="#37C8EE"/>
<stop offset="0.76891" stop-color="#91E8FF"/>
</linearGradient>
<linearGradient id="paint26_linear_69_28" x1="-38.1851" y1="483.823" x2="272.316" y2="318.001" gradientUnits="userSpaceOnUse">
<stop stop-color="#37C8EE"/>
<stop offset="0.76891" stop-color="#91E8FF"/>
</linearGradient>
<linearGradient id="paint27_linear_69_28" x1="-87.7929" y1="-13.3106" x2="214.777" y2="-194.228" gradientUnits="userSpaceOnUse">
<stop stop-color="#37C8EE"/>
<stop offset="0.76891" stop-color="#91E8FF"/>
</linearGradient>
<linearGradient id="paint28_linear_69_28" x1="29.2037" y1="7.99747" x2="331.896" y2="-171.684" gradientUnits="userSpaceOnUse">
<stop stop-color="#37C8EE"/>
<stop offset="0.76891" stop-color="#91E8FF"/>
</linearGradient>
<linearGradient id="paint29_linear_69_28" x1="-22.321" y1="239.884" x2="-203.779" y2="95.736" gradientUnits="userSpaceOnUse">
<stop stop-color="#37C8EE"/>
<stop offset="0.76891" stop-color="#91E8FF"/>
</linearGradient>
<linearGradient id="paint30_linear_69_28" x1="-4.05213" y1="122.319" x2="-184.974" y2="-21.8103" gradientUnits="userSpaceOnUse">
<stop stop-color="#37C8EE"/>
<stop offset="0.76891" stop-color="#91E8FF"/>
</linearGradient>
<linearGradient id="paint31_linear_69_28" x1="541.305" y1="-77.0916" x2="230.314" y2="88.932" gradientUnits="userSpaceOnUse">
<stop stop-color="#37C8EE"/>
<stop offset="0.76891" stop-color="#91E8FF"/>
</linearGradient>
<clipPath id="clip0_69_28">
<rect width="1512" height="982" fill="white"/>
</clipPath>
</defs>
</svg>
