<svg width="211" height="621" viewBox="0 0 211 621" fill="none" xmlns="http://www.w3.org/2000/svg">
<g filter="url(#filter0_f_70_99)">
<path d="M211.569 130.443L211.592 130.472L211.613 130.501L232.586 159.785C233.299 160.68 234.196 161.337 235.295 161.631L269.598 170.799C270.698 171.093 271.46 170.88 271.944 170.305L285.194 150.246C285.349 149.581 285.196 148.598 284.813 147.788L263.909 118.601C263.196 117.706 262.3 117.05 261.2 116.756L226.897 107.587C225.797 107.293 225.035 107.506 224.551 108.082L211.257 128.207L211.243 128.227L211.228 128.245C210.804 128.761 210.941 129.646 211.569 130.443Z" stroke="url(#paint0_linear_70_99)" stroke-width="2"/>
<path opacity="0.4" d="M79.926 -42.2848L79.9145 -42.2637L79.9008 -42.244L66.1038 -22.364C65.7478 -21.6978 65.834 -20.9109 66.516 -20.0019L87.8316 8.4088C88.5136 9.31786 89.4583 9.9049 90.5595 10.2319L125.534 18.7049C126.433 18.7579 127.408 18.531 127.972 18.1375L141.723 -1.67699C142.079 -2.34321 141.993 -3.13009 141.311 -4.03915L119.995 -32.4498C119.313 -33.3589 118.369 -33.9459 117.268 -34.2729L82.1773 -42.7739L82.1425 -42.7823L82.1074 -42.7925C81.1283 -43.0779 80.2496 -42.8734 79.926 -42.2848Z" stroke="url(#paint1_linear_70_99)" stroke-width="2"/>
<path d="M147.698 2.41071L147.687 2.43185L147.673 2.45166L133.981 22.3072C133.628 22.9717 133.716 23.7583 134.399 24.669L155.714 53.0797C156.398 53.9904 157.341 54.5777 158.438 54.9049L193.307 63.4019C194.201 63.4553 195.169 63.2299 195.729 62.8382L209.376 43.0485C209.728 42.384 209.641 41.5974 208.958 40.6867L187.642 12.276C186.959 11.3653 186.015 10.778 184.919 10.4508L149.933 1.92554L149.899 1.91703L149.863 1.90675C148.89 1.62159 148.018 1.8245 147.698 2.41071Z" stroke="url(#paint2_linear_70_99)" stroke-width="2"/>
<path d="M136.754 -55.5134L136.742 -55.4922L136.729 -55.4724L123.036 -35.6168C122.684 -34.9524 122.771 -34.1657 123.454 -33.255L144.77 -4.84438C145.453 -3.93366 146.397 -3.3464 147.493 -3.01913L182.363 5.47783C183.257 5.53125 184.225 5.30585 184.785 4.91415L198.432 -14.8756C198.784 -15.5401 198.697 -16.3267 198.014 -17.2374L176.698 -45.6481C176.015 -46.5588 175.071 -47.146 173.975 -47.4733L138.989 -55.9985L138.954 -56.007L138.919 -56.0173C137.946 -56.3025 137.074 -56.0996 136.754 -55.5134Z" stroke="url(#paint3_linear_70_99)" stroke-width="2"/>
<path d="M88.7105 16.1407L88.699 16.1618L88.6853 16.1816L74.9929 36.0372C74.6406 36.7017 74.7277 37.4883 75.411 38.399L96.7266 66.8097C97.4099 67.7204 98.3535 68.3077 99.4499 68.6349L134.32 77.1319C135.213 77.1853 136.182 76.9599 136.741 76.5682L150.388 56.7784C150.741 56.114 150.653 55.3274 149.97 54.4166L128.655 26.006C127.971 25.0953 127.028 24.508 125.931 24.1807L90.9457 15.6555L90.9108 15.647L90.8756 15.6367C89.9021 15.3516 89.0303 15.5545 88.7105 16.1407Z" stroke="url(#paint4_linear_70_99)" stroke-width="2"/>
<path d="M156.456 59.7189L156.445 59.7399L156.431 59.7597L142.634 79.6397C142.278 80.3059 142.364 81.0928 143.046 82.0018L164.362 110.412C165.044 111.322 165.989 111.909 167.09 112.236L202.064 120.709C202.963 120.762 203.938 120.535 204.502 120.141L218.254 100.327C218.61 99.6605 218.523 98.8736 217.841 97.9645L196.526 69.5539C195.844 68.6448 194.899 68.0578 193.798 67.7307L158.708 59.2298L158.673 59.2213L158.638 59.2111C157.659 58.9258 156.78 59.1303 156.456 59.7189Z" stroke="url(#paint5_linear_70_99)" stroke-width="2"/>
<path opacity="0.5" d="M214.39 46.2332L214.379 46.2544L214.365 46.2742L200.673 66.1298C200.32 66.7942 200.407 67.5808 201.091 68.4916L222.406 96.9022C223.09 97.8129 224.033 98.4002 225.13 98.7275L259.999 107.224C260.893 107.278 261.861 107.052 262.421 106.661L276.068 86.871C276.42 86.2065 276.333 85.4199 275.65 84.5092L254.334 56.0985C253.651 55.1878 252.707 54.6005 251.611 54.2733L216.625 45.748L216.59 45.7395L216.555 45.7293C215.582 45.4441 214.71 45.647 214.39 46.2332Z" stroke="url(#paint6_linear_70_99)" stroke-width="2"/>
<path opacity="0.2" d="M205.978 -11.1547L205.967 -11.1336L205.953 -11.1138L192.26 8.74182C191.908 9.40628 191.995 10.1929 192.679 11.1036L213.994 39.5143C214.677 40.425 215.621 41.0122 216.717 41.3395L251.587 49.8365C252.481 49.8899 253.449 49.6645 254.009 49.2728L267.656 29.483C268.008 28.8186 267.921 28.032 267.238 27.1212L245.922 -1.28942C245.239 -2.20013 244.295 -2.78739 243.199 -3.11466L208.213 -11.6399L208.178 -11.6484L208.143 -11.6587C207.17 -11.9438 206.298 -11.7409 205.978 -11.1547Z" stroke="url(#paint7_linear_70_99)" stroke-width="2"/>
</g>
<path d="M211.569 130.443L211.592 130.472L211.613 130.501L232.586 159.785C233.299 160.68 234.196 161.337 235.295 161.631L269.598 170.799C270.698 171.093 271.46 170.88 271.944 170.305L285.194 150.246C285.349 149.581 285.196 148.598 284.813 147.788L263.909 118.601C263.196 117.706 262.3 117.05 261.2 116.756L226.897 107.587C225.797 107.293 225.035 107.506 224.551 108.082L211.257 128.207L211.243 128.227L211.228 128.245C210.804 128.761 210.941 129.646 211.569 130.443Z" stroke="url(#paint8_linear_70_99)" stroke-width="2"/>
<path opacity="0.4" d="M79.926 -42.2848L79.9145 -42.2637L79.9008 -42.244L66.1038 -22.364C65.7478 -21.6978 65.834 -20.9109 66.516 -20.0019L87.8316 8.4088C88.5136 9.31786 89.4583 9.9049 90.5595 10.2319L125.534 18.7049C126.433 18.7579 127.408 18.531 127.972 18.1375L141.723 -1.67699C142.079 -2.34321 141.993 -3.13009 141.311 -4.03915L119.995 -32.4498C119.313 -33.3589 118.369 -33.9459 117.268 -34.2729L82.1773 -42.7739L82.1425 -42.7823L82.1074 -42.7925C81.1283 -43.0779 80.2496 -42.8734 79.926 -42.2848Z" stroke="url(#paint9_linear_70_99)" stroke-width="2"/>
<path d="M147.698 2.41071L147.687 2.43185L147.673 2.45166L133.981 22.3072C133.628 22.9717 133.716 23.7583 134.399 24.669L155.714 53.0797C156.398 53.9904 157.341 54.5777 158.438 54.9049L193.307 63.4019C194.201 63.4553 195.169 63.2299 195.729 62.8382L209.376 43.0485C209.728 42.384 209.641 41.5974 208.958 40.6867L187.642 12.276C186.959 11.3653 186.015 10.778 184.919 10.4508L149.933 1.92554L149.899 1.91703L149.863 1.90675C148.89 1.62159 148.018 1.8245 147.698 2.41071Z" stroke="url(#paint10_linear_70_99)" stroke-width="2"/>
<path d="M136.754 -55.5134L136.742 -55.4922L136.729 -55.4724L123.036 -35.6168C122.684 -34.9524 122.771 -34.1657 123.454 -33.255L144.77 -4.84438C145.453 -3.93366 146.397 -3.3464 147.493 -3.01913L182.363 5.47783C183.257 5.53125 184.225 5.30585 184.785 4.91415L198.432 -14.8756C198.784 -15.5401 198.697 -16.3267 198.014 -17.2374L176.698 -45.6481C176.015 -46.5588 175.071 -47.146 173.975 -47.4733L138.989 -55.9985L138.954 -56.007L138.919 -56.0173C137.946 -56.3025 137.074 -56.0996 136.754 -55.5134Z" stroke="url(#paint11_linear_70_99)" stroke-width="2"/>
<path d="M88.7105 16.1407L88.699 16.1618L88.6853 16.1816L74.9929 36.0372C74.6406 36.7017 74.7277 37.4883 75.411 38.399L96.7266 66.8097C97.4099 67.7204 98.3535 68.3077 99.4499 68.6349L134.32 77.1319C135.213 77.1853 136.182 76.9599 136.741 76.5682L150.388 56.7784C150.741 56.114 150.653 55.3274 149.97 54.4166L128.655 26.006C127.971 25.0953 127.028 24.508 125.931 24.1807L90.9457 15.6555L90.9108 15.647L90.8756 15.6367C89.9021 15.3516 89.0303 15.5545 88.7105 16.1407Z" stroke="url(#paint12_linear_70_99)" stroke-width="2"/>
<path d="M156.456 59.7189L156.445 59.7399L156.431 59.7597L142.634 79.6397C142.278 80.3059 142.364 81.0928 143.046 82.0018L164.362 110.412C165.044 111.322 165.989 111.909 167.09 112.236L202.064 120.709C202.963 120.762 203.938 120.535 204.502 120.141L218.254 100.327C218.61 99.6605 218.523 98.8736 217.841 97.9645L196.526 69.5539C195.844 68.6448 194.899 68.0578 193.798 67.7307L158.708 59.2298L158.673 59.2213L158.638 59.2111C157.659 58.9258 156.78 59.1303 156.456 59.7189Z" stroke="url(#paint13_linear_70_99)" stroke-width="2"/>
<path opacity="0.5" d="M214.39 46.2332L214.379 46.2544L214.365 46.2742L200.673 66.1298C200.32 66.7942 200.407 67.5808 201.091 68.4916L222.406 96.9022C223.09 97.8129 224.033 98.4002 225.13 98.7275L259.999 107.224C260.893 107.278 261.861 107.052 262.421 106.661L276.068 86.871C276.42 86.2065 276.333 85.4199 275.65 84.5092L254.334 56.0985C253.651 55.1878 252.707 54.6005 251.611 54.2733L216.625 45.748L216.59 45.7395L216.555 45.7293C215.582 45.4441 214.71 45.647 214.39 46.2332Z" stroke="url(#paint14_linear_70_99)" stroke-width="2"/>
<path opacity="0.2" d="M205.978 -11.1547L205.967 -11.1336L205.953 -11.1138L192.26 8.74182C191.908 9.40628 191.995 10.1929 192.679 11.1036L213.994 39.5143C214.677 40.425 215.621 41.0122 216.717 41.3395L251.587 49.8365C252.481 49.8899 253.449 49.6645 254.009 49.2728L267.656 29.483C268.008 28.8186 267.921 28.032 267.238 27.1212L245.922 -1.28942C245.239 -2.20013 244.295 -2.78739 243.199 -3.11466L208.213 -11.6399L208.178 -11.6484L208.143 -11.6587C207.17 -11.9438 206.298 -11.7409 205.978 -11.1547Z" stroke="url(#paint15_linear_70_99)" stroke-width="2"/>
<defs>
<filter id="filter0_f_70_99" x="7.77539" y="-85.4919" width="615.286" height="536.107" filterUnits="userSpaceOnUse" color-interpolation-filters="sRGB">
<feFlood flood-opacity="0" result="BackgroundImageFix"/>
<feBlend mode="normal" in="SourceGraphic" in2="BackgroundImageFix" result="shape"/>
<feGaussianBlur stdDeviation="7.5" result="effect1_foregroundBlur_70_99"/>
</filter>
<linearGradient id="paint0_linear_70_99" x1="213.999" y1="166.141" x2="289.875" y2="151.984" gradientUnits="userSpaceOnUse">
<stop stop-color="#00A3FF"/>
<stop offset="1" stop-color="#18E6FE"/>
</linearGradient>
<linearGradient id="paint1_linear_70_99" x1="41.7261" y1="-36.5593" x2="62.1002" y2="40.1153" gradientUnits="userSpaceOnUse">
<stop stop-color="#00A3FF"/>
<stop offset="1" stop-color="#18E6FE"/>
</linearGradient>
<linearGradient id="paint2_linear_70_99" x1="109.65" y1="8.10199" x2="130.036" y2="84.778" gradientUnits="userSpaceOnUse">
<stop stop-color="#00A3FF"/>
<stop offset="1" stop-color="#18E6FE"/>
</linearGradient>
<linearGradient id="paint3_linear_70_99" x1="98.7059" y1="-49.8221" x2="119.091" y2="26.854" gradientUnits="userSpaceOnUse">
<stop stop-color="#00A3FF"/>
<stop offset="1" stop-color="#18E6FE"/>
</linearGradient>
<linearGradient id="paint4_linear_70_99" x1="50.6625" y1="21.832" x2="71.0479" y2="98.508" gradientUnits="userSpaceOnUse">
<stop stop-color="#00A3FF"/>
<stop offset="1" stop-color="#18E6FE"/>
</linearGradient>
<linearGradient id="paint5_linear_70_99" x1="118.256" y1="65.4444" x2="138.63" y2="142.119" gradientUnits="userSpaceOnUse">
<stop stop-color="#00A3FF"/>
<stop offset="1" stop-color="#18E6FE"/>
</linearGradient>
<linearGradient id="paint6_linear_70_99" x1="176.342" y1="51.9245" x2="196.728" y2="128.601" gradientUnits="userSpaceOnUse">
<stop stop-color="#00A3FF"/>
<stop offset="1" stop-color="#18E6FE"/>
</linearGradient>
<linearGradient id="paint7_linear_70_99" x1="167.93" y1="-5.46344" x2="188.316" y2="71.2126" gradientUnits="userSpaceOnUse">
<stop stop-color="#00A3FF"/>
<stop offset="1" stop-color="#18E6FE"/>
</linearGradient>
<linearGradient id="paint8_linear_70_99" x1="233.581" y1="157.441" x2="322.489" y2="86.6137" gradientUnits="userSpaceOnUse">
<stop stop-color="#37C8EE"/>
<stop offset="0.76891" stop-color="#91E8FF"/>
</linearGradient>
<linearGradient id="paint9_linear_70_99" x1="69.6826" y1="-21.8176" x2="222.508" y2="59.7689" gradientUnits="userSpaceOnUse">
<stop stop-color="#37C8EE"/>
<stop offset="0.76891" stop-color="#91E8FF"/>
</linearGradient>
<linearGradient id="paint10_linear_70_99" x1="137.545" y1="22.858" x2="290.402" y2="103.835" gradientUnits="userSpaceOnUse">
<stop stop-color="#37C8EE"/>
<stop offset="0.76891" stop-color="#91E8FF"/>
</linearGradient>
<linearGradient id="paint11_linear_70_99" x1="126.601" y1="-35.0661" x2="279.458" y2="45.9108" gradientUnits="userSpaceOnUse">
<stop stop-color="#37C8EE"/>
<stop offset="0.76891" stop-color="#91E8FF"/>
</linearGradient>
<linearGradient id="paint12_linear_70_99" x1="78.5575" y1="36.588" x2="231.414" y2="117.565" gradientUnits="userSpaceOnUse">
<stop stop-color="#37C8EE"/>
<stop offset="0.76891" stop-color="#91E8FF"/>
</linearGradient>
<linearGradient id="paint13_linear_70_99" x1="146.213" y1="80.186" x2="299.039" y2="161.773" gradientUnits="userSpaceOnUse">
<stop stop-color="#37C8EE"/>
<stop offset="0.76891" stop-color="#91E8FF"/>
</linearGradient>
<linearGradient id="paint14_linear_70_99" x1="204.237" y1="66.6805" x2="357.094" y2="147.657" gradientUnits="userSpaceOnUse">
<stop stop-color="#37C8EE"/>
<stop offset="0.76891" stop-color="#91E8FF"/>
</linearGradient>
<linearGradient id="paint15_linear_70_99" x1="195.825" y1="9.29255" x2="348.682" y2="90.2694" gradientUnits="userSpaceOnUse">
<stop stop-color="#37C8EE"/>
<stop offset="0.76891" stop-color="#91E8FF"/>
</linearGradient>
</defs>
</svg>
