<svg width="211" height="623" viewBox="0 0 211 623" fill="none" xmlns="http://www.w3.org/2000/svg">
<g filter="url(#filter0_f_70_182)">
<path d="M-0.569975 132.409L-0.59263 132.437L-0.61355 132.467L-21.5862 161.751C-22.2991 162.646 -23.1961 163.302 -24.2957 163.596L-58.5987 172.765C-59.6983 173.059 -60.4602 172.846 -60.9447 172.27L-74.195 152.212C-74.3491 151.546 -74.1963 150.563 -73.813 149.754L-52.9099 120.567C-52.197 119.672 -51.3 119.015 -50.2004 118.721L-15.8973 109.553C-14.7977 109.259 -14.0359 109.472 -13.5514 110.047L-0.257015 130.172L-0.243754 130.192L-0.228457 130.211C0.195584 130.727 0.0580743 131.612 -0.569975 132.409Z" stroke="url(#paint0_linear_70_182)" stroke-width="2"/>
<path opacity="0.4" d="M131.073 -40.3187L131.085 -40.2977L131.099 -40.2779L144.896 -20.3979C145.252 -19.7317 145.166 -18.9448 144.484 -18.0358L123.168 10.3749C122.486 11.2839 121.541 11.871 120.44 12.198L85.4653 20.671C84.5664 20.7239 83.5917 20.4971 83.0278 20.1036L69.2763 0.289075C68.9202 -0.377143 69.0064 -1.16402 69.6884 -2.07309L91.004 -30.4837C91.6861 -31.3928 92.6307 -31.9798 93.7319 -32.3069L128.822 -40.8078L128.857 -40.8163L128.892 -40.8265C129.871 -41.1118 130.75 -40.9073 131.073 -40.3187Z" stroke="url(#paint1_linear_70_182)" stroke-width="2"/>
<path d="M63.3012 4.37677L63.3128 4.39792L63.3264 4.41772L77.0188 24.2733C77.3711 24.9378 77.284 25.7244 76.6007 26.6351L55.2851 55.0458C54.6018 55.9565 53.6582 56.5437 52.5618 56.871L17.6922 65.368C16.7985 65.4214 15.8302 65.196 15.2705 64.8043L1.62344 45.0145C1.27115 44.3501 1.35829 43.5635 2.04157 42.6527L23.3572 14.2421C24.0404 13.3314 24.9841 12.7441 26.0804 12.4168L61.0661 3.8916L61.101 3.8831L61.1361 3.87281C62.1096 3.58765 62.9814 3.79057 63.3012 4.37677Z" stroke="url(#paint2_linear_70_182)" stroke-width="2"/>
<path d="M74.2456 -53.5473L74.2571 -53.5262L74.2707 -53.5063L87.9632 -33.6508C88.3155 -32.9863 88.2283 -32.1997 87.545 -31.289L66.2294 -2.87831C65.5462 -1.96759 64.6025 -1.38034 63.5062 -1.05306L28.6365 7.4439C27.7429 7.49731 26.7745 7.27192 26.2148 6.88021L12.5678 -12.9095C12.2155 -13.574 12.3026 -14.3606 12.9859 -15.2713L34.3015 -43.682C34.9848 -44.5927 35.9284 -45.18 37.0248 -45.5072L72.0104 -54.0325L72.0453 -54.041L72.0804 -54.0513C73.054 -54.3364 73.9258 -54.1335 74.2456 -53.5473Z" stroke="url(#paint3_linear_70_182)" stroke-width="2"/>
<path d="M122.289 18.1068L122.301 18.1279L122.314 18.1477L136.007 38.0033C136.359 38.6678 136.272 39.4544 135.588 40.3651L114.273 68.7757C113.59 69.6865 112.646 70.2737 111.55 70.601L76.68 79.098C75.7863 79.1514 74.818 78.926 74.2583 78.5343L60.6112 58.7445C60.2589 58.08 60.3461 57.2934 61.0294 56.3827L82.345 27.9721C83.0282 27.0613 83.9719 26.4741 85.0682 26.1468L120.054 17.6216L120.089 17.6131L120.124 17.6028C121.097 17.3176 121.969 17.5205 122.289 18.1068Z" stroke="url(#paint4_linear_70_182)" stroke-width="2"/>
<path d="M54.5432 61.6849L54.5548 61.706L54.5685 61.7257L68.3654 81.6057C68.7214 82.2719 68.6353 83.0588 67.9532 83.9679L46.6376 112.379C45.9556 113.288 45.0109 113.875 43.9097 114.202L8.93502 122.675C8.03615 122.728 7.06142 122.501 6.4975 122.107L-7.254 102.293C-7.61003 101.627 -7.52388 100.84 -6.84184 99.9306L14.4738 71.5199C15.1558 70.6109 16.1005 70.0238 17.2017 69.6968L52.2919 61.1958L52.3267 61.1874L52.3618 61.1772C53.341 60.8918 54.2197 61.0964 54.5432 61.6849Z" stroke="url(#paint5_linear_70_182)" stroke-width="2"/>
<path opacity="0.5" d="M-3.39043 48.1993L-3.3789 48.2204L-3.36524 48.2402L10.3272 68.0958C10.6795 68.7603 10.5923 69.5469 9.90905 70.4576L-11.4065 98.8683C-12.0898 99.779 -13.0335 100.366 -14.1298 100.694L-48.9995 109.19C-49.8931 109.244 -50.8615 109.018 -51.4212 108.627L-65.0682 88.837C-65.4205 88.1726 -65.3334 87.386 -64.6501 86.4752L-43.3345 58.0646C-42.6512 57.1539 -41.7076 56.5666 -40.6112 56.2393L-5.6256 47.7141L-5.5907 47.7056L-5.55558 47.6953C-4.58202 47.4102 -3.71023 47.6131 -3.39043 48.1993Z" stroke="url(#paint6_linear_70_182)" stroke-width="2"/>
<path opacity="0.2" d="M5.02167 -9.18866L5.03321 -9.16751L5.04687 -9.1477L18.7393 10.7079C19.0916 11.3723 19.0044 12.159 18.3212 13.0697L-2.99444 41.4803C-3.67772 42.3911 -4.62135 42.9783 -5.71772 43.3056L-40.5874 51.8025C-41.481 51.856 -42.4494 51.6306 -43.0091 51.2389L-56.6561 31.4491C-57.0084 30.7846 -56.9213 29.998 -56.238 29.0873L-34.9224 0.676649C-34.2391 -0.234069 -33.2955 -0.821327 -32.1991 -1.1486L2.78651 -9.67383L2.82141 -9.68233L2.85653 -9.69262C3.83009 -9.97778 4.70187 -9.77486 5.02167 -9.18866Z" stroke="url(#paint7_linear_70_182)" stroke-width="2"/>
</g>
<path d="M-0.569975 132.409L-0.59263 132.437L-0.61355 132.467L-21.5862 161.751C-22.2991 162.646 -23.1961 163.302 -24.2957 163.596L-58.5987 172.765C-59.6983 173.059 -60.4602 172.846 -60.9447 172.27L-74.195 152.212C-74.3491 151.546 -74.1963 150.563 -73.813 149.754L-52.9099 120.567C-52.197 119.672 -51.3 119.015 -50.2004 118.721L-15.8973 109.553C-14.7977 109.259 -14.0359 109.472 -13.5514 110.047L-0.257015 130.172L-0.243754 130.192L-0.228457 130.211C0.195584 130.727 0.0580743 131.612 -0.569975 132.409Z" stroke="url(#paint8_linear_70_182)" stroke-width="2"/>
<path opacity="0.4" d="M131.073 -40.3187L131.085 -40.2977L131.099 -40.2779L144.896 -20.3979C145.252 -19.7317 145.166 -18.9448 144.484 -18.0358L123.168 10.3749C122.486 11.2839 121.541 11.871 120.44 12.198L85.4653 20.671C84.5664 20.7239 83.5917 20.4971 83.0278 20.1036L69.2763 0.289075C68.9202 -0.377143 69.0064 -1.16402 69.6884 -2.07309L91.004 -30.4837C91.6861 -31.3928 92.6307 -31.9798 93.7319 -32.3069L128.822 -40.8078L128.857 -40.8163L128.892 -40.8265C129.871 -41.1118 130.75 -40.9073 131.073 -40.3187Z" stroke="url(#paint9_linear_70_182)" stroke-width="2"/>
<path d="M63.3012 4.37677L63.3128 4.39792L63.3264 4.41772L77.0188 24.2733C77.3711 24.9378 77.284 25.7244 76.6007 26.6351L55.2851 55.0458C54.6018 55.9565 53.6582 56.5437 52.5618 56.871L17.6922 65.368C16.7985 65.4214 15.8302 65.196 15.2705 64.8043L1.62344 45.0145C1.27115 44.3501 1.35829 43.5635 2.04157 42.6527L23.3572 14.2421C24.0404 13.3314 24.9841 12.7441 26.0804 12.4168L61.0661 3.8916L61.101 3.8831L61.1361 3.87281C62.1096 3.58765 62.9814 3.79057 63.3012 4.37677Z" stroke="url(#paint10_linear_70_182)" stroke-width="2"/>
<path d="M74.2456 -53.5473L74.2571 -53.5262L74.2707 -53.5063L87.9632 -33.6508C88.3155 -32.9863 88.2283 -32.1997 87.545 -31.289L66.2294 -2.87831C65.5462 -1.96759 64.6025 -1.38034 63.5062 -1.05306L28.6365 7.4439C27.7429 7.49731 26.7745 7.27192 26.2148 6.88021L12.5678 -12.9095C12.2155 -13.574 12.3026 -14.3606 12.9859 -15.2713L34.3015 -43.682C34.9848 -44.5927 35.9284 -45.18 37.0248 -45.5072L72.0104 -54.0325L72.0453 -54.041L72.0804 -54.0513C73.054 -54.3364 73.9258 -54.1335 74.2456 -53.5473Z" stroke="url(#paint11_linear_70_182)" stroke-width="2"/>
<path d="M122.289 18.1068L122.301 18.1279L122.314 18.1477L136.007 38.0033C136.359 38.6678 136.272 39.4544 135.588 40.3651L114.273 68.7757C113.59 69.6865 112.646 70.2737 111.55 70.601L76.68 79.098C75.7863 79.1514 74.818 78.926 74.2583 78.5343L60.6112 58.7445C60.2589 58.08 60.3461 57.2934 61.0294 56.3827L82.345 27.9721C83.0282 27.0613 83.9719 26.4741 85.0682 26.1468L120.054 17.6216L120.089 17.6131L120.124 17.6028C121.097 17.3176 121.969 17.5205 122.289 18.1068Z" stroke="url(#paint12_linear_70_182)" stroke-width="2"/>
<path d="M54.5432 61.6849L54.5548 61.706L54.5685 61.7257L68.3654 81.6057C68.7214 82.2719 68.6353 83.0588 67.9532 83.9679L46.6376 112.379C45.9556 113.288 45.0109 113.875 43.9097 114.202L8.93502 122.675C8.03615 122.728 7.06142 122.501 6.4975 122.107L-7.254 102.293C-7.61003 101.627 -7.52388 100.84 -6.84184 99.9306L14.4738 71.5199C15.1558 70.6109 16.1005 70.0238 17.2017 69.6968L52.2919 61.1958L52.3267 61.1874L52.3618 61.1772C53.341 60.8918 54.2197 61.0964 54.5432 61.6849Z" stroke="url(#paint13_linear_70_182)" stroke-width="2"/>
<path opacity="0.5" d="M-3.39043 48.1993L-3.3789 48.2204L-3.36524 48.2402L10.3272 68.0958C10.6795 68.7603 10.5923 69.5469 9.90905 70.4576L-11.4065 98.8683C-12.0898 99.779 -13.0335 100.366 -14.1298 100.694L-48.9995 109.19C-49.8931 109.244 -50.8615 109.018 -51.4212 108.627L-65.0682 88.837C-65.4205 88.1726 -65.3334 87.386 -64.6501 86.4752L-43.3345 58.0646C-42.6512 57.1539 -41.7076 56.5666 -40.6112 56.2393L-5.6256 47.7141L-5.5907 47.7056L-5.55558 47.6953C-4.58202 47.4102 -3.71023 47.6131 -3.39043 48.1993Z" stroke="url(#paint14_linear_70_182)" stroke-width="2"/>
<path opacity="0.2" d="M5.02167 -9.18866L5.03321 -9.16751L5.04687 -9.1477L18.7393 10.7079C19.0916 11.3723 19.0044 12.159 18.3212 13.0697L-2.99444 41.4803C-3.67772 42.3911 -4.62135 42.9783 -5.71772 43.3056L-40.5874 51.8025C-41.481 51.856 -42.4494 51.6306 -43.0091 51.2389L-56.6561 31.4491C-57.0084 30.7846 -56.9213 29.998 -56.238 29.0873L-34.9224 0.676649C-34.2391 -0.234069 -33.2955 -0.821327 -32.1991 -1.1486L2.78651 -9.67383L2.82141 -9.68233L2.85653 -9.69262C3.83009 -9.97778 4.70187 -9.77486 5.02167 -9.18866Z" stroke="url(#paint15_linear_70_182)" stroke-width="2"/>
<defs>
<filter id="filter0_f_70_182" x="-412.062" y="-83.5259" width="615.286" height="536.106" filterUnits="userSpaceOnUse" color-interpolation-filters="sRGB">
<feFlood flood-opacity="0" result="BackgroundImageFix"/>
<feBlend mode="normal" in="SourceGraphic" in2="BackgroundImageFix" result="shape"/>
<feGaussianBlur stdDeviation="7.5" result="effect1_foregroundBlur_70_182"/>
</filter>
<linearGradient id="paint0_linear_70_182" x1="-2.99948" y1="168.107" x2="-78.875" y2="153.949" gradientUnits="userSpaceOnUse">
<stop stop-color="#00A3FF"/>
<stop offset="1" stop-color="#18E6FE"/>
</linearGradient>
<linearGradient id="paint1_linear_70_182" x1="169.273" y1="-34.5932" x2="148.899" y2="42.0814" gradientUnits="userSpaceOnUse">
<stop stop-color="#00A3FF"/>
<stop offset="1" stop-color="#18E6FE"/>
</linearGradient>
<linearGradient id="paint2_linear_70_182" x1="101.349" y1="10.0681" x2="80.9638" y2="86.7441" gradientUnits="userSpaceOnUse">
<stop stop-color="#00A3FF"/>
<stop offset="1" stop-color="#18E6FE"/>
</linearGradient>
<linearGradient id="paint3_linear_70_182" x1="112.294" y1="-47.856" x2="91.9081" y2="28.82" gradientUnits="userSpaceOnUse">
<stop stop-color="#00A3FF"/>
<stop offset="1" stop-color="#18E6FE"/>
</linearGradient>
<linearGradient id="paint4_linear_70_182" x1="160.337" y1="23.798" x2="139.952" y2="100.474" gradientUnits="userSpaceOnUse">
<stop stop-color="#00A3FF"/>
<stop offset="1" stop-color="#18E6FE"/>
</linearGradient>
<linearGradient id="paint5_linear_70_182" x1="92.7431" y1="67.4104" x2="72.3691" y2="144.085" gradientUnits="userSpaceOnUse">
<stop stop-color="#00A3FF"/>
<stop offset="1" stop-color="#18E6FE"/>
</linearGradient>
<linearGradient id="paint6_linear_70_182" x1="34.6576" y1="53.8906" x2="14.2721" y2="130.567" gradientUnits="userSpaceOnUse">
<stop stop-color="#00A3FF"/>
<stop offset="1" stop-color="#18E6FE"/>
</linearGradient>
<linearGradient id="paint7_linear_70_182" x1="43.0697" y1="-3.49738" x2="22.6842" y2="73.1787" gradientUnits="userSpaceOnUse">
<stop stop-color="#00A3FF"/>
<stop offset="1" stop-color="#18E6FE"/>
</linearGradient>
<linearGradient id="paint8_linear_70_182" x1="-22.5819" y1="159.407" x2="-111.49" y2="88.5793" gradientUnits="userSpaceOnUse">
<stop stop-color="#37C8EE"/>
<stop offset="0.76891" stop-color="#91E8FF"/>
</linearGradient>
<linearGradient id="paint9_linear_70_182" x1="141.317" y1="-19.8516" x2="-11.5089" y2="61.735" gradientUnits="userSpaceOnUse">
<stop stop-color="#37C8EE"/>
<stop offset="0.76891" stop-color="#91E8FF"/>
</linearGradient>
<linearGradient id="paint10_linear_70_182" x1="73.4542" y1="24.824" x2="-79.4023" y2="105.801" gradientUnits="userSpaceOnUse">
<stop stop-color="#37C8EE"/>
<stop offset="0.76891" stop-color="#91E8FF"/>
</linearGradient>
<linearGradient id="paint11_linear_70_182" x1="84.3986" y1="-33.1" x2="-68.458" y2="47.8769" gradientUnits="userSpaceOnUse">
<stop stop-color="#37C8EE"/>
<stop offset="0.76891" stop-color="#91E8FF"/>
</linearGradient>
<linearGradient id="paint12_linear_70_182" x1="132.442" y1="38.554" x2="-20.4145" y2="119.531" gradientUnits="userSpaceOnUse">
<stop stop-color="#37C8EE"/>
<stop offset="0.76891" stop-color="#91E8FF"/>
</linearGradient>
<linearGradient id="paint13_linear_70_182" x1="64.7866" y1="82.1521" x2="-88.0392" y2="163.739" gradientUnits="userSpaceOnUse">
<stop stop-color="#37C8EE"/>
<stop offset="0.76891" stop-color="#91E8FF"/>
</linearGradient>
<linearGradient id="paint14_linear_70_182" x1="6.7626" y1="68.6466" x2="-146.094" y2="149.623" gradientUnits="userSpaceOnUse">
<stop stop-color="#37C8EE"/>
<stop offset="0.76891" stop-color="#91E8FF"/>
</linearGradient>
<linearGradient id="paint15_linear_70_182" x1="15.1747" y1="11.2586" x2="-137.682" y2="92.2355" gradientUnits="userSpaceOnUse">
<stop stop-color="#37C8EE"/>
<stop offset="0.76891" stop-color="#91E8FF"/>
</linearGradient>
</defs>
</svg>
