<svg width="360" height="800" viewBox="0 0 360 800" fill="none" xmlns="http://www.w3.org/2000/svg">
<g clip-path="url(#clip0_70_16)">
<g filter="url(#filter0_f_70_16)">
<path opacity="0.9" d="M114.633 20.1367L115.343 20.3792C115.371 20.3907 115.392 20.412 115.399 20.4444L115.539 21.1751C115.545 21.2076 115.533 21.2351 115.512 21.2561L114.941 21.7442C114.92 21.7652 114.887 21.7715 114.859 21.76L114.149 21.5174C114.121 21.5059 114.1 21.4847 114.093 21.4522L113.953 20.7215C113.947 20.689 113.959 20.6615 113.98 20.6405L114.551 20.1524C114.574 20.1396 114.607 20.1333 114.633 20.1367Z" fill="white"/>
<path opacity="0.9" d="M147.049 52.9738L147.759 53.2164C147.787 53.2279 147.808 53.2491 147.815 53.2816L147.955 54.0123C147.961 54.0448 147.949 54.0723 147.928 54.0932L147.357 54.5814C147.336 54.6023 147.303 54.6086 147.275 54.5971L146.565 54.3546C146.537 54.343 146.516 54.3218 146.509 54.2894L146.369 53.5586C146.363 53.5262 146.375 53.4987 146.396 53.4777L146.967 52.9896C146.99 52.9767 147.023 52.9704 147.049 52.9738Z" fill="white"/>
<path opacity="0.9" d="M14.4654 53.7149L14.8973 53.8623C14.9141 53.8693 14.9269 53.8822 14.9307 53.9019L15.0159 54.346C15.0196 54.3658 15.0125 54.3825 14.9994 54.3952L14.6527 54.6919C14.6397 54.7046 14.6197 54.7084 14.6028 54.7014L14.171 54.554C14.1542 54.547 14.1413 54.5341 14.1376 54.5144L14.0524 54.0703C14.0486 54.0506 14.0558 54.0339 14.0689 54.0211L14.4155 53.7245C14.4296 53.7167 14.4495 53.7128 14.4654 53.7149Z" fill="white"/>
<path opacity="0.9" d="M87.6764 50.5748L88.1082 50.7222C88.1251 50.7292 88.1379 50.7421 88.1417 50.7618L88.2268 51.2059C88.2306 51.2256 88.2234 51.2423 88.2104 51.2551L87.8637 51.5517C87.8506 51.5645 87.8306 51.5683 87.8138 51.5613L87.382 51.4139C87.3651 51.4069 87.3523 51.394 87.3485 51.3743L87.2634 50.9302C87.2596 50.9105 87.2667 50.8937 87.2798 50.881L87.6265 50.5843C87.6405 50.5765 87.6605 50.5727 87.6764 50.5748Z" fill="white"/>
<path opacity="0.9" d="M72.7421 184.832L72.4788 185.535C72.4665 185.562 72.4447 185.583 72.412 185.588L71.6775 185.707C71.6449 185.712 71.6178 185.699 71.5974 185.677L71.1262 185.093C71.1059 185.071 71.1006 185.038 71.1129 185.01L71.3762 184.307C71.3885 184.28 71.4103 184.259 71.4429 184.254L72.1774 184.135C72.2101 184.13 72.2372 184.143 72.2575 184.165L72.7288 184.749C72.7409 184.773 72.7463 184.806 72.7421 184.832Z" fill="white"/>
<path opacity="0.9" d="M38.9696 216.272L38.7064 216.975C38.694 217.002 38.6722 217.023 38.6396 217.028L37.9051 217.147C37.8724 217.152 37.8453 217.14 37.825 217.117L37.3538 216.533C37.3334 216.511 37.3281 216.478 37.3404 216.45L37.6037 215.747C37.616 215.72 37.6378 215.699 37.6705 215.694L38.405 215.576C38.4376 215.57 38.4648 215.583 38.4851 215.605L38.9563 216.189C38.9685 216.213 38.9738 216.246 38.9696 216.272Z" fill="white"/>
<path opacity="0.9" d="M42.1127 83.7237L41.9527 84.151C41.9452 84.1676 41.9319 84.1801 41.9121 84.1833L41.4657 84.2553C41.4459 84.2586 41.4294 84.2509 41.417 84.2375L41.1306 83.8823C41.1183 83.8688 41.115 83.8487 41.1225 83.8321L41.2825 83.4048C41.29 83.3881 41.3033 83.3757 41.3231 83.3725L41.7695 83.3004C41.7893 83.2972 41.8058 83.3048 41.8182 83.3183L42.1046 83.6735C42.112 83.6877 42.1152 83.7078 42.1127 83.7237Z" fill="white"/>
<path opacity="0.9" d="M43.1071 156.995L42.9471 157.422C42.9396 157.439 42.9263 157.452 42.9065 157.455L42.4601 157.527C42.4402 157.53 42.4237 157.522 42.4114 157.509L42.125 157.154C42.1127 157.14 42.1094 157.12 42.1169 157.104L42.2769 156.676C42.2844 156.66 42.2977 156.647 42.3175 156.644L42.7639 156.572C42.7837 156.569 42.8002 156.576 42.8126 156.59L43.099 156.945C43.1063 156.959 43.1096 156.979 43.1071 156.995Z" fill="white"/>
<path opacity="0.9" d="M57.9706 381.118L57.7073 381.821C57.695 381.849 57.6732 381.869 57.6406 381.874L56.9061 381.993C56.8734 381.998 56.8463 381.986 56.8259 381.964L56.3547 381.379C56.3344 381.357 56.3291 381.324 56.3414 381.297L56.6047 380.593C56.617 380.566 56.6388 380.546 56.6715 380.54L57.4059 380.422C57.4386 380.416 57.4657 380.429 57.4861 380.451L57.9573 381.036C57.9694 381.059 57.9748 381.092 57.9706 381.118Z" fill="white"/>
<path opacity="0.9" d="M24.1982 412.558L23.9349 413.261C23.9226 413.289 23.9007 413.309 23.8681 413.315L23.1336 413.433C23.101 413.438 23.0738 413.426 23.0535 413.404L22.5823 412.819C22.5619 412.797 22.5566 412.764 22.5689 412.737L22.8322 412.034C22.8445 412.006 22.8663 411.986 22.899 411.981L23.6335 411.862C23.6661 411.857 23.6933 411.869 23.7136 411.891L24.1848 412.476C24.197 412.499 24.2023 412.532 24.1982 412.558Z" fill="white"/>
<path opacity="0.9" d="M27.3405 280.01L27.1805 280.437C27.173 280.454 27.1597 280.466 27.1399 280.47L26.6935 280.542C26.6736 280.545 26.6571 280.537 26.6448 280.524L26.3584 280.169C26.3461 280.155 26.3428 280.135 26.3503 280.118L26.5103 279.691C26.5178 279.675 26.5311 279.662 26.5509 279.659L26.9973 279.587C27.0171 279.584 27.0336 279.591 27.046 279.605L27.3324 279.96C27.3397 279.974 27.343 279.994 27.3405 280.01Z" fill="white"/>
<path opacity="0.9" d="M28.3351 353.282L28.1751 353.709C28.1676 353.726 28.1543 353.738 28.1345 353.741L27.6881 353.813C27.6683 353.817 27.6518 353.809 27.6394 353.796L27.353 353.44C27.3407 353.427 27.3375 353.407 27.3449 353.39L27.5049 352.963C27.5124 352.946 27.5257 352.934 27.5455 352.931L27.9919 352.859C28.0118 352.855 28.0283 352.863 28.0406 352.876L28.327 353.232C28.3344 353.246 28.3376 353.266 28.3351 353.282Z" fill="white"/>
</g>
<path opacity="0.9" d="M114.633 20.1367L115.343 20.3792C115.371 20.3907 115.392 20.412 115.399 20.4444L115.539 21.1751C115.545 21.2076 115.533 21.2351 115.512 21.2561L114.941 21.7442C114.92 21.7652 114.887 21.7715 114.859 21.76L114.149 21.5174C114.121 21.5059 114.1 21.4847 114.093 21.4522L113.953 20.7215C113.947 20.689 113.959 20.6615 113.98 20.6405L114.551 20.1524C114.574 20.1396 114.607 20.1333 114.633 20.1367Z" fill="white"/>
<path opacity="0.9" d="M147.049 52.9738L147.759 53.2164C147.787 53.2279 147.808 53.2491 147.815 53.2816L147.955 54.0123C147.961 54.0448 147.949 54.0723 147.928 54.0932L147.357 54.5814C147.336 54.6023 147.303 54.6086 147.275 54.5971L146.565 54.3546C146.537 54.343 146.516 54.3218 146.509 54.2894L146.369 53.5586C146.363 53.5262 146.375 53.4987 146.396 53.4777L146.967 52.9896C146.99 52.9767 147.023 52.9704 147.049 52.9738Z" fill="white"/>
<path opacity="0.9" d="M14.4654 53.7149L14.8973 53.8623C14.9141 53.8693 14.9269 53.8822 14.9307 53.9019L15.0159 54.346C15.0196 54.3658 15.0125 54.3825 14.9994 54.3952L14.6527 54.6919C14.6397 54.7046 14.6197 54.7084 14.6028 54.7014L14.171 54.554C14.1542 54.547 14.1413 54.5341 14.1376 54.5144L14.0524 54.0703C14.0486 54.0506 14.0558 54.0339 14.0689 54.0211L14.4155 53.7245C14.4296 53.7167 14.4495 53.7128 14.4654 53.7149Z" fill="white"/>
<path opacity="0.9" d="M87.6764 50.5748L88.1082 50.7222C88.1251 50.7292 88.1379 50.7421 88.1417 50.7618L88.2268 51.2059C88.2306 51.2256 88.2234 51.2423 88.2104 51.2551L87.8637 51.5517C87.8506 51.5645 87.8306 51.5683 87.8138 51.5613L87.382 51.4139C87.3651 51.4069 87.3523 51.394 87.3485 51.3743L87.2634 50.9302C87.2596 50.9105 87.2667 50.8937 87.2798 50.881L87.6265 50.5843C87.6405 50.5765 87.6605 50.5727 87.6764 50.5748Z" fill="white"/>
<path opacity="0.9" d="M72.7421 184.832L72.4788 185.535C72.4665 185.562 72.4447 185.583 72.412 185.588L71.6775 185.707C71.6449 185.712 71.6178 185.699 71.5974 185.677L71.1262 185.093C71.1059 185.071 71.1006 185.038 71.1129 185.01L71.3762 184.307C71.3885 184.28 71.4103 184.259 71.4429 184.254L72.1774 184.135C72.2101 184.13 72.2372 184.143 72.2575 184.165L72.7288 184.749C72.7409 184.773 72.7463 184.806 72.7421 184.832Z" fill="white"/>
<path opacity="0.9" d="M38.9696 216.272L38.7064 216.975C38.694 217.002 38.6722 217.023 38.6396 217.028L37.9051 217.147C37.8724 217.152 37.8453 217.14 37.825 217.117L37.3538 216.533C37.3334 216.511 37.3281 216.478 37.3404 216.45L37.6037 215.747C37.616 215.72 37.6378 215.699 37.6705 215.694L38.405 215.576C38.4376 215.57 38.4648 215.583 38.4851 215.605L38.9563 216.189C38.9685 216.213 38.9738 216.246 38.9696 216.272Z" fill="white"/>
<path opacity="0.9" d="M42.1127 83.7237L41.9527 84.151C41.9452 84.1676 41.9319 84.1801 41.9121 84.1833L41.4657 84.2553C41.4459 84.2586 41.4294 84.2509 41.417 84.2375L41.1306 83.8823C41.1183 83.8688 41.115 83.8487 41.1225 83.8321L41.2825 83.4048C41.29 83.3881 41.3033 83.3757 41.3231 83.3725L41.7695 83.3004C41.7893 83.2972 41.8058 83.3048 41.8182 83.3183L42.1046 83.6735C42.112 83.6877 42.1152 83.7078 42.1127 83.7237Z" fill="white"/>
<path opacity="0.9" d="M43.1071 156.995L42.9471 157.422C42.9396 157.439 42.9263 157.452 42.9065 157.455L42.4601 157.527C42.4402 157.53 42.4237 157.522 42.4114 157.509L42.125 157.154C42.1127 157.14 42.1094 157.12 42.1169 157.104L42.2769 156.676C42.2844 156.66 42.2977 156.647 42.3175 156.644L42.7639 156.572C42.7837 156.569 42.8002 156.576 42.8126 156.59L43.099 156.945C43.1063 156.959 43.1096 156.979 43.1071 156.995Z" fill="white"/>
<path opacity="0.9" d="M57.9706 381.118L57.7073 381.821C57.695 381.849 57.6732 381.869 57.6406 381.874L56.9061 381.993C56.8734 381.998 56.8463 381.986 56.8259 381.964L56.3547 381.379C56.3344 381.357 56.3291 381.324 56.3414 381.297L56.6047 380.593C56.617 380.566 56.6388 380.546 56.6715 380.54L57.4059 380.422C57.4386 380.416 57.4657 380.429 57.4861 380.451L57.9573 381.036C57.9694 381.059 57.9748 381.092 57.9706 381.118Z" fill="white"/>
<path opacity="0.9" d="M24.1982 412.558L23.9349 413.261C23.9226 413.289 23.9007 413.309 23.8681 413.315L23.1336 413.433C23.101 413.438 23.0738 413.426 23.0535 413.404L22.5823 412.819C22.5619 412.797 22.5566 412.764 22.5689 412.737L22.8322 412.034C22.8445 412.006 22.8663 411.986 22.899 411.981L23.6335 411.862C23.6661 411.857 23.6933 411.869 23.7136 411.891L24.1848 412.476C24.197 412.499 24.2023 412.532 24.1982 412.558Z" fill="white"/>
<path opacity="0.9" d="M27.3405 280.01L27.1805 280.437C27.173 280.454 27.1597 280.466 27.1399 280.47L26.6935 280.542C26.6736 280.545 26.6571 280.537 26.6448 280.524L26.3584 280.169C26.3461 280.155 26.3428 280.135 26.3503 280.118L26.5103 279.691C26.5178 279.675 26.5311 279.662 26.5509 279.659L26.9973 279.587C27.0171 279.584 27.0336 279.591 27.046 279.605L27.3324 279.96C27.3397 279.974 27.343 279.994 27.3405 280.01Z" fill="white"/>
<path opacity="0.9" d="M28.3351 353.282L28.1751 353.709C28.1676 353.726 28.1543 353.738 28.1345 353.741L27.6881 353.813C27.6683 353.817 27.6518 353.809 27.6394 353.796L27.353 353.44C27.3407 353.427 27.3375 353.407 27.3449 353.39L27.5049 352.963C27.5124 352.946 27.5257 352.934 27.5455 352.931L27.9919 352.859C28.0118 352.855 28.0283 352.863 28.0406 352.876L28.327 353.232C28.3344 353.246 28.3376 353.266 28.3351 353.282Z" fill="white"/>
<g filter="url(#filter1_f_70_16)">
<path opacity="0.9" d="M112.034 734.867L112.736 735.133C112.763 735.146 112.784 735.167 112.789 735.2L112.905 735.935C112.91 735.968 112.897 735.995 112.875 736.015L112.289 736.484C112.267 736.504 112.234 736.51 112.207 736.497L111.504 736.232C111.477 736.219 111.457 736.197 111.452 736.165L111.335 735.43C111.33 735.397 111.343 735.37 111.365 735.35L111.951 734.88C111.975 734.868 112.008 734.863 112.034 734.867Z" fill="white"/>
<path opacity="0.9" d="M143.357 768.748L144.059 769.014C144.087 769.026 144.107 769.048 144.112 769.081L144.228 769.816C144.233 769.848 144.221 769.875 144.199 769.896L143.612 770.365C143.59 770.385 143.557 770.39 143.53 770.378L142.828 770.112C142.8 770.1 142.78 770.078 142.775 770.045L142.659 769.31C142.654 769.278 142.666 769.251 142.688 769.23L143.274 768.761C143.298 768.749 143.331 768.744 143.357 768.748Z" fill="white"/>
<path opacity="0.9" d="M10.8206 765.148L11.2473 765.309C11.264 765.317 11.2764 765.33 11.2795 765.35L11.35 765.796C11.3532 765.816 11.3455 765.833 11.332 765.845L10.9758 766.13C10.9623 766.142 10.9422 766.146 10.9256 766.138L10.4989 765.977C10.4822 765.969 10.4698 765.956 10.4667 765.936L10.3962 765.489C10.393 765.469 10.4007 765.453 10.4142 765.441L10.7704 765.155C10.7847 765.148 10.8048 765.145 10.8206 765.148Z" fill="white"/>
<path opacity="0.9" d="M84.095 764.406L84.5218 764.568C84.5384 764.575 84.5508 764.588 84.5539 764.608L84.6245 765.055C84.6276 765.075 84.6199 765.091 84.6064 765.104L84.2502 765.389C84.2367 765.401 84.2167 765.404 84.2 765.397L83.7733 765.235C83.7567 765.228 83.7443 765.214 83.7411 765.194L83.6706 764.748C83.6674 764.728 83.6751 764.711 83.6886 764.699L84.0448 764.414C84.0591 764.407 84.0792 764.404 84.095 764.406Z" fill="white"/>
<path opacity="0.9" d="M308.268 750.316L308.97 750.582C308.998 750.594 309.018 750.616 309.023 750.649L309.139 751.383C309.145 751.416 309.132 751.443 309.11 751.463L308.524 751.933C308.501 751.953 308.468 751.958 308.441 751.946L307.739 751.68C307.711 751.668 307.691 751.646 307.686 751.613L307.57 750.878C307.565 750.846 307.577 750.818 307.599 750.798L308.186 750.329C308.209 750.317 308.242 750.312 308.268 750.316Z" fill="white"/>
<path opacity="0.9" d="M339.591 784.197L340.294 784.462C340.321 784.475 340.341 784.497 340.347 784.529L340.463 785.264C340.468 785.297 340.455 785.324 340.433 785.344L339.847 785.813C339.825 785.834 339.792 785.839 339.764 785.826L339.062 785.561C339.035 785.548 339.014 785.526 339.009 785.494L338.893 784.759C338.888 784.726 338.901 784.699 338.923 784.679L339.509 784.21C339.532 784.197 339.565 784.192 339.591 784.197Z" fill="white"/>
<path opacity="0.9" d="M207.055 780.597L207.482 780.758C207.498 780.766 207.511 780.779 207.514 780.799L207.584 781.246C207.588 781.266 207.58 781.282 207.566 781.294L207.21 781.58C207.197 781.592 207.177 781.595 207.16 781.588L206.733 781.426C206.717 781.419 206.704 781.405 206.701 781.385L206.631 780.939C206.627 780.919 206.635 780.902 206.649 780.89L207.005 780.605C207.019 780.598 207.039 780.594 207.055 780.597Z" fill="white"/>
<path opacity="0.9" d="M280.329 779.855L280.756 780.017C280.773 780.024 280.785 780.038 280.788 780.057L280.859 780.504C280.862 780.524 280.854 780.54 280.841 780.553L280.485 780.838C280.471 780.85 280.451 780.853 280.434 780.846L280.008 780.684C279.991 780.677 279.979 780.664 279.976 780.644L279.905 780.197C279.902 780.177 279.909 780.161 279.923 780.148L280.279 779.863C280.293 779.856 280.314 779.853 280.329 779.855Z" fill="white"/>
</g>
<path opacity="0.9" d="M112.034 734.867L112.736 735.133C112.763 735.146 112.784 735.167 112.789 735.2L112.905 735.935C112.91 735.968 112.897 735.995 112.875 736.015L112.289 736.484C112.267 736.504 112.234 736.51 112.207 736.497L111.504 736.232C111.477 736.219 111.457 736.197 111.452 736.165L111.335 735.43C111.33 735.397 111.343 735.37 111.365 735.35L111.951 734.88C111.975 734.868 112.008 734.863 112.034 734.867Z" fill="white"/>
<path opacity="0.9" d="M143.357 768.748L144.059 769.014C144.087 769.026 144.107 769.048 144.112 769.081L144.228 769.816C144.233 769.848 144.221 769.875 144.199 769.896L143.612 770.365C143.59 770.385 143.557 770.39 143.53 770.378L142.828 770.112C142.8 770.1 142.78 770.078 142.775 770.045L142.659 769.31C142.654 769.278 142.666 769.251 142.688 769.23L143.274 768.761C143.298 768.749 143.331 768.744 143.357 768.748Z" fill="white"/>
<path opacity="0.9" d="M10.8206 765.148L11.2473 765.309C11.264 765.317 11.2764 765.33 11.2795 765.35L11.35 765.796C11.3532 765.816 11.3455 765.833 11.332 765.845L10.9758 766.13C10.9623 766.142 10.9422 766.146 10.9256 766.138L10.4989 765.977C10.4822 765.969 10.4698 765.956 10.4667 765.936L10.3962 765.489C10.393 765.469 10.4007 765.453 10.4142 765.441L10.7704 765.155C10.7847 765.148 10.8048 765.145 10.8206 765.148Z" fill="white"/>
<path opacity="0.9" d="M84.095 764.406L84.5218 764.568C84.5384 764.575 84.5508 764.588 84.5539 764.608L84.6245 765.055C84.6276 765.075 84.6199 765.091 84.6064 765.104L84.2502 765.389C84.2367 765.401 84.2167 765.404 84.2 765.397L83.7733 765.235C83.7567 765.228 83.7443 765.214 83.7411 765.194L83.6706 764.748C83.6674 764.728 83.6751 764.711 83.6886 764.699L84.0448 764.414C84.0591 764.407 84.0792 764.404 84.095 764.406Z" fill="white"/>
<path opacity="0.9" d="M308.268 750.316L308.97 750.582C308.998 750.594 309.018 750.616 309.023 750.649L309.139 751.383C309.145 751.416 309.132 751.443 309.11 751.463L308.524 751.933C308.501 751.953 308.468 751.958 308.441 751.946L307.739 751.68C307.711 751.668 307.691 751.646 307.686 751.613L307.57 750.878C307.565 750.846 307.577 750.818 307.599 750.798L308.186 750.329C308.209 750.317 308.242 750.312 308.268 750.316Z" fill="white"/>
<path opacity="0.9" d="M339.591 784.197L340.294 784.462C340.321 784.475 340.341 784.497 340.347 784.529L340.463 785.264C340.468 785.297 340.455 785.324 340.433 785.344L339.847 785.813C339.825 785.834 339.792 785.839 339.764 785.826L339.062 785.561C339.035 785.548 339.014 785.526 339.009 785.494L338.893 784.759C338.888 784.726 338.901 784.699 338.923 784.679L339.509 784.21C339.532 784.197 339.565 784.192 339.591 784.197Z" fill="white"/>
<path opacity="0.9" d="M207.055 780.597L207.482 780.758C207.498 780.766 207.511 780.779 207.514 780.799L207.584 781.246C207.588 781.266 207.58 781.282 207.566 781.294L207.21 781.58C207.197 781.592 207.177 781.595 207.16 781.588L206.733 781.426C206.717 781.419 206.704 781.405 206.701 781.385L206.631 780.939C206.627 780.919 206.635 780.902 206.649 780.89L207.005 780.605C207.019 780.598 207.039 780.594 207.055 780.597Z" fill="white"/>
<path opacity="0.9" d="M280.329 779.855L280.756 780.017C280.773 780.024 280.785 780.038 280.788 780.057L280.859 780.504C280.862 780.524 280.854 780.54 280.841 780.553L280.485 780.838C280.471 780.85 280.451 780.853 280.434 780.846L280.008 780.684C279.991 780.677 279.979 780.664 279.976 780.644L279.905 780.197C279.902 780.177 279.909 780.161 279.923 780.148L280.279 779.863C280.293 779.856 280.314 779.853 280.329 779.855Z" fill="white"/>
<g filter="url(#filter2_f_70_16)">
<path opacity="0.9" d="M290.408 266.137L289.698 266.379C289.67 266.391 289.649 266.412 289.642 266.444L289.502 267.175C289.496 267.208 289.508 267.235 289.529 267.256L290.1 267.744C290.121 267.765 290.154 267.771 290.182 267.76L290.893 267.517C290.92 267.506 290.941 267.485 290.948 267.452L291.088 266.721C291.094 266.689 291.082 266.662 291.061 266.641L290.49 266.152C290.467 266.14 290.434 266.133 290.408 266.137Z" fill="white"/>
<path opacity="0.9" d="M257.992 298.974L257.282 299.216C257.254 299.228 257.233 299.249 257.226 299.282L257.086 300.012C257.08 300.045 257.092 300.072 257.113 300.093L257.684 300.581C257.705 300.602 257.738 300.609 257.766 300.597L258.476 300.355C258.504 300.343 258.525 300.322 258.532 300.289L258.672 299.559C258.678 299.526 258.666 299.499 258.645 299.478L258.074 298.99C258.051 298.977 258.018 298.97 257.992 298.974Z" fill="white"/>
<path opacity="0.9" d="M317.365 296.575L316.933 296.722C316.916 296.729 316.903 296.742 316.899 296.762L316.814 297.206C316.81 297.226 316.818 297.242 316.831 297.255L317.177 297.552C317.19 297.564 317.21 297.568 317.227 297.561L317.659 297.414C317.676 297.407 317.689 297.394 317.693 297.374L317.778 296.93C317.781 296.91 317.774 296.894 317.761 296.881L317.415 296.584C317.401 296.577 317.381 296.573 317.365 296.575Z" fill="white"/>
<path opacity="0.9" d="M332.299 430.832L332.562 431.535C332.575 431.562 332.596 431.583 332.629 431.588L333.363 431.707C333.396 431.712 333.423 431.699 333.444 431.677L333.915 431.093C333.935 431.071 333.94 431.038 333.928 431.01L333.665 430.307C333.653 430.28 333.631 430.259 333.598 430.254L332.864 430.135C332.831 430.13 332.804 430.143 332.783 430.165L332.312 430.749C332.3 430.773 332.295 430.806 332.299 430.832Z" fill="white"/>
<path opacity="0.9" d="M347.07 627.118L347.334 627.821C347.346 627.849 347.368 627.869 347.4 627.874L348.135 627.993C348.168 627.998 348.195 627.986 348.215 627.964L348.686 627.379C348.707 627.357 348.712 627.324 348.7 627.297L348.436 626.593C348.424 626.566 348.402 626.546 348.37 626.54L347.635 626.422C347.602 626.416 347.575 626.429 347.555 626.451L347.084 627.036C347.072 627.059 347.066 627.092 347.07 627.118Z" fill="white"/>
</g>
<path opacity="0.9" d="M290.408 266.137L289.698 266.379C289.67 266.391 289.649 266.412 289.642 266.444L289.502 267.175C289.496 267.208 289.508 267.235 289.529 267.256L290.1 267.744C290.121 267.765 290.154 267.771 290.182 267.76L290.893 267.517C290.92 267.506 290.941 267.485 290.948 267.452L291.088 266.721C291.094 266.689 291.082 266.662 291.061 266.641L290.49 266.152C290.467 266.14 290.434 266.133 290.408 266.137Z" fill="white"/>
<path opacity="0.9" d="M257.992 298.974L257.282 299.216C257.254 299.228 257.233 299.249 257.226 299.282L257.086 300.012C257.08 300.045 257.092 300.072 257.113 300.093L257.684 300.581C257.705 300.602 257.738 300.609 257.766 300.597L258.476 300.355C258.504 300.343 258.525 300.322 258.532 300.289L258.672 299.559C258.678 299.526 258.666 299.499 258.645 299.478L258.074 298.99C258.051 298.977 258.018 298.97 257.992 298.974Z" fill="white"/>
<path opacity="0.9" d="M317.365 296.575L316.933 296.722C316.916 296.729 316.903 296.742 316.899 296.762L316.814 297.206C316.81 297.226 316.818 297.242 316.831 297.255L317.177 297.552C317.19 297.564 317.21 297.568 317.227 297.561L317.659 297.414C317.676 297.407 317.689 297.394 317.693 297.374L317.778 296.93C317.781 296.91 317.774 296.894 317.761 296.881L317.415 296.584C317.401 296.577 317.381 296.573 317.365 296.575Z" fill="white"/>
<path opacity="0.9" d="M332.299 430.832L332.562 431.535C332.575 431.562 332.596 431.583 332.629 431.588L333.363 431.707C333.396 431.712 333.423 431.699 333.444 431.677L333.915 431.093C333.935 431.071 333.94 431.038 333.928 431.01L333.665 430.307C333.653 430.28 333.631 430.259 333.598 430.254L332.864 430.135C332.831 430.13 332.804 430.143 332.783 430.165L332.312 430.749C332.3 430.773 332.295 430.806 332.299 430.832Z" fill="white"/>
<path opacity="0.9" d="M347.07 627.118L347.334 627.821C347.346 627.849 347.368 627.869 347.4 627.874L348.135 627.993C348.168 627.998 348.195 627.986 348.215 627.964L348.686 627.379C348.707 627.357 348.712 627.324 348.7 627.297L348.436 626.593C348.424 626.566 348.402 626.546 348.37 626.54L347.635 626.422C347.602 626.416 347.575 626.429 347.555 626.451L347.084 627.036C347.072 627.059 347.066 627.092 347.07 627.118Z" fill="white"/>
<g filter="url(#filter3_f_70_16)">
<path d="M15.3865 559.789H-44.4457L-35.779 801.401L5.33806 801.401L15.3865 559.789Z" fill="url(#paint0_radial_70_16)" fill-opacity="0.6"/>
</g>
<g filter="url(#filter4_f_70_16)">
<path d="M41.877 552.938H-70.9363L-54.5954 794.55L22.9307 794.55L41.877 552.938Z" fill="url(#paint1_radial_70_16)" fill-opacity="0.8"/>
</g>
<g filter="url(#filter5_f_70_16)">
<path d="M401.327 587.193H341.495L350.161 828.805L391.278 828.805L401.327 587.193Z" fill="url(#paint2_radial_70_16)" fill-opacity="0.6"/>
</g>
<g filter="url(#filter6_f_70_16)">
<path d="M427.817 547H315.004L331.345 788.612L408.871 788.612L427.817 547Z" fill="url(#paint3_radial_70_16)" fill-opacity="0.8"/>
</g>
<g filter="url(#filter7_f_70_16)">
<path d="M140.532 651.135H80.6996L89.3662 892.747L130.483 892.747L140.532 651.135Z" fill="url(#paint4_radial_70_16)" fill-opacity="0.6"/>
</g>
<g filter="url(#filter8_f_70_16)">
<path d="M167.022 610.943H54.2087L70.5496 852.555L148.076 852.555L167.022 610.943Z" fill="url(#paint5_radial_70_16)" fill-opacity="0.8"/>
</g>
<g filter="url(#filter9_f_70_16)">
<path d="M266.133 651.135H206.301L214.968 892.747L256.085 892.747L266.133 651.135Z" fill="url(#paint6_radial_70_16)" fill-opacity="0.6"/>
</g>
<g filter="url(#filter10_f_70_16)">
<path d="M292.624 610.943H179.811L196.152 852.555L273.678 852.555L292.624 610.943Z" fill="url(#paint7_radial_70_16)" fill-opacity="0.8"/>
</g>
<path d="M472.208 704.573L326.409 721.071L255.816 718.54L93.1584 718.54L62.5303 721.071L37.4016 718.54L-3.85852 718.54C-3.85852 718.54 -92.5708 711.647 -93.7482 712.826C-94.9257 713.998 -121.634 708.651 -121.634 708.651L-119.673 783.588L474.861 777.298L472.208 704.573Z" fill="url(#paint8_linear_70_16)"/>
<path opacity="0.31" d="M-45.0918 733.697L97.022 733.347L111.89 734.554L174.426 733.725L148.179 735.583C148.179 735.583 208.162 734.959 208.944 734.89C209.726 734.822 223.853 735.24 224.642 735.082C225.431 734.925 242.714 733.615 243.496 733.807C244.279 733.999 308.642 733.581 308.642 733.581C308.642 733.581 351.542 734.232 352.587 734.109C353.633 733.985 423.707 736.728 423.707 736.728L354.172 734.788C354.172 734.788 308.518 734.328 306.87 734.308C305.23 734.287 239.551 735.446 239.551 735.446L226.822 736.029C226.822 736.029 212.335 735.707 210.508 735.83C208.674 735.96 192.969 736.564 192.969 736.564L201.586 737.887C201.586 737.887 204.722 738.299 206.03 738.402C207.338 738.505 212.827 738.573 216.232 738.525C219.638 738.477 219.638 737.997 224.607 738.162C229.577 738.326 239.523 738.23 246.583 738.429C253.643 738.621 229.314 738.463 228.262 738.738C227.21 739.012 216.744 739.485 216.744 739.485L206.542 739.362C206.542 739.362 190.588 736.715 189.294 736.701C187.999 736.687 176.759 736.022 175.969 736.097C175.18 736.173 148.228 736.865 146.401 736.605C144.573 736.337 137.929 737.051 134.959 737.462C131.99 737.874 124.66 738.381 124.66 738.381C124.66 738.381 123.006 739.801 125.788 739.746C128.571 739.691 141.14 738.47 144.802 738.628C148.463 738.786 159.974 738.964 162.327 738.841C164.68 738.717 177.506 738.69 178.814 738.71C180.122 738.724 191.626 739.197 191.626 739.197L204.161 741.008C204.161 741.008 214.377 740.233 218.032 740.438C221.693 740.644 242.887 740.514 242.887 740.514L245.241 740.761C245.241 740.761 235.274 740.912 235.031 741.035C234.789 741.152 215.672 741.275 214.89 741.131C214.107 740.987 205.462 741.803 205.462 741.803L198.658 741.721L192.401 740.123L158.195 739.492L141.922 739.293L121.76 740.795L113.108 742.249L107.314 745.561L100.524 747.049L112.076 741.193L121.254 739.314L104.262 738.141L107.813 737.14L120.23 737.908L142.234 735.611L141.722 734.986L110.844 735.412L95.4023 736.001L88.5985 735.919L105.418 734.726L94.378 733.896L-67.2824 735.062L-45.0918 733.697Z" fill="#0054A5"/>
<path d="M538.428 712.794L392.678 729.25L322.108 726.725L159.504 726.725L128.886 729.25L103.766 726.725L62.5197 726.725C62.5197 726.725 -26.1631 719.85 -27.3402 721.026C-28.5173 722.195 -163.653 729.395 -163.653 729.395L-163.653 839.31L534.236 839.31L538.428 712.794Z" fill="url(#paint9_linear_70_16)"/>
<path opacity="0.58" d="M364.759 750.93L222.556 748.384L207.696 750.701L145.111 748.17L171.397 752.354C171.397 752.354 111.375 750.293 110.585 750.141C109.796 749.982 95.6698 750.674 94.8804 750.335C94.091 749.996 76.7796 747.063 75.9971 747.45C75.2146 747.838 10.809 746.136 10.809 746.136C10.809 746.136 -32.1027 746.931 -33.1552 746.669C-34.2077 746.406 -104.278 751.192 -104.278 751.192L-34.7202 748.066C-34.7202 748.066 10.9613 747.692 12.6025 747.678C14.2436 747.658 79.9788 750.902 79.9788 750.902L92.72 752.271C92.72 752.271 107.206 751.787 109.041 752.071C110.876 752.361 126.602 753.821 126.602 753.821L117.995 756.456C117.995 756.456 114.865 757.272 113.556 757.466C112.247 757.667 106.756 757.729 103.349 757.591C99.9423 757.445 99.9354 756.449 94.9635 756.733C89.9917 757.017 80.041 756.691 72.978 757.003C65.9149 757.314 90.2548 757.293 91.3143 757.874C92.3668 758.455 102.851 759.569 102.851 759.569L113.057 759.444C113.057 759.444 128.991 754.16 130.279 754.146C131.574 754.132 142.812 752.894 143.602 753.067C144.391 753.24 171.369 755.024 173.198 754.499C175.026 753.973 181.68 755.529 184.651 756.422C187.621 757.307 194.968 758.455 194.968 758.455C194.968 758.455 196.637 761.416 193.861 761.271C191.077 761.118 178.481 758.428 174.818 758.704C171.155 758.981 159.646 759.209 157.285 758.919C154.924 758.628 142.099 758.414 140.79 758.435C139.482 758.448 127.973 759.278 127.973 759.278L115.453 762.868C115.453 762.868 105.226 761.132 101.563 761.513C97.8996 761.893 76.6965 761.354 76.6965 761.354L74.3491 761.838C74.3491 761.838 84.3205 762.287 84.5698 762.536C84.819 762.785 103.945 763.277 104.727 762.993C105.51 762.709 114.165 764.515 114.165 764.515L120.972 764.432L127.211 761.194L161.433 760.323L177.712 760.122L197.905 763.498L206.581 766.624L212.425 773.569L219.239 776.737L207.606 764.439L198.396 760.427L215.382 758.213L211.823 756.097L199.414 757.535L177.366 752.479L177.872 751.185L208.769 752.465L224.232 753.883L231.039 753.8L214.198 751.116L225.229 749.539L366.158 753.454L364.759 750.93Z" fill="#0557A7"/>
<path d="M205.157 775.463C205.157 775.463 163.578 775.957 151.199 774.003C138.82 772.049 128.604 769.886 128.604 769.886L144.122 775.06L145.495 775.519L129.581 775.519C129.581 775.519 99.7157 772.758 99.1266 772.702C98.5374 772.647 75.1592 771.465 75.1592 771.465L73.3919 780.532L75.5543 788.612L79.2901 774.003L100.908 774.003C100.908 774.003 128.805 777.174 129.394 777.174C129.983 777.174 150.61 776.979 150.61 776.979L152.772 775.651L187.157 777.174C187.157 777.174 205.233 779.496 208.574 778.926C211.907 778.363 205.157 775.463 205.157 775.463Z" fill="#0557A7"/>
<path d="M37.3096 739.636L1.90733 736.088L-0.843665 737.859L-82.8114 737.859L5.04632 739.636L7.01429 739.636L22.7301 742.482L37.3096 739.636Z" fill="url(#paint10_linear_70_16)"/>
<path d="M608.106 696.302L607.542 696.302L410.558 697.038L395.268 695.837L369.338 702.299L250.693 698.311L220.546 697.301L199.572 700.333L252.726 790.143L254.033 790.249L269.164 799.464L264.407 791.059L281.02 792.367L298.961 806.262L297.571 793.664L321.622 795.555L322.313 801.41L374.114 806.553L374.242 799.692L441.965 805.009L442 811.883L465.578 811.548L466.673 806.949L475.207 807.616L475.219 808.354L482.841 808.22L497.716 809.387L496.788 811.543L568.15 817.146L567.772 814.884L571.185 815.156L571.478 817.408L571.811 815.204L582.514 816.047L599.391 737.062L606.735 702.706C607.385 701.586 607.777 700.419 607.871 699.229C607.917 698.705 607.884 698.171 607.812 697.643L608.106 696.302Z" fill="#ACCDFA"/>
<path d="M609 685.39L608.435 685.406L411.542 691.406L396.225 690.613L370.477 697.766L251.768 696.95L221.605 696.747L200.719 700.339L256.254 788.696L257.564 788.766L272.936 797.574L267.956 789.299L284.598 790.162L302.903 803.573L301.178 791.017L325.271 792.264L326.118 798.099L378.037 801.856L377.982 794.993L445.823 798.499L446.042 805.369L469.602 804.405L470.574 799.777L479.123 800.217L479.155 800.954L486.77 800.617L501.671 801.385L500.801 803.566L572.288 807.259L571.849 805.009L575.268 805.189L575.621 807.432L575.896 805.22L586.617 805.777L601.377 726.369L607.8 691.829C608.42 690.692 608.78 689.515 608.843 688.323C608.875 687.798 608.827 687.265 608.741 686.739L609 685.39Z" fill="url(#paint11_linear_70_16)"/>
<path d="M564.068 748.461L448.018 746.477L480.62 734.799L449.045 726.603L424.85 728.36L381.385 733.685L313.153 726.791L337.207 718.305L287.475 719.035L204.632 703.396L260.167 791.753L590.545 808.819L605.313 729.411C596.906 731.952 581.847 736.626 580.177 738.061C577.855 740.053 564.068 748.461 564.068 748.461Z" fill="url(#paint12_linear_70_16)"/>
<path d="M313.169 726.783L321.31 771.973L326.102 774.005L330.047 801.141L381.966 804.898L381.394 733.677L379.668 724.015L313.169 726.783Z" fill="url(#paint13_linear_70_16)"/>
<path d="M287.491 719.027L294.33 755.66L303.694 762.829L298.032 765.872L298.934 769.926L302.142 772.538L306.832 806.623L273.021 781.847L249.642 750.178L263.029 745.363L251.853 720.297L248.363 711.639L283.601 713.458L287.491 719.027Z" fill="url(#paint14_linear_70_16)"/>
<path d="M231.863 708.525L254.764 745.826L246.38 750.006L276.865 800.615L259.516 790.679L204.648 703.388L231.863 708.525Z" fill="url(#paint15_linear_70_16)"/>
<mask id="mask0_70_16" style="mask-type:alpha" maskUnits="userSpaceOnUse" x="302" y="733" width="8" height="28">
<path d="M305.223 733.301L302.737 748.084L309.2 760.766L309.835 748.453L305.223 733.301Z" fill="url(#paint16_linear_70_16)"/>
</mask>
<g mask="url(#mask0_70_16)">
<path d="M305.224 733.301L302.738 748.084L309.2 760.766L309.835 748.453L305.224 733.301Z" fill="url(#paint17_linear_70_16)"/>
</g>
<path d="M-254.107 701.782L-253.542 701.783L-56.5582 702.519L-41.2678 701.318L-15.3379 707.779L103.307 703.792L133.454 702.782L154.428 705.814L101.274 795.624L99.9666 795.729L84.8356 804.945L89.5928 796.54L72.9794 797.847L55.0393 811.743L56.4285 799.145L32.3773 801.036L31.6865 806.891L-20.1139 812.034L-20.2424 805.173L-87.9648 810.49L-88.0007 817.364L-111.578 817.029L-112.674 812.43L-121.208 813.097L-121.219 813.835L-128.841 813.701L-143.716 814.868L-142.788 817.024L-214.151 822.627L-213.772 820.365L-217.185 820.637L-217.478 822.889L-217.812 820.685L-228.514 821.528L-245.391 742.543L-252.735 708.187C-253.385 707.067 -253.777 705.9 -253.871 704.71C-253.917 704.186 -253.884 703.652 -253.812 703.124L-254.107 701.782Z" fill="#ACCDFA"/>
<path d="M-255 690.871L-254.435 690.887L-57.5417 696.887L-42.2247 696.094L-16.4768 703.247L102.232 702.431L132.395 702.227L153.281 705.819L97.7458 794.177L96.4361 794.247L81.0642 803.055L86.0444 794.78L69.4019 795.643L51.0968 809.054L52.8222 796.498L28.7291 797.745L27.8821 803.58L-24.0373 807.337L-23.9823 800.474L-91.8226 803.98L-92.0422 810.85L-115.602 809.886L-116.574 805.258L-125.123 805.698L-125.155 806.435L-132.77 806.098L-147.671 806.866L-146.801 809.046L-218.288 812.74L-217.849 810.49L-221.268 810.67L-221.621 812.913L-221.896 810.701L-232.617 811.258L-247.377 731.85L-253.8 697.31C-254.42 696.173 -254.78 694.996 -254.843 693.804C-254.875 693.279 -254.827 692.746 -254.741 692.22L-255 690.871Z" fill="url(#paint18_linear_70_16)"/>
<path d="M-210.068 753.941L-94.0182 751.957L-126.621 740.279L-95.0456 732.084L-70.8505 733.84L-27.3857 739.166L40.8467 732.272L16.7928 723.786L66.5241 724.515L149.368 708.877L93.8327 797.234L-236.545 814.3L-251.313 734.891C-242.906 737.432 -227.848 742.107 -226.177 743.542C-223.856 745.534 -210.068 753.941 -210.068 753.941Z" fill="url(#paint19_linear_70_16)"/>
<path d="M40.8305 732.264L32.6897 777.454L27.8978 779.485L23.9528 806.622L-27.9666 810.378L-27.394 739.158L-25.6686 729.495L40.8305 732.264Z" fill="url(#paint20_linear_70_16)"/>
<path d="M66.5083 724.507L59.6694 761.141L50.3051 768.309L55.9676 771.352L55.0657 775.407L51.858 778.019L47.168 812.104L80.9783 787.328L104.358 755.659L90.97 750.843L102.146 725.778L105.636 717.119L70.3984 718.939L66.5083 724.507Z" fill="url(#paint21_linear_70_16)"/>
<path d="M122.137 714.006L99.2358 751.306L107.62 755.486L77.1348 806.096L94.483 796.159L149.351 708.869L122.137 714.006Z" fill="url(#paint22_linear_70_16)"/>
<mask id="mask1_70_16" style="mask-type:alpha" maskUnits="userSpaceOnUse" x="44" y="738" width="8" height="29">
<path d="M48.7766 738.781L51.2628 753.565L44.8003 766.247L44.165 753.934L48.7766 738.781Z" fill="url(#paint23_linear_70_16)"/>
</mask>
<g mask="url(#mask1_70_16)">
<path d="M48.7761 738.781L51.2623 753.565L44.7998 766.247L44.1646 753.934L48.7761 738.781Z" fill="url(#paint24_linear_70_16)"/>
</g>
</g>
<defs>
<filter id="filter0_f_70_16" x="7.05151" y="13.1357" width="147.905" height="407.299" filterUnits="userSpaceOnUse" color-interpolation-filters="sRGB">
<feFlood flood-opacity="0" result="BackgroundImageFix"/>
<feBlend mode="normal" in="SourceGraphic" in2="BackgroundImageFix" result="shape"/>
<feGaussianBlur stdDeviation="3.5" result="effect1_foregroundBlur_70_16"/>
</filter>
<filter id="filter1_f_70_16" x="-59.5166" y="652.202" width="406.98" height="147.904" filterUnits="userSpaceOnUse" color-interpolation-filters="sRGB">
<feFlood flood-opacity="0" result="BackgroundImageFix"/>
<feBlend mode="normal" in="SourceGraphic" in2="BackgroundImageFix" result="shape"/>
<feGaussianBlur stdDeviation="3.5" result="effect1_foregroundBlur_70_16"/>
</filter>
<filter id="filter2_f_70_16" x="250.085" y="259.136" width="147.905" height="407.299" filterUnits="userSpaceOnUse" color-interpolation-filters="sRGB">
<feFlood flood-opacity="0" result="BackgroundImageFix"/>
<feBlend mode="normal" in="SourceGraphic" in2="BackgroundImageFix" result="shape"/>
<feGaussianBlur stdDeviation="3.5" result="effect1_foregroundBlur_70_16"/>
</filter>
<filter id="filter3_f_70_16" x="-67.2823" y="536.952" width="105.505" height="287.286" filterUnits="userSpaceOnUse" color-interpolation-filters="sRGB">
<feFlood flood-opacity="0" result="BackgroundImageFix"/>
<feBlend mode="normal" in="SourceGraphic" in2="BackgroundImageFix" result="shape"/>
<feGaussianBlur stdDeviation="11.4183" result="effect1_foregroundBlur_70_16"/>
</filter>
<filter id="filter4_f_70_16" x="-93.773" y="530.101" width="158.487" height="287.286" filterUnits="userSpaceOnUse" color-interpolation-filters="sRGB">
<feFlood flood-opacity="0" result="BackgroundImageFix"/>
<feBlend mode="normal" in="SourceGraphic" in2="BackgroundImageFix" result="shape"/>
<feGaussianBlur stdDeviation="11.4183" result="effect1_foregroundBlur_70_16"/>
</filter>
<filter id="filter5_f_70_16" x="318.658" y="564.356" width="105.505" height="287.286" filterUnits="userSpaceOnUse" color-interpolation-filters="sRGB">
<feFlood flood-opacity="0" result="BackgroundImageFix"/>
<feBlend mode="normal" in="SourceGraphic" in2="BackgroundImageFix" result="shape"/>
<feGaussianBlur stdDeviation="11.4183" result="effect1_foregroundBlur_70_16"/>
</filter>
<filter id="filter6_f_70_16" x="292.167" y="524.163" width="158.487" height="287.286" filterUnits="userSpaceOnUse" color-interpolation-filters="sRGB">
<feFlood flood-opacity="0" result="BackgroundImageFix"/>
<feBlend mode="normal" in="SourceGraphic" in2="BackgroundImageFix" result="shape"/>
<feGaussianBlur stdDeviation="11.4183" result="effect1_foregroundBlur_70_16"/>
</filter>
<filter id="filter7_f_70_16" x="57.863" y="628.299" width="105.505" height="287.286" filterUnits="userSpaceOnUse" color-interpolation-filters="sRGB">
<feFlood flood-opacity="0" result="BackgroundImageFix"/>
<feBlend mode="normal" in="SourceGraphic" in2="BackgroundImageFix" result="shape"/>
<feGaussianBlur stdDeviation="11.4183" result="effect1_foregroundBlur_70_16"/>
</filter>
<filter id="filter8_f_70_16" x="31.372" y="588.106" width="158.487" height="287.286" filterUnits="userSpaceOnUse" color-interpolation-filters="sRGB">
<feFlood flood-opacity="0" result="BackgroundImageFix"/>
<feBlend mode="normal" in="SourceGraphic" in2="BackgroundImageFix" result="shape"/>
<feGaussianBlur stdDeviation="11.4183" result="effect1_foregroundBlur_70_16"/>
</filter>
<filter id="filter9_f_70_16" x="183.465" y="628.299" width="105.505" height="287.286" filterUnits="userSpaceOnUse" color-interpolation-filters="sRGB">
<feFlood flood-opacity="0" result="BackgroundImageFix"/>
<feBlend mode="normal" in="SourceGraphic" in2="BackgroundImageFix" result="shape"/>
<feGaussianBlur stdDeviation="11.4183" result="effect1_foregroundBlur_70_16"/>
</filter>
<filter id="filter10_f_70_16" x="156.974" y="588.106" width="158.487" height="287.286" filterUnits="userSpaceOnUse" color-interpolation-filters="sRGB">
<feFlood flood-opacity="0" result="BackgroundImageFix"/>
<feBlend mode="normal" in="SourceGraphic" in2="BackgroundImageFix" result="shape"/>
<feGaussianBlur stdDeviation="11.4183" result="effect1_foregroundBlur_70_16"/>
</filter>
<radialGradient id="paint0_radial_70_16" cx="0" cy="0" r="1" gradientUnits="userSpaceOnUse" gradientTransform="translate(-17.4292 873.77) rotate(-89.7258) scale(304.695 66.5837)">
<stop stop-color="white"/>
<stop offset="1" stop-color="white" stop-opacity="0"/>
</radialGradient>
<radialGradient id="paint1_radial_70_16" cx="0" cy="0" r="1" gradientUnits="userSpaceOnUse" gradientTransform="translate(-19.9969 866.919) rotate(-89.483) scale(304.704 125.54)">
<stop stop-color="#00FFFF"/>
<stop offset="1" stop-color="#00FFFF" stop-opacity="0"/>
</radialGradient>
<radialGradient id="paint2_radial_70_16" cx="0" cy="0" r="1" gradientUnits="userSpaceOnUse" gradientTransform="translate(368.511 901.174) rotate(-89.7258) scale(304.695 66.5837)">
<stop stop-color="white"/>
<stop offset="1" stop-color="white" stop-opacity="0"/>
</radialGradient>
<radialGradient id="paint3_radial_70_16" cx="0" cy="0" r="1" gradientUnits="userSpaceOnUse" gradientTransform="translate(365.944 860.982) rotate(-89.483) scale(304.704 125.54)">
<stop stop-color="#00FFFF"/>
<stop offset="1" stop-color="#00FFFF" stop-opacity="0"/>
</radialGradient>
<radialGradient id="paint4_radial_70_16" cx="0" cy="0" r="1" gradientUnits="userSpaceOnUse" gradientTransform="translate(107.716 965.117) rotate(-89.7258) scale(304.695 66.5837)">
<stop stop-color="white"/>
<stop offset="1" stop-color="white" stop-opacity="0"/>
</radialGradient>
<radialGradient id="paint5_radial_70_16" cx="0" cy="0" r="1" gradientUnits="userSpaceOnUse" gradientTransform="translate(105.148 924.925) rotate(-89.483) scale(304.704 125.54)">
<stop stop-color="#00FFFF"/>
<stop offset="1" stop-color="#00FFFF" stop-opacity="0"/>
</radialGradient>
<radialGradient id="paint6_radial_70_16" cx="0" cy="0" r="1" gradientUnits="userSpaceOnUse" gradientTransform="translate(233.318 965.117) rotate(-89.7258) scale(304.695 66.5837)">
<stop stop-color="white"/>
<stop offset="1" stop-color="white" stop-opacity="0"/>
</radialGradient>
<radialGradient id="paint7_radial_70_16" cx="0" cy="0" r="1" gradientUnits="userSpaceOnUse" gradientTransform="translate(230.75 924.925) rotate(-89.483) scale(304.704 125.54)">
<stop stop-color="#00FFFF"/>
<stop offset="1" stop-color="#00FFFF" stop-opacity="0"/>
</radialGradient>
<linearGradient id="paint8_linear_70_16" x1="474.867" y1="744.079" x2="-121.633" y2="744.078" gradientUnits="userSpaceOnUse">
<stop stop-color="#0356A6"/>
<stop offset="0.6089" stop-color="#578EC4"/>
<stop offset="0.7911" stop-color="#558DC3"/>
<stop offset="0.8567" stop-color="#4E88C1"/>
<stop offset="0.9034" stop-color="#4380BD"/>
<stop offset="0.9413" stop-color="#3275B7"/>
<stop offset="0.9733" stop-color="#1C67AF"/>
<stop offset="1" stop-color="#0356A6"/>
</linearGradient>
<linearGradient id="paint9_linear_70_16" x1="541.087" y1="758.467" x2="-163.656" y2="758.467" gradientUnits="userSpaceOnUse">
<stop stop-color="#0356A6"/>
<stop offset="0.187" stop-color="#0B5BA9"/>
<stop offset="0.4699" stop-color="#1F69B0"/>
<stop offset="0.8117" stop-color="#417FBC"/>
<stop offset="1" stop-color="#578EC4"/>
</linearGradient>
<linearGradient id="paint10_linear_70_16" x1="-82.8107" y1="739.285" x2="37.3101" y2="739.285" gradientUnits="userSpaceOnUse">
<stop stop-color="#0054A5"/>
<stop offset="1" stop-color="#0054A5"/>
</linearGradient>
<linearGradient id="paint11_linear_70_16" x1="633.348" y1="702.814" x2="123.379" y2="720.46" gradientUnits="userSpaceOnUse">
<stop offset="0.120358" stop-color="#00286E"/>
<stop offset="0.589339" stop-color="#0054A5"/>
<stop offset="1" stop-color="#AACCFA"/>
</linearGradient>
<linearGradient id="paint12_linear_70_16" x1="398.855" y1="834.987" x2="405.119" y2="713.745" gradientUnits="userSpaceOnUse">
<stop stop-color="#0054A5"/>
<stop offset="1" stop-color="#0054A5"/>
</linearGradient>
<linearGradient id="paint13_linear_70_16" x1="347.564" y1="718.618" x2="347.567" y2="799.502" gradientUnits="userSpaceOnUse">
<stop stop-color="#0054A5"/>
<stop offset="0.0382" stop-color="#014F9D"/>
<stop offset="0.2229" stop-color="#043A7A"/>
<stop offset="0.4111" stop-color="#06295F"/>
<stop offset="0.6016" stop-color="#081D4C"/>
<stop offset="0.796" stop-color="#091641"/>
<stop offset="1" stop-color="#09143D"/>
</linearGradient>
<linearGradient id="paint14_linear_70_16" x1="261.269" y1="716.882" x2="316.152" y2="983.822" gradientUnits="userSpaceOnUse">
<stop stop-color="#0054A5"/>
<stop offset="0.0188" stop-color="#01509E"/>
<stop offset="0.1158" stop-color="#033D80"/>
<stop offset="0.2232" stop-color="#052E68"/>
<stop offset="0.3432" stop-color="#072255"/>
<stop offset="0.4829" stop-color="#081A47"/>
<stop offset="0.6601" stop-color="#09153F"/>
<stop offset="1" stop-color="#09143D"/>
<stop offset="1" stop-color="#09143D"/>
</linearGradient>
<linearGradient id="paint15_linear_70_16" x1="221.864" y1="710.094" x2="268.095" y2="795.634" gradientUnits="userSpaceOnUse">
<stop stop-color="#0054A5"/>
<stop offset="0.0375" stop-color="#024993"/>
<stop offset="0.1065" stop-color="#043978"/>
<stop offset="0.1859" stop-color="#062B62"/>
<stop offset="0.2785" stop-color="#072151"/>
<stop offset="0.3931" stop-color="#081946"/>
<stop offset="0.5538" stop-color="#09153F"/>
<stop offset="1" stop-color="#09143D"/>
</linearGradient>
<linearGradient id="paint16_linear_70_16" x1="307.055" y1="733.392" x2="305.65" y2="760.579" gradientUnits="userSpaceOnUse">
<stop/>
<stop offset="0.1522" stop-color="#212121"/>
<stop offset="0.4887" stop-color="#757575"/>
<stop offset="0.9822" stop-color="#FAFAFA"/>
<stop offset="1" stop-color="white"/>
</linearGradient>
<linearGradient id="paint17_linear_70_16" x1="307.056" y1="733.392" x2="305.651" y2="760.579" gradientUnits="userSpaceOnUse">
<stop stop-color="#3171D3"/>
<stop offset="1" stop-color="#3171D3"/>
</linearGradient>
<linearGradient id="paint18_linear_70_16" x1="-279.348" y1="708.294" x2="230.621" y2="725.941" gradientUnits="userSpaceOnUse">
<stop offset="0.120358" stop-color="#00286E"/>
<stop offset="0.589339" stop-color="#0054A5"/>
<stop offset="1" stop-color="#AACCFA"/>
</linearGradient>
<linearGradient id="paint19_linear_70_16" x1="-44.8551" y1="840.468" x2="-51.1194" y2="719.226" gradientUnits="userSpaceOnUse">
<stop stop-color="#0054A5"/>
<stop offset="1" stop-color="#0054A5"/>
</linearGradient>
<linearGradient id="paint20_linear_70_16" x1="6.43526" y1="724.099" x2="6.43237" y2="804.982" gradientUnits="userSpaceOnUse">
<stop stop-color="#0054A5"/>
<stop offset="0.0382" stop-color="#014F9D"/>
<stop offset="0.2229" stop-color="#043A7A"/>
<stop offset="0.4111" stop-color="#06295F"/>
<stop offset="0.6016" stop-color="#081D4C"/>
<stop offset="0.796" stop-color="#091641"/>
<stop offset="1" stop-color="#09143D"/>
</linearGradient>
<linearGradient id="paint21_linear_70_16" x1="92.7302" y1="722.363" x2="37.8471" y2="989.303" gradientUnits="userSpaceOnUse">
<stop stop-color="#0054A5"/>
<stop offset="0.0188" stop-color="#01509E"/>
<stop offset="0.1158" stop-color="#033D80"/>
<stop offset="0.2232" stop-color="#052E68"/>
<stop offset="0.3432" stop-color="#072255"/>
<stop offset="0.4829" stop-color="#081A47"/>
<stop offset="0.6601" stop-color="#09153F"/>
<stop offset="1" stop-color="#09143D"/>
<stop offset="1" stop-color="#09143D"/>
</linearGradient>
<linearGradient id="paint22_linear_70_16" x1="132.135" y1="715.574" x2="85.9047" y2="801.115" gradientUnits="userSpaceOnUse">
<stop stop-color="#0054A5"/>
<stop offset="0.0375" stop-color="#024993"/>
<stop offset="0.1065" stop-color="#043978"/>
<stop offset="0.1859" stop-color="#062B62"/>
<stop offset="0.2785" stop-color="#072151"/>
<stop offset="0.3931" stop-color="#081946"/>
<stop offset="0.5538" stop-color="#09153F"/>
<stop offset="1" stop-color="#09143D"/>
</linearGradient>
<linearGradient id="paint23_linear_70_16" x1="46.945" y1="738.872" x2="48.3497" y2="766.06" gradientUnits="userSpaceOnUse">
<stop/>
<stop offset="0.1522" stop-color="#212121"/>
<stop offset="0.4887" stop-color="#757575"/>
<stop offset="0.9822" stop-color="#FAFAFA"/>
<stop offset="1" stop-color="white"/>
</linearGradient>
<linearGradient id="paint24_linear_70_16" x1="46.9445" y1="738.872" x2="48.3492" y2="766.06" gradientUnits="userSpaceOnUse">
<stop stop-color="#3171D3"/>
<stop offset="1" stop-color="#3171D3"/>
</linearGradient>
<clipPath id="clip0_70_16">
<rect width="360" height="800" fill="white"/>
</clipPath>
</defs>
</svg>
