<svg width="32" height="32" viewBox="0 0 32 32" fill="none" xmlns="http://www.w3.org/2000/svg">
<rect width="32" height="32" rx="5" fill="url(#paint0_linear_1653_6208)"/>
<path d="M22.1252 23.1948H9.87845C9.64644 23.1948 9.42394 23.2899 9.25989 23.4592C9.09584 23.6284 9.00368 23.858 9.00368 24.0974C9.00368 24.3368 9.09584 24.5664 9.25989 24.7356C9.42394 24.9049 9.64644 25 9.87845 25H22.1252C22.3572 25 22.5797 24.9049 22.7438 24.7356C22.9078 24.5664 23 24.3368 23 24.0974C23 23.858 22.9078 23.6284 22.7438 23.4592C22.5797 23.2899 22.3572 23.1948 22.1252 23.1948ZM9.87845 21.3896H9.95718L13.605 21.0466C14.0046 21.0055 14.3783 20.8238 14.6634 20.5321L22.5364 12.4086C22.8419 12.0755 23.0071 11.631 22.9956 11.1725C22.9841 10.714 22.797 10.2789 22.4751 9.96257L20.0783 7.48943C19.7654 7.18624 19.3555 7.01228 18.9265 7.00063C18.4974 6.98898 18.0792 7.14045 17.7514 7.42625L9.87845 15.5497C9.59569 15.8439 9.41963 16.2296 9.37983 16.6419L9.00368 20.4057C8.99189 20.5379 9.00852 20.6712 9.05237 20.796C9.09622 20.9208 9.16621 21.0341 9.25736 21.1278C9.3391 21.2115 9.43604 21.2777 9.54262 21.3226C9.6492 21.3675 9.76332 21.3903 9.87845 21.3896ZM18.8623 8.75308L21.2505 11.2172L19.5009 12.9773L17.1565 10.5583L18.8623 8.75308ZM11.0769 16.7953L16.0018 11.7497L18.3637 14.1868L13.465 19.2414L10.8407 19.4941L11.0769 16.7953Z" fill="#FBFBFB"/>
<defs>
<linearGradient id="paint0_linear_1653_6208" x1="8.40404" y1="2.73684" x2="65.546" y2="36.7738" gradientUnits="userSpaceOnUse">
<stop stop-color="#37C8EE"/>
<stop offset="0.76891" stop-color="#91E8FF"/>
</linearGradient>
</defs>
</svg>
