<svg width="32" height="32" viewBox="0 0 32 32" fill="none" xmlns="http://www.w3.org/2000/svg">
<rect width="32" height="32" rx="5" fill="#22539F"/>
<path d="M25.9603 16.2682C25.1762 14.1939 23.8149 12.4 22.0447 11.1082C20.2745 9.81652 18.1731 9.08357 16 9C13.8269 9.08357 11.7255 9.81652 9.9553 11.1082C8.18512 12.4 6.82385 14.1939 6.03972 16.2682C5.98676 16.418 5.98676 16.582 6.03972 16.7318C6.82385 18.8061 8.18512 20.6 9.9553 21.8918C11.7255 23.1835 13.8269 23.9164 16 24C18.1731 23.9164 20.2745 23.1835 22.0447 21.8918C23.8149 20.6 25.1762 18.8061 25.9603 16.7318C26.0132 16.582 26.0132 16.418 25.9603 16.2682ZM16 22.6364C12.4666 22.6364 8.73313 19.9568 7.37976 16.5C8.73313 13.0432 12.4666 10.3636 16 10.3636C19.5334 10.3636 23.2669 13.0432 24.6202 16.5C23.2669 19.9568 19.5334 22.6364 16 22.6364Z" fill="#FBFBFB"/>
<path d="M16.0001 12.4087C15.209 12.4087 14.4356 12.6486 13.7778 13.0981C13.12 13.5476 12.6073 14.1866 12.3045 14.9341C12.0017 15.6816 11.9225 16.5041 12.0769 17.2977C12.2312 18.0913 12.6122 18.8202 13.1716 19.3923C13.731 19.9644 14.4438 20.3541 15.2197 20.5119C15.9957 20.6698 16.8 20.5887 17.5309 20.2791C18.2618 19.9695 18.8865 19.4451 19.3261 18.7724C19.7656 18.0996 20.0002 17.3087 20.0002 16.4996C20.0002 15.4146 19.5788 14.3741 18.8286 13.6069C18.0785 12.8397 17.061 12.4087 16.0001 12.4087ZM16.0001 19.2269C15.4727 19.2269 14.9571 19.0669 14.5186 18.7672C14.08 18.4676 13.7382 18.0416 13.5364 17.5433C13.3345 17.0449 13.2817 16.4966 13.3846 15.9675C13.4875 15.4385 13.7415 14.9525 14.1144 14.5711C14.4874 14.1897 14.9626 13.93 15.4799 13.8247C15.9972 13.7195 16.5333 13.7735 17.0206 13.9799C17.5079 14.1863 17.9244 14.5359 18.2174 14.9844C18.5105 15.4329 18.6669 15.9602 18.6669 16.4996C18.6669 17.2229 18.3859 17.9166 17.8858 18.4281C17.3857 18.9395 16.7074 19.2269 16.0001 19.2269Z" fill="#FBFBFB"/>
</svg>
