<svg width="1512" height="1716" viewBox="0 0 1512 1716" fill="none" xmlns="http://www.w3.org/2000/svg">
<g clip-path="url(#clip0_84_61)">
<g filter="url(#filter0_f_84_61)">
<path opacity="0.9" d="M482.559 40.3788L480.591 41.0509C480.514 41.0828 480.455 41.1415 480.438 41.2315L480.05 43.256C480.033 43.346 480.065 43.4222 480.125 43.4802L481.705 44.8327C481.765 44.8907 481.856 44.9082 481.933 44.8763L483.901 44.2042C483.978 44.1723 484.037 44.1136 484.054 44.0236L484.442 41.9991C484.459 41.9092 484.427 41.8329 484.367 41.7749L482.787 40.4225C482.723 40.3869 482.632 40.3694 482.559 40.3788Z" fill="white"/>
<path opacity="0.9" d="M392.749 131.356L390.78 132.028C390.703 132.06 390.645 132.119 390.627 132.209L390.239 134.233C390.222 134.323 390.255 134.399 390.314 134.457L391.895 135.81C391.954 135.868 392.045 135.885 392.122 135.853L394.091 135.181C394.168 135.149 394.226 135.091 394.243 135.001L394.631 132.976C394.649 132.886 394.616 132.81 394.556 132.752L392.976 131.4C392.912 131.364 392.821 131.346 392.749 131.356Z" fill="white"/>
<path opacity="0.9" d="M760.081 133.41L758.884 133.818C758.837 133.838 758.802 133.873 758.791 133.928L758.556 135.158C758.545 135.213 758.565 135.259 758.601 135.295L759.562 136.116C759.598 136.152 759.653 136.162 759.7 136.143L760.896 135.735C760.943 135.715 760.979 135.679 760.989 135.625L761.225 134.394C761.235 134.34 761.216 134.293 761.179 134.258L760.219 133.436C760.18 133.415 760.125 133.404 760.081 133.41Z" fill="white"/>
<path opacity="0.9" d="M557.245 124.71L556.048 125.118C556.002 125.137 555.966 125.173 555.956 125.228L555.72 126.458C555.709 126.513 555.729 126.559 555.765 126.594L556.726 127.416C556.762 127.452 556.817 127.462 556.864 127.443L558.06 127.034C558.107 127.015 558.143 126.979 558.153 126.925L558.389 125.694C558.399 125.64 558.38 125.593 558.343 125.558L557.383 124.736C557.344 124.714 557.289 124.704 557.245 124.71Z" fill="white"/>
<path opacity="0.9" d="M598.62 496.677L599.349 498.625C599.383 498.701 599.444 498.757 599.534 498.772L601.569 499.101C601.66 499.115 601.735 499.08 601.791 499.019L603.097 497.4C603.153 497.338 603.168 497.247 603.134 497.171L602.404 495.223C602.37 495.147 602.31 495.09 602.219 495.076L600.184 494.747C600.094 494.733 600.019 494.767 599.962 494.829L598.657 496.448C598.623 496.513 598.608 496.604 598.62 496.677Z" fill="white"/>
<path opacity="0.9" d="M692.188 583.784L692.918 585.732C692.952 585.808 693.012 585.864 693.103 585.879L695.138 586.207C695.228 586.222 695.303 586.187 695.36 586.126L696.665 584.507C696.721 584.445 696.736 584.354 696.702 584.278L695.973 582.33C695.939 582.254 695.878 582.197 695.788 582.183L693.753 581.854C693.662 581.84 693.587 581.874 693.531 581.936L692.225 583.555C692.192 583.62 692.177 583.711 692.188 583.784Z" fill="white"/>
<path opacity="0.9" d="M683.48 216.55L683.923 217.734C683.944 217.78 683.981 217.815 684.036 217.824L685.273 218.023C685.327 218.032 685.373 218.011 685.407 217.974L686.201 216.99C686.235 216.952 686.244 216.897 686.223 216.851L685.78 215.667C685.759 215.621 685.723 215.586 685.668 215.577L684.431 215.378C684.376 215.369 684.33 215.39 684.296 215.427L683.502 216.411C683.482 216.451 683.473 216.506 683.48 216.55Z" fill="white"/>
<path opacity="0.9" d="M680.726 419.554L681.169 420.738C681.19 420.784 681.227 420.819 681.282 420.827L682.519 421.027C682.574 421.036 682.619 421.015 682.653 420.978L683.447 419.994C683.481 419.956 683.49 419.901 683.469 419.855L683.026 418.671C683.005 418.625 682.969 418.59 682.914 418.581L681.677 418.381C681.622 418.373 681.576 418.394 681.542 418.431L680.749 419.415C680.728 419.455 680.719 419.51 680.726 419.554Z" fill="white"/>
<path opacity="0.9" d="M639.546 1040.5L640.275 1042.45C640.309 1042.52 640.37 1042.58 640.46 1042.6L642.495 1042.92C642.586 1042.94 642.661 1042.9 642.717 1042.84L644.023 1041.22C644.079 1041.16 644.094 1041.07 644.06 1041L643.33 1039.05C643.296 1038.97 643.236 1038.91 643.145 1038.9L641.11 1038.57C641.02 1038.56 640.944 1038.59 640.888 1038.65L639.583 1040.27C639.549 1040.34 639.534 1040.43 639.546 1040.5Z" fill="white"/>
<path opacity="0.9" d="M733.116 1127.61L733.845 1129.56C733.88 1129.63 733.94 1129.69 734.03 1129.7L736.065 1130.03C736.156 1130.05 736.231 1130.01 736.287 1129.95L737.593 1128.33C737.649 1128.27 737.664 1128.18 737.63 1128.1L736.9 1126.15C736.866 1126.08 736.806 1126.02 736.715 1126.01L734.68 1125.68C734.59 1125.66 734.515 1125.7 734.458 1125.76L733.153 1127.38C733.119 1127.44 733.104 1127.54 733.116 1127.61Z" fill="white"/>
<path opacity="0.9" d="M724.408 760.374L724.851 761.558C724.872 761.604 724.909 761.639 724.963 761.648L726.2 761.848C726.255 761.856 726.301 761.835 726.335 761.798L727.129 760.814C727.163 760.777 727.172 760.721 727.151 760.675L726.708 759.491C726.687 759.445 726.65 759.41 726.595 759.402L725.359 759.202C725.304 759.193 725.258 759.214 725.224 759.251L724.43 760.235C724.41 760.275 724.401 760.331 724.408 760.374Z" fill="white"/>
<path opacity="0.9" d="M721.652 963.378L722.095 964.562C722.116 964.608 722.153 964.643 722.208 964.652L723.444 964.851C723.499 964.86 723.545 964.839 723.579 964.802L724.373 963.818C724.407 963.781 724.416 963.725 724.395 963.679L723.952 962.495C723.931 962.449 723.894 962.414 723.839 962.405L722.603 962.206C722.548 962.197 722.502 962.218 722.468 962.255L721.674 963.239C721.654 963.279 721.645 963.334 721.652 963.378Z" fill="white"/>
</g>
<path opacity="0.9" d="M482.559 40.3788L480.591 41.0509C480.514 41.0828 480.455 41.1415 480.438 41.2315L480.05 43.256C480.033 43.346 480.065 43.4222 480.125 43.4802L481.705 44.8327C481.765 44.8907 481.856 44.9082 481.933 44.8763L483.901 44.2042C483.978 44.1723 484.037 44.1136 484.054 44.0236L484.442 41.9991C484.459 41.9092 484.427 41.8329 484.367 41.7749L482.787 40.4225C482.723 40.3869 482.632 40.3694 482.559 40.3788Z" fill="white"/>
<path opacity="0.9" d="M392.749 131.356L390.78 132.028C390.703 132.06 390.645 132.119 390.627 132.209L390.239 134.233C390.222 134.323 390.255 134.399 390.314 134.457L391.895 135.81C391.954 135.868 392.045 135.885 392.122 135.853L394.091 135.181C394.168 135.149 394.226 135.091 394.243 135.001L394.631 132.976C394.649 132.886 394.616 132.81 394.556 132.752L392.976 131.4C392.912 131.364 392.821 131.346 392.749 131.356Z" fill="white"/>
<path opacity="0.9" d="M760.081 133.41L758.884 133.818C758.837 133.838 758.802 133.873 758.791 133.928L758.556 135.158C758.545 135.213 758.565 135.259 758.601 135.295L759.562 136.116C759.598 136.152 759.653 136.162 759.7 136.143L760.896 135.735C760.943 135.715 760.979 135.679 760.989 135.625L761.225 134.394C761.235 134.34 761.216 134.293 761.179 134.258L760.219 133.436C760.18 133.415 760.125 133.404 760.081 133.41Z" fill="white"/>
<path opacity="0.9" d="M557.245 124.71L556.048 125.118C556.002 125.137 555.966 125.173 555.956 125.228L555.72 126.458C555.709 126.513 555.729 126.559 555.765 126.594L556.726 127.416C556.762 127.452 556.817 127.462 556.864 127.443L558.06 127.034C558.107 127.015 558.143 126.979 558.153 126.925L558.389 125.694C558.399 125.64 558.38 125.593 558.343 125.558L557.383 124.736C557.344 124.714 557.289 124.704 557.245 124.71Z" fill="white"/>
<path opacity="0.9" d="M598.62 496.677L599.349 498.625C599.383 498.701 599.444 498.757 599.534 498.772L601.569 499.101C601.66 499.115 601.735 499.08 601.791 499.019L603.097 497.4C603.153 497.338 603.168 497.247 603.134 497.171L602.404 495.223C602.37 495.147 602.31 495.09 602.219 495.076L600.184 494.747C600.094 494.733 600.019 494.767 599.962 494.829L598.657 496.448C598.623 496.513 598.608 496.604 598.62 496.677Z" fill="white"/>
<path opacity="0.9" d="M692.188 583.784L692.918 585.732C692.952 585.808 693.012 585.864 693.103 585.879L695.138 586.207C695.228 586.222 695.303 586.187 695.36 586.126L696.665 584.507C696.721 584.445 696.736 584.354 696.702 584.278L695.973 582.33C695.939 582.254 695.878 582.197 695.788 582.183L693.753 581.854C693.662 581.84 693.587 581.874 693.531 581.936L692.225 583.555C692.192 583.62 692.177 583.711 692.188 583.784Z" fill="white"/>
<path opacity="0.9" d="M683.48 216.55L683.923 217.734C683.944 217.78 683.981 217.815 684.036 217.824L685.273 218.023C685.327 218.032 685.373 218.011 685.407 217.974L686.201 216.99C686.235 216.952 686.244 216.897 686.223 216.851L685.78 215.667C685.759 215.621 685.723 215.586 685.668 215.577L684.431 215.378C684.376 215.369 684.33 215.39 684.296 215.427L683.502 216.411C683.482 216.451 683.473 216.506 683.48 216.55Z" fill="white"/>
<path opacity="0.9" d="M680.726 419.554L681.169 420.738C681.19 420.784 681.227 420.819 681.282 420.827L682.519 421.027C682.574 421.036 682.619 421.015 682.653 420.978L683.447 419.994C683.481 419.956 683.49 419.901 683.469 419.855L683.026 418.671C683.005 418.625 682.969 418.59 682.914 418.581L681.677 418.381C681.622 418.373 681.576 418.394 681.542 418.431L680.749 419.415C680.728 419.455 680.719 419.51 680.726 419.554Z" fill="white"/>
<path opacity="0.9" d="M639.546 1040.5L640.275 1042.45C640.309 1042.52 640.37 1042.58 640.46 1042.6L642.495 1042.92C642.586 1042.94 642.661 1042.9 642.717 1042.84L644.023 1041.22C644.079 1041.16 644.094 1041.07 644.06 1041L643.33 1039.05C643.296 1038.97 643.236 1038.91 643.145 1038.9L641.11 1038.57C641.02 1038.56 640.944 1038.59 640.888 1038.65L639.583 1040.27C639.549 1040.34 639.534 1040.43 639.546 1040.5Z" fill="white"/>
<path opacity="0.9" d="M733.116 1127.61L733.845 1129.56C733.88 1129.63 733.94 1129.69 734.03 1129.7L736.065 1130.03C736.156 1130.05 736.231 1130.01 736.287 1129.95L737.593 1128.33C737.649 1128.27 737.664 1128.18 737.63 1128.1L736.9 1126.15C736.866 1126.08 736.806 1126.02 736.715 1126.01L734.68 1125.68C734.59 1125.66 734.515 1125.7 734.458 1125.76L733.153 1127.38C733.119 1127.44 733.104 1127.54 733.116 1127.61Z" fill="white"/>
<path opacity="0.9" d="M724.408 760.374L724.851 761.558C724.872 761.604 724.909 761.639 724.963 761.648L726.2 761.848C726.255 761.856 726.301 761.835 726.335 761.798L727.129 760.814C727.163 760.777 727.172 760.721 727.151 760.675L726.708 759.491C726.687 759.445 726.65 759.41 726.595 759.402L725.359 759.202C725.304 759.193 725.258 759.214 725.224 759.251L724.43 760.235C724.41 760.275 724.401 760.331 724.408 760.374Z" fill="white"/>
<path opacity="0.9" d="M721.652 963.378L722.095 964.562C722.116 964.608 722.153 964.643 722.208 964.652L723.444 964.851C723.499 964.86 723.545 964.839 723.579 964.802L724.373 963.818C724.407 963.781 724.416 963.725 724.395 963.679L723.952 962.495C723.931 962.449 723.894 962.414 723.839 962.405L722.603 962.206C722.548 962.197 722.502 962.218 722.468 962.255L721.674 963.239C721.654 963.279 721.645 963.334 721.652 963.378Z" fill="white"/>
<g filter="url(#filter1_f_84_61)">
<path d="M733.082 1494.39L430.312 1489.26L-2.5534 1481.91L-736.383 1455.99L-281.934 -30.8029L321.796 -20.559L733.082 1494.39Z" fill="url(#paint0_radial_84_61)"/>
</g>
<g filter="url(#filter2_f_84_61)">
<path d="M594.781 1478.28L355.72 1474.23L6.99104 1468.31L-606.836 1457.9L-229.682 -29.4827L265.312 -21.0838L594.781 1478.28Z" fill="url(#paint1_radial_84_61)"/>
</g>
<g clip-path="url(#clip1_84_61)">
<path d="M642.659 1646.83L578.081 1738.36L-85.9699 1841.47L-88 1538.09L140.469 1546.68L180.665 1544.7L248.228 1562.6L638.883 1560.05L693.696 1569.03L642.659 1646.83Z" fill="#ACCDFA"/>
</g>
<g clip-path="url(#clip2_84_61)">
<path d="M690.545 1568.29L635.997 1558.93L557.247 1559.46L247.324 1561.59L180.102 1542.93L140.112 1545L-87.2109 1538.09V1670.48H27.0036L-29.9604 1650.11L52.4551 1628.74L115.623 1633.31L229.101 1647.19L407.22 1629.23L344.421 1607.12L474.258 1609.02L690.545 1568.29Z" fill="url(#paint2_linear_84_61)"/>
<path d="M179.18 1587.43L122.933 1572.64L-87.2109 1573.76V1575.48L118.817 1583L134.297 1589.74L318.642 1603.08L179.18 1587.43Z" fill="url(#paint3_linear_84_61)"/>
</g>
<g clip-path="url(#clip3_84_61)">
<path d="M229.584 1647.29L407.653 1629.3L386.61 1771.95L229.379 1797.63L229.584 1647.29Z" fill="url(#paint4_linear_84_61)"/>
<path d="M-87.2109 1669.74H26.9711L13.072 1831.64L-87.2109 1847.78V1669.74Z" fill="url(#paint5_linear_84_61)"/>
<path d="M13.0855 1831.64L26.9847 1669.74L-32.051 1649.51L52.429 1627.92L115.579 1632.51L229.597 1647.29L229.393 1797.63L13.0855 1831.64Z" fill="url(#paint6_linear_84_61)"/>
</g>
<g clip-path="url(#clip4_84_61)">
<path d="M472.273 1608.9L574.325 1589.59L504.941 1753.1L445.477 1762.67L472.273 1608.9Z" fill="url(#paint7_linear_84_61)"/>
<path d="M688.181 1568.04L580.299 1740.93L509.912 1752.26L617.201 1581.46L688.181 1568.04Z" fill="url(#paint8_linear_84_61)"/>
<path d="M574.326 1589.59L617.201 1581.46L509.912 1752.26L504.941 1753.1L574.326 1589.59Z" fill="url(#paint9_linear_84_61)"/>
</g>
<path d="M385.117 1772.92L406.045 1629.78L343.037 1606.65L472.269 1608.56L445.621 1762.73L385.117 1772.92Z" fill="url(#paint10_linear_84_61)"/>
</g>
<defs>
<filter id="filter0_f_84_61" x="383.235" y="33.3765" width="384.993" height="1103.66" filterUnits="userSpaceOnUse" color-interpolation-filters="sRGB">
<feFlood flood-opacity="0" result="BackgroundImageFix"/>
<feBlend mode="normal" in="SourceGraphic" in2="BackgroundImageFix" result="shape"/>
<feGaussianBlur stdDeviation="3.5" result="effect1_foregroundBlur_84_61"/>
</filter>
<filter id="filter1_f_84_61" x="-756.383" y="-50.8027" width="1509.47" height="1565.2" filterUnits="userSpaceOnUse" color-interpolation-filters="sRGB">
<feFlood flood-opacity="0" result="BackgroundImageFix"/>
<feBlend mode="normal" in="SourceGraphic" in2="BackgroundImageFix" result="shape"/>
<feGaussianBlur stdDeviation="10" result="effect1_foregroundBlur_84_61"/>
</filter>
<filter id="filter2_f_84_61" x="-626.835" y="-49.4829" width="1241.62" height="1547.77" filterUnits="userSpaceOnUse" color-interpolation-filters="sRGB">
<feFlood flood-opacity="0" result="BackgroundImageFix"/>
<feBlend mode="normal" in="SourceGraphic" in2="BackgroundImageFix" result="shape"/>
<feGaussianBlur stdDeviation="10" result="effect1_foregroundBlur_84_61"/>
</filter>
<radialGradient id="paint0_radial_84_61" cx="0" cy="0" r="1" gradientUnits="userSpaceOnUse" gradientTransform="translate(113.467 -611.758) rotate(91.3518) scale(2149.01 1418.31)">
<stop stop-color="#00FFFF" stop-opacity="0.78"/>
<stop offset="1" stop-color="#00FFFF" stop-opacity="0"/>
</radialGradient>
<radialGradient id="paint1_radial_84_61" cx="0" cy="0" r="1" gradientUnits="userSpaceOnUse" gradientTransform="translate(96.2946 -611.33) rotate(91.6029) scale(2220.57 1202.17)">
<stop stop-color="white" stop-opacity="0.78"/>
<stop offset="1" stop-color="white" stop-opacity="0"/>
</radialGradient>
<linearGradient id="paint2_linear_84_61" x1="1421.41" y1="1644.47" x2="-374.754" y2="1604.28" gradientUnits="userSpaceOnUse">
<stop offset="0.260783" stop-color="#AACCFA"/>
<stop offset="0.587066" stop-color="#0054A5"/>
<stop offset="0.933429" stop-color="#00286E"/>
</linearGradient>
<linearGradient id="paint3_linear_84_61" x1="101.121" y1="1615.71" x2="114.287" y2="1561.49" gradientUnits="userSpaceOnUse">
<stop stop-color="#00286E"/>
<stop offset="1" stop-color="#014485"/>
</linearGradient>
<linearGradient id="paint4_linear_84_61" x1="318.609" y1="1606.25" x2="332.407" y2="1858.81" gradientUnits="userSpaceOnUse">
<stop offset="0.0313113" stop-color="#3171D3"/>
<stop offset="0.323012" stop-color="#0054A5"/>
<stop offset="0.618578" stop-color="#00286E"/>
</linearGradient>
<linearGradient id="paint5_linear_84_61" x1="-30.4749" y1="1626.74" x2="-44.6117" y2="2094.18" gradientUnits="userSpaceOnUse">
<stop stop-color="#3171D3"/>
<stop offset="0.221092" stop-color="#0054A5"/>
<stop offset="0.444344" stop-color="#00286E"/>
</linearGradient>
<linearGradient id="paint6_linear_84_61" x1="-257.025" y1="1748.49" x2="229.588" y2="1729.78" gradientUnits="userSpaceOnUse">
<stop offset="0.329482" stop-color="#0064D7"/>
<stop offset="0.455977" stop-color="#0054A5"/>
<stop offset="1" stop-color="#00286E"/>
</linearGradient>
<linearGradient id="paint7_linear_84_61" x1="517.579" y1="1545.18" x2="476.157" y2="1826.1" gradientUnits="userSpaceOnUse">
<stop offset="0.278671" stop-color="#3171D3"/>
<stop offset="0.50792" stop-color="#0054A5"/>
<stop offset="0.761776" stop-color="#00286E"/>
</linearGradient>
<linearGradient id="paint8_linear_84_61" x1="653.116" y1="1568.04" x2="509.653" y2="1864.9" gradientUnits="userSpaceOnUse">
<stop offset="0.191076" stop-color="#3171D3"/>
<stop offset="0.422314" stop-color="#0054A5"/>
<stop offset="0.799024" stop-color="#00286E"/>
</linearGradient>
<linearGradient id="paint9_linear_84_61" x1="617.261" y1="1487.27" x2="504.651" y2="1789.49" gradientUnits="userSpaceOnUse">
<stop offset="0.213211" stop-color="#0054A5"/>
<stop offset="0.941446" stop-color="#00286E"/>
</linearGradient>
<linearGradient id="paint10_linear_84_61" x1="441.931" y1="1534.55" x2="408.002" y2="1817.09" gradientUnits="userSpaceOnUse">
<stop offset="0.149512" stop-color="#0054A5"/>
<stop offset="0.716346" stop-color="#00286E"/>
</linearGradient>
<clipPath id="clip0_84_61">
<rect width="1512" height="1716" fill="white"/>
</clipPath>
<clipPath id="clip1_84_61">
<rect width="788" height="310.472" fill="white" transform="translate(-88 1531)"/>
</clipPath>
<clipPath id="clip2_84_61">
<rect width="777.756" height="132.384" fill="white" transform="translate(-87.2109 1538.09)"/>
</clipPath>
<clipPath id="clip3_84_61">
<rect width="494.864" height="219.852" fill="white" transform="translate(-87.2109 1627.92)"/>
</clipPath>
<clipPath id="clip4_84_61">
<rect width="242.704" height="194.636" fill="white" transform="translate(445.477 1568.04)"/>
</clipPath>
</defs>
</svg>
