<svg width="496" height="1520" viewBox="0 0 496 1520" fill="none" xmlns="http://www.w3.org/2000/svg">
<g opacity="0.9">
<path fill-rule="evenodd" clip-rule="evenodd" d="M303 928.477L305.192 872.34C305.192 872.34 330.364 861.312 342.522 857.304L343.001 845.317L399.784 831.034L417.01 850.454L403.106 889.637L389.441 941.595L347.762 952.726L333.378 937.176L303 928.477Z" fill="url(#paint0_linear_84_622)"/>
<path fill-rule="evenodd" clip-rule="evenodd" d="M303 926.148L334.474 917.174L337.83 933.649L380.16 921.661L389.475 941.595L347.796 952.692L333.412 937.142L303 928.477L303 926.148Z" fill="url(#paint1_linear_84_622)"/>
<path opacity="0.36" fill-rule="evenodd" clip-rule="evenodd" d="M342.522 857.27L334.474 917.174L303 926.148L305.192 872.306L342.522 857.27Z" fill="url(#paint2_linear_84_622)"/>
<path fill-rule="evenodd" clip-rule="evenodd" d="M380.16 921.661L380.16 870.217L399.784 831L417.011 850.42L400.264 900.494L389.475 941.595L380.16 921.661Z" fill="url(#paint3_linear_84_622)"/>
<path fill-rule="evenodd" clip-rule="evenodd" d="M255.973 725.975L247 786.461L270.973 797.901L328.92 786.461L332.413 780.502L347.893 780.502L357.517 767.452L361.901 734.743L350.907 729.503L327.447 726.009L326.934 714.022L311.933 707.034C311.933 707 273.953 710.494 255.973 725.975Z" fill="url(#paint4_linear_84_622)"/>
<path fill-rule="evenodd" clip-rule="evenodd" d="M247 786.461C247 786.461 267.994 773.001 310.426 773.377L328.92 786.461L270.973 797.901L247 786.461Z" fill="url(#paint5_linear_84_622)"/>
<path fill-rule="evenodd" clip-rule="evenodd" d="M322.652 767.932L332.379 780.467L347.859 780.467L345.872 763.411C345.872 763.445 330.392 765.945 322.652 767.932Z" fill="url(#paint6_linear_84_622)"/>
<path fill-rule="evenodd" clip-rule="evenodd" d="M311.933 707L310.426 773.377L322.652 767.932L327.413 725.975L326.899 713.987L311.933 707Z" fill="url(#paint7_linear_84_622)"/>
<path fill-rule="evenodd" clip-rule="evenodd" d="M350.873 729.502L345.873 763.445L347.894 780.501L357.483 767.452L361.867 734.743L350.873 729.502Z" fill="url(#paint8_linear_84_622)"/>
<path fill-rule="evenodd" clip-rule="evenodd" d="M165 615.256L165 648.855L183.733 660.843L202.022 648.855L210.31 615.256L202.022 608.029C202.022 608.029 184.076 607.138 165 615.256Z" fill="url(#paint9_linear_84_622)"/>
<path fill-rule="evenodd" clip-rule="evenodd" d="M165 648.855L192.33 642.861L202.022 648.855L183.699 660.843L165 648.855Z" fill="url(#paint10_linear_84_622)"/>
<path fill-rule="evenodd" clip-rule="evenodd" d="M202.022 608.029L192.33 642.862L202.022 648.855L210.31 615.256L202.022 608.029Z" fill="url(#paint11_linear_84_622)"/>
<path fill-rule="evenodd" clip-rule="evenodd" d="M84.557 766.599L100.803 796.01L122.997 797.445L133.209 778.109L124.218 744.691L113.469 742.372C113.469 742.372 97.33 750.27 84.557 766.599Z" fill="url(#paint12_linear_84_622)"/>
<path fill-rule="evenodd" clip-rule="evenodd" d="M100.802 796.01L121.827 777.549L133.209 778.109L122.967 797.462L100.802 796.01Z" fill="url(#paint13_linear_84_622)"/>
<path fill-rule="evenodd" clip-rule="evenodd" d="M113.47 742.372L121.828 777.549L133.21 778.109L124.219 744.691L113.47 742.372Z" fill="url(#paint14_linear_84_622)"/>
<path fill-rule="evenodd" clip-rule="evenodd" d="M217.303 884.236L218.399 889.682L228.776 893.553L231.379 889.203C231.379 889.203 231.652 885.949 225.693 883.003C225.693 882.969 218.673 883.175 217.303 884.236Z" fill="url(#paint15_linear_84_622)"/>
<path fill-rule="evenodd" clip-rule="evenodd" d="M218.434 889.682L221.071 887.559L231.414 889.203L228.811 893.552C228.776 893.552 224.05 892.388 218.434 889.682Z" fill="url(#paint16_linear_84_622)"/>
<path fill-rule="evenodd" clip-rule="evenodd" d="M205.178 919.137L211 920.473L216.137 914.479L211.788 910.883C211.788 910.883 208.397 909.41 204.664 912.561C204.699 912.561 204.219 917.733 205.178 919.137Z" fill="url(#paint17_linear_84_622)"/>
<path fill-rule="evenodd" clip-rule="evenodd" d="M211.034 920.473L209.082 917.733L211.822 910.883L216.171 914.479C216.137 914.479 214.459 917.459 211.034 920.473Z" fill="url(#paint18_linear_84_622)"/>
<path fill-rule="evenodd" clip-rule="evenodd" d="M317.789 1142.59L324.536 1128.61L358.235 1124.61L353.235 1150.09C353.235 1150.09 337.516 1149.82 317.789 1142.59Z" fill="url(#paint19_linear_84_622)"/>
<path fill-rule="evenodd" clip-rule="evenodd" d="M258.593 1016.3L246.83 1022.9L247.332 1040.64L260.022 1040.09C260.022 1040.09 267.946 1037.44 269.328 1026.51C269.344 1026.57 262.324 1017.17 258.593 1016.3Z" fill="url(#paint20_linear_84_622)"/>
<path fill-rule="evenodd" clip-rule="evenodd" d="M246.839 1022.94L254.268 1024.53L260.031 1040.12L247.341 1040.68C247.341 1040.68 245.637 1033.16 246.839 1022.94Z" fill="url(#paint21_linear_84_622)"/>
<path fill-rule="evenodd" clip-rule="evenodd" d="M326.801 1100.57L309.92 1122.36L324.979 1155.34L348.418 1144.2C348.418 1144.2 361.221 1132.91 355.121 1111.23C355.204 1111.34 334.508 1099.23 326.801 1100.57Z" fill="url(#paint22_linear_84_622)"/>
<path fill-rule="evenodd" clip-rule="evenodd" d="M309.962 1122.41L325.21 1119.5L348.459 1144.25L325.021 1155.39C325.021 1155.39 315.834 1142.61 309.962 1122.41Z" fill="url(#paint23_linear_84_622)"/>
<path fill-rule="evenodd" clip-rule="evenodd" d="M191.034 941.116L202.278 948.567L217.831 940.022L211.544 928.985C211.544 928.985 205.571 923.145 195.21 926.907C195.214 926.859 190.099 937.403 191.034 941.116Z" fill="url(#paint24_linear_84_622)"/>
<path fill-rule="evenodd" clip-rule="evenodd" d="M202.277 948.567L200.303 941.23L211.544 928.985L217.831 940.022C217.831 940.022 211.9 944.943 202.277 948.567Z" fill="url(#paint25_linear_84_622)"/>
<path fill-rule="evenodd" clip-rule="evenodd" d="M208.826 427.654L208.484 428.819L198.86 459.884L151.907 486.839L151.907 512.356L130.947 526.809L105.398 470.33L99.6106 457.623L92.4186 441.731L81.1512 416.763L63 376.69L74.5072 352.988L112.933 336L118.447 343.501L176.873 336C185.024 347.44 191.257 361.14 195.949 374.463C200.47 387.273 203.586 399.672 205.607 409.296C206.6 414.023 207.319 418.064 207.833 421.147C208.518 425.257 208.826 427.654 208.826 427.654Z" fill="url(#paint26_linear_84_622)"/>
<path fill-rule="evenodd" clip-rule="evenodd" d="M74.4729 352.988L103.926 445.875L122.42 493.073L138.139 483.071L148.139 483.311L149.886 462.076C149.886 462.076 184.613 436.594 208.826 427.62L198.826 459.85L151.872 486.839L151.872 512.356L130.913 526.775L63 376.724L74.4729 352.988Z" fill="url(#paint27_linear_84_622)"/>
<path opacity="0.2" fill-rule="evenodd" clip-rule="evenodd" d="M118.447 343.501L149.921 462.144L208.861 427.688C208.861 427.688 199.614 361.243 176.908 336.034L118.447 343.501Z" fill="url(#paint28_linear_84_622)"/>
<path fill-rule="evenodd" clip-rule="evenodd" d="M205.606 409.296C202.147 409.536 198.654 409.776 195.195 410.015C175.502 411.385 155.742 412.755 136.426 416.865C132.556 417.687 128.652 418.646 124.885 419.879C112.35 424.058 100.98 431.696 92.4179 441.731L81.1504 416.763C82.2463 412.276 84.4725 407.652 87.4178 404.912C89.9178 402.549 93.4111 401.59 96.7331 400.699C129.816 391.965 162.899 383.197 195.948 374.463C200.469 387.273 203.585 399.672 205.606 409.296Z" fill="url(#paint29_linear_84_622)"/>
<path fill-rule="evenodd" clip-rule="evenodd" d="M208.827 427.654L208.484 428.819C200.95 428.99 193.45 429.504 185.949 430.326C171.463 431.901 156.976 434.675 143.619 440.498C128.619 447.04 115.399 457.452 105.399 470.33L99.6113 457.623C104.235 451.287 111.119 445.738 117.283 441.834C125.502 436.662 134.715 433.34 144.03 430.634C164.75 424.606 186.292 421.42 207.833 421.146C208.518 425.257 208.827 427.654 208.827 427.654Z" fill="url(#paint30_linear_84_622)"/>
<path fill-rule="evenodd" clip-rule="evenodd" d="M221.39 299.037L218 311.607L230.569 323.252L238.788 314.141C238.788 314.141 242.316 306.88 235.74 298.557C235.706 298.523 224.507 297.05 221.39 299.037Z" fill="url(#paint31_linear_84_622)"/>
<path fill-rule="evenodd" clip-rule="evenodd" d="M218 311.607L224.13 307.565L238.788 314.142L230.569 323.252C230.569 323.252 224.233 319.313 218 311.607Z" fill="url(#paint32_linear_84_622)"/>
<path fill-rule="evenodd" clip-rule="evenodd" d="M268.961 334.76L273.585 335.822L277.626 331.095L274.201 328.252C274.201 328.252 271.53 327.088 268.584 329.588C268.584 329.554 268.208 333.664 268.961 334.76Z" fill="url(#paint33_linear_84_622)"/>
<path fill-rule="evenodd" clip-rule="evenodd" d="M273.584 335.822L272.043 333.664L274.235 328.252L277.66 331.095C277.625 331.061 276.29 333.424 273.584 335.822Z" fill="url(#paint34_linear_84_622)"/>
<path fill-rule="evenodd" clip-rule="evenodd" d="M254.471 351.778L259.094 352.84L263.136 348.114L259.711 345.271C259.711 345.271 257.039 344.106 254.094 346.607C254.094 346.572 253.717 350.682 254.471 351.778Z" fill="url(#paint35_linear_84_622)"/>
<path fill-rule="evenodd" clip-rule="evenodd" d="M259.094 352.84L257.553 350.683L259.745 345.271L263.169 348.114C263.135 348.08 261.799 350.443 259.094 352.84Z" fill="url(#paint36_linear_84_622)"/>
<path fill-rule="evenodd" clip-rule="evenodd" d="M284.542 264.377L282.658 271.33L289.61 277.769L294.165 272.7C294.165 272.7 296.117 268.693 292.487 264.069C292.487 264.103 286.254 263.281 284.542 264.377Z" fill="url(#paint37_linear_84_622)"/>
<path fill-rule="evenodd" clip-rule="evenodd" d="M282.658 271.33L286.049 269.104L294.165 272.735L289.61 277.804C289.645 277.804 286.117 275.612 282.658 271.33Z" fill="url(#paint38_linear_84_622)"/>
<path fill-rule="evenodd" clip-rule="evenodd" d="M40.9221 226.662L56.3236 222.273L60.6204 201.645L45.7826 198.772C45.7826 198.772 35.9207 199.653 31.294 211.892C31.2939 211.857 36.841 224.618 40.9221 226.662Z" fill="url(#paint39_linear_84_622)"/>
<path fill-rule="evenodd" clip-rule="evenodd" d="M56.3243 222.239L48.1627 218.321L45.7832 198.703L60.6211 201.576C60.6212 201.611 60.5077 210.755 56.3243 222.239Z" fill="url(#paint40_linear_84_622)"/>
<path fill-rule="evenodd" clip-rule="evenodd" d="M330.484 1292.32L314.559 1294.02L306.805 1313.61L320.934 1318.97C320.934 1318.97 330.802 1319.79 337.45 1308.52C337.444 1308.55 334.156 1295.03 330.484 1292.32Z" fill="url(#paint41_linear_84_622)"/>
<path fill-rule="evenodd" clip-rule="evenodd" d="M314.553 1294.05L321.926 1299.3L320.922 1319.04L306.792 1313.68C306.798 1313.64 308.471 1304.65 314.553 1294.05Z" fill="url(#paint42_linear_84_622)"/>
<path fill-rule="evenodd" clip-rule="evenodd" d="M200.325 206.528L173.819 212.978L165.138 247.805L190.203 253.679C190.203 253.679 207.048 252.832 215.734 232.308C215.732 232.366 207.136 210.279 200.325 206.528Z" fill="url(#paint43_linear_84_622)"/>
<path fill-rule="evenodd" clip-rule="evenodd" d="M173.817 213.037L187.45 220.246L190.199 253.796L165.134 247.922C165.136 247.864 165.935 232.306 173.817 213.037Z" fill="url(#paint44_linear_84_622)"/>
<path fill-rule="evenodd" clip-rule="evenodd" d="M169.984 1284.95L197.203 1283.12L211.701 1250.29L188.006 1240.22C188.006 1240.22 171.263 1238.18 159.201 1256.92C159.213 1256.86 163.913 1280.09 169.984 1284.95Z" fill="url(#paint45_linear_84_622)"/>
<path fill-rule="evenodd" clip-rule="evenodd" d="M197.214 1283.06L185.012 1273.63L188.029 1240.1L211.724 1250.17C211.712 1250.23 208.269 1265.42 197.214 1283.06Z" fill="url(#paint46_linear_84_622)"/>
<path fill-rule="evenodd" clip-rule="evenodd" d="M10.5016 16.6081L10.123 43.8853L41.6759 60.994L53.6267 38.1913C53.6267 38.1913 57.0163 21.6694 39.3135 8.12976C39.3694 8.14638 15.8349 10.9504 10.5016 16.6081Z" fill="url(#paint47_linear_84_622)"/>
<path fill-rule="evenodd" clip-rule="evenodd" d="M10.1787 43.9016L20.5658 32.5029L53.7384 38.2242L41.7874 61.0269C41.7315 61.0102 26.8673 56.3486 10.1787 43.9016Z" fill="url(#paint48_linear_84_622)"/>
<path fill-rule="evenodd" clip-rule="evenodd" d="M324.605 1504.48L329.633 1477.67L301.464 1455.43L285.796 1475.86C285.796 1475.86 279.636 1491.56 294.768 1507.92C294.716 1507.89 318.384 1509.15 324.605 1504.48Z" fill="url(#paint49_linear_84_622)"/>
<path fill-rule="evenodd" clip-rule="evenodd" d="M329.581 1477.65L317.401 1487.1L285.692 1475.81L301.36 1455.38C301.412 1455.4 315.262 1462.53 329.581 1477.65Z" fill="url(#paint50_linear_84_622)"/>
<path fill-rule="evenodd" clip-rule="evenodd" d="M265.628 450.775L271.277 477.463L305.827 487.189L312.452 462.311C312.452 462.311 312.113 445.449 291.859 436.148C291.918 436.152 269.582 444.08 265.628 450.775Z" fill="url(#paint51_linear_84_622)"/>
<path fill-rule="evenodd" clip-rule="evenodd" d="M271.336 477.466L278.952 464.057L312.57 462.318L305.944 487.196C305.886 487.192 290.359 485.925 271.336 477.466Z" fill="url(#paint52_linear_84_622)"/>
<path fill-rule="evenodd" clip-rule="evenodd" d="M474.433 1144.92L449.141 1155.14L445.597 1190.86L471.249 1193.04C471.249 1193.04 487.793 1189.76 493.414 1168.2C493.421 1168.25 481.715 1147.65 474.433 1144.92Z" fill="url(#paint53_linear_84_622)"/>
<path fill-rule="evenodd" clip-rule="evenodd" d="M449.148 1155.2L463.681 1160.36L471.262 1193.16L445.61 1190.98C445.604 1190.92 444.141 1175.41 449.148 1155.2Z" fill="url(#paint54_linear_84_622)"/>
<path fill-rule="evenodd" clip-rule="evenodd" d="M51.3008 479.236L52.3967 484.682L62.7738 488.553L65.3767 484.203C65.3767 484.203 65.6505 480.949 59.6915 478.003C59.6915 477.969 52.6707 478.175 51.3008 479.236Z" fill="url(#paint55_linear_84_622)"/>
<path fill-rule="evenodd" clip-rule="evenodd" d="M52.4316 484.682L55.0688 482.559L65.4116 484.203L62.8087 488.552C62.7745 488.552 58.0482 487.388 52.4316 484.682Z" fill="url(#paint56_linear_84_622)"/>
<path fill-rule="evenodd" clip-rule="evenodd" d="M39.1779 514.138L45 515.473L50.1371 509.48L45.7876 505.883C45.7876 505.883 42.3973 504.411 38.6643 507.562C38.6985 507.562 38.219 512.733 39.1779 514.138Z" fill="url(#paint57_linear_84_622)"/>
<path fill-rule="evenodd" clip-rule="evenodd" d="M45.0344 515.473L43.0823 512.733L45.822 505.883L50.1715 509.48C50.1373 509.48 48.4592 512.459 45.0344 515.473Z" fill="url(#paint58_linear_84_622)"/>
<path fill-rule="evenodd" clip-rule="evenodd" d="M25 527.427L28.6645 540.408L46.028 544.073L48.4597 531.606C48.4597 531.606 47.7404 523.283 37.4319 519.378C37.4661 519.344 26.7124 524.002 25 527.427Z" fill="url(#paint59_linear_84_622)"/>
<path fill-rule="evenodd" clip-rule="evenodd" d="M28.6641 540.408L31.9519 533.558L48.4592 531.605L46.0276 544.073C46.0276 544.073 38.3219 543.936 28.6641 540.408Z" fill="url(#paint60_linear_84_622)"/>
<path fill-rule="evenodd" clip-rule="evenodd" d="M250 506.899L251.096 512.344L261.473 516.215L264.076 511.865C264.076 511.865 264.35 508.611 258.391 505.666C258.391 505.631 251.37 505.837 250 506.899Z" fill="url(#paint61_linear_84_622)"/>
<path fill-rule="evenodd" clip-rule="evenodd" d="M251.131 512.31L253.768 510.187L264.111 511.831L261.508 516.18C261.474 516.215 256.747 515.05 251.131 512.31Z" fill="url(#paint62_linear_84_622)"/>
<path fill-rule="evenodd" clip-rule="evenodd" d="M296.49 545.236L297.586 550.682L307.963 554.553L310.566 550.203C310.566 550.203 310.84 546.949 304.881 544.003C304.881 543.969 297.826 544.175 296.49 545.236Z" fill="url(#paint63_linear_84_622)"/>
<path fill-rule="evenodd" clip-rule="evenodd" d="M297.586 550.648L300.223 548.524L310.566 550.168L307.963 554.518C307.963 554.552 303.237 553.388 297.586 550.648Z" fill="url(#paint64_linear_84_622)"/>
<path fill-rule="evenodd" clip-rule="evenodd" d="M110.884 94.3937L110.987 110.594L101.98 116.451L93.1097 110.731L89 94.5307L92.9726 91.0029C93.0069 91.0371 101.637 90.5576 110.884 94.3937Z" fill="url(#paint65_linear_84_622)"/>
<path fill-rule="evenodd" clip-rule="evenodd" d="M111.022 110.594L97.8021 107.82L93.1445 110.731L102.015 116.451L111.022 110.594Z" fill="url(#paint66_linear_84_622)"/>
<path fill-rule="evenodd" clip-rule="evenodd" d="M93.0078 91.0371L97.8025 107.82L93.1449 110.731L89.0352 94.5649L93.0078 91.0371Z" fill="url(#paint67_linear_84_622)"/>
<path fill-rule="evenodd" clip-rule="evenodd" d="M238.971 1410.71L241.635 1394.73L251.51 1390.49L259.274 1397.64L260.558 1414.31L256.041 1417.1C256.013 1417.06 247.428 1416.06 238.971 1410.71Z" fill="url(#paint68_linear_84_622)"/>
<path fill-rule="evenodd" clip-rule="evenodd" d="M241.601 1394.72L254.153 1399.71L259.239 1397.64L251.476 1390.49L241.601 1394.72Z" fill="url(#paint69_linear_84_622)"/>
<path fill-rule="evenodd" clip-rule="evenodd" d="M256.012 1417.06L254.153 1399.71L259.239 1397.64L260.529 1414.27L256.012 1417.06Z" fill="url(#paint70_linear_84_622)"/>
</g>
<defs>
<linearGradient id="paint0_linear_84_622" x1="333" y1="972" x2="392.001" y2="802.5" gradientUnits="userSpaceOnUse">
<stop offset="0.157979" stop-color="#0054A5"/>
<stop offset="0.461249" stop-color="#00286E"/>
</linearGradient>
<linearGradient id="paint1_linear_84_622" x1="291.5" y1="940.5" x2="395" y2="935" gradientUnits="userSpaceOnUse">
<stop offset="0.159615" stop-color="#01003E"/>
<stop offset="1" stop-color="#00286E"/>
</linearGradient>
<linearGradient id="paint2_linear_84_622" x1="303" y1="908" x2="352" y2="866.5" gradientUnits="userSpaceOnUse">
<stop stop-color="#3171D3"/>
<stop offset="1" stop-color="#0054A5"/>
</linearGradient>
<linearGradient id="paint3_linear_84_622" x1="380" y1="951.5" x2="417" y2="838.5" gradientUnits="userSpaceOnUse">
<stop stop-color="#3171D3"/>
<stop offset="0.636527" stop-color="#0054A5"/>
</linearGradient>
<linearGradient id="paint4_linear_84_622" x1="304.432" y1="797.917" x2="304.432" y2="707.01" gradientUnits="userSpaceOnUse">
<stop offset="0.100538" stop-color="#3171D3"/>
<stop offset="0.347834" stop-color="#0054A5"/>
<stop offset="0.842424" stop-color="#00286E"/>
</linearGradient>
<linearGradient id="paint5_linear_84_622" x1="246.996" y1="785.642" x2="334.5" y2="786" gradientUnits="userSpaceOnUse">
<stop stop-color="#01003E"/>
<stop offset="1" stop-color="#00286E"/>
</linearGradient>
<linearGradient id="paint6_linear_84_622" x1="322.662" y1="771.973" x2="355" y2="772" gradientUnits="userSpaceOnUse">
<stop stop-color="#01003E"/>
<stop offset="1" stop-color="#00286E"/>
</linearGradient>
<linearGradient id="paint7_linear_84_622" x1="319" y1="777" x2="318.915" y2="707.01" gradientUnits="userSpaceOnUse">
<stop offset="0.179983" stop-color="#3171D3"/>
<stop offset="0.85337" stop-color="#0054A5"/>
</linearGradient>
<linearGradient id="paint8_linear_84_622" x1="353.877" y1="780.494" x2="353.877" y2="729.487" gradientUnits="userSpaceOnUse">
<stop stop-color="#3171D3"/>
<stop offset="0.879609" stop-color="#0054A5"/>
</linearGradient>
<linearGradient id="paint9_linear_84_622" x1="188" y1="677.5" x2="191" y2="601" gradientUnits="userSpaceOnUse">
<stop offset="0.445498" stop-color="#00286E"/>
<stop offset="0.859983" stop-color="#090D4C"/>
</linearGradient>
<linearGradient id="paint10_linear_84_622" x1="164.984" y1="651.858" x2="202.011" y2="651.858" gradientUnits="userSpaceOnUse">
<stop stop-color="#090D4C"/>
<stop offset="1" stop-color="#00286E"/>
</linearGradient>
<linearGradient id="paint11_linear_84_622" x1="194" y1="680" x2="208" y2="608" gradientUnits="userSpaceOnUse">
<stop offset="0.27045" stop-color="#3171D3"/>
<stop offset="0.783713" stop-color="#0054A5"/>
</linearGradient>
<linearGradient id="paint12_linear_84_622" x1="134.786" y1="809.963" x2="100.423" y2="741.549" gradientUnits="userSpaceOnUse">
<stop offset="0.445498" stop-color="#00286E"/>
<stop offset="0.859983" stop-color="#090D4C"/>
</linearGradient>
<linearGradient id="paint13_linear_84_622" x1="102.24" y1="798.646" x2="134.651" y2="780.743" gradientUnits="userSpaceOnUse">
<stop stop-color="#090D4C"/>
<stop offset="1" stop-color="#00286E"/>
</linearGradient>
<linearGradient id="paint14_linear_84_622" x1="141.247" y1="809.25" x2="118.689" y2="739.457" gradientUnits="userSpaceOnUse">
<stop offset="0.27045" stop-color="#3171D3"/>
<stop offset="0.783713" stop-color="#0054A5"/>
</linearGradient>
<linearGradient id="paint15_linear_84_622" x1="222.501" y1="893" x2="225.245" y2="882.873" gradientUnits="userSpaceOnUse">
<stop stop-color="#090D4C"/>
<stop offset="1" stop-color="#090D4C"/>
</linearGradient>
<linearGradient id="paint16_linear_84_622" x1="218.646" y1="888.694" x2="230.839" y2="891.543" gradientUnits="userSpaceOnUse">
<stop stop-color="#090D4C"/>
<stop offset="1" stop-color="#090D4C"/>
</linearGradient>
<linearGradient id="paint17_linear_84_622" x1="214.168" y1="918.097" x2="204.533" y2="912.836" gradientUnits="userSpaceOnUse">
<stop stop-color="#00286E"/>
<stop offset="1" stop-color="#090D4C"/>
</linearGradient>
<linearGradient id="paint18_linear_84_622" x1="210.017" y1="919.916" x2="214.236" y2="912.19" gradientUnits="userSpaceOnUse">
<stop stop-color="#090D4C"/>
<stop offset="1" stop-color="#00286E"/>
</linearGradient>
<linearGradient id="paint19_linear_84_622" x1="317.785" y1="1137.34" x2="358.24" y2="1137.34" gradientUnits="userSpaceOnUse">
<stop stop-color="#090D4C"/>
<stop offset="1" stop-color="#180033"/>
</linearGradient>
<linearGradient id="paint20_linear_84_622" x1="245.151" y1="1031.64" x2="269.183" y2="1025.85" gradientUnits="userSpaceOnUse">
<stop stop-color="#0054A5"/>
<stop offset="1" stop-color="#00286E"/>
</linearGradient>
<linearGradient id="paint21_linear_84_622" x1="249.329" y1="1022.32" x2="255.009" y2="1046.57" gradientUnits="userSpaceOnUse">
<stop offset="0.162298" stop-color="#090D4C"/>
<stop offset="1" stop-color="#090D4C"/>
</linearGradient>
<linearGradient id="paint22_linear_84_622" x1="313.707" y1="1140.12" x2="354.325" y2="1110.11" gradientUnits="userSpaceOnUse">
<stop stop-color="#0054A5"/>
<stop offset="1" stop-color="#00286E"/>
</linearGradient>
<linearGradient id="paint23_linear_84_622" x1="314.158" y1="1119.27" x2="344.137" y2="1160.37" gradientUnits="userSpaceOnUse">
<stop offset="0.162298" stop-color="#090D4C"/>
<stop offset="1" stop-color="#090D4C"/>
</linearGradient>
<linearGradient id="paint24_linear_84_622" x1="210.783" y1="946.076" x2="194.664" y2="927.337" gradientUnits="userSpaceOnUse">
<stop stop-color="#0054A5"/>
<stop offset="0.916898" stop-color="#00286E"/>
</linearGradient>
<linearGradient id="paint25_linear_84_622" x1="200.591" y1="946.611" x2="218.997" y2="932.987" gradientUnits="userSpaceOnUse">
<stop offset="0.200493" stop-color="#090D4C"/>
<stop offset="1" stop-color="#00286E"/>
</linearGradient>
<linearGradient id="paint26_linear_84_622" x1="136" y1="527" x2="87.5" y2="263" gradientUnits="userSpaceOnUse">
<stop offset="0.076647" stop-color="#00286E"/>
<stop offset="0.919774" stop-color="#0054A5"/>
</linearGradient>
<linearGradient id="paint27_linear_84_622" x1="27.5" y1="348.5" x2="231.5" y2="484.5" gradientUnits="userSpaceOnUse">
<stop offset="0.140615" stop-color="#01003E"/>
<stop offset="0.927626" stop-color="#00286E"/>
</linearGradient>
<linearGradient id="paint28_linear_84_622" x1="118.441" y1="399.064" x2="246.5" y2="399" gradientUnits="userSpaceOnUse">
<stop offset="0.255111" stop-color="#0064D7"/>
<stop offset="1" stop-color="#0054A5"/>
</linearGradient>
<linearGradient id="paint29_linear_84_622" x1="143.378" y1="374.463" x2="143.378" y2="441.731" gradientUnits="userSpaceOnUse">
<stop stop-color="#0054A5"/>
<stop offset="1" stop-color="#0054A5" stop-opacity="0"/>
</linearGradient>
<linearGradient id="paint30_linear_84_622" x1="154.219" y1="421.146" x2="154.219" y2="470.33" gradientUnits="userSpaceOnUse">
<stop stop-color="#0054A5"/>
<stop offset="1" stop-color="#0054A5" stop-opacity="0"/>
</linearGradient>
<linearGradient id="paint31_linear_84_622" x1="222.863" y1="318.636" x2="235.108" y2="298.168" gradientUnits="userSpaceOnUse">
<stop stop-color="#0054A5"/>
<stop offset="1" stop-color="#00286E"/>
</linearGradient>
<linearGradient id="paint32_linear_84_622" x1="219.267" y1="309.468" x2="239.001" y2="323.999" gradientUnits="userSpaceOnUse">
<stop offset="0.123112" stop-color="#090D4C"/>
<stop offset="1" stop-color="#00286E"/>
</linearGradient>
<linearGradient id="paint33_linear_84_622" x1="276.06" y1="333.939" x2="268.451" y2="329.783" gradientUnits="userSpaceOnUse">
<stop stop-color="#090D4C"/>
<stop offset="1" stop-color="#00286E"/>
</linearGradient>
<linearGradient id="paint34_linear_84_622" x1="271.5" y1="338.5" x2="278.501" y2="328.001" gradientUnits="userSpaceOnUse">
<stop stop-color="#090D4C"/>
<stop offset="0.630978" stop-color="#00286E"/>
</linearGradient>
<linearGradient id="paint35_linear_84_622" x1="261.57" y1="350.957" x2="253.961" y2="346.802" gradientUnits="userSpaceOnUse">
<stop stop-color="#090D4C"/>
<stop offset="1" stop-color="#00286E"/>
</linearGradient>
<linearGradient id="paint36_linear_84_622" x1="257.01" y1="355.519" x2="264.011" y2="345.019" gradientUnits="userSpaceOnUse">
<stop stop-color="#090D4C"/>
<stop offset="0.630978" stop-color="#00286E"/>
</linearGradient>
<linearGradient id="paint37_linear_84_622" x1="285.361" y1="275.244" x2="295.001" y2="262.501" gradientUnits="userSpaceOnUse">
<stop stop-color="#00286E"/>
<stop offset="0.920342" stop-color="#0054A5"/>
</linearGradient>
<linearGradient id="paint38_linear_84_622" x1="283.369" y1="270.164" x2="292.464" y2="275.604" gradientUnits="userSpaceOnUse">
<stop stop-color="#090D4C"/>
<stop offset="1" stop-color="#00286E"/>
</linearGradient>
<linearGradient id="paint39_linear_84_622" x1="65.2921" y1="211.099" x2="26.2961" y2="212.699" gradientUnits="userSpaceOnUse">
<stop offset="0.209071" stop-color="#0054A5"/>
<stop offset="0.785342" stop-color="#00286E"/>
</linearGradient>
<linearGradient id="paint40_linear_84_622" x1="53.2617" y1="222.26" x2="53.2013" y2="198.728" gradientUnits="userSpaceOnUse">
<stop offset="0.466762" stop-color="#090D4C"/>
<stop offset="1" stop-color="#180033"/>
</linearGradient>
<linearGradient id="paint41_linear_84_622" x1="303.815" y1="1303.49" x2="342.512" y2="1308.57" gradientUnits="userSpaceOnUse">
<stop offset="0.209071" stop-color="#0054A5"/>
<stop offset="0.785342" stop-color="#00286E"/>
</linearGradient>
<linearGradient id="paint42_linear_84_622" x1="317.574" y1="1294.55" x2="313.617" y2="1317.75" gradientUnits="userSpaceOnUse">
<stop offset="0.466762" stop-color="#090D4C"/>
<stop offset="1" stop-color="#180033"/>
</linearGradient>
<linearGradient id="paint43_linear_84_622" x1="157.813" y1="231.403" x2="224.295" y2="231.264" gradientUnits="userSpaceOnUse">
<stop offset="0.209071" stop-color="#0054A5"/>
<stop offset="0.785342" stop-color="#00286E"/>
</linearGradient>
<linearGradient id="paint44_linear_84_622" x1="179.031" y1="213.204" x2="177.575" y2="253.262" gradientUnits="userSpaceOnUse">
<stop offset="0.466762" stop-color="#090D4C"/>
<stop offset="1" stop-color="#180033"/>
</linearGradient>
<linearGradient id="paint45_linear_84_622" x1="216.119" y1="1267.7" x2="150.588" y2="1256.49" gradientUnits="userSpaceOnUse">
<stop offset="0.209071" stop-color="#0054A5"/>
<stop offset="0.785342" stop-color="#00286E"/>
</linearGradient>
<linearGradient id="paint46_linear_84_622" x1="192.105" y1="1282.01" x2="200.378" y2="1242.79" gradientUnits="userSpaceOnUse">
<stop offset="0.466762" stop-color="#090D4C"/>
<stop offset="1" stop-color="#180033"/>
</linearGradient>
<linearGradient id="paint47_linear_84_622" x1="23.9633" y1="63.9878" x2="40.4422" y2="-0.420168" gradientUnits="userSpaceOnUse">
<stop offset="0.209071" stop-color="#0054A5"/>
<stop offset="0.785342" stop-color="#00286E"/>
</linearGradient>
<linearGradient id="paint48_linear_84_622" x1="11.6439" y1="38.8945" x2="50.0672" y2="50.3153" gradientUnits="userSpaceOnUse">
<stop offset="0.466762" stop-color="#090D4C"/>
<stop offset="1" stop-color="#180033"/>
</linearGradient>
<linearGradient id="paint49_linear_84_622" x1="319.428" y1="1455.5" x2="292.197" y2="1516.15" gradientUnits="userSpaceOnUse">
<stop offset="0.209071" stop-color="#0054A5"/>
<stop offset="0.785342" stop-color="#00286E"/>
</linearGradient>
<linearGradient id="paint50_linear_84_622" x1="327.283" y1="1482.33" x2="291.373" y2="1464.52" gradientUnits="userSpaceOnUse">
<stop offset="0.466762" stop-color="#090D4C"/>
<stop offset="1" stop-color="#180033"/>
</linearGradient>
<linearGradient id="paint51_linear_84_622" x1="289.211" y1="494.017" x2="291.074" y2="427.56" gradientUnits="userSpaceOnUse">
<stop offset="0.209071" stop-color="#0054A5"/>
<stop offset="0.785342" stop-color="#00286E"/>
</linearGradient>
<linearGradient id="paint52_linear_84_622" x1="271.66" y1="472.259" x2="311.656" y2="474.921" gradientUnits="userSpaceOnUse">
<stop offset="0.466762" stop-color="#090D4C"/>
<stop offset="1" stop-color="#180033"/>
</linearGradient>
<linearGradient id="paint53_linear_84_622" x1="435.973" y1="1175.69" x2="501.734" y2="1165.92" gradientUnits="userSpaceOnUse">
<stop offset="0.209071" stop-color="#0054A5"/>
<stop offset="0.785342" stop-color="#00286E"/>
</linearGradient>
<linearGradient id="paint54_linear_84_622" x1="454.331" y1="1154.61" x2="458.693" y2="1194.46" gradientUnits="userSpaceOnUse">
<stop offset="0.466762" stop-color="#090D4C"/>
<stop offset="1" stop-color="#180033"/>
</linearGradient>
<linearGradient id="paint55_linear_84_622" x1="57.0595" y1="487.214" x2="59.2434" y2="477.873" gradientUnits="userSpaceOnUse">
<stop stop-color="#090D4C"/>
<stop offset="1" stop-color="#180033"/>
</linearGradient>
<linearGradient id="paint56_linear_84_622" x1="52.6438" y1="483.694" x2="64.837" y2="486.543" gradientUnits="userSpaceOnUse">
<stop stop-color="#090D4C"/>
<stop offset="1" stop-color="#180033"/>
</linearGradient>
<linearGradient id="paint57_linear_84_622" x1="48.1676" y1="513.098" x2="38.5335" y2="507.837" gradientUnits="userSpaceOnUse">
<stop stop-color="#090D4C"/>
<stop offset="1" stop-color="#180033"/>
</linearGradient>
<linearGradient id="paint58_linear_84_622" x1="44.0168" y1="514.917" x2="48.2366" y2="507.191" gradientUnits="userSpaceOnUse">
<stop stop-color="#090D4C"/>
<stop offset="1" stop-color="#180033"/>
</linearGradient>
<linearGradient id="paint59_linear_84_622" x1="33.5" y1="546" x2="36.7374" y2="519.348" gradientUnits="userSpaceOnUse">
<stop stop-color="#0054A5"/>
<stop offset="1" stop-color="#00286E"/>
</linearGradient>
<linearGradient id="paint60_linear_84_622" x1="28.6613" y1="537.825" x2="48.4832" y2="537.825" gradientUnits="userSpaceOnUse">
<stop stop-color="#090D4C"/>
<stop offset="1" stop-color="#00286E"/>
</linearGradient>
<linearGradient id="paint61_linear_84_622" x1="255.765" y1="514.874" x2="257.949" y2="505.534" gradientUnits="userSpaceOnUse">
<stop stop-color="#090D4C"/>
<stop offset="1" stop-color="#180033"/>
</linearGradient>
<linearGradient id="paint62_linear_84_622" x1="251.349" y1="511.354" x2="263.542" y2="514.204" gradientUnits="userSpaceOnUse">
<stop stop-color="#090D4C"/>
<stop offset="1" stop-color="#180033"/>
</linearGradient>
<linearGradient id="paint63_linear_84_622" x1="302.232" y1="553.209" x2="304.416" y2="543.868" gradientUnits="userSpaceOnUse">
<stop stop-color="#090D4C"/>
<stop offset="1" stop-color="#180033"/>
</linearGradient>
<linearGradient id="paint64_linear_84_622" x1="297.815" y1="549.689" x2="310.009" y2="552.538" gradientUnits="userSpaceOnUse">
<stop stop-color="#090D4C"/>
<stop offset="1" stop-color="#180033"/>
</linearGradient>
<linearGradient id="paint65_linear_84_622" x1="106.846" y1="134.001" x2="97.3456" y2="81.0015" gradientUnits="userSpaceOnUse">
<stop offset="0.283772" stop-color="#090D4C"/>
<stop offset="0.64881" stop-color="#00286E"/>
</linearGradient>
<linearGradient id="paint66_linear_84_622" x1="113.846" y1="115.001" x2="93.1505" y2="112.181" gradientUnits="userSpaceOnUse">
<stop stop-color="#090D4C"/>
<stop offset="0.604912" stop-color="#00286E"/>
</linearGradient>
<linearGradient id="paint67_linear_84_622" x1="98.3467" y1="115.001" x2="87.3466" y2="89.5015" gradientUnits="userSpaceOnUse">
<stop stop-color="#3171D3"/>
<stop offset="0.655298" stop-color="#0054A5"/>
</linearGradient>
<linearGradient id="paint68_linear_84_622" x1="249.711" y1="1372.37" x2="250.025" y2="1426.21" gradientUnits="userSpaceOnUse">
<stop offset="0.283772" stop-color="#090D4C"/>
<stop offset="0.64881" stop-color="#00286E"/>
</linearGradient>
<linearGradient id="paint69_linear_84_622" x1="239.57" y1="1389.9" x2="259.481" y2="1396.21" gradientUnits="userSpaceOnUse">
<stop stop-color="#090D4C"/>
<stop offset="0.604912" stop-color="#00286E"/>
</linearGradient>
<linearGradient id="paint70_linear_84_622" x1="254.842" y1="1392.54" x2="261.328" y2="1419.54" gradientUnits="userSpaceOnUse">
<stop stop-color="#3171D3"/>
<stop offset="0.655298" stop-color="#0054A5"/>
</linearGradient>
</defs>
</svg>
