<svg width="386" height="1105" viewBox="0 0 386 1105" fill="none" xmlns="http://www.w3.org/2000/svg">
<g filter="url(#filter0_f_84_62)">
<path opacity="0.9" d="M99.5591 7.37884L97.5906 8.05087C97.5137 8.08278 97.4553 8.14153 97.438 8.23151L97.0499 10.256C97.0326 10.346 97.0652 10.4222 97.1248 10.4802L98.7052 11.8327C98.7649 11.8907 98.8559 11.9082 98.9327 11.8763L100.901 11.2042C100.978 11.1723 101.037 11.1136 101.054 11.0236L101.442 8.99913C101.459 8.90915 101.427 8.83295 101.367 8.77488L99.7866 7.42245C99.7227 7.38687 99.6317 7.36943 99.5591 7.37884Z" fill="white"/>
<path opacity="0.9" d="M9.74856 98.3559L7.78002 99.0279C7.70315 99.0598 7.64471 99.1186 7.62746 99.2086L7.23934 101.233C7.22209 101.323 7.25465 101.399 7.31428 101.457L8.89469 102.81C8.95431 102.868 9.04531 102.885 9.12219 102.853L11.0907 102.181C11.1676 102.149 11.226 102.091 11.2433 102.001L11.6314 99.9762C11.6487 99.8862 11.6161 99.81 11.5565 99.7519L9.97606 98.3995C9.91212 98.3639 9.82112 98.3465 9.74856 98.3559Z" fill="white"/>
<path opacity="0.9" d="M377.081 100.41L375.884 100.818C375.837 100.838 375.802 100.873 375.791 100.928L375.556 102.158C375.545 102.213 375.565 102.259 375.601 102.295L376.562 103.116C376.598 103.152 376.653 103.162 376.7 103.143L377.896 102.735C377.943 102.715 377.979 102.679 377.989 102.625L378.225 101.394C378.235 101.34 378.216 101.293 378.179 101.258L377.219 100.436C377.18 100.415 377.125 100.404 377.081 100.41Z" fill="white"/>
<path opacity="0.9" d="M174.245 91.7095L173.048 92.1179C173.002 92.1373 172.966 92.173 172.956 92.2277L172.72 93.4581C172.709 93.5128 172.729 93.5591 172.765 93.5944L173.726 94.4163C173.762 94.4516 173.817 94.4622 173.864 94.4428L175.06 94.0344C175.107 94.015 175.143 93.9793 175.153 93.9246L175.389 92.6942C175.399 92.6396 175.38 92.5932 175.343 92.5579L174.383 91.736C174.344 91.7144 174.289 91.7038 174.245 91.7095Z" fill="white"/>
<path opacity="0.9" d="M215.62 463.677L216.349 465.625C216.383 465.701 216.444 465.757 216.534 465.772L218.569 466.101C218.66 466.115 218.735 466.08 218.791 466.019L220.097 464.4C220.153 464.338 220.168 464.247 220.134 464.171L219.404 462.223C219.37 462.147 219.31 462.09 219.219 462.076L217.184 461.747C217.094 461.733 217.019 461.767 216.962 461.829L215.657 463.448C215.623 463.513 215.608 463.604 215.62 463.677Z" fill="white"/>
<path opacity="0.9" d="M309.188 550.784L309.918 552.732C309.952 552.808 310.012 552.864 310.103 552.879L312.138 553.207C312.228 553.222 312.303 553.187 312.36 553.126L313.665 551.507C313.721 551.445 313.736 551.354 313.702 551.278L312.973 549.33C312.939 549.254 312.878 549.197 312.788 549.183L310.753 548.854C310.662 548.84 310.587 548.874 310.531 548.936L309.225 550.555C309.192 550.62 309.177 550.711 309.188 550.784Z" fill="white"/>
<path opacity="0.9" d="M300.48 183.55L300.923 184.734C300.944 184.78 300.981 184.815 301.036 184.824L302.273 185.023C302.327 185.032 302.373 185.011 302.407 184.974L303.201 183.99C303.235 183.952 303.244 183.897 303.223 183.851L302.78 182.667C302.759 182.621 302.723 182.586 302.668 182.577L301.431 182.378C301.376 182.369 301.33 182.39 301.296 182.427L300.502 183.411C300.482 183.451 300.473 183.506 300.48 183.55Z" fill="white"/>
<path opacity="0.9" d="M297.726 386.554L298.169 387.738C298.19 387.784 298.227 387.819 298.282 387.827L299.519 388.027C299.574 388.036 299.619 388.015 299.653 387.978L300.447 386.994C300.481 386.956 300.49 386.901 300.469 386.855L300.026 385.671C300.005 385.625 299.969 385.59 299.914 385.581L298.677 385.381C298.622 385.373 298.576 385.394 298.542 385.431L297.749 386.415C297.728 386.455 297.719 386.51 297.726 386.554Z" fill="white"/>
<path opacity="0.9" d="M256.546 1007.5L257.275 1009.45C257.309 1009.52 257.37 1009.58 257.46 1009.6L259.495 1009.92C259.586 1009.94 259.661 1009.9 259.717 1009.84L261.023 1008.22C261.079 1008.16 261.094 1008.07 261.06 1008L260.33 1006.05C260.296 1005.97 260.236 1005.91 260.145 1005.9L258.11 1005.57C258.02 1005.56 257.944 1005.59 257.888 1005.65L256.583 1007.27C256.549 1007.34 256.534 1007.43 256.546 1007.5Z" fill="white"/>
<path opacity="0.9" d="M350.116 1094.61L350.845 1096.56C350.88 1096.63 350.94 1096.69 351.03 1096.7L353.065 1097.03C353.156 1097.05 353.231 1097.01 353.287 1096.95L354.593 1095.33C354.649 1095.27 354.664 1095.18 354.63 1095.1L353.9 1093.15C353.866 1093.08 353.806 1093.02 353.715 1093.01L351.68 1092.68C351.59 1092.66 351.515 1092.7 351.458 1092.76L350.153 1094.38C350.119 1094.44 350.104 1094.54 350.116 1094.61Z" fill="white"/>
<path opacity="0.9" d="M341.408 727.374L341.851 728.558C341.872 728.604 341.909 728.639 341.963 728.648L343.2 728.848C343.255 728.856 343.301 728.835 343.335 728.798L344.129 727.814C344.163 727.777 344.172 727.721 344.151 727.675L343.708 726.491C343.687 726.445 343.65 726.41 343.595 726.402L342.359 726.202C342.304 726.193 342.258 726.214 342.224 726.251L341.43 727.235C341.41 727.275 341.401 727.331 341.408 727.374Z" fill="white"/>
<path opacity="0.9" d="M338.652 930.378L339.095 931.562C339.116 931.608 339.153 931.643 339.208 931.652L340.444 931.851C340.499 931.86 340.545 931.839 340.579 931.802L341.373 930.818C341.407 930.781 341.416 930.725 341.395 930.679L340.952 929.495C340.931 929.449 340.894 929.414 340.839 929.405L339.603 929.206C339.548 929.197 339.502 929.218 339.468 929.255L338.674 930.239C338.654 930.279 338.645 930.334 338.652 930.378Z" fill="white"/>
</g>
<path opacity="0.9" d="M99.5591 7.37884L97.5906 8.05087C97.5137 8.08278 97.4553 8.14153 97.438 8.23151L97.0499 10.256C97.0326 10.346 97.0652 10.4222 97.1248 10.4802L98.7052 11.8327C98.7649 11.8907 98.8559 11.9082 98.9327 11.8763L100.901 11.2042C100.978 11.1723 101.037 11.1136 101.054 11.0236L101.442 8.99913C101.459 8.90915 101.427 8.83295 101.367 8.77488L99.7866 7.42245C99.7227 7.38687 99.6317 7.36943 99.5591 7.37884Z" fill="white"/>
<path opacity="0.9" d="M9.74856 98.3559L7.78002 99.0279C7.70315 99.0598 7.64471 99.1186 7.62746 99.2086L7.23934 101.233C7.22209 101.323 7.25465 101.399 7.31428 101.457L8.89469 102.81C8.95431 102.868 9.04531 102.885 9.12219 102.853L11.0907 102.181C11.1676 102.149 11.226 102.091 11.2433 102.001L11.6314 99.9762C11.6487 99.8862 11.6161 99.81 11.5565 99.7519L9.97606 98.3995C9.91212 98.3639 9.82112 98.3465 9.74856 98.3559Z" fill="white"/>
<path opacity="0.9" d="M377.081 100.41L375.884 100.818C375.837 100.838 375.802 100.873 375.791 100.928L375.556 102.158C375.545 102.213 375.565 102.259 375.601 102.295L376.562 103.116C376.598 103.152 376.653 103.162 376.7 103.143L377.896 102.735C377.943 102.715 377.979 102.679 377.989 102.625L378.225 101.394C378.235 101.34 378.216 101.293 378.179 101.258L377.219 100.436C377.18 100.415 377.125 100.404 377.081 100.41Z" fill="white"/>
<path opacity="0.9" d="M174.245 91.7095L173.048 92.1179C173.002 92.1373 172.966 92.173 172.956 92.2277L172.72 93.4581C172.709 93.5128 172.729 93.5591 172.765 93.5944L173.726 94.4163C173.762 94.4516 173.817 94.4622 173.864 94.4428L175.06 94.0344C175.107 94.015 175.143 93.9793 175.153 93.9246L175.389 92.6942C175.399 92.6396 175.38 92.5932 175.343 92.5579L174.383 91.736C174.344 91.7144 174.289 91.7038 174.245 91.7095Z" fill="white"/>
<path opacity="0.9" d="M215.62 463.677L216.349 465.625C216.383 465.701 216.444 465.757 216.534 465.772L218.569 466.101C218.66 466.115 218.735 466.08 218.791 466.019L220.097 464.4C220.153 464.338 220.168 464.247 220.134 464.171L219.404 462.223C219.37 462.147 219.31 462.09 219.219 462.076L217.184 461.747C217.094 461.733 217.019 461.767 216.962 461.829L215.657 463.448C215.623 463.513 215.608 463.604 215.62 463.677Z" fill="white"/>
<path opacity="0.9" d="M309.188 550.784L309.918 552.732C309.952 552.808 310.012 552.864 310.103 552.879L312.138 553.207C312.228 553.222 312.303 553.187 312.36 553.126L313.665 551.507C313.721 551.445 313.736 551.354 313.702 551.278L312.973 549.33C312.939 549.254 312.878 549.197 312.788 549.183L310.753 548.854C310.662 548.84 310.587 548.874 310.531 548.936L309.225 550.555C309.192 550.62 309.177 550.711 309.188 550.784Z" fill="white"/>
<path opacity="0.9" d="M300.48 183.55L300.923 184.734C300.944 184.78 300.981 184.815 301.036 184.824L302.273 185.023C302.327 185.032 302.373 185.011 302.407 184.974L303.201 183.99C303.235 183.952 303.244 183.897 303.223 183.851L302.78 182.667C302.759 182.621 302.723 182.586 302.668 182.577L301.431 182.378C301.376 182.369 301.33 182.39 301.296 182.427L300.502 183.411C300.482 183.451 300.473 183.506 300.48 183.55Z" fill="white"/>
<path opacity="0.9" d="M297.726 386.554L298.169 387.738C298.19 387.784 298.227 387.819 298.282 387.827L299.519 388.027C299.574 388.036 299.619 388.015 299.653 387.978L300.447 386.994C300.481 386.956 300.49 386.901 300.469 386.855L300.026 385.671C300.005 385.625 299.969 385.59 299.914 385.581L298.677 385.381C298.622 385.373 298.576 385.394 298.542 385.431L297.749 386.415C297.728 386.455 297.719 386.51 297.726 386.554Z" fill="white"/>
<path opacity="0.9" d="M256.546 1007.5L257.275 1009.45C257.309 1009.52 257.37 1009.58 257.46 1009.6L259.495 1009.92C259.586 1009.94 259.661 1009.9 259.717 1009.84L261.023 1008.22C261.079 1008.16 261.094 1008.07 261.06 1008L260.33 1006.05C260.296 1005.97 260.236 1005.91 260.145 1005.9L258.11 1005.57C258.02 1005.56 257.944 1005.59 257.888 1005.65L256.583 1007.27C256.549 1007.34 256.534 1007.43 256.546 1007.5Z" fill="white"/>
<path opacity="0.9" d="M350.116 1094.61L350.845 1096.56C350.88 1096.63 350.94 1096.69 351.03 1096.7L353.065 1097.03C353.156 1097.05 353.231 1097.01 353.287 1096.95L354.593 1095.33C354.649 1095.27 354.664 1095.18 354.63 1095.1L353.9 1093.15C353.866 1093.08 353.806 1093.02 353.715 1093.01L351.68 1092.68C351.59 1092.66 351.515 1092.7 351.458 1092.76L350.153 1094.38C350.119 1094.44 350.104 1094.54 350.116 1094.61Z" fill="white"/>
<path opacity="0.9" d="M341.408 727.374L341.851 728.558C341.872 728.604 341.909 728.639 341.963 728.648L343.2 728.848C343.255 728.856 343.301 728.835 343.335 728.798L344.129 727.814C344.163 727.777 344.172 727.721 344.151 727.675L343.708 726.491C343.687 726.445 343.65 726.41 343.595 726.402L342.359 726.202C342.304 726.193 342.258 726.214 342.224 726.251L341.43 727.235C341.41 727.275 341.401 727.331 341.408 727.374Z" fill="white"/>
<path opacity="0.9" d="M338.652 930.378L339.095 931.562C339.116 931.608 339.153 931.643 339.208 931.652L340.444 931.851C340.499 931.86 340.545 931.839 340.579 931.802L341.373 930.818C341.407 930.781 341.416 930.725 341.395 930.679L340.952 929.495C340.931 929.449 340.894 929.414 340.839 929.405L339.603 929.206C339.548 929.197 339.502 929.218 339.468 929.255L338.674 930.239C338.654 930.279 338.645 930.334 338.652 930.378Z" fill="white"/>
<defs>
<filter id="filter0_f_84_62" x="0.234863" y="0.376465" width="384.993" height="1103.66" filterUnits="userSpaceOnUse" color-interpolation-filters="sRGB">
<feFlood flood-opacity="0" result="BackgroundImageFix"/>
<feBlend mode="normal" in="SourceGraphic" in2="BackgroundImageFix" result="shape"/>
<feGaussianBlur stdDeviation="3.5" result="effect1_foregroundBlur_84_62"/>
</filter>
</defs>
</svg>
