<svg width="316" height="567" viewBox="0 0 316 567" fill="none" xmlns="http://www.w3.org/2000/svg">
<g filter="url(#filter0_f_73_83)">
<path opacity="0.4" d="M276.575 310.488L276.564 310.518L276.555 310.549L255.367 384.972C254.418 387.616 252.576 389.61 249.65 390.333L175.016 408.777C172.09 409.5 169.531 408.594 167.46 406.696L114.116 350.784C112.83 348.691 112.081 345.662 112.244 343.211L133.404 268.887C134.353 266.243 136.195 264.25 139.121 263.527L213.756 245.083C216.681 244.36 219.24 245.266 221.312 247.163L274.727 303.15L274.749 303.173L274.773 303.195C276.757 305.023 277.479 307.947 276.575 310.488Z" stroke="white" stroke-width="2"/>
<path d="M122.133 266.204L122.122 266.235L122.113 266.266L100.857 340.41C99.9056 343.043 98.0622 345.031 95.1346 345.755L20.5 364.198C17.5723 364.922 15.0151 364.021 12.9469 362.134L-40.3276 306.501C-41.61 304.42 -42.3549 301.406 -42.1895 298.967L-20.9613 224.922C-20.0101 222.289 -18.1667 220.301 -15.2391 219.578L59.3955 201.134C62.3231 200.41 64.8803 201.311 66.9485 203.198L120.295 258.906L120.317 258.929L120.341 258.951C122.32 260.767 123.039 263.675 122.133 266.204Z" stroke="white" stroke-width="2"/>
<path d="M239.137 158.99L239.127 159.02L239.118 159.051L217.861 233.195C216.91 235.828 215.066 237.816 212.139 238.54L137.504 256.984C134.576 257.707 132.019 256.807 129.951 254.92L76.6766 199.286C75.3942 197.205 74.6493 194.191 74.8147 191.752L96.0428 117.707C96.994 115.074 98.8374 113.086 101.765 112.363L176.4 93.919C179.327 93.1955 181.884 94.0959 183.953 95.9829L237.299 151.691L237.321 151.714L237.345 151.736C239.324 153.552 240.043 156.46 239.137 158.99Z" stroke="white" stroke-width="2"/>
<path d="M160.995 423.46L160.984 423.491L160.975 423.522L139.718 497.666C138.767 500.299 136.924 502.287 133.996 503.01L59.3615 521.454C56.4339 522.178 53.8767 521.277 51.8084 519.39L-1.46602 463.757C-2.74842 461.676 -3.49332 458.662 -3.32791 456.223L17.9002 382.178C18.8515 379.545 20.6948 377.557 23.6225 376.834L98.2571 358.39C101.185 357.666 103.742 358.567 105.81 360.454L159.156 416.162L159.179 416.185L159.202 416.207C161.182 418.023 161.9 420.931 160.995 423.46Z" stroke="white" stroke-width="2"/>
<path d="M8.61156 376.708L8.60075 376.738L8.59192 376.769L-12.5959 451.192C-13.5453 453.836 -15.3874 455.829 -18.3132 456.552L-92.9478 474.996C-95.8735 475.719 -98.432 474.814 -100.504 472.916L-153.848 417.004C-155.134 414.911 -155.882 411.881 -155.719 409.431L-134.559 335.107C-133.61 332.463 -131.768 330.47 -128.842 329.747L-54.2077 311.303C-51.2819 310.58 -48.7234 311.485 -46.6515 313.383L6.76345 369.37L6.78571 369.393L6.80943 369.415C8.79316 371.243 9.51571 374.166 8.61156 376.708Z" stroke="white" stroke-width="2"/>
<path opacity="0.2" d="M83.738 110.836L83.7271 110.867L83.7182 110.898L62.4616 185.042C61.5104 187.675 59.667 189.663 56.7393 190.386L-17.8953 208.83C-20.8229 209.554 -23.3801 208.653 -25.4484 206.766L-78.7229 151.133C-80.0053 149.052 -80.7502 146.038 -80.5847 143.599L-59.3566 69.5542C-58.4054 66.921 -56.562 64.933 -53.6344 64.2096L21.0002 45.7656C23.9279 45.0422 26.485 45.9426 28.5533 47.8296L81.8993 103.538L81.9217 103.561L81.9455 103.583C83.925 105.399 84.6436 108.307 83.738 110.836Z" stroke="white" stroke-width="2"/>
</g>
<defs>
<filter id="filter0_f_73_83" x="-252" y="-20" width="587.501" height="606.444" filterUnits="userSpaceOnUse" color-interpolation-filters="sRGB">
<feFlood flood-opacity="0" result="BackgroundImageFix"/>
<feBlend mode="normal" in="SourceGraphic" in2="BackgroundImageFix" result="shape"/>
<feGaussianBlur stdDeviation="10" result="effect1_foregroundBlur_73_83"/>
</filter>
</defs>
</svg>
