<svg width="297" height="982" viewBox="0 0 297 982" fill="none" xmlns="http://www.w3.org/2000/svg">
<g filter="url(#filter0_f_74_135)">
<path d="M354.134 780.204L354.123 780.235L354.114 780.266L332.857 854.41C331.906 857.043 330.062 859.031 327.135 859.755L252.5 878.198C249.573 878.922 247.015 878.021 244.947 876.134L191.673 820.501C190.39 818.42 189.645 815.406 189.811 812.967L211.039 738.922C211.99 736.289 213.834 734.301 216.761 733.578L291.396 715.134C294.323 714.41 296.881 715.311 298.949 717.198L352.295 772.906L352.317 772.929L352.341 772.951C354.321 774.767 355.039 777.675 354.134 780.204Z" stroke="white" stroke-width="2"/>
<path d="M471.137 672.99L471.127 673.02L471.118 673.051L449.861 747.195C448.91 749.828 447.066 751.816 444.139 752.54L369.504 770.984C366.576 771.707 364.019 770.807 361.951 768.92L308.677 713.286C307.394 711.205 306.649 708.191 306.815 705.752L328.043 631.707C328.994 629.074 330.837 627.086 333.765 626.363L408.4 607.919C411.327 607.195 413.884 608.096 415.953 609.983L469.299 665.691L469.321 665.714L469.345 665.736C471.324 667.552 472.043 670.46 471.137 672.99Z" stroke="white" stroke-width="2"/>
<path d="M392.995 937.46L392.984 937.491L392.975 937.522L371.718 1011.67C370.767 1014.3 368.924 1016.29 365.996 1017.01L291.362 1035.45C288.434 1036.18 285.877 1035.28 283.808 1033.39L230.534 977.757C229.252 975.676 228.507 972.662 228.672 970.223L249.9 896.178C250.851 893.545 252.695 891.557 255.622 890.834L330.257 872.39C333.185 871.666 335.742 872.567 337.81 874.454L391.156 930.162L391.179 930.185L391.202 930.207C393.182 932.023 393.9 934.931 392.995 937.46Z" stroke="white" stroke-width="2"/>
<path d="M240.611 890.708L240.601 890.738L240.592 890.769L219.404 965.192C218.454 967.836 216.612 969.829 213.687 970.552L139.052 988.996C136.126 989.719 133.568 988.814 131.496 986.916L78.152 931.004C76.866 928.911 76.1173 925.881 76.2806 923.431L97.4403 849.107C98.3896 846.463 100.232 844.47 103.157 843.747L177.792 825.303C180.718 824.58 183.276 825.485 185.348 827.383L238.763 883.37L238.785 883.393L238.809 883.415C240.793 885.243 241.515 888.166 240.611 890.708Z" stroke="white" stroke-width="2"/>
<path opacity="0.5" d="M202.446 736.263L202.435 736.293L202.426 736.325L181.17 810.468C180.218 813.102 178.375 815.09 175.447 815.813L100.813 834.257C97.8851 834.981 95.3279 834.08 93.2596 832.193L39.9851 776.56C38.7027 774.479 37.9578 771.464 38.1233 769.025L59.3514 694.981C60.3026 692.348 62.146 690.36 65.0736 689.636L139.708 671.192C142.636 670.469 145.193 671.369 147.261 673.256L200.607 728.964L200.63 728.988L200.654 729.01C202.633 730.826 203.352 733.734 202.446 736.263Z" stroke="white" stroke-width="2"/>
<path opacity="0.2" d="M315.738 624.836L315.727 624.867L315.718 624.898L294.462 699.042C293.51 701.675 291.667 703.663 288.739 704.386L214.105 722.83C211.177 723.554 208.62 722.653 206.552 720.766L153.277 665.133C151.995 663.052 151.25 660.038 151.415 657.599L172.643 583.554C173.595 580.921 175.438 578.933 178.366 578.21L253 559.766C255.928 559.042 258.485 559.943 260.553 561.83L313.899 617.538L313.922 617.561L313.946 617.583C315.925 619.399 316.644 622.307 315.738 624.836Z" stroke="white" stroke-width="2"/>
</g>
<g filter="url(#filter1_f_74_135)">
<path opacity="0.4" d="M178.072 289.096L178.056 289.068L178.038 289.042L150.421 248.95C149.575 247.52 149.375 245.963 150.132 244.388L171.088 200.78C171.845 199.205 173.186 198.389 174.83 198.156L223.284 194.678C224.717 194.888 226.38 195.687 227.44 196.675L254.997 236.681C255.843 238.11 256.043 239.667 255.286 241.243L234.33 284.85C233.573 286.425 232.232 287.242 230.587 287.475L182.029 290.96L181.997 290.962L181.965 290.967C180.43 291.177 178.867 290.425 178.072 289.096Z" stroke="white" stroke-width="2"/>
<path d="M261.446 231.897L261.429 231.87L261.411 231.843L233.957 191.829C233.118 190.403 232.92 188.847 233.678 187.27L254.634 143.663C255.392 142.086 256.73 141.269 258.368 141.033L306.658 137.477C308.084 137.685 309.737 138.48 310.79 139.463L338.185 179.39C339.024 180.816 339.222 182.372 338.464 183.949L317.508 227.556C316.75 229.133 315.412 229.951 313.774 230.186L265.379 233.75L265.346 233.752L265.314 233.756C263.788 233.969 262.234 233.222 261.446 231.897Z" stroke="white" stroke-width="2"/>
<path d="M266.59 331.635L266.573 331.607L266.555 331.58L239.101 291.566C238.261 290.14 238.064 288.585 238.821 287.008L259.777 243.4C260.535 241.824 261.873 241.006 263.511 240.77L311.802 237.215C313.228 237.423 314.881 238.217 315.934 239.2L343.328 279.128C344.168 280.553 344.366 282.109 343.608 283.686L322.652 327.293C321.894 328.87 320.556 329.688 318.918 329.923L270.522 333.487L270.49 333.489L270.458 333.494C268.931 333.706 267.378 332.959 266.59 331.635Z" stroke="white" stroke-width="2"/>
<path d="M169.565 187.743L169.549 187.715L169.53 187.689L142.076 147.675C141.237 146.249 141.039 144.693 141.797 143.116L162.753 99.5088C163.511 97.932 164.849 97.1143 166.487 96.8789L214.778 93.3232C216.203 93.5311 217.856 94.3254 218.909 95.3087L246.304 135.236C247.143 136.662 247.341 138.218 246.583 139.795L225.627 183.402C224.87 184.979 223.531 185.796 221.894 186.032L173.498 189.595L173.466 189.598L173.434 189.602C171.907 189.814 170.353 189.068 169.565 187.743Z" stroke="white" stroke-width="2"/>
<path d="M253.312 132.531L253.295 132.503L253.277 132.476L225.66 92.3841C224.814 90.9544 224.614 89.3974 225.371 87.8222L246.327 44.2149C247.084 42.6397 248.425 41.8232 250.069 41.5902L298.524 38.1125C299.957 38.3231 301.619 39.1219 302.679 40.1092L330.236 80.1152C331.082 81.545 331.282 83.102 330.525 84.6772L309.569 128.285C308.812 129.86 307.471 130.676 305.827 130.909L257.268 134.394L257.236 134.397L257.204 134.401C255.669 134.611 254.106 133.86 253.312 132.531Z" stroke="white" stroke-width="2"/>
</g>
<defs>
<filter id="filter0_f_74_135" x="-20" y="494" width="587.501" height="606.444" filterUnits="userSpaceOnUse" color-interpolation-filters="sRGB">
<feFlood flood-opacity="0" result="BackgroundImageFix"/>
<feBlend mode="normal" in="SourceGraphic" in2="BackgroundImageFix" result="shape"/>
<feGaussianBlur stdDeviation="10" result="effect1_foregroundBlur_74_135"/>
</filter>
<filter id="filter1_f_74_135" x="70" y="-24.9995" width="430.159" height="422.522" filterUnits="userSpaceOnUse" color-interpolation-filters="sRGB">
<feFlood flood-opacity="0" result="BackgroundImageFix"/>
<feBlend mode="normal" in="SourceGraphic" in2="BackgroundImageFix" result="shape"/>
<feGaussianBlur stdDeviation="10" result="effect1_foregroundBlur_74_135"/>
</filter>
</defs>
</svg>
