<svg width="1385" height="195" viewBox="0 0 1385 195" fill="none" xmlns="http://www.w3.org/2000/svg">
<g filter="url(#filter0_f_73_91)">
<path opacity="0.9" d="M760.627 95.1599L756.847 96.699C756.7 96.7702 756.592 96.8919 756.568 97.0701L756.037 101.08C756.013 101.258 756.086 101.404 756.209 101.511L759.458 103.982C759.581 104.089 759.761 104.113 759.908 104.041L763.689 102.502C763.836 102.431 763.944 102.309 763.967 102.131L764.499 98.1212C764.522 97.943 764.45 97.7974 764.327 97.6904L761.078 95.2196C760.948 95.1571 760.768 95.1332 760.627 95.1599Z" fill="white"/>
<path opacity="0.9" d="M304.684 82.7903L302.757 83.5747C302.683 83.6109 302.628 83.673 302.616 83.7638L302.345 85.8072C302.333 85.8981 302.37 85.9723 302.432 86.0268L304.088 87.2859C304.151 87.3405 304.243 87.3527 304.318 87.3164L306.244 86.532C306.319 86.4958 306.374 86.4337 306.386 86.3429L306.657 84.2995C306.669 84.2086 306.632 84.1344 306.569 84.0799L304.914 82.8208C304.848 82.7889 304.756 82.7768 304.684 82.7903Z" fill="white"/>
<g opacity="0.9" filter="url(#filter1_d_73_91)">
<path d="M597.523 83.679L596.352 84.1556C596.307 84.1777 596.273 84.2154 596.266 84.2706L596.102 85.5125C596.094 85.5677 596.117 85.6128 596.155 85.6459L597.161 86.4111C597.199 86.4443 597.255 86.4517 597.301 86.4296L598.471 85.953C598.517 85.9309 598.55 85.8932 598.558 85.838L598.722 84.5961C598.73 84.5409 598.707 84.4958 598.669 84.4627L597.663 83.6975C597.623 83.6781 597.567 83.6707 597.523 83.679Z" fill="white"/>
</g>
<path opacity="0.9" d="M1033.52 104.679L1032.35 105.156C1032.31 105.178 1032.27 105.215 1032.27 105.271L1032.1 106.512C1032.09 106.568 1032.12 106.613 1032.15 106.646L1033.16 107.411C1033.2 107.444 1033.26 107.452 1033.3 107.43L1034.47 106.953C1034.52 106.931 1034.55 106.893 1034.56 106.838L1034.72 105.596C1034.73 105.541 1034.71 105.496 1034.67 105.463L1033.66 104.697C1033.62 104.678 1033.57 104.671 1033.52 104.679Z" fill="white"/>
<path opacity="0.9" d="M1376.52 164.679L1375.35 165.156C1375.31 165.178 1375.27 165.215 1375.27 165.271L1375.1 166.512C1375.09 166.568 1375.12 166.613 1375.15 166.646L1376.16 167.411C1376.2 167.444 1376.26 167.452 1376.3 167.43L1377.47 166.953C1377.52 166.931 1377.55 166.893 1377.56 166.838L1377.72 165.596C1377.73 165.541 1377.71 165.496 1377.67 165.463L1376.66 164.697C1376.62 164.678 1376.57 164.671 1376.52 164.679Z" fill="white"/>
<path opacity="0.9" d="M8.5232 123.679L7.35235 124.156C7.30682 124.178 7.27343 124.215 7.26611 124.271L7.10151 125.512C7.09419 125.568 7.11661 125.613 7.15482 125.646L8.16107 126.411C8.19928 126.444 8.2551 126.452 8.30063 126.43L9.47147 125.953C9.517 125.931 9.5504 125.893 9.55771 125.838L9.72232 124.596C9.72963 124.541 9.70721 124.496 9.669 124.463L8.66275 123.697C8.62272 123.678 8.56689 123.671 8.5232 123.679Z" fill="white"/>
<path opacity="0.9" d="M1155.52 88.4093L1149.83 90.7225C1149.61 90.8295 1149.45 91.0124 1149.42 91.2802L1148.62 97.307C1148.58 97.5748 1148.69 97.7937 1148.88 97.9545L1153.76 101.668C1153.94 101.829 1154.22 101.865 1154.44 101.758L1160.12 99.4446C1160.34 99.3376 1160.5 99.1546 1160.54 98.8868L1161.34 92.8601C1161.37 92.5922 1161.26 92.3734 1161.08 92.2125L1156.19 88.499C1156 88.4051 1155.73 88.3692 1155.52 88.4093Z" fill="white"/>
<g opacity="0.9" filter="url(#filter2_d_73_91)">
<path d="M861.325 30.1128L870.071 33.5189C870.429 33.6324 870.802 33.5996 871.123 33.3393L878.349 27.4833C878.67 27.223 878.78 26.8654 878.743 26.4917L877.223 17.2295C877.186 16.8557 876.923 16.5309 876.565 16.4174L867.819 13.0113C867.461 12.8978 867.089 12.9306 866.767 13.1908L859.541 19.0469C859.22 19.3071 859.11 19.6647 859.147 20.0385L860.667 29.3007C860.784 29.6094 861.047 29.9342 861.325 30.1128Z" fill="white"/>
</g>
<path opacity="0.9" d="M479.706 167.668L485.059 166.973C485.271 166.932 485.45 166.813 485.54 166.593L487.57 161.644C487.66 161.424 487.617 161.213 487.495 161.035L484.172 156.781C484.051 156.602 483.828 156.511 483.616 156.553L478.263 157.248C478.051 157.289 477.872 157.409 477.782 157.629L475.752 162.577C475.662 162.797 475.705 163.008 475.827 163.186L479.15 167.44C479.294 167.564 479.517 167.655 479.706 167.668Z" fill="white"/>
<g opacity="0.9" filter="url(#filter3_d_73_91)">
<path d="M1340.38 26.3197L1347.88 28.5703C1348.18 28.6409 1348.49 28.5889 1348.74 28.3513L1354.36 23.0055C1354.61 22.768 1354.68 22.4635 1354.62 22.1554L1352.74 14.559C1352.69 14.2508 1352.45 13.9983 1352.14 13.9277L1344.65 11.6771C1344.34 11.6065 1344.04 11.6585 1343.79 11.8961L1338.17 17.2419C1337.92 17.4794 1337.85 17.7839 1337.91 18.092L1339.78 25.6884C1339.9 25.9372 1340.14 26.1897 1340.38 26.3197Z" fill="white"/>
</g>
<path opacity="0.9" d="M194.988 27.8654L197.258 16.4579C197.319 15.9965 197.198 15.5491 196.812 15.2133L188.106 7.65868C187.72 7.32292 187.26 7.26675 186.811 7.39234L175.837 11.2452C175.389 11.3708 175.049 11.7621 174.988 12.2234L172.719 23.6309C172.658 24.0923 172.778 24.5397 173.165 24.8755L181.87 32.4301C182.257 32.7659 182.717 32.8221 183.165 32.6965L194.139 28.8436C194.491 28.6341 194.83 28.2428 194.988 27.8654Z" fill="white"/>
</g>
<path opacity="0.9" d="M760.627 95.1599L756.847 96.699C756.7 96.7702 756.592 96.8919 756.568 97.0701L756.037 101.08C756.013 101.258 756.086 101.404 756.209 101.511L759.458 103.982C759.581 104.089 759.761 104.113 759.908 104.041L763.689 102.502C763.836 102.431 763.944 102.309 763.967 102.131L764.499 98.1212C764.522 97.943 764.45 97.7974 764.327 97.6904L761.078 95.2196C760.948 95.1571 760.768 95.1332 760.627 95.1599Z" fill="white"/>
<path opacity="0.9" d="M304.684 82.7903L302.757 83.5747C302.683 83.6109 302.628 83.673 302.616 83.7638L302.345 85.8072C302.333 85.8981 302.37 85.9723 302.432 86.0268L304.088 87.2859C304.151 87.3405 304.243 87.3527 304.318 87.3164L306.244 86.532C306.319 86.4958 306.374 86.4337 306.386 86.3429L306.657 84.2995C306.669 84.2086 306.632 84.1344 306.569 84.0799L304.914 82.8208C304.848 82.7889 304.756 82.7768 304.684 82.7903Z" fill="white"/>
<g opacity="0.9" filter="url(#filter4_d_73_91)">
<path d="M597.523 83.679L596.352 84.1556C596.307 84.1777 596.273 84.2154 596.266 84.2706L596.102 85.5125C596.094 85.5677 596.117 85.6128 596.155 85.6459L597.161 86.4111C597.199 86.4443 597.255 86.4517 597.301 86.4296L598.471 85.953C598.517 85.9309 598.55 85.8932 598.558 85.838L598.722 84.5961C598.73 84.5409 598.707 84.4958 598.669 84.4627L597.663 83.6975C597.623 83.6781 597.567 83.6707 597.523 83.679Z" fill="white"/>
</g>
<path opacity="0.9" d="M1033.52 104.679L1032.35 105.156C1032.31 105.178 1032.27 105.215 1032.27 105.271L1032.1 106.512C1032.09 106.568 1032.12 106.613 1032.15 106.646L1033.16 107.411C1033.2 107.444 1033.26 107.452 1033.3 107.43L1034.47 106.953C1034.52 106.931 1034.55 106.893 1034.56 106.838L1034.72 105.596C1034.73 105.541 1034.71 105.496 1034.67 105.463L1033.66 104.697C1033.62 104.678 1033.57 104.671 1033.52 104.679Z" fill="white"/>
<path opacity="0.9" d="M1376.52 164.679L1375.35 165.156C1375.31 165.178 1375.27 165.215 1375.27 165.271L1375.1 166.512C1375.09 166.568 1375.12 166.613 1375.15 166.646L1376.16 167.411C1376.2 167.444 1376.26 167.452 1376.3 167.43L1377.47 166.953C1377.52 166.931 1377.55 166.893 1377.56 166.838L1377.72 165.596C1377.73 165.541 1377.71 165.496 1377.67 165.463L1376.66 164.697C1376.62 164.678 1376.57 164.671 1376.52 164.679Z" fill="white"/>
<path opacity="0.9" d="M8.5232 123.679L7.35235 124.156C7.30682 124.178 7.27343 124.215 7.26611 124.271L7.10151 125.512C7.09419 125.568 7.11661 125.613 7.15482 125.646L8.16107 126.411C8.19928 126.444 8.2551 126.452 8.30063 126.43L9.47147 125.953C9.517 125.931 9.5504 125.893 9.55771 125.838L9.72232 124.596C9.72963 124.541 9.70721 124.496 9.669 124.463L8.66275 123.697C8.62272 123.678 8.56689 123.671 8.5232 123.679Z" fill="white"/>
<path opacity="0.9" d="M1155.52 88.4093L1149.83 90.7225C1149.61 90.8295 1149.45 91.0124 1149.42 91.2802L1148.62 97.307C1148.58 97.5748 1148.69 97.7937 1148.88 97.9545L1153.76 101.668C1153.94 101.829 1154.22 101.865 1154.44 101.758L1160.12 99.4446C1160.34 99.3376 1160.5 99.1546 1160.54 98.8868L1161.34 92.8601C1161.37 92.5922 1161.26 92.3734 1161.08 92.2125L1156.19 88.499C1156 88.4051 1155.73 88.3692 1155.52 88.4093Z" fill="white"/>
<g opacity="0.9" filter="url(#filter5_d_73_91)">
<path d="M861.325 30.1128L870.071 33.5189C870.429 33.6324 870.802 33.5996 871.123 33.3393L878.349 27.4833C878.67 27.223 878.78 26.8654 878.743 26.4917L877.223 17.2295C877.186 16.8557 876.923 16.5309 876.565 16.4174L867.819 13.0113C867.461 12.8978 867.089 12.9306 866.767 13.1908L859.541 19.0469C859.22 19.3071 859.11 19.6647 859.147 20.0385L860.667 29.3007C860.784 29.6094 861.047 29.9342 861.325 30.1128Z" fill="white"/>
</g>
<path opacity="0.9" d="M479.706 167.668L485.059 166.973C485.271 166.932 485.45 166.813 485.54 166.593L487.57 161.644C487.66 161.424 487.617 161.213 487.495 161.035L484.172 156.781C484.051 156.602 483.828 156.511 483.616 156.553L478.263 157.248C478.051 157.289 477.872 157.409 477.782 157.629L475.752 162.577C475.662 162.797 475.705 163.008 475.827 163.186L479.15 167.44C479.294 167.564 479.517 167.655 479.706 167.668Z" fill="white"/>
<g opacity="0.9" filter="url(#filter6_d_73_91)">
<path d="M1340.38 26.3197L1347.88 28.5703C1348.18 28.6409 1348.49 28.5889 1348.74 28.3513L1354.36 23.0055C1354.61 22.768 1354.68 22.4635 1354.62 22.1554L1352.74 14.559C1352.69 14.2508 1352.45 13.9983 1352.14 13.9277L1344.65 11.6771C1344.34 11.6065 1344.04 11.6585 1343.79 11.8961L1338.17 17.2419C1337.92 17.4794 1337.85 17.7839 1337.91 18.092L1339.78 25.6884C1339.9 25.9372 1340.14 26.1897 1340.38 26.3197Z" fill="white"/>
</g>
<path opacity="0.9" d="M194.988 27.8654L197.258 16.4579C197.319 15.9965 197.198 15.5491 196.812 15.2133L188.106 7.65868C187.72 7.32292 187.26 7.26675 186.811 7.39234L175.837 11.2452C175.389 11.3708 175.049 11.7621 174.988 12.2234L172.719 23.6309C172.658 24.0923 172.778 24.5397 173.165 24.8755L181.87 32.4301C182.257 32.7659 182.717 32.8221 183.165 32.6965L194.139 28.8436C194.491 28.6341 194.83 28.2428 194.988 27.8654Z" fill="white"/>
<defs>
<filter id="filter0_f_73_91" x="-0.000244141" y="-3.99951" width="1384.82" height="505.603" filterUnits="userSpaceOnUse" color-interpolation-filters="sRGB">
<feFlood flood-opacity="0" result="BackgroundImageFix"/>
<feBlend mode="normal" in="SourceGraphic" in2="BackgroundImageFix" result="shape"/>
<feGaussianBlur stdDeviation="3.5" result="effect1_foregroundBlur_73_91"/>
</filter>
<filter id="filter1_d_73_91" x="592.1" y="83.6758" width="10.6235" height="10.7666" filterUnits="userSpaceOnUse" color-interpolation-filters="sRGB">
<feFlood flood-opacity="0" result="BackgroundImageFix"/>
<feColorMatrix in="SourceAlpha" type="matrix" values="0 0 0 0 0 0 0 0 0 0 0 0 0 0 0 0 0 0 127 0" result="hardAlpha"/>
<feOffset dy="4"/>
<feGaussianBlur stdDeviation="2"/>
<feComposite in2="hardAlpha" operator="out"/>
<feColorMatrix type="matrix" values="0 0 0 0 0 0 0 0 0 0 0 0 0 0 0 0 0 0 0.25 0"/>
<feBlend mode="normal" in2="BackgroundImageFix" result="effect1_dropShadow_73_91"/>
<feBlend mode="normal" in="SourceGraphic" in2="effect1_dropShadow_73_91" result="shape"/>
</filter>
<filter id="filter2_d_73_91" x="855.14" y="12.9492" width="27.6099" height="28.6318" filterUnits="userSpaceOnUse" color-interpolation-filters="sRGB">
<feFlood flood-opacity="0" result="BackgroundImageFix"/>
<feColorMatrix in="SourceAlpha" type="matrix" values="0 0 0 0 0 0 0 0 0 0 0 0 0 0 0 0 0 0 127 0" result="hardAlpha"/>
<feOffset dy="4"/>
<feGaussianBlur stdDeviation="2"/>
<feComposite in2="hardAlpha" operator="out"/>
<feColorMatrix type="matrix" values="0 0 0 0 0 0 0 0 0 0 0 0 0 0 0 0 0 0 0.25 0"/>
<feBlend mode="normal" in2="BackgroundImageFix" result="effect1_dropShadow_73_91"/>
<feBlend mode="normal" in="SourceGraphic" in2="effect1_dropShadow_73_91" result="shape"/>
</filter>
<filter id="filter3_d_73_91" x="1333.89" y="11.6479" width="24.7485" height="24.9517" filterUnits="userSpaceOnUse" color-interpolation-filters="sRGB">
<feFlood flood-opacity="0" result="BackgroundImageFix"/>
<feColorMatrix in="SourceAlpha" type="matrix" values="0 0 0 0 0 0 0 0 0 0 0 0 0 0 0 0 0 0 127 0" result="hardAlpha"/>
<feOffset dy="4"/>
<feGaussianBlur stdDeviation="2"/>
<feComposite in2="hardAlpha" operator="out"/>
<feColorMatrix type="matrix" values="0 0 0 0 0 0 0 0 0 0 0 0 0 0 0 0 0 0 0.25 0"/>
<feBlend mode="normal" in2="BackgroundImageFix" result="effect1_dropShadow_73_91"/>
<feBlend mode="normal" in="SourceGraphic" in2="effect1_dropShadow_73_91" result="shape"/>
</filter>
<filter id="filter4_d_73_91" x="592.1" y="83.6758" width="10.6235" height="10.7666" filterUnits="userSpaceOnUse" color-interpolation-filters="sRGB">
<feFlood flood-opacity="0" result="BackgroundImageFix"/>
<feColorMatrix in="SourceAlpha" type="matrix" values="0 0 0 0 0 0 0 0 0 0 0 0 0 0 0 0 0 0 127 0" result="hardAlpha"/>
<feOffset dy="4"/>
<feGaussianBlur stdDeviation="2"/>
<feComposite in2="hardAlpha" operator="out"/>
<feColorMatrix type="matrix" values="0 0 0 0 0 0 0 0 0 0 0 0 0 0 0 0 0 0 0.25 0"/>
<feBlend mode="normal" in2="BackgroundImageFix" result="effect1_dropShadow_73_91"/>
<feBlend mode="normal" in="SourceGraphic" in2="effect1_dropShadow_73_91" result="shape"/>
</filter>
<filter id="filter5_d_73_91" x="855.14" y="12.9492" width="27.6099" height="28.6318" filterUnits="userSpaceOnUse" color-interpolation-filters="sRGB">
<feFlood flood-opacity="0" result="BackgroundImageFix"/>
<feColorMatrix in="SourceAlpha" type="matrix" values="0 0 0 0 0 0 0 0 0 0 0 0 0 0 0 0 0 0 127 0" result="hardAlpha"/>
<feOffset dy="4"/>
<feGaussianBlur stdDeviation="2"/>
<feComposite in2="hardAlpha" operator="out"/>
<feColorMatrix type="matrix" values="0 0 0 0 0 0 0 0 0 0 0 0 0 0 0 0 0 0 0.25 0"/>
<feBlend mode="normal" in2="BackgroundImageFix" result="effect1_dropShadow_73_91"/>
<feBlend mode="normal" in="SourceGraphic" in2="effect1_dropShadow_73_91" result="shape"/>
</filter>
<filter id="filter6_d_73_91" x="1333.89" y="11.6479" width="24.7485" height="24.9517" filterUnits="userSpaceOnUse" color-interpolation-filters="sRGB">
<feFlood flood-opacity="0" result="BackgroundImageFix"/>
<feColorMatrix in="SourceAlpha" type="matrix" values="0 0 0 0 0 0 0 0 0 0 0 0 0 0 0 0 0 0 127 0" result="hardAlpha"/>
<feOffset dy="4"/>
<feGaussianBlur stdDeviation="2"/>
<feComposite in2="hardAlpha" operator="out"/>
<feColorMatrix type="matrix" values="0 0 0 0 0 0 0 0 0 0 0 0 0 0 0 0 0 0 0.25 0"/>
<feBlend mode="normal" in2="BackgroundImageFix" result="effect1_dropShadow_73_91"/>
<feBlend mode="normal" in="SourceGraphic" in2="effect1_dropShadow_73_91" result="shape"/>
</filter>
</defs>
</svg>
