<svg width="1385" height="492" viewBox="0 0 1385 492" fill="none" xmlns="http://www.w3.org/2000/svg">
<g filter="url(#filter0_f_73_28)">
<path opacity="0.9" d="M95.2817 274.79L93.3552 275.575C93.2802 275.611 93.2253 275.673 93.2133 275.764L92.9424 277.807C92.9304 277.898 92.9673 277.972 93.0301 278.027L94.6858 279.286C94.7487 279.34 94.8406 279.353 94.9155 279.316L96.842 278.532C96.9169 278.496 96.9719 278.434 96.9839 278.343L97.2548 276.299C97.2668 276.209 97.2299 276.134 97.167 276.08L95.5113 274.821C95.4455 274.789 95.3536 274.777 95.2817 274.79Z" fill="white"/>
<path opacity="0.9" d="M304.862 79.7903L302.935 80.5747C302.86 80.6109 302.805 80.673 302.793 80.7638L302.522 82.8072C302.51 82.8981 302.547 82.9723 302.61 83.0268L304.266 84.2859C304.329 84.3405 304.421 84.3527 304.496 84.3164L306.422 83.532C306.497 83.4958 306.552 83.4337 306.564 83.3429L306.835 81.2995C306.847 81.2086 306.81 81.1344 306.747 81.0799L305.091 79.8208C305.026 79.7889 304.934 79.7768 304.862 79.7903Z" fill="white"/>
<path opacity="0.9" d="M10.8618 370.79L8.93523 371.575C8.86033 371.611 8.80537 371.673 8.79333 371.764L8.52249 373.807C8.51045 373.898 8.54735 373.972 8.61022 374.027L10.2659 375.286C10.3288 375.34 10.4206 375.353 10.4956 375.316L12.4221 374.532C12.497 374.496 12.552 374.434 12.564 374.343L12.8348 372.299C12.8469 372.209 12.81 372.134 12.7471 372.08L11.0914 370.821C11.0255 370.789 10.9337 370.777 10.8618 370.79Z" fill="white"/>
<path opacity="0.9" d="M377.701 351.679L376.53 352.156C376.485 352.178 376.451 352.215 376.444 352.271L376.279 353.512C376.272 353.568 376.294 353.613 376.333 353.646L377.339 354.411C377.377 354.444 377.433 354.452 377.478 354.43L378.649 353.953C378.695 353.931 378.728 353.893 378.735 353.838L378.9 352.596C378.907 352.541 378.885 352.496 378.847 352.463L377.84 351.697C377.8 351.678 377.745 351.671 377.701 351.679Z" fill="white"/>
<g opacity="0.9" filter="url(#filter1_d_73_28)">
<path d="M597.701 80.679L596.53 81.1556C596.485 81.1777 596.451 81.2154 596.444 81.2706L596.279 82.5125C596.272 82.5677 596.294 82.6128 596.333 82.6459L597.339 83.4111C597.377 83.4443 597.433 83.4517 597.478 83.4296L598.649 82.953C598.695 82.9309 598.728 82.8932 598.735 82.838L598.9 81.5961C598.907 81.5409 598.885 81.4958 598.847 81.4627L597.84 80.6975C597.8 80.6781 597.745 80.6707 597.701 80.679Z" fill="white"/>
</g>
<path opacity="0.9" d="M780.701 229.679L779.53 230.156C779.485 230.178 779.451 230.215 779.444 230.271L779.279 231.512C779.272 231.568 779.294 231.613 779.333 231.646L780.339 232.411C780.377 232.444 780.433 232.452 780.478 232.43L781.649 231.953C781.695 231.931 781.728 231.893 781.735 231.838L781.9 230.596C781.907 230.541 781.885 230.496 781.847 230.463L780.84 229.697C780.8 229.678 780.745 229.671 780.701 229.679Z" fill="white"/>
<path opacity="0.9" d="M1033.7 101.679L1032.53 102.156C1032.48 102.178 1032.45 102.215 1032.44 102.271L1032.28 103.512C1032.27 103.568 1032.29 103.613 1032.33 103.646L1033.34 104.411C1033.38 104.444 1033.43 104.452 1033.48 104.43L1034.65 103.953C1034.69 103.931 1034.73 103.893 1034.74 103.838L1034.9 102.596C1034.91 102.541 1034.88 102.496 1034.85 102.463L1033.84 101.697C1033.8 101.678 1033.74 101.671 1033.7 101.679Z" fill="white"/>
<path opacity="0.9" d="M1146.7 329.679L1145.53 330.156C1145.48 330.178 1145.45 330.215 1145.44 330.271L1145.28 331.512C1145.27 331.568 1145.29 331.613 1145.33 331.646L1146.34 332.411C1146.38 332.444 1146.43 332.452 1146.48 332.43L1147.65 331.953C1147.69 331.931 1147.73 331.893 1147.74 331.838L1147.9 330.596C1147.91 330.541 1147.88 330.496 1147.85 330.463L1146.84 329.697C1146.8 329.678 1146.74 329.671 1146.7 329.679Z" fill="white"/>
<path opacity="0.9" d="M1376.7 161.679L1375.53 162.156C1375.48 162.178 1375.45 162.215 1375.44 162.271L1375.28 163.512C1375.27 163.568 1375.29 163.613 1375.33 163.646L1376.34 164.411C1376.38 164.444 1376.43 164.452 1376.48 164.43L1377.65 163.953C1377.69 163.931 1377.73 163.893 1377.74 163.838L1377.9 162.596C1377.91 162.541 1377.88 162.496 1377.85 162.463L1376.84 161.697C1376.8 161.678 1376.74 161.671 1376.7 161.679Z" fill="white"/>
<path opacity="0.9" d="M8.70093 120.679L7.53008 121.156C7.48456 121.178 7.45116 121.215 7.44384 121.271L7.27924 122.512C7.27192 122.568 7.29435 122.613 7.33256 122.646L8.3388 123.411C8.37701 123.444 8.43283 123.452 8.47836 123.43L9.64921 122.953C9.69473 122.931 9.72813 122.893 9.73545 122.838L9.90005 121.596C9.90737 121.541 9.88494 121.496 9.84673 121.463L8.84049 120.697C8.80045 120.678 8.74463 120.671 8.70093 120.679Z" fill="white"/>
<path opacity="0.9" d="M174.701 354.679L173.53 355.156C173.485 355.178 173.451 355.215 173.444 355.271L173.279 356.512C173.272 356.568 173.294 356.613 173.333 356.646L174.339 357.411C174.377 357.444 174.433 357.452 174.478 357.43L175.649 356.953C175.695 356.931 175.728 356.893 175.735 356.838L175.9 355.596C175.907 355.541 175.885 355.496 175.847 355.463L174.84 354.697C174.8 354.678 174.745 354.671 174.701 354.679Z" fill="white"/>
</g>
<path opacity="0.9" d="M95.2817 274.79L93.3552 275.575C93.2802 275.611 93.2253 275.673 93.2133 275.764L92.9424 277.807C92.9304 277.898 92.9673 277.972 93.0301 278.027L94.6858 279.286C94.7487 279.34 94.8406 279.353 94.9155 279.316L96.842 278.532C96.9169 278.496 96.9719 278.434 96.9839 278.343L97.2548 276.299C97.2668 276.209 97.2299 276.134 97.167 276.08L95.5113 274.821C95.4455 274.789 95.3536 274.777 95.2817 274.79Z" fill="white"/>
<path opacity="0.9" d="M304.862 79.7903L302.935 80.5747C302.86 80.6109 302.805 80.673 302.793 80.7638L302.522 82.8072C302.51 82.8981 302.547 82.9723 302.61 83.0268L304.266 84.2859C304.329 84.3405 304.421 84.3527 304.496 84.3164L306.422 83.532C306.497 83.4958 306.552 83.4337 306.564 83.3429L306.835 81.2995C306.847 81.2086 306.81 81.1344 306.747 81.0799L305.091 79.8208C305.026 79.7889 304.934 79.7768 304.862 79.7903Z" fill="white"/>
<path opacity="0.9" d="M10.8618 370.79L8.93523 371.575C8.86033 371.611 8.80537 371.673 8.79333 371.764L8.52249 373.807C8.51045 373.898 8.54735 373.972 8.61022 374.027L10.2659 375.286C10.3288 375.34 10.4206 375.353 10.4956 375.316L12.4221 374.532C12.497 374.496 12.552 374.434 12.564 374.343L12.8348 372.299C12.8469 372.209 12.81 372.134 12.7471 372.08L11.0914 370.821C11.0255 370.789 10.9337 370.777 10.8618 370.79Z" fill="white"/>
<path opacity="0.9" d="M377.701 351.679L376.53 352.156C376.485 352.178 376.451 352.215 376.444 352.271L376.279 353.512C376.272 353.568 376.294 353.613 376.333 353.646L377.339 354.411C377.377 354.444 377.433 354.452 377.478 354.43L378.649 353.953C378.695 353.931 378.728 353.893 378.735 353.838L378.9 352.596C378.907 352.541 378.885 352.496 378.847 352.463L377.84 351.697C377.8 351.678 377.745 351.671 377.701 351.679Z" fill="white"/>
<g opacity="0.9" filter="url(#filter2_d_73_28)">
<path d="M597.701 80.679L596.53 81.1556C596.485 81.1777 596.451 81.2154 596.444 81.2706L596.279 82.5125C596.272 82.5677 596.294 82.6128 596.333 82.6459L597.339 83.4111C597.377 83.4443 597.433 83.4517 597.478 83.4296L598.649 82.953C598.695 82.9309 598.728 82.8932 598.735 82.838L598.9 81.5961C598.907 81.5409 598.885 81.4958 598.847 81.4627L597.84 80.6975C597.8 80.6781 597.745 80.6707 597.701 80.679Z" fill="white"/>
</g>
<path opacity="0.9" d="M780.701 229.679L779.53 230.156C779.485 230.178 779.451 230.215 779.444 230.271L779.279 231.512C779.272 231.568 779.294 231.613 779.333 231.646L780.339 232.411C780.377 232.444 780.433 232.452 780.478 232.43L781.649 231.953C781.695 231.931 781.728 231.893 781.735 231.838L781.9 230.596C781.907 230.541 781.885 230.496 781.847 230.463L780.84 229.697C780.8 229.678 780.745 229.671 780.701 229.679Z" fill="white"/>
<path opacity="0.9" d="M1033.7 101.679L1032.53 102.156C1032.48 102.178 1032.45 102.215 1032.44 102.271L1032.28 103.512C1032.27 103.568 1032.29 103.613 1032.33 103.646L1033.34 104.411C1033.38 104.444 1033.43 104.452 1033.48 104.43L1034.65 103.953C1034.69 103.931 1034.73 103.893 1034.74 103.838L1034.9 102.596C1034.91 102.541 1034.88 102.496 1034.85 102.463L1033.84 101.697C1033.8 101.678 1033.74 101.671 1033.7 101.679Z" fill="white"/>
<path opacity="0.9" d="M1146.7 329.679L1145.53 330.156C1145.48 330.178 1145.45 330.215 1145.44 330.271L1145.28 331.512C1145.27 331.568 1145.29 331.613 1145.33 331.646L1146.34 332.411C1146.38 332.444 1146.43 332.452 1146.48 332.43L1147.65 331.953C1147.69 331.931 1147.73 331.893 1147.74 331.838L1147.9 330.596C1147.91 330.541 1147.88 330.496 1147.85 330.463L1146.84 329.697C1146.8 329.678 1146.74 329.671 1146.7 329.679Z" fill="white"/>
<path opacity="0.9" d="M1376.7 161.679L1375.53 162.156C1375.48 162.178 1375.45 162.215 1375.44 162.271L1375.28 163.512C1375.27 163.568 1375.29 163.613 1375.33 163.646L1376.34 164.411C1376.38 164.444 1376.43 164.452 1376.48 164.43L1377.65 163.953C1377.69 163.931 1377.73 163.893 1377.74 163.838L1377.9 162.596C1377.91 162.541 1377.88 162.496 1377.85 162.463L1376.84 161.697C1376.8 161.678 1376.74 161.671 1376.7 161.679Z" fill="white"/>
<path opacity="0.9" d="M8.70093 120.679L7.53008 121.156C7.48456 121.178 7.45116 121.215 7.44384 121.271L7.27924 122.512C7.27192 122.568 7.29435 122.613 7.33256 122.646L8.3388 123.411C8.37701 123.444 8.43283 123.452 8.47836 123.43L9.64921 122.953C9.69473 122.931 9.72813 122.893 9.73545 122.838L9.90005 121.596C9.90737 121.541 9.88494 121.496 9.84673 121.463L8.84049 120.697C8.80045 120.678 8.74463 120.671 8.70093 120.679Z" fill="white"/>
<path opacity="0.9" d="M174.701 354.679L173.53 355.156C173.485 355.178 173.451 355.215 173.444 355.271L173.279 356.512C173.272 356.568 173.294 356.613 173.333 356.646L174.339 357.411C174.377 357.444 174.433 357.452 174.478 357.43L175.649 356.953C175.695 356.931 175.728 356.893 175.735 356.838L175.9 355.596C175.907 355.541 175.885 355.496 175.847 355.463L174.84 354.697C174.8 354.678 174.745 354.671 174.701 354.679Z" fill="white"/>
<defs>
<filter id="filter0_f_73_28" x="0.17749" y="-6.99951" width="1384.82" height="505.603" filterUnits="userSpaceOnUse" color-interpolation-filters="sRGB">
<feFlood flood-opacity="0" result="BackgroundImageFix"/>
<feBlend mode="normal" in="SourceGraphic" in2="BackgroundImageFix" result="shape"/>
<feGaussianBlur stdDeviation="3.5" result="effect1_foregroundBlur_73_28"/>
</filter>
<filter id="filter1_d_73_28" x="592.278" y="80.6758" width="10.6235" height="10.7666" filterUnits="userSpaceOnUse" color-interpolation-filters="sRGB">
<feFlood flood-opacity="0" result="BackgroundImageFix"/>
<feColorMatrix in="SourceAlpha" type="matrix" values="0 0 0 0 0 0 0 0 0 0 0 0 0 0 0 0 0 0 127 0" result="hardAlpha"/>
<feOffset dy="4"/>
<feGaussianBlur stdDeviation="2"/>
<feComposite in2="hardAlpha" operator="out"/>
<feColorMatrix type="matrix" values="0 0 0 0 0 0 0 0 0 0 0 0 0 0 0 0 0 0 0.25 0"/>
<feBlend mode="normal" in2="BackgroundImageFix" result="effect1_dropShadow_73_28"/>
<feBlend mode="normal" in="SourceGraphic" in2="effect1_dropShadow_73_28" result="shape"/>
</filter>
<filter id="filter2_d_73_28" x="592.278" y="80.6758" width="10.6235" height="10.7666" filterUnits="userSpaceOnUse" color-interpolation-filters="sRGB">
<feFlood flood-opacity="0" result="BackgroundImageFix"/>
<feColorMatrix in="SourceAlpha" type="matrix" values="0 0 0 0 0 0 0 0 0 0 0 0 0 0 0 0 0 0 127 0" result="hardAlpha"/>
<feOffset dy="4"/>
<feGaussianBlur stdDeviation="2"/>
<feComposite in2="hardAlpha" operator="out"/>
<feColorMatrix type="matrix" values="0 0 0 0 0 0 0 0 0 0 0 0 0 0 0 0 0 0 0.25 0"/>
<feBlend mode="normal" in2="BackgroundImageFix" result="effect1_dropShadow_73_28"/>
<feBlend mode="normal" in="SourceGraphic" in2="effect1_dropShadow_73_28" result="shape"/>
</filter>
</defs>
</svg>
