<svg width="22" height="23" viewBox="0 0 22 23" fill="none" xmlns="http://www.w3.org/2000/svg">
<rect y="0.943359" width="22" height="22" rx="3.63777" fill="#22539F"/>
<path fill-rule="evenodd" clip-rule="evenodd" d="M13.4947 7.04719L13.4952 7.45324C14.9873 7.57018 15.973 8.58692 15.9746 10.1461L15.9805 14.7101C15.9826 16.4101 14.9146 17.4561 13.2027 17.4588L9.02107 17.4642C7.31987 17.4663 6.23849 16.3955 6.23636 14.6906L6.23047 10.1802C6.22833 8.61074 7.17921 7.59671 8.67131 7.45974L8.67078 7.05369C8.67024 6.81548 8.84673 6.63627 9.08204 6.63627C9.31735 6.63573 9.49384 6.81439 9.49437 7.05261L9.49491 7.43158L12.6716 7.42725L12.6711 7.04828C12.6706 6.81006 12.8471 6.6314 13.0824 6.63086C13.3123 6.63032 13.4942 6.80898 13.4947 7.04719ZM7.05488 10.3484L15.1518 10.3376V10.1481C15.1288 8.98406 14.5448 8.37337 13.4966 8.28241L13.4971 8.69929C13.4971 8.93209 13.3158 9.1167 13.0858 9.1167C12.8505 9.11724 12.6735 8.93317 12.6735 8.70037L12.673 8.26184L9.49625 8.26617L9.49679 8.70416C9.49679 8.9375 9.32084 9.12158 9.08552 9.12158C8.85021 9.12212 8.67319 8.93858 8.67319 8.70524L8.67266 8.28837C7.62979 8.39286 7.05274 9.00572 7.05434 10.18L7.05488 10.3484ZM12.8607 12.8086V12.8146C12.866 13.0636 13.0692 13.2525 13.3158 13.2471C13.5564 13.2412 13.7484 13.0349 13.7431 12.7859C13.7319 12.5476 13.5388 12.3533 13.2987 12.3538C13.0527 12.3592 12.8601 12.5596 12.8607 12.8086ZM13.3027 15.2398C13.0567 15.2344 12.8583 15.0292 12.8577 14.7801C12.8524 14.5311 13.0497 14.3248 13.2957 14.3189H13.3011C13.5524 14.3189 13.7562 14.5241 13.7562 14.7785C13.7567 15.033 13.5535 15.2392 13.3027 15.2398ZM10.6576 12.8174C10.6683 13.0665 10.8721 13.2608 11.1181 13.25C11.3587 13.2386 11.5507 13.0329 11.54 12.7839C11.5341 12.5402 11.3363 12.3507 11.0956 12.3513C10.8496 12.3621 10.6571 12.5684 10.6576 12.8174ZM11.1201 15.215C10.8741 15.2259 10.6709 15.0315 10.6596 14.7825C10.6596 14.5334 10.8516 14.3277 11.0976 14.3163C11.3383 14.3158 11.5367 14.5053 11.5421 14.7484C11.5533 14.9979 11.3608 15.2037 11.1201 15.215ZM8.45403 12.8362C8.46473 13.0852 8.66848 13.2801 8.91449 13.2688C9.15516 13.258 9.34715 13.0517 9.33592 12.8026C9.33057 12.559 9.13269 12.3695 8.8915 12.3701C8.64549 12.3809 8.45349 12.5872 8.45403 12.8362ZM8.91633 15.2172C8.67032 15.2286 8.46709 15.0337 8.45586 14.7846C8.45533 14.5356 8.64786 14.3293 8.89387 14.3185C9.13453 14.3179 9.33294 14.5074 9.33829 14.7511C9.34952 15.0001 9.15752 15.2064 8.91633 15.2172Z" fill="#FBFBFB"/>
</svg>
