<svg width="27" height="27" viewBox="0 0 27 27" fill="none" xmlns="http://www.w3.org/2000/svg">
<path fill-rule="evenodd" clip-rule="evenodd" d="M23.245 26.0293C24.0139 26.7981 25.2604 26.7981 26.0293 26.0293C26.7981 25.2604 26.7981 24.0139 26.0293 23.245L16.2845 13.5003L26.0293 3.75551C26.7981 2.98667 26.7981 1.74013 26.0293 0.971281C25.2604 0.202436 24.0139 0.202436 23.245 0.971281L13.5003 10.716L3.75542 0.971165C2.98658 0.202319 1.74003 0.20232 0.971188 0.971165C0.202343 1.74001 0.202342 2.98655 0.971188 3.7554L10.716 13.5003L0.971165 23.2451C0.202319 24.014 0.20232 25.2605 0.971165 26.0294C1.74001 26.7982 2.98655 26.7982 3.7554 26.0294L13.5003 16.2845L23.245 26.0293Z" fill="#383530"/>
</svg>
