<svg width="25" height="25" viewBox="0 0 25 25" fill="none" xmlns="http://www.w3.org/2000/svg">
<path d="M7.15917 17.8429C5.23729 16.4783 3.71646 14.7033 2.85708 13.5825C2.61677 13.2731 2.48633 12.8924 2.48633 12.5007C2.48633 12.1089 2.61677 11.7283 2.85708 11.4189C4.41229 9.3887 8.14354 5.2085 12.4998 5.2085C14.454 5.2085 16.281 6.04912 17.8435 7.16058" stroke="#8E9CA8" stroke-width="2" stroke-linecap="round" stroke-linejoin="round"/>
<path d="M7.15917 17.8429C5.23729 16.4783 3.71646 14.7033 2.85708 13.5825C2.61677 13.2731 2.48633 12.8924 2.48633 12.5007C2.48633 12.1089 2.61677 11.7283 2.85708 11.4189C4.41229 9.3887 8.14354 5.2085 12.4998 5.2085C14.454 5.2085 16.281 6.04912 17.8435 7.16058" stroke="black" stroke-opacity="0.2" stroke-width="2" stroke-linecap="round" stroke-linejoin="round"/>
<path d="M10.4165 19.4834C11.0928 19.6847 11.7943 19.7885 12.4998 19.7917C16.8561 19.7917 20.5873 15.6115 22.1425 13.5813C22.3828 13.2717 22.5131 12.8908 22.5129 12.4989C22.5127 12.1069 22.382 11.7262 22.1415 11.4167C21.5949 10.7037 21.0086 10.0221 20.3853 9.37508M14.7186 10.299C14.4293 10.0049 14.0847 9.77103 13.7045 9.6108C13.3244 9.45056 12.9163 9.36717 12.5038 9.36545C12.0913 9.36372 11.6825 9.44368 11.301 9.60073C10.9196 9.75777 10.573 9.98879 10.2813 10.2804C9.98952 10.5721 9.75842 10.9186 9.60129 11.3001C9.44415 11.6815 9.36409 12.0903 9.36572 12.5028C9.36736 12.9153 9.45065 13.3234 9.61079 13.7036C9.77094 14.0837 10.0048 14.4284 10.2988 14.7178L14.7186 10.299ZM4.1665 20.8334L20.8332 4.16675L4.1665 20.8334Z" stroke="#8E9CA8" stroke-width="2" stroke-linecap="round" stroke-linejoin="round"/>
<path d="M10.4165 19.4834C11.0928 19.6847 11.7943 19.7885 12.4998 19.7917C16.8561 19.7917 20.5873 15.6115 22.1425 13.5813C22.3828 13.2717 22.5131 12.8908 22.5129 12.4989C22.5127 12.1069 22.382 11.7262 22.1415 11.4167C21.5949 10.7037 21.0086 10.0221 20.3853 9.37508M14.7186 10.299C14.4293 10.0049 14.0847 9.77103 13.7045 9.6108C13.3244 9.45056 12.9163 9.36717 12.5038 9.36545C12.0913 9.36372 11.6825 9.44368 11.301 9.60073C10.9196 9.75777 10.573 9.98879 10.2813 10.2804C9.98952 10.5721 9.75842 10.9186 9.60129 11.3001C9.44415 11.6815 9.36409 12.0903 9.36572 12.5028C9.36736 12.9153 9.45065 13.3234 9.61079 13.7036C9.77094 14.0837 10.0048 14.4284 10.2988 14.7178L14.7186 10.299ZM4.1665 20.8334L20.8332 4.16675L4.1665 20.8334Z" stroke="black" stroke-opacity="0.2" stroke-width="2" stroke-linecap="round" stroke-linejoin="round"/>
</svg>
