<svg width="25" height="25" viewBox="0 0 25 25" fill="none" xmlns="http://www.w3.org/2000/svg">
<path d="M22.1424 11.4188C22.6361 12.0646 22.6361 12.9365 22.1424 13.5813C20.5872 15.6115 16.8559 19.7917 12.4997 19.7917C8.14342 19.7917 4.41217 15.6115 2.85696 13.5813C2.61673 13.2721 2.48633 12.8916 2.48633 12.5C2.48633 12.1085 2.61673 11.728 2.85696 11.4188C4.41217 9.38858 8.14342 5.20837 12.4997 5.20837C16.8559 5.20837 20.5872 9.38858 22.1424 11.4188V11.4188Z" stroke="#383530" stroke-opacity="0.6" stroke-width="2" stroke-linecap="round" stroke-linejoin="round"/>
<path d="M12.5 15.625C14.2259 15.625 15.625 14.2259 15.625 12.5C15.625 10.7741 14.2259 9.375 12.5 9.375C10.7741 9.375 9.375 10.7741 9.375 12.5C9.375 14.2259 10.7741 15.625 12.5 15.625Z" stroke="#383530" stroke-opacity="0.6" stroke-width="2" stroke-linecap="round" stroke-linejoin="round"/>
</svg>
