<svg width="127" height="127" viewBox="0 0 127 127" fill="none" xmlns="http://www.w3.org/2000/svg">
<circle cx="63.5" cy="63.5" r="63.5" fill="url(#paint0_linear_1362_4529)"/>
<path fill-rule="evenodd" clip-rule="evenodd" d="M44.5124 28.6655C50.5388 24.6479 58.4545 28.3311 59.6286 35.0958H71.3799C76.8022 35.0958 81.198 39.4915 81.198 44.9139C81.198 46.3927 79.9991 47.5916 78.5203 47.5916C77.0415 47.5916 75.8426 46.3927 75.8426 44.9139C75.8426 42.4492 73.8446 40.4511 71.3799 40.4511H59.7766V85.0789H71.3799C73.8446 85.0789 75.8426 83.0808 75.8426 80.6161C75.8426 79.1373 77.0415 77.9384 78.5203 77.9384C79.9991 77.9384 81.198 79.1373 81.198 80.6161C81.198 86.0385 76.8022 90.4342 71.3799 90.4342H59.6286C58.4545 97.1989 50.5388 100.882 44.5124 96.8645L37.372 92.1042C34.6406 90.2833 33 87.2178 33 83.9351V41.5949C33 38.3122 34.6406 35.2467 37.372 33.4258L44.5124 28.6655ZM83.7674 70.8437C82.7217 69.798 82.7217 68.1026 83.7674 67.0569L86.3368 64.4876H67.8097C66.3309 64.4876 65.132 63.2887 65.132 61.8099C65.132 60.3311 66.3309 59.1322 67.8097 59.1322L86.3368 59.1322L83.7674 56.5629C82.7217 55.5172 82.7217 53.8218 83.7674 52.7761C84.8131 51.7304 86.5085 51.7304 87.5542 52.7761L92.1701 57.392C94.61 59.8319 94.61 63.7879 92.1701 66.2278L87.5542 70.8437C86.5085 71.8894 84.8131 71.8894 83.7674 70.8437Z" fill="#FBFBFB"/>
<defs>
<linearGradient id="paint0_linear_1362_4529" x1="-2.98991" y1="-22.2249" x2="144.157" y2="-18.8027" gradientUnits="userSpaceOnUse">
<stop stop-color="#00A3FF"/>
<stop offset="1" stop-color="#18E6FE"/>
</linearGradient>
</defs>
</svg>
