<svg width="127" height="127" viewBox="0 0 127 127" fill="none" xmlns="http://www.w3.org/2000/svg">
<circle cx="63.5" cy="63.5" r="63.5" fill="url(#paint0_linear_2702_11331)"/>
<path d="M59 36.55C59 35.078 59.5795 33.6664 60.6109 32.6256C61.6424 31.5847 63.0413 31 64.5 31C65.9587 31 67.3576 31.5847 68.3891 32.6256C69.4205 33.6664 70 35.078 70 36.55V80.95C70 82.422 69.4205 83.8336 68.3891 84.8744C67.3576 85.9153 65.9587 86.5 64.5 86.5C63.0413 86.5 61.6424 85.9153 60.6109 84.8744C59.5795 83.8336 59 82.422 59 80.95V36.55ZM59 99.45C59 97.9781 59.5795 96.5664 60.6109 95.5256C61.6424 94.4847 63.0413 93.9 64.5 93.9C65.9587 93.9 67.3576 94.4847 68.3891 95.5256C69.4205 96.5664 70 97.9781 70 99.45C70 100.922 69.4205 102.334 68.3891 103.374C67.3576 104.415 65.9587 105 64.5 105C63.0413 105 61.6424 104.415 60.6109 103.374C59.5795 102.334 59 100.922 59 99.45Z" fill="#FBFBFB"/>
<defs>
<linearGradient id="paint0_linear_2702_11331" x1="-2.98991" y1="-22.2249" x2="144.157" y2="-18.8027" gradientUnits="userSpaceOnUse">
<stop stop-color="#00A3FF"/>
<stop offset="1" stop-color="#18E6FE"/>
</linearGradient>
</defs>
</svg>
