<svg width="127" height="127" viewBox="0 0 127 127" fill="none" xmlns="http://www.w3.org/2000/svg">
<circle cx="63.5" cy="63.5" r="63.5" fill="url(#paint0_linear_1355_4503)"/>
<path fill-rule="evenodd" clip-rule="evenodd" d="M38.3999 39.1197C38.3999 38.812 38.5298 38.517 38.7611 38.2995C38.9924 38.0819 39.3061 37.9597 39.6332 37.9597H81.5657C81.8928 37.9597 82.2065 38.0819 82.4377 38.2995C82.669 38.517 82.799 38.812 82.799 39.1197V75.0134C82.799 75.9363 83.1888 76.8214 83.8827 77.474C84.5765 78.1266 85.5176 78.4932 86.4989 78.4932C87.4802 78.4932 88.4213 78.1266 89.1151 77.474C89.809 76.8214 90.1988 75.9363 90.1988 75.0134V39.1197C90.1988 36.9662 89.2893 34.9009 87.6702 33.3782C86.0512 31.8555 83.8553 31 81.5657 31H39.6332C37.3435 31 35.1476 31.8555 33.5286 33.3782C31.9096 34.9009 31 36.9662 31 39.1197V92.4776C31 96.9597 34.8677 100.597 39.6332 100.597H55.2715C56.2528 100.597 57.1939 100.231 57.8878 99.5781C58.5816 98.9255 58.9714 98.0404 58.9714 97.1175C58.9714 96.1945 58.5816 95.3094 57.8878 94.6568C57.1939 94.0042 56.2528 93.6376 55.2715 93.6376H39.6332C39.3061 93.6376 38.9924 93.5154 38.7611 93.2979C38.5298 93.0803 38.3999 92.7853 38.3999 92.4776V39.1197ZM49.4996 49.5593C48.5184 49.5593 47.5773 49.9259 46.8834 50.5785C46.1895 51.2311 45.7997 52.1162 45.7997 53.0392C45.7997 53.9621 46.1895 54.8472 46.8834 55.4998C47.5773 56.1524 48.5184 56.519 49.4996 56.519H71.6992C72.6805 56.519 73.6216 56.1524 74.3154 55.4998C75.0093 54.8472 75.3991 53.9621 75.3991 53.0392C75.3991 52.1162 75.0093 51.2311 74.3154 50.5785C73.6216 49.9259 72.6805 49.5593 71.6992 49.5593H49.4996ZM45.7997 66.9586C45.7997 66.0357 46.1895 65.1506 46.8834 64.498C47.5773 63.8454 48.5184 63.4788 49.4996 63.4788H59.3661C60.3474 63.4788 61.2885 63.8454 61.9823 64.498C62.6762 65.1506 63.066 66.0357 63.066 66.9586C63.066 67.8815 62.6762 68.7667 61.9823 69.4193C61.2885 70.0719 60.3474 70.4385 59.3661 70.4385H49.4996C48.5184 70.4385 47.5773 70.0719 46.8834 69.4193C46.1895 68.7667 45.7997 67.8815 45.7997 66.9586ZM103.884 83.3697C104.232 83.0504 104.509 82.6698 104.701 82.2496C104.892 81.8294 104.994 81.3779 105 80.9207C105.006 80.4636 104.916 80.0099 104.735 79.5854C104.555 79.1609 104.287 78.774 103.948 78.4468C103.608 78.1196 103.204 77.8585 102.757 77.6784C102.31 77.4983 101.83 77.4027 101.344 77.3971C100.858 77.3915 100.375 77.476 99.9241 77.6458C99.4728 77.8155 99.0615 78.0672 98.7136 78.3865L78.8524 96.6303L71.8521 90.0185C71.152 89.4026 70.225 89.0662 69.2664 89.0804C68.3078 89.0946 67.3925 89.4582 66.7133 90.0946C66.0341 90.731 65.644 91.5905 65.6253 92.492C65.6066 93.3935 65.9607 94.2667 66.613 94.9275L76.1983 103.975C76.8858 104.625 77.818 104.993 78.7925 105C79.7669 105.007 80.705 104.652 81.4029 104.012L103.884 83.365V83.3697Z" fill="#FBFBFB"/>
<defs>
<linearGradient id="paint0_linear_1355_4503" x1="-2.98991" y1="-22.2249" x2="144.157" y2="-18.8027" gradientUnits="userSpaceOnUse">
<stop stop-color="#00A3FF"/>
<stop offset="1" stop-color="#18E6FE"/>
</linearGradient>
</defs>
</svg>
