<svg width="27" height="27" viewBox="0 0 27 27" fill="none" xmlns="http://www.w3.org/2000/svg">
<rect width="27" height="27" rx="7" fill="#E5E7E9"/>
<g clip-path="url(#clip0_1349_4182)">
<path d="M13.4993 7.18164C9.86487 7.18164 6.90625 9.59798 6.90625 12.5676C6.90625 15.2273 9.25227 17.4558 12.4197 17.8794C12.6345 17.925 12.9268 18.0222 13.001 18.2057C13.0669 18.3722 13.0444 18.6293 13.0218 18.8029L12.9317 19.3666C12.907 19.5331 12.7999 20.0221 13.5081 19.7232C14.2174 19.4254 17.3078 17.4684 18.6924 15.8669C19.6396 14.823 20.0923 13.7532 20.0923 12.5676C20.0923 9.59798 17.1337 7.18164 13.4993 7.18164ZM10.9187 14.3334H9.60774C9.41819 14.3334 9.26161 14.1757 9.26161 13.9856V11.3479C9.26161 11.1572 9.41819 10.9996 9.60774 10.9996C9.79894 10.9996 9.95387 11.1572 9.95387 11.3479V13.6373H10.9187C11.1099 13.6373 11.2642 13.7939 11.2642 13.9856C11.2642 14.1757 11.1093 14.3334 10.9187 14.3334ZM12.2735 13.9856C12.2735 14.1757 12.1186 14.3334 11.9268 14.3334C11.7373 14.3334 11.5824 14.1757 11.5824 13.9856V11.3479C11.5824 11.1572 11.7373 10.9996 11.9285 10.9996C12.1186 10.9996 12.2735 11.1572 12.2735 11.3479V13.9856ZM15.4277 13.9856C15.4277 14.1351 15.3321 14.2675 15.1904 14.3153C15.1552 14.3268 15.1173 14.3323 15.081 14.3323C14.9651 14.3323 14.8662 14.2823 14.8008 14.1939L13.4586 12.3599V13.9851C13.4586 14.1752 13.3053 14.3329 13.1119 14.3329C12.9218 14.3329 12.768 14.1752 12.768 13.9851V11.3479C12.768 11.1984 12.863 11.066 13.0042 11.0188C13.0372 11.0061 13.079 11.0006 13.1108 11.0006C13.218 11.0006 13.3169 11.0583 13.3828 11.1413L14.7355 12.9824V11.3479C14.7355 11.1572 14.8904 10.9996 15.0816 10.9996C15.2711 10.9996 15.4277 11.1572 15.4277 11.3479V13.9856ZM17.5457 12.3182C17.7375 12.3182 17.8919 12.4758 17.8919 12.667C17.8919 12.8577 17.7375 13.0154 17.5457 13.0154H16.5815V13.6373H17.5457C17.7375 13.6373 17.8919 13.7939 17.8919 13.9856C17.8919 14.1757 17.7375 14.3334 17.5457 14.3334H16.2348C16.0453 14.3334 15.8903 14.1757 15.8903 13.9856V11.3479C15.8903 11.1572 16.0453 10.9996 16.2365 10.9996H17.5474C17.7375 10.9996 17.8919 11.1572 17.8919 11.3479C17.8919 11.5407 17.7375 11.6962 17.5457 11.6962H16.5815V12.3182H17.5457Z" fill="#7E8EB3"/>
</g>
<defs>
<clipPath id="clip0_1349_4182">
<rect width="13.186" height="13.186" fill="white" transform="translate(6.90625 6.90723)"/>
</clipPath>
</defs>
</svg>
