<svg width="27" height="27" viewBox="0 0 27 27" fill="none" xmlns="http://www.w3.org/2000/svg">
<rect width="27" height="27" rx="7" fill="#E5E7E9"/>
<g clip-path="url(#clip0_1349_4188)">
<path d="M13.502 7.71387H13.4991C10.309 7.71387 7.71484 10.3088 7.71484 13.4996C7.71484 14.7652 8.12274 15.9383 8.8163 16.8907L8.09525 19.0401L10.3191 18.3292C11.234 18.9353 12.3253 19.2853 13.502 19.2853C16.6921 19.2853 19.2863 16.6897 19.2863 13.4996C19.2863 10.3095 16.6921 7.71387 13.502 7.71387Z" fill="#7E8EB3"/>
<path d="M16.8682 15.8843C16.7286 16.2784 16.1746 16.6053 15.7327 16.7008C15.4304 16.7651 15.0356 16.8165 13.7063 16.2654C12.006 15.561 10.9111 13.8332 10.8257 13.7211C10.744 13.609 10.1387 12.8063 10.1387 11.976C10.1387 11.1458 10.5603 10.7415 10.7303 10.5679C10.8698 10.4254 11.1005 10.3604 11.3219 10.3604C11.3934 10.3604 11.4578 10.364 11.5157 10.3669C11.6856 10.3741 11.771 10.3842 11.8831 10.6525C12.0226 10.9888 12.3626 11.8191 12.4031 11.9044C12.4443 11.9898 12.4855 12.1055 12.4276 12.2176C12.3734 12.3333 12.3257 12.3846 12.2403 12.483C12.155 12.5813 12.074 12.6566 11.9887 12.7621C11.9105 12.854 11.8223 12.9524 11.9207 13.1223C12.019 13.2886 12.3589 13.8434 12.8594 14.2889C13.5052 14.8638 14.0288 15.0475 14.2162 15.1256C14.3557 15.1835 14.5221 15.1697 14.624 15.0612C14.7535 14.9217 14.9133 14.6902 15.0761 14.4624C15.1918 14.299 15.3379 14.2787 15.4912 14.3366C15.6474 14.3908 16.474 14.7994 16.644 14.8841C16.8139 14.9694 16.926 15.0099 16.9673 15.0815C17.0078 15.1531 17.0078 15.4894 16.8682 15.8843Z" fill="#FAFAFA"/>
</g>
<defs>
<clipPath id="clip0_1349_4188">
<rect width="11.5714" height="11.5714" fill="white" transform="translate(7.71484 7.71387)"/>
</clipPath>
</defs>
</svg>
