<svg width="22" height="23" viewBox="0 0 22 23" fill="none" xmlns="http://www.w3.org/2000/svg">
<rect y="0.605469" width="22" height="22" rx="3.63777" fill="#22539F"/>
<path fill-rule="evenodd" clip-rule="evenodd" d="M11.1953 16.8027C8.43531 16.8027 6.19531 14.5677 6.19531 11.8027C6.19531 9.04273 8.43531 6.80273 11.1953 6.80273C13.9603 6.80273 16.1953 9.04273 16.1953 11.8027C16.1953 14.5677 13.9603 16.8027 11.1953 16.8027ZM12.7899 13.6574C12.8499 13.6924 12.9149 13.7124 12.9849 13.7124C13.1099 13.7124 13.2349 13.6474 13.3049 13.5274C13.4099 13.3524 13.3549 13.1224 13.1749 13.0124L11.3949 11.9524V9.64245C11.3949 9.43245 11.2249 9.26745 11.0199 9.26745C10.8149 9.26745 10.6449 9.43245 10.6449 9.64245V12.1674C10.6449 12.2974 10.7149 12.4174 10.8299 12.4874L12.7899 13.6574Z" fill="#FBFBFB"/>
</svg>
