<svg width="30" height="30" viewBox="0 0 30 30" fill="none" xmlns="http://www.w3.org/2000/svg">
<circle cx="15" cy="15" r="15" fill="white" fill-opacity="0.23"/>
<path d="M8.68934 19.1893C8.10355 19.7751 8.10355 20.7249 8.68934 21.3107C9.27513 21.8964 10.2249 21.8964 10.8107 21.3107L8.68934 19.1893ZM21.3107 10.8107C21.8964 10.2249 21.8964 9.27513 21.3107 8.68934C20.7249 8.10355 19.7751 8.10355 19.1893 8.68934L21.3107 10.8107ZM10.8107 21.3107L21.3107 10.8107L19.1893 8.68934L8.68934 19.1893L10.8107 21.3107Z" fill="white"/>
<path d="M10.8107 8.68934C10.2249 8.10355 9.27513 8.10355 8.68934 8.68934C8.10355 9.27513 8.10355 10.2249 8.68934 10.8107L10.8107 8.68934ZM19.1893 21.3107C19.7751 21.8964 20.7249 21.8964 21.3107 21.3107C21.8964 20.7249 21.8964 19.7751 21.3107 19.1893L19.1893 21.3107ZM8.68934 10.8107L19.1893 21.3107L21.3107 19.1893L10.8107 8.68934L8.68934 10.8107Z" fill="white"/>
</svg>
