<svg width="344" height="203" viewBox="0 0 344 203" fill="none" xmlns="http://www.w3.org/2000/svg">
<path fill-rule="evenodd" clip-rule="evenodd" d="M321.984 151.119L296.691 161.341L293.147 197.059L318.8 199.239C318.8 199.239 335.344 195.961 340.965 174.394C340.971 174.452 329.266 153.843 321.984 151.119Z" fill="url(#paint0_linear_179_267)"/>
<path fill-rule="evenodd" clip-rule="evenodd" d="M296.698 161.4L311.232 166.558L318.813 199.355L293.161 197.175C293.154 197.117 291.691 181.608 296.698 161.4Z" fill="url(#paint1_linear_179_267)"/>
<path fill-rule="evenodd" clip-rule="evenodd" d="M174.352 106.772L157.471 128.554L172.53 161.535L195.968 150.395C195.968 150.395 208.772 139.108 202.672 117.428C202.755 117.541 182.059 105.428 174.352 106.772Z" fill="url(#paint2_linear_179_267)"/>
<path fill-rule="evenodd" clip-rule="evenodd" d="M157.512 128.61L172.76 125.696L196.01 150.451L172.572 161.591C172.572 161.591 163.385 148.805 157.512 128.61Z" fill="url(#paint3_linear_179_267)"/>
<path fill-rule="evenodd" clip-rule="evenodd" d="M16.1826 1.88427L4.4203 8.48583L4.92216 26.2246L17.6121 25.6701C17.6121 25.6701 25.5354 23.0225 26.9182 12.0864C26.9342 12.153 19.9134 2.74724 16.1826 1.88427Z" fill="url(#paint4_linear_179_267)"/>
<path fill-rule="evenodd" clip-rule="evenodd" d="M4.42857 8.51965L11.858 10.1125L17.6205 25.7041L4.93048 26.2586C4.93048 26.2586 3.22643 18.743 4.42857 8.51965Z" fill="url(#paint5_linear_179_267)"/>
<defs>
<linearGradient id="paint0_linear_179_267" x1="283.523" y1="181.89" x2="349.284" y2="172.121" gradientUnits="userSpaceOnUse">
<stop offset="0.209071" stop-color="#0054A5"/>
<stop offset="0.785342" stop-color="#00286E"/>
</linearGradient>
<linearGradient id="paint1_linear_179_267" x1="301.882" y1="160.81" x2="306.244" y2="200.657" gradientUnits="userSpaceOnUse">
<stop offset="0.466762" stop-color="#090D4C"/>
<stop offset="1" stop-color="#180033"/>
</linearGradient>
<linearGradient id="paint2_linear_179_267" x1="161.258" y1="146.319" x2="201.875" y2="116.308" gradientUnits="userSpaceOnUse">
<stop stop-color="#0054A5"/>
<stop offset="1" stop-color="#00286E"/>
</linearGradient>
<linearGradient id="paint3_linear_179_267" x1="161.708" y1="125.471" x2="191.688" y2="166.572" gradientUnits="userSpaceOnUse">
<stop offset="0.162298" stop-color="#090D4C"/>
<stop offset="1" stop-color="#090D4C"/>
</linearGradient>
<linearGradient id="paint4_linear_179_267" x1="2.74134" y1="17.2162" x2="26.7727" y2="11.4295" gradientUnits="userSpaceOnUse">
<stop stop-color="#0054A5"/>
<stop offset="1" stop-color="#00286E"/>
</linearGradient>
<linearGradient id="paint5_linear_179_267" x1="6.91844" y1="7.9046" x2="12.599" y2="32.1478" gradientUnits="userSpaceOnUse">
<stop offset="0.162298" stop-color="#090D4C"/>
<stop offset="1" stop-color="#090D4C"/>
</linearGradient>
</defs>
</svg>
