<svg width="688" height="281" viewBox="0 0 688 281" fill="none" xmlns="http://www.w3.org/2000/svg">
<g clip-path="url(#clip0_1216_5538)">
<path d="M0.560608 27.3354L49.9424 18.8648L121.235 19.3456L401.807 21.2691L462.663 4.38328L498.865 6.25127L704.66 0V119.847H601.262L652.831 101.407L578.221 82.0617L521.035 86.2046L418.305 98.7626L257.053 82.5056L313.906 62.4942L196.364 64.2142L0.560608 27.3354Z" fill="url(#paint0_linear_1216_5538)"/>
<path d="M463.497 44.6657L514.418 31.2754L704.66 32.2926V33.8462L518.143 40.6523L504.13 46.7556L337.243 58.8327L463.497 44.6657Z" fill="url(#paint1_linear_1216_5538)"/>
</g>
<g clip-path="url(#clip1_1216_5538)">
<path d="M704.66 95.9316V99.6761L654.736 100.862L704.66 95.9316Z" fill="url(#paint2_linear_1216_5538)"/>
<path d="M417.867 98.8614L256.662 82.5674L275.712 211.714L418.053 234.96L417.867 98.8614Z" fill="url(#paint3_linear_1216_5538)"/>
<path d="M704.66 119.178H601.292L613.874 265.749L704.66 280.356V119.178Z" fill="url(#paint4_linear_1216_5538)"/>
<path d="M613.863 265.749L601.28 119.178L654.725 100.863L578.245 81.3252L521.076 85.4775L417.855 98.8611L418.041 234.959L613.863 265.749Z" fill="url(#paint5_linear_1216_5538)"/>
</g>
<g clip-path="url(#clip2_1216_5538)">
<path d="M198.161 64.0996L105.773 46.624L168.587 194.647L222.42 203.311L198.161 64.0996Z" fill="url(#paint6_linear_1216_5538)"/>
<path d="M2.70135 27.1084L100.367 183.628L164.088 193.887L66.9597 39.2597L2.70135 27.1084Z" fill="url(#paint7_linear_1216_5538)"/>
<path d="M105.774 46.6248L66.9597 39.2598L164.088 193.887L168.588 194.648L105.774 46.6248Z" fill="url(#paint8_linear_1216_5538)"/>
</g>
<path d="M277.064 212.585L258.118 83.006L315.158 62.0635L198.165 63.7932L222.29 203.36L277.064 212.585Z" fill="url(#paint9_linear_1216_5538)"/>
<defs>
<linearGradient id="paint0_linear_1216_5538" x1="-661.093" y1="96.3054" x2="964.972" y2="59.9195" gradientUnits="userSpaceOnUse">
<stop offset="0.260783" stop-color="#AACCFA"/>
<stop offset="0.587066" stop-color="#0054A5"/>
<stop offset="0.933429" stop-color="#00286E"/>
</linearGradient>
<linearGradient id="paint1_linear_1216_5538" x1="534.164" y1="70.2678" x2="522.245" y2="21.1865" gradientUnits="userSpaceOnUse">
<stop stop-color="#00286E"/>
<stop offset="1" stop-color="#014485"/>
</linearGradient>
<linearGradient id="paint2_linear_1216_5538" x1="679.259" y1="108.781" x2="680.905" y2="76.9287" gradientUnits="userSpaceOnUse">
<stop stop-color="#116288"/>
<stop offset="0.2105" stop-color="#115E82"/>
<stop offset="0.4846" stop-color="#0F5472"/>
<stop offset="0.7926" stop-color="#0E4457"/>
<stop offset="1" stop-color="#0C3641"/>
</linearGradient>
<linearGradient id="paint3_linear_1216_5538" x1="337.273" y1="61.7077" x2="324.782" y2="290.343" gradientUnits="userSpaceOnUse">
<stop offset="0.0313113" stop-color="#3171D3"/>
<stop offset="0.323012" stop-color="#0054A5"/>
<stop offset="0.618578" stop-color="#00286E"/>
</linearGradient>
<linearGradient id="paint4_linear_1216_5538" x1="653.297" y1="80.2552" x2="666.095" y2="503.424" gradientUnits="userSpaceOnUse">
<stop stop-color="#3171D3"/>
<stop offset="0.221092" stop-color="#0054A5"/>
<stop offset="0.444344" stop-color="#00286E"/>
</linearGradient>
<linearGradient id="paint5_linear_1216_5538" x1="858.393" y1="190.471" x2="417.864" y2="173.538" gradientUnits="userSpaceOnUse">
<stop offset="0.329482" stop-color="#0064D7"/>
<stop offset="0.455977" stop-color="#0054A5"/>
<stop offset="1" stop-color="#00286E"/>
</linearGradient>
<linearGradient id="paint6_linear_1216_5538" x1="157.146" y1="6.41988" x2="194.645" y2="260.731" gradientUnits="userSpaceOnUse">
<stop offset="0.278671" stop-color="#3171D3"/>
<stop offset="0.50792" stop-color="#0054A5"/>
<stop offset="0.761776" stop-color="#00286E"/>
</linearGradient>
<linearGradient id="paint7_linear_1216_5538" x1="34.4462" y1="27.1084" x2="164.322" y2="295.857" gradientUnits="userSpaceOnUse">
<stop offset="0.191076" stop-color="#3171D3"/>
<stop offset="0.422314" stop-color="#0054A5"/>
<stop offset="0.799024" stop-color="#00286E"/>
</linearGradient>
<linearGradient id="paint8_linear_1216_5538" x1="66.905" y1="-46.0123" x2="168.851" y2="227.591" gradientUnits="userSpaceOnUse">
<stop offset="0.213211" stop-color="#0054A5"/>
<stop offset="0.941446" stop-color="#00286E"/>
</linearGradient>
<linearGradient id="paint9_linear_1216_5538" x1="225.63" y1="-3.21019" x2="256.346" y2="252.572" gradientUnits="userSpaceOnUse">
<stop offset="0.149512" stop-color="#0054A5"/>
<stop offset="0.716346" stop-color="#00286E"/>
</linearGradient>
<clipPath id="clip0_1216_5538">
<rect width="704.1" height="119.847" fill="white" transform="matrix(-1 0 0 1 704.66 0)"/>
</clipPath>
<clipPath id="clip1_1216_5538">
<rect width="447.999" height="199.031" fill="white" transform="matrix(-1 0 0 1 704.66 81.3252)"/>
</clipPath>
<clipPath id="clip2_1216_5538">
<rect width="219.719" height="176.203" fill="white" transform="matrix(-1 0 0 1 222.42 27.1084)"/>
</clipPath>
</defs>
</svg>
