<svg width="1512" height="658" viewBox="0 0 1512 658" fill="none" xmlns="http://www.w3.org/2000/svg">
<path fill-rule="evenodd" clip-rule="evenodd" d="M-5.1981 633.72L9.19674 657.453L24.3661 538.634L34.4878 514.273L84.0686 141.611L144.799 106.83H170.438L241.958 190.332L247.019 191.878L271.469 259.512L292.22 272.672L296.266 268.418L310.433 241.349V225.511L324.601 177.188L319.54 171.771L324.601 172.153L399.927 67.0293L533.42 45.3771L-5.1981 45.3771L-5.1981 633.72Z" fill="url(#paint0_linear_169_265)"/>
<path fill-rule="evenodd" clip-rule="evenodd" d="M34.4872 514.273L66.6419 272.672L59.2842 297.69L61.9415 294.507L61.3006 301.47L56.4934 332.777L43.3404 366.702L37.7721 377.719L50.0037 321.76L55.986 303.78L46.1179 327.468L40.3893 347.268L55.8257 234.585L66.6419 209.276L78.0322 177.371V187.012L81.7578 159.024L75.5886 176.698L76.4832 177.371L63.9979 211.586L57.0542 226.751L57.5483 223.675L44.2217 273.819L42.5793 280.016L46.6253 272.672L47.8939 271.172L39.4413 305.662L14.2436 374.72L0.743424 396.571L4.1218 348.049L-3.30262 404.39L-5.19876 432.714L2.43928 400.595L25.3802 374.72L30.2275 380.611L25.4871 407.91L0.743424 539.797L17.5953 477.549L23.3505 457.442L17.9558 503.072L17.9558 534.977L34.4872 514.273Z" fill="url(#paint1_linear_169_265)"/>
<path fill-rule="evenodd" clip-rule="evenodd" d="M292.22 272.675L271.469 259.515L247.019 191.881L240.302 190.442L185.607 124.981L207.373 147.612L217.161 153.029L221.701 166.694L226.775 168.484L239.421 171.774L224.078 147.811L206.705 127.75L227.977 143.787L226.936 141.201L226.442 135.631L243.307 153.412L237.738 152.448L254.083 166.388V163.465L249.035 141.201L245.563 96.6111L258.142 152.157L265.313 157.605L270.04 172.157L262.442 45.3804L278.132 137.942L280.416 186.586H284.208L295.091 177.191L296.266 173.901L319.541 171.774L324.602 177.191L310.434 225.514V241.352L296.266 268.421L292.22 272.675Z" fill="url(#paint2_linear_169_265)"/>
<path opacity="0.6" fill-rule="evenodd" clip-rule="evenodd" d="M40.9907 465.353L34.4876 514.273L17.9563 534.977L17.9563 500.165L29.4801 406.808V427.909L47.3068 282.067L17.9563 451.413L0.743887 539.797L-3.30216 542.888L-3.30216 404.39L4.12227 348.049L37.8527 217.202L50.6718 203.614L59.1111 191.877L50.0042 271.508L64.8396 177.371L69.2329 170.225L84.0684 141.611L50.0042 177.371L28.4119 221.135L11.7203 300.291L2.10591 319.051L5.64456 177.371L40.3898 45.3769H20.0661L10.198 95.9037L7.91459 119.101L15.5126 89.2321L23.8584 73.5783L-5.1983 177.371L-4.98468 576.322L20.213 571.181L24.3658 538.634L37.185 513.11L40.9907 465.353Z" fill="url(#paint3_linear_169_265)"/>
<path opacity="0.6" fill-rule="evenodd" clip-rule="evenodd" d="M170.438 106.833L168.328 97.6517L155.429 83.1454L132.902 45.3804H137.455L198.439 118.233L264.111 175.064L265.313 169.555L264.111 155.34L270.04 172.157L272.817 129.25L262.442 45.3804H276.61L280.415 192.998L291.205 257.113L284.715 242.607L284.208 251.023L296.266 268.421L292.22 272.675L271.469 259.515L247.019 191.881L240.302 190.442L170.438 106.833Z" fill="url(#paint4_linear_169_265)"/>
<path opacity="0.6" fill-rule="evenodd" clip-rule="evenodd" d="M324.602 177.188L297.041 179.499L293.743 181.442L281.831 201.411L280.416 192.995L295.091 177.188L302.502 119.194L296.266 129.89L309.767 44.1995L324.602 44.3678L308.578 106.83L296.266 173.898L298.63 174.097L335.405 44.0005H350.574L306.722 173.317L319.541 171.771L324.602 177.188Z" fill="url(#paint5_linear_169_265)"/>
<path opacity="0.6" fill-rule="evenodd" clip-rule="evenodd" d="M360.682 44.0009L387.175 59.0886L399.927 67.0303L533.42 45.3781L360.682 44.0009Z" fill="url(#paint6_linear_169_265)"/>
<path opacity="0.6" fill-rule="evenodd" clip-rule="evenodd" d="M247.019 191.881H262.201L268.384 192.998L284.208 251.023L296.266 268.421L292.22 272.675L271.469 259.515L247.019 191.881Z" fill="url(#paint7_linear_169_265)"/>
<path fill-rule="evenodd" clip-rule="evenodd" d="M-5.19814 186.584L15.5528 139.744L39.4419 75.905L38.2801 89.8144L45.6111 75.905L65.8547 45.3777H75.5892L59.1112 80.5414L17.5959 145.483L27.7444 122.713L38.2801 96.3942L-1.60614 185.298L-5.99934 198.06L5.4177 186.584L50.0043 127.748L75.5892 87.1059L70.9156 90.0133L50.0043 115.139L98.2497 45.3777H103.978L84.0685 72.615L77.4987 86.3408L105.728 68.7436L126.078 45.3777H128.936L47.9746 136.011L-4.99785 201.411L-5.19814 186.584Z" fill="#00286E"/>
<path opacity="0.6" fill-rule="evenodd" clip-rule="evenodd" d="M170.438 106.829L168.328 97.6478L155.429 83.1416L153.933 65.0547L198.44 118.229L264.111 175.06L240.302 190.438L170.438 106.829Z" fill="url(#paint8_linear_169_265)"/>
<path opacity="0.6" fill-rule="evenodd" clip-rule="evenodd" d="M-5.19746 177.373L23.8593 73.5797L40.3906 45.3783L5.6454 177.373L2.10674 319.053L11.7211 300.293L13.7108 310.851L4.1231 348.05L-3.30132 404.392L-5.19746 177.373Z" fill="url(#paint9_linear_169_265)"/>
<path opacity="0.8" fill-rule="evenodd" clip-rule="evenodd" d="M132.901 45.3779L139.057 67.03L117.972 92.9056L75.5891 141.612L50.0042 177.372L64.8397 177.372L84.0684 141.612L144.799 106.83H170.438L168.328 97.6492L132.901 45.3779Z" fill="url(#paint10_linear_169_265)"/>
<path opacity="0.8" fill-rule="evenodd" clip-rule="evenodd" d="M264.111 175.061L280.416 192.995L295.091 177.188L296.266 173.898L319.541 171.771L324.602 177.188L297.04 179.499L293.742 181.442L281.831 201.411L268.384 192.995L262.202 191.878H247.019L240.302 190.44L264.111 175.061Z" fill="url(#paint11_linear_169_265)"/>
<path fill-rule="evenodd" clip-rule="evenodd" d="M40.3902 156.498L50.0046 147.807H53.7168L40.3902 156.498Z" fill="#00286E"/>
<path fill-rule="evenodd" clip-rule="evenodd" d="M245.562 96.6074L252.413 76.4854L256.792 71.2675L263.736 67.0288L264.631 81.8105L262.187 75.5061L254.082 77.832L245.562 96.6074Z" fill="#00286E"/>
<path fill-rule="evenodd" clip-rule="evenodd" d="M239.42 99.4844V84.0142L223.636 55.522L231.528 77.4956L239.42 99.4844Z" fill="#00286E"/>
<path fill-rule="evenodd" clip-rule="evenodd" d="M1062.29 -114.09C1062.29 -114.09 1070.4 -97.3357 1076.95 -87.6732C1083.5 -78.0108 1089.31 -71.8942 1089.31 -71.8942L1083.14 -62.5568L857.47 -52.2442L642 -33.3921C642 -33.3921 654.534 -15.5151 659.666 -10.3736C664.827 -5.23212 671.876 -0.711156 671.876 -0.711156C671.876 -0.711156 676.388 21.1845 678.01 30.2264C679.632 39.2388 675.503 47.6307 675.503 47.6307L685.029 78.5682L991.541 143.014H1187.75L1585.81 181.043L2000.35 201.905V-14.0081L1624.38 -68.3483L1062.29 -114.09Z" fill="url(#paint12_linear_169_265)"/>
<path fill-rule="evenodd" clip-rule="evenodd" d="M2001 -139H1457.99C1457.99 -139 1444.3 -133.12 1434.66 -132.322C1425.02 -131.524 1311.62 -130.076 1295.63 -129.81C1279.65 -129.574 1236.5 -131.997 1209.19 -129.81C1181.91 -127.624 1147.08 -126.324 1136.2 -124.403C1125.32 -122.482 1094.32 -119.261 1083.11 -117.341C1071.91 -115.42 1059.7 -117.341 1062.26 -114.12C1064.83 -110.899 1090.58 -110.249 1099.57 -105.758C1108.57 -101.237 1149.18 -98.0158 1158.79 -95.4451C1168.41 -92.8743 1220.55 -85.7826 1232.4 -81.9117C1244.29 -78.0409 1253.93 -74.82 1253.93 -74.82C1253.93 -74.82 1151.42 -63.2074 1138.68 -59.366C1125.94 -55.4951 1114.38 -52.2743 1114.38 -52.2743C1114.38 -52.2743 960.102 -34.22 944.943 -28.4284C929.784 -22.6369 920.258 -20.0661 922.146 -16.1952C924.004 -12.3243 979.449 -8.45346 992.249 -7.18286C1005.05 -5.88272 1061.64 -20.7162 1071.29 -15.5452C1080.93 -10.4037 1091.34 -7.18286 1096.74 -2.66189C1102.17 1.85907 1118.95 -2.01183 1133.69 1.85906C1148.44 5.72995 1385.76 8.95077 1398.62 11.5215C1411.48 14.0923 1423.07 26.355 1437.2 29.5758C1451.35 32.7966 2000.29 33.4467 2000.29 33.4467L2001 -139Z" fill="url(#paint13_radial_169_265)"/>
<path fill-rule="evenodd" clip-rule="evenodd" d="M1928.44 29.975L1940.44 178.137L1800.65 181.247L1614.86 167.045L1592.19 95.3997L1574.59 30.0026L1572.46 100.684L1574.59 147.64L1543.16 178.165L1465.52 162.724L1437.1 25.7088L1398.53 8.8916L1384.58 85.1332L1368.54 91.7115L1374.32 129.805L1284.28 132.144L1152.42 136.3L1133.67 -0.108764L1122.17 -1.70515L1135.67 74.564L1102.15 -2.47582L1099.91 101.152L1086.67 45.5261L1059.1 44.9481L1061.37 -17.2562L992.196 -8.5036L997.09 35.7551L944.577 42.4985L914.974 35.7551L877.498 -23.1464L815.579 -26.0089L833.919 9.44209L838.401 29.2594L849.576 79.6835L798.714 69.6097L766.339 -0.989533L763.538 -17.1461L753.484 -29.7522L670.925 -28.4861L642 -33C642 -33 655.77 -14.8341 659.662 -11.5588C663.554 -8.28341 671.869 -2.5584 671.869 -2.5584L699.024 -0.686766L717.718 10.4605L731.694 29.2319L703.034 35.6725L692.036 43.0214L676.586 44.838L683.781 65.371L730.013 85.1608L1080.33 157.164L1494.27 189.862L1940.44 193L2000 186.147V29.2594L1928.44 29.975Z" fill="url(#paint14_linear_169_265)"/>
<path fill-rule="evenodd" clip-rule="evenodd" d="M889.941 47.6299L905.513 138.079C905.513 138.079 954.323 156.724 973.699 160.506C993.076 164.288 1015.43 151.523 1015.43 151.523L1051.18 148.332L1075.77 131.637L1086.77 50.8507L1025.75 50.2006L889.941 47.6299Z" fill="url(#paint15_linear_169_265)"/>
<path fill-rule="evenodd" clip-rule="evenodd" d="M889.941 47.6301C889.941 47.6301 949.073 25.0844 957.125 25.7345C965.176 26.3846 992.191 25.7345 992.191 25.7345C992.191 25.7345 1014.04 35.3969 1027.55 36.6971C1041.06 37.9972 1086.71 50.8805 1086.71 50.8805C1086.71 50.8805 1055.33 56.022 1045.31 56.022L1049.44 62.4636C1049.44 62.4636 1027.58 66.3345 994.137 62.4636C994.108 62.4636 966.474 56.6425 889.941 47.6301Z" fill="url(#paint16_linear_169_265)"/>
<path fill-rule="evenodd" clip-rule="evenodd" d="M678.04 39.0315L701.043 36.2539L714.374 37.6427L703.049 40.3907L692.048 48.2803L676.594 50.2305C676.594 50.2305 673.527 44.6162 678.04 39.0315Z" fill="url(#paint17_linear_169_265)"/>
<path fill-rule="evenodd" clip-rule="evenodd" d="M910.673 -11.6748L992.248 -7.15385C992.248 -7.15385 1019.53 -7.77437 1061.44 -16.5504L1102.19 -0.653112L1133.72 1.88809L1139.94 9.12754L1398.65 11.5505L1497.63 -2.48513L1546.79 -11.6453L1748.16 -54.9638L1517.42 -62.0555L1477.72 -54.9638L1397.53 -59.662L1253.93 -74.791C1253.93 -74.791 1156.2 -63.4738 1138.68 -59.337C1121.16 -55.2002 1002.98 -38.8301 1002.98 -38.8301L889.91 -18.8847C889.94 -18.8552 889.143 -14.4524 910.673 -11.6748Z" fill="url(#paint18_linear_169_265)"/>
<path fill-rule="evenodd" clip-rule="evenodd" d="M1398.65 11.5509L1443.07 5.22748L1497.63 -2.48476L1557.64 -14.0088L1481.05 -5.1737L1371.2 10.0439L1391.54 47.63L1398.65 11.5509Z" fill="url(#paint19_linear_169_265)"/>
<path fill-rule="evenodd" clip-rule="evenodd" d="M449.21 -151.261C449.21 -151.261 442.132 -136.639 436.418 -128.207C430.704 -119.775 425.634 -114.437 425.634 -114.437L431.013 -106.288L627.959 -97.288L816 -80.8358C816 -80.8358 805.061 -65.2345 800.583 -60.7475C796.079 -56.2605 789.928 -52.3151 789.928 -52.3151C789.928 -52.3151 785.99 -33.2068 784.574 -25.3159C783.159 -17.4507 786.762 -10.1272 786.762 -10.1272L778.448 16.8721L510.955 73.1141H339.721L-7.66267 106.302L-369.434 124.508V-63.9194L-41.3278 -111.342L449.21 -151.261Z" fill="url(#paint20_linear_169_265)"/>
<path fill-rule="evenodd" clip-rule="evenodd" d="M-306.676 -25.779L-317.149 102.95L-195.155 105.652L-33.0192 93.3126L-13.2315 31.0645L2.1304 -25.7551L3.98309 35.656L2.1304 76.4533L29.5605 102.974L97.3122 89.5581L122.118 -29.4856L155.775 -44.0971L167.946 22.1446L181.944 27.8601L176.9 60.957L255.485 62.9897L370.558 66.6007L386.923 -51.917L396.958 -53.304L385.173 12.9617L414.43 -53.9735L416.386 36.0626L427.939 -12.2676L451.999 -12.7698L450.017 -66.8154L510.384 -59.2107L506.113 -20.757L551.941 -14.8981L577.775 -20.757L610.48 -71.9329L664.517 -74.42L648.512 -43.6188L644.601 -26.4007L634.848 17.4097L679.236 8.65714L707.489 -52.6822L709.934 -66.7197L718.708 -77.6723L790.757 -76.5723L816 -80.4941C816 -80.4941 803.983 -64.7109 800.587 -61.8652C797.19 -59.0194 789.934 -54.0453 789.934 -54.0453L766.235 -52.4191L749.921 -42.734L737.724 -26.4247L762.735 -20.8288L772.333 -14.4438L785.817 -12.8654L779.538 4.9744L739.191 22.1685L433.472 84.7275L72.2237 113.137L-317.149 115.863L-369.127 109.909V-26.4007L-306.676 -25.779Z" fill="url(#paint21_linear_169_265)"/>
<path fill-rule="evenodd" clip-rule="evenodd" d="M599.621 -10.1279L586.032 68.8068C586.032 68.8068 543.435 85.0786 526.526 88.3793C509.616 91.6801 490.107 80.54 490.107 80.54L458.912 77.755L437.447 63.1852L427.847 -7.31712L481.098 -7.88444L599.621 -10.1279Z" fill="url(#paint22_linear_169_265)"/>
<path fill-rule="evenodd" clip-rule="evenodd" d="M599.621 -10.1277C599.621 -10.1277 548.017 -29.8033 540.99 -29.236C533.964 -28.6687 510.388 -29.236 510.388 -29.236C510.388 -29.236 491.316 -20.8036 479.528 -19.6689C467.74 -18.5343 427.898 -7.29106 427.898 -7.29106C427.898 -7.29106 455.283 -2.80409 464.034 -2.80409L460.431 2.81753C460.431 2.81753 479.503 6.19566 508.689 2.81753C508.715 2.81753 532.831 -2.26256 599.621 -10.1277Z" fill="url(#paint23_linear_169_265)"/>
<defs>
<linearGradient id="paint0_linear_169_265" x1="288.5" y1="178.43" x2="256.897" y2="-155.612" gradientUnits="userSpaceOnUse">
<stop stop-color="#00286E"/>
<stop offset="0.251851" stop-color="#090D4C"/>
</linearGradient>
<linearGradient id="paint1_linear_169_265" x1="19.4507" y1="540.065" x2="77.2698" y2="161.182" gradientUnits="userSpaceOnUse">
<stop stop-color="#0054A5"/>
<stop offset="0.664571" stop-color="#0054A5" stop-opacity="0"/>
</linearGradient>
<linearGradient id="paint2_linear_169_265" x1="255.104" y1="272.675" x2="255.104" y2="45.3804" gradientUnits="userSpaceOnUse">
<stop offset="0.0332485" stop-color="#0054A5"/>
<stop offset="0.348653" stop-color="#0054A5" stop-opacity="0"/>
</linearGradient>
<linearGradient id="paint3_linear_169_265" x1="-5.3384" y1="605.575" x2="71.5721" y2="20.627" gradientUnits="userSpaceOnUse">
<stop offset="0.0330182" stop-color="#3171D3"/>
<stop offset="0.114546" stop-color="#0054A5"/>
<stop offset="0.863177" stop-color="#00286E"/>
</linearGradient>
<linearGradient id="paint4_linear_169_265" x1="296.102" y1="290.52" x2="141.919" y2="56.5008" gradientUnits="userSpaceOnUse">
<stop offset="0.111671" stop-color="#3171D3"/>
<stop offset="0.27789" stop-color="#0054A5"/>
<stop offset="0.461256" stop-color="#00286E"/>
</linearGradient>
<linearGradient id="paint5_linear_169_265" x1="315.495" y1="201.411" x2="315.495" y2="44.0063" gradientUnits="userSpaceOnUse">
<stop offset="0.167341" stop-color="#0054A5"/>
<stop offset="0.58875" stop-color="#00286E"/>
</linearGradient>
<linearGradient id="paint6_linear_169_265" x1="385.675" y1="82.6255" x2="462.549" y2="51.9339" gradientUnits="userSpaceOnUse">
<stop stop-color="#090D4C"/>
<stop offset="1" stop-color="#0054A5"/>
</linearGradient>
<linearGradient id="paint7_linear_169_265" x1="271.64" y1="272.67" x2="259.553" y2="186.783" gradientUnits="userSpaceOnUse">
<stop stop-color="#3171D3"/>
<stop offset="0.0772923" stop-color="#0054A5"/>
<stop offset="0.367737" stop-color="#002B72"/>
<stop offset="0.677682" stop-color="#00286E"/>
<stop offset="0.853076" stop-color="#090D4C"/>
</linearGradient>
<linearGradient id="paint8_linear_169_265" x1="258.753" y1="200.392" x2="122.863" y2="71.178" gradientUnits="userSpaceOnUse">
<stop offset="0.0940781" stop-color="#0054A5"/>
<stop offset="0.3125" stop-color="#00286E"/>
<stop offset="1" stop-color="#090D4C"/>
</linearGradient>
<linearGradient id="paint9_linear_169_265" x1="-11.2871" y1="471.146" x2="26.5546" y2="46.1759" gradientUnits="userSpaceOnUse">
<stop stop-color="#0054A5"/>
<stop offset="1" stop-color="#00286E"/>
</linearGradient>
<linearGradient id="paint10_linear_169_265" x1="28.3754" y1="227.657" x2="155.528" y2="101.341" gradientUnits="userSpaceOnUse">
<stop stop-color="#3171D3"/>
<stop offset="0.112098" stop-color="#0054A5"/>
<stop offset="0.674356" stop-color="#00286E"/>
<stop offset="1" stop-color="#090D4C"/>
</linearGradient>
<linearGradient id="paint11_linear_169_265" x1="332.46" y1="292.411" x2="246.783" y2="186.411" gradientUnits="userSpaceOnUse">
<stop offset="0.626181" stop-color="#0064D7"/>
<stop offset="0.755193" stop-color="#0054A5"/>
<stop offset="1" stop-color="#00286E"/>
</linearGradient>
<linearGradient id="paint12_linear_169_265" x1="1301.07" y1="444.193" x2="1320.8" y2="-46.9841" gradientUnits="userSpaceOnUse">
<stop stop-color="#0054A5"/>
<stop offset="0.647313" stop-color="#0054A5"/>
<stop offset="0.902909" stop-color="#00286E"/>
</linearGradient>
<radialGradient id="paint13_radial_169_265" cx="0" cy="0" r="1" gradientUnits="userSpaceOnUse" gradientTransform="translate(764.572 -139) rotate(-1.52388) scale(1838.2 1841.73)">
<stop offset="0.0551722" stop-color="#AACCFA"/>
<stop offset="0.372369" stop-color="#0054A5"/>
<stop offset="0.566932" stop-color="#00286E"/>
</radialGradient>
<linearGradient id="paint14_linear_169_265" x1="1320.85" y1="571.341" x2="1320.79" y2="-157.649" gradientUnits="userSpaceOnUse">
<stop offset="0.551327" stop-color="#0054A5"/>
<stop offset="0.718168" stop-color="#00286E"/>
</linearGradient>
<linearGradient id="paint15_linear_169_265" x1="988.317" y1="47.7771" x2="988.317" y2="233.582" gradientUnits="userSpaceOnUse">
<stop stop-color="#00286E"/>
<stop offset="1" stop-color="#0064D7"/>
</linearGradient>
<linearGradient id="paint16_linear_169_265" x1="1056.9" y1="44.859" x2="517.98" y2="76.6593" gradientUnits="userSpaceOnUse">
<stop offset="0.13746" stop-color="#0054A5"/>
<stop offset="1" stop-color="#D7E0E8"/>
</linearGradient>
<linearGradient id="paint17_linear_169_265" x1="675.576" y1="43.2348" x2="714.378" y2="43.2348" gradientUnits="userSpaceOnUse">
<stop stop-color="#0064D7"/>
<stop offset="1" stop-color="#3171D3"/>
</linearGradient>
<linearGradient id="paint18_linear_169_265" x1="552.423" y1="-31.6463" x2="2261.71" y2="-74.7957" gradientUnits="userSpaceOnUse">
<stop stop-color="#D7E0E8"/>
<stop offset="0.245091" stop-color="#1A65BD"/>
<stop offset="0.75882" stop-color="#00286E"/>
</linearGradient>
<linearGradient id="paint19_linear_169_265" x1="1371.41" y1="35.7699" x2="1773.5" y2="-43.663" gradientUnits="userSpaceOnUse">
<stop stop-color="#22539F"/>
<stop offset="1" stop-color="#0064D7"/>
</linearGradient>
<linearGradient id="paint20_linear_169_265" x1="240.828" y1="335.953" x2="223.613" y2="-92.6976" gradientUnits="userSpaceOnUse">
<stop stop-color="#0054A5"/>
<stop offset="0.647313" stop-color="#0054A5"/>
<stop offset="0.902909" stop-color="#00286E"/>
</linearGradient>
<linearGradient id="paint21_linear_169_265" x1="223.565" y1="444.581" x2="223.617" y2="-188.794" gradientUnits="userSpaceOnUse">
<stop offset="0.551327" stop-color="#0054A5"/>
<stop offset="0.718168" stop-color="#00286E"/>
</linearGradient>
<linearGradient id="paint22_linear_169_265" x1="513.769" y1="-9.99944" x2="513.769" y2="152.152" gradientUnits="userSpaceOnUse">
<stop stop-color="#00286E"/>
<stop offset="1" stop-color="#0064D7"/>
</linearGradient>
<linearGradient id="paint23_linear_169_265" x1="453.917" y1="-12.5461" x2="924.232" y2="15.2061" gradientUnits="userSpaceOnUse">
<stop offset="0.13746" stop-color="#0054A5"/>
<stop offset="1" stop-color="#D7E0E8"/>
</linearGradient>
</defs>
</svg>
