<svg width="1451" height="1026" viewBox="0 0 1451 1026" fill="none" xmlns="http://www.w3.org/2000/svg">
<g filter="url(#filter0_f_144_928)">
<path d="M1151 919L985.872 919L744.992 919L321 919L564.011 -111H905.922L1151 919Z" fill="url(#paint0_radial_144_928)"/>
</g>
<g filter="url(#filter1_f_144_928)">
<path d="M1229 1006L1025.67 1006L734.97 1006L242 996.96L530.169 -5.99998L935.615 -5.99998L1229 1006Z" fill="url(#paint1_radial_144_928)"/>
</g>
<g opacity="0.3" filter="url(#filter2_f_144_928)">
<path d="M614.011 292.167L606.362 286.392C606.042 286.181 605.667 286.109 605.279 286.276L596.552 290.024C596.165 290.191 595.958 290.512 595.89 290.889L594.812 300.412C594.745 300.79 594.913 301.182 595.233 301.393L602.882 307.168C603.202 307.379 603.577 307.45 603.965 307.284L612.692 303.536C613.08 303.369 613.286 303.048 613.354 302.67L614.432 293.147C614.403 292.811 614.234 292.419 614.011 292.167Z" fill="white"/>
<path d="M1407.38 823.003L1401.95 818.901C1401.72 818.751 1401.46 818.701 1401.18 818.819L1394.98 821.481C1394.71 821.6 1394.56 821.828 1394.51 822.096L1393.75 828.86C1393.7 829.129 1393.82 829.407 1394.05 829.557L1399.48 833.659C1399.71 833.809 1399.97 833.86 1400.25 833.741L1406.45 831.079C1406.72 830.961 1406.87 830.733 1406.92 830.464L1407.68 823.7C1407.66 823.461 1407.54 823.183 1407.38 823.003Z" fill="white"/>
<path d="M1320.13 604.493L1315.62 601.088C1315.43 600.963 1315.21 600.921 1314.98 601.02L1309.83 603.23C1309.6 603.328 1309.48 603.517 1309.44 603.74L1308.81 609.356C1308.77 609.578 1308.87 609.81 1309.06 609.934L1313.57 613.339C1313.75 613.464 1313.98 613.506 1314.2 613.408L1319.35 611.197C1319.58 611.099 1319.7 610.91 1319.74 610.687L1320.38 605.072C1320.36 604.873 1320.26 604.642 1320.13 604.493Z" fill="white"/>
<path d="M1281.95 765.568L1283.76 756.41C1283.81 756.039 1283.71 755.68 1283.4 755.412L1276.4 749.362C1276.09 749.093 1275.72 749.049 1275.36 749.15L1266.56 752.259C1266.2 752.36 1265.93 752.675 1265.88 753.045L1264.08 762.203C1264.03 762.574 1264.12 762.933 1264.44 763.201L1271.43 769.251C1271.74 769.52 1272.11 769.564 1272.47 769.463L1281.27 766.354C1281.56 766.186 1281.83 765.871 1281.95 765.568Z" fill="white"/>
<path d="M315.14 388.772L311.846 386.285C311.708 386.194 311.546 386.163 311.379 386.235L307.621 387.849C307.453 387.921 307.364 388.059 307.335 388.222L306.871 392.323C306.842 392.486 306.914 392.655 307.052 392.746L310.347 395.233C310.485 395.324 310.646 395.355 310.813 395.283L314.572 393.669C314.739 393.597 314.828 393.459 314.857 393.296L315.321 389.194C315.309 389.05 315.236 388.881 315.14 388.772Z" fill="white"/>
<path d="M1376.62 527.831L1371.02 523.608C1370.79 523.453 1370.51 523.401 1370.23 523.523L1363.85 526.264C1363.56 526.386 1363.41 526.621 1363.36 526.897L1362.58 533.861C1362.53 534.138 1362.65 534.424 1362.88 534.579L1368.48 538.802C1368.71 538.956 1368.99 539.008 1369.27 538.887L1375.65 536.146C1375.93 536.024 1376.09 535.789 1376.14 535.513L1376.92 528.548C1376.9 528.303 1376.78 528.016 1376.62 527.831Z" fill="white"/>
<path d="M1123.89 817.951L1116.85 812.637C1116.55 812.443 1116.21 812.378 1115.85 812.531L1107.82 815.979C1107.47 816.133 1107.28 816.428 1107.21 816.775L1106.22 825.537C1106.16 825.885 1106.32 826.246 1106.61 826.44L1113.65 831.753C1113.94 831.947 1114.29 832.013 1114.64 831.86L1122.67 828.411C1123.03 828.258 1123.22 827.962 1123.28 827.615L1124.27 818.853C1124.25 818.544 1124.09 818.183 1123.89 817.951Z" fill="white"/>
<path d="M1278.85 169.564L1273.93 165.847C1273.72 165.711 1273.48 165.665 1273.23 165.772L1267.62 168.185C1267.37 168.292 1267.23 168.499 1267.19 168.742L1266.5 174.871C1266.45 175.114 1266.56 175.367 1266.77 175.502L1271.69 179.22C1271.9 179.355 1272.14 179.401 1272.39 179.294L1278 176.882C1278.25 176.774 1278.39 176.568 1278.43 176.325L1279.12 170.195C1279.11 169.979 1279 169.726 1278.85 169.564Z" fill="white"/>
<path d="M511.677 198.588L508.005 195.816C507.851 195.714 507.671 195.68 507.485 195.76L503.295 197.56C503.108 197.64 503.009 197.794 502.977 197.975L502.459 202.547C502.427 202.729 502.508 202.917 502.661 203.018L506.334 205.791C506.487 205.892 506.667 205.926 506.854 205.846L511.044 204.047C511.23 203.967 511.329 203.813 511.361 203.631L511.879 199.059C511.865 198.898 511.784 198.71 511.677 198.588Z" fill="white"/>
<path d="M123.083 558.505L117.011 553.92C116.757 553.753 116.459 553.696 116.151 553.829L109.224 556.804C108.916 556.936 108.752 557.191 108.698 557.491L107.843 565.05C107.789 565.35 107.923 565.661 108.177 565.829L114.248 570.413C114.503 570.58 114.8 570.637 115.108 570.505L122.036 567.529C122.343 567.397 122.508 567.142 122.561 566.843L123.417 559.283C123.394 559.017 123.26 558.705 123.083 558.505Z" fill="white"/>
<path d="M826.028 210.779L821.521 207.376C821.332 207.251 821.111 207.209 820.882 207.308L815.74 209.516C815.511 209.615 815.389 209.804 815.35 210.026L814.714 215.638C814.674 215.861 814.774 216.092 814.962 216.216L819.47 219.619C819.658 219.744 819.88 219.786 820.108 219.687L825.251 217.479C825.479 217.381 825.601 217.191 825.641 216.969L826.276 211.357C826.259 211.159 826.16 210.928 826.028 210.779Z" fill="white"/>
<path d="M67.9122 357.873L60.0625 351.946C59.7338 351.73 59.3488 351.657 58.9508 351.828L49.9946 355.674C49.5966 355.845 49.3845 356.175 49.3151 356.562L48.2087 366.336C48.1393 366.723 48.3122 367.126 48.6409 367.342L56.4906 373.269C56.8193 373.485 57.2043 373.559 57.6023 373.388L66.5585 369.541C66.9565 369.37 67.1686 369.04 67.2379 368.653L68.3444 358.88C68.3142 358.535 68.1413 358.132 67.9122 357.873Z" fill="white"/>
<path d="M1083.03 262.849L1077.57 258.729C1077.35 258.579 1077.08 258.528 1076.8 258.647L1070.57 261.321C1070.3 261.44 1070.15 261.669 1070.1 261.938L1069.33 268.732C1069.28 269.002 1069.41 269.281 1069.63 269.432L1075.09 273.552C1075.32 273.703 1075.59 273.753 1075.86 273.634L1082.09 270.96C1082.37 270.842 1082.51 270.613 1082.56 270.343L1083.33 263.549C1083.31 263.309 1083.19 263.029 1083.03 262.849Z" fill="white"/>
<path d="M1434.81 334.08L1429 329.688C1428.75 329.528 1428.47 329.473 1428.17 329.6L1421.53 332.451C1421.24 332.577 1421.08 332.822 1421.03 333.109L1420.21 340.351C1420.16 340.638 1420.29 340.937 1420.53 341.097L1426.35 345.489C1426.59 345.65 1426.88 345.704 1427.17 345.577L1433.81 342.727C1434.1 342.6 1434.26 342.356 1434.31 342.069L1435.13 334.826C1435.11 334.571 1434.98 334.272 1434.81 334.08Z" fill="white"/>
<path d="M37.0243 698.248L28.3791 691.72C28.017 691.482 27.593 691.401 27.1546 691.59L17.2907 695.826C16.8523 696.014 16.6188 696.377 16.5424 696.804L15.3238 707.568C15.2474 707.995 15.4378 708.438 15.7998 708.676L24.4451 715.204C24.8071 715.442 25.2312 715.523 25.6696 715.335L35.5334 711.098C35.9718 710.91 36.2054 710.547 36.2818 710.12L37.5004 699.356C37.4672 698.977 37.2768 698.533 37.0243 698.248Z" fill="white"/>
<path d="M1259.05 402.784L1263.08 392.089C1263.22 391.651 1263.17 391.198 1262.85 390.81L1255.63 382.084C1255.3 381.697 1254.87 381.568 1254.41 381.618L1243.15 383.587C1242.7 383.637 1242.3 383.962 1242.17 384.399L1238.14 395.094C1238 395.532 1238.05 395.985 1238.37 396.373L1245.59 405.099C1245.91 405.486 1246.35 405.615 1246.8 405.565L1258.07 403.596C1258.44 403.449 1258.83 403.124 1259.05 402.784Z" fill="white"/>
<path d="M255.888 248.624L258.288 236.056C258.352 235.548 258.216 235.057 257.787 234.69L248.148 226.453C247.719 226.087 247.213 226.029 246.721 226.171L234.681 230.502C234.189 230.644 233.819 231.077 233.756 231.585L231.355 244.153C231.292 244.661 231.428 245.152 231.857 245.518L241.496 253.755C241.925 254.122 242.431 254.179 242.923 254.038L254.963 249.707C255.347 249.473 255.718 249.04 255.888 248.624Z" fill="white"/>
</g>
<g opacity="0.3">
<path d="M614.011 294.182L606.362 288.407C606.042 288.196 605.667 288.125 605.279 288.292L596.552 292.04C596.165 292.206 595.958 292.527 595.89 292.905L594.812 302.428C594.745 302.806 594.913 303.198 595.233 303.409L602.882 309.184C603.202 309.395 603.577 309.466 603.965 309.299L612.692 305.551C613.08 305.385 613.286 305.064 613.354 304.686L614.432 295.163C614.403 294.827 614.234 294.435 614.011 294.182Z" fill="white"/>
<path d="M1407.38 825.019L1401.95 820.917C1401.72 820.767 1401.46 820.716 1401.18 820.834L1394.98 823.497C1394.71 823.615 1394.56 823.843 1394.51 824.111L1393.75 830.876C1393.7 831.144 1393.82 831.423 1394.05 831.573L1399.48 835.675C1399.71 835.825 1399.97 835.875 1400.25 835.757L1406.45 833.095C1406.72 832.976 1406.87 832.748 1406.92 832.48L1407.68 825.715C1407.66 825.477 1407.54 825.198 1407.38 825.019Z" fill="white"/>
<path d="M1320.13 606.509L1315.62 603.103C1315.43 602.979 1315.21 602.937 1314.98 603.035L1309.83 605.245C1309.6 605.344 1309.48 605.533 1309.44 605.756L1308.81 611.371C1308.77 611.594 1308.87 611.825 1309.06 611.95L1313.57 615.355C1313.75 615.479 1313.98 615.521 1314.2 615.423L1319.35 613.213C1319.58 613.115 1319.7 612.925 1319.74 612.703L1320.38 607.087C1320.36 606.889 1320.26 606.658 1320.13 606.509Z" fill="white"/>
<path d="M1281.95 767.584L1283.76 758.425C1283.81 758.055 1283.71 757.696 1283.4 757.427L1276.4 751.378C1276.09 751.109 1275.72 751.064 1275.36 751.166L1266.56 754.274C1266.2 754.376 1265.93 754.69 1265.88 755.061L1264.08 764.219C1264.03 764.589 1264.12 764.948 1264.44 765.217L1271.43 771.267C1271.74 771.536 1272.11 771.58 1272.47 771.478L1281.27 768.37C1281.56 768.201 1281.83 767.887 1281.95 767.584Z" fill="white"/>
<path d="M315.14 390.788L311.846 388.3C311.708 388.21 311.546 388.179 311.379 388.251L307.621 389.865C307.453 389.937 307.364 390.075 307.335 390.237L306.871 394.339C306.842 394.502 306.914 394.671 307.052 394.761L310.347 397.249C310.485 397.34 310.646 397.37 310.813 397.298L314.572 395.684C314.739 395.612 314.828 395.474 314.857 395.312L315.321 391.21C315.309 391.065 315.236 390.896 315.14 390.788Z" fill="white"/>
<path d="M1376.62 529.847L1371.02 525.623C1370.79 525.469 1370.51 525.417 1370.23 525.539L1363.85 528.28C1363.56 528.402 1363.41 528.637 1363.36 528.913L1362.58 535.877C1362.53 536.153 1362.65 536.44 1362.88 536.594L1368.48 540.818C1368.71 540.972 1368.99 541.024 1369.27 540.902L1375.65 538.161C1375.93 538.039 1376.09 537.805 1376.14 537.528L1376.92 530.564C1376.9 530.318 1376.78 530.031 1376.62 529.847Z" fill="white"/>
<path d="M1123.89 819.966L1116.85 814.653C1116.55 814.459 1116.21 814.393 1115.85 814.546L1107.82 817.995C1107.47 818.148 1107.28 818.444 1107.21 818.791L1106.22 827.553C1106.16 827.9 1106.32 828.261 1106.61 828.455L1113.65 833.769C1113.94 833.963 1114.29 834.029 1114.64 833.875L1122.67 830.427C1123.03 830.273 1123.22 829.978 1123.28 829.631L1124.27 820.869C1124.25 820.56 1124.09 820.199 1123.89 819.966Z" fill="white"/>
<path d="M1278.85 171.579L1273.93 167.862C1273.72 167.726 1273.48 167.681 1273.23 167.788L1267.62 170.2C1267.37 170.308 1267.23 170.514 1267.19 170.757L1266.5 176.887C1266.45 177.13 1266.56 177.382 1266.77 177.518L1271.69 181.235C1271.9 181.371 1272.14 181.417 1272.39 181.31L1278 178.897C1278.25 178.79 1278.39 178.583 1278.43 178.34L1279.12 172.211C1279.11 171.994 1279 171.742 1278.85 171.579Z" fill="white"/>
<path d="M511.677 200.604L508.005 197.831C507.851 197.73 507.671 197.696 507.485 197.776L503.295 199.575C503.108 199.655 503.009 199.809 502.977 199.991L502.459 204.563C502.427 204.744 502.508 204.933 502.661 205.034L506.334 207.806C506.487 207.908 506.667 207.942 506.854 207.862L511.044 206.062C511.23 205.982 511.329 205.828 511.361 205.647L511.879 201.075C511.865 200.914 511.784 200.725 511.677 200.604Z" fill="white"/>
<path d="M123.083 560.52L117.011 555.936C116.757 555.768 116.459 555.712 116.151 555.844L109.224 558.819C108.916 558.951 108.752 559.206 108.698 559.506L107.843 567.065C107.789 567.365 107.923 567.676 108.177 567.844L114.248 572.428C114.503 572.595 114.8 572.652 115.108 572.52L122.036 569.545C122.343 569.412 122.508 569.157 122.561 568.858L123.417 561.298C123.394 561.032 123.26 560.72 123.083 560.52Z" fill="white"/>
<path d="M826.028 212.795L821.521 209.391C821.332 209.267 821.111 209.225 820.882 209.323L815.74 211.532C815.511 211.63 815.389 211.819 815.35 212.042L814.714 217.654C814.674 217.876 814.774 218.107 814.962 218.232L819.47 221.635C819.658 221.759 819.88 221.801 820.108 221.703L825.251 219.494C825.479 219.396 825.601 219.207 825.641 218.984L826.276 213.372C826.259 213.175 826.16 212.943 826.028 212.795Z" fill="white"/>
<path d="M67.9122 359.889L60.0625 353.962C59.7338 353.745 59.3488 353.672 58.9508 353.843L49.9946 357.69C49.5966 357.861 49.3845 358.19 49.3151 358.578L48.2087 368.351C48.1393 368.739 48.3122 369.141 48.6409 369.358L56.4906 375.285C56.8193 375.501 57.2043 375.574 57.6023 375.403L66.5585 371.557C66.9565 371.386 67.1686 371.056 67.2379 370.669L68.3444 360.895C68.3142 360.551 68.1413 360.148 67.9122 359.889Z" fill="white"/>
<path d="M1083.03 264.865L1077.57 260.745C1077.35 260.594 1077.08 260.543 1076.8 260.662L1070.57 263.336C1070.3 263.455 1070.15 263.684 1070.1 263.954L1069.33 270.748C1069.28 271.017 1069.41 271.297 1069.63 271.447L1075.09 275.568C1075.32 275.718 1075.59 275.769 1075.86 275.65L1082.09 272.976C1082.37 272.857 1082.51 272.628 1082.56 272.359L1083.33 265.565C1083.31 265.325 1083.19 265.045 1083.03 264.865Z" fill="white"/>
<path d="M1434.81 336.096L1429 331.704C1428.75 331.543 1428.47 331.489 1428.17 331.616L1421.53 334.466C1421.24 334.593 1421.08 334.837 1421.03 335.124L1420.21 342.367C1420.16 342.654 1420.29 342.952 1420.53 343.113L1426.35 347.505C1426.59 347.665 1426.88 347.72 1427.17 347.593L1433.81 344.742C1434.1 344.616 1434.26 344.371 1434.31 344.084L1435.13 336.842C1435.11 336.586 1434.98 336.288 1434.81 336.096Z" fill="white"/>
<path d="M37.0243 700.263L28.3791 693.736C28.017 693.497 27.593 693.417 27.1546 693.605L17.2907 697.842C16.8523 698.03 16.6188 698.393 16.5424 698.819L15.3238 709.584C15.2474 710.01 15.4378 710.454 15.7998 710.692L24.4451 717.22C24.8071 717.458 25.2312 717.538 25.6696 717.35L35.5334 713.114C35.9718 712.925 36.2054 712.563 36.2818 712.136L37.5004 701.372C37.4672 700.992 37.2768 700.549 37.0243 700.263Z" fill="white"/>
<path d="M1259.05 404.799L1263.08 394.104C1263.22 393.667 1263.17 393.213 1262.85 392.826L1255.63 384.1C1255.3 383.712 1254.87 383.584 1254.41 383.633L1243.15 385.603C1242.7 385.653 1242.3 385.977 1242.17 386.415L1238.14 397.11C1238 397.548 1238.05 398.001 1238.37 398.389L1245.59 407.114C1245.91 407.502 1246.35 407.631 1246.8 407.581L1258.07 405.611C1258.44 405.465 1258.83 405.14 1259.05 404.799Z" fill="white"/>
<path d="M255.888 250.639L258.288 238.071C258.352 237.563 258.216 237.072 257.787 236.706L248.148 228.469C247.719 228.103 247.213 228.045 246.721 228.187L234.681 232.518C234.189 232.66 233.819 233.093 233.756 233.601L231.355 246.169C231.292 246.677 231.428 247.168 231.857 247.534L241.496 255.771C241.925 256.137 242.431 256.195 242.923 256.053L254.963 251.722C255.347 251.489 255.718 251.056 255.888 250.639Z" fill="white"/>
</g>
<defs>
<filter id="filter0_f_144_928" x="301" y="-131" width="870" height="1070" filterUnits="userSpaceOnUse" color-interpolation-filters="sRGB">
<feFlood flood-opacity="0" result="BackgroundImageFix"/>
<feBlend mode="normal" in="SourceGraphic" in2="BackgroundImageFix" result="shape"/>
<feGaussianBlur stdDeviation="10" result="effect1_foregroundBlur_144_928"/>
</filter>
<filter id="filter1_f_144_928" x="222" y="-26" width="1027" height="1052" filterUnits="userSpaceOnUse" color-interpolation-filters="sRGB">
<feFlood flood-opacity="0" result="BackgroundImageFix"/>
<feBlend mode="normal" in="SourceGraphic" in2="BackgroundImageFix" result="shape"/>
<feGaussianBlur stdDeviation="10" result="effect1_foregroundBlur_144_928"/>
</filter>
<filter id="filter2_f_144_928" x="0.306641" y="150.713" width="1449.83" height="698.094" filterUnits="userSpaceOnUse" color-interpolation-filters="sRGB">
<feFlood flood-opacity="0" result="BackgroundImageFix"/>
<feBlend mode="normal" in="SourceGraphic" in2="BackgroundImageFix" result="shape"/>
<feGaussianBlur stdDeviation="7.5" result="effect1_foregroundBlur_144_928"/>
</filter>
<radialGradient id="paint0_radial_144_928" cx="0" cy="0" r="1" gradientUnits="userSpaceOnUse" gradientTransform="translate(782.293 -516.013) rotate(90.6317) scale(1531.36 830.262)">
<stop stop-color="white" stop-opacity="0.78"/>
<stop offset="1" stop-color="white" stop-opacity="0"/>
</radialGradient>
<radialGradient id="paint1_radial_144_928" cx="0" cy="0" r="1" gradientUnits="userSpaceOnUse" gradientTransform="translate(789.013 -400.381) rotate(90.3799) scale(1442.4 952.355)">
<stop stop-color="#00FFFF" stop-opacity="0.78"/>
<stop offset="1" stop-color="#00FFFF" stop-opacity="0"/>
</radialGradient>
</defs>
</svg>
