<svg width="1512" height="1248" viewBox="0 0 1512 1248" fill="none" xmlns="http://www.w3.org/2000/svg">
<g clip-path="url(#clip0_152_2588)">
<rect width="1512" height="1248" fill="url(#paint0_radial_152_2588)"/>
<g filter="url(#filter0_f_152_2588)">
<path d="M1166 919L1000.87 919L759.992 919L336 919L579.011 -111H920.922L1166 919Z" fill="url(#paint1_radial_152_2588)"/>
</g>
<g filter="url(#filter1_f_152_2588)">
<path d="M1244 1006L1040.67 1006L749.97 1006L257 996.96L545.169 -5.99998L950.615 -5.99998L1244 1006Z" fill="url(#paint2_radial_152_2588)"/>
</g>
<g opacity="0.3" filter="url(#filter2_f_152_2588)">
<path d="M629.01 292.166L621.361 286.391C621.041 286.18 620.666 286.109 620.278 286.276L611.551 290.024C611.164 290.19 610.957 290.511 610.889 290.889L609.811 300.412C609.744 300.789 609.912 301.182 610.232 301.393L617.881 307.168C618.201 307.379 618.576 307.45 618.964 307.283L627.691 303.535C628.079 303.369 628.285 303.047 628.353 302.67L629.431 293.147C629.402 292.811 629.233 292.419 629.01 292.166Z" fill="white"/>
<path d="M1422.38 823.003L1416.95 818.901C1416.72 818.751 1416.46 818.701 1416.18 818.819L1409.98 821.481C1409.71 821.6 1409.56 821.828 1409.51 822.096L1408.74 828.86C1408.7 829.129 1408.82 829.407 1409.04 829.557L1414.48 833.659C1414.7 833.809 1414.97 833.86 1415.25 833.741L1421.45 831.079C1421.72 830.961 1421.87 830.733 1421.92 830.464L1422.68 823.7C1422.66 823.461 1422.54 823.183 1422.38 823.003Z" fill="white"/>
<path d="M1335.13 604.493L1330.62 601.088C1330.43 600.963 1330.21 600.921 1329.98 601.02L1324.83 603.23C1324.6 603.328 1324.48 603.517 1324.44 603.74L1323.81 609.356C1323.77 609.578 1323.86 609.81 1324.05 609.934L1328.56 613.339C1328.75 613.464 1328.97 613.506 1329.2 613.408L1334.35 611.197C1334.58 611.099 1334.7 610.91 1334.74 610.687L1335.38 605.072C1335.36 604.873 1335.26 604.642 1335.13 604.493Z" fill="white"/>
<path d="M1296.95 765.567L1298.76 756.409C1298.8 756.039 1298.71 755.68 1298.4 755.411L1291.4 749.361C1291.09 749.093 1290.72 749.048 1290.36 749.15L1281.56 752.258C1281.2 752.36 1280.93 752.674 1280.88 753.045L1279.07 762.203C1279.03 762.573 1279.12 762.932 1279.43 763.201L1286.43 769.251C1286.74 769.519 1287.11 769.564 1287.47 769.462L1296.27 766.354C1296.55 766.185 1296.83 765.871 1296.95 765.567Z" fill="white"/>
<path d="M330.138 388.772L326.844 386.285C326.706 386.194 326.544 386.163 326.377 386.235L322.619 387.849C322.452 387.921 322.363 388.059 322.333 388.222L321.869 392.323C321.84 392.486 321.913 392.655 322.05 392.746L325.345 395.233C325.483 395.324 325.644 395.355 325.811 395.283L329.57 393.669C329.737 393.597 329.826 393.459 329.855 393.296L330.319 389.194C330.307 389.05 330.234 388.881 330.138 388.772Z" fill="white"/>
<path d="M1391.61 527.831L1386.02 523.607C1385.79 523.453 1385.51 523.401 1385.23 523.523L1378.85 526.264C1378.56 526.386 1378.41 526.62 1378.36 526.896L1377.57 533.861C1377.52 534.137 1377.65 534.424 1377.88 534.578L1383.47 538.802C1383.71 538.956 1383.98 539.008 1384.27 538.886L1390.65 536.145C1390.93 536.023 1391.08 535.788 1391.13 535.512L1391.92 528.548C1391.9 528.302 1391.78 528.015 1391.61 527.831Z" fill="white"/>
<path d="M1138.89 817.95L1131.85 812.637C1131.55 812.443 1131.21 812.377 1130.85 812.53L1122.82 815.979C1122.47 816.132 1122.28 816.428 1122.21 816.775L1121.22 825.537C1121.16 825.884 1121.31 826.245 1121.61 826.439L1128.65 831.753C1128.94 831.947 1129.29 832.012 1129.64 831.859L1137.67 828.411C1138.03 828.257 1138.22 827.962 1138.28 827.615L1139.27 818.852C1139.25 818.543 1139.09 818.183 1138.89 817.95Z" fill="white"/>
<path d="M1293.85 169.564L1288.93 165.847C1288.72 165.711 1288.48 165.665 1288.23 165.773L1282.61 168.185C1282.36 168.292 1282.23 168.499 1282.19 168.742L1281.49 174.872C1281.45 175.115 1281.56 175.367 1281.77 175.503L1286.69 179.22C1286.89 179.356 1287.14 179.402 1287.39 179.294L1293 176.882C1293.25 176.775 1293.39 176.568 1293.43 176.325L1294.12 170.195C1294.1 169.979 1294 169.727 1293.85 169.564Z" fill="white"/>
<path d="M526.675 198.588L523.003 195.815C522.849 195.714 522.669 195.68 522.483 195.76L518.293 197.559C518.107 197.639 518.007 197.793 517.975 197.975L517.457 202.547C517.425 202.728 517.506 202.916 517.659 203.018L521.332 205.79C521.485 205.892 521.666 205.926 521.852 205.846L526.042 204.046C526.228 203.966 526.327 203.812 526.359 203.631L526.877 199.059C526.863 198.897 526.782 198.709 526.675 198.588Z" fill="white"/>
<path d="M138.082 558.505L132.01 553.92C131.756 553.753 131.458 553.696 131.15 553.829L124.223 556.804C123.915 556.936 123.751 557.191 123.697 557.491L122.842 565.05C122.788 565.35 122.922 565.661 123.176 565.829L129.247 570.413C129.502 570.58 129.799 570.637 130.107 570.505L137.035 567.529C137.343 567.397 137.507 567.142 137.56 566.843L138.416 559.283C138.393 559.017 138.259 558.705 138.082 558.505Z" fill="white"/>
<path d="M841.026 210.779L836.519 207.376C836.33 207.252 836.109 207.21 835.88 207.308L830.738 209.517C830.509 209.615 830.387 209.804 830.348 210.027L829.712 215.639C829.672 215.861 829.772 216.092 829.96 216.217L834.468 219.62C834.657 219.744 834.878 219.786 835.106 219.688L840.249 217.479C840.477 217.381 840.599 217.192 840.639 216.969L841.274 211.357C841.257 211.159 841.158 210.928 841.026 210.779Z" fill="white"/>
<path d="M82.9112 357.874L75.0615 351.947C74.7328 351.73 74.3478 351.657 73.9498 351.828L64.9936 355.675C64.5956 355.846 64.3835 356.175 64.3142 356.563L63.2077 366.336C63.1384 366.724 63.3113 367.126 63.64 367.343L71.4896 373.269C71.8183 373.486 72.2033 373.559 72.6014 373.388L81.5575 369.541C81.9555 369.37 82.1676 369.041 82.237 368.654L83.3434 358.88C83.3133 358.535 83.1404 358.133 82.9112 357.874Z" fill="white"/>
<path d="M1098.03 262.849L1092.57 258.729C1092.34 258.579 1092.08 258.528 1091.8 258.647L1085.57 261.321C1085.3 261.44 1085.15 261.669 1085.1 261.938L1084.33 268.732C1084.28 269.002 1084.4 269.281 1084.63 269.432L1090.09 273.552C1090.32 273.703 1090.59 273.753 1090.86 273.634L1097.09 270.96C1097.37 270.842 1097.51 270.613 1097.56 270.343L1098.33 263.549C1098.31 263.309 1098.19 263.029 1098.03 262.849Z" fill="white"/>
<path d="M1449.81 334.081L1444 329.688C1443.75 329.528 1443.47 329.474 1443.17 329.601L1436.53 332.451C1436.24 332.578 1436.08 332.822 1436.03 333.109L1435.21 340.352C1435.16 340.639 1435.29 340.937 1435.53 341.098L1441.35 345.49C1441.59 345.65 1441.88 345.704 1442.17 345.578L1448.81 342.727C1449.1 342.6 1449.26 342.356 1449.31 342.069L1450.13 334.826C1450.11 334.571 1449.98 334.273 1449.81 334.081Z" fill="white"/>
<path d="M52.0234 698.248L43.3781 691.72C43.0161 691.482 42.5921 691.401 42.1537 691.59L32.2898 695.826C31.8514 696.014 31.6178 696.377 31.5414 696.804L30.3228 707.568C30.2464 707.995 30.4368 708.438 30.7989 708.676L39.4442 715.204C39.8062 715.442 40.2302 715.523 40.6686 715.335L50.5325 711.098C50.9709 710.91 51.2044 710.547 51.2808 710.12L52.4994 699.356C52.4662 698.977 52.2758 698.533 52.0234 698.248Z" fill="white"/>
<path d="M1274.04 402.783L1278.08 392.088C1278.21 391.651 1278.17 391.197 1277.85 390.81L1270.62 382.084C1270.3 381.696 1269.87 381.568 1269.41 381.617L1258.15 383.587C1257.7 383.637 1257.3 383.961 1257.17 384.399L1253.13 395.094C1253 395.531 1253.04 395.985 1253.37 396.372L1260.59 405.098C1260.91 405.486 1261.35 405.614 1261.8 405.565L1273.06 403.595C1273.44 403.449 1273.83 403.124 1274.04 402.783Z" fill="white"/>
<path d="M270.886 248.624L273.286 236.056C273.35 235.548 273.214 235.057 272.785 234.69L263.146 226.453C262.717 226.087 262.211 226.029 261.719 226.171L249.679 230.502C249.187 230.644 248.817 231.077 248.754 231.585L246.354 244.153C246.29 244.661 246.426 245.152 246.855 245.518L256.494 253.755C256.923 254.122 257.429 254.179 257.921 254.038L269.961 249.707C270.345 249.473 270.716 249.04 270.886 248.624Z" fill="white"/>
</g>
<g opacity="0.3">
<path d="M629.01 294.182L621.361 288.407C621.041 288.196 620.666 288.125 620.278 288.291L611.551 292.039C611.164 292.206 610.957 292.527 610.889 292.904L609.811 302.428C609.744 302.805 609.912 303.197 610.232 303.408L617.881 309.183C618.201 309.394 618.576 309.465 618.964 309.299L627.691 305.551C628.079 305.384 628.285 305.063 628.353 304.686L629.431 295.162C629.402 294.827 629.233 294.434 629.01 294.182Z" fill="white"/>
<path d="M1422.38 825.019L1416.95 820.917C1416.72 820.767 1416.46 820.716 1416.18 820.834L1409.98 823.497C1409.71 823.615 1409.56 823.843 1409.51 824.111L1408.74 830.876C1408.7 831.144 1408.82 831.423 1409.04 831.573L1414.48 835.675C1414.7 835.825 1414.97 835.875 1415.25 835.757L1421.45 833.095C1421.72 832.976 1421.87 832.748 1421.92 832.48L1422.68 825.715C1422.66 825.477 1422.54 825.198 1422.38 825.019Z" fill="white"/>
<path d="M1335.13 606.509L1330.62 603.103C1330.43 602.979 1330.21 602.937 1329.98 603.035L1324.83 605.245C1324.6 605.344 1324.48 605.533 1324.44 605.756L1323.81 611.371C1323.77 611.594 1323.86 611.825 1324.05 611.95L1328.56 615.355C1328.75 615.479 1328.97 615.521 1329.2 615.423L1334.35 613.213C1334.58 613.115 1334.7 612.925 1334.74 612.703L1335.38 607.087C1335.36 606.889 1335.26 606.658 1335.13 606.509Z" fill="white"/>
<path d="M1296.95 767.584L1298.76 758.426C1298.8 758.055 1298.71 757.697 1298.4 757.428L1291.4 751.378C1291.09 751.109 1290.72 751.065 1290.36 751.166L1281.56 754.275C1281.2 754.376 1280.93 754.691 1280.88 755.061L1279.07 764.219C1279.03 764.59 1279.12 764.949 1279.43 765.218L1286.43 771.267C1286.74 771.536 1287.11 771.58 1287.47 771.479L1296.27 768.37C1296.55 768.202 1296.83 767.887 1296.95 767.584Z" fill="white"/>
<path d="M330.138 390.788L326.844 388.3C326.706 388.21 326.544 388.179 326.377 388.251L322.619 389.865C322.452 389.937 322.363 390.075 322.333 390.237L321.869 394.339C321.84 394.502 321.913 394.671 322.05 394.761L325.345 397.249C325.483 397.34 325.644 397.37 325.811 397.298L329.57 395.684C329.737 395.612 329.826 395.474 329.855 395.312L330.319 391.21C330.307 391.065 330.234 390.896 330.138 390.788Z" fill="white"/>
<path d="M1391.61 529.846L1386.02 525.623C1385.79 525.469 1385.51 525.417 1385.23 525.538L1378.85 528.279C1378.56 528.401 1378.41 528.636 1378.36 528.912L1377.57 535.877C1377.52 536.153 1377.65 536.44 1377.88 536.594L1383.47 540.817C1383.71 540.971 1383.98 541.024 1384.27 540.902L1390.65 538.161C1390.93 538.039 1391.08 537.804 1391.13 537.528L1391.92 530.563C1391.9 530.318 1391.78 530.031 1391.61 529.846Z" fill="white"/>
<path d="M1138.89 819.966L1131.85 814.652C1131.55 814.458 1131.21 814.393 1130.85 814.546L1122.82 817.994C1122.47 818.148 1122.28 818.443 1122.21 818.79L1121.22 827.553C1121.16 827.9 1121.31 828.261 1121.61 828.455L1128.65 833.768C1128.94 833.963 1129.29 834.028 1129.64 833.875L1137.67 830.426C1138.03 830.273 1138.22 829.978 1138.28 829.63L1139.27 820.868C1139.25 820.559 1139.09 820.198 1138.89 819.966Z" fill="white"/>
<path d="M1293.85 171.58L1288.93 167.863C1288.72 167.727 1288.48 167.681 1288.23 167.788L1282.61 170.201C1282.36 170.308 1282.23 170.515 1282.19 170.758L1281.49 176.887C1281.45 177.13 1281.56 177.383 1281.77 177.519L1286.69 181.236C1286.89 181.372 1287.14 181.417 1287.39 181.31L1293 178.898C1293.25 178.79 1293.39 178.584 1293.43 178.341L1294.12 172.211C1294.1 171.995 1294 171.742 1293.85 171.58Z" fill="white"/>
<path d="M526.675 200.604L523.003 197.831C522.849 197.73 522.669 197.695 522.483 197.775L518.293 199.575C518.107 199.655 518.007 199.809 517.975 199.99L517.457 204.562C517.425 204.744 517.506 204.932 517.659 205.033L521.332 207.806C521.485 207.907 521.666 207.941 521.852 207.861L526.042 206.062C526.228 205.982 526.327 205.828 526.359 205.647L526.877 201.074C526.863 200.913 526.782 200.725 526.675 200.604Z" fill="white"/>
<path d="M138.082 560.52L132.01 555.936C131.756 555.769 131.458 555.712 131.15 555.844L124.223 558.82C123.915 558.952 123.751 559.207 123.697 559.506L122.842 567.066C122.788 567.365 122.922 567.677 123.176 567.844L129.247 572.429C129.502 572.596 129.799 572.652 130.107 572.52L137.035 569.545C137.343 569.413 137.507 569.158 137.56 568.858L138.416 561.299C138.393 561.032 138.259 560.721 138.082 560.52Z" fill="white"/>
<path d="M841.026 212.795L836.519 209.392C836.33 209.268 836.109 209.226 835.88 209.324L830.738 211.532C830.509 211.631 830.387 211.82 830.348 212.042L829.712 217.654C829.672 217.877 829.772 218.108 829.96 218.232L834.468 221.635C834.657 221.76 834.878 221.802 835.106 221.704L840.249 219.495C840.477 219.397 840.599 219.207 840.639 218.985L841.274 213.373C841.257 213.175 841.158 212.944 841.026 212.795Z" fill="white"/>
<path d="M82.9112 359.889L75.0615 353.962C74.7328 353.746 74.3478 353.673 73.9498 353.844L64.9936 357.69C64.5956 357.861 64.3835 358.191 64.3142 358.578L63.2077 368.352C63.1384 368.739 63.3113 369.142 63.64 369.358L71.4896 375.285C71.8183 375.502 72.2033 375.575 72.6014 375.404L81.5575 371.557C81.9555 371.386 82.1676 371.057 82.237 370.669L83.3434 360.896C83.3133 360.551 83.1404 360.148 82.9112 359.889Z" fill="white"/>
<path d="M1098.03 264.865L1092.57 260.745C1092.34 260.594 1092.08 260.543 1091.8 260.662L1085.57 263.336C1085.3 263.455 1085.15 263.684 1085.1 263.954L1084.33 270.748C1084.28 271.017 1084.4 271.297 1084.63 271.447L1090.09 275.568C1090.32 275.718 1090.59 275.769 1090.86 275.65L1097.09 272.976C1097.37 272.857 1097.51 272.628 1097.56 272.359L1098.33 265.565C1098.31 265.325 1098.19 265.045 1098.03 264.865Z" fill="white"/>
<path d="M1449.81 336.096L1444 331.704C1443.75 331.544 1443.47 331.49 1443.17 331.616L1436.53 334.467C1436.24 334.593 1436.08 334.838 1436.03 335.125L1435.21 342.367C1435.16 342.655 1435.29 342.953 1435.53 343.113L1441.35 347.505C1441.59 347.666 1441.88 347.72 1442.17 347.593L1448.81 344.743C1449.1 344.616 1449.26 344.372 1449.31 344.085L1450.13 336.842C1450.11 336.587 1449.98 336.288 1449.81 336.096Z" fill="white"/>
<path d="M52.0234 700.263L43.3781 693.736C43.0161 693.497 42.5921 693.417 42.1537 693.605L32.2898 697.842C31.8514 698.03 31.6178 698.393 31.5414 698.819L30.3228 709.584C30.2464 710.01 30.4368 710.454 30.7989 710.692L39.4442 717.22C39.8062 717.458 40.2302 717.538 40.6686 717.35L50.5325 713.114C50.9709 712.925 51.2044 712.563 51.2808 712.136L52.4994 701.372C52.4662 700.992 52.2758 700.549 52.0234 700.263Z" fill="white"/>
<path d="M1274.04 404.799L1278.08 394.104C1278.21 393.666 1278.17 393.213 1277.85 392.825L1270.62 384.1C1270.3 383.712 1269.87 383.583 1269.41 383.633L1258.15 385.603C1257.7 385.652 1257.3 385.977 1257.17 386.414L1253.13 397.11C1253 397.547 1253.04 398 1253.37 398.388L1260.59 407.114C1260.91 407.502 1261.35 407.63 1261.8 407.58L1273.06 405.611C1273.44 405.464 1273.83 405.139 1274.04 404.799Z" fill="white"/>
<path d="M270.886 250.639L273.286 238.071C273.35 237.563 273.214 237.072 272.785 236.706L263.146 228.469C262.717 228.103 262.211 228.045 261.719 228.187L249.679 232.518C249.187 232.66 248.817 233.093 248.754 233.601L246.354 246.169C246.29 246.677 246.426 247.168 246.855 247.534L256.494 255.771C256.923 256.137 257.429 256.195 257.921 256.053L269.961 251.722C270.345 251.489 270.716 251.056 270.886 250.639Z" fill="white"/>
</g>
<path fill-rule="evenodd" clip-rule="evenodd" d="M66.7409 86.6375L1085.05 188.639L1118.63 168.865L1322.37 407.385L1337.39 416.332L1357.07 444.125L1371.81 444.261L1348.07 659.652L1367.7 688.358L1395.53 768.485L1330.79 1136.03L1303.78 1145.23L1192.51 1735.45L2057.24 1738.18L2095.44 -104.503L-252.743 -123.005L66.7409 86.6375ZM1459.67 1014.08L1483.71 756.013L1517.66 884.896L1459.67 1014.08Z" fill="url(#paint3_linear_152_2588)"/>
<path opacity="0.53" fill-rule="evenodd" clip-rule="evenodd" d="M154.497 87.5179L638.291 58.0483L1165.17 102.046L1156.25 184.118L1189.83 164.39L1202.93 133.474L1567.63 95.2435L1697.81 159.013L1697.53 190.046L1428.22 439.65L1442.96 439.785L1654.14 254.55L1676.12 265.34L1688.09 418.439L1681.27 455.574L1544.92 715.116L1419.22 655.131L1438.9 683.837L1455.51 677.919L1528.29 722.631L1534.63 837.796L1502.51 877.164L1441.41 907.639L1439.24 919.805L1453.21 904.689L1507.55 880.177L1515.31 884.447L1519.68 1009.45L1436.96 1118.41L1401.94 1131.51L1374.98 1140.71L1440.07 1133.5L1497.99 1165.76L1527.29 1398.61L1466.91 1733.75L1491.49 1730.74L1553.08 1363.02L1661.13 994.64L1588.85 880.376L1645.76 864.65L1589.54 805.941L1601.45 736.174L2178.93 207.52L2191.29 -145.31L-199.795 -127.693L137.938 82.117L154.497 87.5179Z" fill="url(#paint4_linear_152_2588)"/>
<path opacity="0.53" fill-rule="evenodd" clip-rule="evenodd" d="M1471.94 1735.22L1615.11 1457.62L1757.46 1000.69L1754.77 1294.55L1603.93 1482.85L1529.53 1733.61L1471.94 1735.22Z" fill="#2C002A"/>
<path opacity="0.53" fill-rule="evenodd" clip-rule="evenodd" d="M1365.77 1122.93L1368.87 1138.02L1405.14 1158.21L1439.42 1270.66L1443.07 1490.05L1467.76 1474.66L1481.88 1367.54L1577.99 1037.7L1517.66 884.889L1459.66 1014.07L1483.7 755.96L1530.25 740.687L1618.44 557.562L1593.31 492.018L1489.61 689.423L1448.88 707.762L1386.59 678.071L1384.32 682.432L1434.78 712.471L1457.79 765.352L1463.43 842.31L1431.31 881.677L1398.59 901.687L1426.26 889.755L1447.47 910.397L1448.57 1004.61L1428.92 1037.89L1365.77 1122.93Z" fill="#2C002A"/>
<path opacity="0.53" fill-rule="evenodd" clip-rule="evenodd" d="M1610.07 460.087L1616.89 422.952L1600.6 288.435L1544.07 293.119L1439.15 385.172L1427.94 378.451L1626.33 194.559L1566.43 134.036L1496.43 99.7561L1188.96 131.986L1211.33 56.6092L1766.08 61.7026L1763.58 334.386L1740.94 344.995L1651.6 488.674L1610.07 460.087Z" fill="#090D4C"/>
<path opacity="0.53" fill-rule="evenodd" clip-rule="evenodd" d="M1635.61 839.971L1602.2 954.589L1517.66 884.894L1512.67 866.044L1559.03 856.611L1635.61 839.971Z" fill="#2C002A"/>
<path opacity="0.53" fill-rule="evenodd" clip-rule="evenodd" d="M567.1 62.5616L568.623 50.7093L1155.17 56.0944L1093.98 106.558L567.1 62.5616Z" fill="#090D4C"/>
<path opacity="0.84" fill-rule="evenodd" clip-rule="evenodd" d="M1322.37 407.426L1380.5 397.279L1445.38 347.807L1626.34 194.562L1496.44 99.7592L1162.75 134.715L1141.42 162.406L1165.99 224.338L1322.37 407.426Z" fill="#0054A5"/>
<path opacity="0.53" fill-rule="evenodd" clip-rule="evenodd" d="M1459.67 1014.07L1508.93 1274.77L1481.88 1367.54L1456.1 1403.13L1426.79 1170.28L1368.87 1138.02L1365.77 1122.93L1448.57 1004.62L1459.67 1014.07Z" fill="#2C002A"/>
<path fill-rule="evenodd" clip-rule="evenodd" d="M1166.42 224.676L1200.92 229.237L1393.04 231.001L1437.36 214.201L1503.37 146.483L1496.86 100.097L1477.9 102.068L1494.28 132.296L1501.12 143.13L1443.24 205.173L1360.24 220.431L1319.88 227.91L1199.76 226.123L1157.79 214.601L1166.42 224.676Z" fill="#090D4C"/>
<path fill-rule="evenodd" clip-rule="evenodd" d="M1544.5 585.005L1520.32 594.459L1402.51 579.319L1388.29 552.717L1365.79 498.654L1366.63 491.085L1394.81 553.005L1454.81 578.659L1518.07 590.695L1544.53 581.993L1551.74 571.151L1544.5 585.005Z" fill="#090D4C"/>
<path opacity="0.84" fill-rule="evenodd" clip-rule="evenodd" d="M1085.05 188.636L1082.9 139.918L594.543 64.8282L83.3029 92.0371L1085.05 188.636Z" fill="#0054A5"/>
<path opacity="0.84" fill-rule="evenodd" clip-rule="evenodd" d="M1348.02 659.649L1375.1 672.586L1402.51 579.319L1365.79 498.653L1348.02 659.649Z" fill="#0054A5"/>
<path opacity="0.84" fill-rule="evenodd" clip-rule="evenodd" d="M1394.82 553.002L1428.91 437.523L1429.31 393.803L1371.77 444.301L1366.64 491.082L1394.82 553.002Z" fill="#0054A5"/>
<path opacity="0.84" fill-rule="evenodd" clip-rule="evenodd" d="M1395.49 768.484L1457.8 765.359L1434.78 712.478L1384.32 682.439L1367.7 688.357L1395.49 768.484Z" fill="#0054A5"/>
<path opacity="0.84" fill-rule="evenodd" clip-rule="evenodd" d="M1518.34 810.457L1495.78 802.263L1517.66 884.892L1574.56 869.166L1518.34 810.457Z" fill="#0054A5"/>
<path opacity="0.53" fill-rule="evenodd" clip-rule="evenodd" d="M1392.61 230.658L1461.64 221.479L1509.19 165.777L1502.94 146.139L1436.93 213.858L1392.61 230.658Z" fill="#2C002A"/>
<path opacity="0.53" fill-rule="evenodd" clip-rule="evenodd" d="M1461.64 221.483L1442.82 204.834L1392.62 230.662L1461.64 221.483Z" fill="black"/>
<path opacity="0.53" fill-rule="evenodd" clip-rule="evenodd" d="M1402.51 579.316L1472.92 598.584L1507.98 601.371L1520.32 594.455L1402.51 579.316Z" fill="#2C002A"/>
<path fill-rule="evenodd" clip-rule="evenodd" d="M1454.81 578.657L1411.48 496.881L1380.77 522.158L1394.81 553.004L1454.81 578.657Z" fill="#00286E"/>
<path fill-rule="evenodd" clip-rule="evenodd" d="M993.787 179.852L754.76 78.2051L754.905 52.4193L734.192 52.2291L732.92 76.4072L984.493 178.351L993.787 179.852Z" fill="#0054A5"/>
<path fill-rule="evenodd" clip-rule="evenodd" d="M879.543 168.805L492.15 70.269L493.841 50.0201L480.063 49.8936L472.885 71.3245L855.29 166.482L879.543 168.805Z" fill="#0054A5"/>
<path fill-rule="evenodd" clip-rule="evenodd" d="M1432.01 357.995L1207.88 273.418L1199.8 263.942L1391.68 332.887L1435.33 339.495L1508.06 290.003L1178.09 238.503L1165.99 224.335L1409.37 259.704L1542.23 265.762L1432.01 357.995Z" fill="#3171D3"/>
<path opacity="0.84" fill-rule="evenodd" clip-rule="evenodd" d="M1426.26 889.757L1444.11 938.894L1448.57 1004.61L1365.77 1122.93L1330.74 1136.03L1368.04 924.321L1382.01 909.205L1426.26 889.757Z" fill="#0054A5"/>
<path opacity="0.84" fill-rule="evenodd" clip-rule="evenodd" d="M1405.14 1158.2L1250.12 1444.46L1303.78 1145.22L1368.87 1138.02L1405.14 1158.2Z" fill="url(#paint5_linear_152_2588)"/>
<path opacity="0.84" fill-rule="evenodd" clip-rule="evenodd" d="M1370.21 912.16L1431.31 881.685L1463.43 842.317L1457.79 765.36L1395.48 768.485L1370.21 912.16Z" fill="#00286E"/>
<path fill-rule="evenodd" clip-rule="evenodd" d="M1616.89 422.959L1421.61 462.335L1370.12 459.169L1371.76 444.305L1423.25 456.736L1610.5 413.727L1615.87 410.125L1428.91 437.527L1403.99 417.764L1412.89 408.261L1429 427.168L1613.96 389.386L1616.89 422.959Z" fill="#0054A5"/>
<path fill-rule="evenodd" clip-rule="evenodd" d="M1513.66 643.587L1552.53 694.469L1734.45 748.718L1709.93 771.359L1542.58 715.144L1508.14 654.171L1513.66 643.587Z" fill="#00286E"/>
<path fill-rule="evenodd" clip-rule="evenodd" d="M1431.31 881.682L1372.71 897.758L1370.21 912.157L1431.31 881.682Z" fill="#0054A5"/>
<path opacity="0.84" fill-rule="evenodd" clip-rule="evenodd" d="M1459.97 1014.35L1509.23 1275.05L1578.29 1037.98L1590.24 999.433L1517.96 885.168L1459.97 1014.35Z" fill="#090D4C"/>
<path opacity="0.2" fill-rule="evenodd" clip-rule="evenodd" d="M1131.74 137.992L1211.33 56.6154L1499.27 59.259L1496.43 99.7619L1131.74 137.992Z" fill="#2C2942"/>
<path fill-rule="evenodd" clip-rule="evenodd" d="M1278.71 172.47L1258.09 182.276L1215.25 186.264L1278.71 172.47Z" fill="#00286E"/>
<path fill-rule="evenodd" clip-rule="evenodd" d="M1285.05 212.467L1278.38 209.028L1265.24 198.41L1291.51 209.651L1285.05 212.467Z" fill="#0054A5"/>
<path fill-rule="evenodd" clip-rule="evenodd" d="M1439.85 298.931L1430.18 298.842L1422.44 292.29L1439.85 298.931Z" fill="#A16056"/>
<path fill-rule="evenodd" clip-rule="evenodd" d="M1408.33 472.519L1390.25 488.145L1376.14 479.389L1408.33 472.519Z" fill="#0054A5"/>
<path fill-rule="evenodd" clip-rule="evenodd" d="M1391.12 596.88L1386.75 605.648L1375.38 606.594L1391.12 596.88Z" fill="#00286E"/>
<path fill-rule="evenodd" clip-rule="evenodd" d="M1381.41 611.801L1383.16 614.784L1377.33 619.066L1381.41 611.801Z" fill="#00286E"/>
<path fill-rule="evenodd" clip-rule="evenodd" d="M1447.67 565.222L1425.08 506.228L1411.48 496.884L1447.67 565.222Z" fill="#090D4C"/>
<path opacity="0.84" fill-rule="evenodd" clip-rule="evenodd" d="M1380.5 397.278L1313.4 325.598L1165.99 224.337L1322.37 407.424L1380.5 397.278Z" fill="#3171D3"/>
<path opacity="0.53" fill-rule="evenodd" clip-rule="evenodd" d="M1502.94 146.146L1319.46 227.573L1442.81 204.836L1502.94 146.146Z" fill="#00286E"/>
<path opacity="0.43" fill-rule="evenodd" clip-rule="evenodd" d="M1192.73 1737.91L2106.14 1741.14L2107.98 -117.082L-279.769 -129.877L1162.97 137.226L1443.03 207.346L1461.91 223.996L1605.72 214.773L1479.07 337.891L1429.57 396.314L1429.27 429.675L1411.7 499.39L1425.3 508.689L1455.03 581.121L1402.77 581.782L1375.36 675.049L1473.99 722.098L1437 725.181L1458.06 767.867L1463.69 844.869L1431.58 884.191L1444.42 891.475L1444.42 941.406L1448.88 1007.12L1366.08 1125.44L1369.13 1140.53L1405.4 1160.72L1250.43 1446.97L1192.73 1737.91ZM1483.92 758.474L1530.51 743.201L1518.56 812.968L1574.78 871.676L1627.97 848.888L1606.57 942.94L1627.06 947.191L1596.77 976.67L1580.8 1031.57L1459.93 1016.63L1483.92 758.474Z" fill="url(#paint6_linear_152_2588)"/>
<path opacity="0.5" fill-rule="evenodd" clip-rule="evenodd" d="M1605.91 454.286L1599.09 491.421L1493.45 716.878L1519.32 772.022L1507.32 841.788L1573.77 904.151L1562.63 945.354L1596.6 967.482L1615.82 975.966L1587.41 999.119L1473.92 1388.54L1409.31 1766.58L2067.54 1772.81L2109.2 -118.592L1753.33 285.991L1605.91 454.286Z" fill="url(#paint7_linear_152_2588)"/>
<path opacity="0.4" fill-rule="evenodd" clip-rule="evenodd" d="M1492.99 698.315L1493.61 695.856L1486.13 700.26L1488.45 700.966L1492.99 698.315Z" fill="#150155"/>
<path fill-rule="evenodd" clip-rule="evenodd" d="M-0.78808 775.136L20.9734 806.453L43.9058 649.666L59.2075 617.522L134.162 125.779L225.972 79.8835H264.731L372.852 190.068L380.503 192.108L417.465 281.354L448.836 298.719L454.952 293.105L476.371 257.387V236.488L497.789 172.724L490.138 165.576L497.789 166.081L611.664 27.3655L813.473 -1.20545L-0.78808 -1.20545L-0.78808 775.136Z" fill="url(#paint8_linear_152_2588)"/>
<path fill-rule="evenodd" clip-rule="evenodd" d="M59.2081 617.522L107.818 298.719L96.6953 331.732L100.712 327.532L99.7435 336.719L92.4762 378.031L72.592 422.795L64.1741 437.333L82.6654 363.493L91.7091 339.768L76.791 371.024L68.1307 397.152L91.4668 248.462L107.818 215.066L125.038 172.966V185.687L130.67 148.757L121.344 172.078L122.696 172.966L103.821 218.114L93.3241 238.124L94.071 234.066L73.9244 300.233L71.4414 308.411L77.5581 298.719L79.4758 296.74L66.6975 342.252L28.6047 433.376L8.19568 462.209L13.303 398.182L2.07903 472.527L-0.787479 509.901L10.7594 467.519L45.4406 433.376L52.7685 441.149L45.6021 477.171L8.19568 651.201L33.6716 569.062L42.3722 542.531L34.2167 602.742V644.841L59.2081 617.522Z" fill="url(#paint9_linear_152_2588)"/>
<path fill-rule="evenodd" clip-rule="evenodd" d="M448.836 298.723L417.465 281.358L380.503 192.112L370.349 190.214L287.663 103.835L320.568 133.698L335.365 140.846L342.228 158.877L349.899 161.239L369.017 165.58L345.822 133.96L319.558 107.489L351.716 128.65L350.142 125.238L349.395 117.888L374.891 141.35L366.473 140.078L391.182 158.473V154.616L383.551 125.238L378.302 66.3997L397.319 139.695L408.159 146.883L415.305 166.085L403.819 -1.20138L427.538 120.937L430.99 185.125H436.724L453.176 172.728L454.952 168.387L490.138 165.58L497.789 172.728L476.371 236.493V257.391L454.952 293.109L448.836 298.723Z" fill="url(#paint10_linear_152_2588)"/>
<path opacity="0.6" fill-rule="evenodd" clip-rule="evenodd" d="M69.0391 552.969L59.208 617.521L34.2166 644.84L34.2166 598.905L51.6379 475.716V503.56L78.5874 311.116L34.2166 534.575L8.19558 651.2L2.07893 655.279L2.07893 472.526L13.3029 398.181L64.2951 225.524L83.6746 207.594L96.4327 192.107L82.6653 297.183L105.093 172.966L111.734 163.536L134.162 125.778L82.6653 172.966L50.0229 230.713L24.7892 335.164L10.2546 359.918L15.6042 172.966L68.1306 -1.20608H37.4061L22.488 65.4661L19.036 96.0764L30.5223 56.6627L43.1392 36.0068L-0.787578 172.966L-0.464641 699.397L37.6282 692.613L43.9063 649.666L63.2858 615.987L69.0391 552.969Z" fill="url(#paint11_linear_152_2588)"/>
<path opacity="0.6" fill-rule="evenodd" clip-rule="evenodd" d="M264.732 79.8876L261.542 67.7727L242.041 48.6311L207.986 -1.20138H214.87L307.064 94.9302L406.343 169.921L408.16 162.652L406.343 143.894L415.306 166.085L419.505 109.468L403.82 -1.20138H425.238L430.991 193.586L447.302 278.188L437.491 259.046L436.724 270.152L454.953 293.109L448.836 298.723L417.466 281.358L380.504 192.112L370.35 190.214L264.732 79.8876Z" fill="url(#paint12_linear_152_2588)"/>
<path opacity="0.6" fill-rule="evenodd" clip-rule="evenodd" d="M497.789 172.723L456.123 175.772L451.137 178.337L433.13 204.687L430.99 193.581L453.176 172.723L464.38 96.1978L454.952 110.312L475.361 -2.76054L497.789 -2.53846L473.565 79.8831L454.952 168.382L458.525 168.645L514.12 -3.02304H537.053L470.759 167.615L490.138 165.576L497.789 172.723Z" fill="url(#paint13_linear_152_2588)"/>
<path opacity="0.6" fill-rule="evenodd" clip-rule="evenodd" d="M552.334 -3.02094L592.385 16.8878L611.664 27.3672L813.473 -1.20372L552.334 -3.02094Z" fill="url(#paint14_linear_152_2588)"/>
<path opacity="0.6" fill-rule="evenodd" clip-rule="evenodd" d="M380.504 192.112H403.456L412.803 193.586L436.724 270.152L454.953 293.109L448.836 298.723L417.466 281.358L380.504 192.112Z" fill="url(#paint15_linear_152_2588)"/>
<path fill-rule="evenodd" clip-rule="evenodd" d="M-0.787605 185.121L30.5829 123.315L66.6973 39.0761L64.9411 57.4302L76.0237 39.0761L106.627 -1.20587H121.343L96.4327 45.1941L33.6715 130.887L49.0136 100.842L64.9411 66.1125L4.64263 183.425L-1.99883 200.265L15.261 185.121L82.6652 107.485L121.343 53.8562L114.278 57.6927L82.6652 90.847L155.601 -1.20587H164.261L134.162 34.7349L124.23 52.8467L166.905 29.6265L197.67 -1.20587H201.99L79.5968 118.388L-0.484813 204.687L-0.787605 185.121Z" fill="#00286E"/>
<path opacity="0.6" fill-rule="evenodd" clip-rule="evenodd" d="M264.73 79.8829L261.541 67.768L242.04 48.6264L239.779 24.7601L307.062 94.9255L406.342 169.917L370.348 190.209L264.73 79.8829Z" fill="url(#paint16_linear_152_2588)"/>
<path opacity="0.6" fill-rule="evenodd" clip-rule="evenodd" d="M-0.787352 172.968L43.1394 36.009L68.1309 -1.20386L15.6044 172.968L10.2549 359.921L24.7895 335.166L27.7973 349.098L13.3031 398.183L2.07916 472.528L-0.787352 172.968Z" fill="url(#paint17_linear_152_2588)"/>
<path opacity="0.8" fill-rule="evenodd" clip-rule="evenodd" d="M207.985 -1.20479L217.291 27.3661L185.416 61.5099L121.343 125.779L82.6644 172.967H105.092L134.161 125.779L225.972 79.8841H264.73L261.541 67.7693L207.985 -1.20479Z" fill="url(#paint18_linear_152_2588)"/>
<path opacity="0.8" fill-rule="evenodd" clip-rule="evenodd" d="M406.342 169.917L430.99 193.581L453.176 172.723L454.952 168.382L490.138 165.576L497.789 172.723L456.123 175.772L451.137 178.337L433.13 204.687L412.802 193.581L403.455 192.107H380.503L370.349 190.209L406.342 169.917Z" fill="url(#paint19_linear_152_2588)"/>
<path fill-rule="evenodd" clip-rule="evenodd" d="M68.1307 145.423L82.6654 133.954H88.2773L68.1307 145.423Z" fill="#00286E"/>
<path fill-rule="evenodd" clip-rule="evenodd" d="M378.302 66.394L388.658 39.8422L395.279 32.957L405.776 27.3639L407.129 46.8689L403.435 38.55L391.181 41.6191L378.302 66.394Z" fill="#00286E"/>
<path fill-rule="evenodd" clip-rule="evenodd" d="M369.016 70.1904V49.7769L345.155 12.1804L357.085 41.1753L369.016 70.1904Z" fill="#00286E"/>
<path fill-rule="evenodd" clip-rule="evenodd" d="M1686.75 1246.34L-74.3565 1246.34H-247.388V1001.1L-238.399 1003.34L-151.671 1128.34L-144.823 1132.81L-91.2353 1118.91L-74.3565 1111.15H-63.0911L-47.0033 1129.44L-31.6676 1096.53L-16.6792 1026.72L-9.77336 1018.17L-1.32431 1014.66L34.4972 1025.27L105.041 1088.14L119.663 1090.32L141.943 1066.94L158.031 1066.2L244.161 1117L251.472 1113.6L290.457 1087.77L301.664 1091.17L326.047 1150.14L534.862 1195.22L823.808 1195.22L846.705 1186.69L865.223 1182.31L889.104 1190.11L909.436 1172.55L915.898 1156.48L976.334 1119.45L986.577 1118.46L1009.47 1126.26L1029.46 1115.55L1040.18 1113.1L1148.84 1104.94L1154.21 1110.67L1141.53 1160.86L1196.61 1152.59L1203.44 1155.98L1212.7 1195.22L1226.58 1187.91L1244.85 1195.22L1250.7 1201.06H1314.3L1393.25 1167.44H1402.01L1434.18 1126.51L1446.86 1125.77L1441.49 1182.06L1466.34 1173.29L1491.94 1182.06L1519.72 1210.57L1589.87 1112.62L1652.01 1052.68L1659.32 1051.21L1675.41 1107.5L1664.45 1167.44L1681.62 1163.93L1686.75 1246.34Z" fill="url(#paint20_linear_152_2588)"/>
<path fill-rule="evenodd" clip-rule="evenodd" d="M34.4982 1025.27L65.806 1053.16L73.9657 1065.1L85.8869 1080.83L98.4641 1092.32L82.5498 1081.91L81.4696 1077.14L68.1209 1064.54L54.5985 1065.84L54.5985 1081.73L71.7666 1083.74L78.7111 1083.93L63.1826 1084.84L44.9149 1082.27L44.5484 1095.08L47.654 1105.87L67.7544 1125.23L72.6926 1131.7L75.0652 1150.14L78.3639 1147.71L77.9588 1160.28L98.4641 1205.83L127.611 1246.34H113.838H73.9657L61.9094 1222.27L31.9327 1152.45L9.63343 1122.13L24.2552 1150.14L26.0878 1167.56L16.2113 1144.04L-9.8881 1128.34H-26.5354L-15.9452 1150.14L34.1318 1199.62L51.2613 1235.4L-36.6242 1130.5L-47.0023 1129.44L-31.6666 1096.53L-16.6782 1026.72L-9.77236 1018.17L-1.32331 1014.66L34.4982 1025.27Z" fill="url(#paint21_linear_152_2588)"/>
<path fill-rule="evenodd" clip-rule="evenodd" d="M362.841 1247.61L326.633 1204.13L287.185 1156.77V1163L294.708 1181.23L270.827 1145.31L258.173 1138.83L244.747 1118.26L252.058 1114.87L291.043 1089.04L302.251 1092.43L326.633 1151.41L367.914 1198.84L357.478 1189.25L321.425 1163H326.633L338.69 1168.32L314.635 1140.62L295.673 1127.04L315.271 1156.77L319.438 1163L312.127 1156.77L304.45 1153.55L314.635 1166.34L344.65 1220.62L362.841 1247.61Z" fill="url(#paint22_linear_152_2588)"/>
<path fill-rule="evenodd" clip-rule="evenodd" d="M158.031 1066.2L184.227 1085.09L189.589 1091.42L200.797 1099.71L183.976 1093.77L187.641 1092.69L178.131 1087.77L151.279 1082.95L152.88 1093.77L162.41 1101.83L169.913 1118.91L173.945 1128.34L149.254 1097.99L135.924 1091.78L119.663 1090.32L141.943 1066.94L158.031 1066.2Z" fill="url(#paint23_linear_152_2588)"/>
<path fill-rule="evenodd" clip-rule="evenodd" d="M326.048 1150.14L373.964 1205.21L405.465 1220.32L425.218 1220.72L479.654 1221.8L516.942 1222.26L512.968 1215.96L433.243 1209.8L402.07 1196.32L392.386 1190.16L387.93 1187.33L427.398 1196.32L531.525 1210.28L487.833 1199.62L443.486 1195.41L466.151 1199.62L465.399 1201.41L430.503 1195.85L405.465 1189.37L396.071 1181.97L437.004 1193.39L440.92 1194.22L380.446 1172.55L355.581 1163.06L367.328 1162.5L393.717 1164.76L326.048 1150.14Z" fill="url(#paint24_linear_152_2588)"/>
<path fill-rule="evenodd" clip-rule="evenodd" d="M1040.18 1113.1L1029.46 1115.55L956.003 1150.14L1006.06 1131.62H1014.36L1040.18 1135.51L1030.93 1145.87L1025.56 1142.34L1005.1 1152.59L1035.42 1148.77L1096.88 1126.76H1124.06L1120.1 1132.83L1128.86 1150.14L1095.16 1174.75L1092.17 1198.04L1074.77 1199.52L1022.63 1209.24L989.741 1210.32L985.112 1219.35H1006.06L1035.42 1211.1L1110.9 1199.52L1128.86 1197.73V1191.61L1166.34 1157.14L1141.53 1160.86L1154.21 1110.67L1148.85 1104.94L1040.18 1113.1Z" fill="#00286E"/>
<path opacity="0.6" fill-rule="evenodd" clip-rule="evenodd" d="M291.807 1162.33L265.861 1128.34L268.774 1115.91L289.897 1091.16H301.664L290.456 1087.77L251.471 1113.6L244.16 1116.99L261.83 1144.04L264.357 1146.86L262.563 1152.82L258.917 1159.39L201.896 1162.69L197.131 1155.5L149.253 1097.99L139.396 1077.14L141.942 1066.93L119.662 1090.31L105.04 1088.14L145.974 1122.49L142.675 1130.5L129.519 1133.82L51.2596 1130.5H42.3284H35.9626L28.6517 1110.42L4.15334 1067.34L-1.32497 1023.8V1043.9V1058.52L-4.91301 1051.58L-8.52024 1022.7L-1.32497 1014.66L-9.77402 1018.17L-16.6799 1026.71L-31.6683 1096.53L-47.0039 1129.44L54.5969 1246.34H113.837L67.7527 1172.53L57.934 1155.5L139.396 1174.98L152.88 1169.64L166.441 1155.5L222.362 1246.34H231.487L209.207 1197.78L206.641 1171.47H217.251L262.563 1162.69L265.649 1148.28L353.824 1246.34H362.254L325.429 1198.15L291.807 1162.33Z" fill="url(#paint25_linear_152_2588)"/>
<path opacity="0.6" fill-rule="evenodd" clip-rule="evenodd" d="M1203.44 1155.98L1196.61 1152.59L1168.35 1190.59L1149.04 1193.52L1118.15 1190.59L1141.53 1160.86L1154.21 1110.67L1128.86 1150.14L1092.17 1176.95L1070.39 1182.8L958.8 1190.59L931.62 1187.31L915.899 1173.54L922.727 1165.01L1007.7 1125.66L986.577 1118.46L989.741 1126.76L941.246 1150.14L915.899 1156.48L909.436 1172.55L889.105 1190.11L865.224 1182.31L870.335 1190.59L845.008 1194.99L823.808 1195.22L864.259 1199.85L1153.73 1197.53L1191.5 1212.04L866.94 1210.09L534.862 1195.22L861.809 1212.04L824.541 1222.26L405.464 1209.11L380.619 1199.62L326.047 1150.14L373.964 1205.21L405.464 1220.32L823.441 1224.46L874.599 1219.35H1202.45L1212.7 1195.22L1203.44 1155.98Z" fill="url(#paint26_linear_152_2588)"/>
<path opacity="0.6" fill-rule="evenodd" clip-rule="evenodd" d="M1244.85 1195.22L1237.54 1201.31L1208.07 1219.35L1226.45 1216.42L1247.53 1209.36L1314.3 1201.06H1250.7L1244.85 1195.22Z" fill="url(#paint27_linear_152_2588)"/>
<path opacity="0.6" fill-rule="evenodd" clip-rule="evenodd" d="M1393.25 1167.44L1396.53 1173.65L1381.17 1209.84L1314.3 1201.06L1333.3 1204.84L1367.9 1208.99L1375.58 1213.49L1362.31 1246.34H1377.41L1402.01 1167.44H1393.25Z" fill="url(#paint28_linear_152_2588)"/>
<path opacity="0.6" fill-rule="evenodd" clip-rule="evenodd" d="M1664.45 1167.44L1675.41 1107.5L1659.32 1051.21L1652.01 1052.68L1664.43 1091.94L1658.22 1108.47L1620.2 1183.53L1550.02 1210.57C1550.02 1210.57 1530.29 1214.95 1527.91 1214.95C1525.54 1214.95 1519.7 1210.57 1519.7 1210.57L1491.92 1182.06L1504.71 1204.36L1488.62 1210.94L1438.18 1214.95L1418.25 1208.55L1430.5 1188.25L1441.46 1182.04L1446.82 1125.75L1434.15 1126.49L1441.21 1130.48L1432.2 1178.4L1426.1 1187.29L1397.84 1246.32H1403.8H1534.14L1536.38 1225.18L1610.34 1195.22H1644.35L1667.36 1202.53L1609.63 1241.27L1573.81 1246.32H1681.62V1163.91L1664.45 1167.44Z" fill="url(#paint29_linear_152_2588)"/>
<path opacity="0.5" fill-rule="evenodd" clip-rule="evenodd" d="M1488.64 1210.94V1246.34H1534.14L1536.38 1225.2L1560.11 1215.59L1550.04 1210.57L1527.93 1214.95L1519.72 1210.57L1491.94 1182.06L1504.73 1204.36L1488.64 1210.94Z" fill="url(#paint30_linear_152_2588)"/>
<path fill-rule="evenodd" clip-rule="evenodd" d="M1405.67 1162.81L1413.52 1155.02L1422.36 1145.6L1425.89 1141.86L1422.36 1148.77L1413.18 1162.81L1409.32 1172.15V1164.53L1405.67 1172.15L1400.54 1184.49L1406.89 1176.95L1409.32 1175.23L1403.72 1188.64L1387.58 1227.94L1415.41 1167.44L1425.89 1154.28L1429.55 1152.59L1431.5 1158.66L1432.24 1178.42L1438.56 1161.85L1443.19 1164.03L1446.86 1125.77L1434.18 1126.51L1405.67 1162.81Z" fill="#00286E"/>
<path opacity="0.5" fill-rule="evenodd" clip-rule="evenodd" d="M1432.24 1178.42L1426.14 1187.31L1397.88 1246.34H1415.05L1418.29 1208.57L1430.52 1188.27L1441.49 1182.06L1446.86 1125.77L1441.24 1130.5L1432.24 1178.42Z" fill="url(#paint31_linear_152_2588)"/>
<path opacity="0.5" fill-rule="evenodd" clip-rule="evenodd" d="M1381.17 1209.84L1367.9 1208.99L1375.58 1213.49L1362.31 1246.34H1377.41L1400.54 1172.15L1396.53 1173.65L1381.17 1209.84Z" fill="url(#paint32_linear_152_2588)"/>
<path opacity="0.5" fill-rule="evenodd" clip-rule="evenodd" d="M1237.54 1201.31L1247.53 1209.36L1226.45 1216.42L1208.07 1219.35L1237.54 1201.31Z" fill="url(#paint33_linear_152_2588)"/>
<path opacity="0.5" fill-rule="evenodd" clip-rule="evenodd" d="M1196.61 1152.59L1168.35 1190.59L1149.04 1193.52L1153.73 1197.53L1191.5 1212.04L1035.42 1211.1L1042.36 1219.35H1202.45L1212.7 1195.22L1203.44 1155.98L1196.61 1152.59Z" fill="url(#paint34_linear_152_2588)"/>
<path opacity="0.5" fill-rule="evenodd" clip-rule="evenodd" d="M1128.86 1150.14L1092.17 1176.95L1070.39 1182.8L1067.58 1198.23L1114.01 1197.86L1118.15 1190.59L1141.53 1160.86L1154.21 1110.67L1128.86 1150.14Z" fill="url(#paint35_linear_152_2588)"/>
<path opacity="0.5" fill-rule="evenodd" clip-rule="evenodd" d="M922.727 1165.01L915.898 1156.49L941.245 1150.14L989.74 1126.76L986.287 1135.88L922.727 1165.01Z" fill="url(#paint36_linear_152_2588)"/>
<path opacity="0.6" fill-rule="evenodd" clip-rule="evenodd" d="M-16.6793 1026.72L-8.51962 1022.7L-4.91239 1051.58L-1.32435 1058.53L4.15396 1067.34L28.6524 1110.42L35.9632 1130.5L102.34 1132.66L139.396 1174.98L57.9346 1155.5L113.837 1246.34H54.5975L-47.0033 1129.44L-31.6677 1096.53L-16.6793 1026.72Z" fill="url(#paint37_linear_152_2588)"/>
<path opacity="0.6" fill-rule="evenodd" clip-rule="evenodd" d="M119.664 1090.32L145.975 1122.49L166.442 1155.5L222.364 1246.34H231.488L209.208 1197.79L206.643 1171.47L201.897 1162.7L149.255 1097.99L139.397 1077.14L119.664 1090.32Z" fill="url(#paint38_linear_152_2588)"/>
<path opacity="0.6" fill-rule="evenodd" clip-rule="evenodd" d="M265.861 1128.34L257.586 1137.56L265.649 1148.29L353.824 1246.34H362.254L325.429 1198.15L265.861 1128.34Z" fill="url(#paint39_linear_152_2588)"/>
<path opacity="0.6" fill-rule="evenodd" clip-rule="evenodd" d="M380.619 1199.62L373.964 1205.21L405.465 1220.32L824.406 1224.46L824.541 1222.27L405.465 1209.11L380.619 1199.62Z" fill="url(#paint40_linear_152_2588)"/>
<path opacity="0.5" fill-rule="evenodd" clip-rule="evenodd" d="M889.104 1190.11L904.941 1199.52L995.219 1198.81L958.799 1190.59L931.619 1187.31L915.898 1173.54L889.104 1190.11Z" fill="url(#paint41_linear_152_2588)"/>
<path opacity="0.5" fill-rule="evenodd" clip-rule="evenodd" d="M861.809 1212.04L834.532 1208.05L835.593 1206.2L866.94 1210.09L968.174 1210.69L964.875 1219.35H874.598L861.809 1212.04Z" fill="url(#paint42_linear_152_2588)"/>
<path fill-rule="evenodd" clip-rule="evenodd" d="M113.837 1246.34L90.2264 1193.75V1179.96L95.8977 1173.29L152.881 1183.16L222.363 1246.34H113.837Z" fill="url(#paint43_linear_152_2588)"/>
<path fill-rule="evenodd" clip-rule="evenodd" d="M253.42 1144.04L228.574 1116.26L204.789 1093.77L244.16 1117L261.83 1144.04H253.42Z" fill="#0054A5"/>
<path fill-rule="evenodd" clip-rule="evenodd" d="M336.193 1152.33L380.618 1199.62L405.464 1209.11L824.54 1222.26L861.809 1212.04L534.861 1195.22L336.193 1152.33Z" fill="url(#paint44_linear_152_2588)"/>
<path fill-rule="evenodd" clip-rule="evenodd" d="M915.898 1173.54L922.726 1165.01L1007.7 1125.66L1029.46 1115.55L1040.18 1113.1L1148.84 1104.94L1154.21 1110.67L1128.86 1150.14L1092.17 1176.95L1070.39 1182.8L964.875 1190.17L931.619 1187.31L915.898 1173.54Z" fill="url(#paint45_linear_152_2588)"/>
<path fill-rule="evenodd" clip-rule="evenodd" d="M1402.01 1167.44L1434.18 1126.51L1441.24 1130.5L1432.24 1178.42L1426.14 1187.31L1397.88 1246.34H1377.41L1402.01 1167.44Z" fill="url(#paint46_linear_152_2588)"/>
<path fill-rule="evenodd" clip-rule="evenodd" d="M402.07 1246.34L433.243 1224.46L842.327 1229.58L1150.56 1224.46L1324.12 1246.34H402.07Z" fill="#004A92"/>
<path fill-rule="evenodd" clip-rule="evenodd" d="M1411.77 1195.22L1415.18 1186.42L1422.36 1174.75L1417.07 1190.11L1411.77 1195.22Z" fill="#0054A5"/>
<path fill-rule="evenodd" clip-rule="evenodd" d="M202.802 1101.66L208.84 1104.4L220.723 1118.91L202.802 1101.66Z" fill="#3171D3"/>
<path fill-rule="evenodd" clip-rule="evenodd" d="M200.796 1140.88L210.325 1150.14L215.418 1155.5L202.802 1150.14L200.796 1140.88Z" fill="#3171D3"/>
<path fill-rule="evenodd" clip-rule="evenodd" d="M995.219 1154.44L964.875 1165.01L952.819 1172.15L969.177 1167.44L989.74 1163.29L995.219 1154.44Z" fill="#0054A5"/>
<path fill-rule="evenodd" clip-rule="evenodd" d="M222.787 1170.39L263.431 1246.34H282.065L263.527 1226.66L248.809 1203.63L248.443 1197.05L291.575 1246.34H309.92L261.83 1168.5L257.181 1163.74L222.787 1170.39Z" fill="url(#paint47_linear_152_2588)"/>
<path fill-rule="evenodd" clip-rule="evenodd" d="M1263.39 1238.68L1319.56 1202.12L1336.09 1205.17L1310.21 1235.4L1310.94 1238.68L1346.51 1206.43L1350.35 1206.89L1317.02 1245.43L1263.39 1238.68Z" fill="#0054A5"/>
<path fill-rule="evenodd" clip-rule="evenodd" d="M1451.02 1213.93L1479.84 1177.91L1491.94 1182.06L1496.59 1190.16L1480.4 1210.32L1484.55 1209.24L1499.48 1195.22L1501.2 1198.23L1488.64 1210.94L1451.02 1213.93Z" fill="#0054A5"/>
</g>
<defs>
<filter id="filter0_f_152_2588" x="316" y="-131" width="870" height="1070" filterUnits="userSpaceOnUse" color-interpolation-filters="sRGB">
<feFlood flood-opacity="0" result="BackgroundImageFix"/>
<feBlend mode="normal" in="SourceGraphic" in2="BackgroundImageFix" result="shape"/>
<feGaussianBlur stdDeviation="10" result="effect1_foregroundBlur_152_2588"/>
</filter>
<filter id="filter1_f_152_2588" x="237" y="-26" width="1027" height="1052" filterUnits="userSpaceOnUse" color-interpolation-filters="sRGB">
<feFlood flood-opacity="0" result="BackgroundImageFix"/>
<feBlend mode="normal" in="SourceGraphic" in2="BackgroundImageFix" result="shape"/>
<feGaussianBlur stdDeviation="10" result="effect1_foregroundBlur_152_2588"/>
</filter>
<filter id="filter2_f_152_2588" x="15.3066" y="150.713" width="1449.83" height="698.094" filterUnits="userSpaceOnUse" color-interpolation-filters="sRGB">
<feFlood flood-opacity="0" result="BackgroundImageFix"/>
<feBlend mode="normal" in="SourceGraphic" in2="BackgroundImageFix" result="shape"/>
<feGaussianBlur stdDeviation="7.5" result="effect1_foregroundBlur_152_2588"/>
</filter>
<radialGradient id="paint0_radial_152_2588" cx="0" cy="0" r="1" gradientUnits="userSpaceOnUse" gradientTransform="translate(756 1866.12) rotate(-90) scale(2221.35 2691.25)">
<stop offset="0.259261" stop-color="#002668"/>
<stop offset="0.410576" stop-color="#003796"/>
<stop offset="0.741226" stop-color="#0444B3"/>
<stop offset="0.905617" stop-color="#7DAFEA"/>
<stop offset="1" stop-color="#A0C1F2"/>
</radialGradient>
<radialGradient id="paint1_radial_152_2588" cx="0" cy="0" r="1" gradientUnits="userSpaceOnUse" gradientTransform="translate(797.293 -516.013) rotate(90.6317) scale(1531.36 830.262)">
<stop stop-color="white" stop-opacity="0.78"/>
<stop offset="1" stop-color="white" stop-opacity="0"/>
</radialGradient>
<radialGradient id="paint2_radial_152_2588" cx="0" cy="0" r="1" gradientUnits="userSpaceOnUse" gradientTransform="translate(804.013 -400.381) rotate(90.3799) scale(1442.4 952.355)">
<stop stop-color="#00FFFF" stop-opacity="0.78"/>
<stop offset="1" stop-color="#00FFFF" stop-opacity="0"/>
</radialGradient>
<linearGradient id="paint3_linear_152_2588" x1="755.374" y1="1898.86" x2="788.359" y2="-242.592" gradientUnits="userSpaceOnUse">
<stop stop-color="#0054A5"/>
<stop offset="0.968816" stop-color="#00286E"/>
</linearGradient>
<linearGradient id="paint4_linear_152_2588" x1="1646.07" y1="2366.74" x2="506.037" y2="-505.322" gradientUnits="userSpaceOnUse">
<stop stop-color="#3171D3"/>
<stop offset="0.324674" stop-color="#0054A5"/>
<stop offset="0.513187" stop-color="#00286E"/>
<stop offset="0.943269" stop-color="#090D4C"/>
</linearGradient>
<linearGradient id="paint5_linear_152_2588" x1="1281.32" y1="1513.74" x2="1406.01" y2="1116.45" gradientUnits="userSpaceOnUse">
<stop stop-color="#00286E"/>
<stop offset="1" stop-color="#0054A5"/>
</linearGradient>
<linearGradient id="paint6_linear_152_2588" x1="1509.67" y1="3004.86" x2="1303.73" y2="-139.027" gradientUnits="userSpaceOnUse">
<stop offset="0.0779965" stop-color="#0054A5"/>
<stop offset="0.387446" stop-color="#00286E"/>
<stop offset="0.746001" stop-color="#090D4C"/>
</linearGradient>
<linearGradient id="paint7_linear_152_2588" x1="703.555" y1="3057.53" x2="2142.7" y2="-25.5959" gradientUnits="userSpaceOnUse">
<stop stop-color="#3171D3"/>
<stop offset="0.0706268" stop-color="#0054A5"/>
<stop offset="0.9999" stop-color="#090D4C"/>
<stop offset="1" stop-color="#090D4C" stop-opacity="0"/>
</linearGradient>
<linearGradient id="paint8_linear_152_2588" x1="443.212" y1="174.362" x2="406.736" y2="-267.352" gradientUnits="userSpaceOnUse">
<stop stop-color="#00286E"/>
<stop offset="0.251851" stop-color="#090D4C"/>
</linearGradient>
<linearGradient id="paint9_linear_152_2588" x1="36.4765" y1="651.554" x2="103.433" y2="148.88" gradientUnits="userSpaceOnUse">
<stop stop-color="#0054A5"/>
<stop offset="0.664571" stop-color="#0054A5" stop-opacity="0"/>
</linearGradient>
<linearGradient id="paint10_linear_152_2588" x1="392.726" y1="298.723" x2="392.726" y2="-1.20139" gradientUnits="userSpaceOnUse">
<stop offset="0.0332485" stop-color="#0054A5"/>
<stop offset="0.348653" stop-color="#0054A5" stop-opacity="0"/>
</linearGradient>
<linearGradient id="paint11_linear_152_2588" x1="-0.999369" y1="737.997" x2="87.943" y2="-37.0008" gradientUnits="userSpaceOnUse">
<stop offset="0.0330182" stop-color="#3171D3"/>
<stop offset="0.114546" stop-color="#0054A5"/>
<stop offset="0.863177" stop-color="#00286E"/>
</linearGradient>
<linearGradient id="paint12_linear_152_2588" x1="454.706" y1="322.27" x2="263.33" y2="-10.5146" gradientUnits="userSpaceOnUse">
<stop offset="0.111671" stop-color="#3171D3"/>
<stop offset="0.27789" stop-color="#0054A5"/>
<stop offset="0.461256" stop-color="#00286E"/>
</linearGradient>
<linearGradient id="paint13_linear_152_2588" x1="484.022" y1="204.686" x2="484.022" y2="-3.01534" gradientUnits="userSpaceOnUse">
<stop offset="0.167341" stop-color="#0054A5"/>
<stop offset="0.58875" stop-color="#00286E"/>
</linearGradient>
<linearGradient id="paint14_linear_152_2588" x1="590.117" y1="47.9457" x2="701.545" y2="-3.02136" gradientUnits="userSpaceOnUse">
<stop stop-color="#090D4C"/>
<stop offset="1" stop-color="#0054A5"/>
</linearGradient>
<linearGradient id="paint15_linear_152_2588" x1="417.724" y1="298.716" x2="403.739" y2="184.859" gradientUnits="userSpaceOnUse">
<stop stop-color="#3171D3"/>
<stop offset="0.0772923" stop-color="#0054A5"/>
<stop offset="0.367737" stop-color="#002B72"/>
<stop offset="0.677682" stop-color="#00286E"/>
<stop offset="0.853076" stop-color="#090D4C"/>
</linearGradient>
<linearGradient id="paint16_linear_152_2588" x1="398.241" y1="203.343" x2="219.357" y2="8.46924" gradientUnits="userSpaceOnUse">
<stop offset="0.0940781" stop-color="#0054A5"/>
<stop offset="0.3125" stop-color="#00286E"/>
<stop offset="1" stop-color="#090D4C"/>
</linearGradient>
<linearGradient id="paint17_linear_152_2588" x1="-9.99336" y1="560.614" x2="33.673" y2="-1.2039" gradientUnits="userSpaceOnUse">
<stop stop-color="#0054A5"/>
<stop offset="1" stop-color="#00286E"/>
</linearGradient>
<linearGradient id="paint18_linear_152_2588" x1="49.9667" y1="239.32" x2="216.359" y2="49.943" gradientUnits="userSpaceOnUse">
<stop stop-color="#3171D3"/>
<stop offset="0.112098" stop-color="#0054A5"/>
<stop offset="0.674356" stop-color="#00286E"/>
<stop offset="1" stop-color="#090D4C"/>
</linearGradient>
<linearGradient id="paint19_linear_152_2588" x1="509.669" y1="324.765" x2="400.74" y2="170.365" gradientUnits="userSpaceOnUse">
<stop offset="0.626181" stop-color="#0064D7"/>
<stop offset="0.755193" stop-color="#0054A5"/>
<stop offset="1" stop-color="#00286E"/>
</linearGradient>
<linearGradient id="paint20_linear_152_2588" x1="700.718" y1="1460.08" x2="1087.42" y2="958.332" gradientUnits="userSpaceOnUse">
<stop offset="0.276042" stop-color="#090D4C"/>
<stop offset="0.401042" stop-color="#00286E"/>
<stop offset="0.625" stop-color="#0054A5"/>
<stop offset="0.751671" stop-color="#3171D3"/>
<stop offset="0.941421" stop-color="#00286E"/>
</linearGradient>
<linearGradient id="paint21_linear_152_2588" x1="195.958" y1="1410.09" x2="-8.83715" y2="920.987" gradientUnits="userSpaceOnUse">
<stop offset="0.531032" stop-color="#00286E"/>
<stop offset="0.847026" stop-color="#0054A5"/>
<stop offset="0.961907" stop-color="#3171D3"/>
</linearGradient>
<linearGradient id="paint22_linear_152_2588" x1="374.852" y1="1360.09" x2="283.899" y2="1038.44" gradientUnits="userSpaceOnUse">
<stop stop-color="#00286E"/>
<stop offset="0.744172" stop-color="#0054A5"/>
</linearGradient>
<linearGradient id="paint23_linear_152_2588" x1="160.23" y1="1128.34" x2="150.18" y2="1045.67" gradientUnits="userSpaceOnUse">
<stop stop-color="#0054A5"/>
<stop offset="1" stop-color="#3171D3"/>
</linearGradient>
<linearGradient id="paint24_linear_152_2588" x1="351.362" y1="1177.58" x2="488.093" y2="1216.13" gradientUnits="userSpaceOnUse">
<stop stop-color="#3171D3"/>
<stop offset="1" stop-color="#3171D3" stop-opacity="0"/>
</linearGradient>
<linearGradient id="paint25_linear_152_2588" x1="167.044" y1="1284.2" x2="15.8571" y2="943.272" gradientUnits="userSpaceOnUse">
<stop stop-color="#00286E"/>
<stop offset="1" stop-color="#0054A5"/>
</linearGradient>
<linearGradient id="paint26_linear_152_2588" x1="325.46" y1="1269.14" x2="1251.86" y2="1071.57" gradientUnits="userSpaceOnUse">
<stop stop-color="#090D4C"/>
<stop offset="1" stop-color="#0054A5"/>
</linearGradient>
<linearGradient id="paint27_linear_152_2588" x1="1227.77" y1="1219.14" x2="1268.12" y2="1205.29" gradientUnits="userSpaceOnUse">
<stop stop-color="#3171D3"/>
<stop offset="1" stop-color="#0054A5"/>
</linearGradient>
<linearGradient id="paint28_linear_152_2588" x1="1358.16" y1="1246.33" x2="1367.51" y2="1156.5" gradientUnits="userSpaceOnUse">
<stop stop-color="#00286E"/>
<stop offset="1" stop-color="#3171D3"/>
</linearGradient>
<linearGradient id="paint29_linear_152_2588" x1="1522.91" y1="1451.04" x2="1625.31" y2="1007.12" gradientUnits="userSpaceOnUse">
<stop stop-color="#0064D7"/>
<stop offset="0.805789" stop-color="#00286E"/>
</linearGradient>
<linearGradient id="paint30_linear_152_2588" x1="1524.37" y1="1246.33" x2="1524.37" y2="1182.06" gradientUnits="userSpaceOnUse">
<stop stop-color="#0054A5"/>
<stop offset="1" stop-color="#00286E"/>
</linearGradient>
<linearGradient id="paint31_linear_152_2588" x1="1381.96" y1="1443.82" x2="1459.67" y2="1129.4" gradientUnits="userSpaceOnUse">
<stop stop-color="#3171D3"/>
<stop offset="0.875221" stop-color="#0054A5"/>
</linearGradient>
<linearGradient id="paint32_linear_152_2588" x1="1377.15" y1="1256.49" x2="1415.09" y2="1133.61" gradientUnits="userSpaceOnUse">
<stop stop-color="#00286E"/>
<stop offset="1" stop-color="#0054A5"/>
</linearGradient>
<linearGradient id="paint33_linear_152_2588" x1="1227.8" y1="1219.35" x2="1242.82" y2="1193.85" gradientUnits="userSpaceOnUse">
<stop stop-color="#3171D3"/>
<stop offset="1" stop-color="#0054A5"/>
</linearGradient>
<linearGradient id="paint34_linear_152_2588" x1="1124.06" y1="1219.35" x2="1129.58" y2="1135.42" gradientUnits="userSpaceOnUse">
<stop stop-color="#00286E"/>
<stop offset="1" stop-color="#0054A5"/>
</linearGradient>
<linearGradient id="paint35_linear_152_2588" x1="1067.54" y1="1236.61" x2="1167.53" y2="1107.71" gradientUnits="userSpaceOnUse">
<stop offset="0.270485" stop-color="#00286E"/>
<stop offset="0.897636" stop-color="#0054A5"/>
</linearGradient>
<linearGradient id="paint36_linear_152_2588" x1="915.753" y1="1172.77" x2="1019.36" y2="1091.45" gradientUnits="userSpaceOnUse">
<stop stop-color="#00286E"/>
<stop offset="0.451102" stop-color="#0054A5"/>
<stop offset="1" stop-color="#3171D3"/>
</linearGradient>
<linearGradient id="paint37_linear_152_2588" x1="20.6765" y1="1358.89" x2="139.94" y2="1008.33" gradientUnits="userSpaceOnUse">
<stop offset="0.229363" stop-color="#090D4C"/>
<stop offset="0.332275" stop-color="#00286E"/>
<stop offset="1" stop-color="#0054A5"/>
</linearGradient>
<linearGradient id="paint38_linear_152_2588" x1="175.576" y1="1246.33" x2="175.576" y2="1077.13" gradientUnits="userSpaceOnUse">
<stop stop-color="#00286E"/>
<stop offset="1" stop-color="#0054A5"/>
</linearGradient>
<linearGradient id="paint39_linear_152_2588" x1="339.916" y1="1276.37" x2="293.536" y2="1101.69" gradientUnits="userSpaceOnUse">
<stop stop-color="#00286E"/>
<stop offset="0.750106" stop-color="#0054A5"/>
<stop offset="0.969257" stop-color="#3171D3"/>
</linearGradient>
<linearGradient id="paint40_linear_152_2588" x1="596.514" y1="1233" x2="599.249" y2="1199.61" gradientUnits="userSpaceOnUse">
<stop stop-color="#0054A5"/>
<stop offset="1" stop-color="#00286E"/>
</linearGradient>
<linearGradient id="paint41_linear_152_2588" x1="942.256" y1="1211.92" x2="942.161" y2="1173.54" gradientUnits="userSpaceOnUse">
<stop stop-color="#00286E"/>
<stop offset="1" stop-color="#0054A5"/>
</linearGradient>
<linearGradient id="paint42_linear_152_2588" x1="851.905" y1="1229.38" x2="1054.89" y2="1155.9" gradientUnits="userSpaceOnUse">
<stop offset="0.00979221" stop-color="#0054A5"/>
<stop offset="1" stop-color="#3171D3"/>
</linearGradient>
<linearGradient id="paint43_linear_152_2588" x1="156.805" y1="1246.85" x2="156.295" y2="1173.29" gradientUnits="userSpaceOnUse">
<stop stop-color="#0054A5"/>
<stop offset="1" stop-color="#0054A5" stop-opacity="0"/>
</linearGradient>
<linearGradient id="paint44_linear_152_2588" x1="306.185" y1="1187.82" x2="879.01" y2="1115.54" gradientUnits="userSpaceOnUse">
<stop stop-color="#00286E"/>
<stop offset="1" stop-color="#1A65BD" stop-opacity="0"/>
</linearGradient>
<linearGradient id="paint45_linear_152_2588" x1="835.642" y1="1257.09" x2="1213.91" y2="1026.4" gradientUnits="userSpaceOnUse">
<stop offset="0.117534" stop-color="#00286E"/>
<stop offset="1" stop-color="#3171D3"/>
</linearGradient>
<linearGradient id="paint46_linear_152_2588" x1="1335.58" y1="1410.09" x2="1451.23" y2="1067.96" gradientUnits="userSpaceOnUse">
<stop stop-color="#00286E"/>
<stop offset="1" stop-color="#0054A5"/>
</linearGradient>
<linearGradient id="paint47_linear_152_2588" x1="289.319" y1="1258.9" x2="254.986" y2="1163.73" gradientUnits="userSpaceOnUse">
<stop stop-color="#0054A5"/>
<stop offset="1" stop-color="#0054A5" stop-opacity="0"/>
</linearGradient>
<clipPath id="clip0_152_2588">
<rect width="1512" height="1248" fill="white"/>
</clipPath>
</defs>
</svg>
