<svg width="173" height="297" viewBox="0 0 173 297" fill="none" xmlns="http://www.w3.org/2000/svg">
<path fill-rule="evenodd" clip-rule="evenodd" d="M59.2281 270.636L62.2721 283.776L48.8233 295.354L40.6851 285.602C40.6851 285.602 37.3049 277.962 44.4563 269.574C44.4098 269.56 56.0773 268.46 59.2281 270.636Z" fill="url(#paint0_linear_179_895)"/>
<path fill-rule="evenodd" clip-rule="evenodd" d="M62.2728 283.776L56.091 279.357L40.6858 285.601L48.8239 295.354C48.8239 295.354 55.51 291.52 62.2728 283.776Z" fill="url(#paint1_linear_179_895)"/>
<path fill-rule="evenodd" clip-rule="evenodd" d="M40.4013 265.824L35.9433 269.8L28.5537 267.023L30.632 261.776C30.632 261.776 32.8931 258.852 37.6825 259.814C37.6525 259.831 40.5649 264.131 40.4013 265.824Z" fill="url(#paint2_linear_179_895)"/>
<path fill-rule="evenodd" clip-rule="evenodd" d="M35.9125 269.817L36.3027 266.475L30.6012 261.793L28.5229 267.04C28.5529 267.023 31.4592 268.826 35.9125 269.817Z" fill="url(#paint3_linear_179_895)"/>
<path fill-rule="evenodd" clip-rule="evenodd" d="M12.9591 241.082L14.6229 246.382L7.39494 254.774L3.0182 252.217C3.0182 252.217 1.21035 249.498 5.01263 244.045C4.99613 244.015 11.2471 240.812 12.9591 241.082Z" fill="url(#paint4_linear_179_895)"/>
<path fill-rule="evenodd" clip-rule="evenodd" d="M14.5936 246.399L11.2595 245.809L2.98884 252.233L7.36559 254.79C7.3956 254.774 10.9758 251.476 14.5936 246.399Z" fill="url(#paint5_linear_179_895)"/>
<path fill-rule="evenodd" clip-rule="evenodd" d="M118.919 100.282L145.253 93.1614L169.642 119.496L150.508 136.72C150.508 136.72 135.34 144.095 117.839 130.296C117.869 130.346 114.758 106.85 118.919 100.282Z" fill="url(#paint6_linear_179_895)"/>
<path fill-rule="evenodd" clip-rule="evenodd" d="M145.284 93.2114L136.812 106.097L150.569 136.82L169.702 119.595C169.672 119.545 161.475 106.298 145.284 93.2114Z" fill="url(#paint7_linear_179_895)"/>
<path fill-rule="evenodd" clip-rule="evenodd" d="M73.0002 191.553L78.001 196.737L75.0119 205.73L68.5781 203.483C68.5781 203.483 64.9365 200.912 65.8895 195.111C65.906 195.141 70.9716 191.417 73.0002 191.553Z" fill="url(#paint8_linear_179_895)"/>
<path fill-rule="evenodd" clip-rule="evenodd" d="M78.0005 196.737L73.9568 196.42L68.5941 203.512L75.0279 205.759C74.9978 205.776 77.0325 202.155 78.0005 196.737Z" fill="url(#paint9_linear_179_895)"/>
<path fill-rule="evenodd" clip-rule="evenodd" d="M72.7833 64.6978L69.2436 67.856L63.425 65.6616L65.0561 61.5204C65.0561 61.5204 66.8358 59.2128 70.6214 59.9844C70.6048 59.9544 72.9154 63.3743 72.7833 64.6978Z" fill="url(#paint10_linear_179_895)"/>
<path fill-rule="evenodd" clip-rule="evenodd" d="M69.2442 67.8557L69.5549 65.2224L65.0266 61.5367L63.3955 65.6779C63.409 65.6314 65.7182 67.0586 69.2442 67.8557Z" fill="url(#paint11_linear_179_895)"/>
<path fill-rule="evenodd" clip-rule="evenodd" d="M51.8888 56.7661L48.3491 59.9243L42.5305 57.73L44.1616 53.5888C44.1616 53.5888 45.9412 51.2811 49.7268 52.0528C49.7103 52.0228 52.0209 55.4427 51.8888 56.7661Z" fill="url(#paint12_linear_179_895)"/>
<path fill-rule="evenodd" clip-rule="evenodd" d="M48.3497 59.9241L48.6604 57.2907L44.1321 53.605L42.501 57.7463C42.5145 57.6998 44.8236 59.127 48.3497 59.9241Z" fill="url(#paint13_linear_179_895)"/>
<path fill-rule="evenodd" clip-rule="evenodd" d="M76.3568 2.54226L85.3847 11.9229L79.9826 28.1834L68.3903 24.1608C68.3903 24.1608 61.8005 19.498 63.5519 9.03667C63.5654 8.99016 72.6688 2.30331 76.3568 2.54226Z" fill="url(#paint14_linear_179_895)"/>
<path fill-rule="evenodd" clip-rule="evenodd" d="M85.385 11.9232L78.0658 11.3358L68.3906 24.1612L79.9829 28.1837C79.9829 28.1837 83.6367 21.6794 85.385 11.9232Z" fill="url(#paint15_linear_179_895)"/>
<defs>
<linearGradient id="paint0_linear_179_895" x1="60.7297" y1="291.006" x2="45.0502" y2="269.212" gradientUnits="userSpaceOnUse">
<stop stop-color="#0054A5"/>
<stop offset="1" stop-color="#00286E"/>
</linearGradient>
<linearGradient id="paint1_linear_179_895" x1="61.0306" y1="281.511" x2="43.6617" y2="291.062" gradientUnits="userSpaceOnUse">
<stop stop-color="#090D4C"/>
<stop offset="1" stop-color="#00286E"/>
</linearGradient>
<linearGradient id="paint2_linear_179_895" x1="32.023" y1="269.245" x2="37.9297" y2="259.992" gradientUnits="userSpaceOnUse">
<stop stop-color="#090D4C"/>
<stop offset="1" stop-color="#180033"/>
</linearGradient>
<linearGradient id="paint3_linear_179_895" x1="36.536" y1="268.839" x2="29.1155" y2="264.102" gradientUnits="userSpaceOnUse">
<stop stop-color="#090D4C"/>
<stop offset="1" stop-color="#180033"/>
</linearGradient>
<linearGradient id="paint4_linear_179_895" x1="11.7569" y1="250.847" x2="5.34245" y2="243.715" gradientUnits="userSpaceOnUse">
<stop stop-color="#090D4C"/>
<stop offset="1" stop-color="#180033"/>
</linearGradient>
<linearGradient id="paint5_linear_179_895" x1="13.9313" y1="245.635" x2="4.62024" y2="254.007" gradientUnits="userSpaceOnUse">
<stop stop-color="#090D4C"/>
<stop offset="1" stop-color="#180033"/>
</linearGradient>
<linearGradient id="paint6_linear_179_895" x1="168.157" y1="101.593" x2="109.835" y2="133.507" gradientUnits="userSpaceOnUse">
<stop offset="0.209071" stop-color="#0054A5"/>
<stop offset="0.785342" stop-color="#00286E"/>
</linearGradient>
<linearGradient id="paint7_linear_179_895" x1="140.795" y1="95.8708" x2="161.374" y2="130.27" gradientUnits="userSpaceOnUse">
<stop offset="0.466762" stop-color="#090D4C"/>
<stop offset="1" stop-color="#180033"/>
</linearGradient>
<linearGradient id="paint8_linear_179_895" x1="77.5184" y1="201.469" x2="62.9311" y2="194.948" gradientUnits="userSpaceOnUse">
<stop stop-color="#00286E"/>
<stop offset="0.920342" stop-color="#0054A5"/>
</linearGradient>
<linearGradient id="paint9_linear_179_895" x1="76.8159" y1="196.058" x2="71.4681" y2="205.207" gradientUnits="userSpaceOnUse">
<stop stop-color="#090D4C"/>
<stop offset="1" stop-color="#00286E"/>
</linearGradient>
<linearGradient id="paint10_linear_179_895" x1="66.167" y1="67.399" x2="70.8321" y2="60.0916" gradientUnits="userSpaceOnUse">
<stop stop-color="#090D4C"/>
<stop offset="1" stop-color="#00286E"/>
</linearGradient>
<linearGradient id="paint11_linear_179_895" x1="72.3606" y1="69.1987" x2="61.167" y2="63.3718" gradientUnits="userSpaceOnUse">
<stop stop-color="#090D4C"/>
<stop offset="0.630978" stop-color="#00286E"/>
</linearGradient>
<linearGradient id="paint12_linear_179_895" x1="45.2725" y1="59.4674" x2="49.9375" y2="52.1599" gradientUnits="userSpaceOnUse">
<stop stop-color="#090D4C"/>
<stop offset="1" stop-color="#00286E"/>
</linearGradient>
<linearGradient id="paint13_linear_179_895" x1="51.4661" y1="61.267" x2="40.2725" y2="55.4402" gradientUnits="userSpaceOnUse">
<stop stop-color="#090D4C"/>
<stop offset="0.630978" stop-color="#00286E"/>
</linearGradient>
<linearGradient id="paint14_linear_179_895" x1="84.5111" y1="20.4255" x2="63.9182" y2="8.39117" gradientUnits="userSpaceOnUse">
<stop stop-color="#0054A5"/>
<stop offset="1" stop-color="#00286E"/>
</linearGradient>
<linearGradient id="paint15_linear_179_895" x1="83.2438" y1="10.6594" x2="72.954" y2="32.9011" gradientUnits="userSpaceOnUse">
<stop offset="0.123112" stop-color="#090D4C"/>
<stop offset="1" stop-color="#00286E"/>
</linearGradient>
</defs>
</svg>
