<svg width="255" height="570" viewBox="0 0 255 570" fill="none" xmlns="http://www.w3.org/2000/svg">
<path fill-rule="evenodd" clip-rule="evenodd" d="M67.3751 14.9468L69.0389 9.64682L61.811 1.2552L57.4343 3.8125C57.4343 3.8125 55.6264 6.53161 59.4286 11.9841C59.4121 12.0141 65.6931 15.2336 67.3751 14.9468Z" fill="url(#paint0_linear_179_855)"/>
<path fill-rule="evenodd" clip-rule="evenodd" d="M69.0232 9.67735L65.6893 10.2674L57.4186 3.84303L61.7954 1.28573C61.8119 1.25572 65.392 4.55347 69.0232 9.67735Z" fill="url(#paint1_linear_179_855)"/>
<path fill-rule="evenodd" clip-rule="evenodd" d="M89.6407 70.9429L91.3046 65.643L84.0768 57.2513L79.7 59.8086C79.7 59.8086 77.8921 62.5278 81.6944 67.9802C81.6779 68.0102 87.9287 71.2132 89.6407 70.9429Z" fill="url(#paint2_linear_179_855)"/>
<path fill-rule="evenodd" clip-rule="evenodd" d="M91.2576 65.6568L87.9237 66.2469L79.653 59.8225L84.0297 57.2652C84.0763 57.2517 87.6564 60.5495 91.2576 65.6568Z" fill="url(#paint3_linear_179_855)"/>
<path fill-rule="evenodd" clip-rule="evenodd" d="M115.687 381.723L118.731 368.583L105.282 357.005L97.1441 366.758C97.1441 366.758 93.7639 374.397 100.915 382.786C100.869 382.799 112.536 383.899 115.687 381.723Z" fill="url(#paint4_linear_179_855)"/>
<path fill-rule="evenodd" clip-rule="evenodd" d="M118.732 368.584L112.55 373.002L97.1448 366.758L105.283 357.006C105.283 357.006 111.969 360.839 118.732 368.584Z" fill="url(#paint5_linear_179_855)"/>
<path fill-rule="evenodd" clip-rule="evenodd" d="M96.8622 386.535L92.4042 382.559L85.0146 385.336L87.093 390.583C87.093 390.583 89.3541 393.507 94.1435 392.545C94.1135 392.529 97.0258 388.228 96.8622 386.535Z" fill="url(#paint6_linear_179_855)"/>
<path fill-rule="evenodd" clip-rule="evenodd" d="M92.3735 382.543L92.7637 385.884L87.0622 390.567L84.9839 385.319C85.0139 385.336 87.9202 383.534 92.3735 382.543Z" fill="url(#paint7_linear_179_855)"/>
<path fill-rule="evenodd" clip-rule="evenodd" d="M69.42 411.277L71.0838 405.977L63.8559 397.585L59.4791 400.143C59.4791 400.143 57.6713 402.862 61.4736 408.314C61.4571 408.344 67.708 411.547 69.42 411.277Z" fill="url(#paint8_linear_179_855)"/>
<path fill-rule="evenodd" clip-rule="evenodd" d="M71.0545 405.961L67.7205 406.551L59.4498 400.126L63.8265 397.569C63.8565 397.585 67.4368 400.883 71.0545 405.961Z" fill="url(#paint9_linear_179_855)"/>
<path fill-rule="evenodd" clip-rule="evenodd" d="M48.9026 112.591L56.8128 86.4828L31.2248 61.3125L13.4319 79.9189C13.4319 79.9189 5.6037 94.8581 18.8696 112.767C18.8205 112.735 42.2122 116.552 48.9026 112.591Z" fill="url(#paint10_linear_179_855)"/>
<path fill-rule="evenodd" clip-rule="evenodd" d="M56.7632 86.4515L43.628 94.5315L13.333 79.856L31.1261 61.2498C31.1752 61.2812 44.1695 69.8733 56.7632 86.4515Z" fill="url(#paint11_linear_179_855)"/>
<path fill-rule="evenodd" clip-rule="evenodd" d="M175.38 552.077L201.714 559.198L226.103 532.864L206.969 515.639C206.969 515.639 191.801 508.264 174.3 522.063C174.33 522.013 171.219 545.509 175.38 552.077Z" fill="url(#paint12_linear_179_855)"/>
<path fill-rule="evenodd" clip-rule="evenodd" d="M201.744 559.148L193.273 546.262L207.03 515.539L226.163 532.764C226.133 532.814 217.936 546.061 201.744 559.148Z" fill="url(#paint13_linear_179_855)"/>
<path fill-rule="evenodd" clip-rule="evenodd" d="M129.461 460.807L134.462 455.622L131.473 446.63L125.039 448.877C125.039 448.877 121.397 451.447 122.35 457.248C122.367 457.218 127.433 460.942 129.461 460.807Z" fill="url(#paint14_linear_179_855)"/>
<path fill-rule="evenodd" clip-rule="evenodd" d="M134.461 455.622L130.418 455.94L125.055 448.847L131.489 446.6C131.459 446.584 133.493 450.204 134.461 455.622Z" fill="url(#paint15_linear_179_855)"/>
<path fill-rule="evenodd" clip-rule="evenodd" d="M197.924 398.711L194.384 395.553L188.566 397.748L190.197 401.889C190.197 401.889 191.976 404.196 195.762 403.425C195.745 403.455 198.056 400.035 197.924 398.711Z" fill="url(#paint16_linear_179_855)"/>
<path fill-rule="evenodd" clip-rule="evenodd" d="M194.385 395.553L194.696 398.187L190.167 401.873L188.536 397.731C188.55 397.778 190.859 396.351 194.385 395.553Z" fill="url(#paint17_linear_179_855)"/>
<path fill-rule="evenodd" clip-rule="evenodd" d="M177.027 406.643L173.488 403.485L167.669 405.679L169.3 409.82C169.3 409.82 171.08 412.128 174.865 411.356C174.849 411.386 177.16 407.966 177.027 406.643Z" fill="url(#paint18_linear_179_855)"/>
<path fill-rule="evenodd" clip-rule="evenodd" d="M173.488 403.485L173.799 406.118L169.271 409.804L167.64 405.663C167.653 405.709 169.962 404.282 173.488 403.485Z" fill="url(#paint19_linear_179_855)"/>
<path fill-rule="evenodd" clip-rule="evenodd" d="M201.497 460.867L210.525 451.486L205.123 435.226L193.531 439.248C193.531 439.248 186.941 443.911 188.692 454.373C188.706 454.419 197.809 461.106 201.497 460.867Z" fill="url(#paint20_linear_179_855)"/>
<path fill-rule="evenodd" clip-rule="evenodd" d="M210.526 451.486L203.206 452.073L193.531 439.248L205.123 435.225C205.123 435.225 208.777 441.73 210.526 451.486Z" fill="url(#paint21_linear_179_855)"/>
<path fill-rule="evenodd" clip-rule="evenodd" d="M171.12 134.478L184.595 158.197L165.191 188.393L143.732 174.171C143.732 174.171 132.8 161.327 141.788 140.933C141.747 140.974 163.72 132.091 171.12 134.478Z" fill="url(#paint22_linear_179_855)"/>
<path fill-rule="evenodd" clip-rule="evenodd" d="M184.553 158.238L169.959 153.256L143.648 174.253L165.108 188.475C165.149 188.434 175.927 177.187 184.553 158.238Z" fill="url(#paint23_linear_179_855)"/>
<path fill-rule="evenodd" clip-rule="evenodd" d="M245.679 333.197L230.068 336.773L216.363 320.768L227.981 311.101C227.981 311.101 237.047 307.121 246.998 315.615C246.982 315.585 248.27 329.439 245.679 333.197Z" fill="url(#paint24_linear_179_855)"/>
<path fill-rule="evenodd" clip-rule="evenodd" d="M230.051 336.742L235.315 329.377L227.947 311.04L216.33 320.708C216.346 320.738 220.852 328.696 230.051 336.742Z" fill="url(#paint25_linear_179_855)"/>
<defs>
<linearGradient id="paint0_linear_179_855" x1="66.1849" y1="5.19438" x2="59.7707" y2="12.3264" gradientUnits="userSpaceOnUse">
<stop stop-color="#090D4C"/>
<stop offset="1" stop-color="#180033"/>
</linearGradient>
<linearGradient id="paint1_linear_179_855" x1="68.3601" y1="10.4075" x2="59.0487" y2="2.03467" gradientUnits="userSpaceOnUse">
<stop stop-color="#090D4C"/>
<stop offset="1" stop-color="#180033"/>
</linearGradient>
<linearGradient id="paint2_linear_179_855" x1="88.4327" y1="61.1765" x2="82.0182" y2="68.3088" gradientUnits="userSpaceOnUse">
<stop stop-color="#090D4C"/>
<stop offset="1" stop-color="#180033"/>
</linearGradient>
<linearGradient id="paint3_linear_179_855" x1="90.6059" y1="66.3894" x2="81.2949" y2="58.017" gradientUnits="userSpaceOnUse">
<stop stop-color="#090D4C"/>
<stop offset="1" stop-color="#180033"/>
</linearGradient>
<linearGradient id="paint4_linear_179_855" x1="117.189" y1="361.353" x2="101.509" y2="383.147" gradientUnits="userSpaceOnUse">
<stop stop-color="#0054A5"/>
<stop offset="1" stop-color="#00286E"/>
</linearGradient>
<linearGradient id="paint5_linear_179_855" x1="117.49" y1="370.848" x2="100.121" y2="361.297" gradientUnits="userSpaceOnUse">
<stop stop-color="#090D4C"/>
<stop offset="1" stop-color="#00286E"/>
</linearGradient>
<linearGradient id="paint6_linear_179_855" x1="88.4839" y1="383.115" x2="94.3906" y2="392.367" gradientUnits="userSpaceOnUse">
<stop stop-color="#090D4C"/>
<stop offset="1" stop-color="#180033"/>
</linearGradient>
<linearGradient id="paint7_linear_179_855" x1="92.9969" y1="383.521" x2="85.5765" y2="388.257" gradientUnits="userSpaceOnUse">
<stop stop-color="#090D4C"/>
<stop offset="1" stop-color="#180033"/>
</linearGradient>
<linearGradient id="paint8_linear_179_855" x1="68.2179" y1="401.512" x2="61.8034" y2="408.644" gradientUnits="userSpaceOnUse">
<stop stop-color="#090D4C"/>
<stop offset="1" stop-color="#180033"/>
</linearGradient>
<linearGradient id="paint9_linear_179_855" x1="70.3922" y1="406.725" x2="61.0812" y2="398.352" gradientUnits="userSpaceOnUse">
<stop stop-color="#090D4C"/>
<stop offset="1" stop-color="#180033"/>
</linearGradient>
<linearGradient id="paint10_linear_179_855" x1="49.0743" y1="63.3359" x2="15.4196" y2="120.671" gradientUnits="userSpaceOnUse">
<stop offset="0.209071" stop-color="#0054A5"/>
<stop offset="0.785342" stop-color="#00286E"/>
</linearGradient>
<linearGradient id="paint11_linear_179_855" x1="53.9699" y1="90.8578" x2="20.2061" y2="69.2526" gradientUnits="userSpaceOnUse">
<stop offset="0.466762" stop-color="#090D4C"/>
<stop offset="1" stop-color="#180033"/>
</linearGradient>
<linearGradient id="paint12_linear_179_855" x1="224.618" y1="550.766" x2="166.296" y2="518.853" gradientUnits="userSpaceOnUse">
<stop offset="0.209071" stop-color="#0054A5"/>
<stop offset="0.785342" stop-color="#00286E"/>
</linearGradient>
<linearGradient id="paint13_linear_179_855" x1="197.256" y1="556.489" x2="217.835" y2="522.09" gradientUnits="userSpaceOnUse">
<stop offset="0.466762" stop-color="#090D4C"/>
<stop offset="1" stop-color="#180033"/>
</linearGradient>
<linearGradient id="paint14_linear_179_855" x1="133.979" y1="450.89" x2="119.392" y2="457.411" gradientUnits="userSpaceOnUse">
<stop stop-color="#00286E"/>
<stop offset="0.920342" stop-color="#0054A5"/>
</linearGradient>
<linearGradient id="paint15_linear_179_855" x1="133.277" y1="456.302" x2="127.929" y2="447.152" gradientUnits="userSpaceOnUse">
<stop stop-color="#090D4C"/>
<stop offset="1" stop-color="#00286E"/>
</linearGradient>
<linearGradient id="paint16_linear_179_855" x1="191.308" y1="396.01" x2="195.973" y2="403.318" gradientUnits="userSpaceOnUse">
<stop stop-color="#090D4C"/>
<stop offset="1" stop-color="#00286E"/>
</linearGradient>
<linearGradient id="paint17_linear_179_855" x1="197.501" y1="394.21" x2="186.308" y2="400.037" gradientUnits="userSpaceOnUse">
<stop stop-color="#090D4C"/>
<stop offset="0.630978" stop-color="#00286E"/>
</linearGradient>
<linearGradient id="paint18_linear_179_855" x1="170.411" y1="403.942" x2="175.076" y2="411.249" gradientUnits="userSpaceOnUse">
<stop stop-color="#090D4C"/>
<stop offset="1" stop-color="#00286E"/>
</linearGradient>
<linearGradient id="paint19_linear_179_855" x1="176.605" y1="402.142" x2="165.411" y2="407.969" gradientUnits="userSpaceOnUse">
<stop stop-color="#090D4C"/>
<stop offset="0.630978" stop-color="#00286E"/>
</linearGradient>
<linearGradient id="paint20_linear_179_855" x1="209.652" y1="442.984" x2="189.059" y2="455.018" gradientUnits="userSpaceOnUse">
<stop stop-color="#0054A5"/>
<stop offset="1" stop-color="#00286E"/>
</linearGradient>
<linearGradient id="paint21_linear_179_855" x1="208.384" y1="452.75" x2="198.095" y2="430.508" gradientUnits="userSpaceOnUse">
<stop offset="0.123112" stop-color="#090D4C"/>
<stop offset="1" stop-color="#00286E"/>
</linearGradient>
<linearGradient id="paint22_linear_179_855" x1="182.155" y1="182.481" x2="136.679" y2="133.985" gradientUnits="userSpaceOnUse">
<stop offset="0.209071" stop-color="#0054A5"/>
<stop offset="0.785342" stop-color="#00286E"/>
</linearGradient>
<linearGradient id="paint23_linear_179_855" x1="180.856" y1="154.557" x2="152.691" y2="183.079" gradientUnits="userSpaceOnUse">
<stop offset="0.466762" stop-color="#090D4C"/>
<stop offset="1" stop-color="#180033"/>
</linearGradient>
<linearGradient id="paint24_linear_179_855" x1="216.825" y1="331.303" x2="251.767" y2="313.915" gradientUnits="userSpaceOnUse">
<stop offset="0.209071" stop-color="#0054A5"/>
<stop offset="0.785342" stop-color="#00286E"/>
</linearGradient>
<linearGradient id="paint25_linear_179_855" x1="232.745" y1="335.285" x2="221.459" y2="314.636" gradientUnits="userSpaceOnUse">
<stop offset="0.466762" stop-color="#090D4C"/>
<stop offset="1" stop-color="#180033"/>
</linearGradient>
</defs>
</svg>
