<svg width="1512" height="788" viewBox="0 0 1512 788" fill="none" xmlns="http://www.w3.org/2000/svg">
<g opacity="0.15">
<path d="M-440.872 720.362C-350.708 526.94 132.625 679.289 132.625 679.289C132.625 679.289 -126.33 583.915 -72.604 524.301C-18.9116 464.688 165.239 505.761 176.742 550.792C188.246 595.824 46.3177 560.063 46.3177 560.063C109.619 601.135 316.776 652.798 199.749 529.579C82.7555 406.395 424.161 570.652 424.161 570.652C424.161 570.652 23.3792 233.442 443.344 341.47C1112.76 513.678 508.573 591.831 508.573 591.831C508.573 591.831 1166.48 550.759 527.756 341.47C-110.97 132.181 523.933 219.605 452.952 97.7396C381.971 -24.1255 94.2586 32.8486 94.2586 32.8486C94.2586 32.8486 253.475 89.8228 240.043 130.862C226.612 171.935 -272.081 137.493 -18.9116 224.916C234.258 312.34 142.199 454.099 13.7031 464.688C-114.793 475.278 -218.389 391.813 -218.389 391.813C-218.389 391.813 -126.33 492.499 -245.252 492.499C-364.174 492.499 -371.854 379.904 -532.965 300.431C-633.549 250.832 -718.401 250.765 -768 257.734V365.356C-571.466 318.971 -369.925 544.195 -448.552 652.832C-496.561 719.11 -653.24 689.168 -768 655.775V702.464C-653.341 772.092 -495.816 838.234 -440.872 720.362Z" fill="#3171D3"/>
<path d="M-344.991 205.767C-344.991 205.767 -540.171 -94.3956 -90.7383 44.149C358.694 182.694 -70.7094 -45 -70.7094 -45H-494.598C-494.598 -45 -598.16 -25.1402 -485.024 47.0248C-371.854 119.19 -724.931 -84.3135 -768 49.9005V126.396C-713.868 74.1585 -562.534 -25.4447 -344.991 205.767Z" fill="#3171D3"/>
<path d="M1795.79 474.345C1847.52 466.665 1897.79 452.32 1937.85 432.494V218.333C1888.45 184.196 1815.31 148.063 1712.35 110.678C1217.48 -69.0073 1856.21 50.0498 1856.21 50.0498C1856.21 50.0498 1277.91 -134.473 1367.09 30.0208C1367.09 30.0208 728.367 -92.8255 967.191 102.017C1205.98 296.825 1260.66 387.767 1033.37 316.313C806.046 244.892 754.282 95.5208 970.033 184.298C970.033 184.298 400.359 -114.445 653.563 190.794C819.647 390.981 1217.49 418.081 1292.29 316.346C1367.09 214.612 947.027 76.067 1243.37 63.0753C1539.71 50.0836 2212.94 346.694 1674.94 413.784C1222.83 470.15 1756 581.56 1937.85 615.698V608.525C1832.05 574.219 1629.03 499.11 1795.79 474.345Z" fill="#3171D3"/>
<path d="M1334.43 494.393C1342.31 388.328 1596.97 412.146 1596.97 412.146C1596.97 412.146 1349.55 293.089 1438.73 245.453C1527.92 197.816 1689.03 282.263 1640.14 316.874C1591.22 351.518 1516.41 297.386 1516.41 297.386C1516.41 297.386 1522.17 348.033 1680.4 355.849C1838.64 363.664 1703.41 241.122 1409.94 180.494C1185.23 134.076 1321.54 269.17 1397.73 335.008C1376.48 330.305 1351.48 346.545 1334.43 427.269C1306.48 559.386 1097.43 505.22 1011.87 477.071C1108.53 512.358 1361.22 610.202 1312.13 652.426C1251.71 704.392 863.309 496.559 1050.3 676.244C1237.33 855.929 1953.7 764.987 1953.7 764.987C1953.7 764.987 1326.55 600.459 1334.43 494.393Z" fill="#3171D3"/>
</g>
</svg>
