<svg width="266" height="506" viewBox="0 0 266 506" fill="none" xmlns="http://www.w3.org/2000/svg">
<g filter="url(#filter0_f_103_985)">
<path d="M-55.4902 250.286L-55.4723 250.259L-55.4562 250.231L-17.5557 184.342C-16.024 182.052 -13.7924 180.589 -10.8227 180.589H65.0113C67.981 180.589 70.2126 182.052 71.7442 184.342L109.593 250.141C110.327 252.431 110.327 255.485 109.593 257.774L71.7442 323.574C70.2126 325.863 67.981 327.326 65.0113 327.326H-10.8227C-13.7924 327.326 -16.024 325.863 -17.5557 323.573L-55.4562 257.684L-55.4723 257.656L-55.4902 257.63C-56.9525 255.43 -56.9525 252.486 -55.4902 250.286Z" stroke="white" stroke-width="2"/>
<path opacity="0.24" d="M-55.4902 90.6966L-55.4723 90.6697L-55.4562 90.6416L-17.5557 24.7527C-16.024 22.4628 -13.7924 21 -10.8227 21H65.0113C67.981 21 70.2126 22.4628 71.7442 24.7526L109.593 90.5519C110.327 92.8416 110.327 95.8954 109.593 98.1851L71.7442 163.984C70.2126 166.274 67.981 167.737 65.0113 167.737H-10.8227C-13.7924 167.737 -16.024 166.274 -17.5557 163.984L-55.4562 98.0954L-55.4723 98.0674L-55.4902 98.0404C-56.9525 95.8405 -56.9525 92.8965 -55.4902 90.6966Z" stroke="white" stroke-width="2"/>
<path opacity="0.4" d="M79.3673 171.429L79.3851 171.402L79.4012 171.374L117.302 105.202C118.834 102.901 121.066 101.433 124.034 101.433H199.868C202.836 101.433 205.067 102.901 206.6 105.202L244.449 171.284C245.184 173.586 245.184 176.655 244.449 178.957L206.6 245.039C205.067 247.34 202.836 248.808 199.868 248.808H124.034C121.066 248.808 118.834 247.34 117.302 245.039L79.4012 178.867L79.3851 178.839L79.3673 178.812C77.9036 176.601 77.9036 173.64 79.3673 171.429Z" stroke="white" stroke-width="2"/>
<path opacity="0.56" d="M79.3662 328.165L79.3841 328.138L79.4003 328.11L117.301 262.221C118.832 259.931 121.064 258.469 124.034 258.469H199.868C202.837 258.469 205.069 259.931 206.601 262.221L244.45 328.02C245.183 330.31 245.183 333.364 244.45 335.654L206.601 401.453C205.069 403.743 202.837 405.206 199.868 405.206H124.034C121.064 405.206 118.832 403.743 117.301 401.453L79.4003 335.564L79.3841 335.536L79.3662 335.509C77.904 333.309 77.904 330.365 79.3662 328.165Z" stroke="white" stroke-width="2"/>
<path opacity="0.76" d="M-55.4902 407.96L-55.4723 407.933L-55.4562 407.905L-17.5557 342.016C-16.024 339.726 -13.7924 338.263 -10.8227 338.263H65.0113C67.981 338.263 70.2126 339.726 71.7442 342.016L109.593 407.815C110.327 410.105 110.327 413.159 109.593 415.448L71.7442 481.248C70.2126 483.537 67.981 485 65.0113 485H-10.8227C-13.7924 485 -16.024 483.537 -17.5557 481.247L-55.4562 415.359L-55.4723 415.331L-55.4902 415.304C-56.9525 413.104 -56.9525 410.16 -55.4902 407.96Z" stroke="white" stroke-width="2"/>
</g>
<g filter="url(#filter1_f_103_985)">
<g filter="url(#filter2_f_103_985)">
<path d="M-55.4902 250.286L-55.4723 250.259L-55.4562 250.231L-17.5557 184.342C-16.024 182.052 -13.7924 180.589 -10.8227 180.589H65.0113C67.981 180.589 70.2126 182.052 71.7442 184.342L109.593 250.141C110.327 252.431 110.327 255.485 109.593 257.774L71.7442 323.574C70.2126 325.863 67.981 327.326 65.0113 327.326H-10.8227C-13.7924 327.326 -16.024 325.863 -17.5557 323.573L-55.4562 257.684L-55.4723 257.656L-55.4902 257.63C-56.9525 255.43 -56.9525 252.486 -55.4902 250.286Z" stroke="white" stroke-width="2"/>
</g>
<g filter="url(#filter3_f_103_985)">
<path d="M-55.4902 90.6966L-55.4723 90.6697L-55.4562 90.6416L-17.5557 24.7527C-16.024 22.4628 -13.7924 21 -10.8227 21H65.0113C67.981 21 70.2126 22.4628 71.7442 24.7526L109.593 90.5519C110.327 92.8416 110.327 95.8954 109.593 98.1851L71.7442 163.984C70.2126 166.274 67.981 167.737 65.0113 167.737H-10.8227C-13.7924 167.737 -16.024 166.274 -17.5557 163.984L-55.4562 98.0954L-55.4723 98.0674L-55.4902 98.0404C-56.9525 95.8405 -56.9525 92.8965 -55.4902 90.6966Z" stroke="white" stroke-width="2"/>
</g>
<g filter="url(#filter4_f_103_985)">
<path d="M79.3673 171.429L79.3851 171.402L79.4012 171.374L117.302 105.202C118.834 102.901 121.066 101.433 124.034 101.433H199.868C202.836 101.433 205.067 102.901 206.6 105.202L244.449 171.284C245.184 173.586 245.184 176.655 244.449 178.957L206.6 245.039C205.067 247.34 202.836 248.808 199.868 248.808H124.034C121.066 248.808 118.834 247.34 117.302 245.039L79.4012 178.867L79.3851 178.839L79.3673 178.812C77.9036 176.601 77.9036 173.64 79.3673 171.429Z" stroke="white" stroke-width="2"/>
</g>
<g filter="url(#filter5_f_103_985)">
<path d="M79.3662 328.165L79.3841 328.138L79.4003 328.11L117.301 262.221C118.832 259.931 121.064 258.469 124.034 258.469H199.868C202.837 258.469 205.069 259.931 206.601 262.221L244.45 328.02C245.183 330.31 245.183 333.364 244.45 335.654L206.601 401.453C205.069 403.743 202.837 405.206 199.868 405.206H124.034C121.064 405.206 118.832 403.743 117.301 401.453L79.4003 335.564L79.3841 335.536L79.3662 335.509C77.904 333.309 77.904 330.365 79.3662 328.165Z" stroke="white" stroke-width="2"/>
</g>
<g filter="url(#filter6_f_103_985)">
<path d="M-55.4902 407.96L-55.4723 407.933L-55.4562 407.905L-17.5557 342.016C-16.024 339.726 -13.7924 338.263 -10.8227 338.263H65.0113C67.981 338.263 70.2126 339.726 71.7442 342.016L109.593 407.815C110.327 410.105 110.327 413.159 109.593 415.448L71.7442 481.248C70.2126 483.537 67.981 485 65.0113 485H-10.8227C-13.7924 485 -16.024 483.537 -17.5557 481.247L-55.4562 415.359L-55.4723 415.331L-55.4902 415.304C-56.9525 413.104 -56.9525 410.16 -55.4902 407.96Z" stroke="white" stroke-width="2"/>
</g>
</g>
<defs>
<filter id="filter0_f_103_985" x="-198" y="17" width="447" height="472" filterUnits="userSpaceOnUse" color-interpolation-filters="sRGB">
<feFlood flood-opacity="0" result="BackgroundImageFix"/>
<feBlend mode="normal" in="SourceGraphic" in2="BackgroundImageFix" result="shape"/>
<feGaussianBlur stdDeviation="1.5" result="effect1_foregroundBlur_103_985"/>
</filter>
<filter id="filter1_f_103_985" x="-215" y="0" width="481" height="506" filterUnits="userSpaceOnUse" color-interpolation-filters="sRGB">
<feFlood flood-opacity="0" result="BackgroundImageFix"/>
<feBlend mode="normal" in="SourceGraphic" in2="BackgroundImageFix" result="shape"/>
<feGaussianBlur stdDeviation="10" result="effect1_foregroundBlur_103_985"/>
</filter>
<filter id="filter2_f_103_985" x="-67.5869" y="169.589" width="188.73" height="168.737" filterUnits="userSpaceOnUse" color-interpolation-filters="sRGB">
<feFlood flood-opacity="0" result="BackgroundImageFix"/>
<feBlend mode="normal" in="SourceGraphic" in2="BackgroundImageFix" result="shape"/>
<feGaussianBlur stdDeviation="5" result="effect1_foregroundBlur_103_985"/>
</filter>
<filter id="filter3_f_103_985" x="-67.5869" y="10" width="188.73" height="168.737" filterUnits="userSpaceOnUse" color-interpolation-filters="sRGB">
<feFlood flood-opacity="0" result="BackgroundImageFix"/>
<feBlend mode="normal" in="SourceGraphic" in2="BackgroundImageFix" result="shape"/>
<feGaussianBlur stdDeviation="5" result="effect1_foregroundBlur_103_985"/>
</filter>
<filter id="filter4_f_103_985" x="67.2695" y="90.4329" width="188.73" height="169.375" filterUnits="userSpaceOnUse" color-interpolation-filters="sRGB">
<feFlood flood-opacity="0" result="BackgroundImageFix"/>
<feBlend mode="normal" in="SourceGraphic" in2="BackgroundImageFix" result="shape"/>
<feGaussianBlur stdDeviation="5" result="effect1_foregroundBlur_103_985"/>
</filter>
<filter id="filter5_f_103_985" x="67.2695" y="247.469" width="188.73" height="168.737" filterUnits="userSpaceOnUse" color-interpolation-filters="sRGB">
<feFlood flood-opacity="0" result="BackgroundImageFix"/>
<feBlend mode="normal" in="SourceGraphic" in2="BackgroundImageFix" result="shape"/>
<feGaussianBlur stdDeviation="5" result="effect1_foregroundBlur_103_985"/>
</filter>
<filter id="filter6_f_103_985" x="-67.5869" y="327.263" width="188.73" height="168.737" filterUnits="userSpaceOnUse" color-interpolation-filters="sRGB">
<feFlood flood-opacity="0" result="BackgroundImageFix"/>
<feBlend mode="normal" in="SourceGraphic" in2="BackgroundImageFix" result="shape"/>
<feGaussianBlur stdDeviation="5" result="effect1_foregroundBlur_103_985"/>
</filter>
</defs>
</svg>
