<svg width="240" height="770" viewBox="0 0 240 770" fill="none" xmlns="http://www.w3.org/2000/svg">
<g filter="url(#filter0_f_103_1395)">
<path d="M279.908 58.2676L279.89 58.2945L279.874 58.3225L252.958 105.115C251.915 106.67 250.416 107.644 248.422 107.644L194.557 107.644C192.563 107.644 191.064 106.67 190.021 105.115L163.157 58.4133C162.667 56.8573 162.667 54.7822 163.157 53.2263L190.021 6.52462C191.064 4.96922 192.563 3.99573 194.557 3.99573L248.422 3.99573C250.416 3.99573 251.915 4.96922 252.958 6.52461L279.874 53.317L279.89 53.345L279.908 53.372C280.882 54.8374 280.882 56.8021 279.908 58.2676Z" stroke="white" stroke-width="2"/>
<path opacity="0.24" d="M279.908 171.624L279.89 171.651L279.874 171.679L252.958 218.471C251.915 220.027 250.416 221 248.422 221H194.557C192.563 221 191.064 220.027 190.021 218.471L163.157 171.769C162.667 170.213 162.667 168.138 163.157 166.582L190.021 119.881C191.064 118.325 192.563 117.352 194.557 117.352L248.422 117.352C250.416 117.352 251.915 118.325 252.958 119.881L279.874 166.673L279.89 166.701L279.908 166.728C280.882 168.194 280.882 170.158 279.908 171.624Z" stroke="white" stroke-width="2"/>
<path opacity="0.4" d="M184.118 114.28L184.1 114.307L184.084 114.335L157.168 161.328C156.124 162.892 154.625 163.868 152.633 163.868H98.768C96.7763 163.868 95.2768 162.892 94.2327 161.328L67.3687 114.425C66.8773 112.861 66.8773 110.774 67.3686 109.21L94.2327 62.307C95.2768 60.7436 96.7763 59.7669 98.768 59.7669L152.633 59.7669C154.625 59.7669 156.124 60.7436 157.168 62.3071L184.084 109.3L184.1 109.328L184.118 109.355C185.093 110.829 185.093 112.806 184.118 114.28Z" stroke="white" stroke-width="2"/>
<path opacity="0.56" d="M184.119 2.94969L184.101 2.97662L184.085 3.00464L157.169 49.797C156.126 51.3524 154.627 52.3259 152.633 52.3259L98.768 52.3259C96.7744 52.3259 95.2749 51.3524 94.2317 49.7971L67.368 3.09539C66.8775 1.53942 66.8775 -0.535656 67.368 -2.09162L94.2317 -48.7933C95.2749 -50.3487 96.7744 -51.3221 98.768 -51.3221L152.633 -51.3221C154.627 -51.3221 156.126 -50.3486 157.169 -48.7932L184.085 -2.00087L184.101 -1.97284L184.119 -1.94592C185.093 -0.480476 185.093 1.48425 184.119 2.94969Z" stroke="white" stroke-width="2"/>
</g>
<g filter="url(#filter1_f_103_1395)">
<path d="M279.908 58.2676L279.89 58.2945L279.874 58.3225L252.958 105.115C251.915 106.67 250.416 107.644 248.422 107.644L194.557 107.644C192.563 107.644 191.064 106.67 190.021 105.115L163.157 58.4133C162.667 56.8573 162.667 54.7822 163.157 53.2263L190.021 6.52462C191.064 4.96922 192.563 3.99573 194.557 3.99573L248.422 3.99573C250.416 3.99573 251.915 4.96922 252.958 6.52461L279.874 53.317L279.89 53.345L279.908 53.372C280.882 54.8374 280.882 56.8021 279.908 58.2676Z" stroke="white" stroke-width="2"/>
<path opacity="0.24" d="M279.908 171.624L279.89 171.651L279.874 171.679L252.958 218.471C251.915 220.027 250.416 221 248.422 221H194.557C192.563 221 191.064 220.027 190.021 218.471L163.157 171.769C162.667 170.213 162.667 168.138 163.157 166.582L190.021 119.881C191.064 118.325 192.563 117.352 194.557 117.352L248.422 117.352C250.416 117.352 251.915 118.325 252.958 119.881L279.874 166.673L279.89 166.701L279.908 166.728C280.882 168.194 280.882 170.158 279.908 171.624Z" stroke="white" stroke-width="2"/>
<path opacity="0.4" d="M184.118 114.28L184.1 114.307L184.084 114.335L157.168 161.328C156.124 162.892 154.625 163.868 152.633 163.868H98.768C96.7763 163.868 95.2768 162.892 94.2327 161.328L67.3687 114.425C66.8773 112.861 66.8773 110.774 67.3686 109.21L94.2327 62.307C95.2768 60.7436 96.7763 59.7669 98.768 59.7669L152.633 59.7669C154.625 59.7669 156.124 60.7436 157.168 62.3071L184.084 109.3L184.1 109.328L184.118 109.355C185.093 110.829 185.093 112.806 184.118 114.28Z" stroke="white" stroke-width="2"/>
<path opacity="0.56" d="M184.119 2.94969L184.101 2.97662L184.085 3.00464L157.169 49.797C156.126 51.3524 154.627 52.3259 152.633 52.3259L98.768 52.3259C96.7744 52.3259 95.2749 51.3524 94.2317 49.7971L67.368 3.09539C66.8775 1.53942 66.8775 -0.535656 67.368 -2.09162L94.2317 -48.7933C95.2749 -50.3487 96.7744 -51.3221 98.768 -51.3221L152.633 -51.3221C154.627 -51.3221 156.126 -50.3486 157.169 -48.7932L184.085 -2.00087L184.101 -1.97284L184.119 -1.94592C185.093 -0.480476 185.093 1.48425 184.119 2.94969Z" stroke="white" stroke-width="2"/>
</g>
<g filter="url(#filter2_f_103_1395)">
<path opacity="0.12" d="M16.8313 506.611L16.8491 506.584L16.8651 506.556L46.7695 454.345C47.9465 452.581 49.6451 451.471 51.9024 451.471H111.744C114.001 451.471 115.7 452.581 116.877 454.345L146.73 506.466C147.287 508.231 147.287 510.585 146.73 512.35L116.877 564.471C115.7 566.235 114.001 567.345 111.744 567.345H51.9024C49.6451 567.345 47.9465 566.235 46.7695 564.471L16.8651 512.26L16.8491 512.232L16.8313 512.205C15.7229 510.53 15.7229 508.286 16.8313 506.611Z" stroke="white" stroke-width="2"/>
<path d="M125.266 568.839L125.284 568.812L125.3 568.784L155.204 516.796C156.38 515.041 158.079 513.934 160.338 513.934H220.18C222.439 513.934 224.137 515.041 225.314 516.796L255.166 568.694C255.723 570.449 255.723 572.79 255.166 574.546L225.314 626.443C224.137 628.198 222.439 629.305 220.18 629.305H160.338C158.079 629.305 156.38 628.198 155.204 626.443L125.3 574.455L125.284 574.427L125.266 574.401C124.159 572.735 124.159 570.504 125.266 568.839Z" stroke="white" stroke-width="2"/>
<path opacity="0.9" d="M16.8302 630.61L16.8481 630.583L16.8642 630.555L46.7685 578.568C47.9446 576.812 49.6432 575.706 51.9024 575.706H111.744C114.003 575.706 115.702 576.812 116.878 578.568L146.73 630.465C147.287 632.221 147.287 634.562 146.73 636.317L116.878 688.215C115.702 689.97 114.003 691.077 111.744 691.077H51.9024C49.6432 691.077 47.9446 689.97 46.7685 688.215L16.8642 636.227L16.8481 636.199L16.8302 636.172C15.7233 634.507 15.7233 632.276 16.8302 630.61Z" stroke="white" stroke-width="2"/>
<path opacity="0.24" d="M125.266 442.905L125.284 442.878L125.3 442.85L155.204 390.862C156.38 389.107 158.079 388 160.338 388H220.18C222.439 388 224.137 389.107 225.314 390.862L255.166 442.759C255.723 444.515 255.723 446.856 255.166 448.612L225.314 500.509C224.137 502.264 222.439 503.371 220.18 503.371H160.338C158.079 503.371 156.38 502.264 155.204 500.509L125.3 448.521L125.284 448.493L125.266 448.466C124.159 446.801 124.159 444.57 125.266 442.905Z" stroke="white" stroke-width="2"/>
<path opacity="0.4" d="M231.684 506.611L231.702 506.584L231.718 506.556L261.622 454.345C262.799 452.581 264.498 451.471 266.755 451.471H326.597C328.854 451.471 330.553 452.581 331.73 454.345L361.582 506.466C362.14 508.231 362.14 510.585 361.582 512.35L331.73 564.471C330.553 566.235 328.854 567.345 326.597 567.345H266.755C264.498 567.345 262.799 566.235 261.622 564.471L231.718 512.26L231.702 512.232L231.684 512.205C230.575 510.53 230.575 508.286 231.684 506.611Z" stroke="white" stroke-width="2"/>
<path opacity="0.56" d="M231.683 630.295L231.701 630.268L231.717 630.24L261.621 578.252C262.797 576.497 264.496 575.39 266.755 575.39H326.597C328.856 575.39 330.554 576.497 331.731 578.252L361.583 630.149C362.14 631.905 362.14 634.246 361.583 636.002L331.731 687.899C330.554 689.654 328.856 690.761 326.597 690.761H266.755C264.496 690.761 262.797 689.654 261.621 687.899L231.717 635.911L231.701 635.883L231.683 635.856C230.576 634.191 230.576 631.96 231.683 630.295Z" stroke="white" stroke-width="2"/>
<path opacity="0.76" d="M125.266 693.262L125.284 693.235L125.3 693.207L155.204 641.219C156.38 639.464 158.079 638.357 160.338 638.357H220.18C222.439 638.357 224.137 639.464 225.314 641.219L255.166 693.116C255.723 694.872 255.723 697.213 255.166 698.969L225.314 750.866C224.137 752.621 222.439 753.728 220.18 753.728H160.338C158.079 753.728 156.38 752.621 155.204 750.866L125.3 698.878L125.284 698.85L125.266 698.823C124.159 697.158 124.159 694.927 125.266 693.262Z" stroke="white" stroke-width="2"/>
</g>
<g filter="url(#filter3_f_103_1395)">
<path opacity="0.12" d="M16.8313 506.611L16.8491 506.584L16.8651 506.556L46.7695 454.345C47.9465 452.581 49.6451 451.471 51.9024 451.471H111.744C114.001 451.471 115.7 452.581 116.877 454.345L146.73 506.466C147.287 508.231 147.287 510.585 146.73 512.35L116.877 564.471C115.7 566.235 114.001 567.345 111.744 567.345H51.9024C49.6451 567.345 47.9465 566.235 46.7695 564.471L16.8651 512.26L16.8491 512.232L16.8313 512.205C15.7229 510.53 15.7229 508.286 16.8313 506.611Z" stroke="white" stroke-width="2"/>
<path d="M125.266 568.839L125.284 568.812L125.3 568.784L155.204 516.796C156.38 515.041 158.079 513.934 160.338 513.934H220.18C222.439 513.934 224.137 515.041 225.314 516.796L255.166 568.694C255.723 570.449 255.723 572.79 255.166 574.546L225.314 626.443C224.137 628.198 222.439 629.305 220.18 629.305H160.338C158.079 629.305 156.38 628.198 155.204 626.443L125.3 574.455L125.284 574.427L125.266 574.401C124.159 572.735 124.159 570.504 125.266 568.839Z" stroke="white" stroke-width="2"/>
<path opacity="0.9" d="M16.8302 630.61L16.8481 630.583L16.8642 630.555L46.7685 578.568C47.9446 576.812 49.6432 575.706 51.9024 575.706H111.744C114.003 575.706 115.702 576.812 116.878 578.568L146.73 630.465C147.287 632.221 147.287 634.562 146.73 636.317L116.878 688.215C115.702 689.97 114.003 691.077 111.744 691.077H51.9024C49.6432 691.077 47.9446 689.97 46.7685 688.215L16.8642 636.227L16.8481 636.199L16.8302 636.172C15.7233 634.507 15.7233 632.276 16.8302 630.61Z" stroke="white" stroke-width="2"/>
<path opacity="0.24" d="M125.266 442.905L125.284 442.878L125.3 442.85L155.204 390.862C156.38 389.107 158.079 388 160.338 388H220.18C222.439 388 224.137 389.107 225.314 390.862L255.166 442.759C255.723 444.515 255.723 446.856 255.166 448.612L225.314 500.509C224.137 502.264 222.439 503.371 220.18 503.371H160.338C158.079 503.371 156.38 502.264 155.204 500.509L125.3 448.521L125.284 448.493L125.266 448.466C124.159 446.801 124.159 444.57 125.266 442.905Z" stroke="white" stroke-width="2"/>
<path opacity="0.4" d="M231.684 506.611L231.702 506.584L231.718 506.556L261.622 454.345C262.799 452.581 264.498 451.471 266.755 451.471H326.597C328.854 451.471 330.553 452.581 331.73 454.345L361.582 506.466C362.14 508.231 362.14 510.585 361.582 512.35L331.73 564.471C330.553 566.235 328.854 567.345 326.597 567.345H266.755C264.498 567.345 262.799 566.235 261.622 564.471L231.718 512.26L231.702 512.232L231.684 512.205C230.575 510.53 230.575 508.286 231.684 506.611Z" stroke="white" stroke-width="2"/>
<path opacity="0.56" d="M231.683 630.295L231.701 630.268L231.717 630.24L261.621 578.252C262.797 576.497 264.496 575.39 266.755 575.39H326.597C328.856 575.39 330.554 576.497 331.731 578.252L361.583 630.149C362.14 631.905 362.14 634.246 361.583 636.002L331.731 687.899C330.554 689.654 328.856 690.761 326.597 690.761H266.755C264.496 690.761 262.797 689.654 261.621 687.899L231.717 635.911L231.701 635.883L231.683 635.856C230.576 634.191 230.576 631.96 231.683 630.295Z" stroke="white" stroke-width="2"/>
<path opacity="0.76" d="M125.266 693.262L125.284 693.235L125.3 693.207L155.204 641.219C156.38 639.464 158.079 638.357 160.338 638.357H220.18C222.439 638.357 224.137 639.464 225.314 641.219L255.166 693.116C255.723 694.872 255.723 697.213 255.166 698.969L225.314 750.866C224.137 752.621 222.439 753.728 220.18 753.728H160.338C158.079 753.728 156.38 752.621 155.204 750.866L125.3 698.878L125.284 698.85L125.266 698.823C124.159 697.158 124.159 694.927 125.266 693.262Z" stroke="white" stroke-width="2"/>
</g>
<defs>
<filter id="filter0_f_103_1395" x="63" y="-112" width="319.243" height="337" filterUnits="userSpaceOnUse" color-interpolation-filters="sRGB">
<feFlood flood-opacity="0" result="BackgroundImageFix"/>
<feBlend mode="normal" in="SourceGraphic" in2="BackgroundImageFix" result="shape"/>
<feGaussianBlur stdDeviation="1.5" result="effect1_foregroundBlur_103_1395"/>
</filter>
<filter id="filter1_f_103_1395" x="51" y="-124" width="343.243" height="361" filterUnits="userSpaceOnUse" color-interpolation-filters="sRGB">
<feFlood flood-opacity="0" result="BackgroundImageFix"/>
<feBlend mode="normal" in="SourceGraphic" in2="BackgroundImageFix" result="shape"/>
<feGaussianBlur stdDeviation="7.5" result="effect1_foregroundBlur_103_1395"/>
</filter>
<filter id="filter2_f_103_1395" x="12" y="384" width="354" height="373.728" filterUnits="userSpaceOnUse" color-interpolation-filters="sRGB">
<feFlood flood-opacity="0" result="BackgroundImageFix"/>
<feBlend mode="normal" in="SourceGraphic" in2="BackgroundImageFix" result="shape"/>
<feGaussianBlur stdDeviation="1.5" result="effect1_foregroundBlur_103_1395"/>
</filter>
<filter id="filter3_f_103_1395" x="0" y="372" width="378" height="397.728" filterUnits="userSpaceOnUse" color-interpolation-filters="sRGB">
<feFlood flood-opacity="0" result="BackgroundImageFix"/>
<feBlend mode="normal" in="SourceGraphic" in2="BackgroundImageFix" result="shape"/>
<feGaussianBlur stdDeviation="7.5" result="effect1_foregroundBlur_103_1395"/>
</filter>
</defs>
</svg>
