<svg width="1512" height="770" viewBox="0 0 1512 770" fill="none" xmlns="http://www.w3.org/2000/svg">
<g filter="url(#filter0_f_103_1394)">
<path d="M-55.4902 257.286L-55.4723 257.259L-55.4562 257.231L-17.5557 191.342C-16.024 189.052 -13.7924 187.589 -10.8227 187.589H65.0113C67.981 187.589 70.2126 189.052 71.7442 191.342L109.593 257.141C110.327 259.431 110.327 262.485 109.593 264.774L71.7442 330.574C70.2126 332.863 67.981 334.326 65.0113 334.326H-10.8227C-13.7924 334.326 -16.024 332.863 -17.5557 330.573L-55.4562 264.684L-55.4723 264.656L-55.4902 264.63C-56.9525 262.43 -56.9525 259.486 -55.4902 257.286Z" stroke="white" stroke-width="2"/>
<path opacity="0.24" d="M-55.4902 97.6966L-55.4723 97.6697L-55.4562 97.6416L-17.5557 31.7527C-16.024 29.4628 -13.7924 28 -10.8227 28H65.0113C67.981 28 70.2126 29.4628 71.7442 31.7526L109.593 97.5519C110.327 99.8416 110.327 102.895 109.593 105.185L71.7442 170.984C70.2126 173.274 67.981 174.737 65.0113 174.737H-10.8227C-13.7924 174.737 -16.024 173.274 -17.5557 170.984L-55.4562 105.095L-55.4723 105.067L-55.4902 105.04C-56.9525 102.841 -56.9525 99.8965 -55.4902 97.6966Z" stroke="white" stroke-width="2"/>
<path opacity="0.4" d="M79.3673 178.429L79.3851 178.402L79.4012 178.374L117.302 112.202C118.834 109.901 121.066 108.433 124.034 108.433H199.868C202.836 108.433 205.067 109.901 206.6 112.202L244.449 178.284C245.184 180.586 245.184 183.655 244.449 185.957L206.6 252.039C205.067 254.34 202.836 255.808 199.868 255.808H124.034C121.066 255.808 118.834 254.34 117.302 252.039L79.4012 185.867L79.3851 185.839L79.3673 185.812C77.9036 183.601 77.9036 180.64 79.3673 178.429Z" stroke="white" stroke-width="2"/>
<path opacity="0.56" d="M79.3662 335.165L79.3841 335.138L79.4003 335.11L117.301 269.221C118.832 266.931 121.064 265.469 124.034 265.469H199.868C202.837 265.469 205.069 266.931 206.601 269.221L244.45 335.02C245.183 337.31 245.183 340.364 244.45 342.654L206.601 408.453C205.069 410.743 202.837 412.206 199.868 412.206H124.034C121.064 412.206 118.832 410.743 117.301 408.453L79.4003 342.564L79.3841 342.536L79.3662 342.509C77.904 340.309 77.904 337.365 79.3662 335.165Z" stroke="white" stroke-width="2"/>
<path opacity="0.76" d="M-55.4902 414.96L-55.4723 414.933L-55.4562 414.905L-17.5557 349.016C-16.024 346.726 -13.7924 345.263 -10.8227 345.263H65.0113C67.981 345.263 70.2126 346.726 71.7442 349.016L109.593 414.815C110.327 417.105 110.327 420.159 109.593 422.448L71.7442 488.248C70.2126 490.537 67.981 492 65.0113 492H-10.8227C-13.7924 492 -16.024 490.537 -17.5557 488.247L-55.4562 422.359L-55.4723 422.331L-55.4902 422.304C-56.9525 420.104 -56.9525 417.16 -55.4902 414.96Z" stroke="white" stroke-width="2"/>
</g>
<g filter="url(#filter1_f_103_1394)">
<g filter="url(#filter2_f_103_1394)">
<path d="M-55.4902 257.286L-55.4723 257.259L-55.4562 257.231L-17.5557 191.342C-16.024 189.052 -13.7924 187.589 -10.8227 187.589H65.0113C67.981 187.589 70.2126 189.052 71.7442 191.342L109.593 257.141C110.327 259.431 110.327 262.485 109.593 264.774L71.7442 330.574C70.2126 332.863 67.981 334.326 65.0113 334.326H-10.8227C-13.7924 334.326 -16.024 332.863 -17.5557 330.573L-55.4562 264.684L-55.4723 264.656L-55.4902 264.63C-56.9525 262.43 -56.9525 259.486 -55.4902 257.286Z" stroke="white" stroke-width="2"/>
</g>
<g filter="url(#filter3_f_103_1394)">
<path d="M-55.4902 97.6966L-55.4723 97.6697L-55.4562 97.6416L-17.5557 31.7527C-16.024 29.4628 -13.7924 28 -10.8227 28H65.0113C67.981 28 70.2126 29.4628 71.7442 31.7526L109.593 97.5519C110.327 99.8416 110.327 102.895 109.593 105.185L71.7442 170.984C70.2126 173.274 67.981 174.737 65.0113 174.737H-10.8227C-13.7924 174.737 -16.024 173.274 -17.5557 170.984L-55.4562 105.095L-55.4723 105.067L-55.4902 105.04C-56.9525 102.841 -56.9525 99.8965 -55.4902 97.6966Z" stroke="white" stroke-width="2"/>
</g>
<g filter="url(#filter4_f_103_1394)">
<path d="M79.3673 178.429L79.3851 178.402L79.4012 178.374L117.302 112.202C118.834 109.901 121.066 108.433 124.034 108.433H199.868C202.836 108.433 205.067 109.901 206.6 112.202L244.449 178.284C245.184 180.586 245.184 183.655 244.449 185.957L206.6 252.039C205.067 254.34 202.836 255.808 199.868 255.808H124.034C121.066 255.808 118.834 254.34 117.302 252.039L79.4012 185.867L79.3851 185.839L79.3673 185.812C77.9036 183.601 77.9036 180.64 79.3673 178.429Z" stroke="white" stroke-width="2"/>
</g>
<g filter="url(#filter5_f_103_1394)">
<path d="M79.3662 335.165L79.3841 335.138L79.4003 335.11L117.301 269.221C118.832 266.931 121.064 265.469 124.034 265.469H199.868C202.837 265.469 205.069 266.931 206.601 269.221L244.45 335.02C245.183 337.31 245.183 340.364 244.45 342.654L206.601 408.453C205.069 410.743 202.837 412.206 199.868 412.206H124.034C121.064 412.206 118.832 410.743 117.301 408.453L79.4003 342.564L79.3841 342.536L79.3662 342.509C77.904 340.309 77.904 337.365 79.3662 335.165Z" stroke="white" stroke-width="2"/>
</g>
<g filter="url(#filter6_f_103_1394)">
<path d="M-55.4902 414.96L-55.4723 414.933L-55.4562 414.905L-17.5557 349.016C-16.024 346.726 -13.7924 345.263 -10.8227 345.263H65.0113C67.981 345.263 70.2126 346.726 71.7442 349.016L109.593 414.815C110.327 417.105 110.327 420.159 109.593 422.448L71.7442 488.248C70.2126 490.537 67.981 492 65.0113 492H-10.8227C-13.7924 492 -16.024 490.537 -17.5557 488.247L-55.4562 422.359L-55.4723 422.331L-55.4902 422.304C-56.9525 420.104 -56.9525 417.16 -55.4902 414.96Z" stroke="white" stroke-width="2"/>
</g>
</g>
<g filter="url(#filter7_f_103_1394)">
<path d="M1551.91 58.2676L1551.89 58.2945L1551.87 58.3225L1524.96 105.115C1523.92 106.67 1522.42 107.644 1520.42 107.644L1466.56 107.644C1464.56 107.644 1463.06 106.67 1462.02 105.115L1435.16 58.4133C1434.67 56.8573 1434.67 54.7822 1435.16 53.2263L1462.02 6.52462C1463.06 4.96922 1464.56 3.99573 1466.56 3.99573L1520.42 3.99573C1522.42 3.99573 1523.92 4.96922 1524.96 6.52461L1551.87 53.317L1551.89 53.345L1551.91 53.372C1552.88 54.8374 1552.88 56.8021 1551.91 58.2676Z" stroke="white" stroke-width="2"/>
<path opacity="0.24" d="M1551.91 171.624L1551.89 171.651L1551.87 171.679L1524.96 218.471C1523.92 220.027 1522.42 221 1520.42 221H1466.56C1464.56 221 1463.06 220.027 1462.02 218.471L1435.16 171.769C1434.67 170.213 1434.67 168.138 1435.16 166.582L1462.02 119.881C1463.06 118.325 1464.56 117.352 1466.56 117.352L1520.42 117.352C1522.42 117.352 1523.92 118.325 1524.96 119.881L1551.87 166.673L1551.89 166.701L1551.91 166.728C1552.88 168.194 1552.88 170.158 1551.91 171.624Z" stroke="white" stroke-width="2"/>
<path opacity="0.4" d="M1456.12 114.28L1456.1 114.307L1456.08 114.335L1429.17 161.328C1428.12 162.892 1426.62 163.868 1424.63 163.868H1370.77C1368.78 163.868 1367.28 162.892 1366.23 161.328L1339.37 114.425C1338.88 112.861 1338.88 110.774 1339.37 109.21L1366.23 62.307C1367.28 60.7436 1368.78 59.7669 1370.77 59.7669L1424.63 59.7669C1426.62 59.7669 1428.12 60.7436 1429.17 62.3071L1456.08 109.3L1456.1 109.328L1456.12 109.355C1457.09 110.829 1457.09 112.806 1456.12 114.28Z" stroke="white" stroke-width="2"/>
<path opacity="0.56" d="M1456.12 2.94969L1456.1 2.97662L1456.09 3.00464L1429.17 49.797C1428.13 51.3524 1426.63 52.3259 1424.63 52.3259L1370.77 52.3259C1368.77 52.3259 1367.27 51.3524 1366.23 49.7971L1339.37 3.09539C1338.88 1.53942 1338.88 -0.535656 1339.37 -2.09162L1366.23 -48.7933C1367.27 -50.3487 1368.77 -51.3221 1370.77 -51.3221L1424.63 -51.3221C1426.63 -51.3221 1428.13 -50.3486 1429.17 -48.7932L1456.09 -2.00087L1456.1 -1.97284L1456.12 -1.94592C1457.09 -0.480476 1457.09 1.48425 1456.12 2.94969Z" stroke="white" stroke-width="2"/>
</g>
<g filter="url(#filter8_f_103_1394)">
<path d="M1551.91 58.2676L1551.89 58.2945L1551.87 58.3225L1524.96 105.115C1523.92 106.67 1522.42 107.644 1520.42 107.644L1466.56 107.644C1464.56 107.644 1463.06 106.67 1462.02 105.115L1435.16 58.4133C1434.67 56.8573 1434.67 54.7822 1435.16 53.2263L1462.02 6.52462C1463.06 4.96922 1464.56 3.99573 1466.56 3.99573L1520.42 3.99573C1522.42 3.99573 1523.92 4.96922 1524.96 6.52461L1551.87 53.317L1551.89 53.345L1551.91 53.372C1552.88 54.8374 1552.88 56.8021 1551.91 58.2676Z" stroke="white" stroke-width="2"/>
<path opacity="0.24" d="M1551.91 171.624L1551.89 171.651L1551.87 171.679L1524.96 218.471C1523.92 220.027 1522.42 221 1520.42 221H1466.56C1464.56 221 1463.06 220.027 1462.02 218.471L1435.16 171.769C1434.67 170.213 1434.67 168.138 1435.16 166.582L1462.02 119.881C1463.06 118.325 1464.56 117.352 1466.56 117.352L1520.42 117.352C1522.42 117.352 1523.92 118.325 1524.96 119.881L1551.87 166.673L1551.89 166.701L1551.91 166.728C1552.88 168.194 1552.88 170.158 1551.91 171.624Z" stroke="white" stroke-width="2"/>
<path opacity="0.4" d="M1456.12 114.28L1456.1 114.307L1456.08 114.335L1429.17 161.328C1428.12 162.892 1426.62 163.868 1424.63 163.868H1370.77C1368.78 163.868 1367.28 162.892 1366.23 161.328L1339.37 114.425C1338.88 112.861 1338.88 110.774 1339.37 109.21L1366.23 62.307C1367.28 60.7436 1368.78 59.7669 1370.77 59.7669L1424.63 59.7669C1426.62 59.7669 1428.12 60.7436 1429.17 62.3071L1456.08 109.3L1456.1 109.328L1456.12 109.355C1457.09 110.829 1457.09 112.806 1456.12 114.28Z" stroke="white" stroke-width="2"/>
<path opacity="0.56" d="M1456.12 2.94969L1456.1 2.97662L1456.09 3.00464L1429.17 49.797C1428.13 51.3524 1426.63 52.3259 1424.63 52.3259L1370.77 52.3259C1368.77 52.3259 1367.27 51.3524 1366.23 49.7971L1339.37 3.09539C1338.88 1.53942 1338.88 -0.535656 1339.37 -2.09162L1366.23 -48.7933C1367.27 -50.3487 1368.77 -51.3221 1370.77 -51.3221L1424.63 -51.3221C1426.63 -51.3221 1428.13 -50.3486 1429.17 -48.7932L1456.09 -2.00087L1456.1 -1.97284L1456.12 -1.94592C1457.09 -0.480476 1457.09 1.48425 1456.12 2.94969Z" stroke="white" stroke-width="2"/>
</g>
<g filter="url(#filter9_f_103_1394)">
<path opacity="0.12" d="M1288.83 506.611L1288.85 506.584L1288.87 506.556L1318.77 454.345C1319.95 452.581 1321.65 451.471 1323.9 451.471H1383.74C1386 451.471 1387.7 452.581 1388.88 454.345L1418.73 506.466C1419.29 508.231 1419.29 510.585 1418.73 512.35L1388.88 564.471C1387.7 566.235 1386 567.345 1383.74 567.345H1323.9C1321.65 567.345 1319.95 566.235 1318.77 564.471L1288.87 512.26L1288.85 512.232L1288.83 512.205C1287.72 510.53 1287.72 508.286 1288.83 506.611Z" stroke="white" stroke-width="2"/>
<path d="M1397.27 568.839L1397.28 568.812L1397.3 568.784L1427.2 516.796C1428.38 515.041 1430.08 513.934 1432.34 513.934H1492.18C1494.44 513.934 1496.14 515.041 1497.31 516.796L1527.17 568.694C1527.72 570.449 1527.72 572.79 1527.17 574.546L1497.31 626.443C1496.14 628.198 1494.44 629.305 1492.18 629.305H1432.34C1430.08 629.305 1428.38 628.198 1427.2 626.443L1397.3 574.455L1397.28 574.427L1397.27 574.401C1396.16 572.735 1396.16 570.504 1397.27 568.839Z" stroke="white" stroke-width="2"/>
<path opacity="0.9" d="M1288.83 630.61L1288.85 630.583L1288.86 630.555L1318.77 578.568C1319.94 576.812 1321.64 575.706 1323.9 575.706H1383.74C1386 575.706 1387.7 576.812 1388.88 578.568L1418.73 630.465C1419.29 632.221 1419.29 634.562 1418.73 636.317L1388.88 688.215C1387.7 689.97 1386 691.077 1383.74 691.077H1323.9C1321.64 691.077 1319.94 689.97 1318.77 688.215L1288.86 636.227L1288.85 636.199L1288.83 636.172C1287.72 634.507 1287.72 632.276 1288.83 630.61Z" stroke="white" stroke-width="2"/>
<path opacity="0.24" d="M1397.27 442.905L1397.28 442.878L1397.3 442.85L1427.2 390.862C1428.38 389.107 1430.08 388 1432.34 388H1492.18C1494.44 388 1496.14 389.107 1497.31 390.862L1527.17 442.759C1527.72 444.515 1527.72 446.856 1527.17 448.612L1497.31 500.509C1496.14 502.264 1494.44 503.371 1492.18 503.371H1432.34C1430.08 503.371 1428.38 502.264 1427.2 500.509L1397.3 448.521L1397.28 448.493L1397.27 448.466C1396.16 446.801 1396.16 444.57 1397.27 442.905Z" stroke="white" stroke-width="2"/>
<path opacity="0.4" d="M1503.68 506.611L1503.7 506.584L1503.72 506.556L1533.62 454.345C1534.8 452.581 1536.5 451.471 1538.75 451.471H1598.6C1600.85 451.471 1602.55 452.581 1603.73 454.345L1633.58 506.466C1634.14 508.231 1634.14 510.585 1633.58 512.35L1603.73 564.471C1602.55 566.235 1600.85 567.345 1598.6 567.345H1538.75C1536.5 567.345 1534.8 566.235 1533.62 564.471L1503.72 512.26L1503.7 512.232L1503.68 512.205C1502.58 510.53 1502.58 508.286 1503.68 506.611Z" stroke="white" stroke-width="2"/>
<path opacity="0.56" d="M1503.68 630.295L1503.7 630.268L1503.72 630.24L1533.62 578.252C1534.8 576.497 1536.5 575.39 1538.75 575.39H1598.6C1600.86 575.39 1602.55 576.497 1603.73 578.252L1633.58 630.149C1634.14 631.905 1634.14 634.246 1633.58 636.002L1603.73 687.899C1602.55 689.654 1600.86 690.761 1598.6 690.761H1538.75C1536.5 690.761 1534.8 689.654 1533.62 687.899L1503.72 635.911L1503.7 635.883L1503.68 635.856C1502.58 634.191 1502.58 631.96 1503.68 630.295Z" stroke="white" stroke-width="2"/>
<path opacity="0.76" d="M1397.27 693.262L1397.28 693.235L1397.3 693.207L1427.2 641.219C1428.38 639.464 1430.08 638.357 1432.34 638.357H1492.18C1494.44 638.357 1496.14 639.464 1497.31 641.219L1527.17 693.116C1527.72 694.872 1527.72 697.213 1527.17 698.969L1497.31 750.866C1496.14 752.621 1494.44 753.728 1492.18 753.728H1432.34C1430.08 753.728 1428.38 752.621 1427.2 750.866L1397.3 698.878L1397.28 698.85L1397.27 698.823C1396.16 697.158 1396.16 694.927 1397.27 693.262Z" stroke="white" stroke-width="2"/>
</g>
<g filter="url(#filter10_f_103_1394)">
<path opacity="0.12" d="M1288.83 506.611L1288.85 506.584L1288.87 506.556L1318.77 454.345C1319.95 452.581 1321.65 451.471 1323.9 451.471H1383.74C1386 451.471 1387.7 452.581 1388.88 454.345L1418.73 506.466C1419.29 508.231 1419.29 510.585 1418.73 512.35L1388.88 564.471C1387.7 566.235 1386 567.345 1383.74 567.345H1323.9C1321.65 567.345 1319.95 566.235 1318.77 564.471L1288.87 512.26L1288.85 512.232L1288.83 512.205C1287.72 510.53 1287.72 508.286 1288.83 506.611Z" stroke="white" stroke-width="2"/>
<path d="M1397.27 568.839L1397.28 568.812L1397.3 568.784L1427.2 516.796C1428.38 515.041 1430.08 513.934 1432.34 513.934H1492.18C1494.44 513.934 1496.14 515.041 1497.31 516.796L1527.17 568.694C1527.72 570.449 1527.72 572.79 1527.17 574.546L1497.31 626.443C1496.14 628.198 1494.44 629.305 1492.18 629.305H1432.34C1430.08 629.305 1428.38 628.198 1427.2 626.443L1397.3 574.455L1397.28 574.427L1397.27 574.401C1396.16 572.735 1396.16 570.504 1397.27 568.839Z" stroke="white" stroke-width="2"/>
<path opacity="0.9" d="M1288.83 630.61L1288.85 630.583L1288.86 630.555L1318.77 578.568C1319.94 576.812 1321.64 575.706 1323.9 575.706H1383.74C1386 575.706 1387.7 576.812 1388.88 578.568L1418.73 630.465C1419.29 632.221 1419.29 634.562 1418.73 636.317L1388.88 688.215C1387.7 689.97 1386 691.077 1383.74 691.077H1323.9C1321.64 691.077 1319.94 689.97 1318.77 688.215L1288.86 636.227L1288.85 636.199L1288.83 636.172C1287.72 634.507 1287.72 632.276 1288.83 630.61Z" stroke="white" stroke-width="2"/>
<path opacity="0.24" d="M1397.27 442.905L1397.28 442.878L1397.3 442.85L1427.2 390.862C1428.38 389.107 1430.08 388 1432.34 388H1492.18C1494.44 388 1496.14 389.107 1497.31 390.862L1527.17 442.759C1527.72 444.515 1527.72 446.856 1527.17 448.612L1497.31 500.509C1496.14 502.264 1494.44 503.371 1492.18 503.371H1432.34C1430.08 503.371 1428.38 502.264 1427.2 500.509L1397.3 448.521L1397.28 448.493L1397.27 448.466C1396.16 446.801 1396.16 444.57 1397.27 442.905Z" stroke="white" stroke-width="2"/>
<path opacity="0.4" d="M1503.68 506.611L1503.7 506.584L1503.72 506.556L1533.62 454.345C1534.8 452.581 1536.5 451.471 1538.75 451.471H1598.6C1600.85 451.471 1602.55 452.581 1603.73 454.345L1633.58 506.466C1634.14 508.231 1634.14 510.585 1633.58 512.35L1603.73 564.471C1602.55 566.235 1600.85 567.345 1598.6 567.345H1538.75C1536.5 567.345 1534.8 566.235 1533.62 564.471L1503.72 512.26L1503.7 512.232L1503.68 512.205C1502.58 510.53 1502.58 508.286 1503.68 506.611Z" stroke="white" stroke-width="2"/>
<path opacity="0.56" d="M1503.68 630.295L1503.7 630.268L1503.72 630.24L1533.62 578.252C1534.8 576.497 1536.5 575.39 1538.75 575.39H1598.6C1600.86 575.39 1602.55 576.497 1603.73 578.252L1633.58 630.149C1634.14 631.905 1634.14 634.246 1633.58 636.002L1603.73 687.899C1602.55 689.654 1600.86 690.761 1598.6 690.761H1538.75C1536.5 690.761 1534.8 689.654 1533.62 687.899L1503.72 635.911L1503.7 635.883L1503.68 635.856C1502.58 634.191 1502.58 631.96 1503.68 630.295Z" stroke="white" stroke-width="2"/>
<path opacity="0.76" d="M1397.27 693.262L1397.28 693.235L1397.3 693.207L1427.2 641.219C1428.38 639.464 1430.08 638.357 1432.34 638.357H1492.18C1494.44 638.357 1496.14 639.464 1497.31 641.219L1527.17 693.116C1527.72 694.872 1527.72 697.213 1527.17 698.969L1497.31 750.866C1496.14 752.621 1494.44 753.728 1492.18 753.728H1432.34C1430.08 753.728 1428.38 752.621 1427.2 750.866L1397.3 698.878L1397.28 698.85L1397.27 698.823C1396.16 697.158 1396.16 694.927 1397.27 693.262Z" stroke="white" stroke-width="2"/>
</g>
<defs>
<filter id="filter0_f_103_1394" x="-198" y="24" width="447" height="472" filterUnits="userSpaceOnUse" color-interpolation-filters="sRGB">
<feFlood flood-opacity="0" result="BackgroundImageFix"/>
<feBlend mode="normal" in="SourceGraphic" in2="BackgroundImageFix" result="shape"/>
<feGaussianBlur stdDeviation="1.5" result="effect1_foregroundBlur_103_1394"/>
</filter>
<filter id="filter1_f_103_1394" x="-215" y="7" width="481" height="506" filterUnits="userSpaceOnUse" color-interpolation-filters="sRGB">
<feFlood flood-opacity="0" result="BackgroundImageFix"/>
<feBlend mode="normal" in="SourceGraphic" in2="BackgroundImageFix" result="shape"/>
<feGaussianBlur stdDeviation="10" result="effect1_foregroundBlur_103_1394"/>
</filter>
<filter id="filter2_f_103_1394" x="-67.5869" y="176.589" width="188.73" height="168.737" filterUnits="userSpaceOnUse" color-interpolation-filters="sRGB">
<feFlood flood-opacity="0" result="BackgroundImageFix"/>
<feBlend mode="normal" in="SourceGraphic" in2="BackgroundImageFix" result="shape"/>
<feGaussianBlur stdDeviation="5" result="effect1_foregroundBlur_103_1394"/>
</filter>
<filter id="filter3_f_103_1394" x="-67.5869" y="17" width="188.73" height="168.737" filterUnits="userSpaceOnUse" color-interpolation-filters="sRGB">
<feFlood flood-opacity="0" result="BackgroundImageFix"/>
<feBlend mode="normal" in="SourceGraphic" in2="BackgroundImageFix" result="shape"/>
<feGaussianBlur stdDeviation="5" result="effect1_foregroundBlur_103_1394"/>
</filter>
<filter id="filter4_f_103_1394" x="67.2695" y="97.4329" width="188.73" height="169.375" filterUnits="userSpaceOnUse" color-interpolation-filters="sRGB">
<feFlood flood-opacity="0" result="BackgroundImageFix"/>
<feBlend mode="normal" in="SourceGraphic" in2="BackgroundImageFix" result="shape"/>
<feGaussianBlur stdDeviation="5" result="effect1_foregroundBlur_103_1394"/>
</filter>
<filter id="filter5_f_103_1394" x="67.2695" y="254.469" width="188.73" height="168.737" filterUnits="userSpaceOnUse" color-interpolation-filters="sRGB">
<feFlood flood-opacity="0" result="BackgroundImageFix"/>
<feBlend mode="normal" in="SourceGraphic" in2="BackgroundImageFix" result="shape"/>
<feGaussianBlur stdDeviation="5" result="effect1_foregroundBlur_103_1394"/>
</filter>
<filter id="filter6_f_103_1394" x="-67.5869" y="334.263" width="188.73" height="168.737" filterUnits="userSpaceOnUse" color-interpolation-filters="sRGB">
<feFlood flood-opacity="0" result="BackgroundImageFix"/>
<feBlend mode="normal" in="SourceGraphic" in2="BackgroundImageFix" result="shape"/>
<feGaussianBlur stdDeviation="5" result="effect1_foregroundBlur_103_1394"/>
</filter>
<filter id="filter7_f_103_1394" x="1335" y="-112" width="319.243" height="337" filterUnits="userSpaceOnUse" color-interpolation-filters="sRGB">
<feFlood flood-opacity="0" result="BackgroundImageFix"/>
<feBlend mode="normal" in="SourceGraphic" in2="BackgroundImageFix" result="shape"/>
<feGaussianBlur stdDeviation="1.5" result="effect1_foregroundBlur_103_1394"/>
</filter>
<filter id="filter8_f_103_1394" x="1323" y="-124" width="343.243" height="361" filterUnits="userSpaceOnUse" color-interpolation-filters="sRGB">
<feFlood flood-opacity="0" result="BackgroundImageFix"/>
<feBlend mode="normal" in="SourceGraphic" in2="BackgroundImageFix" result="shape"/>
<feGaussianBlur stdDeviation="7.5" result="effect1_foregroundBlur_103_1394"/>
</filter>
<filter id="filter9_f_103_1394" x="1284" y="384" width="354" height="373.728" filterUnits="userSpaceOnUse" color-interpolation-filters="sRGB">
<feFlood flood-opacity="0" result="BackgroundImageFix"/>
<feBlend mode="normal" in="SourceGraphic" in2="BackgroundImageFix" result="shape"/>
<feGaussianBlur stdDeviation="1.5" result="effect1_foregroundBlur_103_1394"/>
</filter>
<filter id="filter10_f_103_1394" x="1272" y="372" width="378" height="397.728" filterUnits="userSpaceOnUse" color-interpolation-filters="sRGB">
<feFlood flood-opacity="0" result="BackgroundImageFix"/>
<feBlend mode="normal" in="SourceGraphic" in2="BackgroundImageFix" result="shape"/>
<feGaussianBlur stdDeviation="7.5" result="effect1_foregroundBlur_103_1394"/>
</filter>
</defs>
</svg>
