<svg width="1512" height="483" viewBox="0 0 1512 483" fill="none" xmlns="http://www.w3.org/2000/svg">
<g filter="url(#filter0_f_103_251)">
<path d="M1345.39 140.527C1345.52 140.451 1345.72 140.3 1345.82 140.249C1345.7 140.325 1345.52 140.451 1345.39 140.527Z" fill="#D7E0E8"/>
<path d="M1329.56 153.686C1329.61 153.636 1329.68 153.585 1329.73 153.509C1322.38 160.051 1315.41 166.492 1315.41 166.492L1339.51 157.753L1332.69 169.346C1332.69 169.346 1309.17 180.94 1301.44 186.093C1293.72 191.245 1290.28 185.234 1290.28 185.234C1290.28 185.234 1278.26 192.104 1275.68 193.822C1275.33 194.049 1274.52 194.58 1273.41 195.262L1254.24 192.938L1251.16 195.186L1324.81 141.335L1311.42 151.135L1329.56 153.686Z" fill="#4178D1"/>
<path d="M1346.56 139.997C1346.73 140.022 1347.01 139.921 1347.34 139.77C1347.01 139.921 1346.71 140.022 1346.56 139.997Z" fill="#D7E0E8"/>
<path d="M1341.91 143.103C1342.19 142.876 1342.52 142.623 1342.77 142.421C1342.52 142.623 1342.19 142.876 1341.91 143.103Z" fill="#D7E0E8"/>
<path d="M1343.85 141.613C1344.08 141.436 1344.33 141.234 1344.54 141.082C1344.33 141.234 1344.08 141.436 1343.85 141.613Z" fill="#D7E0E8"/>
<path d="M1268.36 219.889C1268.23 219.889 1268.13 219.889 1268.03 219.914C1268.13 219.889 1268.23 219.889 1268.36 219.889Z" fill="#D7E0E8"/>
<path d="M1347.62 139.618C1347.92 139.466 1348.27 139.264 1348.65 139.011C1348.27 139.264 1347.92 139.466 1347.62 139.618Z" fill="#D7E0E8"/>
<path d="M1368.43 124.387C1366.74 124.867 1358.71 131.611 1352.82 136.082L1334.28 134.415L1373.71 105.595C1373.68 105.569 1371.01 123.654 1368.43 124.387Z" fill="#4178D1"/>
<path d="M1348.93 138.86C1349.99 138.152 1351.33 137.193 1352.79 136.081C1351.33 137.193 1349.99 138.152 1348.93 138.86Z" fill="#D7E0E8"/>
<path d="M1219.86 233.225C1226.65 232.467 1252.77 219.03 1258.3 219.585L1269.37 222.061C1269.42 222.036 1269.47 222.01 1269.52 221.96C1267.32 223.45 1264.54 225.445 1262.5 227.264C1258.53 230.75 1219.89 261.085 1215.59 261.388C1211.3 261.691 1186.39 268.561 1186.39 268.561L1196.7 253.962L1162.35 269.42L1134.87 295.184L1114.25 311.677L1156.34 306.348C1156.34 306.348 1148.76 317.411 1146.03 320.872C1143.3 324.357 1082.48 355.299 1082.48 355.299L1028.05 341.558L1135.72 263.409C1135.72 263.409 1147.75 257.397 1156.34 256.538C1164.92 255.68 1179.52 243.455 1179.52 243.455L1215.16 221.556L1227.29 212.69L1240.8 215.721C1231.2 222.212 1214.93 233.755 1219.86 233.225Z" fill="#4178D1"/>
<path d="M1261.64 219.889C1261.51 219.889 1261.41 219.864 1261.28 219.864C1261.41 219.889 1261.51 219.889 1261.64 219.889Z" fill="#D7E0E8"/>
<path d="M1262.17 202.183C1262.57 201.93 1262.98 201.678 1263.38 201.45C1262.98 201.678 1262.57 201.93 1262.17 202.183Z" fill="#D7E0E8"/>
<path d="M1270.88 219.737C1272.25 219.661 1273.1 219.56 1273.1 219.56C1273.1 219.56 1272.78 219.762 1272.3 220.091C1272.35 220.065 1272.4 220.015 1272.45 219.99L1270.88 219.737Z" fill="#6E9ECC"/>
<path d="M1264.59 200.692C1264.95 200.49 1265.28 200.263 1265.63 200.061C1265.28 200.288 1264.92 200.49 1264.59 200.692Z" fill="#D7E0E8"/>
<path d="M1334.41 149.418C1334.76 149.115 1335.11 148.812 1335.47 148.509C1335.11 148.787 1334.76 149.115 1334.41 149.418Z" fill="#D7E0E8"/>
<path d="M1331.65 151.818C1331.98 151.54 1332.31 151.237 1332.61 150.959C1332.31 151.262 1331.98 151.54 1331.65 151.818Z" fill="#D7E0E8"/>
<path d="M1337.06 147.119C1337.44 146.816 1337.79 146.488 1338.15 146.185C1337.82 146.488 1337.44 146.816 1337.06 147.119Z" fill="#D7E0E8"/>
<path d="M1271.94 196.171C1272.22 195.994 1272.45 195.843 1272.7 195.691C1272.45 195.843 1272.22 195.994 1271.94 196.171Z" fill="#D7E0E8"/>
<path d="M1270.1 197.308C1270.3 197.182 1270.45 197.08 1270.63 196.979C1270.45 197.08 1270.3 197.182 1270.1 197.308Z" fill="#D7E0E8"/>
<path d="M1266.69 199.404C1267.5 198.899 1268.28 198.419 1269.04 197.964C1268.3 198.419 1267.52 198.899 1266.69 199.404Z" fill="#D7E0E8"/>
<path d="M1339.61 144.998C1339.96 144.72 1340.32 144.417 1340.64 144.139C1340.29 144.417 1339.94 144.695 1339.61 144.998Z" fill="#D7E0E8"/>
<path d="M1271.01 220.95C1271.21 220.823 1271.34 220.722 1271.51 220.621C1271.34 220.722 1271.18 220.823 1271.01 220.95Z" fill="#D7E0E8"/>
<path d="M1260.2 219.788C1260.07 219.788 1259.95 219.762 1259.82 219.762C1259.92 219.762 1260.05 219.762 1260.2 219.788Z" fill="#D7E0E8"/>
<path d="M1486.94 292.582L1452.21 281.418L1479.87 241.384L1523.97 248.431L1486.94 292.582Z" fill="#4178D1"/>
<path d="M1454.28 146.538C1454.53 146.311 1454.86 146.033 1455.17 145.781C1454.86 146.058 1454.56 146.311 1454.28 146.538Z" fill="#D7E0E8"/>
<path d="M1453.2 147.473C1453.4 147.296 1453.65 147.094 1453.9 146.866C1453.65 147.094 1453.37 147.321 1453.2 147.473Z" fill="#D7E0E8"/>
<path d="M1422.53 166.492C1422.53 166.492 1399.12 194.201 1397.93 198.318C1397.53 199.732 1395.13 204.304 1392.2 209.709L1344.94 203.976L1370.15 183.542C1370.15 183.542 1378.41 173.236 1380.73 169.372C1381.29 168.437 1383.96 165.634 1387.73 161.921L1422.31 166.796C1422.43 166.593 1422.53 166.492 1422.53 166.492Z" fill="#4178D1"/>
<path d="M1390.15 213.397C1390.73 212.337 1391.31 211.276 1391.9 210.265C1391.31 211.276 1390.76 212.337 1390.15 213.397Z" fill="#D7E0E8"/>
<path d="M1523.64 105.721L1510.13 115.673C1510.13 115.673 1478.2 120.244 1476.99 124.387C1476.06 127.544 1462.29 139.668 1455.7 145.326L1409.3 141.158C1405.71 144.543 1401.8 148.256 1398.03 151.843C1409.55 140.805 1422.53 128.756 1422.53 128.756L1521.32 67.5554L1509.24 94.203L1523.64 105.721Z" fill="#4178D1"/>
<path d="M1401.85 217.312C1401.8 217.338 1401.74 217.388 1401.69 217.414C1401.74 217.363 1401.8 217.338 1401.85 217.312Z" fill="#D7E0E8"/>
<path d="M1405.16 244.616C1405.56 244.389 1405.94 244.212 1406.24 244.035C1405.94 244.212 1405.59 244.389 1405.16 244.616Z" fill="#D7E0E8"/>
<path d="M1401.59 246.511C1402.83 245.854 1403.92 245.273 1404.83 244.793C1403.92 245.273 1402.83 245.854 1401.59 246.511Z" fill="#D7E0E8"/>
<path d="M1406.47 243.909C1406.7 243.783 1406.92 243.657 1407.08 243.581C1406.92 243.682 1406.72 243.783 1406.47 243.909Z" fill="#D7E0E8"/>
<path d="M1399.47 247.647C1400.13 247.294 1400.79 246.965 1401.42 246.637C1400.79 246.94 1400.13 247.294 1399.47 247.647Z" fill="#D7E0E8"/>
<path d="M1397.15 248.86C1397.86 248.481 1398.54 248.127 1399.22 247.774C1398.54 248.127 1397.83 248.481 1397.15 248.86Z" fill="#D7E0E8"/>
<path d="M1387.7 217.792C1388.41 216.529 1389.14 215.241 1389.85 213.978C1389.12 215.241 1388.41 216.529 1387.7 217.792Z" fill="#D7E0E8"/>
<path d="M1399.04 218.954C1398.99 218.979 1398.97 219.005 1398.92 219.03C1398.94 219.005 1398.99 219.005 1399.04 218.954Z" fill="#D7E0E8"/>
<path d="M1407.23 243.506C1407.3 243.455 1407.4 243.404 1407.4 243.404C1407.4 243.404 1407.35 243.455 1407.23 243.506Z" fill="#D7E0E8"/>
<path d="M1426.9 227.592C1429.45 224.258 1432.76 219.863 1436.32 215.165C1432.76 219.863 1429.43 224.258 1426.9 227.592Z" fill="#D7E0E8"/>
<path d="M1407.93 213.347C1407.83 213.423 1407.76 213.473 1407.66 213.549C1407.73 213.473 1407.83 213.398 1407.93 213.347Z" fill="#D7E0E8"/>
<path d="M1378.89 233.225L1397.93 219.585L1387.98 226.708L1423.21 232.341C1424.05 231.28 1425.29 229.663 1426.83 227.668C1424.78 230.345 1423.24 232.341 1422.51 233.25C1418.21 238.504 1407.4 243.454 1407.4 243.454C1407.4 243.454 1407.55 243.379 1407.83 243.252L1312.2 226.86L1326.53 216.908L1383.05 225.95C1380.65 230.194 1378.89 233.225 1378.89 233.225Z" fill="#4178D1"/>
<path d="M1383.26 225.597C1383.79 224.662 1384.37 223.652 1384.95 222.616C1384.37 223.677 1383.81 224.662 1383.26 225.597Z" fill="#D7E0E8"/>
<path d="M1385.53 221.606C1386.06 220.671 1386.62 219.712 1387.17 218.727C1386.62 219.712 1386.09 220.671 1385.53 221.606Z" fill="#D7E0E8"/>
<path d="M1398.26 219.383C1398.21 219.408 1398.18 219.434 1398.13 219.459C1398.18 219.434 1398.23 219.408 1398.26 219.383Z" fill="#D7E0E8"/>
<path d="M1398.01 151.868C1394.24 155.454 1390.66 158.965 1387.7 161.87C1390.66 158.965 1394.24 155.48 1398.01 151.868Z" fill="#D7E0E8"/>
<path d="M1394.75 250.098C1395.48 249.719 1396.24 249.34 1396.97 248.936C1395.41 249.744 1393.81 250.578 1392.32 251.335C1385.61 254.771 1369.84 272.805 1357.54 281.393C1345.24 289.981 1322.91 307.156 1322.91 307.156L1357.54 256.488L1332.71 261.338C1332.71 261.338 1320.49 274.598 1313.11 281.393C1305.74 288.187 1259.97 308.874 1255.37 311.45C1250.8 314.027 1245.37 287.404 1245.37 287.404L1262.5 261.338L1309 229.058L1307 230.447L1394.75 250.098Z" fill="#4178D1"/>
<path d="M1409.98 211.857C1412.76 209.785 1415.44 207.487 1417.38 205.214C1423.39 198.116 1438.65 176.646 1443.9 175.788C1449.16 174.929 1469.84 174.07 1469.84 174.07L1458.8 185.234C1458.8 185.234 1446.73 201.4 1436.43 215.064L1409.98 211.857C1409.98 211.857 1410 211.857 1409.98 211.857Z" fill="#4178D1"/>
<path d="M1121.96 253.078C1118.52 253.078 1133.12 238.479 1133.12 238.479L1109.08 243.404L1075.58 267.652L1048.1 289.122L1028.02 305.439L1051.69 298.165H1062.68C1062.68 298.165 1023.17 321.756 1018.02 325.191C1012.87 328.626 1000.84 332.491 997.41 333.577C993.975 334.663 1007.72 319.811 1007.72 319.811L1012.03 308.015C1012.03 308.015 1001.4 313.143 992.535 319.154C983.669 325.191 949.318 357.471 943.306 360.224C937.295 362.978 924.413 374.142 924.413 374.142C924.413 374.142 921.407 380.835 919.968 386.468L918.629 360.325L1051.72 244.718L1139.79 233.225L1204.5 211.074L1150.3 243.404C1150.3 243.404 1125.39 253.078 1121.96 253.078Z" fill="#4178D1"/>
<path d="M924.438 374.167C924.438 374.167 937.32 363.003 943.331 360.249C949.343 357.496 983.694 325.216 992.56 319.179C1001.43 313.143 1012.06 308.04 1012.06 308.04L1007.74 319.836C1007.74 319.836 994 334.663 997.435 333.602C1000.87 332.516 1012.89 328.676 1018.05 325.216C1023.2 321.781 1062.7 298.19 1062.7 298.19H1051.71L1028.05 305.464L1048.13 289.147L1075.61 267.678L1109.1 243.429L1133.15 238.504C1133.15 238.504 1118.55 253.103 1121.98 253.103C1125.42 253.103 1150.32 243.455 1150.32 243.455L1204.53 211.124L1215.16 221.556L1179.52 243.455C1179.52 243.455 1164.92 255.68 1156.33 256.539C1147.75 257.397 1135.72 263.409 1135.72 263.409L1028.05 341.558L1082.48 355.299C1082.48 355.299 1143.3 324.357 1146.03 320.872C1148.76 317.386 1156.33 306.348 1156.33 306.348L1114.25 311.678L1134.87 295.184L1162.35 269.42L1196.7 253.962L1186.37 268.536C1186.37 268.536 1211.27 261.666 1215.57 261.363C1219.86 261.06 1258.51 230.75 1262.47 227.239C1264.52 225.42 1267.29 223.45 1269.49 221.935C1270.05 221.556 1270.55 221.227 1271.01 220.924C1271.18 220.798 1271.34 220.697 1271.51 220.596C1271.79 220.419 1272.07 220.217 1272.3 220.091C1272.78 219.788 1273.1 219.56 1273.1 219.56C1273.1 219.56 1272.22 219.636 1270.88 219.737C1270.53 219.762 1270.1 219.788 1269.67 219.813C1269.59 219.813 1269.52 219.813 1269.44 219.813C1269.09 219.838 1268.71 219.838 1268.33 219.863C1268.23 219.863 1268.1 219.863 1268 219.889C1267.52 219.914 1267.04 219.914 1266.56 219.939C1266.01 219.939 1265.53 219.964 1265.07 219.964C1264.92 219.964 1264.79 219.964 1264.64 219.964C1264.24 219.964 1263.83 219.964 1263.43 219.964C1263.3 219.964 1263.2 219.964 1263.08 219.964C1262.57 219.964 1262.09 219.939 1261.61 219.914C1261.49 219.914 1261.38 219.889 1261.26 219.889C1260.88 219.863 1260.53 219.838 1260.15 219.813C1260.02 219.813 1259.89 219.788 1259.77 219.788C1259.31 219.737 1258.88 219.687 1258.48 219.611C1258.43 219.611 1258.33 219.611 1258.28 219.611C1252.75 219.055 1226.63 232.493 1219.83 233.25C1214.91 233.781 1231.18 222.263 1240.77 215.696C1241.2 215.393 1241.63 215.115 1242.04 214.837C1243.98 213.524 1245.52 212.463 1246.43 211.882C1246.61 211.755 1246.76 211.654 1246.89 211.579C1247.14 211.402 1247.27 211.326 1247.27 211.326C1247.27 211.326 1247.39 211.25 1247.57 211.149C1247.97 210.897 1248.78 210.417 1249.84 209.76C1249.97 209.684 1250.09 209.609 1250.22 209.533C1250.83 209.154 1251.51 208.75 1252.27 208.295C1253.53 207.537 1254.92 206.679 1256.43 205.744C1258.25 204.633 1260.2 203.445 1262.14 202.258C1262.55 202.006 1262.95 201.753 1263.35 201.526C1263.76 201.273 1264.16 201.021 1264.57 200.793C1264.92 200.591 1265.25 200.364 1265.6 200.162C1265.98 199.935 1266.34 199.707 1266.69 199.48C1267.5 198.975 1268.28 198.495 1269.04 198.04C1269.39 197.813 1269.77 197.586 1270.1 197.383C1270.3 197.257 1270.45 197.156 1270.63 197.055C1271.08 196.777 1271.51 196.499 1271.92 196.247C1272.2 196.07 1272.42 195.918 1272.68 195.767C1272.9 195.615 1273.18 195.464 1273.38 195.312C1274.47 194.63 1275.3 194.125 1275.66 193.873C1278.23 192.155 1290.25 185.285 1290.25 185.285C1290.25 185.285 1293.69 191.296 1301.42 186.144C1309.15 180.991 1332.66 169.397 1332.66 169.397L1339.48 157.804L1315.39 166.543C1315.39 166.543 1322.36 160.102 1329.71 153.56C1330.34 153.005 1330.97 152.424 1331.6 151.868C1331.93 151.59 1332.26 151.287 1332.56 151.009C1333.17 150.479 1333.75 149.974 1334.36 149.443C1334.71 149.14 1335.06 148.837 1335.42 148.534C1335.97 148.054 1336.48 147.624 1337.01 147.17C1337.36 146.867 1337.74 146.538 1338.09 146.235C1338.6 145.806 1339.05 145.427 1339.53 145.048C1339.89 144.77 1340.24 144.467 1340.57 144.189C1341.02 143.81 1341.43 143.482 1341.86 143.154C1342.14 142.926 1342.46 142.674 1342.72 142.472C1343.12 142.169 1343.45 141.916 1343.78 141.664C1344 141.487 1344.26 141.285 1344.46 141.133C1344.79 140.906 1345.04 140.754 1345.32 140.577C1345.44 140.502 1345.65 140.35 1345.75 140.3C1346.08 140.123 1346.33 140.022 1346.48 140.047C1346.66 140.072 1346.93 139.971 1347.26 139.82C1347.36 139.769 1347.47 139.719 1347.57 139.668C1347.87 139.517 1348.22 139.314 1348.6 139.062C1348.7 139.011 1348.78 138.961 1348.85 138.91C1349.92 138.228 1351.25 137.243 1352.72 136.132C1358.63 131.661 1366.66 124.917 1368.35 124.437C1370.93 123.705 1373.61 105.62 1373.61 105.62L1392.22 121.078L1422.43 128.807C1422.43 128.807 1409.45 140.881 1397.93 151.893C1394.17 155.505 1390.56 158.991 1387.63 161.921C1383.86 165.659 1381.18 168.463 1380.63 169.397C1378.33 173.262 1370.05 183.567 1370.05 183.567L1344.84 204.001L1343.27 205.264L1326.48 216.933L1312.15 226.885L1308.9 229.158L1262.39 261.439L1245.27 287.505C1245.27 287.505 1250.7 314.128 1255.27 311.551C1259.84 308.975 1305.64 288.288 1313.01 281.494C1320.39 274.699 1332.61 261.439 1332.61 261.439L1357.44 256.589L1322.81 307.257C1322.81 307.257 1345.14 290.082 1357.44 281.494C1369.74 272.906 1385.5 254.872 1392.22 251.436C1393.74 250.679 1395.3 249.845 1396.87 249.037C1396.92 249.012 1397 248.986 1397.05 248.936C1397.75 248.557 1398.44 248.203 1399.12 247.85C1399.19 247.799 1399.3 247.774 1399.37 247.723C1400.03 247.37 1400.68 247.041 1401.32 246.713C1401.39 246.688 1401.44 246.637 1401.52 246.612C1402.73 245.955 1403.84 245.374 1404.75 244.894C1404.85 244.844 1404.98 244.768 1405.08 244.718C1405.48 244.49 1405.86 244.314 1406.17 244.137C1406.27 244.086 1406.32 244.061 1406.39 244.01C1406.65 243.884 1406.85 243.758 1407 243.682C1407.07 243.632 1407.1 243.632 1407.15 243.606C1407.25 243.556 1407.33 243.505 1407.33 243.505C1407.33 243.505 1418.14 238.58 1422.43 233.301C1423.16 232.417 1424.71 230.396 1426.75 227.719C1429.35 224.334 1432.66 219.939 1436.2 215.241C1436.22 215.191 1436.25 215.165 1436.3 215.115C1446.6 201.45 1458.68 185.285 1458.68 185.285L1469.72 174.121C1469.72 174.121 1449.03 174.979 1443.78 175.838C1438.52 176.697 1423.27 198.166 1417.25 205.264C1415.33 207.537 1412.63 209.836 1409.85 211.907C1409.17 212.412 1408.46 212.917 1407.78 213.397C1407.68 213.473 1407.61 213.524 1407.5 213.599C1405.41 215.064 1403.36 216.352 1401.72 217.363C1401.67 217.388 1401.62 217.439 1401.57 217.464C1400.48 218.121 1399.57 218.651 1398.92 219.03C1398.87 219.055 1398.82 219.08 1398.79 219.106C1398.54 219.257 1398.31 219.383 1398.16 219.459C1398.11 219.485 1398.06 219.51 1398.03 219.535C1397.93 219.586 1397.83 219.661 1397.83 219.661L1378.79 233.301C1378.79 233.301 1380.53 230.27 1382.98 226.001C1383.03 225.9 1383.1 225.799 1383.16 225.698C1383.69 224.764 1384.27 223.753 1384.85 222.718C1385.05 222.389 1385.23 222.036 1385.43 221.707C1385.96 220.773 1386.51 219.813 1387.07 218.828C1387.25 218.525 1387.42 218.222 1387.6 217.893C1388.31 216.63 1389.04 215.342 1389.75 214.079C1389.85 213.877 1389.95 213.7 1390.08 213.498C1390.66 212.437 1391.24 211.377 1391.82 210.366C1391.92 210.189 1392.05 209.987 1392.15 209.785C1395.08 204.405 1397.48 199.808 1397.88 198.394C1399.04 194.277 1422.48 166.568 1422.48 166.568L1452.16 148.382C1452.16 148.382 1452.51 148.079 1453.15 147.549C1453.35 147.372 1453.6 147.17 1453.85 146.943C1453.98 146.816 1454.11 146.74 1454.26 146.614C1454.54 146.387 1454.84 146.109 1455.14 145.856C1455.32 145.705 1455.47 145.579 1455.67 145.402C1462.26 139.744 1476.03 127.62 1476.96 124.463C1478.18 120.295 1510.1 115.748 1510.1 115.748L1523.62 105.797L1509.24 94.2788L1521.32 67.6313L1532.81 87.4086L1550.97 105.645L1571.03 113.374L1531.09 152.196L1516.32 166.568V180.157V188.77L1485.5 233.326L1479.87 241.485L1452.21 281.519L1486.94 292.683L1523.97 248.532L1536.73 233.326L1540.06 227.744L1564.48 186.977L1571 176.116L1556.48 180.183L1532.79 205.315V190.488C1532.79 190.488 1532.86 190.412 1532.96 190.286C1533.01 190.235 1533.06 190.185 1533.14 190.084C1533.24 189.983 1533.34 189.856 1533.47 189.705C1533.64 189.503 1533.85 189.276 1534.07 188.998C1534.25 188.796 1534.43 188.568 1534.63 188.341C1534.81 188.139 1534.98 187.937 1535.19 187.684C1535.44 187.381 1535.69 187.078 1535.97 186.75C1536.27 186.396 1536.57 186.042 1536.9 185.638C1537.21 185.285 1537.51 184.906 1537.84 184.502C1538.06 184.224 1538.29 183.946 1538.54 183.643C1538.62 183.542 1538.7 183.466 1538.77 183.365C1538.87 183.239 1539 183.087 1539.1 182.961C1539.71 182.228 1540.34 181.471 1540.99 180.662C1541.25 180.359 1541.5 180.056 1541.75 179.728C1542.36 178.97 1542.99 178.212 1543.65 177.429C1543.92 177.076 1544.2 176.747 1544.51 176.394C1545.29 175.434 1546.07 174.449 1546.85 173.464C1547.01 173.287 1547.16 173.11 1547.31 172.908C1548.24 171.721 1549.18 170.534 1550.11 169.347C1550.34 169.069 1550.54 168.791 1550.77 168.513C1551.48 167.604 1552.16 166.72 1552.84 165.811C1553.14 165.406 1553.45 165.028 1553.75 164.623C1554.33 163.84 1554.91 163.083 1555.47 162.3C1555.77 161.895 1556.05 161.491 1556.35 161.112C1556.91 160.329 1557.44 159.597 1557.97 158.839C1558.2 158.511 1558.45 158.182 1558.65 157.854C1559.36 156.819 1560.04 155.833 1560.62 154.899C1561.13 154.091 1561.58 153.333 1561.98 152.626C1568.32 141.386 1578.83 134.667 1578.83 134.667L1595.3 120.926L1610.61 105.822L1621.16 91.7277H1610.61L1637.08 30.2236L1684.66 76.4212L1721.36 105.595C1721.36 105.595 1722.93 108.146 1725.76 112.768C1725.3 115.445 1753.67 133.581 1753.52 134.44C1752.66 139.592 1886 292.607 1886 292.607L1548.62 381.062C1548.62 381.062 1125.39 396.52 1111.65 398.238C1097.91 399.956 924.438 395.662 920.371 393.944C918.78 393.262 919.058 390.105 919.993 386.518C921.432 380.86 924.438 374.167 924.438 374.167Z" fill="url(#paint0_linear_103_251)"/>
<path d="M1256.46 205.668C1254.94 206.602 1253.53 207.461 1252.29 208.219C1251.53 208.674 1250.85 209.103 1250.25 209.457C1250.12 209.532 1249.99 209.608 1249.87 209.684C1248.81 210.341 1248 210.821 1247.59 211.073C1247.42 211.174 1247.29 211.25 1247.29 211.25C1247.29 211.25 1247.16 211.351 1246.91 211.503C1246.78 211.578 1246.63 211.679 1246.46 211.806C1245.55 212.412 1244.01 213.447 1242.06 214.761L1227.69 212.286L1240.34 203.041L1256.46 205.668Z" fill="#4178D1"/>
<path d="M1538.82 183.239C1538.75 183.34 1538.67 183.416 1538.6 183.517C1538.34 183.82 1538.12 184.098 1537.89 184.375C1537.56 184.78 1537.26 185.133 1536.95 185.512C1536.63 185.916 1536.32 186.27 1536.02 186.623C1535.74 186.952 1535.46 187.28 1535.24 187.558C1535.03 187.785 1534.86 187.987 1534.68 188.215C1534.48 188.467 1534.3 188.669 1534.12 188.871C1533.87 189.149 1533.7 189.377 1533.52 189.579C1533.39 189.73 1533.29 189.857 1533.19 189.958C1533.09 190.059 1533.06 190.109 1533.01 190.16C1532.91 190.286 1532.84 190.362 1532.84 190.362V205.188L1556.53 180.056L1551.83 185.057L1564.56 186.851L1540.14 227.618L1493.36 221.935L1485.58 233.2L1516.39 188.644V180.031L1538.82 183.239Z" fill="#4178D1"/>
<path d="M1352.79 136.081C1351.33 137.193 1349.99 138.152 1348.9 138.86C1348.8 138.91 1348.73 138.961 1348.65 139.011C1348.25 139.264 1347.92 139.466 1347.62 139.617C1347.52 139.668 1347.41 139.718 1347.31 139.769C1346.98 139.92 1346.71 140.022 1346.53 139.996C1346.4 139.971 1346.15 140.072 1345.8 140.249C1345.67 140.325 1345.49 140.451 1345.37 140.527C1345.12 140.678 1344.86 140.83 1344.51 141.082C1344.31 141.234 1344.05 141.436 1343.83 141.613C1343.47 141.865 1343.15 142.118 1342.77 142.421C1342.49 142.623 1342.19 142.876 1341.91 143.103C1341.48 143.431 1341.07 143.76 1340.62 144.139C1340.29 144.416 1339.94 144.72 1339.58 144.997C1339.1 145.402 1338.65 145.78 1338.14 146.185C1337.79 146.488 1337.41 146.816 1337.06 147.119C1336.53 147.574 1336 148.028 1335.47 148.483C1335.11 148.786 1334.76 149.089 1334.41 149.392C1333.83 149.898 1333.22 150.428 1332.61 150.958C1332.28 151.236 1331.96 151.539 1331.65 151.817C1331.02 152.373 1330.39 152.929 1329.76 153.509C1329.71 153.56 1329.63 153.611 1329.58 153.686L1311.42 151.11L1324.81 141.31L1334.25 134.389L1352.79 136.081Z" fill="#5587DB"/>
<path d="M1455.7 145.326C1455.5 145.503 1455.34 145.629 1455.17 145.78C1454.86 146.033 1454.54 146.311 1454.28 146.538C1454.13 146.664 1454.03 146.765 1453.88 146.866C1453.63 147.069 1453.37 147.296 1453.17 147.473C1452.54 148.003 1452.19 148.306 1452.19 148.306L1422.51 166.492C1422.51 166.492 1422.41 166.593 1422.26 166.795L1387.68 161.92C1390.63 158.99 1394.24 155.505 1397.98 151.893C1401.77 148.281 1405.69 144.568 1409.25 141.183L1455.7 145.326Z" fill="#5587DB"/>
<path d="M1273.41 195.262C1273.21 195.388 1272.93 195.565 1272.7 195.716C1272.45 195.868 1272.22 196.019 1271.94 196.196C1271.54 196.449 1271.08 196.726 1270.65 197.004C1270.48 197.105 1270.3 197.232 1270.12 197.333C1269.8 197.535 1269.42 197.762 1269.06 197.989C1268.31 198.444 1267.52 198.924 1266.71 199.429C1266.36 199.656 1266.01 199.859 1265.63 200.111C1265.3 200.313 1264.95 200.541 1264.59 200.743C1264.19 200.995 1263.78 201.222 1263.38 201.475C1262.98 201.728 1262.57 201.98 1262.17 202.208C1260.22 203.395 1258.28 204.582 1256.46 205.693L1240.32 203.117L1251.16 195.186L1254.24 192.938L1273.41 195.262Z" fill="#5587DB"/>
<path d="M1258.3 219.585C1258.35 219.585 1258.45 219.585 1258.5 219.585C1258.91 219.661 1259.34 219.712 1259.79 219.762C1259.92 219.788 1260.05 219.788 1260.17 219.788C1260.53 219.813 1260.9 219.838 1261.28 219.863C1261.41 219.863 1261.51 219.889 1261.64 219.889C1262.12 219.914 1262.6 219.939 1263.1 219.939C1263.23 219.939 1263.33 219.939 1263.46 219.939C1263.86 219.939 1264.26 219.939 1264.67 219.939C1264.82 219.939 1264.95 219.939 1265.1 219.939C1265.55 219.939 1266.03 219.939 1266.46 219.914C1267.07 219.889 1267.55 219.889 1268.03 219.863C1268.15 219.863 1268.25 219.863 1268.36 219.838C1268.73 219.813 1269.11 219.813 1269.47 219.788C1269.54 219.788 1269.62 219.788 1269.69 219.788C1270.12 219.762 1270.53 219.737 1270.91 219.712L1272.45 219.99C1272.42 220.015 1272.35 220.065 1272.3 220.091C1272.07 220.242 1271.79 220.419 1271.51 220.596C1271.34 220.697 1271.21 220.798 1271.01 220.924C1270.55 221.227 1270.05 221.556 1269.49 221.934C1269.44 221.96 1269.39 221.985 1269.34 222.036L1258.3 219.585Z" fill="#5587DB"/>
<path d="M1242.06 214.812C1241.66 215.09 1241.23 215.367 1240.8 215.671L1227.29 212.64L1227.69 212.336L1242.06 214.812Z" fill="#5587DB"/>
<path d="M1540.09 227.643L1536.75 233.225L1523.97 248.43L1479.87 241.383L1485.53 233.225L1493.31 221.959L1540.09 227.643Z" fill="#5587DB"/>
<path d="M1392.2 209.684C1392.1 209.861 1392 210.063 1391.87 210.265C1391.31 211.301 1390.73 212.336 1390.13 213.397C1390.03 213.599 1389.92 213.776 1389.8 213.978C1389.09 215.241 1388.36 216.529 1387.65 217.792C1387.47 218.095 1387.3 218.398 1387.12 218.727C1386.57 219.712 1386.03 220.672 1385.48 221.606C1385.28 221.96 1385.1 222.288 1384.9 222.616C1384.32 223.652 1383.74 224.662 1383.21 225.597C1383.16 225.698 1383.08 225.799 1383.03 225.9L1326.5 216.858L1343.3 205.188L1344.86 203.925C1344.94 203.925 1392.2 209.684 1392.2 209.684Z" fill="#5587DB"/>
<path d="M1388.01 226.708L1397.96 219.585C1397.96 219.585 1398.06 219.535 1398.16 219.459C1398.21 219.434 1398.21 219.434 1398.29 219.383C1398.44 219.307 1398.66 219.181 1398.92 219.029C1398.97 219.004 1398.99 218.979 1399.04 218.954C1399.7 218.575 1400.61 218.044 1401.7 217.388C1401.75 217.362 1401.8 217.312 1401.85 217.287C1403.51 216.276 1405.54 214.988 1407.63 213.523C1407.73 213.447 1407.81 213.397 1407.91 213.321C1408.59 212.841 1409.3 212.336 1409.98 211.831L1436.4 215.039C1436.38 215.089 1436.35 215.114 1436.3 215.165C1432.76 219.863 1429.43 224.258 1426.88 227.592C1425.31 229.663 1424.05 231.28 1423.22 232.341L1388.01 226.708Z" fill="#5587DB"/>
<path d="M1407.43 243.404C1407.43 243.404 1407.33 243.455 1407.25 243.505C1407.2 243.531 1407.18 243.531 1407.1 243.581C1406.95 243.657 1406.72 243.783 1406.49 243.909C1406.42 243.96 1406.37 243.985 1406.27 244.036C1405.96 244.187 1405.59 244.389 1405.18 244.617C1405.08 244.667 1404.95 244.743 1404.85 244.794C1403.94 245.273 1402.83 245.854 1401.62 246.511C1401.54 246.536 1401.49 246.587 1401.42 246.612C1400.79 246.94 1400.15 247.294 1399.47 247.622C1399.4 247.673 1399.3 247.698 1399.22 247.749C1398.54 248.102 1397.86 248.481 1397.15 248.835C1397.1 248.86 1397.02 248.885 1396.97 248.936C1396.24 249.315 1395.48 249.719 1394.75 250.098L1306.98 230.472L1308.97 229.083L1312.23 226.81L1407.86 243.202C1407.58 243.329 1407.43 243.404 1407.43 243.404Z" fill="#5587DB"/>
</g>
<g filter="url(#filter1_f_103_251)">
<path d="M260.326 119.521C260.198 119.418 260.008 119.315 259.912 119.246C260.008 119.315 260.198 119.452 260.326 119.521Z" fill="#D7E0E8"/>
<path d="M275.278 132.943C275.215 132.875 275.151 132.841 275.088 132.772C282.04 139.449 288.643 145.99 288.643 145.99L265.85 137.087L272.294 148.9C272.294 148.9 294.548 160.714 301.849 165.987C309.15 171.226 312.42 165.097 312.42 165.097C312.42 165.097 323.785 172.117 326.23 173.863C326.547 174.103 327.341 174.616 328.357 175.335L346.483 172.973L349.404 175.267L279.786 120.342L292.452 130.341L275.278 132.943Z" fill="#6088CA"/>
<path d="M259.215 118.972C259.057 119.006 258.803 118.903 258.485 118.732C258.803 118.903 259.057 119.006 259.215 118.972Z" fill="#D7E0E8"/>
<path d="M263.595 122.157C263.309 121.917 263.023 121.677 262.77 121.438C263.055 121.677 263.341 121.917 263.595 122.157Z" fill="#D7E0E8"/>
<path d="M331.912 200.401C331.976 200.401 332.04 200.401 332.136 200.401C332.072 200.435 332.008 200.435 331.912 200.401Z" fill="#D7E0E8"/>
<path d="M261.785 120.616C261.563 120.445 261.309 120.24 261.118 120.103C261.309 120.24 261.563 120.445 261.785 120.616Z" fill="#D7E0E8"/>
<path d="M333.182 200.469C333.277 200.469 333.404 200.469 333.5 200.469C333.404 200.503 333.277 200.469 333.182 200.469Z" fill="#D7E0E8"/>
<path d="M258.198 118.595C257.912 118.424 257.595 118.253 257.214 117.979C257.595 118.253 257.912 118.458 258.198 118.595Z" fill="#D7E0E8"/>
<path d="M238.516 103.05C240.135 103.529 247.722 110.412 253.278 114.966L270.833 113.254L233.532 83.8396C233.564 83.8738 236.104 102.33 238.516 103.05Z" fill="#6088CA"/>
<path d="M256.96 117.808C255.944 117.089 254.675 116.13 253.31 115C254.706 116.13 255.944 117.123 256.96 117.808Z" fill="#D7E0E8"/>
<path d="M379.053 214.098C372.608 213.344 347.942 199.613 342.704 200.195L332.26 202.729C332.196 202.695 332.165 202.661 332.133 202.626C334.228 204.167 336.831 206.188 338.768 208.037C342.514 211.598 379.084 242.553 383.148 242.827C387.211 243.135 410.766 250.121 410.766 250.121L401.021 235.225L433.496 251.011L459.496 277.309L478.988 294.122L439.179 288.677C439.179 288.677 446.353 299.943 448.925 303.504C451.496 307.065 509.019 338.603 509.019 338.603L560.478 324.598L458.639 244.881C458.639 244.881 447.274 238.752 439.147 237.862C431.02 236.971 417.211 224.507 417.211 224.507L383.497 202.181L372.005 193.141L359.212 196.223C368.291 202.866 383.688 214.646 379.053 214.098Z" fill="#6088CA"/>
<path d="M339.53 200.503C339.626 200.503 339.753 200.503 339.848 200.469C339.753 200.469 339.657 200.469 339.53 200.503Z" fill="#D7E0E8"/>
<path d="M339.022 182.423C338.641 182.184 338.26 181.91 337.879 181.67C338.26 181.91 338.641 182.184 339.022 182.423Z" fill="#D7E0E8"/>
<path d="M330.799 200.332C329.529 200.229 328.704 200.16 328.704 200.16C328.704 200.16 329.022 200.366 329.466 200.708C329.434 200.674 329.371 200.64 329.339 200.606L330.799 200.332Z" fill="#6088CA"/>
<path d="M336.736 180.917C336.419 180.712 336.069 180.472 335.752 180.266C336.101 180.472 336.419 180.712 336.736 180.917Z" fill="#D7E0E8"/>
<path d="M270.705 128.594C270.387 128.286 270.038 127.978 269.721 127.67C270.038 127.978 270.356 128.286 270.705 128.594Z" fill="#D7E0E8"/>
<path d="M273.309 131.06C272.992 130.752 272.706 130.478 272.389 130.169C272.674 130.478 272.992 130.752 273.309 131.06Z" fill="#D7E0E8"/>
<path d="M268.199 126.266C267.85 125.958 267.501 125.616 267.151 125.307C267.469 125.616 267.85 125.924 268.199 126.266Z" fill="#D7E0E8"/>
<path d="M329.786 176.294C329.532 176.123 329.31 175.986 329.056 175.814C329.31 175.951 329.532 176.123 329.786 176.294Z" fill="#D7E0E8"/>
<path d="M331.53 177.459C331.34 177.321 331.181 177.218 331.021 177.115C331.181 177.218 331.34 177.321 331.53 177.459Z" fill="#D7E0E8"/>
<path d="M334.737 179.581C333.975 179.067 333.213 178.588 332.515 178.109C333.245 178.588 333.975 179.067 334.737 179.581Z" fill="#D7E0E8"/>
<path d="M265.786 124.074C265.468 123.8 265.119 123.492 264.802 123.218C265.119 123.492 265.468 123.8 265.786 124.074Z" fill="#D7E0E8"/>
<path d="M330.674 201.565C330.483 201.428 330.356 201.359 330.197 201.222C330.356 201.325 330.515 201.428 330.674 201.565Z" fill="#D7E0E8"/>
<path d="M340.896 200.4C341.024 200.4 341.151 200.366 341.278 200.366C341.151 200.366 341.024 200.366 340.896 200.4Z" fill="#D7E0E8"/>
<path d="M69.3121 152.427C68.4233 151.228 67.5344 149.995 66.6455 148.797C67.5344 149.995 68.4233 151.228 69.3121 152.427Z" fill="#D7E0E8"/>
<path d="M66.0424 147.942C65.3758 147.017 64.7409 146.092 64.0742 145.202C64.7409 146.092 65.3758 147.017 66.0424 147.942Z" fill="#D7E0E8"/>
<path d="M71.9458 155.988C71.2157 155.029 70.4855 154.002 69.7236 153.009C70.4855 154.002 71.2157 154.995 71.9458 155.988Z" fill="#D7E0E8"/>
<path d="M74.5512 159.413C73.9798 158.659 73.3766 157.872 72.7734 157.05C73.3766 157.837 73.9798 158.625 74.5512 159.413Z" fill="#D7E0E8"/>
<path d="M63.2489 143.969C62.6775 143.182 62.1378 142.394 61.6299 141.607C62.1378 142.394 62.6775 143.182 63.2489 143.969Z" fill="#D7E0E8"/>
<path d="M126.454 274.637L159.279 263.235L133.121 222.418L91.4072 229.609L126.454 274.637Z" fill="#6088CA"/>
<path d="M-0.495575 69.6291L9.50424 84.0109L23.9802 99.4199L39.5673 113.425C39.5673 113.425 49.4719 120.273 55.5035 131.745C55.8845 132.464 56.2971 133.217 56.8051 134.039L84.7094 131.334L46.9005 91.7497L-15.543 7L9.50424 69.6291H-0.495575Z" fill="#6088CA"/>
<path d="M77.0585 162.7C76.4871 161.946 75.8839 161.159 75.249 160.337C75.8839 161.159 76.4871 161.946 77.0585 162.7Z" fill="#D7E0E8"/>
<path d="M58.6147 137.087C57.948 136.026 57.3131 135.033 56.7734 134.074C57.3131 134.998 57.948 136.026 58.6147 137.087Z" fill="#D7E0E8"/>
<path d="M60.805 140.374C60.2654 139.586 59.7574 138.799 59.2812 138.045C59.7574 138.833 60.2654 139.586 60.805 140.374Z" fill="#D7E0E8"/>
<path d="M157.342 125.684C157.088 125.444 156.802 125.17 156.517 124.896C156.771 125.17 157.088 125.444 157.342 125.684Z" fill="#D7E0E8"/>
<path d="M158.359 126.608C158.169 126.437 157.915 126.197 157.692 125.992C157.946 126.232 158.169 126.437 158.359 126.608Z" fill="#D7E0E8"/>
<path d="M187.373 145.989C187.373 145.989 209.531 174.239 210.643 178.451C211.023 179.889 213.277 184.58 216.071 190.059L260.769 184.204L236.928 163.35C236.928 163.35 229.118 152.838 226.928 148.9C226.42 147.975 223.88 145.099 220.325 141.298L187.627 146.297C187.437 146.126 187.373 145.989 187.373 145.989Z" fill="#6088CA"/>
<path d="M217.976 193.859C217.405 192.764 216.865 191.702 216.325 190.641C216.865 191.702 217.405 192.764 217.976 193.859Z" fill="#D7E0E8"/>
<path d="M91.7236 84.0106L104.517 94.1805C104.517 94.1805 134.707 98.8375 135.85 103.084C136.739 106.302 149.754 118.664 155.977 124.451L199.849 120.205C203.246 123.663 206.928 127.43 210.515 131.128C199.627 119.896 187.341 107.569 187.341 107.569L93.9141 45.1113L105.311 72.2997L91.7236 84.0106Z" fill="#6088CA"/>
<path d="M206.93 197.867C206.993 197.901 207.025 197.935 207.089 197.969C207.025 197.935 206.961 197.901 206.93 197.867Z" fill="#D7E0E8"/>
<path d="M203.786 225.705C203.405 225.5 203.056 225.295 202.771 225.123C203.056 225.295 203.405 225.5 203.786 225.705Z" fill="#D7E0E8"/>
<path d="M207.152 227.657C205.977 227.007 204.961 226.39 204.072 225.911C204.961 226.39 206.009 226.972 207.152 227.657Z" fill="#D7E0E8"/>
<path d="M202.549 224.986C202.327 224.849 202.105 224.747 201.978 224.644C202.105 224.747 202.295 224.849 202.549 224.986Z" fill="#D7E0E8"/>
<path d="M209.183 228.788C208.548 228.445 207.945 228.068 207.342 227.76C207.945 228.103 208.548 228.445 209.183 228.788Z" fill="#D7E0E8"/>
<path d="M211.373 230.054C210.706 229.678 210.039 229.301 209.404 228.958C210.039 229.301 210.706 229.678 211.373 230.054Z" fill="#D7E0E8"/>
<path d="M220.293 198.346C219.627 197.045 218.928 195.744 218.262 194.442C218.96 195.744 219.627 197.079 220.293 198.346Z" fill="#D7E0E8"/>
<path d="M201.82 224.575C201.756 224.541 201.628 224.473 201.628 224.473C201.628 224.473 201.724 224.541 201.82 224.575Z" fill="#D7E0E8"/>
<path d="M183.247 208.345C180.834 204.955 177.692 200.469 174.358 195.675C177.692 200.469 180.834 204.955 183.247 208.345Z" fill="#D7E0E8"/>
<path d="M201.184 193.792C201.279 193.86 201.374 193.929 201.438 193.998C201.343 193.929 201.279 193.86 201.184 193.792Z" fill="#D7E0E8"/>
<path d="M228.643 214.098L210.643 200.195L220.04 207.455L186.707 213.208C185.913 212.112 184.739 210.468 183.278 208.414C185.215 211.153 186.675 213.173 187.373 214.098C191.437 219.474 201.659 224.507 201.659 224.507C201.659 224.507 201.5 224.439 201.246 224.302L291.689 207.592L278.134 197.456L224.674 206.667C226.96 211.016 228.643 214.098 228.643 214.098Z" fill="#6088CA"/>
<path d="M224.484 206.325C223.976 205.366 223.437 204.339 222.865 203.277C223.437 204.339 223.976 205.366 224.484 206.325Z" fill="#D7E0E8"/>
<path d="M222.358 202.249C221.85 201.29 221.342 200.297 220.803 199.304C221.342 200.297 221.85 201.29 222.358 202.249Z" fill="#D7E0E8"/>
<path d="M210.549 131.094C214.104 134.758 217.501 138.319 220.295 141.298C217.501 138.319 214.104 134.758 210.549 131.094Z" fill="#D7E0E8"/>
<path d="M213.627 231.321C212.929 230.944 212.231 230.534 211.532 230.157C212.993 230.979 214.516 231.835 215.913 232.622C222.262 236.115 237.183 254.537 248.801 263.269C260.42 272.035 281.563 289.567 281.563 289.567L248.801 237.896L272.293 242.861C272.293 242.861 283.849 256.386 290.833 263.303C297.817 270.22 341.117 291.348 345.435 293.95C349.752 296.553 354.895 269.433 354.895 269.433L338.705 242.861L294.737 209.92L296.61 211.324L213.627 231.321Z" fill="#6088CA"/>
<path d="M199.216 192.285C196.612 190.162 194.041 187.834 192.232 185.505C186.549 178.246 172.137 156.365 167.153 155.475C162.169 154.585 142.613 153.729 142.613 153.729L153.058 165.131C153.058 165.131 164.486 181.602 174.232 195.538L199.216 192.285Z" fill="#6088CA"/>
<path d="M471.624 234.334C474.862 234.334 461.053 219.439 461.053 219.439L483.782 224.472L515.464 249.23L541.464 271.145L560.448 287.786L538.067 280.356H527.655C527.655 280.356 565.019 304.428 569.876 307.921C574.765 311.414 586.13 315.351 589.368 316.447C592.606 317.543 579.622 302.408 579.622 302.408L575.527 290.389C575.527 290.389 585.59 295.594 593.971 301.757C602.352 307.921 634.859 340.862 640.542 343.67C646.224 346.478 658.414 357.846 658.414 357.846C658.414 357.846 661.272 364.695 662.637 370.413L663.938 343.704L538.067 225.808L454.767 214.097L393.562 191.497L444.831 224.472C444.831 224.472 468.386 234.334 471.624 234.334Z" fill="#6A9DF3"/>
<path d="M658.446 357.881C658.446 357.881 646.255 346.478 640.573 343.704C634.89 340.897 602.415 307.955 594.002 301.792C585.621 295.628 575.558 290.423 575.558 290.423L579.653 302.442C579.653 302.442 592.637 317.578 589.399 316.482C586.161 315.386 574.764 311.448 569.907 307.955C565.019 304.463 527.686 280.39 527.686 280.39H538.098L560.479 287.821L541.495 271.179L515.496 249.264L483.814 224.507L461.084 219.473C461.084 219.473 474.893 234.369 471.655 234.369C468.417 234.369 444.862 224.507 444.862 224.507L393.593 191.532L383.529 202.181L417.243 224.507C417.243 224.507 431.053 237.005 439.179 237.862C447.306 238.752 458.671 244.881 458.671 244.881L560.511 324.597L509.051 338.602C509.051 338.602 451.528 307.031 448.957 303.504C446.386 299.943 439.211 288.677 439.211 288.677L479.02 294.122L459.528 277.309L433.529 251.011L401.053 235.225L410.799 250.12C410.799 250.12 387.244 243.101 383.18 242.827C379.117 242.518 342.578 211.598 338.8 208.036C336.864 206.187 334.229 204.167 332.165 202.626C331.657 202.25 331.181 201.907 330.737 201.599C330.578 201.462 330.419 201.359 330.26 201.257C329.975 201.051 329.721 200.88 329.53 200.743C329.086 200.435 328.768 200.195 328.768 200.195C328.768 200.195 329.594 200.263 330.864 200.366C331.213 200.4 331.594 200.4 332.006 200.435C332.07 200.435 332.133 200.435 332.229 200.435C332.546 200.469 332.927 200.469 333.276 200.503C333.372 200.503 333.498 200.503 333.594 200.503C334.038 200.537 334.483 200.537 334.959 200.537C335.498 200.537 335.943 200.572 336.356 200.572C336.483 200.572 336.641 200.572 336.768 200.572C337.149 200.572 337.53 200.572 337.911 200.572C338.038 200.572 338.133 200.572 338.26 200.572C338.737 200.572 339.181 200.537 339.657 200.503C339.752 200.503 339.879 200.503 339.975 200.469C340.324 200.435 340.673 200.435 341.022 200.4C341.149 200.4 341.276 200.366 341.403 200.366C341.816 200.332 342.229 200.263 342.609 200.195C342.673 200.195 342.736 200.195 342.8 200.195C348.038 199.647 372.736 213.344 379.149 214.097C383.815 214.645 368.419 202.866 359.339 196.189C358.927 195.88 358.546 195.607 358.165 195.298C356.324 193.963 354.863 192.901 354.006 192.285C353.847 192.148 353.689 192.045 353.562 191.977C353.339 191.806 353.212 191.703 353.212 191.703C353.212 191.703 353.086 191.634 352.927 191.497C352.546 191.258 351.784 190.744 350.768 190.059C350.641 189.991 350.546 189.922 350.419 189.82C349.847 189.443 349.213 188.998 348.482 188.553C347.308 187.765 345.975 186.909 344.546 185.95C342.832 184.82 340.99 183.588 339.149 182.389C338.768 182.149 338.387 181.875 338.006 181.636C337.625 181.396 337.244 181.122 336.864 180.882C336.546 180.677 336.197 180.437 335.879 180.232C335.53 179.992 335.181 179.787 334.864 179.547C334.102 179.033 333.34 178.554 332.641 178.074C332.292 177.835 331.975 177.629 331.626 177.424C331.435 177.287 331.276 177.184 331.118 177.081C330.705 176.808 330.26 176.534 329.88 176.26C329.626 176.088 329.403 175.951 329.149 175.78C328.927 175.643 328.673 175.472 328.483 175.335C327.435 174.65 326.673 174.102 326.356 173.863C323.911 172.116 312.546 165.097 312.546 165.097C312.546 165.097 309.308 171.226 301.975 165.987C294.674 160.714 272.42 148.9 272.42 148.9L265.976 137.086L288.769 145.989C288.769 145.989 282.166 139.415 275.214 132.772C274.611 132.19 274.007 131.642 273.404 131.06C273.087 130.752 272.801 130.478 272.484 130.17C271.912 129.622 271.341 129.108 270.801 128.594C270.484 128.286 270.134 127.978 269.817 127.67C269.309 127.19 268.801 126.745 268.293 126.266C267.944 125.958 267.595 125.615 267.246 125.307C266.769 124.862 266.325 124.485 265.881 124.074C265.563 123.8 265.214 123.492 264.896 123.218C264.452 122.842 264.071 122.499 263.69 122.157C263.404 121.917 263.119 121.677 262.865 121.438C262.484 121.13 262.166 120.89 261.849 120.616C261.627 120.445 261.373 120.239 261.182 120.102C260.865 119.863 260.643 119.691 260.389 119.554C260.262 119.452 260.071 119.349 259.976 119.28C259.658 119.075 259.404 119.007 259.278 119.007C259.119 119.041 258.865 118.938 258.547 118.767C258.452 118.733 258.357 118.664 258.262 118.63C257.976 118.459 257.658 118.253 257.278 118.014C257.182 117.945 257.119 117.911 257.024 117.842C256.008 117.123 254.77 116.164 253.373 115.034C247.786 110.48 240.198 103.598 238.579 103.118C236.135 102.365 233.595 83.9424 233.595 83.9424L215.977 99.7281L187.406 107.604C187.406 107.604 199.691 119.897 210.58 131.163C214.135 134.861 217.564 138.388 220.326 141.367C223.881 145.168 226.421 148.044 226.961 148.969C229.151 152.906 236.96 163.419 236.96 163.419L260.801 184.272L262.293 185.574L278.198 197.49L291.753 207.626L294.832 209.92L338.8 242.861L354.99 269.433C354.99 269.433 349.847 296.587 345.53 293.95C341.213 291.314 297.88 270.22 290.928 263.304C283.944 256.387 272.388 242.861 272.388 242.861L248.897 237.896L281.658 289.567C281.658 289.567 260.547 272.035 248.897 263.269C237.278 254.503 222.357 236.115 216.008 232.622C214.58 231.835 213.088 231.013 211.627 230.157C211.564 230.123 211.5 230.089 211.469 230.054C210.802 229.678 210.135 229.301 209.501 228.959C209.405 228.924 209.342 228.856 209.278 228.822C208.643 228.479 208.04 228.102 207.437 227.794C207.374 227.76 207.31 227.726 207.247 227.692C206.104 227.041 205.056 226.425 204.167 225.945C204.072 225.877 203.945 225.808 203.85 225.774C203.469 225.534 203.12 225.363 202.834 225.192C202.739 225.158 202.707 225.123 202.612 225.055C202.39 224.918 202.167 224.815 202.04 224.712C201.786 224.576 201.723 224.541 201.723 224.541C201.723 224.541 191.501 219.508 187.437 214.132C186.739 213.207 185.279 211.187 183.342 208.447C180.898 204.989 177.755 200.503 174.39 195.709C164.549 181.636 153.12 165.165 153.12 165.165L142.676 153.762C142.676 153.762 162.231 154.653 167.215 155.509C172.2 156.399 186.612 178.28 192.294 185.539C194.104 187.868 196.675 190.196 199.278 192.319C199.913 192.833 200.58 193.347 201.247 193.826C201.342 193.894 201.437 193.963 201.501 194.031C203.501 195.538 205.405 196.839 206.993 197.867C207.056 197.901 207.088 197.935 207.151 197.969C208.167 198.654 209.056 199.168 209.659 199.579C210.04 199.818 210.231 199.921 210.389 200.024C210.612 200.161 210.707 200.229 210.707 200.229L228.707 214.132C228.707 214.132 227.056 211.05 224.738 206.667C224.675 206.564 224.611 206.461 224.58 206.359C224.072 205.4 223.532 204.373 222.961 203.311C222.77 202.969 222.611 202.626 222.421 202.284C221.913 201.325 221.405 200.332 220.865 199.339C220.707 199.031 220.548 198.723 220.357 198.38C219.691 197.079 218.992 195.778 218.326 194.477C218.231 194.271 218.135 194.066 218.008 193.894C217.437 192.799 216.897 191.737 216.358 190.676C216.262 190.47 216.167 190.265 216.072 190.094C213.278 184.615 211.024 179.924 210.643 178.485C209.532 174.308 187.374 146.024 187.374 146.024L159.311 127.464C159.311 127.464 158.962 127.156 158.39 126.608C158.2 126.437 157.946 126.197 157.724 125.992C157.597 125.889 157.501 125.787 157.343 125.65C157.089 125.41 156.803 125.136 156.517 124.862C156.358 124.691 156.2 124.588 156.009 124.417C149.755 118.63 136.74 106.268 135.883 103.05C134.74 98.8036 104.55 94.1466 104.55 94.1466L91.7564 83.9767L105.343 72.2316L93.9468 45.0432L83.0898 65.2119L65.9155 83.8055L46.9634 91.6812L84.7089 131.265L98.6769 145.921V159.789V168.555L127.819 214.029L133.153 222.35L159.311 263.167L126.454 274.569L91.4072 229.541L79.3439 214.029L76.2011 208.345L53.0903 166.74L46.9317 155.646L60.6775 159.789L83.0581 185.437V170.301C83.0581 170.301 82.9946 170.233 82.8994 170.096C82.8359 170.028 82.8041 169.993 82.7406 169.891C82.6454 169.788 82.5502 169.651 82.4232 169.514C82.2645 169.308 82.074 169.069 81.8518 168.795C81.693 168.589 81.5026 168.35 81.3121 168.11C81.1534 167.905 80.9946 167.699 80.8042 167.459C80.5819 167.151 80.328 166.843 80.0423 166.501C79.7566 166.124 79.4709 165.782 79.1534 165.371C78.8677 164.994 78.582 164.617 78.2645 164.206C78.0423 163.932 77.8201 163.624 77.5979 163.35C77.5344 163.248 77.4709 163.179 77.3757 163.076C77.2804 162.939 77.1534 162.802 77.0582 162.665C76.4868 161.912 75.8836 161.125 75.2487 160.303C74.9947 159.995 74.7725 159.686 74.5186 159.344C73.9471 158.591 73.344 157.803 72.7408 156.981C72.4869 156.639 72.2011 156.262 71.9472 155.92C71.217 154.927 70.4869 153.934 69.725 152.941C69.598 152.735 69.4393 152.564 69.3123 152.393C68.4234 151.194 67.5345 149.962 66.6457 148.763C66.4234 148.489 66.233 148.181 66.0425 147.907C65.3759 146.982 64.7409 146.058 64.0743 145.168C63.7886 144.757 63.5029 144.346 63.2172 143.969C62.6457 143.182 62.1061 142.394 61.5981 141.606C61.3124 141.196 61.0585 140.785 60.7727 140.374C60.2331 139.586 59.7252 138.799 59.249 138.045C59.0268 137.703 58.8045 137.36 58.5823 137.052C57.9156 135.991 57.2807 134.998 56.7411 134.039C56.2649 133.217 55.8204 132.43 55.4395 131.745C49.4396 120.274 39.5033 113.425 39.5033 113.425L23.9162 99.4199L9.44025 84.0109L-0.559598 69.6292H9.44025L-15.5435 7L-60.5586 54.1174L-95.2882 83.8739C-95.2882 83.8739 -96.7803 86.4764 -99.4469 91.1676C-99.0024 93.9069 -125.827 112.398 -125.7 113.288C-124.875 118.561 -251 274.638 -251 274.638L68.0742 364.866C68.0742 364.866 468.353 380.652 481.369 382.398C494.353 384.145 658.414 379.762 662.255 378.015C663.747 377.33 663.493 374.112 662.636 370.448C661.271 364.695 658.446 357.881 658.446 357.881Z" fill="url(#paint1_linear_103_251)"/>
<path d="M344.419 185.984C345.847 186.943 347.181 187.799 348.355 188.587C349.054 189.066 349.72 189.477 350.292 189.854C350.419 189.922 350.546 190.025 350.641 190.094C351.657 190.778 352.419 191.258 352.8 191.532C352.958 191.634 353.085 191.737 353.085 191.737C353.085 191.737 353.212 191.84 353.435 192.011C353.562 192.08 353.689 192.182 353.879 192.319C354.736 192.936 356.197 193.997 358.038 195.333L371.625 192.833L359.657 183.416L344.419 185.984Z" fill="#6088CA"/>
<path d="M77.3752 163.11C77.4387 163.213 77.5339 163.281 77.5974 163.384C77.8196 163.692 78.0418 163.966 78.264 164.24C78.5815 164.651 78.8672 165.028 79.1529 165.404C79.4704 165.815 79.7561 166.192 80.0418 166.534C80.2957 166.877 80.5497 167.185 80.8037 167.493C80.9941 167.733 81.1529 167.938 81.3116 168.144C81.5021 168.384 81.6925 168.623 81.8513 168.829C82.0735 169.103 82.264 169.342 82.4227 169.548C82.5497 169.685 82.6449 169.822 82.7401 169.924C82.8354 170.027 82.8671 170.096 82.8989 170.13C82.9941 170.267 83.0576 170.335 83.0576 170.335V185.47L60.677 159.823L65.1214 164.925L53.0898 166.774L76.2006 208.379L120.422 202.592L127.787 214.097L98.6447 168.623V159.857L77.3752 163.11Z" fill="#6088CA"/>
<path d="M253.31 115C254.706 116.13 255.976 117.123 256.992 117.843C257.087 117.911 257.151 117.945 257.246 118.014C257.627 118.253 257.944 118.459 258.23 118.63C258.325 118.699 258.421 118.733 258.516 118.767C258.833 118.904 259.087 119.007 259.246 119.007C259.373 118.973 259.627 119.075 259.944 119.281C260.04 119.349 260.23 119.486 260.357 119.555C260.611 119.726 260.833 119.863 261.151 120.103C261.341 120.24 261.595 120.445 261.817 120.616C262.135 120.89 262.452 121.13 262.833 121.438C263.087 121.643 263.373 121.917 263.659 122.157C264.071 122.5 264.452 122.842 264.865 123.219C265.182 123.493 265.5 123.801 265.849 124.075C266.293 124.486 266.738 124.862 267.214 125.307C267.563 125.616 267.913 125.958 268.262 126.266C268.77 126.711 269.246 127.191 269.786 127.67C270.103 127.978 270.452 128.286 270.77 128.595C271.341 129.108 271.881 129.656 272.452 130.17C272.77 130.444 273.055 130.752 273.373 131.06C273.976 131.642 274.579 132.19 275.182 132.772C275.246 132.841 275.309 132.875 275.373 132.943L292.547 130.341L279.881 120.342L270.928 113.288L253.31 115Z" fill="#6A9DF3"/>
<path d="M65.1223 164.96L60.6462 159.892L46.9004 155.714L53.0908 166.809L65.1223 164.96Z" fill="#6A9DF3"/>
<path d="M56.7422 134.073C57.2819 134.998 57.9168 136.025 58.5834 137.087C58.8056 137.395 59.0279 137.737 59.2501 138.08C59.7263 138.833 60.2342 139.586 60.7739 140.408C61.0596 140.819 61.3135 141.23 61.5992 141.641C62.1389 142.428 62.6786 143.216 63.2183 144.004C63.504 144.415 63.7897 144.825 64.0754 145.202C64.7103 146.127 65.377 147.017 66.0436 147.941C66.2341 148.215 66.4563 148.524 66.6468 148.798C67.5356 150.03 68.4245 151.229 69.3134 152.427C69.4404 152.633 69.5991 152.804 69.7261 152.975C70.488 154.002 71.2181 154.995 71.9483 155.954C72.234 156.331 72.488 156.673 72.7419 157.016C73.3451 157.803 73.9483 158.625 74.5197 159.378C74.7736 159.687 74.9958 160.029 75.2498 160.337C75.8847 161.159 76.4879 161.947 77.0593 162.7C77.1545 162.837 77.2815 162.974 77.3768 163.111L98.6463 159.858V145.99L84.6782 131.334L56.7422 134.073Z" fill="#6A9DF3"/>
<path d="M155.978 124.417C156.168 124.588 156.295 124.725 156.485 124.862C156.771 125.136 157.089 125.41 157.311 125.65C157.438 125.787 157.565 125.889 157.692 125.992C157.914 126.198 158.168 126.437 158.358 126.608C158.93 127.156 159.279 127.465 159.279 127.465L187.342 146.024C187.342 146.024 187.437 146.127 187.564 146.332L220.262 141.333C217.469 138.319 214.072 134.792 210.516 131.094C206.929 127.396 203.247 123.629 199.85 120.171L155.978 124.417Z" fill="#6A9DF3"/>
<path d="M328.387 175.369C328.577 175.506 328.831 175.678 329.053 175.815C329.307 175.986 329.498 176.123 329.784 176.294C330.164 176.534 330.577 176.842 331.022 177.116C331.18 177.218 331.339 177.321 331.53 177.458C331.847 177.664 332.196 177.903 332.545 178.109C333.244 178.588 334.006 179.068 334.768 179.581C335.117 179.821 335.434 180.026 335.783 180.266C336.101 180.471 336.418 180.711 336.768 180.917C337.148 181.156 337.529 181.43 337.91 181.67C338.291 181.91 338.672 182.184 339.053 182.423C340.894 183.622 342.736 184.854 344.45 185.984L359.72 183.348L349.466 175.267L346.545 172.972L328.387 175.369Z" fill="#6A9DF3"/>
<path d="M342.673 200.16C342.609 200.16 342.546 200.16 342.483 200.16C342.102 200.229 341.689 200.297 341.276 200.332C341.149 200.332 341.022 200.366 340.895 200.366C340.546 200.4 340.197 200.434 339.848 200.434C339.752 200.434 339.625 200.434 339.53 200.469C339.086 200.503 338.61 200.503 338.133 200.537C338.006 200.537 337.911 200.537 337.784 200.537C337.403 200.537 337.022 200.537 336.641 200.537C336.514 200.537 336.356 200.537 336.229 200.537C335.784 200.537 335.372 200.537 334.927 200.503C334.356 200.503 333.879 200.469 333.467 200.469C333.372 200.469 333.245 200.469 333.149 200.469C332.8 200.469 332.451 200.434 332.102 200.4C332.038 200.4 331.975 200.4 331.88 200.4C331.467 200.366 331.086 200.366 330.737 200.332L329.276 200.606C329.308 200.64 329.372 200.674 329.403 200.708C329.594 200.845 329.88 201.051 330.134 201.222C330.292 201.325 330.419 201.427 330.61 201.564C331.054 201.873 331.53 202.215 332.038 202.592C332.102 202.626 332.133 202.66 332.165 202.694L342.673 200.16Z" fill="#6088CA"/>
<path d="M358.038 195.298C358.419 195.572 358.832 195.88 359.213 196.189L372.006 193.107L371.625 192.799L358.038 195.298Z" fill="#6088CA"/>
<path d="M76.1699 208.414L79.3445 214.098L91.4078 229.61L133.121 222.419L127.788 214.098L120.423 202.593L76.1699 208.414Z" fill="#6A9DF3"/>
<path d="M216.041 190.059C216.136 190.265 216.232 190.436 216.327 190.641C216.866 191.703 217.406 192.764 217.977 193.86C218.073 194.066 218.168 194.271 218.295 194.442C218.962 195.744 219.66 197.045 220.327 198.346C220.485 198.654 220.644 198.962 220.835 199.305C221.343 200.298 221.882 201.291 222.39 202.25C222.581 202.592 222.739 202.934 222.93 203.277C223.501 204.338 224.041 205.366 224.549 206.324C224.612 206.427 224.676 206.53 224.708 206.633L278.167 197.421L262.262 185.505L260.77 184.204C260.739 184.204 216.041 190.059 216.041 190.059Z" fill="#6A9DF3"/>
<path d="M220.009 207.42L210.613 200.161C210.613 200.161 210.518 200.093 210.422 200.058C210.168 199.887 209.946 199.784 209.724 199.613C208.962 199.168 208.105 198.62 207.089 197.935C207.026 197.901 206.994 197.867 206.93 197.833C205.375 196.805 203.438 195.47 201.438 193.998C201.343 193.929 201.248 193.861 201.184 193.792C200.549 193.313 199.883 192.799 199.216 192.285L174.232 195.538C177.661 200.469 180.804 204.921 183.216 208.345C184.708 210.434 185.883 212.112 186.677 213.173L220.009 207.42Z" fill="#6A9DF3"/>
<path d="M201.66 224.473C201.66 224.473 201.755 224.542 201.85 224.576C202.136 224.747 202.326 224.85 202.58 224.987C202.644 225.021 202.707 225.055 202.803 225.124C203.088 225.295 203.438 225.5 203.818 225.706C203.914 225.774 204.009 225.809 204.136 225.877C204.993 226.356 206.041 226.973 207.215 227.623C207.279 227.658 207.342 227.692 207.406 227.726C207.977 228.069 208.612 228.411 209.247 228.753C209.342 228.788 209.406 228.856 209.469 228.89C210.104 229.267 210.771 229.609 211.437 229.986C211.501 230.02 211.564 230.055 211.596 230.089C212.295 230.466 212.993 230.876 213.691 231.253L296.706 211.221L294.833 209.817L291.754 207.523L201.311 224.233C201.501 224.405 201.66 224.473 201.66 224.473Z" fill="#6A9DF3"/>
</g>
<path d="M128.808 286L448.029 322.121L602.59 316.579H958.722L1025.78 322.121L1080.8 316.579H1171.14C1171.14 316.579 1365.37 301.487 1367.95 304.068C1370.52 306.634 1429 294.928 1429 294.928L1424.71 459L123 445.229L128.808 286Z" fill="url(#paint2_linear_103_251)"/>
<path opacity="0.31" d="M1261.41 349.766L950.262 349L917.71 351.643L780.789 349.826L838.255 353.895C838.255 353.895 706.926 352.529 705.214 352.378C703.502 352.228 672.571 353.144 670.844 352.799C669.116 352.453 631.275 349.586 629.563 350.006C627.85 350.426 486.929 349.511 486.929 349.511C486.929 349.511 393.001 350.937 390.713 350.667C388.424 350.396 235 356.402 235 356.402L387.242 352.153C387.242 352.153 487.201 351.147 490.808 351.102C494.4 351.057 638.201 353.595 638.201 353.595L666.07 354.871C666.07 354.871 697.788 354.165 701.789 354.435C705.805 354.721 740.191 356.042 740.191 356.042L721.323 358.94C721.323 358.94 714.458 359.841 711.594 360.066C708.73 360.291 696.712 360.441 689.256 360.336C681.8 360.231 681.8 359.18 670.919 359.541C660.038 359.901 638.261 359.691 622.804 360.126C607.346 360.547 660.614 360.201 662.918 360.802C665.221 361.402 688.135 362.438 688.135 362.438L710.473 362.168C710.473 362.168 745.404 356.372 748.238 356.342C751.072 356.312 775.682 354.856 777.41 355.021C779.138 355.186 838.149 356.703 842.15 356.132C846.151 355.547 860.699 357.108 867.2 358.009C873.702 358.91 889.75 360.021 889.75 360.021C889.75 360.021 893.372 363.129 887.28 363.009C881.188 362.889 853.667 360.216 845.651 360.562C837.634 360.907 812.432 361.297 807.28 361.027C802.127 360.757 774.046 360.697 771.182 360.742C768.317 360.772 743.131 361.808 743.131 361.808L715.686 365.772C715.686 365.772 693.318 364.075 685.316 364.526C677.299 364.976 630.896 364.691 630.896 364.691L625.744 365.231C625.744 365.231 647.566 365.562 648.097 365.832C648.627 366.087 690.484 366.357 692.196 366.042C693.909 365.727 712.837 367.514 712.837 367.514L727.734 367.333L741.433 363.835L816.327 362.453L851.955 362.018L896.1 365.306L915.043 368.489L927.728 375.742L942.594 379L917.301 366.177L897.206 362.063L934.411 359.495L926.636 357.303L899.449 358.985L851.273 353.955L852.395 352.589L919.999 353.52L953.809 354.811L968.705 354.631L931.88 352.018L956.051 350.201L1310 352.754L1261.41 349.766Z" fill="#0054A5"/>
<path d="M-16.1787 304L302.936 340.029L457.445 334.501H813.459L880.496 340.029L935.496 334.501H1025.8C1025.8 334.501 1219.97 319.448 1222.55 322.022C1225.13 324.582 1521 340.347 1521 340.347V581H-7L-16.1787 304Z" fill="url(#paint3_linear_103_251)"/>
<path opacity="0.58" d="M364.063 387.495L675.411 381.922L707.947 386.995L844.973 381.453L787.421 390.615C787.421 390.615 918.838 386.102 920.566 385.769C922.294 385.42 953.223 386.935 954.951 386.193C956.68 385.451 994.583 379.029 996.296 379.877C998.009 380.726 1139.02 377 1139.02 377C1139.02 377 1232.98 378.742 1235.28 378.166C1237.58 377.591 1391 388.071 1391 388.071L1238.71 381.225C1238.71 381.225 1138.69 380.408 1135.1 380.377C1131.5 380.332 987.578 387.435 987.578 387.435L959.682 390.433C959.682 390.433 927.965 389.373 923.947 389.994C919.929 390.63 885.498 393.826 885.498 393.826L904.344 399.596C904.344 399.596 911.196 401.383 914.062 401.807C916.927 402.246 928.95 402.382 936.409 402.08C943.869 401.762 943.884 399.581 954.77 400.202C965.655 400.823 987.442 400.111 1002.91 400.792C1018.37 401.474 965.079 401.428 962.759 402.7C960.455 403.973 937.501 406.411 937.501 406.411L915.154 406.138C915.154 406.138 880.268 394.568 877.448 394.538C874.613 394.507 850.006 391.796 848.278 392.175C846.55 392.554 787.482 396.461 783.479 395.31C779.477 394.159 764.907 397.566 758.403 399.52C751.899 401.459 735.813 403.973 735.813 403.973C735.813 403.973 732.159 410.455 738.239 410.137C744.333 409.803 771.911 403.912 779.932 404.518C787.952 405.124 813.15 405.623 818.32 404.987C823.49 404.351 851.568 403.882 854.433 403.927C857.299 403.958 882.496 405.775 882.496 405.775L909.908 413.635C909.908 413.635 932.301 409.834 940.321 410.667C948.341 411.5 994.765 410.318 994.765 410.318L999.904 411.378C999.904 411.378 978.072 412.363 977.526 412.908C976.98 413.453 935.106 414.528 933.392 413.908C931.679 413.287 912.728 417.239 912.728 417.239L897.824 417.058L884.164 409.97L809.238 408.062L773.594 407.623L729.385 415.013L710.388 421.858L697.592 437.064L682.673 444L708.144 417.073L728.308 408.289L691.118 403.443L698.911 398.808L726.079 401.958L774.352 390.888L773.246 388.056L705.597 390.857L671.742 393.962L656.839 393.78L693.71 387.904L669.559 384.451L361 393.023L364.063 387.495Z" fill="#0557A7"/>
<path d="M713.506 441.21C713.506 441.21 804.542 442.291 831.644 438.013C858.747 433.735 881.115 429 881.115 429L847.138 440.327L844.134 441.332H878.975C878.975 441.332 944.365 435.288 945.655 435.166C946.945 435.044 998.13 432.456 998.13 432.456L1002 452.309L997.265 470L989.086 438.013H941.755C941.755 438.013 880.675 444.955 879.385 444.955C878.095 444.955 832.934 444.529 832.934 444.529L828.2 441.621L752.916 444.955C752.916 444.955 713.339 450.04 706.025 448.792C698.726 447.559 713.506 441.21 713.506 441.21Z" fill="#0557A7"/>
<path d="M1081 362.769L1158.51 355L1164.53 358.877H1344L1151.64 362.769H1147.33L1112.92 369L1081 362.769Z" fill="url(#paint4_linear_103_251)"/>
<path opacity="0.46" d="M314 373L155.944 361.167L142.689 355.187L-69 347.196L146.218 346L194.427 359.119L314 373Z" fill="url(#paint5_linear_103_251)"/>
<g filter="url(#filter2_f_103_251)">
<ellipse cx="897" cy="929" rx="636" ry="441" fill="#77A7F9"/>
</g>
<defs>
<filter id="filter0_f_103_251" x="912.629" y="24.2236" width="979.37" height="380.412" filterUnits="userSpaceOnUse" color-interpolation-filters="sRGB">
<feFlood flood-opacity="0" result="BackgroundImageFix"/>
<feBlend mode="normal" in="SourceGraphic" in2="BackgroundImageFix" result="shape"/>
<feGaussianBlur stdDeviation="3" result="effect1_foregroundBlur_103_251"/>
</filter>
<filter id="filter1_f_103_251" x="-258" y="0" width="928.938" height="389.802" filterUnits="userSpaceOnUse" color-interpolation-filters="sRGB">
<feFlood flood-opacity="0" result="BackgroundImageFix"/>
<feBlend mode="normal" in="SourceGraphic" in2="BackgroundImageFix" result="shape"/>
<feGaussianBlur stdDeviation="3.5" result="effect1_foregroundBlur_103_251"/>
</filter>
<filter id="filter2_f_103_251" x="181" y="408" width="1432" height="1042" filterUnits="userSpaceOnUse" color-interpolation-filters="sRGB">
<feFlood flood-opacity="0" result="BackgroundImageFix"/>
<feBlend mode="normal" in="SourceGraphic" in2="BackgroundImageFix" result="shape"/>
<feGaussianBlur stdDeviation="40" result="effect1_foregroundBlur_103_251"/>
</filter>
<linearGradient id="paint0_linear_103_251" x1="919.251" y1="214.412" x2="1886.02" y2="214.412" gradientUnits="userSpaceOnUse">
<stop stop-color="#4682BE"/>
<stop stop-color="#538BC2"/>
<stop offset="0.601286" stop-color="#0E4381"/>
<stop offset="1" stop-color="#0356A6"/>
<stop offset="1" stop-color="#578EC4"/>
<stop offset="1" stop-color="#3074B6"/>
<stop offset="1" stop-color="#1260AB"/>
</linearGradient>
<linearGradient id="paint1_linear_103_251" x1="-251" y1="194.901" x2="663.348" y2="194.901" gradientUnits="userSpaceOnUse">
<stop stop-color="#034F98"/>
<stop stop-color="#0356A6"/>
<stop stop-color="#0356A6"/>
<stop offset="0.22616" stop-color="#043979"/>
<stop offset="1" stop-color="#6B9CCB"/>
</linearGradient>
<linearGradient id="paint2_linear_103_251" x1="122.988" y1="372.495" x2="1429" y2="372.495" gradientUnits="userSpaceOnUse">
<stop stop-color="#0356A6"/>
<stop offset="0.6089" stop-color="#578EC4"/>
<stop offset="0.7911" stop-color="#558DC3"/>
<stop offset="0.8567" stop-color="#4E88C1"/>
<stop offset="0.9034" stop-color="#4380BD"/>
<stop offset="0.9413" stop-color="#3275B7"/>
<stop offset="0.9733" stop-color="#1C67AF"/>
<stop offset="1" stop-color="#0356A6"/>
</linearGradient>
<linearGradient id="paint3_linear_103_251" x1="-22" y1="403.997" x2="1521.01" y2="403.997" gradientUnits="userSpaceOnUse">
<stop stop-color="#0356A6"/>
<stop offset="0.187" stop-color="#0B5BA9"/>
<stop offset="0.4699" stop-color="#1F69B0"/>
<stop offset="0.8117" stop-color="#417FBC"/>
<stop offset="1" stop-color="#578EC4"/>
</linearGradient>
<linearGradient id="paint4_linear_103_251" x1="1344" y1="361.999" x2="1081" y2="361.999" gradientUnits="userSpaceOnUse">
<stop stop-color="#0054A5"/>
<stop offset="1" stop-color="#0054A5"/>
</linearGradient>
<linearGradient id="paint5_linear_103_251" x1="301.511" y1="329.644" x2="303.18" y2="410.956" gradientUnits="userSpaceOnUse">
<stop stop-color="#001740"/>
<stop offset="1" stop-color="#0056CC"/>
</linearGradient>
</defs>
</svg>
