<svg width="1512" height="421" viewBox="0 0 1512 421" fill="none" xmlns="http://www.w3.org/2000/svg">
<path d="M-96.8359 330.141L48.5523 329.922L177.051 338.75L184.127 337.414L208.179 299.254L236 274.654V268.016H223.097L231.093 252.201L231.158 251.96L236 233.778L231.816 190.383L221.717 197.787L182.637 275.421L174.466 267.732L158.629 252.858L165.748 214.326L175.54 199.649C175.54 199.649 178.344 191.105 181.476 181.27C182.922 176.735 184.433 171.938 185.792 167.557C188.004 160.372 189.778 154.37 189.998 152.705C190.326 150.273 190.326 132.004 190.239 114.457C190.151 97.1738 189.998 80.5911 189.998 80.5911L198.782 52.2451L206.58 27.0755L214.685 0.898134L199.132 0L183.754 12.8587L105.332 158.816L69.7789 177.392L65.3321 168.104L74.5544 145.41L84.6967 120.481L86.8654 115.136L92.8895 100.328L92.3637 91.9821L91.1151 72.5079L98.2345 41.6428L86.6244 40.9199L24.4779 132.968L-2.24706 181.927L18.9358 143.132L4.93803 138.488L-81.3924 280.787L-96.8359 330.141ZM73.0648 88.8715L79.067 80.8321L77.1612 83.3732L73.0648 88.8715ZM168.639 99.912L199.11 23.3953L191.662 42.1028L182.769 64.4028L168.639 99.912Z" fill="#AACCFA"/>
<path d="M3.42732 153.472L4.93882 138.51L12.6496 145.06L-8.5332 183.483L3.42732 153.472Z" fill="#0557A7"/>
<path d="M-87.6792 281.423L4.93821 138.51L3.44862 153.472L-8.51191 183.483L18.235 134.983L86.6246 40.8982L91.9696 44.5126L72.8459 83.3296L66.8438 91.2813L71.0715 98.0721C71.0715 98.0721 64.3903 108.061 66.8438 110.383C69.2972 112.683 55.0585 138.466 55.0585 138.466L71.0715 124.885L66.8438 133.997L49.7354 166.988L38.0158 195.377L36.8548 209.55L14.1605 268.74L45.2885 213.888L65.8799 203.066L78.1909 187.798C78.1909 187.798 92.8458 177.568 95.2993 174.917C97.7527 172.267 99.089 160.569 99.089 160.569L183.798 12.837L196.022 4.22803L196.46 13.998L192.911 26.4404L162.44 102.234L164.456 112.267L177.139 90.7556L171.575 122.147L153.328 173.143L153.788 183.833L166.23 184.972L161.323 191.807L143.119 241.708L141.345 260.525L140.885 268.74L131.575 290.317L141.367 310.448L176.504 276.078L221.849 197.787L229.844 193.603L219.614 241.686L183.952 288.499L147.062 343.789L43.0103 334.676H-107L-87.6792 281.423Z" fill="url(#paint0_linear_103_1393)"/>
<path d="M219.527 241.73L229.778 193.647V234.873L224.872 253.099L216.854 268.761H229.778V275.333L201.936 299.692L177.073 338.75L147.062 343.789L183.952 288.498L219.527 241.73Z" fill="url(#paint1_linear_103_1393)"/>
<path opacity="0.46" d="M7.9398 281.861L4.85111 304.512L14.1172 310.492L56.5705 290.339L18.2136 313.142L0.776641 324.555V313.142L-4.56836 304.512L7.9398 281.861Z" fill="url(#paint2_linear_103_1393)"/>
<path opacity="0.46" d="M-8.53329 191.829L-4.56836 203.088L26.6254 193.91L51.4665 149.134L31.0065 195.399H37.9725L36.8115 209.572L18.2136 203.088L-4.56836 212.354L-39.2451 260.547L-12.564 213.909L-18.8071 208.389L-17.9089 195.399L-21.5891 189.112L-8.53329 191.829Z" fill="url(#paint3_linear_103_1393)"/>
<path opacity="0.46" d="M146.602 189.112L121.718 193.91L91.4658 260.547L108.377 193.91L95.2555 174.939L98.2128 165.98L111.028 181.642L124.368 185.958L153.262 173.165L153.722 183.877L146.602 189.112Z" fill="url(#paint4_linear_103_1393)"/>
<path opacity="0.46" d="M157.906 117.853L135.059 159.934V148.324L157.906 99.1672V117.853Z" fill="url(#paint5_linear_103_1393)"/>
<path d="M183.754 154.589L153.262 173.165L169.625 127.448L183.995 116.714C184.083 134.085 184.083 152.179 183.754 154.589Z" fill="url(#paint6_linear_103_1393)"/>
<path d="M159.528 215.618L152.408 253.778L140.974 265.738L141.28 260.547L143.055 241.73L155.234 208.389L169.298 201.095L159.528 215.618Z" fill="#0054A5"/>
<path d="M183.756 83.1762L177.075 90.7775L164.391 112.289L162.376 102.256L176.505 67.0755L192.518 55.115L183.756 83.1762Z" fill="url(#paint7_linear_103_1393)"/>
<path d="M175.234 182.869L166.165 184.994L153.723 183.855L179.55 169.288C178.191 173.625 176.68 178.378 175.234 182.869Z" fill="#0054A5"/>
<path d="M192.846 26.4624L196.417 13.998L195.979 4.25H208.421L200.316 30.1645L185.398 44.9946L192.846 26.4624Z" fill="#0054A5"/>
<path d="M176.417 276.122L141.28 310.492L131.488 290.339L168.246 268.499L176.417 276.122Z" fill="#0054A5"/>
<path d="M36.8115 209.572L37.9725 195.399L63.4927 178.992L99.0457 160.591C99.0457 160.591 97.6875 172.311 95.256 174.939C92.8025 177.59 78.1476 187.82 78.1476 187.82L65.8366 203.088L45.2452 213.91L14.1172 268.762L36.8115 209.572Z" fill="#0054A5"/>
<path d="M59.0238 169.791L45.0918 178.115L49.6701 167.009L58.06 150.865L68.2681 147.316L59.0238 169.791Z" fill="#0557A7"/>
<path d="M78.4109 122.606L71.0287 124.906L55.0156 138.488C55.0156 138.488 58.2796 132.573 61.3902 126.177L80.5796 117.305L78.4109 122.606Z" fill="#0054A5"/>
<path d="M72.8023 83.3516L91.926 44.5347L84.8285 75.115L70.8965 85.8707L72.8023 83.3516Z" fill="#0054A5"/>
<path d="M86.6031 102.672L66.9537 112.508C67.1509 111.479 67.1509 110.712 66.8223 110.405C65.486 109.135 66.888 105.542 68.4433 102.563L86.0993 94.3921L86.6031 102.672Z" fill="#0054A5"/>
<path d="M224.872 253.099L216.854 268.762H229.778L184.543 297.064L229.778 275.333L201.936 299.692L177.073 338.75L147.062 343.789L183.952 288.499L202.747 263.811L224.937 252.88L224.872 253.099Z" fill="url(#paint8_linear_103_1393)"/>
<path d="M229.779 193.647V234.873L219.527 241.73L229.779 193.647Z" fill="url(#paint9_linear_103_1393)"/>
<path d="M140.973 265.739L152.408 253.778L168.246 268.499L131.488 290.339L140.798 268.762L140.973 265.739Z" fill="#0F5EAA"/>
<path d="M179.549 169.31L153.722 183.877L153.262 173.187L183.754 154.611C183.514 156.232 181.761 162.19 179.549 169.31Z" fill="url(#paint10_linear_103_1393)"/>
<path d="M169.298 201.095L155.234 208.389L161.28 191.851L166.187 185.016L175.256 182.891C172.102 192.617 169.298 201.095 169.298 201.095Z" fill="#0F5EAA"/>
<path d="M176.504 67.0754L185.398 44.9945L200.315 30.1643L192.517 55.1149L176.504 67.0754Z" fill="url(#paint11_linear_103_1393)"/>
<path d="M183.997 116.714L169.627 127.448L171.511 122.168L177.075 90.7776L183.756 83.1763C183.756 83.1763 183.909 99.6056 183.997 116.714Z" fill="url(#paint12_linear_103_1393)"/>
<path d="M229.778 268.761V275.333L184.543 297.064L229.778 268.761Z" fill="#0F5EAA"/>
<path d="M202.747 263.811L219.527 241.73L229.779 234.874L224.938 252.88L202.747 263.811Z" fill="#0F5EAA"/>
<path d="M80.5791 117.327L61.3896 126.199C63.9307 121.007 66.3622 115.509 66.9318 112.53L86.5812 102.694L80.5791 117.327Z" fill="#0F5EAA"/>
<path d="M68.2686 147.316L58.0605 150.865L66.8009 134.02L71.0287 124.907L78.4109 122.607L68.2686 147.316Z" fill="#0F5EAA"/>
<path d="M68.4208 102.563C69.6914 100.131 71.0276 98.1158 71.0276 98.1158L66.7998 91.325L70.8962 85.8924L84.8063 75.1367L86.0549 94.4357L68.4208 102.563Z" fill="#0F5EAA"/>
<path d="M45.092 178.115L59.0241 169.791L63.4928 178.992L37.9727 195.399L45.092 178.115Z" fill="#1A65AE"/>
<path d="M2090.56 141L2089.29 141.035L1648.34 154.472L1614.03 152.698L1556.37 168.718L1290.5 166.891L1222.94 166.434L1176.17 174.479L1051 370.067L1303.46 372.526L1337.89 392.251L1326.74 373.72L1364.01 375.652L1405.01 405.689L1401.14 377.567L1455.1 380.36L1457 393.428L1573.28 401.842L1573.16 386.473L1725.1 394.324L1725.59 409.711L1778.35 407.551L1780.53 397.187L1799.68 398.171L1799.75 399.822L1816.8 399.067L1850.18 400.788L1848.23 405.671L2008.33 413.944L2007.35 408.903L2015.01 409.307L2015.8 414.331L2016.41 409.377L2040.43 410.625L2073.5 232.76L2087.89 155.421C2089.27 152.856 2090.08 150.239 2090.22 147.569C2090.28 146.392 2090.19 145.216 2089.99 144.039L2090.56 141Z" fill="url(#paint13_linear_103_1393)"/>
<path d="M1989.7 276.251L1729.79 271.807L1802.8 245.653L1732.09 227.297L1677.9 231.232L1580.55 243.159L1427.74 227.719L1481.61 208.714L1370.23 210.347L1184.72 175.305L1056.6 366.677L2049.01 411.433L2082.07 233.586C2063.24 239.277 2029.52 249.746 2025.78 252.96C2020.58 257.422 1989.7 276.251 1989.7 276.251Z" fill="url(#paint14_linear_103_1393)"/>
<path d="M1427.75 227.701L1446 328.912L1456.74 333.461L1465.57 394.236L1581.85 402.65L1580.57 243.141L1576.71 221.501L1427.75 227.701Z" fill="url(#paint15_linear_103_1393)"/>
<path d="M1375.68 223.415L1379.9 306.772L1398.54 325.483L1385.07 330.544L1385.86 339.814L1392.18 346.567L1392.41 423.626L1324.78 358.526L1282.35 281.243L1259.78 269.838L1267.46 212.862L1291.04 195.319L1368.71 209.892L1375.68 223.415Z" fill="url(#paint16_linear_103_1393)"/>
<path d="M1245.67 186.81L1244.8 264.483L1198 273.248L1205.96 371.209L1056.6 366.677L1184.72 175.305L1245.67 186.81Z" fill="url(#paint17_linear_103_1393)"/>
<path d="M1409.98 242.298L1404.41 275.408L1418.88 303.811L1420.31 276.234L1409.98 242.298Z" fill="url(#paint18_linear_103_1393)"/>
<path fill-rule="evenodd" clip-rule="evenodd" d="M1062.29 306.91C1062.29 306.91 1070.4 323.664 1076.95 333.326C1083.5 342.989 1089.31 349.105 1089.31 349.105L1083.14 358.443L857.47 368.755L642 387.607C642 387.607 654.534 405.484 659.666 410.626C664.827 415.767 671.876 420.288 671.876 420.288C671.876 420.288 676.388 442.184 678.01 451.226C679.632 460.238 675.503 468.63 675.503 468.63L685.029 499.568L991.541 564.014H1187.75L1585.81 602.043L2000.35 622.904V406.991L1624.38 352.651L1062.29 306.91Z" fill="url(#paint19_linear_103_1393)"/>
<path fill-rule="evenodd" clip-rule="evenodd" d="M1147.47 359.861C1147.47 359.861 1128.71 350.878 1116.65 349.43C1104.58 347.982 797.335 359.211 778.991 359.861L738.056 356.67C738.056 356.67 729.798 347.716 721.599 349.282C713.401 350.849 706.617 354.483 706.617 354.483C706.617 354.483 703.609 363.909 701.014 366.332C698.419 368.755 687.329 370.676 687.329 370.676L678.865 377.442L665.653 368.726L651.172 377.442L642 387.607C642 387.607 664.178 390.503 670.932 392.424C677.686 394.344 782.353 388.08 813.232 392.424C844.11 396.767 878.822 396.767 881.241 399.19C883.659 401.613 915.599 408.144 927.366 406.814C939.134 405.484 1057.9 387.607 1057.9 387.607L1126.26 373.394L1147.47 359.861Z" fill="url(#paint20_linear_103_1393)"/>
<path fill-rule="evenodd" clip-rule="evenodd" d="M2001 282H1457.99C1457.99 282 1444.3 287.88 1434.66 288.678C1425.02 289.476 1311.62 290.924 1295.63 291.19C1279.65 291.426 1236.5 289.003 1209.19 291.19C1181.91 293.376 1147.08 294.676 1136.2 296.597C1125.32 298.518 1094.32 301.739 1083.11 303.659C1071.91 305.58 1059.7 303.659 1062.26 306.88C1064.83 310.101 1090.58 310.751 1099.57 315.242C1108.57 319.763 1149.18 322.984 1158.79 325.555C1168.41 328.126 1220.55 335.217 1232.4 339.088C1244.29 342.959 1253.93 346.18 1253.93 346.18C1253.93 346.18 1151.42 357.793 1138.68 361.634C1125.94 365.505 1114.38 368.726 1114.38 368.726C1114.38 368.726 960.102 386.78 944.943 392.572C929.784 398.363 920.258 400.934 922.146 404.805C924.004 408.676 979.449 412.547 992.249 413.817C1005.05 415.117 1061.64 400.284 1071.29 405.455C1080.93 410.596 1091.34 413.817 1096.74 418.338C1102.17 422.859 1118.95 418.988 1133.69 422.859C1148.44 426.73 1385.76 429.951 1398.62 432.522C1411.48 435.092 1423.07 447.355 1437.2 450.576C1451.35 453.797 2000.29 454.447 2000.29 454.447L2001 282Z" fill="url(#paint21_radial_103_1393)"/>
<path fill-rule="evenodd" clip-rule="evenodd" d="M1928.74 455.215L1940.75 614.276L1800.92 617.615L1615.09 602.368L1592.42 525.453L1574.81 455.245L1572.68 531.126L1574.81 581.536L1543.37 614.306L1465.72 597.729L1437.29 450.635L1398.71 432.581L1384.76 514.431L1368.72 521.493L1374.5 562.388L1284.43 564.9L1152.54 569.362L1133.78 422.918L1122.28 421.204L1135.79 503.084L1102.26 420.377L1100.01 531.628L1086.77 471.91L1059.2 471.29L1061.47 404.509L992.279 413.906L997.174 461.42L944.649 468.66L915.039 461.42L877.554 398.186L815.621 395.113L833.965 433.172L838.447 454.447L849.625 508.58L798.751 497.765L766.369 421.973L763.567 404.628L753.51 391.094L670.932 392.453L642 387.607C642 387.607 655.773 407.11 659.666 410.626C663.559 414.142 671.876 420.288 671.876 420.288L699.038 422.298L717.736 434.265L731.715 454.417L703.049 461.332L692.048 469.221L676.594 471.171L683.79 493.215L730.034 514.46L1080.43 591.76L1494.47 626.864L1940.75 630.233L2000.32 622.875V454.447L1928.74 455.215Z" fill="url(#paint22_linear_103_1393)"/>
<path fill-rule="evenodd" clip-rule="evenodd" d="M1244.29 343.018L1380.9 341.896L1461.47 343.018L1557.26 351.972L1748.16 366.037H1510.81L1409.53 362.461L1265.73 348.751L1244.29 343.018Z" fill="url(#paint23_linear_103_1393)"/>
<path fill-rule="evenodd" clip-rule="evenodd" d="M910.674 409.326L992.249 413.847C992.249 413.847 1019.53 413.226 1061.44 404.45L1102.2 420.347L1133.72 422.889L1139.95 430.128L1398.65 432.551L1497.63 418.515L1546.79 409.355L1748.16 366.037L1517.42 358.945L1477.72 366.037L1397.53 361.338L1253.93 346.209C1253.93 346.209 1156.2 357.527 1138.68 361.663C1121.16 365.8 1002.98 382.17 1002.98 382.17L889.911 402.116C889.941 402.145 889.144 406.548 910.674 409.326Z" fill="url(#paint24_linear_103_1393)"/>
<path fill-rule="evenodd" clip-rule="evenodd" d="M706.617 354.483L714.374 360.393L726.996 357.438L732.806 354.483L729.444 348.751C729.474 348.751 713.371 349.135 706.617 354.483Z" fill="#0064D7"/>
<path fill-rule="evenodd" clip-rule="evenodd" d="M684.351 373.069H694.968L702.636 366.923C702.636 366.923 694.584 364.471 684.351 373.069Z" fill="#3171D3"/>
<path fill-rule="evenodd" clip-rule="evenodd" d="M665.623 368.755L653.473 378.063L656.274 382.17H669.634L678.865 377.442L665.623 368.755Z" fill="#0064D7"/>
<path fill-rule="evenodd" clip-rule="evenodd" d="M815.62 395.113L839.184 392.69L855.965 389.38L882.774 392.247L921.91 395.113L967.711 387.607L889.94 402.145L878.674 400.136L873.838 402.145L815.62 395.113Z" fill="url(#paint25_linear_103_1393)"/>
<path fill-rule="evenodd" clip-rule="evenodd" d="M1398.65 432.551L1443.07 426.228L1497.63 418.515L1557.64 406.991L1481.05 415.827L1371.19 431.044L1391.54 468.63L1398.65 432.551Z" fill="url(#paint26_linear_103_1393)"/>
<path fill-rule="evenodd" clip-rule="evenodd" d="M1457.99 282L1544.2 290.953L1551.36 299.936L1515.71 297.129H1452L1404.52 290.953L1457.99 282Z" fill="#1A65BD"/>
<path fill-rule="evenodd" clip-rule="evenodd" d="M449.21 269.739C449.21 269.739 442.132 284.36 436.418 292.793C430.704 301.225 425.634 306.563 425.634 306.563L431.013 314.712L627.959 323.712L816 340.164C816 340.164 805.061 355.765 800.583 360.252C796.079 364.739 789.928 368.685 789.928 368.685C789.928 368.685 785.99 387.793 784.574 395.684C783.159 403.549 786.762 410.873 786.762 410.873L778.448 437.872L510.955 494.114H339.721L-7.66267 527.302L-369.434 545.508V357.08L-41.3278 309.658L449.21 269.739Z" fill="url(#paint27_linear_103_1393)"/>
<path fill-rule="evenodd" clip-rule="evenodd" d="M374.879 315.949C374.879 315.949 391.248 308.11 401.775 306.847C412.302 305.583 680.439 315.382 696.448 315.949L732.172 313.164C732.172 313.164 739.378 305.351 746.534 306.718C753.689 308.084 759.608 311.256 759.608 311.256C759.608 311.256 762.234 319.482 764.499 321.597C766.763 323.711 776.441 325.388 776.441 325.388L783.828 331.293L795.358 323.686L807.996 331.293L816 340.164C816 340.164 796.645 342.691 790.751 344.367C784.857 346.043 693.514 340.576 666.566 344.367C639.619 348.158 609.325 348.158 607.215 350.272C605.104 352.387 577.23 358.086 566.961 356.925C556.691 355.765 453.045 340.164 453.045 340.164L393.385 327.76L374.879 315.949Z" fill="url(#paint28_linear_103_1393)"/>
<path fill-rule="evenodd" clip-rule="evenodd" d="M-370 248H103.885C103.885 248 115.828 253.132 124.244 253.828C132.66 254.524 231.622 255.788 245.572 256.02C259.522 256.226 297.177 254.112 321.01 256.02C344.817 257.928 375.214 259.063 384.711 260.739C394.208 262.415 421.259 265.226 431.039 266.902C440.82 268.578 451.475 266.902 449.236 269.713C446.997 272.524 424.528 273.091 416.677 277.011C408.827 280.956 373.386 283.767 364.996 286.01C356.605 288.254 311.101 294.443 300.754 297.821C290.382 301.199 281.966 304.01 281.966 304.01C281.966 304.01 371.43 314.144 382.549 317.497C393.668 320.875 403.757 323.686 403.757 323.686C403.757 323.686 538.392 339.442 551.621 344.496C564.85 349.55 573.164 351.794 571.516 355.172C569.895 358.55 521.508 361.928 510.337 363.037C499.167 364.172 449.776 351.226 441.36 355.739C432.944 360.226 423.858 363.037 419.148 366.982C414.413 370.928 399.768 367.55 386.899 370.928C374.03 374.306 166.917 377.117 155.696 379.36C144.474 381.604 134.359 392.305 122.031 395.116C109.676 397.927 -369.382 398.494 -369.382 398.494L-370 248Z" fill="url(#paint29_radial_103_1393)"/>
<path fill-rule="evenodd" clip-rule="evenodd" d="M-306.676 395.222L-317.149 523.95L-195.155 526.653L-33.0192 514.313L-13.2315 452.065L2.1304 395.245L3.98309 456.657L2.1304 497.454L29.5605 523.974L97.3122 510.559L122.118 391.515L155.775 376.903L167.946 443.145L181.944 448.861L176.9 481.957L255.485 483.99L370.558 487.601L386.923 369.084L396.958 367.697L385.173 433.962L414.43 367.027L416.386 457.063L427.939 408.733L451.999 408.231L450.017 354.185L510.384 361.79L506.113 400.243L551.941 406.102L577.775 400.243L610.48 349.068L664.517 346.58L648.512 377.382L644.601 394.6L634.848 438.41L679.236 429.658L707.489 368.318L709.934 354.281L718.708 343.328L790.757 344.428L816 340.506C816 340.506 803.983 356.29 800.587 359.135C797.19 361.981 789.934 366.955 789.934 366.955L766.235 368.581L749.921 378.267L737.724 394.576L762.735 400.172L772.333 406.557L785.817 408.135L779.538 425.975L739.191 443.169L433.472 505.728L72.2237 534.138L-317.149 536.864L-369.127 530.909V394.6L-306.676 395.222Z" fill="url(#paint30_linear_103_1393)"/>
<path fill-rule="evenodd" clip-rule="evenodd" d="M599.622 410.872L586.032 489.807C586.032 489.807 543.436 506.079 526.527 509.379C509.617 512.68 490.108 501.54 490.108 501.54L458.913 498.755L437.448 484.185L427.848 413.683L481.099 413.116L599.622 410.872Z" fill="url(#paint31_linear_103_1393)"/>
<path fill-rule="evenodd" clip-rule="evenodd" d="M599.622 410.872C599.622 410.872 548.018 391.197 540.991 391.764C533.965 392.331 510.389 391.764 510.389 391.764C510.389 391.764 491.317 400.196 479.529 401.331C467.741 402.466 427.899 413.709 427.899 413.709C427.899 413.709 455.284 418.196 464.035 418.196L460.432 423.818C460.432 423.818 479.504 427.196 508.69 423.818C508.716 423.818 532.832 418.737 599.622 410.872Z" fill="url(#paint32_linear_103_1393)"/>
<path fill-rule="evenodd" clip-rule="evenodd" d="M784.548 403.368L764.473 400.944L752.839 402.156L762.723 404.554L772.323 411.439L785.81 413.141C785.81 413.141 788.486 408.242 784.548 403.368Z" fill="url(#paint33_linear_103_1393)"/>
<path fill-rule="evenodd" clip-rule="evenodd" d="M290.382 301.251L171.164 300.271L100.848 301.251L17.2518 309.064L-149.349 321.339H57.7889L146.173 318.219L271.67 306.253L290.382 301.251Z" fill="url(#paint34_linear_103_1393)"/>
<path fill-rule="evenodd" clip-rule="evenodd" d="M581.528 359.117L510.337 363.062C510.337 363.062 486.53 362.521 449.956 354.862L414.386 368.735L386.873 370.953L381.442 377.271L155.67 379.385L69.2934 367.137L26.3883 359.142L-149.35 321.338L52.0233 315.149L86.6664 321.338L156.648 317.238L281.965 304.035C281.965 304.035 367.26 313.912 382.549 317.522C397.837 321.132 500.969 335.418 500.969 335.418L599.647 352.825C599.622 352.85 600.317 356.693 581.528 359.117Z" fill="url(#paint35_linear_103_1393)"/>
<path fill-rule="evenodd" clip-rule="evenodd" d="M759.608 311.256L752.839 316.414L741.824 313.835L736.753 311.256L739.687 306.254C739.662 306.254 753.714 306.589 759.608 311.256Z" fill="#0064D7"/>
<path fill-rule="evenodd" clip-rule="evenodd" d="M779.04 327.476H769.774L763.083 322.112C763.083 322.112 770.109 319.972 779.04 327.476Z" fill="#3171D3"/>
<path fill-rule="evenodd" clip-rule="evenodd" d="M795.384 323.711L805.988 331.834L803.543 335.418H791.884L783.828 331.292L795.384 323.711Z" fill="#0064D7"/>
<path fill-rule="evenodd" clip-rule="evenodd" d="M1.96289 399.165L-56.4877 404.554H-85.031L-144.743 401.847L-174.393 403.368L-214.698 404.554L-231.608 414.818L-269.314 413.116L-301.409 409.763L-312.245 399.165L-347.351 397.282L-369.434 398.494L-221.21 384.285L-142.993 391.738H-68.3014L1.96289 399.165Z" fill="url(#paint36_linear_103_1393)"/>
<path fill-rule="evenodd" clip-rule="evenodd" d="M664.481 346.714L643.917 344.599L629.272 341.711L605.876 344.212L571.722 346.714L531.751 340.164L599.622 352.851L609.454 351.097L613.675 352.851L664.481 346.714Z" fill="url(#paint37_linear_103_1393)"/>
<path fill-rule="evenodd" clip-rule="evenodd" d="M155.67 379.386L116.909 373.867L69.2937 367.137L16.9172 357.08L83.7584 364.79L179.632 378.071L161.873 410.872L155.67 379.386Z" fill="url(#paint38_linear_103_1393)"/>
<path fill-rule="evenodd" clip-rule="evenodd" d="M103.885 248L28.6534 255.814L22.3991 263.653L53.5161 261.203H109.11L150.548 255.814L103.885 248Z" fill="#1A65BD"/>
<defs>
<linearGradient id="paint0_linear_103_1393" x1="-49.899" y1="381.158" x2="245.02" y2="47.1841" gradientUnits="userSpaceOnUse">
<stop stop-color="#0054A5"/>
<stop offset="0.2411" stop-color="#024389"/>
<stop offset="0.7521" stop-color="#072152"/>
<stop offset="1" stop-color="#09143D"/>
</linearGradient>
<linearGradient id="paint1_linear_103_1393" x1="188.419" y1="343.792" x2="188.419" y2="4.24745" gradientUnits="userSpaceOnUse">
<stop stop-color="#0054A5"/>
<stop offset="1" stop-color="#0054A5"/>
</linearGradient>
<linearGradient id="paint2_linear_103_1393" x1="54.5769" y1="255.998" x2="79.6902" y2="379.522" gradientUnits="userSpaceOnUse">
<stop stop-color="#001740"/>
<stop offset="1" stop-color="#0056CC"/>
</linearGradient>
<linearGradient id="paint3_linear_103_1393" x1="48.5085" y1="81.644" x2="154.928" y2="379.254" gradientUnits="userSpaceOnUse">
<stop stop-color="#001740"/>
<stop offset="1" stop-color="#0056CC"/>
</linearGradient>
<linearGradient id="paint4_linear_103_1393" x1="151.692" y1="108.694" x2="257.08" y2="346.998" gradientUnits="userSpaceOnUse">
<stop stop-color="#001740"/>
<stop offset="1" stop-color="#0056CC"/>
</linearGradient>
<linearGradient id="paint5_linear_103_1393" x1="146.482" y1="99.1672" x2="146.482" y2="159.934" gradientUnits="userSpaceOnUse">
<stop stop-color="#001740"/>
<stop offset="1" stop-color="#002B66"/>
</linearGradient>
<linearGradient id="paint6_linear_103_1393" x1="153.256" y1="144.945" x2="184.045" y2="144.945" gradientUnits="userSpaceOnUse">
<stop stop-color="#3171D3"/>
<stop offset="0.1334" stop-color="#256AC8"/>
<stop offset="0.4273" stop-color="#115EB5"/>
<stop offset="0.7181" stop-color="#0456A9"/>
<stop offset="1" stop-color="#0054A5"/>
</linearGradient>
<linearGradient id="paint7_linear_103_1393" x1="162.375" y1="83.6998" x2="192.525" y2="83.6998" gradientUnits="userSpaceOnUse">
<stop stop-color="#3171D3"/>
<stop offset="0.273" stop-color="#2C6ECF"/>
<stop offset="0.5789" stop-color="#1F66C2"/>
<stop offset="0.8996" stop-color="#0959AD"/>
<stop offset="1" stop-color="#0054A5"/>
</linearGradient>
<linearGradient id="paint8_linear_103_1393" x1="147.067" y1="298.334" x2="229.77" y2="298.334" gradientUnits="userSpaceOnUse">
<stop stop-color="#3171D3"/>
<stop offset="0.1334" stop-color="#256AC8"/>
<stop offset="0.4273" stop-color="#115EB5"/>
<stop offset="0.7181" stop-color="#0456A9"/>
<stop offset="1" stop-color="#0054A5"/>
</linearGradient>
<linearGradient id="paint9_linear_103_1393" x1="219.53" y1="217.688" x2="229.771" y2="217.688" gradientUnits="userSpaceOnUse">
<stop stop-color="#3171D3"/>
<stop offset="0.1334" stop-color="#256AC8"/>
<stop offset="0.4273" stop-color="#115EB5"/>
<stop offset="0.7181" stop-color="#0456A9"/>
<stop offset="1" stop-color="#0054A5"/>
</linearGradient>
<linearGradient id="paint10_linear_103_1393" x1="153.256" y1="169.233" x2="183.748" y2="169.233" gradientUnits="userSpaceOnUse">
<stop stop-color="#3171D3"/>
<stop offset="0.4087" stop-color="#2F70D1"/>
<stop offset="0.632" stop-color="#276BC9"/>
<stop offset="0.8104" stop-color="#1963BC"/>
<stop offset="0.9643" stop-color="#0657AA"/>
<stop offset="1" stop-color="#0054A5"/>
</linearGradient>
<linearGradient id="paint11_linear_103_1393" x1="176.513" y1="48.6293" x2="200.321" y2="48.6293" gradientUnits="userSpaceOnUse">
<stop stop-color="#3171D3"/>
<stop offset="0.6495" stop-color="#0E5CB2"/>
<stop offset="1" stop-color="#0054A5"/>
</linearGradient>
<linearGradient id="paint12_linear_103_1393" x1="169.62" y1="105.32" x2="183.999" y2="105.32" gradientUnits="userSpaceOnUse">
<stop stop-color="#3171D3"/>
<stop offset="0.6495" stop-color="#0E5CB2"/>
<stop offset="1" stop-color="#0054A5"/>
</linearGradient>
<linearGradient id="paint13_linear_103_1393" x1="921.517" y1="186.29" x2="2024.5" y2="141" gradientUnits="userSpaceOnUse">
<stop offset="0.110107" stop-color="#8CB2D7"/>
<stop offset="0.253669" stop-color="#0456A9"/>
<stop offset="0.544859" stop-color="#00286E"/>
</linearGradient>
<linearGradient id="paint14_linear_103_1393" x1="1366.5" y1="191" x2="1402" y2="654" gradientUnits="userSpaceOnUse">
<stop offset="0.434678" stop-color="#00286E"/>
<stop offset="0.615603" stop-color="#2F70D1"/>
<stop offset="0.7005" stop-color="#286CCB"/>
<stop offset="0.8366" stop-color="#1C65C0"/>
<stop offset="0.9465" stop-color="#0B5BB0"/>
<stop offset="1" stop-color="#0054A5"/>
</linearGradient>
<linearGradient id="paint15_linear_103_1393" x1="1492" y1="72" x2="1476" y2="395" gradientUnits="userSpaceOnUse">
<stop offset="0.245668" stop-color="#1A65BD"/>
<stop offset="0.918112" stop-color="#0054A5"/>
</linearGradient>
<linearGradient id="paint16_linear_103_1393" x1="1379.22" y1="524.755" x2="1333.49" y2="58.9818" gradientUnits="userSpaceOnUse">
<stop offset="0.477336" stop-color="#0054A5"/>
<stop offset="0.725128" stop-color="#1A65BD"/>
</linearGradient>
<linearGradient id="paint17_linear_103_1393" x1="1240" y1="127.5" x2="1075.46" y2="460.29" gradientUnits="userSpaceOnUse">
<stop offset="0.252341" stop-color="#1A65BD"/>
<stop offset="0.616955" stop-color="#0054A5"/>
</linearGradient>
<linearGradient id="paint18_linear_103_1393" x1="1431" y1="274.5" x2="1399" y2="282" gradientUnits="userSpaceOnUse">
<stop stop-color="#00348E"/>
<stop offset="1" stop-color="#09143D"/>
</linearGradient>
<linearGradient id="paint19_linear_103_1393" x1="1301.07" y1="865.193" x2="1320.8" y2="374.015" gradientUnits="userSpaceOnUse">
<stop stop-color="#0054A5"/>
<stop offset="0.647313" stop-color="#0054A5"/>
<stop offset="0.902909" stop-color="#00286E"/>
</linearGradient>
<linearGradient id="paint20_linear_103_1393" x1="497.398" y1="407.246" x2="1190.65" y2="349.027" gradientUnits="userSpaceOnUse">
<stop offset="0.199851" stop-color="#D7E0E8"/>
<stop offset="0.24418" stop-color="#3171D3"/>
<stop offset="0.910792" stop-color="#0054A5"/>
</linearGradient>
<radialGradient id="paint21_radial_103_1393" cx="0" cy="0" r="1" gradientUnits="userSpaceOnUse" gradientTransform="translate(764.572 282) rotate(-1.52388) scale(1838.2 1841.73)">
<stop offset="0.0551722" stop-color="#AACCFA"/>
<stop offset="0.372369" stop-color="#0054A5"/>
<stop offset="0.566932" stop-color="#00286E"/>
</radialGradient>
<linearGradient id="paint22_linear_103_1393" x1="1321.01" y1="1036.41" x2="1320.94" y2="253.789" gradientUnits="userSpaceOnUse">
<stop offset="0.551327" stop-color="#0054A5"/>
<stop offset="0.718168" stop-color="#00286E"/>
</linearGradient>
<linearGradient id="paint23_linear_103_1393" x1="1244.3" y1="353.967" x2="2089.52" y2="365.801" gradientUnits="userSpaceOnUse">
<stop offset="0.00697047" stop-color="#00286E"/>
<stop offset="0.244425" stop-color="#22539F"/>
<stop offset="0.975994" stop-color="#D7E0E8"/>
</linearGradient>
<linearGradient id="paint24_linear_103_1393" x1="552.424" y1="389.354" x2="2261.71" y2="346.205" gradientUnits="userSpaceOnUse">
<stop stop-color="#D7E0E8"/>
<stop offset="0.245091" stop-color="#1A65BD"/>
<stop offset="0.75882" stop-color="#00286E"/>
</linearGradient>
<linearGradient id="paint25_linear_103_1393" x1="893.133" y1="400.537" x2="892.814" y2="389.674" gradientUnits="userSpaceOnUse">
<stop stop-color="#0456A9"/>
<stop offset="1" stop-color="#1A65BD"/>
</linearGradient>
<linearGradient id="paint26_linear_103_1393" x1="1371.41" y1="456.77" x2="1773.5" y2="377.337" gradientUnits="userSpaceOnUse">
<stop stop-color="#22539F"/>
<stop offset="1" stop-color="#0064D7"/>
</linearGradient>
<linearGradient id="paint27_linear_103_1393" x1="240.828" y1="756.953" x2="223.613" y2="328.302" gradientUnits="userSpaceOnUse">
<stop stop-color="#0054A5"/>
<stop offset="0.647313" stop-color="#0054A5"/>
<stop offset="0.902909" stop-color="#00286E"/>
</linearGradient>
<linearGradient id="paint28_linear_103_1393" x1="942.194" y1="357.303" x2="337.192" y2="306.494" gradientUnits="userSpaceOnUse">
<stop offset="0.199851" stop-color="#D7E0E8"/>
<stop offset="0.24418" stop-color="#3171D3"/>
<stop offset="0.910792" stop-color="#0054A5"/>
</linearGradient>
<radialGradient id="paint29_radial_103_1393" cx="0" cy="0" r="1" gradientUnits="userSpaceOnUse" gradientTransform="translate(709.031 248) rotate(-178.476) scale(1604.2 1607.27)">
<stop offset="0.0551722" stop-color="#AACCFA"/>
<stop offset="0.372369" stop-color="#0054A5"/>
<stop offset="0.566932" stop-color="#00286E"/>
</radialGradient>
<linearGradient id="paint30_linear_103_1393" x1="223.565" y1="865.582" x2="223.617" y2="232.206" gradientUnits="userSpaceOnUse">
<stop offset="0.551327" stop-color="#0054A5"/>
<stop offset="0.718168" stop-color="#00286E"/>
</linearGradient>
<linearGradient id="paint31_linear_103_1393" x1="513.77" y1="411.001" x2="513.77" y2="573.152" gradientUnits="userSpaceOnUse">
<stop stop-color="#00286E"/>
<stop offset="1" stop-color="#0064D7"/>
</linearGradient>
<linearGradient id="paint32_linear_103_1393" x1="453.918" y1="408.454" x2="924.233" y2="436.206" gradientUnits="userSpaceOnUse">
<stop offset="0.13746" stop-color="#0054A5"/>
<stop offset="1" stop-color="#D7E0E8"/>
</linearGradient>
<linearGradient id="paint33_linear_103_1393" x1="786.698" y1="407.036" x2="752.836" y2="407.036" gradientUnits="userSpaceOnUse">
<stop stop-color="#0064D7"/>
<stop offset="1" stop-color="#3171D3"/>
</linearGradient>
<linearGradient id="paint34_linear_103_1393" x1="290.373" y1="310.806" x2="-447.254" y2="321.133" gradientUnits="userSpaceOnUse">
<stop offset="0.00697047" stop-color="#00286E"/>
<stop offset="0.244425" stop-color="#22539F"/>
<stop offset="0.975994" stop-color="#D7E0E8"/>
</linearGradient>
<linearGradient id="paint35_linear_103_1393" x1="894.173" y1="341.688" x2="-597.522" y2="304.031" gradientUnits="userSpaceOnUse">
<stop stop-color="#D7E0E8"/>
<stop offset="0.245091" stop-color="#1A65BD"/>
<stop offset="0.75882" stop-color="#00286E"/>
</linearGradient>
<linearGradient id="paint36_linear_103_1393" x1="1.95414" y1="399.548" x2="-389.823" y2="399.686" gradientUnits="userSpaceOnUse">
<stop stop-color="#0054A5"/>
<stop offset="1" stop-color="#0A5093"/>
</linearGradient>
<linearGradient id="paint37_linear_103_1393" x1="596.836" y1="351.447" x2="597.114" y2="341.967" gradientUnits="userSpaceOnUse">
<stop stop-color="#0456A9"/>
<stop offset="1" stop-color="#1A65BD"/>
</linearGradient>
<linearGradient id="paint38_linear_103_1393" x1="179.446" y1="400.522" x2="-171.462" y2="331.201" gradientUnits="userSpaceOnUse">
<stop stop-color="#22539F"/>
<stop offset="1" stop-color="#0064D7"/>
</linearGradient>
</defs>
</svg>
