<svg width="1385" height="502" viewBox="0 0 1385 502" fill="none" xmlns="http://www.w3.org/2000/svg">
<g filter="url(#filter0_f_103_1036)">
<path opacity="0.9" d="M57.1385 218.458L60.919 216.918C61.066 216.847 61.1738 216.726 61.1974 216.547L61.7289 212.537C61.7525 212.359 61.6801 212.214 61.5567 212.107L58.3078 209.636C58.1844 209.529 58.0042 209.505 57.8572 209.576L54.0767 211.115C53.9297 211.186 53.8219 211.308 53.7983 211.486L53.2668 215.496C53.2432 215.674 53.3156 215.82 53.4389 215.927L56.6879 218.398C56.8172 218.46 56.9974 218.484 57.1385 218.458Z" fill="white"/>
<path opacity="0.9" d="M150.195 290.444L153.976 288.905C154.123 288.833 154.23 288.712 154.254 288.533L154.786 284.524C154.809 284.345 154.737 284.2 154.613 284.093L151.364 281.622C151.241 281.515 151.061 281.491 150.914 281.562L147.133 283.101C146.986 283.172 146.879 283.294 146.855 283.472L146.323 287.482C146.3 287.66 146.372 287.806 146.496 287.913L149.745 290.384C149.874 290.446 150.054 290.47 150.195 290.444Z" fill="white"/>
<path opacity="0.9" d="M1289.72 223.813L1291.64 223.028C1291.72 222.992 1291.77 222.93 1291.79 222.839L1292.06 220.796C1292.07 220.705 1292.03 220.631 1291.97 220.576L1290.31 219.317C1290.25 219.263 1290.16 219.25 1290.08 219.287L1288.16 220.071C1288.08 220.107 1288.03 220.169 1288.02 220.26L1287.75 222.304C1287.73 222.394 1287.77 222.469 1287.83 222.523L1289.49 223.782C1289.55 223.814 1289.65 223.826 1289.72 223.813Z" fill="white"/>
<path opacity="0.9" d="M1309.14 27.8132L1311.06 27.0289C1311.14 26.9926 1311.19 26.9305 1311.21 26.8397L1311.48 24.7963C1311.49 24.7054 1311.45 24.6312 1311.39 24.5767L1309.73 23.3176C1309.67 23.263 1309.58 23.2509 1309.5 23.2871L1307.58 24.0715C1307.5 24.1077 1307.45 24.1698 1307.44 24.2606L1307.17 26.3041C1307.15 26.3949 1307.19 26.4691 1307.25 26.5236L1308.91 27.7828C1308.97 27.8146 1309.07 27.8268 1309.14 27.8132Z" fill="white"/>
<path opacity="0.9" d="M711.138 204.813L713.065 204.029C713.14 203.993 713.195 203.931 713.207 203.84L713.478 201.796C713.49 201.705 713.453 201.631 713.39 201.577L711.734 200.318C711.671 200.263 711.579 200.251 711.504 200.287L709.578 201.071C709.503 201.108 709.448 201.17 709.436 201.261L709.165 203.304C709.153 203.395 709.19 203.469 709.253 203.524L710.909 204.783C710.974 204.815 711.066 204.827 711.138 204.813Z" fill="white"/>
<path opacity="0.9" d="M1080.14 418.813L1082.06 418.028C1082.14 417.992 1082.19 417.93 1082.21 417.839L1082.48 415.796C1082.49 415.705 1082.45 415.631 1082.39 415.576L1080.73 414.317C1080.67 414.263 1080.58 414.25 1080.5 414.287L1078.58 415.071C1078.5 415.107 1078.45 415.169 1078.44 415.26L1078.17 417.304C1078.15 417.394 1078.19 417.469 1078.25 417.523L1079.91 418.782C1079.97 418.814 1080.07 418.826 1080.14 418.813Z" fill="white"/>
<path opacity="0.9" d="M1374.14 127.813L1376.06 127.028C1376.14 126.992 1376.19 126.93 1376.21 126.839L1376.48 124.796C1376.49 124.705 1376.45 124.631 1376.39 124.576L1374.73 123.317C1374.67 123.263 1374.58 123.25 1374.5 123.287L1372.58 124.071C1372.5 124.107 1372.45 124.169 1372.44 124.26L1372.17 126.304C1372.15 126.394 1372.19 126.469 1372.25 126.523L1373.91 127.782C1373.97 127.814 1374.07 127.826 1374.14 127.813Z" fill="white"/>
<path opacity="0.9" d="M347.138 11.8127L349.065 11.0284C349.14 10.9921 349.195 10.9301 349.207 10.8392L349.478 8.79578C349.49 8.70496 349.453 8.63076 349.39 8.57622L347.734 7.31709C347.671 7.26254 347.579 7.25037 347.504 7.28665L345.578 8.07098C345.503 8.10726 345.448 8.16929 345.436 8.26011L345.165 10.3036C345.153 10.3944 345.19 10.4686 345.253 10.5231L346.909 11.7823C346.974 11.8141 347.066 11.8263 347.138 11.8127Z" fill="white"/>
<path opacity="0.9" d="M1007.3 146.925L1008.47 146.448C1008.52 146.426 1008.55 146.389 1008.56 146.333L1008.72 145.092C1008.73 145.036 1008.71 144.991 1008.67 144.958L1007.66 144.193C1007.62 144.16 1007.57 144.152 1007.52 144.174L1006.35 144.651C1006.31 144.673 1006.27 144.711 1006.26 144.766L1006.1 146.008C1006.09 146.063 1006.12 146.108 1006.15 146.141L1007.16 146.907C1007.2 146.926 1007.26 146.933 1007.3 146.925Z" fill="white"/>
<path opacity="0.9" d="M635.299 69.9246L636.47 69.4479C636.515 69.4258 636.549 69.3881 636.556 69.3329L636.721 68.091C636.728 68.0358 636.706 67.9907 636.667 67.9576L635.661 67.1924C635.623 67.1592 635.567 67.1518 635.522 67.1739L634.351 67.6505C634.305 67.6726 634.272 67.7103 634.265 67.7655L634.1 69.0074C634.093 69.0626 634.115 69.1077 634.153 69.1408L635.16 69.9061C635.2 69.9254 635.255 69.9328 635.299 69.9246Z" fill="white"/>
<path opacity="0.9" d="M238.299 168.925L239.47 168.448C239.515 168.426 239.549 168.389 239.556 168.333L239.721 167.092C239.728 167.036 239.706 166.991 239.667 166.958L238.661 166.193C238.623 166.16 238.567 166.152 238.522 166.174L237.351 166.651C237.305 166.673 237.272 166.711 237.265 166.766L237.1 168.008C237.093 168.063 237.115 168.108 237.153 168.141L238.16 168.907C238.2 168.926 238.255 168.933 238.299 168.925Z" fill="white"/>
<path opacity="0.9" d="M11.2991 44.9246L12.4699 44.4479C12.5154 44.4258 12.5488 44.3881 12.5562 44.3329L12.7208 43.091C12.7281 43.0358 12.7057 42.9907 12.6674 42.9576L11.6612 42.1924C11.623 42.1592 11.5672 42.1518 11.5216 42.1739L10.3508 42.6505C10.3053 42.6726 10.2719 42.7103 10.2646 42.7655L10.1 44.0074C10.0926 44.0626 10.1151 44.1077 10.1533 44.1408L11.1595 44.9061C11.1996 44.9254 11.2554 44.9328 11.2991 44.9246Z" fill="white"/>
<path opacity="0.9" d="M460.299 108.925L461.47 108.448C461.515 108.426 461.549 108.388 461.556 108.333L461.721 107.091C461.728 107.036 461.706 106.991 461.667 106.958L460.661 106.192C460.623 106.159 460.567 106.152 460.522 106.174L459.351 106.651C459.305 106.673 459.272 106.71 459.265 106.765L459.1 108.007C459.093 108.063 459.115 108.108 459.153 108.141L460.16 108.906C460.2 108.925 460.255 108.933 460.299 108.925Z" fill="white"/>
<path opacity="0.9" d="M8.29907 336.925L9.46992 336.448C9.51544 336.426 9.54884 336.389 9.55616 336.333L9.72076 335.092C9.72808 335.036 9.70565 334.991 9.66744 334.958L8.6612 334.193C8.62299 334.16 8.56717 334.152 8.52164 334.174L7.35079 334.651C7.30527 334.673 7.27187 334.711 7.26455 334.766L7.09995 336.008C7.09263 336.063 7.11506 336.108 7.15327 336.141L8.15951 336.907C8.19955 336.926 8.25537 336.933 8.29907 336.925Z" fill="white"/>
<path opacity="0.9" d="M1376.3 377.925L1377.47 377.448C1377.52 377.426 1377.55 377.389 1377.56 377.333L1377.72 376.092C1377.73 376.036 1377.71 375.991 1377.67 375.958L1376.66 375.193C1376.62 375.16 1376.57 375.152 1376.52 375.174L1375.35 375.651C1375.31 375.673 1375.27 375.711 1375.26 375.766L1375.1 377.008C1375.09 377.063 1375.12 377.108 1375.15 377.141L1376.16 377.907C1376.2 377.926 1376.26 377.933 1376.3 377.925Z" fill="white"/>
<path opacity="0.9" d="M1210.3 143.925L1211.47 143.448C1211.52 143.426 1211.55 143.389 1211.56 143.333L1211.72 142.092C1211.73 142.036 1211.71 141.991 1211.67 141.958L1210.66 141.193C1210.62 141.16 1210.57 141.152 1210.52 141.174L1209.35 141.651C1209.31 141.673 1209.27 141.711 1209.26 141.766L1209.1 143.008C1209.09 143.063 1209.12 143.108 1209.15 143.141L1210.16 143.907C1210.2 143.926 1210.26 143.933 1210.3 143.925Z" fill="white"/>
<path opacity="0.9" d="M229.305 413.194L234.987 410.881C235.208 410.774 235.37 410.591 235.406 410.323L236.205 404.296C236.24 404.028 236.131 403.81 235.946 403.649L231.063 399.935C230.877 399.774 230.607 399.738 230.386 399.845L224.704 402.159C224.483 402.266 224.321 402.449 224.285 402.716L223.486 408.743C223.451 409.011 223.56 409.23 223.745 409.391L228.628 413.104C228.823 413.198 229.093 413.234 229.305 413.194Z" fill="white"/>
<path opacity="0.9" d="M389.919 253.014L384.363 249.972C384.134 249.865 383.882 249.854 383.644 250L378.297 253.289C378.06 253.435 377.955 253.665 377.947 253.918L378.156 260.249C378.148 260.502 378.296 260.742 378.526 260.85L384.081 263.892C384.311 263.999 384.563 264.01 384.801 263.863L390.148 260.575C390.385 260.429 390.49 260.199 390.498 259.946L390.289 253.615C390.237 253.398 390.089 253.158 389.919 253.014Z" fill="white"/>
<path opacity="0.9" d="M851.437 49.2839L843.943 47.0332C843.638 46.9627 843.331 47.0146 843.081 47.2522L837.464 52.598C837.214 52.8356 837.147 53.14 837.203 53.4482L839.08 61.0446C839.135 61.3527 839.375 61.6052 839.68 61.6758L847.175 63.9264C847.48 63.997 847.787 63.945 848.037 63.7074L853.654 58.3617C853.903 58.1241 853.971 57.8196 853.915 57.5115L852.038 49.9151C851.92 49.6663 851.68 49.4138 851.437 49.2839Z" fill="white"/>
<path opacity="0.9" d="M1189.83 473.738L1187.56 485.145C1187.5 485.606 1187.62 486.054 1188.01 486.39L1196.72 493.944C1197.1 494.28 1197.56 494.336 1198.01 494.211L1208.99 490.358C1209.43 490.232 1209.77 489.841 1209.83 489.38L1212.1 477.972C1212.16 477.511 1212.04 477.063 1211.66 476.728L1202.95 469.173C1202.57 468.837 1202.11 468.781 1201.66 468.907L1190.68 472.759C1190.33 472.969 1189.99 473.36 1189.83 473.738Z" fill="white"/>
</g>
<path opacity="0.9" d="M57.1385 218.458L60.919 216.918C61.066 216.847 61.1738 216.726 61.1974 216.547L61.7289 212.537C61.7525 212.359 61.6801 212.214 61.5567 212.107L58.3078 209.636C58.1844 209.529 58.0042 209.505 57.8572 209.576L54.0767 211.115C53.9297 211.186 53.8219 211.308 53.7983 211.486L53.2668 215.496C53.2432 215.674 53.3156 215.82 53.4389 215.927L56.6879 218.398C56.8172 218.46 56.9974 218.484 57.1385 218.458Z" fill="white"/>
<path opacity="0.9" d="M150.195 290.444L153.976 288.905C154.123 288.833 154.23 288.712 154.254 288.533L154.786 284.524C154.809 284.345 154.737 284.2 154.613 284.093L151.364 281.622C151.241 281.515 151.061 281.491 150.914 281.562L147.133 283.101C146.986 283.172 146.879 283.294 146.855 283.472L146.323 287.482C146.3 287.66 146.372 287.806 146.496 287.913L149.745 290.384C149.874 290.446 150.054 290.47 150.195 290.444Z" fill="white"/>
<path opacity="0.9" d="M1289.72 223.813L1291.64 223.028C1291.72 222.992 1291.77 222.93 1291.79 222.839L1292.06 220.796C1292.07 220.705 1292.03 220.631 1291.97 220.576L1290.31 219.317C1290.25 219.263 1290.16 219.25 1290.08 219.287L1288.16 220.071C1288.08 220.107 1288.03 220.169 1288.02 220.26L1287.75 222.304C1287.73 222.394 1287.77 222.469 1287.83 222.523L1289.49 223.782C1289.55 223.814 1289.65 223.826 1289.72 223.813Z" fill="white"/>
<path opacity="0.9" d="M1309.14 27.8132L1311.06 27.0289C1311.14 26.9926 1311.19 26.9305 1311.21 26.8397L1311.48 24.7963C1311.49 24.7054 1311.45 24.6312 1311.39 24.5767L1309.73 23.3176C1309.67 23.263 1309.58 23.2509 1309.5 23.2871L1307.58 24.0715C1307.5 24.1077 1307.45 24.1698 1307.44 24.2606L1307.17 26.3041C1307.15 26.3949 1307.19 26.4691 1307.25 26.5236L1308.91 27.7828C1308.97 27.8146 1309.07 27.8268 1309.14 27.8132Z" fill="white"/>
<path opacity="0.9" d="M711.138 204.813L713.065 204.029C713.14 203.993 713.195 203.931 713.207 203.84L713.478 201.796C713.49 201.705 713.453 201.631 713.39 201.577L711.734 200.318C711.671 200.263 711.579 200.251 711.504 200.287L709.578 201.071C709.503 201.108 709.448 201.17 709.436 201.261L709.165 203.304C709.153 203.395 709.19 203.469 709.253 203.524L710.909 204.783C710.974 204.815 711.066 204.827 711.138 204.813Z" fill="white"/>
<path opacity="0.9" d="M1080.14 418.813L1082.06 418.028C1082.14 417.992 1082.19 417.93 1082.21 417.839L1082.48 415.796C1082.49 415.705 1082.45 415.631 1082.39 415.576L1080.73 414.317C1080.67 414.263 1080.58 414.25 1080.5 414.287L1078.58 415.071C1078.5 415.107 1078.45 415.169 1078.44 415.26L1078.17 417.304C1078.15 417.394 1078.19 417.469 1078.25 417.523L1079.91 418.782C1079.97 418.814 1080.07 418.826 1080.14 418.813Z" fill="white"/>
<path opacity="0.9" d="M1374.14 127.813L1376.06 127.028C1376.14 126.992 1376.19 126.93 1376.21 126.839L1376.48 124.796C1376.49 124.705 1376.45 124.631 1376.39 124.576L1374.73 123.317C1374.67 123.263 1374.58 123.25 1374.5 123.287L1372.58 124.071C1372.5 124.107 1372.45 124.169 1372.44 124.26L1372.17 126.304C1372.15 126.394 1372.19 126.469 1372.25 126.523L1373.91 127.782C1373.97 127.814 1374.07 127.826 1374.14 127.813Z" fill="white"/>
<path opacity="0.9" d="M347.138 11.8127L349.065 11.0284C349.14 10.9921 349.195 10.9301 349.207 10.8392L349.478 8.79578C349.49 8.70496 349.453 8.63076 349.39 8.57622L347.734 7.31709C347.671 7.26254 347.579 7.25037 347.504 7.28665L345.578 8.07098C345.503 8.10726 345.448 8.16929 345.436 8.26011L345.165 10.3036C345.153 10.3944 345.19 10.4686 345.253 10.5231L346.909 11.7823C346.974 11.8141 347.066 11.8263 347.138 11.8127Z" fill="white"/>
<path opacity="0.9" d="M1007.3 146.925L1008.47 146.448C1008.52 146.426 1008.55 146.389 1008.56 146.333L1008.72 145.092C1008.73 145.036 1008.71 144.991 1008.67 144.958L1007.66 144.193C1007.62 144.16 1007.57 144.152 1007.52 144.174L1006.35 144.651C1006.31 144.673 1006.27 144.711 1006.26 144.766L1006.1 146.008C1006.09 146.063 1006.12 146.108 1006.15 146.141L1007.16 146.907C1007.2 146.926 1007.26 146.933 1007.3 146.925Z" fill="white"/>
<path opacity="0.9" d="M635.299 69.9246L636.47 69.4479C636.515 69.4258 636.549 69.3881 636.556 69.3329L636.721 68.091C636.728 68.0358 636.706 67.9907 636.667 67.9576L635.661 67.1924C635.623 67.1592 635.567 67.1518 635.522 67.1739L634.351 67.6505C634.305 67.6726 634.272 67.7103 634.265 67.7655L634.1 69.0074C634.093 69.0626 634.115 69.1077 634.153 69.1408L635.16 69.9061C635.2 69.9254 635.255 69.9328 635.299 69.9246Z" fill="white"/>
<path opacity="0.9" d="M238.299 168.925L239.47 168.448C239.515 168.426 239.549 168.389 239.556 168.333L239.721 167.092C239.728 167.036 239.706 166.991 239.667 166.958L238.661 166.193C238.623 166.16 238.567 166.152 238.522 166.174L237.351 166.651C237.305 166.673 237.272 166.711 237.265 166.766L237.1 168.008C237.093 168.063 237.115 168.108 237.153 168.141L238.16 168.907C238.2 168.926 238.255 168.933 238.299 168.925Z" fill="white"/>
<path opacity="0.9" d="M11.2991 44.9246L12.4699 44.4479C12.5154 44.4258 12.5488 44.3881 12.5562 44.3329L12.7208 43.091C12.7281 43.0358 12.7057 42.9907 12.6674 42.9576L11.6612 42.1924C11.623 42.1592 11.5672 42.1518 11.5216 42.1739L10.3508 42.6505C10.3053 42.6726 10.2719 42.7103 10.2646 42.7655L10.1 44.0074C10.0926 44.0626 10.1151 44.1077 10.1533 44.1408L11.1595 44.9061C11.1996 44.9254 11.2554 44.9328 11.2991 44.9246Z" fill="white"/>
<path opacity="0.9" d="M460.299 108.925L461.47 108.448C461.515 108.426 461.549 108.388 461.556 108.333L461.721 107.091C461.728 107.036 461.706 106.991 461.667 106.958L460.661 106.192C460.623 106.159 460.567 106.152 460.522 106.174L459.351 106.651C459.305 106.673 459.272 106.71 459.265 106.765L459.1 108.007C459.093 108.063 459.115 108.108 459.153 108.141L460.16 108.906C460.2 108.925 460.255 108.933 460.299 108.925Z" fill="white"/>
<path opacity="0.9" d="M8.29907 336.925L9.46992 336.448C9.51544 336.426 9.54884 336.389 9.55616 336.333L9.72076 335.092C9.72808 335.036 9.70565 334.991 9.66744 334.958L8.6612 334.193C8.62299 334.16 8.56717 334.152 8.52164 334.174L7.35079 334.651C7.30527 334.673 7.27187 334.711 7.26455 334.766L7.09995 336.008C7.09263 336.063 7.11506 336.108 7.15327 336.141L8.15951 336.907C8.19955 336.926 8.25537 336.933 8.29907 336.925Z" fill="white"/>
<path opacity="0.9" d="M1376.3 377.925L1377.47 377.448C1377.52 377.426 1377.55 377.389 1377.56 377.333L1377.72 376.092C1377.73 376.036 1377.71 375.991 1377.67 375.958L1376.66 375.193C1376.62 375.16 1376.57 375.152 1376.52 375.174L1375.35 375.651C1375.31 375.673 1375.27 375.711 1375.26 375.766L1375.1 377.008C1375.09 377.063 1375.12 377.108 1375.15 377.141L1376.16 377.907C1376.2 377.926 1376.26 377.933 1376.3 377.925Z" fill="white"/>
<path opacity="0.9" d="M1210.3 143.925L1211.47 143.448C1211.52 143.426 1211.55 143.389 1211.56 143.333L1211.72 142.092C1211.73 142.036 1211.71 141.991 1211.67 141.958L1210.66 141.193C1210.62 141.16 1210.57 141.152 1210.52 141.174L1209.35 141.651C1209.31 141.673 1209.27 141.711 1209.26 141.766L1209.1 143.008C1209.09 143.063 1209.12 143.108 1209.15 143.141L1210.16 143.907C1210.2 143.926 1210.26 143.933 1210.3 143.925Z" fill="white"/>
<path opacity="0.9" d="M229.305 413.194L234.987 410.881C235.208 410.774 235.37 410.591 235.406 410.323L236.205 404.296C236.24 404.028 236.131 403.81 235.946 403.649L231.063 399.935C230.877 399.774 230.607 399.738 230.386 399.845L224.704 402.159C224.483 402.266 224.321 402.449 224.285 402.716L223.486 408.743C223.451 409.011 223.56 409.23 223.745 409.391L228.628 413.104C228.823 413.198 229.093 413.234 229.305 413.194Z" fill="white"/>
<path opacity="0.9" d="M389.919 253.014L384.363 249.972C384.134 249.865 383.882 249.854 383.644 250L378.297 253.289C378.06 253.435 377.955 253.665 377.947 253.918L378.156 260.249C378.148 260.502 378.296 260.742 378.526 260.85L384.081 263.892C384.311 263.999 384.563 264.01 384.801 263.863L390.148 260.575C390.385 260.429 390.49 260.199 390.498 259.946L390.289 253.615C390.237 253.398 390.089 253.158 389.919 253.014Z" fill="white"/>
<path opacity="0.9" d="M851.437 49.2839L843.943 47.0332C843.638 46.9627 843.331 47.0146 843.081 47.2522L837.464 52.598C837.214 52.8356 837.147 53.14 837.203 53.4482L839.08 61.0446C839.135 61.3527 839.375 61.6052 839.68 61.6758L847.175 63.9264C847.48 63.997 847.787 63.945 848.037 63.7074L853.654 58.3617C853.903 58.1241 853.971 57.8196 853.915 57.5115L852.038 49.9151C851.92 49.6663 851.68 49.4138 851.437 49.2839Z" fill="white"/>
<path opacity="0.9" d="M1189.83 473.738L1187.56 485.145C1187.5 485.606 1187.62 486.054 1188.01 486.39L1196.72 493.944C1197.1 494.28 1197.56 494.336 1198.01 494.211L1208.99 490.358C1209.43 490.232 1209.77 489.841 1209.83 489.38L1212.1 477.972C1212.16 477.511 1212.04 477.063 1211.66 476.728L1202.95 469.173C1202.57 468.837 1202.11 468.781 1201.66 468.907L1190.68 472.759C1190.33 472.969 1189.99 473.36 1189.83 473.738Z" fill="white"/>
<defs>
<filter id="filter0_f_103_1036" x="0" y="0" width="1384.82" height="505.603" filterUnits="userSpaceOnUse" color-interpolation-filters="sRGB">
<feFlood flood-opacity="0" result="BackgroundImageFix"/>
<feBlend mode="normal" in="SourceGraphic" in2="BackgroundImageFix" result="shape"/>
<feGaussianBlur stdDeviation="3.5" result="effect1_foregroundBlur_103_1036"/>
</filter>
</defs>
</svg>
